<svg width="32" height="32" viewBox="0 0 32 32" fill="none" xmlns="http://www.w3.org/2000/svg">
<path fill-rule="evenodd" clip-rule="evenodd" d="M22.7306 6.43762C22.7135 6.45891 22.6954 6.47966 22.6764 6.49981L18.7139 10.6873C18.4399 10.9768 18.0203 11.076 17.6458 10.9398L7.24428 7.15742L5.55715 8.84456L13.5422 14.1679C13.7915 14.3341 13.9531 14.6033 13.9826 14.9014C14.0122 15.1996 13.9065 15.4952 13.6946 15.7071L10.6946 18.7071C10.5071 18.8946 10.2527 19 9.98751 19H7.40172L5.83417 20.5675L9.53213 21.8149C9.82752 21.9146 10.0595 22.1463 10.1596 22.4415L11.4181 26.1551L12.9875 24.5858V22C12.9875 21.7182 13.1064 21.4496 13.3148 21.26L16.3398 18.51C16.5539 18.3154 16.8418 18.2231 17.1292 18.2568C17.4165 18.2906 17.6752 18.4471 17.8383 18.6861L23.1332 26.4401L24.8301 24.7432L21.0477 14.3417C20.9111 13.9661 21.0113 13.5453 21.3024 13.2715L25.4577 9.36362C25.801 8.99353 25.9927 8.50664 25.9927 7.99999C25.9927 7.46817 25.7815 6.95814 25.4054 6.58209C25.0294 6.20604 24.5193 5.99478 23.9875 5.99478C23.5282 5.99478 23.0851 6.15237 22.7306 6.43762ZM26.9663 10.6774C27.6255 9.94407 27.9927 8.99096 27.9927 7.99999C27.9927 6.93774 27.5707 5.919 26.8196 5.16788C26.0685 4.41676 25.0498 3.99478 23.9875 3.99478C22.9253 3.99478 21.9065 4.41676 21.1554 5.16788C21.0996 5.22369 21.0517 5.28458 21.0117 5.3491L17.7123 8.83586L7.32925 5.06019C6.96412 4.92742 6.55513 5.01815 6.2804 5.29288L3.2804 8.29288C3.06856 8.50472 2.96285 8.80039 2.99237 9.09852C3.0219 9.39666 3.18353 9.66585 3.43281 9.83204L11.4179 15.1554L9.57329 17H6.98751C6.72229 17 6.46794 17.1053 6.2804 17.2929L3.2804 20.2929C3.03578 20.5375 2.93497 20.8912 3.01385 21.228C3.09273 21.5648 3.34009 21.837 3.66788 21.9475L8.42418 23.5519L10.0404 28.321C10.1514 28.6484 10.4236 28.8952 10.7602 28.9738C11.0968 29.0524 11.4502 28.9515 11.6946 28.7071L14.6946 25.7071C14.8822 25.5196 14.9875 25.2652 14.9875 25V22.4424L16.8348 20.763L22.1617 28.5639C22.3295 28.8097 22.5982 28.968 22.8945 28.9957C23.1909 29.0233 23.4841 28.9176 23.6946 28.7071L26.6946 25.7071C26.9693 25.4324 27.0601 25.0234 26.9273 24.6582L23.1524 14.2772L26.7359 10.907C26.7648 10.8839 26.7928 10.8589 26.8196 10.8321C26.8202 10.8316 26.8207 10.831 26.8212 10.8305L26.8946 10.7571C26.9202 10.7315 26.9441 10.7049 26.9663 10.6774Z" fill="black"/>
</svg>
