<svg width="32" height="32" viewBox="0 0 32 32" fill="none" xmlns="http://www.w3.org/2000/svg">
<path fill-rule="evenodd" clip-rule="evenodd" d="M16 8C16.5523 8 17 8.44772 17 9V15H23C23.5523 15 24 15.4477 24 16C24 16.5523 23.5523 17 23 17H16C15.4477 17 15 16.5523 15 16V9C15 8.44772 15.4477 8 16 8Z" fill="black"/>
<path fill-rule="evenodd" clip-rule="evenodd" d="M16 6C10.4772 6 6 10.4772 6 16C6 21.5228 10.4772 26 16 26C21.5228 26 26 21.5228 26 16C26 10.4772 21.5228 6 16 6ZM4 16C4 9.37258 9.37258 4 16 4C22.6274 4 28 9.37258 28 16C28 22.6274 22.6274 28 16 28C9.37258 28 4 22.6274 4 16Z" fill="black"/>
<path fill-rule="evenodd" clip-rule="evenodd" d="M23.7804 2.56789C24.171 2.17736 24.8041 2.17736 25.1947 2.56789L29.4322 6.80539C29.8227 7.19591 29.8227 7.82908 29.4322 8.2196C29.0416 8.61012 28.4085 8.61012 28.0179 8.2196L23.7804 3.9821C23.3899 3.59158 23.3899 2.95841 23.7804 2.56789Z" fill="black"/>
<path fill-rule="evenodd" clip-rule="evenodd" d="M8.21963 2.56789C8.61016 2.95841 8.61016 3.59158 8.21963 3.9821L3.98213 8.2196C3.59161 8.61012 2.95844 8.61012 2.56792 8.2196C2.17739 7.82908 2.17739 7.19591 2.56792 6.80539L6.80542 2.56789C7.19594 2.17736 7.82911 2.17736 8.21963 2.56789Z" fill="black"/>
</svg>
