<svg width="32" height="32" viewBox="0 0 32 32" fill="none" xmlns="http://www.w3.org/2000/svg">
<path d="M20.5 21C21.3284 21 22 20.3284 22 19.5C22 18.6716 21.3284 18 20.5 18C19.6716 18 19 18.6716 19 19.5C19 20.3284 19.6716 21 20.5 21Z" fill="black"/>
<path d="M11.5 21C12.3284 21 13 20.3284 13 19.5C13 18.6716 12.3284 18 11.5 18C10.6716 18 10 18.6716 10 19.5C10 20.3284 10.6716 21 11.5 21Z" fill="black"/>
<path fill-rule="evenodd" clip-rule="evenodd" d="M20.5602 9.90015C19.099 9.29982 17.5336 8.99391 15.9538 8.99999L15.9535 8.99999C9.34289 9.02302 4 14.4873 4 21.1375V24H28V21C28 19.4202 27.6881 17.856 27.0822 16.3971C26.4762 14.9382 25.5882 13.6133 24.469 12.4983C23.3498 11.3834 22.0215 10.5005 20.5602 9.90015ZM15.9465 7C17.7894 6.99296 19.6156 7.34985 21.3203 8.0502C23.025 8.75059 24.5747 9.7807 25.8805 11.0814C27.1862 12.3821 28.2223 13.9279 28.9292 15.63C29.6361 17.332 30 19.157 30 21V24C30 24.5304 29.7893 25.0391 29.4142 25.4142C29.0391 25.7893 28.5304 26 28 26H4C3.46957 26 2.96086 25.7893 2.58579 25.4142C2.21071 25.0391 2 24.5304 2 24V21.1375C2 13.4128 8.20692 7.02717 15.9462 7" fill="black"/>
<path fill-rule="evenodd" clip-rule="evenodd" d="M3.29289 6.29289C3.68342 5.90237 4.31658 5.90237 4.70711 6.29289L8.59461 10.1804C8.98513 10.5709 8.98513 11.2041 8.59461 11.5946C8.20408 11.9851 7.57092 11.9851 7.18039 11.5946L3.29289 7.70711C2.90237 7.31658 2.90237 6.68342 3.29289 6.29289Z" fill="black"/>
<path fill-rule="evenodd" clip-rule="evenodd" d="M28.7071 6.29289C29.0976 6.68342 29.0976 7.31658 28.7071 7.70711L24.8446 11.5696C24.454 11.9601 23.8209 11.9601 23.4303 11.5696C23.0398 11.1791 23.0398 10.5459 23.4303 10.1554L27.2928 6.29289C27.6834 5.90237 28.3165 5.90237 28.7071 6.29289Z" fill="black"/>
</svg>
