<svg width="32" height="32" viewBox="0 0 32 32" fill="none" xmlns="http://www.w3.org/2000/svg">
<path fill-rule="evenodd" clip-rule="evenodd" d="M16 5C9.92487 5 5 9.92487 5 16C5 22.0751 9.92487 27 16 27C22.0751 27 27 22.0751 27 16C27 9.92487 22.0751 5 16 5ZM3 16C3 8.8203 8.8203 3 16 3C23.1797 3 29 8.8203 29 16C29 23.1797 23.1797 29 16 29C8.8203 29 3 23.1797 3 16Z" fill="black"/>
<path fill-rule="evenodd" clip-rule="evenodd" d="M15.6635 3.05835C16.1836 2.8725 16.7559 3.14344 16.9417 3.66352L21.5292 16.501C21.7151 17.0211 21.4441 17.5934 20.924 17.7792C20.404 17.9651 19.8317 17.6941 19.6458 17.174L15.0583 4.33654C14.8725 3.81646 15.1434 3.2442 15.6635 3.05835Z" fill="black"/>
<path fill-rule="evenodd" clip-rule="evenodd" d="M4.62879 9.8202C4.72812 9.27692 5.24905 8.91703 5.79233 9.01636L19.1923 11.4664C19.7356 11.5657 20.0955 12.0866 19.9962 12.6299C19.8968 13.1732 19.3759 13.5331 18.8326 13.4337L5.43262 10.9837C4.88935 10.8844 4.52946 10.3635 4.62879 9.8202Z" fill="black"/>
<path fill-rule="evenodd" clip-rule="evenodd" d="M15.085 10.8503C15.5059 11.2079 15.5572 11.839 15.1996 12.2599L6.37461 22.6474C6.01702 23.0683 5.38594 23.1196 4.96505 22.762C4.54415 22.4045 4.49283 21.7734 4.85041 21.3525L13.6754 10.965C14.033 10.5441 14.6641 10.4928 15.085 10.8503Z" fill="black"/>
<path fill-rule="evenodd" clip-rule="evenodd" d="M11.076 14.2208C11.5961 14.035 12.1683 14.3059 12.3542 14.826L16.9417 27.6635C17.1275 28.1836 16.8566 28.7558 16.3365 28.9417C15.8164 29.1275 15.2442 28.8566 15.0583 28.3365L10.4708 15.499C10.285 14.9789 10.5559 14.4067 11.076 14.2208Z" fill="black"/>
<path fill-rule="evenodd" clip-rule="evenodd" d="M12.0038 19.3701C12.1031 18.8268 12.6241 18.467 13.1673 18.5663L26.5673 21.0163C27.1106 21.1156 27.4705 21.6366 27.3712 22.1798C27.2718 22.7231 26.7509 23.083 26.2076 22.9837L12.8076 20.5337C12.2643 20.4343 11.9045 19.9134 12.0038 19.3701Z" fill="black"/>
<path fill-rule="evenodd" clip-rule="evenodd" d="M27.035 9.23792C27.4559 9.59551 27.5072 10.2266 27.1496 10.6475L18.3246 21.035C17.967 21.4559 17.336 21.5072 16.9151 21.1496C16.4942 20.792 16.4428 20.161 16.8004 19.7401L25.6254 9.35256C25.983 8.93166 26.6141 8.88034 27.035 9.23792Z" fill="black"/>
</svg>
