<svg xmlns="http://www.w3.org/2000/svg" width="32" height="32" fill="none" viewBox="0 0 32 32"><path fill="#000" fill-rule="evenodd" d="M20.9988 2.5C20.392 2.49929 19.7993 2.68258 19.2988 3.0257C18.7984 3.36882 18.4137 3.85563 18.1957 4.42188C17.9972 4.93727 17.4185 5.19417 16.9031 4.9957C16.3877 4.79722 16.1308 4.21852 16.3293 3.70313C16.6927 2.75939 17.3338 1.94804 18.1679 1.37617C19.002 0.804306 19.9899 0.498809 21.0012 0.500003C21.5534 0.500656 22.0006 0.9489 22 1.50118C21.9993 2.05347 21.5511 2.50065 20.9988 2.5Z" clip-rule="evenodd"/><path fill="#000" fill-rule="evenodd" d="M21.5689 8.02316C20.6836 7.946 19.7918 8.0512 18.9487 8.33228C18.1057 8.61335 17.3292 9.06432 16.6673 9.65732L16 8.9125L15.3333 9.65786C14.3982 8.82147 13.2411 8.27357 12.0015 8.08028C10.7619 7.88699 9.4928 8.05656 8.34744 8.56854C7.20208 9.08051 6.22936 9.91301 5.54666 10.9656C4.86402 12.018 4.50051 13.2455 4.5 14.5M15.9995 7.62843C14.9113 6.83701 13.6471 6.31273 12.3096 6.10416C10.6886 5.8514 9.02905 6.07314 7.53127 6.74265C6.03349 7.41216 4.76147 8.50081 3.86871 9.87724C2.97594 11.2537 2.50058 12.859 2.5 14.4996L2.5 14.5C2.5 17.9701 3.69677 21.2874 5.35891 23.7474C6.19127 24.9793 7.15908 26.0242 8.18568 26.77C9.20405 27.5098 10.3443 28 11.5 28H20.5C22.0663 28 23.6137 27.1045 24.9092 25.8409C26.2274 24.5551 27.4056 22.776 28.238 20.7411L27.3125 20.3625L27.7607 19.4685C26.9612 19.0677 26.2838 18.4598 25.7992 17.7082C25.3145 16.9566 25.0404 16.0887 25.0053 15.195C24.9702 14.3014 25.1754 13.4147 25.5996 12.6273C26.0237 11.84 26.6513 11.1808 27.4169 10.7185L26.9 9.8625L27.6861 9.24436C26.9677 8.33084 26.0696 7.57434 25.0473 7.0216C24.0251 6.46886 22.9003 6.13162 21.7426 6.03071C20.5848 5.92981 19.4187 6.06738 18.3162 6.43494C17.4856 6.71186 16.7044 7.11488 15.9995 7.62843ZM25.4076 9.71705C25.0119 9.35272 24.5716 9.03799 24.0961 8.7809C23.3144 8.35821 22.4542 8.10032 21.5689 8.02316M25.4076 9.71705C24.7731 10.2689 24.2407 10.9327 23.8388 11.6788C23.245 12.7811 22.9577 14.0224 23.0068 15.2736C23.056 16.5247 23.4398 17.7397 24.1183 18.792C24.6229 19.5747 25.2769 20.2461 26.0395 20.7697C25.3374 22.2437 24.448 23.4968 23.5127 24.4092C22.3926 25.5017 21.3212 26 20.5 26H11.5C10.9057 26 10.171 25.7402 9.3612 25.1519C8.55967 24.5696 7.74623 23.7083 7.01609 22.6276C5.55329 20.4627 4.50008 17.5302 4.5 14.5004" clip-rule="evenodd"/></svg>