<svg width="32" height="32" viewBox="0 0 32 32" fill="none" xmlns="http://www.w3.org/2000/svg">
<path fill-rule="evenodd" clip-rule="evenodd" d="M16 13C14.8954 13 14 13.8954 14 15C14 16.1046 14.8954 17 16 17C17.1046 17 18 16.1046 18 15C18 13.8954 17.1046 13 16 13ZM12 15C12 12.7909 13.7909 11 16 11C18.2091 11 20 12.7909 20 15C20 17.2091 18.2091 19 16 19C13.7909 19 12 17.2091 12 15Z" fill="black"/>
<path fill-rule="evenodd" clip-rule="evenodd" d="M14.4373 19C14.2895 19 14.1436 19.0327 14.01 19.0958C13.8764 19.1589 13.7584 19.2509 13.6646 19.365C13.5707 19.4792 13.5034 19.6127 13.4673 19.756C13.4313 19.899 13.4274 20.0481 13.4558 20.1928C13.4559 20.1931 13.456 20.1934 13.456 20.1938L14.656 26.1938C14.7009 26.421 14.8233 26.6256 15.0022 26.7726C15.1812 26.9197 15.4056 27 15.6373 27H16.3625C16.5941 27 16.8188 26.9197 16.9977 26.7726C17.1767 26.6256 17.299 26.421 17.3439 26.1938L17.3444 26.1914L18.5439 20.1938C18.544 20.1934 18.5441 20.1931 18.5441 20.1927C18.5725 20.0481 18.5686 19.8989 18.5326 19.756C18.4966 19.6127 18.4292 19.4792 18.3354 19.365C18.2416 19.2509 18.1236 19.1589 17.99 19.0958C17.8564 19.0327 17.7104 19 17.5627 19H14.4373ZM16.3623 29H15.6377C15.6376 29 15.6377 29 15.6377 29C14.9429 29.0001 14.2694 28.759 13.7325 28.3179C13.196 27.8771 12.829 27.2637 12.6942 26.5826C12.6941 26.5821 12.694 26.5817 12.6939 26.5813L11.4939 20.5813C11.408 20.1464 11.4196 19.6978 11.5278 19.2679C11.6359 18.838 11.838 18.4375 12.1195 18.095C12.401 17.7526 12.7549 17.4767 13.1557 17.2874C13.5565 17.0981 13.9942 16.9999 14.4375 17M16.3623 29C17.0571 29.0001 17.7306 28.759 18.2674 28.3179C18.804 27.8771 19.1709 27.2637 19.3058 26.5825C19.3059 26.5821 19.3059 26.5817 19.306 26.5813L20.5056 20.5836L20.506 20.5813C20.5919 20.1464 20.5804 19.6978 20.4722 19.2679C20.364 18.838 20.1619 18.4375 19.8804 18.095C19.5989 17.7526 19.245 17.4767 18.8442 17.2874C18.4434 17.0981 18.0057 16.9999 17.5625 17C17.5624 17 17.5625 17 17.5625 17H14.4375" fill="black"/>
<path fill-rule="evenodd" clip-rule="evenodd" d="M16 9.01711C14.8631 9.01711 13.7433 9.29403 12.7374 9.82393C11.7315 10.3538 10.8698 11.1208 10.2269 12.0584C9.58393 12.9961 9.17903 14.0762 9.04721 15.2055C8.91539 16.3347 9.06061 17.4791 9.47031 18.5396C9.66934 19.0548 9.41304 19.6338 8.89786 19.8328C8.38269 20.0318 7.80371 19.7755 7.60469 19.2604C7.07793 17.8968 6.89122 16.4255 7.0607 14.9736C7.23019 13.5217 7.75076 12.1329 8.57742 10.9274C9.40408 9.72182 10.5119 8.73576 11.8052 8.05446C13.0985 7.37315 14.5382 7.01711 16 7.01711C17.4618 7.01711 18.9015 7.37315 20.1948 8.05446C21.4881 8.73576 22.5959 9.72182 23.4226 10.9274C24.2492 12.1329 24.7698 13.5217 24.9393 14.9736C25.1088 16.4255 24.9221 17.8968 24.3953 19.2604C24.1963 19.7755 23.6173 20.0318 23.1021 19.8328C22.587 19.6338 22.3307 19.0548 22.5297 18.5396C22.9394 17.4791 23.0846 16.3347 22.9528 15.2055C22.821 14.0762 22.4161 12.9961 21.7731 12.0584C21.1302 11.1208 20.2685 10.3538 19.2626 9.82393C18.2567 9.29403 17.1369 9.01711 16 9.01711Z" fill="black"/>
<path fill-rule="evenodd" clip-rule="evenodd" d="M16 4.99333C13.6198 4.99333 11.3038 5.76536 9.39974 7.19353C7.49564 8.62169 6.10613 10.6289 5.43982 12.914C4.7735 15.199 4.86632 17.6385 5.70435 19.8662C6.54237 22.094 8.08038 23.9899 10.0875 25.2692C10.5532 25.5661 10.6901 26.1843 10.3933 26.65C10.0964 27.1157 9.47822 27.2526 9.0125 26.9558C6.64045 25.4438 4.8228 23.2032 3.83241 20.5704C2.84202 17.9376 2.73232 15.0545 3.51979 12.3541C4.30725 9.6536 5.94939 7.2814 8.19969 5.59356C10.45 3.90573 13.1871 2.99333 16 2.99333C18.8129 2.99333 21.55 3.90573 23.8003 5.59356C26.0506 7.2814 27.6928 9.6536 28.4802 12.3541C29.2677 15.0545 29.158 17.9376 28.1676 20.5704C27.1772 23.2032 25.3596 25.4438 22.9875 26.9558C22.5218 27.2526 21.9036 27.1157 21.6067 26.65C21.3099 26.1843 21.4468 25.5661 21.9125 25.2692C23.9196 23.9899 25.4576 22.094 26.2957 19.8662C27.1337 17.6385 27.2265 15.199 26.5602 12.914C25.8939 10.6289 24.5044 8.62169 22.6003 7.19353C20.6962 5.76536 18.3802 4.99333 16 4.99333Z" fill="black"/>
</svg>
