<svg width="32" height="32" viewBox="0 0 32 32" fill="none" xmlns="http://www.w3.org/2000/svg">
<path fill-rule="evenodd" clip-rule="evenodd" d="M17.8162 13.1516C18.2917 12.8706 18.9049 13.0283 19.1859 13.5037L26.8609 26.4912C27.1419 26.9667 26.9842 27.5799 26.5087 27.8609C26.0333 28.1419 25.4201 27.9842 25.1391 27.5088L17.4641 14.5213C17.1831 14.0458 17.3408 13.4326 17.8162 13.1516Z" fill="black"/>
<path fill-rule="evenodd" clip-rule="evenodd" d="M12.4912 4.13916C12.9666 3.85811 13.5798 4.01569 13.8609 4.49112L16.8609 9.56612C17.1419 10.0416 16.9843 10.6548 16.5089 10.9358C16.0335 11.2169 15.4202 11.0593 15.1392 10.5839L12.1392 5.50887C11.8582 5.03344 12.0157 4.4202 12.4912 4.13916Z" fill="black"/>
<path fill-rule="evenodd" clip-rule="evenodd" d="M7.69807 24.1401C8.17296 24.4221 8.32935 25.0357 8.04739 25.5105L6.85989 27.5105C6.57793 27.9854 5.96438 28.1418 5.48949 27.8599C5.01461 27.5779 4.85822 26.9643 5.14018 26.4895L6.32768 24.4895C6.60964 24.0146 7.22319 23.8582 7.69807 24.1401Z" fill="black"/>
<path fill-rule="evenodd" clip-rule="evenodd" d="M19.5085 4.13896C19.984 4.41983 20.1419 5.03301 19.861 5.50855L10.411 21.5085C10.1301 21.9841 9.51695 22.1419 9.04141 21.861C8.56588 21.5802 8.40807 20.967 8.68893 20.4914L18.1389 4.49145C18.4198 4.01591 19.033 3.8581 19.5085 4.13896Z" fill="black"/>
<path fill-rule="evenodd" clip-rule="evenodd" d="M21.45 21C21.45 20.4477 21.8977 20 22.45 20H29C29.5522 20 30 20.4477 30 21C30 21.5523 29.5522 22 29 22H22.45C21.8977 22 21.45 21.5523 21.45 21Z" fill="black"/>
<path fill-rule="evenodd" clip-rule="evenodd" d="M2 21C2 20.4477 2.44772 20 3 20H17.8125C18.3648 20 18.8125 20.4477 18.8125 21C18.8125 21.5523 18.3648 22 17.8125 22H3C2.44772 22 2 21.5523 2 21Z" fill="black"/>
</svg>
