<svg xmlns="http://www.w3.org/2000/svg" width="32" height="32" fill="none" viewBox="0 0 32 32"><path fill="#000" fill-rule="evenodd" d="M6.10557 4.55279C6.27496 4.214 6.62123 4 7 4H25C25.3788 4 25.725 4.214 25.8944 4.55279L27.8944 8.55279C27.9639 8.69164 28 8.84476 28 9V26C28 26.5304 27.7893 27.0391 27.4142 27.4142C27.0391 27.7893 26.5304 28 26 28H6C5.46957 28 4.96086 27.7893 4.58579 27.4142C4.21071 27.0391 4 26.5304 4 26V9C4 8.84476 4.03615 8.69164 4.10557 8.55279L6.10557 4.55279ZM7.61803 6L6 9.23607V26H26V9.23607L24.382 6H7.61803Z" clip-rule="evenodd"/><path fill="#000" fill-rule="evenodd" d="M11.0554 18.0554C11.4459 17.6649 12.0791 17.6649 12.4696 18.0554L16 21.5858L19.5304 18.0554C19.9209 17.6649 20.5541 17.6649 20.9446 18.0554C21.3351 18.4459 21.3351 19.0791 20.9446 19.4696L16.7071 23.7071C16.3166 24.0976 15.6834 24.0976 15.2929 23.7071L11.0554 19.4696C10.6649 19.0791 10.6649 18.4459 11.0554 18.0554Z" clip-rule="evenodd"/><path fill="#000" fill-rule="evenodd" d="M16 12C16.5523 12 17 12.4477 17 13V23C17 23.5523 16.5523 24 16 24C15.4477 24 15 23.5523 15 23V13C15 12.4477 15.4477 12 16 12Z" clip-rule="evenodd"/><path fill="#000" fill-rule="evenodd" d="M4 9C4 8.44772 4.44772 8 5 8H27C27.5523 8 28 8.44772 28 9C28 9.55228 27.5523 10 27 10H5C4.44772 10 4 9.55228 4 9Z" clip-rule="evenodd"/></svg>