<svg xmlns="http://www.w3.org/2000/svg" width="32" height="32" fill="none" viewBox="0 0 32 32"><path fill="#000" fill-rule="evenodd" d="M4 6C4 4.89543 4.89543 4 6 4H26C27.1046 4 28 4.89543 28 6V26C28 27.1046 27.1046 28 26 28H6C4.89543 28 4 27.1046 4 26V6ZM26 6H6V26H26V6Z" clip-rule="evenodd"/><path fill="#000" fill-rule="evenodd" d="M11.0554 14.0554C11.4459 13.6649 12.0791 13.6649 12.4696 14.0554L16 17.5858L19.5304 14.0554C19.9209 13.6649 20.5541 13.6649 20.9446 14.0554C21.3351 14.4459 21.3351 15.0791 20.9446 15.4696L16.7071 19.7071C16.5196 19.8947 16.2652 20 16 20C15.7348 20 15.4804 19.8947 15.2929 19.7071L11.0554 15.4696C10.6649 15.0791 10.6649 14.4459 11.0554 14.0554Z" clip-rule="evenodd"/><path fill="#000" fill-rule="evenodd" d="M16 8C16.5523 8 17 8.44772 17 9V19C17 19.5523 16.5523 20 16 20C15.4477 20 15 19.5523 15 19V9C15 8.44772 15.4477 8 16 8Z" clip-rule="evenodd"/><path fill="#000" fill-rule="evenodd" d="M9.58578 21L12.0054 23.4196L12.0071 23.4214C12.1924 23.6057 12.4122 23.7517 12.6539 23.851C12.8951 23.95 13.1533 24.0007 13.414 24H13.4125V23L13.416 24C13.4153 24 13.4147 24 13.414 24M18.586 24H18.5875V23L18.584 24C18.5846 24 18.5853 24 18.586 24ZM18.586 24C18.8466 24.0007 19.1049 23.95 19.346 23.851C19.5878 23.7517 19.8076 23.6057 19.9928 23.4214L19.9946 23.4196L22.4142 21H27C27.5523 21 28 20.5523 28 20C28 19.4477 27.5523 19 27 19H22.4139M13.4142 22L10.9946 19.5804L10.9928 19.5787C10.8076 19.3943 10.5878 19.2483 10.346 19.149C10.1049 19.05 9.84669 18.9994 9.58604 19H9.58749V20L9.58398 19C9.58467 19 9.58535 19 9.58604 19" clip-rule="evenodd"/></svg>