<svg xmlns="http://www.w3.org/2000/svg" width="32" height="32" fill="none" viewBox="0 0 32 32"><path fill="#000" fill-rule="evenodd" d="M2 8C2 6.89543 2.89543 6 4 6H28C29.1046 6 30 6.89543 30 8V11C30 12.1046 29.1046 13 28 13H4C2.89543 13 2 12.1046 2 11V8ZM28 8H4V11H28V8Z" clip-rule="evenodd"/><path fill="#000" fill-rule="evenodd" d="M5 11C5.55228 11 6 11.4477 6 12V24H26V12C26 11.4477 26.4477 11 27 11C27.5523 11 28 11.4477 28 12V24C28 24.5304 27.7893 25.0391 27.4142 25.4142C27.0391 25.7893 26.5304 26 26 26H6C5.46957 26 4.96086 25.7893 4.58579 25.4142C4.21071 25.0391 4 24.5304 4 24V12C4 11.4477 4.44772 11 5 11Z" clip-rule="evenodd"/><path fill="#000" fill-rule="evenodd" d="M12 17C12 16.4477 12.4477 16 13 16H19C19.5523 16 20 16.4477 20 17C20 17.5523 19.5523 18 19 18H13C12.4477 18 12 17.5523 12 17Z" clip-rule="evenodd"/></svg>