<svg width="32" height="32" viewBox="0 0 32 32" fill="none" xmlns="http://www.w3.org/2000/svg">
<path fill-rule="evenodd" clip-rule="evenodd" d="M3.51245 9.51245C4.06474 9.51245 4.51245 9.96017 4.51245 10.5125V17.5125H11.5125C12.0647 17.5125 12.5125 17.9602 12.5125 18.5125C12.5125 19.0647 12.0647 19.5125 11.5125 19.5125H3.51245C2.96017 19.5125 2.51245 19.0647 2.51245 18.5125V10.5125C2.51245 9.96017 2.96017 9.51245 3.51245 9.51245Z" fill="black"/>
<path fill-rule="evenodd" clip-rule="evenodd" d="M13.4625 10.2457C15.9848 9.74366 18.5995 10.0011 20.9755 10.9854C23.3515 11.9698 25.3822 13.6368 26.8106 15.7755C28.239 17.9142 29.0009 20.4286 29 23.0004C28.9997 23.5527 28.5519 24.0003 27.9996 24C27.4473 23.9998 26.9997 23.552 27 22.9997C27.0008 20.8235 26.3561 18.696 25.1474 16.8863C23.9388 15.0766 22.2205 13.6661 20.21 12.8332C18.1995 12.0003 15.9872 11.7824 13.8528 12.2072C11.7185 12.632 9.75814 13.6803 8.21974 15.2195L4.21956 19.2197C3.82903 19.6102 3.19587 19.6102 2.80534 19.2197C2.41482 18.8291 2.41482 18.196 2.80534 17.8054L6.80516 13.8056C6.8051 13.8057 6.80522 13.8056 6.80516 13.8056C8.62323 11.9867 10.9402 10.7477 13.4625 10.2457Z" fill="black"/>
</svg>
