<svg xmlns="http://www.w3.org/2000/svg" width="32" height="32" fill="none" viewBox="0 0 32 32"><path fill="#000" fill-rule="evenodd" d="M28.4875 9.51245C29.0398 9.51245 29.4875 9.96017 29.4875 10.5125V18.5125C29.4875 19.0647 29.0398 19.5125 28.4875 19.5125H20.4875C19.9353 19.5125 19.4875 19.0647 19.4875 18.5125C19.4875 17.9602 19.9353 17.5125 20.4875 17.5125H27.4875V10.5125C27.4875 9.96017 27.9353 9.51245 28.4875 9.51245Z" clip-rule="evenodd"/><path fill="#000" fill-rule="evenodd" d="M18.1471 12.2072C16.0128 11.7824 13.8004 12.0003 11.7899 12.8332C9.77944 13.6661 8.06118 15.0766 6.85254 16.8863C5.6439 18.696 4.9992 20.8235 5 22.9997C5.00021 23.552 4.55266 23.9998 4.00037 24C3.44809 24.0003 3.00021 23.5527 3 23.0004C2.99905 20.4286 3.76097 17.9142 5.18936 15.7755C6.61776 13.6368 8.64843 11.9698 11.0245 10.9854C13.4005 10.0011 16.0151 9.74366 18.5375 10.2457C21.0598 10.7477 23.3765 11.9865 25.1946 13.8054C25.1945 13.8054 25.1947 13.8055 25.1946 13.8054L29.1946 17.8054C29.5851 18.196 29.5851 18.8291 29.1946 19.2197C28.8041 19.6102 28.1709 19.6102 27.7804 19.2197L23.7804 15.2197C22.242 13.6805 20.2814 12.632 18.1471 12.2072Z" clip-rule="evenodd"/></svg>