<svg width="32" height="32" viewBox="0 0 32 32" fill="none" xmlns="http://www.w3.org/2000/svg">
<path fill-rule="evenodd" clip-rule="evenodd" d="M28.025 5.46252C28.5773 5.46252 29.025 5.91024 29.025 6.46252V12.4625C29.025 13.0148 28.5773 13.4625 28.025 13.4625H22.025C21.4727 13.4625 21.025 13.0148 21.025 12.4625C21.025 11.9102 21.4727 11.4625 22.025 11.4625H27.025V6.46252C27.025 5.91024 27.4727 5.46252 28.025 5.46252Z" fill="black"/>
<path fill-rule="evenodd" clip-rule="evenodd" d="M16 6.00116C14.6872 6.00116 13.3872 6.25998 12.1746 6.76281C10.9619 7.26564 9.86021 8.00261 8.9326 8.93158C8.54236 9.32239 7.90919 9.32285 7.51838 8.93262C7.12758 8.54238 7.12711 7.90921 7.51735 7.5184C8.63072 6.40341 9.95299 5.51885 11.4085 4.91533C12.864 4.31181 14.4243 4.00116 16 4.00116C17.5757 4.00116 19.1359 4.31181 20.5914 4.91533C22.0467 5.51873 23.3687 6.40305 24.4819 7.51773C24.4817 7.5175 24.4821 7.51795 24.4819 7.51773L28.731 11.7543C29.1221 12.1443 29.1231 12.7775 28.7331 13.1686C28.3432 13.5597 27.71 13.5606 27.3189 13.1706L23.0674 8.93158C22.1397 8.00261 21.0381 7.26564 19.8254 6.76281C18.6127 6.25998 17.3128 6.00116 16 6.00116Z" fill="black"/>
<path fill-rule="evenodd" clip-rule="evenodd" d="M2.97498 19.5375C2.97498 18.9852 3.42269 18.5375 3.97498 18.5375H9.97498C10.5273 18.5375 10.975 18.9852 10.975 19.5375C10.975 20.0898 10.5273 20.5375 9.97498 20.5375H4.97498V25.5375C4.97498 26.0898 4.52726 26.5375 3.97498 26.5375C3.42269 26.5375 2.97498 26.0898 2.97498 25.5375V19.5375Z" fill="black"/>
<path fill-rule="evenodd" clip-rule="evenodd" d="M3.26683 18.8314C3.65678 18.4403 4.28994 18.4394 4.68104 18.8293L8.9326 23.0684C9.86021 23.9974 10.9619 24.7343 12.1746 25.2372C13.3872 25.74 14.6872 25.9988 16 25.9988C17.3128 25.9988 18.6127 25.74 19.8254 25.2372C21.0381 24.7343 22.1397 23.9974 23.0674 23.0684C23.4576 22.6776 24.0908 22.6771 24.4816 23.0674C24.8724 23.4576 24.8728 24.0908 24.4826 24.4816C23.3692 25.5966 22.047 26.4811 20.5914 27.0846C19.1359 27.6882 17.5757 27.9988 16 27.9988C14.4243 27.9988 12.864 27.6882 11.4085 27.0846C9.95336 26.4813 8.63139 25.597 7.5182 24.4824C7.51792 24.4821 7.51763 24.4818 7.51735 24.4816L3.26891 20.2456C2.87781 19.8557 2.87688 19.2225 3.26683 18.8314Z" fill="black"/>
</svg>
