<svg width="32" height="32" viewBox="0 0 32 32" fill="none" xmlns="http://www.w3.org/2000/svg">
<path fill-rule="evenodd" clip-rule="evenodd" d="M4 6C4 4.89543 4.89543 4 6 4H26C27.1046 4 28 4.89543 28 6V26C28 27.1046 27.1046 28 26 28H6C4.89543 28 4 27.1046 4 26V6ZM26 6H6V26H26V6Z" fill="black"/>
<path fill-rule="evenodd" clip-rule="evenodd" d="M16 10C16.2652 10 16.5195 10.1054 16.7071 10.2929L20.9446 14.5304C21.3351 14.9209 21.3351 15.5541 20.9446 15.9446C20.554 16.3351 19.9209 16.3351 19.5303 15.9446L16 12.4142L12.4696 15.9446C12.079 16.3351 11.4459 16.3351 11.0553 15.9446C10.6648 15.5541 10.6648 14.9209 11.0553 14.5304L15.2928 10.2929C15.4804 10.1054 15.7347 10 16 10Z" fill="black"/>
<path fill-rule="evenodd" clip-rule="evenodd" d="M16 10C16.5523 10 17 10.4477 17 11V21C17 21.5523 16.5523 22 16 22C15.4477 22 15 21.5523 15 21V11C15 10.4477 15.4477 10 16 10Z" fill="black"/>
</svg>
