<svg width="32" height="32" viewBox="0 0 32 32" fill="none" xmlns="http://www.w3.org/2000/svg">
<path fill-rule="evenodd" clip-rule="evenodd" d="M11.7554 24.7554C12.1459 24.3649 12.7791 24.3649 13.1696 24.7554L16 27.5858L18.8304 24.7554C19.2209 24.3649 19.8541 24.3649 20.2446 24.7554C20.6352 25.1459 20.6352 25.7791 20.2446 26.1696L16.7071 29.7071C16.3166 30.0976 15.6834 30.0976 15.2929 29.7071L11.7554 26.1696C11.3649 25.7791 11.3649 25.1459 11.7554 24.7554Z" fill="black"/>
<path fill-rule="evenodd" clip-rule="evenodd" d="M16 19C16.5523 19 17 19.4477 17 20V29C17 29.5523 16.5523 30 16 30C15.4477 30 15 29.5523 15 29V20C15 19.4477 15.4477 19 16 19Z" fill="black"/>
<path fill-rule="evenodd" clip-rule="evenodd" d="M15.2929 2.29289C15.6834 1.90237 16.3166 1.90237 16.7071 2.29289L20.2446 5.83039C20.6352 6.22092 20.6352 6.85408 20.2446 7.24461C19.8541 7.63513 19.2209 7.63513 18.8304 7.24461L16 4.41421L13.1696 7.24461C12.7791 7.63513 12.1459 7.63513 11.7554 7.24461C11.3649 6.85408 11.3649 6.22092 11.7554 5.83039L15.2929 2.29289Z" fill="black"/>
<path fill-rule="evenodd" clip-rule="evenodd" d="M16 2C16.5523 2 17 2.44772 17 3V12C17 12.5523 16.5523 13 16 13C15.4477 13 15 12.5523 15 12V3C15 2.44772 15.4477 2 16 2Z" fill="black"/>
<path fill-rule="evenodd" clip-rule="evenodd" d="M7.24461 11.7554C7.63513 12.1459 7.63513 12.7791 7.24461 13.1696L4.41421 16L7.24461 18.8304C7.63513 19.2209 7.63513 19.8541 7.24461 20.2446C6.85408 20.6351 6.22092 20.6351 5.83039 20.2446L2.29289 16.7071C1.90237 16.3166 1.90237 15.6834 2.29289 15.2929L5.83039 11.7554C6.22092 11.3649 6.85408 11.3649 7.24461 11.7554Z" fill="black"/>
<path fill-rule="evenodd" clip-rule="evenodd" d="M2 16C2 15.4477 2.44772 15 3 15H12C12.5523 15 13 15.4477 13 16C13 16.5523 12.5523 17 12 17H3C2.44772 17 2 16.5523 2 16Z" fill="black"/>
<path fill-rule="evenodd" clip-rule="evenodd" d="M24.7554 11.7554C25.1459 11.3649 25.7791 11.3649 26.1696 11.7554L29.7071 15.2929C30.0977 15.6834 30.0977 16.3166 29.7071 16.7071L26.1696 20.2446C25.7791 20.6351 25.1459 20.6351 24.7554 20.2446C24.3649 19.8541 24.3649 19.2209 24.7554 18.8304L27.5858 16L24.7554 13.1696C24.3649 12.7791 24.3649 12.1459 24.7554 11.7554Z" fill="black"/>
<path fill-rule="evenodd" clip-rule="evenodd" d="M19 16C19 15.4477 19.4477 15 20 15H29C29.5523 15 30 15.4477 30 16C30 16.5523 29.5523 17 29 17H20C19.4477 17 19 16.5523 19 16Z" fill="black"/>
</svg>
