<svg width="32" height="32" viewBox="0 0 32 32" fill="none" xmlns="http://www.w3.org/2000/svg">
<path fill-rule="evenodd" clip-rule="evenodd" d="M4 6C4 4.89543 4.89543 4 6 4H26C27.1046 4 28 4.89543 28 6V26C28 27.1046 27.1046 28 26 28H6C4.89543 28 4 27.1046 4 26V6ZM26 6H6V26H26V6Z" fill="black"/>
<path fill-rule="evenodd" clip-rule="evenodd" d="M11.0553 16.0554C11.4459 15.6649 12.079 15.6649 12.4696 16.0554L16 19.5858L19.5303 16.0554C19.9209 15.6649 20.554 15.6649 20.9446 16.0554C21.3351 16.4459 21.3351 17.0791 20.9446 17.4696L16.7071 21.7071C16.3165 22.0976 15.6834 22.0976 15.2928 21.7071L11.0553 17.4696C10.6648 17.0791 10.6648 16.4459 11.0553 16.0554Z" fill="black"/>
<path fill-rule="evenodd" clip-rule="evenodd" d="M16 10C16.5523 10 17 10.4477 17 11V21C17 21.5523 16.5523 22 16 22C15.4477 22 15 21.5523 15 21V11C15 10.4477 15.4477 10 16 10Z" fill="black"/>
</svg>
