<svg width="32" height="32" viewBox="0 0 32 32" fill="none" xmlns="http://www.w3.org/2000/svg">
<path fill-rule="evenodd" clip-rule="evenodd" d="M26 4C27.1046 4 28 4.89543 28 6V26C28 27.1046 27.1046 28 26 28H6C4.89543 28 4 27.1046 4 26V6C4 4.89543 4.89543 4 6 4L26 4ZM26 26V6L6 6V26H26Z" fill="black"/>
<path fill-rule="evenodd" clip-rule="evenodd" d="M16.0554 11.0554C16.4459 10.6649 17.0791 10.6649 17.4696 11.0554L21.7071 15.2929C22.0976 15.6834 22.0976 16.3166 21.7071 16.7071L17.4696 20.9446C17.0791 21.3351 16.4459 21.3351 16.0554 20.9446C15.6649 20.5541 15.6649 19.9209 16.0554 19.5304L19.5858 16L16.0554 12.4696C15.6649 12.0791 15.6649 11.4459 16.0554 11.0554Z" fill="black"/>
<path fill-rule="evenodd" clip-rule="evenodd" d="M10 16C10 15.4477 10.4477 15 11 15H21C21.5523 15 22 15.4477 22 16C22 16.5523 21.5523 17 21 17H11C10.4477 17 10 16.5523 10 16Z" fill="black"/>
</svg>
