<svg width="32" height="32" viewBox="0 0 32 32" fill="none" xmlns="http://www.w3.org/2000/svg">
<path fill-rule="evenodd" clip-rule="evenodd" d="M3.97498 5.46252C4.52726 5.46252 4.97498 5.91024 4.97498 6.46252V11.4625H9.97498C10.5273 11.4625 10.975 11.9102 10.975 12.4625C10.975 13.0148 10.5273 13.4625 9.97498 13.4625H3.97498C3.42269 13.4625 2.97498 13.0148 2.97498 12.4625V6.46252C2.97498 5.91024 3.42269 5.46252 3.97498 5.46252Z" fill="black"/>
<path fill-rule="evenodd" clip-rule="evenodd" d="M11.4085 4.91533C12.864 4.31181 14.4243 4.00116 16 4.00116C17.5757 4.00116 19.1359 4.31181 20.5914 4.91533C22.047 5.51885 23.3692 6.40341 24.4826 7.5184C24.8728 7.90921 24.8724 8.54238 24.4816 8.93262C24.0908 9.32285 23.4576 9.32239 23.0674 8.93158C22.1397 8.00261 21.0381 7.26564 19.8254 6.76281C18.6127 6.25998 17.3128 6.00116 16 6.00116C14.6872 6.00116 13.3872 6.25998 12.1746 6.76281C10.9619 7.26564 9.86021 8.00261 8.9326 8.93158L8.93104 8.93314L4.68104 13.1706C4.28994 13.5606 3.65678 13.5597 3.26683 13.1686C2.87688 12.7775 2.87781 12.1443 3.26891 11.7543L7.51735 7.5184C7.51762 7.51814 7.51788 7.51788 7.51814 7.51761C8.63135 6.40299 9.95333 5.51871 11.4085 4.91533Z" fill="black"/>
<path fill-rule="evenodd" clip-rule="evenodd" d="M21.025 19.5375C21.025 18.9852 21.4727 18.5375 22.025 18.5375H28.025C28.5773 18.5375 29.025 18.9852 29.025 19.5375V25.5375C29.025 26.0898 28.5773 26.5375 28.025 26.5375C27.4727 26.5375 27.025 26.0898 27.025 25.5375V20.5375H22.025C21.4727 20.5375 21.025 20.0898 21.025 19.5375Z" fill="black"/>
<path fill-rule="evenodd" clip-rule="evenodd" d="M28.7331 18.8314C29.1231 19.2225 29.1221 19.8557 28.731 20.2456L24.4826 24.4816C24.4824 24.4818 24.4821 24.4821 24.4819 24.4823C23.3686 25.5969 22.0466 26.4812 20.5914 27.0846C19.1359 27.6882 17.5757 27.9988 16 27.9988C14.4243 27.9988 12.864 27.6882 11.4085 27.0846C9.95299 26.4811 8.63072 25.5966 7.51735 24.4816C7.12711 24.0908 7.12758 23.4576 7.51838 23.0674C7.90919 22.6771 8.54236 22.6776 8.9326 23.0684C9.86021 23.9974 10.9619 24.7343 12.1746 25.2372C13.3872 25.74 14.6872 25.9988 16 25.9988C17.3128 25.9988 18.6127 25.74 19.8254 25.2372C21.0381 24.7343 22.1397 23.9974 23.0674 23.0684L27.3189 18.8293C27.71 18.4394 28.3432 18.4403 28.7331 18.8314Z" fill="black"/>
</svg>
