<svg width="32" height="32" viewBox="0 0 32 32" fill="none" xmlns="http://www.w3.org/2000/svg">
<path fill-rule="evenodd" clip-rule="evenodd" d="M26 4C27.1046 4 28 4.89543 28 6V26C28 27.1046 27.1046 28 26 28H6C4.89543 28 4 27.1046 4 26V6C4 4.89543 4.89543 4 6 4L26 4ZM26 26V6L6 6V26H26Z" fill="black"/>
<path fill-rule="evenodd" clip-rule="evenodd" d="M15.9446 11.0554C16.3351 11.4459 16.3351 12.0791 15.9446 12.4696L12.4142 16L15.9446 19.5304C16.3351 19.9209 16.3351 20.5541 15.9446 20.9446C15.5541 21.3351 14.9209 21.3351 14.5304 20.9446L10.2929 16.7071C10.1054 16.5196 10 16.2652 10 16C10 15.7348 10.1054 15.4804 10.2929 15.2929L14.5304 11.0554C14.9209 10.6649 15.5541 10.6649 15.9446 11.0554Z" fill="black"/>
<path fill-rule="evenodd" clip-rule="evenodd" d="M10 16C10 15.4477 10.4477 15 11 15H21C21.5523 15 22 15.4477 22 16C22 16.5523 21.5523 17 21 17H11C10.4477 17 10 16.5523 10 16Z" fill="black"/>
</svg>
