<svg width="32" height="32" viewBox="0 0 32 32" fill="none" xmlns="http://www.w3.org/2000/svg">
<path fill-rule="evenodd" clip-rule="evenodd" d="M16 5C9.92487 5 5 9.92487 5 16C5 22.0751 9.92487 27 16 27C22.0751 27 27 22.0751 27 16C27 9.92487 22.0751 5 16 5ZM3 16C3 8.8203 8.8203 3 16 3C23.1797 3 29 8.8203 29 16C29 23.1797 23.1797 29 16 29C8.8203 29 3 23.1797 3 16Z" fill="black"/>
<path fill-rule="evenodd" clip-rule="evenodd" d="M16.0553 11.0553C16.4459 10.6648 17.079 10.6648 17.4696 11.0553L21.7071 15.2928C22.0976 15.6834 22.0976 16.3165 21.7071 16.7071L17.4696 20.9446C17.079 21.3351 16.4459 21.3351 16.0553 20.9446C15.6648 20.554 15.6648 19.9209 16.0553 19.5303L19.5857 16L16.0553 12.4696C15.6648 12.079 15.6648 11.4459 16.0553 11.0553Z" fill="black"/>
<path fill-rule="evenodd" clip-rule="evenodd" d="M10 16C10 15.4477 10.4477 15 11 15H21C21.5523 15 22 15.4477 22 16C22 16.5523 21.5523 17 21 17H11C10.4477 17 10 16.5523 10 16Z" fill="black"/>
</svg>
