<svg width="32" height="32" viewBox="0 0 32 32" fill="none" xmlns="http://www.w3.org/2000/svg">
<path fill-rule="evenodd" clip-rule="evenodd" d="M19 13C19 12.4477 19.4477 12 20 12H30C30.5523 12 31 12.4477 31 13C31 13.5523 30.5523 14 30 14H20C19.4477 14 19 13.5523 19 13Z" fill="black"/>
<path fill-rule="evenodd" clip-rule="evenodd" d="M19 17C19 16.4477 19.4477 16 20 16H30C30.5523 16 31 16.4477 31 17C31 17.5523 30.5523 18 30 18H20C19.4477 18 19 17.5523 19 17Z" fill="black"/>
<path fill-rule="evenodd" clip-rule="evenodd" d="M19 21C19 20.4477 19.4477 20 20 20H30C30.5523 20 31 20.4477 31 21C31 21.5523 30.5523 22 30 22H20C19.4477 22 19 21.5523 19 21Z" fill="black"/>
<path fill-rule="evenodd" clip-rule="evenodd" d="M8 25C8 24.4477 8.44772 24 9 24H30C30.5523 24 31 24.4477 31 25C31 25.5523 30.5523 26 30 26H9C8.44772 26 8 25.5523 8 25Z" fill="black"/>
<path fill-rule="evenodd" clip-rule="evenodd" d="M10.9875 8.99953C10.9878 9.55181 10.5403 9.99974 9.98799 10C9.0511 10.0004 8.13317 10.2641 7.33887 10.7609C6.54456 11.2578 5.90582 11.9678 5.49547 12.81C5.08511 13.6523 4.91966 14.5929 5.01796 15.5246C5.11626 16.4563 5.47436 17.3417 6.05144 18.0798C6.62852 18.8178 7.40137 19.3789 8.28187 19.699C9.16237 20.0192 10.1151 20.0855 11.0315 19.8904C11.9478 19.6953 12.7909 19.2467 13.4647 18.5957C14.1384 17.9447 14.6157 17.1175 14.8422 16.2083C14.9756 15.6724 15.5183 15.3462 16.0542 15.4796C16.5901 15.6131 16.9163 16.1558 16.7829 16.6917C16.4659 17.9644 15.7977 19.1225 14.8544 20.034C13.9112 20.9454 12.7308 21.5735 11.4479 21.8466C10.165 22.1197 8.83117 22.0269 7.59847 21.5787C6.36577 21.1305 5.28379 20.345 4.47587 19.3117C3.66796 18.2784 3.16662 17.0389 3.029 15.7344C2.89138 14.43 3.12302 13.1132 3.69751 11.9341C4.272 10.7549 5.16624 9.76089 6.27827 9.06532C7.3903 8.36976 8.67539 8.00062 9.98704 8C10.5393 7.99974 10.9873 8.44724 10.9875 8.99953Z" fill="black"/>
<path fill-rule="evenodd" clip-rule="evenodd" d="M9.98755 13.3125C10.5398 13.3125 10.9875 13.7602 10.9875 14.3125V20.9875C10.9875 21.5398 10.5398 21.9875 9.98755 21.9875C9.43526 21.9875 8.98755 21.5398 8.98755 20.9875V14.3125C8.98755 13.7602 9.43526 13.3125 9.98755 13.3125Z" fill="black"/>
<path fill-rule="evenodd" clip-rule="evenodd" d="M5.9852 5.5C6.17338 5.49958 6.35787 5.55227 6.51744 5.652L14.24 10.4786C14.5441 10.4267 14.827 10.2817 15.0481 10.0607C15.3294 9.77936 15.4874 9.39783 15.4874 9C15.4874 8.60217 15.3294 8.22064 15.0481 7.93934C14.7668 7.65804 14.3853 7.5 13.9874 7.5C13.4352 7.5 12.9874 7.05228 12.9874 6.5C12.9874 5.94772 13.4352 5.5 13.9874 5.5C14.9157 5.5 15.8059 5.86875 16.4623 6.52513C17.1187 7.1815 17.4874 8.07174 17.4874 9C17.4874 9.92826 17.1187 10.8185 16.4623 11.4749C15.8059 12.1313 14.9157 12.5 13.9874 12.5C13.8 12.5 13.6164 12.4473 13.4574 12.348L5.73611 7.52216C5.47223 7.56804 5.2238 7.68407 5.01793 7.8602C4.74709 8.0919 4.56761 8.41248 4.51165 8.76449C4.45569 9.1165 4.52691 9.47693 4.71254 9.7812C4.89817 10.0855 5.18608 10.3137 5.52469 10.425C6.04936 10.5974 6.33489 11.1626 6.16245 11.6872C5.99 12.2119 5.42487 12.4974 4.9002 12.325C4.11012 12.0653 3.43832 11.5328 3.00519 10.8228C2.57205 10.1128 2.40588 9.27183 2.53646 8.45048C2.66703 7.62913 3.08581 6.88112 3.71776 6.34047C4.34972 5.79982 5.15354 5.50187 5.9852 5.5Z" fill="black"/>
</svg>
