<svg width="32" height="32" viewBox="0 0 32 32" fill="none" xmlns="http://www.w3.org/2000/svg">
<path fill-rule="evenodd" clip-rule="evenodd" d="M2.01251 7C2.01251 6.44772 2.46023 6 3.01251 6H5.01251C5.5648 6 6.01251 6.44772 6.01251 7C6.01251 7.55228 5.5648 8 5.01251 8H3.01251C2.46023 8 2.01251 7.55228 2.01251 7Z" fill="black"/>
<path fill-rule="evenodd" clip-rule="evenodd" d="M14.0125 7C14.0125 6.44772 14.4602 6 15.0125 6H17.0125C17.5648 6 18.0125 6.44772 18.0125 7C18.0125 7.55228 17.5648 8 17.0125 8H15.0125C14.4602 8 14.0125 7.55228 14.0125 7Z" fill="black"/>
<path fill-rule="evenodd" clip-rule="evenodd" d="M2.01251 17C2.01251 16.4477 2.46023 16 3.01251 16H6.01251C6.5648 16 7.01251 16.4477 7.01251 17C7.01251 17.5523 6.5648 18 6.01251 18H3.01251C2.46023 18 2.01251 17.5523 2.01251 17Z" fill="black"/>
<path fill-rule="evenodd" clip-rule="evenodd" d="M13.0125 17C13.0125 16.4477 13.4602 16 14.0125 16H17.0125C17.5648 16 18.0125 16.4477 18.0125 17C18.0125 17.5523 17.5648 18 17.0125 18H14.0125C13.4602 18 13.0125 17.5523 13.0125 17Z" fill="black"/>
<path fill-rule="evenodd" clip-rule="evenodd" d="M20 13C20 12.4477 20.4477 12 21 12H30C30.5523 12 31 12.4477 31 13C31 13.5523 30.5523 14 30 14H21C20.4477 14 20 13.5523 20 13Z" fill="black"/>
<path fill-rule="evenodd" clip-rule="evenodd" d="M20.0125 17C20.0125 16.4477 20.4602 16 21.0125 16H30.0125C30.5648 16 31.0125 16.4477 31.0125 17C31.0125 17.5523 30.5648 18 30.0125 18H21.0125C20.4602 18 20.0125 17.5523 20.0125 17Z" fill="black"/>
<path fill-rule="evenodd" clip-rule="evenodd" d="M8 21C8 20.4477 8.44772 20 9 20H30C30.5523 20 31 20.4477 31 21C31 21.5523 30.5523 22 30 22H9C8.44772 22 8 21.5523 8 21Z" fill="black"/>
<path fill-rule="evenodd" clip-rule="evenodd" d="M8 25C8 24.4477 8.44772 24 9 24H30C30.5523 24 31 24.4477 31 25C31 25.5523 30.5523 26 30 26H9C8.44772 26 8 25.5523 8 25Z" fill="black"/>
<path fill-rule="evenodd" clip-rule="evenodd" d="M4.73683 6.03871C5.16565 5.91573 5.62407 6.09166 5.86051 6.46996L10.0125 13.1132L14.1645 6.46996C14.401 6.09166 14.8594 5.91573 15.2882 6.03871C15.717 6.1617 16.0125 6.55385 16.0125 6.99996V17C16.0125 17.5522 15.5648 18 15.0125 18C14.4602 18 14.0125 17.5522 14.0125 17V10.4868L10.8605 15.53C10.6778 15.8223 10.3573 16 10.0125 16C9.66772 16 9.34725 15.8223 9.16451 15.53L6.01251 10.4868V17C6.01251 17.5522 5.5648 18 5.01251 18C4.46023 18 4.01251 17.5522 4.01251 17V6.99996C4.01251 6.55385 4.30801 6.1617 4.73683 6.03871Z" fill="black"/>
<path fill-rule="evenodd" clip-rule="evenodd" d="M2 7C2 6.44772 2.44772 6 3 6H5C5.55228 6 6 6.44772 6 7C6 7.55228 5.55228 8 5 8H3C2.44772 8 2 7.55228 2 7Z" fill="black"/>
<path fill-rule="evenodd" clip-rule="evenodd" d="M14 7C14 6.44772 14.4477 6 15 6H17C17.5523 6 18 6.44772 18 7C18 7.55228 17.5523 8 17 8H15C14.4477 8 14 7.55228 14 7Z" fill="black"/>
<path fill-rule="evenodd" clip-rule="evenodd" d="M2 17C2 16.4477 2.44772 16 3 16H6C6.55228 16 7 16.4477 7 17C7 17.5523 6.55228 18 6 18H3C2.44772 18 2 17.5523 2 17Z" fill="black"/>
<path fill-rule="evenodd" clip-rule="evenodd" d="M13 17C13 16.4477 13.4477 16 14 16H17C17.5523 16 18 16.4477 18 17C18 17.5523 17.5523 18 17 18H14C13.4477 18 13 17.5523 13 17Z" fill="black"/>
<path fill-rule="evenodd" clip-rule="evenodd" d="M20 13C20 12.4477 20.4477 12 21 12H30C30.5523 12 31 12.4477 31 13C31 13.5523 30.5523 14 30 14H21C20.4477 14 20 13.5523 20 13Z" fill="black"/>
<path fill-rule="evenodd" clip-rule="evenodd" d="M20 17C20 16.4477 20.4477 16 21 16H30C30.5523 16 31 16.4477 31 17C31 17.5523 30.5523 18 30 18H21C20.4477 18 20 17.5523 20 17Z" fill="black"/>
<path fill-rule="evenodd" clip-rule="evenodd" d="M8 21C8 20.4477 8.44772 20 9 20H30C30.5523 20 31 20.4477 31 21C31 21.5523 30.5523 22 30 22H9C8.44772 22 8 21.5523 8 21Z" fill="black"/>
<path fill-rule="evenodd" clip-rule="evenodd" d="M8 25C8 24.4477 8.44772 24 9 24H30C30.5523 24 31 24.4477 31 25C31 25.5523 30.5523 26 30 26H9C8.44772 26 8 25.5523 8 25Z" fill="black"/>
<path fill-rule="evenodd" clip-rule="evenodd" d="M4.72432 6.03871C5.15314 5.91573 5.61156 6.09166 5.848 6.46996L10 13.1132L14.152 6.46996C14.3884 6.09166 14.8469 5.91573 15.2757 6.03871C15.7045 6.1617 16 6.55385 16 6.99996V17C16 17.5522 15.5523 18 15 18C14.4477 18 14 17.5522 14 17V10.4868L10.848 15.53C10.6653 15.8223 10.3448 16 10 16C9.65521 16 9.33474 15.8223 9.152 15.53L6 10.4868V17C6 17.5522 5.55228 18 5 18C4.44772 18 4 17.5522 4 17V6.99996C4 6.55385 4.2955 6.1617 4.72432 6.03871Z" fill="black"/>
</svg>
