<svg xmlns="http://www.w3.org/2000/svg" width="32" height="32" fill="none" viewBox="0 0 32 32"><path fill="#000" fill-rule="evenodd" d="M16 4C16.5523 4 17 4.44772 17 5V16C17 16.5523 16.5523 17 16 17C15.4477 17 15 16.5523 15 16V5C15 4.44772 15.4477 4 16 4Z" clip-rule="evenodd"/><path fill="#000" fill-rule="evenodd" d="M4.58646 12.2909C4.75715 11.7657 5.32132 11.4783 5.84656 11.649L16.3091 15.049C16.8343 15.2196 17.1217 15.7838 16.951 16.3091C16.7804 16.8343 16.2162 17.1217 15.6909 16.951L5.22844 13.551C4.70319 13.3804 4.41577 12.8162 4.58646 12.2909Z" clip-rule="evenodd"/><path fill="#000" fill-rule="evenodd" d="M16.5875 15.1908C17.0344 15.5153 17.1337 16.1406 16.8092 16.5875L10.3467 25.4875C10.0222 25.9344 9.39682 26.0336 8.94992 25.7091C8.50303 25.3846 8.40381 24.7593 8.72831 24.3124L15.1908 15.4124C15.5153 14.9655 16.1407 14.8663 16.5875 15.1908Z" clip-rule="evenodd"/><path fill="#000" fill-rule="evenodd" d="M15.4124 15.1908C15.8593 14.8663 16.4847 14.9655 16.8092 15.4124L23.2717 24.3124C23.5962 24.7593 23.497 25.3846 23.0501 25.7091C22.6032 26.0336 21.9778 25.9344 21.6533 25.4875L15.1908 16.5875C14.8663 16.1406 14.9656 15.5153 15.4124 15.1908Z" clip-rule="evenodd"/><path fill="#000" fill-rule="evenodd" d="M27.4135 12.2909C27.5842 12.8162 27.2968 13.3804 26.7716 13.551L16.3091 16.951C15.7838 17.1217 15.2196 16.8343 15.049 16.3091C14.8783 15.7838 15.1657 15.2196 15.6909 15.049L26.1534 11.649C26.6787 11.4783 27.2428 11.7657 27.4135 12.2909Z" clip-rule="evenodd"/></svg>