<svg width="32" height="32" viewBox="0 0 32 32" fill="none" xmlns="http://www.w3.org/2000/svg">
<path fill-rule="evenodd" clip-rule="evenodd" d="M16 4C16.5523 4 17 4.44772 17 5V27C17 27.5523 16.5523 28 16 28C15.4477 28 15 27.5523 15 27V5C15 4.44772 15.4477 4 16 4Z" fill="black"/>
<path fill-rule="evenodd" clip-rule="evenodd" d="M5.60899 9.99999C5.88516 9.52172 6.49676 9.35788 6.97504 9.63405L26.025 20.634C26.5033 20.9102 26.6672 21.5218 26.391 22.0001C26.1148 22.4784 25.5032 22.6422 25.0249 22.366L5.97494 11.366C5.49666 11.0899 5.33282 10.4783 5.60899 9.99999Z" fill="black"/>
<path fill-rule="evenodd" clip-rule="evenodd" d="M26.391 9.99999C26.6672 10.4783 26.5033 11.0899 26.025 11.366L6.97504 22.366C6.49676 22.6422 5.88516 22.4784 5.60899 22.0001C5.33282 21.5218 5.49666 20.9102 5.97494 20.634L25.0249 9.63405C25.5032 9.35788 26.1148 9.52172 26.391 9.99999Z" fill="black"/>
</svg>
