<svg width="32" height="32" viewBox="0 0 32 32" fill="none" xmlns="http://www.w3.org/2000/svg">
<path fill-rule="evenodd" clip-rule="evenodd" d="M6.91432 11.0896C8.00464 13.5126 10.0522 16.4138 12.8204 19.182C15.5886 21.9502 18.4898 23.9978 20.9128 25.0881C22.1277 25.6348 23.1723 25.9181 23.9902 25.9626C24.8088 26.0071 25.283 25.8113 25.5483 25.5459C25.8137 25.2806 26.0095 24.8065 25.965 23.9878C25.9205 23.1699 25.6372 22.1253 25.0905 20.9104C24.0001 18.4874 21.9525 15.5862 19.1844 12.818C16.4162 10.0499 13.515 8.00225 11.092 6.91193C9.87711 6.36522 8.83252 6.08192 8.01456 6.03741C7.19595 5.99287 6.7218 6.18872 6.45645 6.45407C6.19111 6.71941 5.99525 7.19357 6.0398 8.01217C6.0843 8.83013 6.3676 9.87473 6.91432 11.0896ZM4.04275 8.12084C3.9802 6.97121 4.23364 5.84845 5.04224 5.03985C5.85084 4.23125 6.9736 3.97781 8.12322 4.04036C9.27349 4.10295 10.5685 4.48315 11.9128 5.08809C14.6083 6.30106 17.7042 8.50938 20.5986 11.4038C23.493 14.2982 25.7013 17.3941 26.9143 20.0896C27.5193 21.434 27.8994 22.7289 27.962 23.8792C28.0246 25.0288 27.7711 26.1516 26.9625 26.9602C26.154 27.7688 25.0312 28.0222 23.8816 27.9597C22.7313 27.8971 21.4363 27.5169 20.092 26.9119C17.3965 25.699 14.3006 23.4906 11.4062 20.5962C8.51177 17.7018 6.30345 14.6059 5.09047 11.9104C4.48553 10.5661 4.10534 9.27111 4.04275 8.12084Z" fill="black"/>
<path fill-rule="evenodd" clip-rule="evenodd" d="M6.0398 23.9878C5.99525 24.8064 6.19111 25.2806 6.45645 25.5459C6.7218 25.8113 7.19595 26.0071 8.01456 25.9626C8.83252 25.9181 9.87711 25.6348 11.092 25.0881C13.515 23.9977 16.4162 21.9501 19.1844 19.182C21.9525 16.4138 24.0001 13.5126 25.0905 11.0896C25.6372 9.87471 25.9205 8.83012 25.965 8.01215C26.0095 7.19355 25.8137 6.71939 25.5483 6.45405C25.283 6.18871 24.8088 5.99285 23.9902 6.03739C23.1723 6.0819 22.1277 6.3652 20.9128 6.91191C18.4898 8.00224 15.5886 10.0498 12.8204 12.818C10.0522 15.5862 8.00464 18.4874 6.91432 20.9104C6.3676 22.1253 6.0843 23.1699 6.0398 23.9878ZM5.09047 20.0896C6.30345 17.3941 8.51177 14.2982 11.4062 11.4038C14.3006 8.50937 17.3965 6.30105 20.092 5.08807C21.4363 4.48313 22.7313 4.10294 23.8816 4.04035C25.0312 3.97779 26.154 4.23124 26.9625 5.03984C27.7711 5.84844 28.0246 6.97119 27.962 8.12082C27.8994 9.27109 27.5193 10.566 26.9143 11.9104C25.7013 14.6059 23.493 17.7018 20.5986 20.5962C17.7042 23.4906 14.6083 25.6989 11.9128 26.9119C10.5685 27.5169 9.27349 27.897 8.12322 27.9596C6.9736 28.0222 5.85084 27.7687 5.04224 26.9601C4.23364 26.1515 3.9802 25.0288 4.04275 23.8792C4.10534 22.7289 4.48553 21.4339 5.09047 20.0896Z" fill="black"/>
<path d="M16 17.5C16.8284 17.5 17.5 16.8284 17.5 16C17.5 15.1716 16.8284 14.5 16 14.5C15.1716 14.5 14.5 15.1716 14.5 16C14.5 16.8284 15.1716 17.5 16 17.5Z" fill="black"/>
</svg>
