<svg width="32" height="32" viewBox="0 0 32 32" fill="none" xmlns="http://www.w3.org/2000/svg">
<path fill-rule="evenodd" clip-rule="evenodd" d="M16 5C9.92487 5 5 9.92487 5 16C5 22.0751 9.92487 27 16 27C22.0751 27 27 22.0751 27 16C27 9.92487 22.0751 5 16 5ZM3 16C3 8.8203 8.8203 3 16 3C23.1797 3 29 8.8203 29 16C29 23.1797 23.1797 29 16 29C8.8203 29 3 23.1797 3 16Z" fill="black"/>
<path d="M11.5 17.5C12.3284 17.5 13 16.8284 13 16C13 15.1716 12.3284 14.5 11.5 14.5C10.6716 14.5 10 15.1716 10 16C10 16.8284 10.6716 17.5 11.5 17.5Z" fill="black"/>
<path d="M20.5 17.5C21.3284 17.5 22 16.8284 22 16C22 15.1716 21.3284 14.5 20.5 14.5C19.6716 14.5 19 15.1716 19 16C19 16.8284 19.6716 17.5 20.5 17.5Z" fill="black"/>
<path fill-rule="evenodd" clip-rule="evenodd" d="M11.8545 20.4467C12.16 19.9867 12.7807 19.8614 13.2407 20.167C14.0585 20.7101 15.0183 20.9998 16 20.9998C16.9817 20.9998 17.9415 20.7101 18.7592 20.167C19.2193 19.8614 19.84 19.9867 20.1455 20.4467C20.4511 20.9068 20.3258 21.5275 19.8657 21.833C18.72 22.5939 17.3753 22.9998 16 22.9998C14.6247 22.9998 13.2799 22.5939 12.1342 21.833C11.6742 21.5275 11.5489 20.9068 11.8545 20.4467Z" fill="black"/>
<path fill-rule="evenodd" clip-rule="evenodd" d="M16.6247 3.21911C17.056 3.56412 17.1259 4.19341 16.7809 4.62467C15.8837 5.74608 15.438 6.8637 15.2162 7.69514C15.1054 8.11078 15.0512 8.45269 15.0248 8.68383C15.0116 8.79925 15.0054 8.88652 15.0025 8.94093C15.001 8.96811 15.0004 8.98703 15.0002 8.99709L15 9.00409C15.0011 9.26782 15.1063 9.52051 15.2929 9.70708C15.4804 9.89462 15.7348 9.99998 16 9.99998C16.2652 9.99998 16.5196 9.89462 16.7071 9.70708C16.8946 9.51955 17 9.26519 17 8.99998C17 8.44769 17.4477 7.99998 18 7.99998C18.5523 7.99998 19 8.44769 19 8.99998C19 9.79563 18.6839 10.5587 18.1213 11.1213C17.5587 11.6839 16.7957 12 16 12C15.2043 12 14.4413 11.6839 13.8787 11.1213C13.3161 10.5587 13 9.79563 13 8.99998H14C13 8.99998 13 8.99958 13 8.99917L13 8.9983L13 8.99638L13 8.99186L13.0001 8.98003L13.0008 8.94549C13.0015 8.91771 13.0029 8.88047 13.0053 8.83441C13.0102 8.74234 13.0197 8.61476 13.0377 8.45674C13.0738 8.14102 13.1446 7.70167 13.2838 7.17981C13.562 6.13625 14.1163 4.75387 15.2191 3.37528C15.5641 2.94402 16.1934 2.8741 16.6247 3.21911Z" fill="black"/>
</svg>
