<svg width="32" height="32" viewBox="0 0 32 32" fill="none" xmlns="http://www.w3.org/2000/svg">
<path fill-rule="evenodd" clip-rule="evenodd" d="M16 4C13.6131 4 11.3239 4.94821 9.63604 6.63604C7.94821 8.32387 7 10.6131 7 13C7 15.514 8.02763 18.3011 9.71529 20.4551C11.4059 22.6129 13.6438 24 16 24C18.3562 24 20.5941 22.6129 22.2847 20.4551C23.9724 18.3011 25 15.514 25 13C25 10.6131 24.0518 8.32387 22.364 6.63604C20.6761 4.94821 18.3869 4 16 4ZM8.22183 5.22183C10.2847 3.15893 13.0826 2 16 2C18.9174 2 21.7153 3.15893 23.7782 5.22183C25.8411 7.28473 27 10.0826 27 13C27 16.011 25.7901 19.2239 23.859 21.6886C21.9309 24.1496 19.1688 26 16 26C12.8312 26 10.0691 24.1496 8.14096 21.6886C6.20987 19.2239 5 16.011 5 13C5 10.0826 6.15893 7.28473 8.22183 5.22183Z" fill="black"/>
<path fill-rule="evenodd" clip-rule="evenodd" d="M15.0214 23.9465C15.5342 24.1516 15.7836 24.7336 15.5785 25.2464L14.477 28H17.523L16.4215 25.2464C16.2164 24.7336 16.4658 24.1516 16.9786 23.9465C17.4914 23.7414 18.0734 23.9908 18.2785 24.5036L19.9285 28.6286C20.0517 28.9367 20.0141 29.2858 19.8281 29.5606C19.642 29.8354 19.3318 30 19 30H13C12.6682 30 12.358 29.8354 12.1719 29.5606C11.9859 29.2858 11.9483 28.9367 12.0715 28.6286L13.7215 24.5036C13.9266 23.9908 14.5086 23.7414 15.0214 23.9465Z" fill="black"/>
<path fill-rule="evenodd" clip-rule="evenodd" d="M16.0136 6.92325C16.1043 6.37847 16.6194 6.01037 17.1642 6.10108C18.5986 6.33991 19.9225 7.02106 20.9507 8.04929C21.9789 9.07751 22.6601 10.4014 22.8989 11.8358C22.9896 12.3805 22.6215 12.8957 22.0767 12.9864C21.5319 13.0771 21.0168 12.709 20.9261 12.1642C20.7557 11.1412 20.2699 10.1969 19.5365 9.4635C18.8031 8.73011 17.8588 8.24427 16.8357 8.07392C16.2909 7.98321 15.9228 7.46804 16.0136 6.92325Z" fill="black"/>
</svg>
