<svg width="32" height="32" viewBox="0 0 32 32" fill="none" xmlns="http://www.w3.org/2000/svg">
<path fill-rule="evenodd" clip-rule="evenodd" d="M11.1366 6.9008C10.5681 6.39353 9.82759 6.12136 9.06535 6.14013C8.29549 6.15909 7.56241 6.47337 7.01787 7.0179C6.47334 7.56244 6.15906 8.29552 6.1401 9.06538C6.12133 9.82762 6.3935 10.5681 6.90077 11.1366L20.8634 25.0993C21.4319 25.6065 22.1724 25.8787 22.9346 25.8599C23.7045 25.841 24.4376 25.5267 24.9821 24.9822C25.5267 24.4376 25.8409 23.7045 25.8599 22.9347C25.8787 22.1724 25.6065 21.432 25.0992 20.8635L11.1366 6.9008ZM9.01612 4.14074C10.2992 4.10915 11.5453 4.57218 12.4964 5.43398C12.5086 5.445 12.5205 5.45632 12.5321 5.46792L26.5321 19.4679C26.5437 19.4795 26.555 19.4914 26.566 19.5036C27.4278 20.4547 27.8909 21.7008 27.8593 22.9839C27.8277 24.267 27.3039 25.4888 26.3963 26.3964C25.4888 27.3039 24.267 27.8277 22.9839 27.8593C21.7008 27.8909 20.4547 27.4279 19.5035 26.5661C19.4914 26.5551 19.4795 26.5437 19.4679 26.5321L5.46789 12.5321C5.45629 12.5205 5.44497 12.5086 5.43395 12.4965C4.57215 11.5454 4.10912 10.2992 4.14071 9.01615C4.1723 7.73306 4.6961 6.51125 5.60366 5.60369C6.51122 4.69613 7.73303 4.17233 9.01612 4.14074Z" fill="black"/>
<path fill-rule="evenodd" clip-rule="evenodd" d="M20.8634 6.9008L6.90077 20.8635C6.3935 21.432 6.12133 22.1724 6.1401 22.9347C6.15906 23.7045 6.47334 24.4376 7.01787 24.9822C7.56241 25.5267 8.29549 25.841 9.06535 25.8599C9.82759 25.8787 10.5681 25.6065 11.1365 25.0993L25.0992 11.1366C25.6065 10.5681 25.8787 9.82762 25.8599 9.06538C25.8409 8.29552 25.5267 7.56244 24.9821 7.0179C24.4376 6.47337 23.7045 6.15909 22.9346 6.14013C22.1724 6.12136 21.4319 6.39353 20.8634 6.9008ZM19.5035 5.43398C20.4547 4.57218 21.7008 4.10915 22.9839 4.14074C24.267 4.17233 25.4888 4.69613 26.3963 5.60369C27.3039 6.51125 27.8277 7.73306 27.8593 9.01615C27.8909 10.2992 27.4278 11.5454 26.566 12.4965C26.555 12.5086 26.5437 12.5205 26.5321 12.5321L12.5321 26.5321C12.5205 26.5437 12.5086 26.5551 12.4964 26.5661C11.5453 27.4279 10.2992 27.8909 9.01612 27.8593C7.73303 27.8277 6.51122 27.3039 5.60366 26.3964C4.6961 25.4888 4.1723 24.267 4.14071 22.9839C4.10912 21.7008 4.57215 20.4547 5.43395 19.5036C5.44497 19.4914 5.45629 19.4795 5.46789 19.4679L19.4679 5.46792C19.4795 5.45632 19.4914 5.445 19.5035 5.43398Z" fill="black"/>
<path opacity="0.5" fill-rule="evenodd" clip-rule="evenodd" d="M16 16.5C16.2761 16.5 16.5 16.2761 16.5 16C16.5 15.7239 16.2761 15.5 16 15.5C15.7239 15.5 15.5 15.7239 15.5 16C15.5 16.2761 15.7239 16.5 16 16.5ZM14.5 16C14.5 15.1716 15.1716 14.5 16 14.5C16.8284 14.5 17.5 15.1716 17.5 16C17.5 16.8284 16.8284 17.5 16 17.5C15.1716 17.5 14.5 16.8284 14.5 16Z" fill="black"/>
<path d="M16 17.5C16.8284 17.5 17.5 16.8284 17.5 16C17.5 15.1716 16.8284 14.5 16 14.5C15.1716 14.5 14.5 15.1716 14.5 16C14.5 16.8284 15.1716 17.5 16 17.5Z" fill="black"/>
</svg>
