<svg xmlns="http://www.w3.org/2000/svg" width="32" height="32" fill="none" viewBox="0 0 32 32"><path fill="#000" fill-rule="evenodd" d="M16 5C9.92487 5 5 9.92487 5 16C5 22.0751 9.92487 27 16 27C22.0751 27 27 22.0751 27 16C27 9.92487 22.0751 5 16 5ZM3 16C3 8.8203 8.8203 3 16 3C23.1797 3 29 8.8203 29 16C29 23.1797 23.1797 29 16 29C8.8203 29 3 23.1797 3 16Z" clip-rule="evenodd"/><path fill="#000" fill-rule="evenodd" d="M6.79382 6.817C7.18485 6.42698 7.81801 6.42781 8.20803 6.81884C10.6387 9.25586 12.0026 12.5581 12 16C12.0026 19.442 10.6387 22.7442 8.20803 25.1812C7.81801 25.5722 7.18485 25.5731 6.79382 25.1831C6.40278 24.793 6.40196 24.1599 6.79197 23.7688C8.84849 21.707 10.0023 18.913 10 16.0008V15.9992C10.0023 13.0871 8.84849 10.2931 6.79197 8.23121C6.40196 7.84017 6.40278 7.20701 6.79382 6.817ZM12 16C12 16.0003 12 16.0006 12 16.0008L11 16L12 15.9992C12 15.9995 12 15.9998 12 16Z" clip-rule="evenodd"/><path fill="#000" fill-rule="evenodd" d="M25.2055 6.81633C25.5969 7.20597 25.5983 7.83914 25.2087 8.23054C23.1542 10.2943 22.0007 13.0879 22.0007 16C22.0007 18.9121 23.1542 21.7057 25.2087 23.7695C25.5983 24.1609 25.5969 24.7941 25.2055 25.1837C24.8141 25.5734 24.181 25.5719 23.7913 25.1805C21.3636 22.7419 20.0007 19.441 20.0007 16C20.0007 12.559 21.3636 9.25812 23.7913 6.81951C24.181 6.42811 24.8141 6.42668 25.2055 6.81633Z" clip-rule="evenodd"/><path fill="#000" fill-rule="evenodd" d="M3 16C3 15.4477 3.44772 15 4 15H28C28.5523 15 29 15.4477 29 16C29 16.5523 28.5523 17 28 17H4C3.44772 17 3 16.5523 3 16Z" clip-rule="evenodd"/><path fill="#000" fill-rule="evenodd" d="M16 3C16.5523 3 17 3.44772 17 4V28C17 28.5523 16.5523 29 16 29C15.4477 29 15 28.5523 15 28V4C15 3.44772 15.4477 3 16 3Z" clip-rule="evenodd"/></svg>