<svg xmlns="http://www.w3.org/2000/svg" width="32" height="32" fill="none" viewBox="0 0 32 32"><path fill="#000" fill-rule="evenodd" d="M11 1C11 0.447715 11.4477 0 12 0H20C20.5523 0 21 0.447715 21 1C21 1.55228 20.5523 2 20 2H12C11.4477 2 11 1.55228 11 1Z" clip-rule="evenodd"/><path fill="#000" fill-rule="evenodd" d="M9 6C8.44772 6 8 6.44772 8 7V26C8 26.5523 8.44772 27 9 27H23C23.5523 27 24 26.5523 24 26V7C24 6.44772 23.5523 6 23 6H9ZM6 7C6 5.34315 7.34315 4 9 4H23C24.6569 4 26 5.34315 26 7V26C26 27.6569 24.6569 29 23 29H9C7.34315 29 6 27.6569 6 26V7Z" clip-rule="evenodd"/><path fill="#000" fill-rule="evenodd" d="M16.3714 10.5715C16.8842 10.7767 17.1336 11.3586 16.9285 11.8714L15.477 15.5H18C18.3318 15.5 18.642 15.6646 18.8281 15.9394C19.0141 16.2142 19.0517 16.5633 18.9285 16.8714L16.9285 21.8714C16.7234 22.3842 16.1414 22.6336 15.6286 22.4285C15.1158 22.2234 14.8664 21.6414 15.0715 21.1286L16.523 17.5H14C13.6682 17.5 13.358 17.3354 13.1719 17.0607C12.9859 16.7859 12.9483 16.4367 13.0715 16.1286L15.0715 11.1286C15.2766 10.6158 15.8586 10.3664 16.3714 10.5715Z" clip-rule="evenodd"/></svg>