<svg width="32" height="32" viewBox="0 0 32 32" fill="none" xmlns="http://www.w3.org/2000/svg">
<path fill-rule="evenodd" clip-rule="evenodd" d="M25.2929 1.29289C25.6834 0.902369 26.3166 0.902369 26.7071 1.29289L30.7071 5.29289C31.0976 5.68342 31.0976 6.31658 30.7071 6.70711C30.3166 7.09763 29.6834 7.09763 29.2929 6.70711L25.2929 2.70711C24.9024 2.31658 24.9024 1.68342 25.2929 1.29289Z" fill="black"/>
<path fill-rule="evenodd" clip-rule="evenodd" d="M27.8 2.4C28.1314 2.84183 28.0419 3.46863 27.6 3.8L19.6 9.8C19.4806 9.88959 19.3426 9.95129 19.1961 9.98058L14.493 10.9212L4.12484 21.2894C4.12413 21.2901 4.12341 21.2908 4.1227 21.2915C3.93739 21.4807 3.83356 21.7351 3.83356 22C3.83356 22.2649 3.93739 22.5192 4.1227 22.7085C4.12341 22.7092 4.12413 22.7099 4.12484 22.7106L9.28939 27.8752C9.29014 27.8759 9.2909 27.8767 9.29165 27.8774C9.48085 28.0627 9.73515 28.1665 10 28.1665C10.2649 28.1665 10.5192 28.0627 10.7084 27.8774C10.7092 27.8767 10.7099 27.8759 10.7107 27.8752L21.0788 17.507L22.0194 12.8039C22.0487 12.6575 22.1104 12.5195 22.2 12.4L28.2 4.4C28.5314 3.95817 29.1582 3.86863 29.6 4.2C30.0419 4.53137 30.1314 5.15817 29.8 5.6L23.9361 13.4185L22.9806 18.1961C22.9419 18.3897 22.8467 18.5675 22.7071 18.7071L12.1144 29.2998C11.5508 29.8552 10.7913 30.1665 10 30.1665C9.20877 30.1665 8.44929 29.8552 7.88567 29.2998L7.8804 29.2946L2.7002 24.1144C2.14485 23.5508 1.83356 22.7913 1.83356 22C1.83356 21.2087 2.14487 20.4493 2.70022 19.8856L2.7054 19.8804L13.2929 9.29289C13.4325 9.15329 13.6103 9.05814 13.8039 9.01942L18.5815 8.0639L26.4 2.2C26.8419 1.86863 27.4687 1.95817 27.8 2.4Z" fill="black"/>
<path fill-rule="evenodd" clip-rule="evenodd" d="M11.2929 11.2929C11.6834 10.9024 12.3166 10.9024 12.7071 11.2929L20.7071 19.2929C21.0976 19.6834 21.0976 20.3166 20.7071 20.7071C20.3166 21.0976 19.6834 21.0976 19.2929 20.7071L11.2929 12.7071C10.9024 12.3166 10.9024 11.6834 11.2929 11.2929Z" fill="black"/>
<path fill-rule="evenodd" clip-rule="evenodd" d="M4.29289 18.2929C4.68342 17.9024 5.31658 17.9024 5.70711 18.2929L13.7071 26.2929C14.0976 26.6834 14.0976 27.3166 13.7071 27.7071C13.3166 28.0976 12.6834 28.0976 12.2929 27.7071L4.29289 19.7071C3.90237 19.3166 3.90237 18.6834 4.29289 18.2929Z" fill="black"/>
</svg>
