<svg xmlns="http://www.w3.org/2000/svg" width="32" height="32" fill="none" viewBox="0 0 32 32"><path fill="#000" fill-rule="evenodd" d="M20 10C20 9.44772 20.4477 9 21 9H29C29.5523 9 30 9.44772 30 10C30 10.5523 29.5523 11 29 11H21C20.4477 11 20 10.5523 20 10Z" clip-rule="evenodd"/><path fill="#000" fill-rule="evenodd" d="M22.185 13.7313C23.4055 13.0774 24.8149 12.8668 26.1733 13.1352C27.5317 13.4036 28.755 14.1346 29.6351 15.2036C30.5151 16.2726 30.9975 17.6135 31 18.9982C31.0005 19.2637 30.8953 19.5185 30.7078 19.7065C30.5202 19.8944 30.2655 20 30 20H21.1501C21.1645 20.0563 21.1802 20.1123 21.1972 20.1681C21.4652 21.0504 22.0307 21.8126 22.7975 22.3248C23.5643 22.837 24.4849 23.0677 25.4026 22.9775C26.3203 22.8873 27.1784 22.4818 27.8307 21.8301C28.2214 21.4397 28.8546 21.44 29.2449 21.8307C29.6353 22.2214 29.635 22.8546 29.2443 23.2449C28.2647 24.2236 26.9762 24.8324 25.5982 24.9679C24.2202 25.1033 22.8379 24.757 21.6865 23.9878C20.5351 23.2187 19.6859 22.0742 19.2835 20.7494C19.1338 20.2565 19.0493 19.7499 19.0295 19.2423C19.0102 19.1647 19 19.0835 19 19C19 18.9152 19.0106 18.8328 19.0304 18.7542C19.06 18.0607 19.2101 17.3725 19.4792 16.7215C20.0083 15.4419 20.9644 14.3852 22.185 13.7313ZM21.1548 18H28.8702C28.725 17.4449 28.4607 16.9238 28.091 16.4747C27.5049 15.7628 26.6902 15.276 25.7855 15.0973C24.8809 14.9185 23.9423 15.0588 23.1294 15.4942C22.3166 15.9297 21.6798 16.6334 21.3275 17.4856C21.258 17.6538 21.2004 17.8256 21.1548 18Z" clip-rule="evenodd"/><path fill="#000" fill-rule="evenodd" d="M3 8C3 7.44772 3.44772 7 4 7H10.75C12.0098 7 13.218 7.50045 14.1088 8.39124C14.9996 9.28204 15.5 10.4902 15.5 11.75C15.5 12.9201 15.0683 14.0457 14.293 14.9138C14.9108 15.1748 15.4789 15.5542 15.9623 16.0377C16.9469 17.0223 17.5 18.3576 17.5 19.75C17.5 21.1424 16.9469 22.4777 15.9623 23.4623C14.9777 24.4469 13.6424 25 12.25 25H4C3.44772 25 3 24.5523 3 24V8ZM5 16.5V23H12.25C13.112 23 13.9386 22.6576 14.5481 22.0481C15.1576 21.4386 15.5 20.612 15.5 19.75C15.5 18.888 15.1576 18.0614 14.5481 17.4519C13.9386 16.8424 13.112 16.5 12.25 16.5H5ZM10.75 14.5H5V9H10.75C11.4793 9 12.1788 9.28973 12.6945 9.80546C13.2103 10.3212 13.5 11.0207 13.5 11.75C13.5 12.4793 13.2103 13.1788 12.6945 13.6945C12.1788 14.2103 11.4793 14.5 10.75 14.5Z" clip-rule="evenodd"/></svg>