<svg xmlns="http://www.w3.org/2000/svg" width="32" height="32" fill="none" viewBox="0 0 32 32"><path fill="#000" fill-rule="evenodd" d="M5.32733 4.26007C5.73599 3.88856 6.36844 3.91868 6.73995 4.32733L26.7399 26.3273C27.1115 26.736 27.0813 27.3684 26.6727 27.7399C26.264 28.1115 25.6316 28.0813 25.2601 27.6727L5.26007 5.67268C4.88856 5.26402 4.91868 4.63157 5.32733 4.26007Z" clip-rule="evenodd"/><path fill="#000" fill-rule="evenodd" d="M12 23C12.5523 23 13 23.4477 13 24V25C13 25.7956 13.3161 26.5587 13.8787 27.1213C14.4413 27.6839 15.2044 28 16 28C16.7956 28 17.5587 27.6839 18.1213 27.1213C18.6839 26.5587 19 25.7956 19 25V24C19 23.4477 19.4477 23 20 23C20.5523 23 21 23.4477 21 24V25C21 26.3261 20.4732 27.5979 19.5355 28.5355C18.5979 29.4732 17.3261 30 16 30C14.6739 30 13.4021 29.4732 12.4645 28.5355C11.5268 27.5979 11 26.3261 11 25V24C11 23.4477 11.4477 23 12 23Z" clip-rule="evenodd"/><path fill="#000" fill-rule="evenodd" d="M9.17826 7.05039C9.63366 7.36283 9.74955 7.9853 9.4371 8.44071C8.51644 9.78261 8.02411 11.372 8.02502 12.9994L8.02502 14C8.02502 18.6156 7.05724 21.3954 6.12854 23H23.275C23.8273 23 24.275 23.4477 24.275 24C24.275 24.5523 23.8273 25 23.275 25H6.12502L6.1215 25C5.77102 24.9987 5.42703 24.9054 5.12397 24.7294C4.82091 24.5533 4.56943 24.3008 4.39473 23.9969C4.22002 23.6931 4.12823 23.3487 4.12854 22.9982C4.12885 22.6477 4.22125 22.3035 4.3965 22L4.39709 21.9989C5.11821 20.7534 6.02502 18.3333 6.02502 14V13.0002C6.02502 13.0001 6.02502 13.0003 6.02502 13.0002C6.02399 10.9687 6.63864 8.98438 7.78793 7.30923C8.10038 6.85383 8.72285 6.73794 9.17826 7.05039Z" clip-rule="evenodd"/><path fill="#000" fill-rule="evenodd" d="M16.0521 4.99994C14.6524 4.98528 13.2743 5.34512 12.0605 6.04217C11.5816 6.31721 10.9704 6.15193 10.6954 5.673C10.4203 5.19407 10.5856 4.58286 11.0645 4.30782C12.5872 3.43341 14.3158 2.9819 16.0716 3.00004C21.5882 3.04263 25.975 7.61931 25.975 13.1125V14C25.975 17.2316 26.4831 19.3934 27.0316 20.799C27.2324 21.3135 26.9781 21.8933 26.4636 22.0941C25.9491 22.2949 25.3692 22.0405 25.1685 21.526C24.517 19.8566 23.975 17.4434 23.975 14V13.1125C23.975 8.68116 20.4377 5.03317 16.055 4.99997L16.0521 4.99994Z" clip-rule="evenodd"/></svg>