<svg width="32" height="32" viewBox="0 0 32 32" fill="none" xmlns="http://www.w3.org/2000/svg">
<path fill-rule="evenodd" clip-rule="evenodd" d="M16 6.02502C14.9527 6.02502 13.9157 6.2313 12.9481 6.63208C11.9805 7.03287 11.1014 7.6203 10.3608 8.36085C9.62029 9.10139 9.03286 9.98055 8.63208 10.9481C8.2313 11.9157 8.02502 12.9527 8.02502 14C8.02502 18.6157 7.05724 21.3954 6.12854 23H25.8715C24.9428 21.3954 23.975 18.6157 23.975 14C23.975 12.9527 23.7687 11.9157 23.368 10.9481C22.9672 9.98055 22.3797 9.10139 21.6392 8.36085C20.8986 7.6203 20.0195 7.03287 19.0519 6.63208C18.0843 6.2313 17.0473 6.02502 16 6.02502ZM12.1828 4.78433C13.393 4.28303 14.6901 4.02502 16 4.02502C17.31 4.02502 18.6071 4.28303 19.8173 4.78433C21.0275 5.28562 22.1271 6.02037 23.0534 6.94663C23.9797 7.8729 24.7144 8.97253 25.2157 10.1828C25.717 11.393 25.975 12.6901 25.975 14C25.975 18.3334 26.8818 20.7534 27.6029 21.999L27.6035 22C27.7788 22.3035 27.8712 22.6478 27.8715 22.9983C27.8718 23.3487 27.78 23.6931 27.6053 23.997C27.4306 24.3008 27.1791 24.5534 26.8761 24.7294C26.573 24.9055 26.229 24.9988 25.8785 25L25.875 25H6.12502L6.1215 25C5.77102 24.9988 5.42703 24.9055 5.12397 24.7294C4.82091 24.5534 4.56943 24.3008 4.39473 23.997C4.22002 23.6931 4.12823 23.3487 4.12854 22.9983C4.12885 22.6478 4.22125 22.3035 4.3965 22L4.39709 21.999C5.11821 20.7534 6.02502 18.3334 6.02502 14C6.02502 12.6901 6.28303 11.393 6.78432 10.1828C7.28561 8.97253 8.02036 7.8729 8.94663 6.94663C9.87289 6.02037 10.9725 5.28562 12.1828 4.78433Z" fill="black"/>
<path fill-rule="evenodd" clip-rule="evenodd" d="M12 23C12.5523 23 13 23.4477 13 24V25C13 25.7956 13.3161 26.5587 13.8787 27.1213C14.4413 27.6839 15.2044 28 16 28C16.7956 28 17.5587 27.6839 18.1213 27.1213C18.6839 26.5587 19 25.7956 19 25V24C19 23.4477 19.4477 23 20 23C20.5523 23 21 23.4477 21 24V25C21 26.3261 20.4732 27.5979 19.5355 28.5355C18.5979 29.4732 17.3261 30 16 30C14.6739 30 13.4021 29.4732 12.4645 28.5355C11.5268 27.5979 11 26.3261 11 25V24C11 23.4477 11.4477 23 12 23Z" fill="black"/>
<path fill-rule="evenodd" clip-rule="evenodd" d="M22.0794 2.46621C22.3742 1.99919 22.9918 1.85959 23.4588 2.15439C25.65 3.53758 27.4185 5.49687 28.5708 7.81784C28.8163 8.31253 28.6144 8.91263 28.1197 9.15821C27.625 9.40379 27.0249 9.20185 26.7794 8.70717C25.7903 6.71483 24.2722 5.03296 22.3913 3.84562C21.9242 3.55082 21.7846 2.93323 22.0794 2.46621Z" fill="black"/>
<path fill-rule="evenodd" clip-rule="evenodd" d="M9.92067 2.46621C10.2155 2.93323 10.0759 3.55082 9.60884 3.84562C7.72791 5.03296 6.20983 6.71483 5.22075 8.70717C4.97517 9.20185 4.37507 9.40379 3.88039 9.15821C3.38571 8.91263 3.18377 8.31253 3.42935 7.81784C4.58158 5.49687 6.35006 3.53758 8.54126 2.15439C9.00828 1.85959 9.62586 1.99919 9.92067 2.46621Z" fill="black"/>
</svg>
