<svg width="32" height="32" viewBox="0 0 32 32" fill="none" xmlns="http://www.w3.org/2000/svg">
<path fill-rule="evenodd" clip-rule="evenodd" d="M5.32733 4.26007C5.73599 3.88856 6.36844 3.91868 6.73995 4.32733L26.7399 26.3273C27.1115 26.736 27.0813 27.3684 26.6727 27.7399C26.264 28.1115 25.6316 28.0813 25.2601 27.6727L5.26007 5.67268C4.88856 5.26402 4.91868 4.63157 5.32733 4.26007Z" fill="black"/>
<path fill-rule="evenodd" clip-rule="evenodd" d="M11 28C11 27.4477 11.4477 27 12 27H20C20.5523 27 21 27.4477 21 28C21 28.5523 20.5523 29 20 29H12C11.4477 29 11 28.5523 11 28Z" fill="black"/>
<path fill-rule="evenodd" clip-rule="evenodd" d="M16.0521 4.99994C14.6524 4.98528 13.2743 5.34512 12.0605 6.04217C11.5816 6.31721 10.9704 6.15193 10.6954 5.673C10.4203 5.19407 10.5856 4.58286 11.0645 4.30782C12.5872 3.43341 14.3158 2.9819 16.0716 3.00004C21.5882 3.04263 25.975 7.61931 25.975 13.1125V14C25.975 17.2316 26.4831 19.3934 27.0316 20.799C27.2324 21.3135 26.9781 21.8933 26.4636 22.0941C25.9491 22.2949 25.3692 22.0405 25.1685 21.526C24.517 19.8566 23.975 17.4434 23.975 14V13.1125C23.975 8.68116 20.4377 5.03317 16.055 4.99997L16.0521 4.99994Z" fill="black"/>
<path fill-rule="evenodd" clip-rule="evenodd" d="M9.17826 7.05039C9.63367 7.36283 9.74956 7.9853 9.43711 8.44071C8.51645 9.78261 8.02411 11.372 8.02503 12.9994V14C8.02503 18.6154 7.05731 21.3974 6.12603 22.9918L6.12126 23L6.12503 23L23.275 23C23.8273 23 24.275 23.4477 24.275 24C24.275 24.5523 23.8273 25 23.275 25H6.12648M6.02503 13C6.024 10.9685 6.63865 8.98438 7.78794 7.30923C8.10039 6.85383 8.72286 6.73794 9.17826 7.05039" fill="black"/>
</svg>
