<svg width="32" height="32" viewBox="0 0 32 32" fill="none" xmlns="http://www.w3.org/2000/svg">
<path fill-rule="evenodd" clip-rule="evenodd" d="M11 28C11 27.4477 11.4477 27 12 27H20C20.5523 27 21 27.4477 21 28C21 28.5523 20.5523 29 20 29H12C11.4477 29 11 28.5523 11 28Z" fill="black"/>
<path fill-rule="evenodd" clip-rule="evenodd" d="M16.0559 5C15.0027 4.99427 13.9587 5.19692 12.984 5.59626C12.0091 5.99574 11.1228 6.58416 10.3762 7.32763C9.62968 8.0711 9.03758 8.95493 8.63405 9.92821C8.23052 10.9015 8.02354 11.945 8.02502 12.9986L8.02502 13L8.02502 14C8.02502 18.6157 7.05724 21.3954 6.12854 23H25.8715C24.9428 21.3954 23.975 18.6157 23.975 14V13.1125C23.975 8.68151 20.4382 5.03372 16.0559 5ZM12.2257 3.74559C13.4448 3.24609 14.7507 2.9927 16.0681 3.00003L16.0701 3.00004C21.5874 3.04184 25.975 7.61885 25.975 13.1125V14C25.975 18.3334 26.8818 20.7534 27.6029 21.999L27.6035 22C27.7788 22.3035 27.8712 22.6478 27.8715 22.9983C27.8718 23.3487 27.78 23.6931 27.6053 23.997C27.4306 24.3008 27.1791 24.5534 26.8761 24.7294C26.573 24.9055 26.229 24.9988 25.8785 25L25.875 25H6.12502L6.1215 25C5.77102 24.9988 5.42703 24.9055 5.12397 24.7294C4.82091 24.5534 4.56943 24.3008 4.39473 23.997C4.22002 23.6931 4.12823 23.3487 4.12854 22.9983C4.12885 22.6478 4.22125 22.3035 4.3965 22L4.39709 21.999C5.11821 20.7534 6.02502 18.3334 6.02502 14V13.0007" fill="black"/>
<path fill-rule="evenodd" clip-rule="evenodd" d="M12.5 12C12.5 11.4477 12.9477 11 13.5 11H18.5C18.888 11 19.241 11.2245 19.4056 11.5758C19.5702 11.9272 19.5166 12.3421 19.2682 12.6402L15.6351 17H18.5C19.0523 17 19.5 17.4477 19.5 18C19.5 18.5523 19.0523 19 18.5 19H13.5C13.112 19 12.759 18.7755 12.5944 18.4242C12.4298 18.0728 12.4834 17.6579 12.7318 17.3598L16.365 13H13.5C12.9477 13 12.5 12.5523 12.5 12Z" fill="black"/>
</svg>
