<svg width="32" height="32" viewBox="0 0 32 32" fill="none" xmlns="http://www.w3.org/2000/svg">
<path fill-rule="evenodd" clip-rule="evenodd" d="M1 10C1 9.44772 1.44772 9 2 9H13C13.5523 9 14 9.44772 14 10C14 10.5523 13.5523 11 13 11H2C1.44772 11 1 10.5523 1 10Z" fill="black"/>
<path fill-rule="evenodd" clip-rule="evenodd" d="M18 10C18 9.44772 18.4477 9 19 9H30C30.5523 9 31 9.44772 31 10C31 10.5523 30.5523 11 30 11H19C18.4477 11 18 10.5523 18 10Z" fill="black"/>
<path fill-rule="evenodd" clip-rule="evenodd" d="M16 8C14.8954 8 14 8.89543 14 10C14 11.1046 14.8954 12 16 12C17.1046 12 18 11.1046 18 10C18 8.89543 17.1046 8 16 8ZM12 10C12 7.79086 13.7909 6 16 6C18.2091 6 20 7.79086 20 10C20 12.2091 18.2091 14 16 14C13.7909 14 12 12.2091 12 10Z" fill="black"/>
<path fill-rule="evenodd" clip-rule="evenodd" d="M5 20C3.89543 20 3 20.8954 3 22C3 23.1046 3.89543 24 5 24C6.10457 24 7 23.1046 7 22C7 20.8954 6.10457 20 5 20ZM1 22C1 19.7909 2.79086 18 5 18C7.20914 18 9 19.7909 9 22C9 24.2091 7.20914 26 5 26C2.79086 26 1 24.2091 1 22Z" fill="black"/>
<path fill-rule="evenodd" clip-rule="evenodd" d="M27 20C25.8954 20 25 20.8954 25 22C25 23.1046 25.8954 24 27 24C28.1046 24 29 23.1046 29 22C29 20.8954 28.1046 20 27 20ZM23 22C23 19.7909 24.7909 18 27 18C29.2091 18 31 19.7909 31 22C31 24.2091 29.2091 26 27 26C24.7909 26 23 24.2091 23 22Z" fill="black"/>
<path fill-rule="evenodd" clip-rule="evenodd" d="M18.0122 10.1422C18.1615 9.61047 18.7135 9.30043 19.2453 9.44971C21.4048 10.056 23.3514 11.2547 24.8647 12.9102C26.3781 14.5657 27.3977 16.6119 27.8081 18.817C27.9092 19.36 27.5509 19.882 27.008 19.9831C26.465 20.0842 25.9429 19.7259 25.8419 19.183C25.4998 17.345 24.6499 15.6395 23.3885 14.2596C22.1272 12.8797 20.5046 11.8806 18.7047 11.3753C18.173 11.226 17.8629 10.6739 18.0122 10.1422Z" fill="black"/>
<path fill-rule="evenodd" clip-rule="evenodd" d="M13.9878 10.1422C14.1371 10.6739 13.827 11.226 13.2953 11.3753C11.4954 11.8806 9.87283 12.8797 8.61145 14.2596C7.35007 15.6395 6.50022 17.345 6.15813 19.183C6.05707 19.7259 5.53499 20.0842 4.99203 19.9831C4.44907 19.882 4.09084 19.36 4.1919 18.817C4.60232 16.6119 5.62193 14.5657 7.13527 12.9102C8.64861 11.2547 10.5952 10.056 12.7547 9.44971C13.2865 9.30043 13.8385 9.61047 13.9878 10.1422Z" fill="black"/>
</svg>
