<svg xmlns="http://www.w3.org/2000/svg" width="32" height="32" fill="none" viewBox="0 0 32 32"><path fill="#000" fill-rule="evenodd" d="M12 11.5C12 10.9477 12.4477 10.5 13 10.5H19C19.5523 10.5 20 10.9477 20 11.5C20 12.0523 19.5523 12.5 19 12.5H13C12.4477 12.5 12 12.0523 12 11.5Z" clip-rule="evenodd"/><path fill="#000" fill-rule="evenodd" d="M18.2967 6.16412C19.0479 5.42088 20.062 5.004 21.1187 5.004C22.1755 5.004 23.1896 5.42088 23.9408 6.16412C24.0302 6.25257 24.1021 6.35708 24.1528 6.47219L29.6153 18.8847C29.8377 19.3902 29.6083 19.9803 29.1028 20.2028C28.5973 20.4252 28.0072 20.1958 27.7847 19.6903L22.4069 7.47028C22.0467 7.17015 21.5912 7.004 21.1187 7.004C20.7176 7.004 20.3287 7.12376 20 7.3436V21C20 21.5523 19.5523 22 19 22C18.4477 22 18 21.5523 18 21V6.87499C18 6.60792 18.1068 6.35195 18.2967 6.16412Z" clip-rule="evenodd"/><path fill="#000" fill-rule="evenodd" d="M8.05924 6.16412C8.81046 5.42088 9.82455 5.004 10.8813 5.004C11.9381 5.004 12.9522 5.42088 13.7034 6.16412C13.8932 6.35195 14.0001 6.60792 14.0001 6.87499V21C14.0001 21.5523 13.5523 22 13.0001 22C12.4478 22 12.0001 21.5523 12.0001 21V7.3436C11.6713 7.12376 11.2824 7.004 10.8813 7.004C10.4088 7.004 9.95336 7.17015 9.59313 7.47028L4.21534 19.6903C3.99288 20.1958 3.40276 20.4252 2.89726 20.2028C2.39176 19.9803 2.16231 19.3902 2.38477 18.8847L7.84727 6.47219C7.89792 6.35708 7.96984 6.25257 8.05924 6.16412Z" clip-rule="evenodd"/><path fill="#000" fill-rule="evenodd" d="M8 17C5.79086 17 4 18.7909 4 21C4 23.2091 5.79086 25 8 25C10.2091 25 12 23.2091 12 21C12 18.7909 10.2091 17 8 17ZM2 21C2 17.6863 4.68629 15 8 15C11.3137 15 14 17.6863 14 21C14 24.3137 11.3137 27 8 27C4.68629 27 2 24.3137 2 21Z" clip-rule="evenodd"/><path fill="#000" fill-rule="evenodd" d="M24 17C21.7909 17 20 18.7909 20 21C20 23.2091 21.7909 25 24 25C26.2091 25 28 23.2091 28 21C28 18.7909 26.2091 17 24 17ZM18 21C18 17.6863 20.6863 15 24 15C27.3137 15 30 17.6863 30 21C30 24.3137 27.3137 27 24 27C20.6863 27 18 24.3137 18 21Z" clip-rule="evenodd"/></svg>