<svg xmlns="http://www.w3.org/2000/svg" width="32" height="32" fill="none" viewBox="0 0 32 32"><path fill="#000" d="M20.5 10C21.3284 10 22 9.32843 22 8.5C22 7.67157 21.3284 7 20.5 7C19.6716 7 19 7.67157 19 8.5C19 9.32843 19.6716 10 20.5 10Z"/><path fill="#000" fill-rule="evenodd" d="M15.6402 16.2318C16.0645 16.5854 16.1218 17.2159 15.7682 17.6402L10.7682 23.6402C10.4147 24.0645 9.78412 24.1218 9.35984 23.7682C8.93556 23.4147 8.87824 22.7841 9.2318 22.3598L14.2318 16.3598C14.5854 15.9356 15.2159 15.8782 15.6402 16.2318Z" clip-rule="evenodd"/><path fill="#000" fill-rule="evenodd" d="M22.576 4.9515C21.4684 4.20424 20.1267 3.88572 18.8014 4.05543C17.4761 4.22514 16.2579 4.87147 15.3744 5.87371C14.4909 6.87581 14.0024 8.1652 14 9.50111C14 9.50092 14 9.50129 14 9.50111V12C14 12.2271 13.9227 12.4474 13.7809 12.6247L3.08063 26H14C16.9174 26 19.7153 24.8411 21.7782 22.7782C23.8411 20.7153 25 17.9174 25 15V12C25 11.6656 25.1671 11.3534 25.4453 11.1679L27.196 10.0008L25.2336 8.69503C25.0295 8.55923 24.8824 8.35321 24.8202 8.11608C24.4814 6.82365 23.6836 5.69876 22.576 4.9515ZM18.5474 2.07163C20.3546 1.84021 22.1842 2.27455 23.6946 3.29354C25.0963 4.23923 26.1341 5.62846 26.6455 7.23221L29.554 9.16743C29.8325 9.35274 29.9999 9.66502 30 9.99953C30.0002 10.334 29.833 10.6465 29.5547 10.832L27 12.5352V15C27 18.4478 25.6304 21.7544 23.1924 24.1924C20.7544 26.6303 17.4478 28 14 28H1.00001C0.615604 28 0.265226 27.7796 0.0987061 27.4332C-0.0678138 27.0867 -0.0209954 26.6755 0.219141 26.3753L12 11.6492L12 9.4983C12.0031 7.67634 12.6692 5.91779 13.8741 4.5511C15.079 3.18441 16.7402 2.30305 18.5474 2.07163Z" clip-rule="evenodd"/></svg>