<svg width="32" height="32" viewBox="0 0 32 32" fill="none" xmlns="http://www.w3.org/2000/svg">
<path fill-rule="evenodd" clip-rule="evenodd" d="M16 2C16.5523 2 17 2.44772 17 3V6C17 6.55228 16.5523 7 16 7C15.4477 7 15 6.55228 15 6V3C15 2.44772 15.4477 2 16 2Z" fill="black"/>
<path fill-rule="evenodd" clip-rule="evenodd" d="M15.9861 12.0546L5 15.7249L5 19.8553C5.83856 22.6009 8.10101 24.5374 10.493 25.8591C12.9034 27.1909 15.2876 27.8093 16 27.9756C16.7124 27.8093 19.0966 27.1909 21.507 25.8591C23.899 24.5374 26.1614 22.6009 27 19.8553V15.725L26.9956 15.7235L16.0139 12.0546C16.0047 12.0525 15.9953 12.0525 15.9861 12.0546ZM15.3934 10.1442C15.7886 10.0226 16.2114 10.0226 16.6066 10.1442L16.6294 10.1515L27.625 13.8251C27.6258 13.8254 27.6266 13.8256 27.6275 13.8259C28.0265 13.9577 28.3738 14.2119 28.6202 14.5524C28.8671 14.8935 29 15.3039 29 15.725C29 15.725 29 15.725 29 15.725V20C29 20.0931 28.987 20.1857 28.9614 20.2752C27.9422 23.8354 25.1008 26.1584 22.4742 27.6097C19.8399 29.0652 17.2602 29.7349 16.4604 29.9219C16.158 29.9969 15.842 29.9969 15.5396 29.9219C14.7398 29.7349 12.1601 29.0652 9.52575 27.6097C6.89923 26.1584 4.0578 23.8354 3.03862 20.2752C3.013 20.1857 3 20.0931 3 20V15.7251C3 15.7251 3 15.7251 3 15.7251C2.99998 15.304 3.13288 14.8935 3.37977 14.5524C3.62614 14.2119 3.97348 13.9578 4.37246 13.8259C4.3733 13.8256 4.37415 13.8254 4.375 13.8251L15.3706 10.1515L15.3934 10.1442Z" fill="black"/>
<path fill-rule="evenodd" clip-rule="evenodd" d="M16 10.05C16.5523 10.05 17 10.4977 17 11.05V21C17 21.5523 16.5523 22 16 22C15.4477 22 15 21.5523 15 21V11.05C15 10.4977 15.4477 10.05 16 10.05Z" fill="black"/>
<path fill-rule="evenodd" clip-rule="evenodd" d="M6.58579 5.58579C6.96086 5.21071 7.46957 5 8 5H24C24.5304 5 25.0391 5.21071 25.4142 5.58579C25.7893 5.96086 26 6.46957 26 7V14C26 14.5523 25.5523 15 25 15C24.4477 15 24 14.5523 24 14V7L8 7L8 14C8 14.5523 7.55228 15 7 15C6.44772 15 6 14.5523 6 14V7C6 6.46957 6.21071 5.96086 6.58579 5.58579Z" fill="black"/>
</svg>
