<svg width="32" height="32" viewBox="0 0 32 32" fill="none" xmlns="http://www.w3.org/2000/svg">
<path fill-rule="evenodd" clip-rule="evenodd" d="M14 3C14.5523 3 15 3.44772 15 4V14L17.4 12.2C17.7556 11.9333 18.2444 11.9333 18.6 12.2L21 14V4C21 3.44772 21.4477 3 22 3C22.5523 3 23 3.44772 23 4V16C23 16.3788 22.786 16.725 22.4472 16.8944C22.1084 17.0638 21.703 17.0273 21.4 16.8L18 14.25L14.6 16.8C14.297 17.0273 13.8916 17.0638 13.5528 16.8944C13.214 16.725 13 16.3788 13 16V4C13 3.44772 13.4477 3 14 3Z" fill="black"/>
<path fill-rule="evenodd" clip-rule="evenodd" d="M9.00195 3H26C26.5523 3 27 3.44772 27 4V24C27 24.5523 26.5523 25 26 25H9L8.9958 25C8.7334 24.9989 8.47338 25.0498 8.23074 25.1497C7.9881 25.2496 7.76764 25.3966 7.58209 25.5821C7.39655 25.7676 7.24958 25.9881 7.14967 26.2307C7.05211 26.4677 7.00131 26.7212 7 26.9773V27C7 27.5515 6.55356 27.9988 6.00209 28C5.45063 28.0012 5.00232 27.5557 5 27.0042C4.99996 26.9938 4.99996 26.9834 5 26.973V7.00195M7 23.5306C7.15088 23.4438 7.30761 23.3669 7.46925 23.3003C7.9553 23.1002 8.47611 22.9981 9.00174 23C9.00255 23 9.00337 23 9.00419 23L9 24V23H9.00174H25V24H26V23H25V5H26V4H25V5H8.9958C8.7334 4.9989 8.47338 5.04976 8.23074 5.14967C7.9881 5.24958 7.76764 5.39655 7.58209 5.5821C7.39655 5.76765 7.24958 5.9881 7.14967 6.23074C7.04976 6.47338 6.99889 6.7334 6.99999 6.99581L7 7L7 23.5306Z" fill="black"/>
<path fill-rule="evenodd" clip-rule="evenodd" d="M6 26C6.55228 26 7 26.4477 7 27H24C24.5523 27 25 27.4477 25 28C25 28.5523 24.5523 29 24 29H6C5.44772 29 5 28.5523 5 28V27C5 26.4477 5.44772 26 6 26Z" fill="black"/>
</svg>
