<svg width="32" height="32" viewBox="0 0 32 32" fill="none" xmlns="http://www.w3.org/2000/svg">
<path fill-rule="evenodd" clip-rule="evenodd" d="M4 6C4 4.89543 4.89543 4 6 4H10C11.1046 4 12 4.89543 12 6V26C12 27.1046 11.1046 28 10 28H6C4.89543 28 4 27.1046 4 26V6ZM10 6H6V26H10V6Z" fill="black"/>
<path fill-rule="evenodd" clip-rule="evenodd" d="M4 10C4 9.44772 4.44772 9 5 9H11C11.5523 9 12 9.44772 12 10C12 10.5523 11.5523 11 11 11H5C4.44772 11 4 10.5523 4 10Z" fill="black"/>
<path fill-rule="evenodd" clip-rule="evenodd" d="M10 6C10 4.89543 10.8954 4 12 4H16C17.1046 4 18 4.89543 18 6V26C18 27.1046 17.1046 28 16 28H12C10.8954 28 10 27.1046 10 26V6ZM16 6H12V26H16V6Z" fill="black"/>
<path fill-rule="evenodd" clip-rule="evenodd" d="M10 22C10 21.4477 10.4477 21 11 21H17C17.5523 21 18 21.4477 18 22C18 22.5523 17.5523 23 17 23H11C10.4477 23 10 22.5523 10 22Z" fill="black"/>
<path fill-rule="evenodd" clip-rule="evenodd" d="M16.382 7.20276C16.0948 6.13132 16.7306 5.02994 17.802 4.74276L21.682 3.70276C22.7534 3.41557 23.8548 4.05132 24.142 5.12276L29.342 24.5228C29.6292 25.5942 28.9934 26.6956 27.922 26.9828L24.042 28.0228C22.9706 28.3099 21.8692 27.6742 21.582 26.6028L16.382 7.20276ZM22.202 5.64276L18.322 6.68276L23.522 26.0828L27.402 25.0428L22.202 5.64276Z" fill="black"/>
<path fill-rule="evenodd" clip-rule="evenodd" d="M28.1656 20.5774C28.3092 21.1107 27.9934 21.6594 27.4601 21.8031L21.6601 23.3656C21.1268 23.5093 20.5781 23.1934 20.4344 22.6602C20.2908 22.1269 20.6066 21.5781 21.1399 21.4345L26.9399 19.872C27.4731 19.7283 28.0219 20.0441 28.1656 20.5774Z" fill="black"/>
<path fill-rule="evenodd" clip-rule="evenodd" d="M25.0661 8.99182C25.2087 9.52538 24.8917 10.0735 24.3582 10.2161L18.5582 11.7661C18.0246 11.9087 17.4765 11.5917 17.3339 11.0582C17.1913 10.5246 17.5083 9.9765 18.0418 9.83391L23.8418 8.28391C24.3754 8.14132 24.9235 8.45826 25.0661 8.99182Z" fill="black"/>
</svg>
