<svg width="32" height="32" viewBox="0 0 32 32" fill="none" xmlns="http://www.w3.org/2000/svg">
<path fill-rule="evenodd" clip-rule="evenodd" d="M10.5369 4.15634C11.0028 4.45285 11.1402 5.07094 10.8437 5.53688L4.18531 16L10.8437 26.4631C11.1402 26.9291 11.0028 27.5472 10.5369 27.8437C10.0709 28.1402 9.45285 28.0028 9.15634 27.5369L2.15634 16.5369C1.94789 16.2093 1.94789 15.7907 2.15634 15.4631L9.15634 4.46313C9.45285 3.99719 10.0709 3.85983 10.5369 4.15634Z" fill="black"/>
<path fill-rule="evenodd" clip-rule="evenodd" d="M21.4631 4.15634C21.9291 3.85983 22.5472 3.99719 22.8437 4.46313L29.8437 15.4631C30.0521 15.7907 30.0521 16.2093 29.8437 16.5369L22.8437 27.5369C22.5472 28.0028 21.9291 28.1402 21.4631 27.8437C20.9972 27.5472 20.8598 26.9291 21.1563 26.4631L27.8147 16L21.1563 5.53688C20.8598 5.07094 20.9972 4.45285 21.4631 4.15634Z" fill="black"/>
</svg>
