<svg width="32" height="32" viewBox="0 0 32 32" fill="none" xmlns="http://www.w3.org/2000/svg">
<path fill-rule="evenodd" clip-rule="evenodd" d="M3 10C3 8.89543 3.89543 8 5 8H27C28.1046 8 29 8.89543 29 10V26C29 27.1046 28.1046 28 27 28H5C3.89543 28 3 27.1046 3 26V10ZM27 10H5V26H27V10Z" fill="black"/>
<path fill-rule="evenodd" clip-rule="evenodd" d="M10.8787 4.87868C11.4413 4.31607 12.2044 4 13 4H19C19.7956 4 20.5587 4.31607 21.1213 4.87868C21.6839 5.44129 22 6.20435 22 7V9C22 9.55228 21.5523 10 21 10C20.4477 10 20 9.55228 20 9V7C20 6.73478 19.8946 6.48043 19.7071 6.29289C19.5196 6.10536 19.2652 6 19 6H13C12.7348 6 12.4804 6.10536 12.2929 6.29289C12.1054 6.48043 12 6.73478 12 7V9C12 9.55228 11.5523 10 11 10C10.4477 10 10 9.55228 10 9V7C10 6.20435 10.3161 5.44129 10.8787 4.87868Z" fill="black"/>
<path fill-rule="evenodd" clip-rule="evenodd" d="M28.8656 15.2868C29.1421 15.7649 28.9787 16.3766 28.5006 16.6531C24.7015 18.8503 20.3894 20.0049 16.0006 20C11.6102 20.0111 7.29563 18.8558 3.49812 16.6524C3.02042 16.3753 2.85786 15.7633 3.13504 15.2856C3.41221 14.8079 4.02415 14.6454 4.50185 14.9225C7.99346 16.9485 11.9606 18.0105 15.9974 18L16.0012 18C20.0381 18.0048 24.0047 16.9429 27.4993 14.9218C27.9774 14.6453 28.5891 14.8088 28.8656 15.2868Z" fill="black"/>
<path fill-rule="evenodd" clip-rule="evenodd" d="M13.5 15C13.5 14.4477 13.9477 14 14.5 14H17.5C18.0523 14 18.5 14.4477 18.5 15C18.5 15.5523 18.0523 16 17.5 16H14.5C13.9477 16 13.5 15.5523 13.5 15Z" fill="black"/>
</svg>
