<svg width="32" height="32" viewBox="0 0 32 32" fill="none" xmlns="http://www.w3.org/2000/svg">
<path fill-rule="evenodd" clip-rule="evenodd" d="M3 10C3 8.89543 3.89543 8 5 8H27C28.1046 8 29 8.89543 29 10V26C29 27.1046 28.1046 28 27 28H5C3.89543 28 3 27.1046 3 26V10ZM27 10H5V26H27V10Z" fill="black"/>
<path fill-rule="evenodd" clip-rule="evenodd" d="M10.8787 4.87868C11.4413 4.31607 12.2044 4 13 4H19C19.7956 4 20.5587 4.31607 21.1213 4.87868C21.6839 5.44129 22 6.20435 22 7V9C22 9.55228 21.5523 10 21 10C20.4477 10 20 9.55228 20 9V7C20 6.73478 19.8946 6.48043 19.7071 6.29289C19.5196 6.10536 19.2652 6 19 6H13C12.7348 6 12.4804 6.10536 12.2929 6.29289C12.1054 6.48043 12 6.73478 12 7V9C12 9.55228 11.5523 10 11 10C10.4477 10 10 9.55228 10 9V7C10 6.20435 10.3161 5.44129 10.8787 4.87868Z" fill="black"/>
<path fill-rule="evenodd" clip-rule="evenodd" d="M3 22C3 21.4477 3.44772 21 4 21H28C28.5523 21 29 21.4477 29 22C29 22.5523 28.5523 23 28 23H4C3.44772 23 3 22.5523 3 22Z" fill="black"/>
<path fill-rule="evenodd" clip-rule="evenodd" d="M3 14C3 13.4477 3.44772 13 4 13H28C28.5523 13 29 13.4477 29 14C29 14.5523 28.5523 15 28 15H4C3.44772 15 3 14.5523 3 14Z" fill="black"/>
</svg>
