<svg xmlns="http://www.w3.org/2000/svg" width="32" height="32" fill="none" viewBox="0 0 32 32"><path fill="#000" fill-rule="evenodd" d="M16 13C14.3431 13 13 14.3431 13 16C13 17.6569 14.3431 19 16 19C17.6569 19 19 17.6569 19 16C19 14.3431 17.6569 13 16 13ZM11 16C11 13.2386 13.2386 11 16 11C18.7614 11 21 13.2386 21 16C21 18.7614 18.7614 21 16 21C13.2386 21 11 18.7614 11 16Z" clip-rule="evenodd"/><path fill="#000" fill-rule="evenodd" d="M10.345 8.93073C10.7353 9.32147 10.7349 9.95464 10.3442 10.3449C9.61475 11.0736 9.03399 11.9372 8.63429 12.8876L8.63286 12.891L8.63286 12.891C8.21508 13.8743 7.99976 14.9316 7.99976 16C7.99976 17.0683 8.21508 18.1256 8.63286 19.1089L8.6343 19.1123C9.03399 20.0627 9.61475 20.9263 10.3442 21.655C10.7349 22.0453 10.7353 22.6784 10.345 23.0692C9.95468 23.4599 9.32152 23.4603 8.93078 23.0699C8.01824 22.1584 7.29164 21.0782 6.79141 19.8893C6.269 18.6592 5.99976 17.3364 5.99976 16C5.99976 14.6635 6.269 13.3407 6.79141 12.1106C7.29163 10.9217 8.01824 9.84149 8.93078 8.92995C9.32152 8.53965 9.95468 8.53999 10.345 8.93073Z" clip-rule="evenodd"/><path fill="#000" fill-rule="evenodd" d="M21.655 8.93073C22.0453 8.53999 22.6785 8.53965 23.0692 8.92995C23.9817 9.84149 24.7083 10.9217 25.2086 12.1106C25.731 13.3407 26.0002 14.6635 26.0002 16C26.0002 17.3364 25.731 18.6592 25.2086 19.8894C24.7083 21.0782 23.9817 22.1584 23.0692 23.0699C22.6785 23.4603 22.0453 23.4599 21.655 23.0692C21.2647 22.6784 21.265 22.0453 21.6558 21.655C22.3852 20.9263 22.966 20.0627 23.3657 19.1123L23.3671 19.1089C23.7849 18.1256 24.0002 17.0683 24.0002 16C24.0002 14.9316 23.7849 13.8743 23.3671 12.891L23.3657 12.8876L23.3657 12.8876C22.966 11.9372 22.3852 11.0736 21.6558 10.3449C21.265 9.95464 21.2647 9.32147 21.655 8.93073Z" clip-rule="evenodd"/><path fill="#000" fill-rule="evenodd" d="M6.80646 5.39222C7.19734 5.78238 7.19793 6.41555 6.80776 6.80643C5.62312 7.99326 4.67711 9.39629 4.02103 10.9395C3.34707 12.5415 2.99991 14.262 2.99991 16C2.99991 17.738 3.34707 19.4584 4.02101 21.0604C4.6771 22.6036 5.6231 24.0067 6.80776 25.1935C7.19793 25.5844 7.19734 26.2176 6.80646 26.6077C6.41558 26.9979 5.78241 26.9973 5.39225 26.6064C4.02644 25.2381 2.93586 23.6204 2.17967 21.8411L2.1783 21.8379L2.1783 21.8379C1.40055 19.9898 0.999908 18.005 0.999908 16C0.999908 13.9949 1.40055 12.0101 2.1783 10.1621L2.17967 10.1588L2.17967 10.1588C2.93586 8.37953 4.02644 6.76185 5.39225 5.39352C5.78241 5.00264 6.41558 5.00205 6.80646 5.39222Z" clip-rule="evenodd"/><path fill="#000" fill-rule="evenodd" d="M25.1935 5.39222C25.5844 5.00205 26.2176 5.00264 26.6078 5.39352C27.9736 6.76185 29.0641 8.37953 29.8203 10.1588L29.8217 10.1621L29.8217 10.1621C30.5994 12.0101 31.0001 13.9949 31.0001 16C31.0001 18.005 30.5994 19.9898 29.8217 21.8379L29.8203 21.8411C29.0641 23.6204 27.9736 25.2381 26.6078 26.6064C26.2176 26.9973 25.5844 26.9979 25.1935 26.6077C24.8027 26.2176 24.8021 25.5844 25.1922 25.1935C26.3769 24.0067 27.3229 22.6036 27.979 21.0604C28.6529 19.4584 29.0001 17.738 29.0001 16C29.0001 14.262 28.6529 12.5415 27.979 10.9395C27.3229 9.39629 26.3769 7.99326 25.1922 6.80643C24.8021 6.41555 24.8027 5.78238 25.1935 5.39222Z" clip-rule="evenodd"/></svg>