<svg width="32" height="32" viewBox="0 0 32 32" fill="none" xmlns="http://www.w3.org/2000/svg">
<path d="M19.5 13C20.3284 13 21 12.3284 21 11.5C21 10.6716 20.3284 10 19.5 10C18.6716 10 18 10.6716 18 11.5C18 12.3284 18.6716 13 19.5 13Z" fill="black"/>
<path d="M12.5 13C13.3284 13 14 12.3284 14 11.5C14 10.6716 13.3284 10 12.5 10C11.6716 10 11 10.6716 11 11.5C11 12.3284 11.6716 13 12.5 13Z" fill="black"/>
<path fill-rule="evenodd" clip-rule="evenodd" d="M16 15C16.5523 15 17 15.4477 17 16V28C17 28.5523 16.5523 29 16 29C15.4477 29 15 28.5523 15 28V16C15 15.4477 15.4477 15 16 15Z" fill="black"/>
<path fill-rule="evenodd" clip-rule="evenodd" d="M0.5 16C0.5 15.4477 0.947715 15 1.5 15H30.5C31.0523 15 31.5 15.4477 31.5 16C31.5 16.5523 31.0523 17 30.5 17H1.5C0.947715 17 0.5 16.5523 0.5 16Z" fill="black"/>
<path fill-rule="evenodd" clip-rule="evenodd" d="M16 5C13.6131 5 11.3239 5.94821 9.63604 7.63604C7.94821 9.32387 7 11.6131 7 14V18C7 20.3869 7.94821 22.6761 9.63604 24.364C11.3239 26.0518 13.6131 27 16 27C18.3869 27 20.6761 26.0518 22.364 24.364C24.0518 22.6761 25 20.3869 25 18V14C25 11.6131 24.0518 9.32387 22.364 7.63604C20.6761 5.94821 18.3869 5 16 5ZM8.22183 6.22183C10.2847 4.15893 13.0826 3 16 3C18.9174 3 21.7153 4.15893 23.7782 6.22183C25.8411 8.28473 27 11.0826 27 14V18C27 20.9174 25.8411 23.7153 23.7782 25.7782C21.7153 27.8411 18.9174 29 16 29C13.0826 29 10.2847 27.8411 8.22183 25.7782C6.15893 23.7153 5 20.9174 5 18V14C5 11.0826 6.15893 8.28473 8.22183 6.22183Z" fill="black"/>
<path fill-rule="evenodd" clip-rule="evenodd" d="M24.5344 20.9243C24.8109 20.4462 25.4226 20.2829 25.9007 20.5594L29.4882 22.6344C29.9663 22.9109 30.1297 23.5226 29.8531 24.0007C29.5766 24.4788 28.9649 24.6422 28.4868 24.3656L24.8993 22.2906C24.4213 22.0141 24.2579 21.4024 24.5344 20.9243Z" fill="black"/>
<path fill-rule="evenodd" clip-rule="evenodd" d="M29.8531 7.99933C30.1297 8.47741 29.9663 9.08913 29.4882 9.36565L25.9007 11.4406C25.4226 11.7172 24.8109 11.5538 24.5344 11.0757C24.2579 10.5976 24.4213 9.9859 24.8993 9.70938L28.4868 7.63438C28.9649 7.35786 29.5766 7.52126 29.8531 7.99933Z" fill="black"/>
<path fill-rule="evenodd" clip-rule="evenodd" d="M2.14686 7.99933C2.42338 7.52126 3.0351 7.35786 3.51317 7.63438L7.10068 9.70938C7.57875 9.9859 7.74215 10.5976 7.46563 11.0757C7.18911 11.5538 6.57739 11.7172 6.09932 11.4406L2.51182 9.36565C2.03374 9.08913 1.87034 8.47741 2.14686 7.99933Z" fill="black"/>
<path fill-rule="evenodd" clip-rule="evenodd" d="M7.46563 20.9243C7.74215 21.4024 7.57875 22.0141 7.10068 22.2906L3.51318 24.3656C3.0351 24.6422 2.42338 24.4788 2.14686 24.0007C1.87034 23.5226 2.03374 22.9109 2.51182 22.6344L6.09932 20.5594C6.57739 20.2829 7.18911 20.4462 7.46563 20.9243Z" fill="black"/>
</svg>
