<svg xmlns="http://www.w3.org/2000/svg" width="32" height="32" fill="none" viewBox="0 0 32 32"><path fill="#000" fill-rule="evenodd" d="M16 5C11.5817 5 8 8.58172 8 13V19C8 23.4183 11.5817 27 16 27C20.4183 27 24 23.4183 24 19V13C24 8.58172 20.4183 5 16 5ZM6 13C6 7.47715 10.4772 3 16 3C21.5228 3 26 7.47715 26 13V19C26 24.5228 21.5228 29 16 29C10.4772 29 6 24.5228 6 19V13Z" clip-rule="evenodd"/><path fill="#000" fill-rule="evenodd" d="M24 17C24 16.4477 24.4477 16 25 16H28C28.5523 16 29 16.4477 29 17C29 17.5523 28.5523 18 28 18H25C24.4477 18 24 17.5523 24 17Z" clip-rule="evenodd"/><path fill="#000" fill-rule="evenodd" d="M3 17C3 16.4477 3.44772 16 4 16H7C7.55228 16 8 16.4477 8 17C8 17.5523 7.55228 18 7 18H4C3.44772 18 3 17.5523 3 17Z" clip-rule="evenodd"/><path fill="#000" fill-rule="evenodd" d="M3 21C3 20.4477 3.44772 20 4 20H7.225C7.77728 20 8.225 20.4477 8.225 21C8.225 21.5523 7.77728 22 7.225 22H4C3.44772 22 3 21.5523 3 21Z" clip-rule="evenodd"/><path fill="#000" fill-rule="evenodd" d="M3 13C3 12.4477 3.44772 12 4 12H28C28.5523 12 29 12.4477 29 13C29 13.5523 28.5523 14 28 14H4C3.44772 14 3 13.5523 3 13Z" clip-rule="evenodd"/><path fill="#000" fill-rule="evenodd" d="M16 16C16.5523 16 17 16.4477 17 17V28C17 28.5523 16.5523 29 16 29C15.4477 29 15 28.5523 15 28V17C15 16.4477 15.4477 16 16 16Z" clip-rule="evenodd"/><path fill="#000" fill-rule="evenodd" d="M23.775 21C23.775 20.4477 24.2227 20 24.775 20H28C28.5523 20 29 20.4477 29 21C29 21.5523 28.5523 22 28 22H24.775C24.2227 22 23.775 21.5523 23.775 21Z" clip-rule="evenodd"/><path fill="#000" fill-rule="evenodd" d="M6.26235 2.81141C6.64265 2.41092 7.2756 2.39455 7.67609 2.77485L10.6511 5.59985C11.0516 5.98015 11.068 6.6131 10.6877 7.01359C10.3074 7.41408 9.67441 7.43045 9.27392 7.05015L6.29892 4.22515C5.89843 3.84486 5.88206 3.2119 6.26235 2.81141Z" clip-rule="evenodd"/><path fill="#000" fill-rule="evenodd" d="M25.7127 2.81149C26.093 3.21203 26.0765 3.84498 25.676 4.22523L22.7135 7.03773C22.313 7.41798 21.68 7.40154 21.2998 7.00101C20.9195 6.60048 20.936 5.96753 21.3365 5.58727L24.299 2.77477C24.6995 2.39452 25.3325 2.41096 25.7127 2.81149Z" clip-rule="evenodd"/></svg>