<svg width="32" height="32" viewBox="0 0 32 32" fill="none" xmlns="http://www.w3.org/2000/svg">
<path fill-rule="evenodd" clip-rule="evenodd" d="M16 4.5C13.6131 4.5 11.3239 5.44821 9.63604 7.13604C7.94821 8.82387 7 11.1131 7 13.5V18.5C7 20.8869 7.94821 23.1761 9.63604 24.864C11.3239 26.5518 13.6131 27.5 16 27.5C18.3869 27.5 20.6761 26.5518 22.364 24.864C24.0518 23.1761 25 20.8869 25 18.5V13.5C25 11.1131 24.0518 8.82387 22.364 7.13604C20.6761 5.44821 18.3869 4.5 16 4.5ZM8.22183 5.72183C10.2847 3.65893 13.0826 2.5 16 2.5C18.9174 2.5 21.7153 3.65893 23.7782 5.72183C25.8411 7.78473 27 10.5826 27 13.5V18.5C27 21.4174 25.8411 24.2153 23.7782 26.2782C21.7153 28.3411 18.9174 29.5 16 29.5C13.0826 29.5 10.2847 28.3411 8.22183 26.2782C6.15893 24.2153 5 21.4174 5 18.5V13.5C5 10.5826 6.15893 7.78473 8.22183 5.72183Z" fill="black"/>
<path fill-rule="evenodd" clip-rule="evenodd" d="M5 16C5 15.4477 5.44772 15 6 15H26C26.5523 15 27 15.4477 27 16C27 16.5523 26.5523 17 26 17H6C5.44772 17 5 16.5523 5 16Z" fill="black"/>
<path d="M19.5 13C20.3284 13 21 12.3284 21 11.5C21 10.6716 20.3284 10 19.5 10C18.6716 10 18 10.6716 18 11.5C18 12.3284 18.6716 13 19.5 13Z" fill="black"/>
<path d="M12.5 13C13.3284 13 14 12.3284 14 11.5C14 10.6716 13.3284 10 12.5 10C11.6716 10 11 10.6716 11 11.5C11 12.3284 11.6716 13 12.5 13Z" fill="black"/>
<path fill-rule="evenodd" clip-rule="evenodd" d="M6.26811 2.81859C6.64445 2.41437 7.27721 2.39177 7.68142 2.76811L10.2189 5.13061C10.6231 5.50695 10.6457 6.13971 10.2694 6.54392C9.89306 6.94814 9.2603 6.97074 8.85609 6.5944L6.31859 4.2319C5.91437 3.85556 5.89177 3.2228 6.26811 2.81859Z" fill="black"/>
<path fill-rule="evenodd" clip-rule="evenodd" d="M25.7319 2.81859C26.1082 3.2228 26.0856 3.85556 25.6814 4.2319L23.1439 6.5944C22.7397 6.97074 22.1069 6.94814 21.7306 6.54392C21.3543 6.13971 21.3769 5.50695 21.7811 5.13061L24.3186 2.76811C24.7228 2.39177 25.3556 2.41437 25.7319 2.81859Z" fill="black"/>
</svg>
