<svg width="32" height="32" viewBox="0 0 32 32" fill="none" xmlns="http://www.w3.org/2000/svg">
<path fill-rule="evenodd" clip-rule="evenodd" d="M16 6C16.5523 6 17 6.44772 17 7V22.5C17 23.0523 16.5523 23.5 16 23.5C15.4477 23.5 15 23.0523 15 22.5V7C15 6.44772 15.4477 6 16 6Z" fill="black"/>
<path fill-rule="evenodd" clip-rule="evenodd" d="M3.15202 6.2002C3.82337 5.40174 4.79765 5 6.00004 5C7.20389 5 8.48489 5.45936 9.67981 6.12703C10.8894 6.80292 12.0901 7.73643 13.1526 8.78987C14.215 9.84325 15.1631 11.0401 15.8513 12.258C15.9021 12.3479 15.9517 12.4383 16 12.5292C16.0484 12.4383 16.098 12.3479 16.1488 12.258C16.837 11.0401 17.7851 9.84325 18.8475 8.78987C19.91 7.73643 21.1106 6.80292 22.3203 6.12703C23.5152 5.45936 24.7962 5 26 5C27.21 5 28.1843 5.41418 28.8511 6.22387C29.4813 6.9891 29.7339 7.9852 29.811 8.9636C29.9645 10.9106 29.4554 13.3078 28.97 15.2433C28.4268 17.4091 27.3757 18.6767 26.2047 19.364C25.0646 20.0331 23.9353 20.079 23.337 20.0487C22.7854 20.0208 22.3609 19.551 22.3888 18.9994C22.4167 18.4479 22.8865 18.0234 23.4381 18.0513C23.8273 18.071 24.5167 18.0356 25.1923 17.6391C25.8369 17.2608 26.5983 16.4784 27.0301 14.7567C27.5197 12.8047 27.9418 10.7019 27.8172 9.12077C27.7553 8.33511 27.5665 7.81012 27.3072 7.49527C27.0845 7.22488 26.7213 7 26 7C25.2726 7 24.338 7.29064 23.2958 7.87297C22.2683 8.44708 21.2104 9.26357 20.2557 10.2101C19.3009 11.1567 18.4732 12.2099 17.89 13.242C17.2994 14.2871 17 15.2382 17 16C17 16.5523 16.5523 17 16 17C15.4478 17 15 16.5523 15 16C15 15.2382 14.7007 14.2871 14.1101 13.242C13.5269 12.2099 12.6992 11.1567 11.7444 10.2101C10.7897 9.26357 9.73174 8.44708 8.70426 7.87297C7.66206 7.29064 6.72744 7 6.00004 7C5.27119 7 4.90483 7.22326 4.68282 7.4873C4.42579 7.793 4.23637 8.30493 4.17332 9.08098C4.04616 10.646 4.46737 12.7462 4.97018 14.7575C5.41664 16.5433 6.18084 17.3164 6.80841 17.6762C7.46841 18.0547 8.14321 18.0725 8.56197 18.0513C9.11355 18.0234 9.58333 18.4479 9.61126 18.9994C9.63919 19.551 9.21469 20.0208 8.66311 20.0487C8.09437 20.0775 6.96293 20.0703 5.81355 19.4113C4.63174 18.7336 3.58344 17.4567 3.0299 15.2425C2.53271 13.2538 2.02267 10.854 2.17989 8.91902C2.25902 7.94507 2.5157 6.957 3.15202 6.2002Z" fill="black"/>
<path fill-rule="evenodd" clip-rule="evenodd" d="M11.9938 17.9139C12.0552 18.4627 11.66 18.9574 11.1111 19.0188C10.4397 19.0939 9.80444 19.3616 9.28187 19.7897C8.75931 20.2179 8.37181 20.7881 8.16614 21.4316C7.96048 22.0751 7.94543 22.7643 8.12282 23.4162C8.30021 24.068 8.66245 24.6546 9.16584 25.1051C9.66922 25.5557 10.2922 25.8509 10.9597 25.9552C11.6271 26.0595 12.3105 25.9684 12.9273 25.6929C13.5442 25.4174 14.0681 24.9692 14.4359 24.4026C14.8036 23.8359 14.9996 23.1749 15 22.4994C15.0004 21.9473 15.448 21.5 16 21.5C16.552 21.5 16.9996 21.9473 17 22.4994C17.0004 23.1749 17.1964 23.8359 17.5641 24.4026C17.9319 24.9692 18.4558 25.4174 19.0727 25.6929C19.6895 25.9684 20.3729 26.0595 21.0403 25.9552C21.7078 25.8509 22.3308 25.5557 22.8342 25.1051C23.3375 24.6546 23.6998 24.068 23.8772 23.4162C24.0546 22.7643 24.0395 22.0751 23.8339 21.4316C23.6282 20.7881 23.2407 20.2179 22.7181 19.7897C22.1956 19.3616 21.5603 19.0939 20.8889 19.0188C20.34 18.9574 19.9448 18.4627 20.0062 17.9139C20.0676 17.365 20.5622 16.9698 21.1111 17.0312C22.1661 17.1491 23.1645 17.5699 23.9856 18.2427C24.8068 18.9155 25.4157 19.8115 25.7389 20.8227C26.0621 21.8339 26.0858 22.917 25.807 23.9413C25.5282 24.9657 24.959 25.8874 24.168 26.5954C23.3769 27.3034 22.3979 27.7673 21.3491 27.9312C20.3002 28.0951 19.2263 27.9519 18.257 27.519C17.3495 27.1137 16.57 26.4706 16 25.6594C15.43 26.4706 14.6505 27.1137 13.743 27.519C12.7737 27.9519 11.6998 28.0951 10.6509 27.9312C9.60208 27.7673 8.62306 27.3034 7.83203 26.5954C7.041 25.8874 6.47175 24.9657 6.193 23.9413C5.91424 22.917 5.93789 21.8339 6.26108 20.8227C6.58427 19.8115 7.19319 18.9155 8.01437 18.2427C8.83555 17.5699 9.83388 17.1491 10.8889 17.0312C11.4378 16.9698 11.9324 17.365 11.9938 17.9139Z" fill="black"/>
</svg>
