<svg width="32" height="32" viewBox="0 0 32 32" fill="none" xmlns="http://www.w3.org/2000/svg">
<path fill-rule="evenodd" clip-rule="evenodd" d="M3.51501 2.25991C3.92376 1.8885 4.5562 1.91876 4.92761 2.32751L28.5526 28.3275C28.924 28.7363 28.8937 29.3687 28.485 29.7401C28.0763 30.1115 27.4438 30.0812 27.0724 29.6725L3.44741 3.6725C3.076 3.26376 3.10626 2.63132 3.51501 2.25991Z" fill="black"/>
<path fill-rule="evenodd" clip-rule="evenodd" d="M11.1679 4.4453C11.3534 4.1671 11.6656 4 12 4H20C20.3343 4 20.6466 4.1671 20.832 4.4453L22.5352 7H26C26.7956 7 27.5587 7.31607 28.1213 7.87868C28.6839 8.44129 29 9.20435 29 10V23.25C29 23.8023 28.5523 24.25 28 24.25C27.4477 24.25 27 23.8023 27 23.25V10C27 9.73478 26.8946 9.48043 26.7071 9.29289C26.5196 9.10536 26.2652 9 26 9H22C21.6656 9 21.3534 8.8329 21.1679 8.5547L19.4648 6H12.5307C12.2103 6.40119 11.6304 6.49715 11.1953 6.20705C10.7358 5.9007 10.6116 5.27983 10.9179 4.8203L11.1679 4.4453Z" fill="black"/>
<path fill-rule="evenodd" clip-rule="evenodd" d="M6 9C5.73478 9 5.48043 9.10536 5.29289 9.29289C5.10536 9.48043 5 9.73478 5 10V24C5 24.2652 5.10536 24.5196 5.29289 24.7071C5.48043 24.8946 5.73478 25 6 25H25.0875C25.6398 25 26.0875 25.4477 26.0875 26C26.0875 26.5523 25.6398 27 25.0875 27H6C5.20435 27 4.44129 26.6839 3.87868 26.1213C3.31607 25.5587 3 24.7957 3 24V10C3 9.20435 3.31607 8.44129 3.87868 7.87868C4.44129 7.31607 5.20435 7 6 7H8.725C9.27729 7 9.725 7.44772 9.725 8C9.725 8.55228 9.27729 9 8.725 9H6Z" fill="black"/>
<path fill-rule="evenodd" clip-rule="evenodd" d="M14.0065 12.3261C14.3511 12.7578 14.2805 13.387 13.8489 13.7315C13.475 14.0299 13.1663 14.4018 12.9418 14.8242C12.7173 15.2466 12.5818 15.7105 12.5435 16.1873C12.5053 16.6641 12.5652 17.1436 12.7196 17.5964C12.874 18.0491 13.1195 18.4654 13.441 18.8196C13.7625 19.1737 14.1533 19.4582 14.589 19.6555C15.0248 19.8527 15.4964 19.9585 15.9746 19.9664C16.4529 19.9743 16.9277 19.8841 17.3697 19.7013C17.8118 19.5185 18.2117 19.2471 18.5447 18.9038C18.9292 18.5073 19.5623 18.4977 19.9587 18.8822C20.3552 19.2667 20.3648 19.8998 19.9803 20.2962C19.457 20.8358 18.8286 21.2623 18.134 21.5496C17.4393 21.8368 16.6932 21.9786 15.9416 21.9662C15.1901 21.9538 14.449 21.7875 13.7643 21.4775C13.0795 21.1675 12.4655 20.7205 11.9603 20.1639C11.455 19.6074 11.0692 18.9532 10.8266 18.2418C10.584 17.5303 10.4899 16.7767 10.5499 16.0275C10.61 15.2782 10.823 14.5492 11.1758 13.8855C11.5286 13.2217 12.0137 12.6374 12.6011 12.1684C13.0328 11.8239 13.662 11.8945 14.0065 12.3261Z" fill="black"/>
</svg>
