<svg xmlns="http://www.w3.org/2000/svg" width="32" height="32" fill="none" viewBox="0 0 32 32"><path fill="#000" fill-rule="evenodd" d="M3 11C3 9.89543 3.89543 9 5 9H23C24.1046 9 25 9.89543 25 11V25C25 26.1046 24.1046 27 23 27H5C3.89543 27 3 26.1046 3 25V11ZM23 11H5V25H23V11Z" clip-rule="evenodd"/><path fill="#000" fill-rule="evenodd" d="M7 6C7 5.44772 7.44772 5 8 5H27C27.5304 5 28.0391 5.21071 28.4142 5.58579C28.7893 5.96086 29 6.46957 29 7V22C29 22.5523 28.5523 23 28 23C27.4477 23 27 22.5523 27 22V7H8C7.44772 7 7 6.55228 7 6Z" clip-rule="evenodd"/></svg>