<svg xmlns="http://www.w3.org/2000/svg" width="32" height="32" fill="none" viewBox="0 0 32 32"><path fill="#000" fill-rule="evenodd" d="M16 23C16.5523 23 17 23.4477 17 24V28C17 28.5523 16.5523 29 16 29C15.4477 29 15 28.5523 15 28V24C15 23.4477 15.4477 23 16 23Z" clip-rule="evenodd"/><path fill="#000" d="M10.5 19C11.3284 19 12 18.3284 12 17.5C12 16.6716 11.3284 16 10.5 16C9.67157 16 9 16.6716 9 17.5C9 18.3284 9.67157 19 10.5 19Z"/><path fill="#000" d="M21.5 19C22.3284 19 23 18.3284 23 17.5C23 16.6716 22.3284 16 21.5 16C20.6716 16 20 16.6716 20 17.5C20 18.3284 20.6716 19 21.5 19Z"/><path fill="#000" fill-rule="evenodd" d="M16 5C16.5523 5 17 5.44772 17 6V11C17 11.5523 16.5523 12 16 12C15.4477 12 15 11.5523 15 11V6C15 5.44772 15.4477 5 16 5Z" clip-rule="evenodd"/><path fill="#000" fill-rule="evenodd" d="M13.2929 21.2929C13.6834 20.9024 14.3166 20.9024 14.7071 21.2929L16 22.5858L17.2929 21.2929C17.6834 20.9024 18.3166 20.9024 18.7071 21.2929C19.0976 21.6834 19.0976 22.3166 18.7071 22.7071L16.7071 24.7071C16.3166 25.0976 15.6834 25.0976 15.2929 24.7071L13.2929 22.7071C12.9024 22.3166 12.9024 21.6834 13.2929 21.2929Z" clip-rule="evenodd"/><path fill="#000" fill-rule="evenodd" d="M12 5.625C12.5523 5.625 13 6.07272 13 6.625V11C13 11.5523 12.5523 12 12 12C11.4477 12 11 11.5523 11 11V6.625C11 6.07272 11.4477 5.625 12 5.625Z" clip-rule="evenodd"/><path fill="#000" fill-rule="evenodd" d="M20 5.625C20.5523 5.625 21 6.07272 21 6.625V11C21 11.5523 20.5523 12 20 12C19.4477 12 19 11.5523 19 11V6.625C19 6.07272 19.4477 5.625 20 5.625Z" clip-rule="evenodd"/><path fill="#000" fill-rule="evenodd" d="M5.7125 5.71251L5 6.41419L5.7125 5.71251ZM4.24326 4.56288C4.61036 4.41282 5.01378 4.37529 5.40226 4.45506C5.78928 4.53452 6.14405 4.72682 6.42186 5.00766L8.56918 7.15498C10.78 5.73569 13.3606 4.98372 16 4.99999C18.6394 4.98372 21.22 5.73569 23.4308 7.15498L25.5782 5.00757C25.856 4.72679 26.2108 4.53451 26.5977 4.45506C26.9862 4.37529 27.3896 4.41282 27.7567 4.56288C28.1238 4.71293 28.438 4.96874 28.6594 5.29778C28.8808 5.62683 28.9993 6.01426 29 6.41084L29 6.41251L29 17C29 23.7075 23.0935 29 16 29C8.90653 29 3 23.7075 3 17V6.41084C3.00066 6.01426 3.11921 5.62683 3.34059 5.29778C3.56196 4.96874 3.87616 4.71293 4.24326 4.56288ZM23.55 8.45001L22.9574 9.25555C20.944 7.77448 18.5061 6.98336 16.0067 6.99999L15.9933 7.00008C13.4939 6.98344 11.056 7.77448 9.04255 9.25555C8.64451 9.54834 8.0923 9.50652 7.74289 9.15712L5 6.41419L5 17C5 22.4425 9.84347 27 16 27C22.1565 27 27 22.4425 27 17L27 6.41419L26.9946 6.41964L24.2571 9.15712L23.55 8.45001Z" clip-rule="evenodd"/></svg>