<svg width="32" height="32" viewBox="0 0 32 32" fill="none" xmlns="http://www.w3.org/2000/svg">
<path fill-rule="evenodd" clip-rule="evenodd" d="M5.32733 4.26007C5.73599 3.88856 6.36844 3.91868 6.73995 4.32733L26.7399 26.3273C27.1115 26.736 27.0813 27.3684 26.6727 27.7399C26.264 28.1115 25.6316 28.0813 25.2601 27.6727L5.26007 5.67268C4.88856 5.26402 4.91868 4.63157 5.32733 4.26007Z" fill="black"/>
<path fill-rule="evenodd" clip-rule="evenodd" d="M23.5978 3.45506C23.9863 3.37529 24.3897 3.41282 24.7568 3.56288C25.1239 3.71293 25.4381 3.96874 25.6595 4.29778C25.8808 4.62683 25.9994 5.01426 26 5.41084L26.0001 5.41251L26 19.95C26 20.5023 25.5523 20.95 25 20.95C24.4478 20.95 24 20.5023 24 19.95L24.0001 5.41419L23.9947 5.41964L23.9947 5.41962L17.6322 11.7821C17.2416 12.1726 16.6085 12.1726 16.2179 11.7821C15.8274 11.3916 15.8274 10.7584 16.2179 10.3679L22.5782 4.00767C22.856 3.72683 23.2108 3.53452 23.5978 3.45506Z" fill="black"/>
<path fill-rule="evenodd" clip-rule="evenodd" d="M14.8071 13.1929C15.1976 13.5834 15.1976 14.2166 14.8071 14.6071L3.41423 26H26C26.5523 26 27 26.4477 27 27C27 27.5523 26.5523 28 26 28L3.41084 28C3.01426 27.9993 2.62683 27.8808 2.29778 27.6594C1.96874 27.438 1.71293 27.1238 1.56288 26.7567C1.41282 26.3896 1.37529 25.9862 1.45506 25.5977C1.53452 25.2107 1.72683 24.8559 2.00768 24.5781L13.3929 13.1929C13.7834 12.8024 14.4166 12.8024 14.8071 13.1929Z" fill="black"/>
</svg>
