<svg width="32" height="32" viewBox="0 0 32 32" fill="none" xmlns="http://www.w3.org/2000/svg">
<path fill-rule="evenodd" clip-rule="evenodd" d="M20 7C20.5523 7 21 7.44772 21 8V27C21 27.5523 20.5523 28 20 28C19.4477 28 19 27.5523 19 27V8C19 7.44772 19.4477 7 20 7Z" fill="black"/>
<path fill-rule="evenodd" clip-rule="evenodd" d="M23.5978 3.45506C23.9862 3.37529 24.3897 3.41282 24.7568 3.56288C25.1239 3.71293 25.4381 3.96874 25.6594 4.29778C25.8808 4.62683 25.9994 5.01426 26 5.41084L26 5.41251L26 26C26 26.5304 25.7893 27.0392 25.4142 27.4142C25.0392 27.7893 24.5304 28 24 28H3.41251L3.41084 28C3.01426 27.9993 2.62683 27.8808 2.29778 27.6594C1.96874 27.4381 1.71293 27.1239 1.56288 26.7568C1.41282 26.3897 1.37529 25.9862 1.45506 25.5978C1.53451 25.2108 1.7268 24.856 2.00759 24.5782L22.5782 4.00759C22.856 3.72679 23.2108 3.53451 23.5978 3.45506ZM23.9946 5.41962L3.41423 26H24L24 5.41419L23.9946 5.41962Z" fill="black"/>
<path fill-rule="evenodd" clip-rule="evenodd" d="M15 12C15.5523 12 16 12.4477 16 13V27C16 27.5523 15.5523 28 15 28C14.4477 28 14 27.5523 14 27V13C14 12.4477 14.4477 12 15 12Z" fill="black"/>
<path fill-rule="evenodd" clip-rule="evenodd" d="M10 17C10.5523 17 11 17.4477 11 18V27C11 27.5523 10.5523 28 10 28C9.44772 28 9 27.5523 9 27V18C9 17.4477 9.44772 17 10 17Z" fill="black"/>
</svg>
