<svg width="32" height="32" viewBox="0 0 32 32" fill="none" xmlns="http://www.w3.org/2000/svg">
<path fill-rule="evenodd" clip-rule="evenodd" d="M28.7071 12.2929C29.0976 12.6834 29.0976 13.3166 28.7071 13.7071L22.7071 19.7071C22.3166 20.0976 21.6834 20.0976 21.2929 19.7071C20.9024 19.3166 20.9024 18.6834 21.2929 18.2929L27.2929 12.2929C27.6834 11.9024 28.3166 11.9024 28.7071 12.2929Z" fill="black"/>
<path fill-rule="evenodd" clip-rule="evenodd" d="M21.2929 12.2929C21.6834 11.9024 22.3166 11.9024 22.7071 12.2929L28.7071 18.2929C29.0976 18.6834 29.0976 19.3166 28.7071 19.7071C28.3166 20.0976 27.6834 20.0976 27.2929 19.7071L21.2929 13.7071C20.9024 13.3166 20.9024 12.6834 21.2929 12.2929Z" fill="black"/>
<path fill-rule="evenodd" clip-rule="evenodd" d="M23.5978 3.45506C23.9862 3.37529 24.3897 3.41282 24.7568 3.56288C25.1239 3.71293 25.4381 3.96874 25.6594 4.29778C25.8808 4.62683 25.9994 5.01426 26 5.41084L26 5.41251L26 10.3375C26 10.8898 25.5523 11.3375 25 11.3375C24.4477 11.3375 24 10.8898 24 10.3375L24 5.41419L23.9946 5.41964L3.41423 26H24V21.6625C24 21.1102 24.4477 20.6625 25 20.6625C25.5523 20.6625 26 21.1102 26 21.6625V26C26 26.5304 25.7893 27.0392 25.4142 27.4142C25.0392 27.7893 24.5304 28 24 28H3.41251L3.41084 28C3.01426 27.9993 2.62683 27.8808 2.29778 27.6594C1.96874 27.4381 1.71293 27.1239 1.56288 26.7568C1.41282 26.3897 1.37529 25.9862 1.45506 25.5978C1.53451 25.2108 1.7268 24.856 2.00759 24.5782L22.5782 4.00759C22.856 3.72679 23.2108 3.53451 23.5978 3.45506Z" fill="black"/>
</svg>
