<svg width="32" height="32" viewBox="0 0 32 32" fill="none" xmlns="http://www.w3.org/2000/svg">
<path fill-rule="evenodd" clip-rule="evenodd" d="M16 5C9.92487 5 5 9.92487 5 16C5 22.0751 9.92487 27 16 27C22.0751 27 27 22.0751 27 16C27 9.92487 22.0751 5 16 5ZM3 16C3 8.8203 8.8203 3 16 3C23.1797 3 29 8.8203 29 16C29 23.1797 23.1797 29 16 29C8.8203 29 3 23.1797 3 16Z" fill="black"/>
<path fill-rule="evenodd" clip-rule="evenodd" d="M16 3C16.5523 3 17 3.44772 17 4V16C17 16.5523 16.5523 17 16 17C15.4477 17 15 16.5523 15 16V4C15 3.44772 15.4477 3 16 3Z" fill="black"/>
<path fill-rule="evenodd" clip-rule="evenodd" d="M27.2534 9.49984C27.5297 9.97808 27.3659 10.5897 26.8877 10.8659L6.11268 22.8659C5.63444 23.1422 5.02281 22.9784 4.74658 22.5002C4.47034 22.022 4.63409 21.4103 5.11233 21.1341L25.8873 9.13409C26.3656 8.85785 26.9772 9.0216 27.2534 9.49984Z" fill="black"/>
</svg>
