<svg xmlns="http://www.w3.org/2000/svg" width="32" height="32" fill="none" viewBox="0 0 32 32"><path fill="#000" fill-rule="evenodd" d="M16.5 5C13.7152 5 11.0445 6.10625 9.07538 8.07538C7.10625 10.0445 6 12.7152 6 15.5V26H16.5C17.8789 26 19.2443 25.7284 20.5182 25.2007C21.7921 24.6731 22.9496 23.8996 23.9246 22.9246C24.8996 21.9496 25.6731 20.7921 26.2007 19.5182C26.7284 18.2443 27 16.8789 27 15.5C27 14.1211 26.7284 12.7557 26.2007 11.4818C25.6731 10.2079 24.8996 9.05039 23.9246 8.07538C22.9496 7.10036 21.7921 6.32694 20.5182 5.79926C19.2443 5.27159 17.8789 5 16.5 5ZM16.5 28H5.96795C5.71018 28.0024 5.45448 27.9536 5.21563 27.8566C4.97438 27.7585 4.75521 27.6131 4.57106 27.4289C4.38691 27.2448 4.24151 27.0256 4.14345 26.7844C4.04636 26.5455 3.99762 26.2898 4 26.0321V15.5C4 12.1848 5.31696 9.00537 7.66116 6.66116C10.0054 4.31696 13.1848 3 16.5 3C18.1415 3 19.767 3.32332 21.2835 3.95151C22.8001 4.57969 24.1781 5.50043 25.3388 6.66116C26.4996 7.8219 27.4203 9.19989 28.0485 10.7165C28.6767 12.233 29 13.8585 29 15.5C29 17.1415 28.6767 18.767 28.0485 20.2835C27.4203 21.8001 26.4996 23.1781 25.3388 24.3388C24.1781 25.4996 22.8001 26.4203 21.2835 27.0485C19.767 27.6767 18.1415 28 16.5 28Z" clip-rule="evenodd"/><path fill="#000" fill-rule="evenodd" d="M11.5 14C11.5 13.4477 11.9477 13 12.5 13H20C20.5523 13 21 13.4477 21 14C21 14.5523 20.5523 15 20 15H12.5C11.9477 15 11.5 14.5523 11.5 14Z" clip-rule="evenodd"/><path fill="#000" fill-rule="evenodd" d="M11.5 18C11.5 17.4477 11.9477 17 12.5 17H20C20.5523 17 21 17.4477 21 18C21 18.5523 20.5523 19 20 19H12.5C11.9477 19 11.5 18.5523 11.5 18Z" clip-rule="evenodd"/></svg>