<svg width="32" height="32" viewBox="0 0 32 32" fill="none" xmlns="http://www.w3.org/2000/svg">
<path fill-rule="evenodd" clip-rule="evenodd" d="M16.6744 5.0468C14.0032 4.87939 11.3627 5.69277 9.24865 7.33424C7.13461 8.97571 5.69241 11.3324 5.19281 13.9618C4.69321 16.5913 5.17056 19.3127 6.53525 21.6151C6.675 21.8509 6.71185 22.1337 6.63718 22.3974L5.46597 26.534L9.60258 25.3628L9.875 26.325L10.3849 25.4647C12.6873 26.8294 15.4087 27.3068 18.0382 26.8072C20.6676 26.3076 23.0243 24.8654 24.6657 22.7513C26.3072 20.6373 27.1206 17.9968 26.9532 15.3255C26.7858 12.6543 25.6491 10.136 23.7565 8.24345C21.864 6.35089 19.3457 5.2142 16.6744 5.0468ZM9.74412 27.4013C12.3826 28.8478 15.4465 29.3354 18.4115 28.772C21.5196 28.1815 24.3052 26.4768 26.2455 23.9779C28.1857 21.4791 29.1471 18.3579 28.9493 15.2005C28.7514 12.043 27.4078 9.06629 25.1707 6.82923C22.9337 4.59218 19.957 3.24859 16.7995 3.05071C13.642 2.85283 10.5209 3.81427 8.02206 5.75453C5.52322 7.69478 3.8185 10.4804 3.22796 13.5885C2.66461 16.5535 3.15216 19.6173 4.59864 22.2559L3.5388 25.9991C3.44007 26.3399 3.43436 26.7009 3.5223 27.0447C3.61065 27.3901 3.79031 27.7054 4.04242 27.9576C4.29454 28.2097 4.60984 28.3893 4.95526 28.4777C5.29905 28.5656 5.6601 28.5599 6.0009 28.4612L9.74412 27.4013Z" fill="black"/>
<path d="M16 17.5C16.8284 17.5 17.5 16.8284 17.5 16C17.5 15.1716 16.8284 14.5 16 14.5C15.1716 14.5 14.5 15.1716 14.5 16C14.5 16.8284 15.1716 17.5 16 17.5Z" fill="black"/>
<path d="M10 17.5C10.8284 17.5 11.5 16.8284 11.5 16C11.5 15.1716 10.8284 14.5 10 14.5C9.17157 14.5 8.5 15.1716 8.5 16C8.5 16.8284 9.17157 17.5 10 17.5Z" fill="black"/>
<path d="M22 17.5C22.8284 17.5 23.5 16.8284 23.5 16C23.5 15.1716 22.8284 14.5 22 14.5C21.1716 14.5 20.5 15.1716 20.5 16C20.5 16.8284 21.1716 17.5 22 17.5Z" fill="black"/>
</svg>
