<svg width="32" height="32" viewBox="0 0 32 32" fill="none" xmlns="http://www.w3.org/2000/svg">
<path fill-rule="evenodd" clip-rule="evenodd" d="M3.58579 6.58579C3.96086 6.21071 4.46957 6 5 6H27C27.5304 6 28.0391 6.21071 28.4142 6.58579C28.7893 6.96086 29 7.46957 29 8V24C29 24.5304 28.7893 25.0391 28.4142 25.4142C28.0391 25.7893 27.5304 26 27 26H10.3128C10.3188 26 10.3246 25.9978 10.3291 25.9939L10.3127 25.975L9.675 25.2375L10.3164 26.0047L6.27885 29.3797L6.27503 29.3829C5.98366 29.624 5.6299 29.7776 5.25477 29.8258C4.87965 29.874 4.49856 29.8148 4.15571 29.6551C3.81286 29.4955 3.52231 29.2419 3.31775 28.9238C3.1132 28.6057 3.00303 28.2361 3.00003 27.8579L2.99997 27.85L3 8C3 7.46957 3.21072 6.96086 3.58579 6.58579ZM9.02829 24.4747C9.38592 24.1686 9.84125 24.0001 10.3122 24H27V8L5 8V27.842L9.02829 24.4747Z" fill="black"/>
<path d="M16 17.5C16.8284 17.5 17.5 16.8284 17.5 16C17.5 15.1716 16.8284 14.5 16 14.5C15.1716 14.5 14.5 15.1716 14.5 16C14.5 16.8284 15.1716 17.5 16 17.5Z" fill="black"/>
<path d="M10 17.5C10.8284 17.5 11.5 16.8284 11.5 16C11.5 15.1716 10.8284 14.5 10 14.5C9.17157 14.5 8.5 15.1716 8.5 16C8.5 16.8284 9.17157 17.5 10 17.5Z" fill="black"/>
<path d="M22 17.5C22.8284 17.5 23.5 16.8284 23.5 16C23.5 15.1716 22.8284 14.5 22 14.5C21.1716 14.5 20.5 15.1716 20.5 16C20.5 16.8284 21.1716 17.5 22 17.5Z" fill="black"/>
</svg>
