<svg width="32" height="32" viewBox="0 0 32 32" fill="none" xmlns="http://www.w3.org/2000/svg">
<path fill-rule="evenodd" clip-rule="evenodd" d="M16.5 5C13.7152 5 11.0445 6.10625 9.07539 8.07538C7.10625 10.0445 6.00001 12.7152 6.00001 15.5V26H16.5C17.8789 26 19.2443 25.7284 20.5182 25.2007C21.7921 24.6731 22.9496 23.8996 23.9246 22.9246C24.8996 21.9496 25.6731 20.7921 26.2007 19.5182C26.7284 18.2443 27 16.8789 27 15.5C27 14.1211 26.7284 12.7557 26.2007 11.4818C25.6731 10.2079 24.8996 9.05039 23.9246 8.07538C22.9496 7.10036 21.7921 6.32694 20.5182 5.79926C19.2443 5.27159 17.8789 5 16.5 5ZM16.5 28H5.96795C5.71019 28.0024 5.45448 27.9536 5.21564 27.8566C4.97438 27.7585 4.75521 27.6131 4.57107 27.4289C4.38692 27.2448 4.24152 27.0256 4.14346 26.7844C4.04637 26.5455 3.99762 26.2898 4.00001 26.0321V15.5C4.00001 12.1848 5.31697 9.00537 7.66117 6.66116C10.0054 4.31696 13.1848 3 16.5 3C18.1415 3 19.767 3.32332 21.2836 3.95151C22.8001 4.57969 24.1781 5.50043 25.3388 6.66116C26.4996 7.8219 27.4203 9.19989 28.0485 10.7165C28.6767 12.233 29 13.8585 29 15.5C29 17.1415 28.6767 18.767 28.0485 20.2835C27.4203 21.8001 26.4996 23.1781 25.3388 24.3388C24.1781 25.4996 22.8001 26.4203 21.2836 27.0485C19.767 27.6767 18.1415 28 16.5 28Z" fill="black"/>
<path d="M16.5 17.5C17.3284 17.5 18 16.8284 18 16C18 15.1716 17.3284 14.5 16.5 14.5C15.6716 14.5 15 15.1716 15 16C15 16.8284 15.6716 17.5 16.5 17.5Z" fill="black"/>
<path d="M10.5 17.5C11.3284 17.5 12 16.8284 12 16C12 15.1716 11.3284 14.5 10.5 14.5C9.67157 14.5 9 15.1716 9 16C9 16.8284 9.67157 17.5 10.5 17.5Z" fill="black"/>
<path d="M22.5 17.5C23.3284 17.5 24 16.8284 24 16C24 15.1716 23.3284 14.5 22.5 14.5C21.6716 14.5 21 15.1716 21 16C21 16.8284 21.6716 17.5 22.5 17.5Z" fill="black"/>
</svg>
