<svg xmlns="http://www.w3.org/2000/svg" width="32" height="32" fill="none" viewBox="0 0 32 32"><path fill="#000" fill-rule="evenodd" d="M16 5C9.92487 5 5 9.92487 5 16C5 22.0751 9.92487 27 16 27C22.0751 27 27 22.0751 27 16C27 9.92487 22.0751 5 16 5ZM3 16C3 8.8203 8.8203 3 16 3C23.1797 3 29 8.8203 29 16C29 23.1797 23.1797 29 16 29C8.8203 29 3 23.1797 3 16Z" clip-rule="evenodd"/><path fill="#000" fill-rule="evenodd" d="M25.1946 6.80541C25.5851 7.19593 25.5851 7.82909 25.1946 8.21962L8.21962 25.1946C7.82909 25.5851 7.19593 25.5851 6.80541 25.1946C6.41488 24.8041 6.41488 24.1709 6.80541 23.7804L23.7804 6.80541C24.1709 6.41488 24.8041 6.41488 25.1946 6.80541Z" clip-rule="evenodd"/><path fill="#000" fill-rule="evenodd" d="M16 15C16.5523 15 17 15.4477 17 16V28C17 28.5523 16.5523 29 16 29C15.4477 29 15 28.5523 15 28V16C15 15.4477 15.4477 15 16 15Z" clip-rule="evenodd"/><path fill="#000" fill-rule="evenodd" d="M24 7C24.5523 7 25 7.44772 25 8V24.95C25 25.5023 24.5523 25.95 24 25.95C23.4477 25.95 23 25.5023 23 24.95V8C23 7.44772 23.4477 7 24 7Z" clip-rule="evenodd"/><path fill="#000" fill-rule="evenodd" d="M20 11C20.5523 11 21 11.4477 21 12V27.3125C21 27.8648 20.5523 28.3125 20 28.3125C19.4477 28.3125 19 27.8648 19 27.3125V12C19 11.4477 19.4477 11 20 11Z" clip-rule="evenodd"/><path fill="#000" fill-rule="evenodd" d="M12 19C12.5523 19 13 19.4477 13 20V27.3125C13 27.8648 12.5523 28.3125 12 28.3125C11.4477 28.3125 11 27.8648 11 27.3125V20C11 19.4477 11.4477 19 12 19Z" clip-rule="evenodd"/></svg>