<svg width="32" height="32" viewBox="0 0 32 32" fill="none" xmlns="http://www.w3.org/2000/svg">
<path fill-rule="evenodd" clip-rule="evenodd" d="M8.2183 6.80409C8.60954 7.19389 8.61072 7.82706 8.22092 8.2183C6.85933 9.58497 5.87926 11.2843 5.37818 13.1472C5.23474 13.6806 4.6861 13.9966 4.15277 13.8532C3.61944 13.7097 3.30338 13.1611 3.44682 12.6278C4.03859 10.4276 5.19605 8.42074 6.80408 6.80672C7.19388 6.41547 7.82705 6.4143 8.2183 6.80409Z" fill="black"/>
<path fill-rule="evenodd" clip-rule="evenodd" d="M4.15607 18.1334C4.68989 17.9918 5.23744 18.3098 5.37906 18.8436C5.87445 20.7109 6.85449 22.4141 8.21992 23.7807C8.61027 24.1714 8.60999 24.8046 8.21929 25.1949C7.8286 25.5853 7.19543 25.585 6.80508 25.1943C5.19054 23.5783 4.0317 21.5644 3.44594 19.3564C3.30432 18.8226 3.62226 18.2751 4.15607 18.1334Z" fill="black"/>
<path fill-rule="evenodd" clip-rule="evenodd" d="M11.9354 27.3237C12.0811 26.791 12.6311 26.4772 13.1638 26.6229C15.0246 27.1318 16.9879 27.1318 18.8487 26.6229C19.3814 26.4772 19.9314 26.791 20.0771 27.3237C20.2228 27.8564 19.909 28.4064 19.3763 28.5521C17.1701 29.1554 14.8424 29.1554 12.6362 28.5521C12.1035 28.4064 11.7897 27.8564 11.9354 27.3237Z" fill="black"/>
<path fill-rule="evenodd" clip-rule="evenodd" d="M27.8472 18.1468C28.3806 18.2903 28.6966 18.8389 28.5532 19.3722C27.9614 21.5724 26.804 23.5793 25.1959 25.1933C24.8061 25.5845 24.173 25.5857 23.7817 25.1959C23.3905 24.8061 23.3893 24.1729 23.7791 23.7817C25.1407 22.415 26.1208 20.7157 26.6218 18.8528C26.7653 18.3194 27.3139 18.0034 27.8472 18.1468Z" fill="black"/>
<path fill-rule="evenodd" clip-rule="evenodd" d="M23.7807 6.80509C24.1714 6.41474 24.8046 6.41502 25.1949 6.80572C26.8095 8.4217 27.9683 10.4356 28.5541 12.6436C28.6957 13.1774 28.3777 13.725 27.8439 13.8666C27.3101 14.0082 26.7626 13.6903 26.6209 13.1564C26.1256 11.2892 25.1455 9.58595 23.7801 8.21931C23.3897 7.82861 23.39 7.19544 23.7807 6.80509Z" fill="black"/>
<path fill-rule="evenodd" clip-rule="evenodd" d="M18.8362 5.37707C16.9754 4.86817 15.0121 4.86817 13.1513 5.37707C12.6186 5.52276 12.0686 5.20902 11.9229 4.67629C11.7772 4.14357 12.091 3.59361 12.6237 3.44792C14.8299 2.84455 17.1576 2.84455 19.3638 3.44792C19.8965 3.59361 20.2103 4.14357 20.0646 4.67629C19.9189 5.20902 19.3689 5.52276 18.8362 5.37707Z" fill="black"/>
</svg>
