<svg width="32" height="32" viewBox="0 0 32 32" fill="none" xmlns="http://www.w3.org/2000/svg">
<path fill-rule="evenodd" clip-rule="evenodd" d="M11.909 4.67083C12.1392 5.17289 11.9187 5.76643 11.4167 5.99655C9.13499 7.04235 7.27959 8.83699 6.15843 11.0826C5.03727 13.3282 4.71777 15.8896 5.25298 18.3418C5.78819 20.794 7.14591 22.9894 9.10077 24.5636C11.0556 26.1379 13.4901 26.9962 16 26.9962C18.5099 26.9962 20.9443 26.1379 22.8992 24.5636C24.8541 22.9894 26.2118 20.794 26.747 18.3418C27.2822 15.8896 26.9627 13.3282 25.8415 11.0826C24.7204 8.83699 22.865 7.04235 20.5833 5.99655C20.0813 5.76643 19.8608 5.17289 20.0909 4.67083C20.321 4.16877 20.9146 3.94831 21.4167 4.17843C24.1132 5.41437 26.3059 7.53531 27.6309 10.1892C28.9559 12.8431 29.3335 15.8703 28.701 18.7683C28.0685 21.6663 26.4639 24.2609 24.1536 26.1214C21.8433 27.9818 18.9662 28.9962 16 28.9962C13.0337 28.9962 10.1567 27.9818 7.84637 26.1214C5.53608 24.2609 3.9315 21.6663 3.29898 18.7683C2.66646 15.8703 3.04405 12.8431 4.36906 10.1892C5.69407 7.53531 7.88681 5.41437 10.5833 4.17843C11.0854 3.94831 11.6789 4.16877 11.909 4.67083Z" fill="black"/>
</svg>
