<svg width="32" height="32" viewBox="0 0 32 32" fill="none" xmlns="http://www.w3.org/2000/svg">
<path fill-rule="evenodd" clip-rule="evenodd" d="M20.9632 11.1441C19.5083 10.8547 18.0003 11.0033 16.6299 11.5709C15.2594 12.1386 14.0881 13.0999 13.264 14.3332C12.4399 15.5666 12 17.0166 12 18.5C12 19.0523 11.5523 19.5 11 19.5C10.4477 19.5 10 19.0523 10 18.5C10 18.009 10.038 17.5209 10.1129 17.0399C9.91185 17.0123 9.70877 16.9989 9.50514 17L9.5 17C8.30653 17 7.16193 17.4741 6.31802 18.318C5.47411 19.1619 5 20.3065 5 21.5C5 22.6935 5.47411 23.8381 6.31802 24.682C7.16193 25.5259 8.30653 26 9.5 26H19.5C20.9834 26 22.4334 25.5601 23.6668 24.736C24.9001 23.9119 25.8614 22.7406 26.4291 21.3701C26.9968 19.9997 27.1453 18.4917 26.8559 17.0368C26.5665 15.582 25.8522 14.2456 24.8033 13.1967C23.7544 12.1478 22.418 11.4335 20.9632 11.1441ZM10.6304 15.0971C10.882 14.4413 11.2068 13.8121 11.601 13.2221C12.6449 11.6598 14.1286 10.4422 15.8645 9.72315C17.6004 9.00412 19.5105 8.81598 21.3534 9.18254C23.1962 9.5491 24.8889 10.4539 26.2175 11.7825C27.5461 13.1111 28.4509 14.8038 28.8175 16.6466C29.184 18.4895 28.9959 20.3996 28.2769 22.1355C27.5578 23.8714 26.3402 25.3551 24.7779 26.399C23.2157 27.4428 21.3789 28 19.5 28H9.5C7.77609 28 6.12279 27.3152 4.90381 26.0962C3.68482 24.8772 3 23.2239 3 21.5C3 19.7761 3.68482 18.1228 4.90381 16.9038C6.12219 15.6854 7.77447 15.0007 9.49746 15" fill="black"/>
<path fill-rule="evenodd" clip-rule="evenodd" d="M10.0964 1.48933C10.3402 1.24797 10.6907 1.14842 11.025 1.22561C13.0087 1.6837 14.7786 2.80086 16.0454 4.39464C17.3122 5.98838 18.0013 7.96454 18 10.0004V9.99997H17L18 10.0006M11.9929 3.6669C11.9709 3.10109 11.8985 2.53814 11.7766 1.98474L10.8 2.19997L10.575 3.17433C11.067 3.28794 11.542 3.45366 11.9929 3.6669ZM10.0964 1.48933C9.85265 1.73069 9.7496 2.08018 9.82344 2.4152L10.0964 1.48933ZM9.82344 2.4152C9.93826 2.93618 9.99744 3.46788 10 4.00136L9.82344 2.4152ZM10 4.00136C9.99633 5.85633 9.25782 7.63434 7.9461 8.94607C6.63437 10.2578 4.85637 10.9963 3.00139 11C2.46791 10.9974 1.93621 10.9382 1.41523 10.8234L1.2 11.8L0.225952 12.0263C0.54743 13.4098 1.19134 14.6977 2.10518 15.785C3.01901 16.8723 4.1769 17.7283 5.48442 18.283C5.99283 18.4988 6.57985 18.2615 6.79557 17.7531C7.01128 17.2446 6.774 16.6576 6.26559 16.4419C5.24823 16.0102 4.34729 15.3443 3.63625 14.4982C3.24964 14.0382 2.92513 13.5321 2.66927 12.9929" fill="black"/>
</svg>
