<svg width="32" height="32" viewBox="0 0 32 32" fill="none" xmlns="http://www.w3.org/2000/svg">
<path fill-rule="evenodd" clip-rule="evenodd" d="M5.32733 4.26007C5.73599 3.88856 6.36844 3.91868 6.73995 4.32733L26.7399 26.3273C27.1115 26.736 27.0813 27.3684 26.6727 27.7399C26.264 28.1115 25.6316 28.0813 25.2601 27.6727L5.26007 5.67268C4.88856 5.26402 4.91868 4.63157 5.32733 4.26007Z" fill="black"/>
<path fill-rule="evenodd" clip-rule="evenodd" d="M10.4961 13.1829C10.0069 13.0612 9.50455 12.9998 9.00038 13C7.40908 13 5.88258 13.6321 4.75736 14.7574C3.63214 15.8826 3 17.4087 3 19C3 20.5913 3.63214 22.1174 4.75736 23.2426C5.88258 24.3679 7.4087 25 9 25H20C21.3178 25.001 22.6206 24.7129 23.815 24.1561C24.3156 23.9228 24.9105 24.1394 25.1439 24.64C25.3772 25.1406 25.1606 25.7355 24.66 25.9689C23.2005 26.6492 21.6095 27.0012 19.9993 27H9C6.87827 27 4.84344 26.1571 3.34315 24.6569C1.84285 23.1566 1 21.1217 1 19C1 16.8783 1.84285 14.8434 3.34315 13.3431C4.84335 11.8429 6.87803 11.0001 8.99962 11C9.66664 10.9998 10.3316 11.0811 10.9789 11.2421C11.5148 11.3754 11.8412 11.9179 11.7079 12.4539C11.5746 12.9898 11.0321 13.3162 10.4961 13.1829Z" fill="black"/>
<path fill-rule="evenodd" clip-rule="evenodd" d="M20.9079 7.01098C18.6864 6.79413 16.4635 7.41056 14.6709 8.74058C14.2273 9.06966 13.601 8.97688 13.2719 8.53334C12.9428 8.08981 13.0356 7.46348 13.4792 7.1344C15.6701 5.50881 18.387 4.7554 21.1022 5.02044C23.8175 5.28548 26.3374 6.55007 28.1726 8.56866C30.0078 10.5873 31.0275 13.2158 31.0335 15.944C31.0396 18.6721 30.0317 21.3052 28.2054 23.3319C27.8357 23.7422 27.2034 23.7751 26.7931 23.4054C26.3828 23.0357 26.3499 22.4034 26.7196 21.9931C28.2138 20.3348 29.0385 18.1805 29.0335 15.9484C29.0286 13.7163 28.1943 11.5656 26.6928 9.91407C25.1912 8.2625 23.1295 7.22783 20.9079 7.01098Z" fill="black"/>
<path fill-rule="evenodd" clip-rule="evenodd" d="M11.8987 10.0655C12.3734 10.3478 12.5293 10.9615 12.247 11.4361C11.4265 12.8158 10.9956 14.3921 11 15.9972C11.0016 16.5495 10.5551 16.9985 10.0028 17C9.45053 17.0015 9.00157 16.555 9.00004 16.0028C8.99459 14.0359 9.52267 12.1044 10.528 10.4138C10.8103 9.93915 11.424 9.7832 11.8987 10.0655Z" fill="black"/>
</svg>
