<svg width="32" height="32" viewBox="0 0 32 32" fill="none" xmlns="http://www.w3.org/2000/svg">
<path fill-rule="evenodd" clip-rule="evenodd" d="M20.9632 11.1441C19.5083 10.8547 18.0003 11.0033 16.6299 11.5709C15.2594 12.1386 14.0881 13.0999 13.264 14.3332C12.4399 15.5666 12 17.0166 12 18.5C12 19.0523 11.5523 19.5 11 19.5C10.4477 19.5 10 19.0523 10 18.5C10 18.009 10.038 17.5209 10.1129 17.0399C9.91185 17.0123 9.70877 16.9989 9.50514 17L9.5 17C8.30653 17 7.16193 17.4741 6.31802 18.318C5.47411 19.1619 5 20.3065 5 21.5C5 22.6935 5.47411 23.8381 6.31802 24.682C7.16193 25.5259 8.30653 26 9.5 26H19.5C20.9834 26 22.4334 25.5601 23.6668 24.736C24.9001 23.9119 25.8614 22.7406 26.4291 21.3701C26.9968 19.9997 27.1453 18.4917 26.8559 17.0368C26.5665 15.582 25.8522 14.2456 24.8033 13.1967C23.7544 12.1478 22.418 11.4335 20.9632 11.1441ZM10.6304 15.0971C10.882 14.4413 11.2068 13.8121 11.601 13.2221C12.6449 11.6598 14.1286 10.4422 15.8645 9.72315C17.6004 9.00412 19.5105 8.81598 21.3534 9.18254C23.1962 9.5491 24.8889 10.4539 26.2175 11.7825C27.5461 13.1111 28.4509 14.8038 28.8175 16.6466C29.184 18.4895 28.9959 20.3996 28.2769 22.1355C27.5578 23.8714 26.3402 25.3551 24.7779 26.399C23.2157 27.4428 21.3789 28 19.5 28H9.5C7.77609 28 6.12279 27.3152 4.90381 26.0962C3.68482 24.8772 3 23.2239 3 21.5C3 19.7761 3.68482 18.1228 4.90381 16.9038C6.12219 15.6854 7.77447 15.0007 9.49746 15" fill="black"/>
<path fill-rule="evenodd" clip-rule="evenodd" d="M9.26233 3.15297C9.80608 3.0562 10.3253 3.41854 10.4221 3.96229L10.9471 6.91229C11.0438 7.45603 10.6815 7.97526 10.1378 8.07203C9.59402 8.1688 9.07478 7.80645 8.97802 7.26271L8.45302 4.31271C8.35625 3.76897 8.71859 3.24974 9.26233 3.15297Z" fill="black"/>
<path fill-rule="evenodd" clip-rule="evenodd" d="M2.80593 7.26375C3.1228 6.81141 3.74636 6.70158 4.1987 7.01845L6.6612 8.74345C7.11355 9.06032 7.22337 9.68389 6.9065 10.1362C6.58963 10.5886 5.96606 10.6984 5.51372 10.3815L3.05122 8.65652C2.59888 8.33966 2.48906 7.71609 2.80593 7.26375Z" fill="black"/>
<path fill-rule="evenodd" clip-rule="evenodd" d="M6.07203 13.8623C6.1688 14.4061 5.80645 14.9253 5.26271 15.0221L2.31271 15.5471C1.76897 15.6438 1.24974 15.2815 1.15297 14.7377C1.0562 14.194 1.41854 13.6748 1.96229 13.578L4.91229 13.053C5.45603 12.9562 5.97526 13.3186 6.07203 13.8623Z" fill="black"/>
<path fill-rule="evenodd" clip-rule="evenodd" d="M16.7362 4.80599C17.1885 5.12286 17.2984 5.74642 16.9815 6.19877L15.2565 8.66127C14.9396 9.11361 14.3161 9.22343 13.8637 8.90656C13.4114 8.58969 13.3016 7.96612 13.6184 7.51378L15.3434 5.05128C15.6603 4.59894 16.2839 4.48912 16.7362 4.80599Z" fill="black"/>
<path fill-rule="evenodd" clip-rule="evenodd" d="M13.0663 8.44527C11.9558 7.94026 10.6989 7.8587 9.53244 8.21595C8.36594 8.5732 7.37031 9.3446 6.73302 10.3849C6.09603 11.4247 5.861 12.6614 6.0721 13.8624C6.23257 14.7539 6.62593 15.5872 7.2123 16.2777C7.56979 16.6987 7.51832 17.3298 7.09734 17.6873C6.67636 18.0448 6.04529 17.9933 5.68781 17.5723C4.87265 16.6124 4.32598 15.4539 4.10331 14.2143L4.10271 14.211L4.10271 14.211C3.80645 12.5289 4.13539 10.7966 5.02759 9.34014C5.91979 7.88373 7.31368 6.80377 8.94678 6.30362C10.5799 5.80347 12.3395 5.91766 13.8942 6.62467C15.449 7.33168 16.6916 8.58274 17.3881 10.1422C17.6133 10.6465 17.3871 11.2379 16.8828 11.4631C16.3786 11.6883 15.7872 11.4621 15.562 10.9578C15.0645 9.84389 14.1769 8.95028 13.0663 8.44527Z" fill="black"/>
</svg>
