<svg width="32" height="32" viewBox="0 0 32 32" fill="none" xmlns="http://www.w3.org/2000/svg">
<path fill-rule="evenodd" clip-rule="evenodd" d="M15.0182 1.9057C15.317 1.73449 15.6555 1.64438 16 1.64438C16.3445 1.64438 16.683 1.73449 16.9818 1.9057L27.9813 8.09293C28.289 8.26768 28.5452 8.52047 28.7241 8.82582C28.9029 9.13116 28.9981 9.47827 29 9.83213L29 9.8375L29 22.1625H28L29 22.1679C28.9981 22.5217 28.9029 22.8688 28.7241 23.1742C28.5452 23.4795 28.289 23.7323 27.9813 23.9071L27.9778 23.9091L16.9818 30.0943C16.6829 30.2655 16.3445 30.3556 16 30.3556C15.6555 30.3556 15.3171 30.2655 15.0182 30.0943L4.02224 23.9091L4.01869 23.9071C3.71097 23.7323 3.45478 23.4795 3.27593 23.1742C3.09709 22.8688 3.00191 22.5217 3.00001 22.1679L3 22.1625V9.83213C3.0019 9.47827 3.09709 9.13116 3.27593 8.82582C3.45478 8.52047 3.71097 8.26768 4.01869 8.09294L4.02223 8.09092L15.0182 1.9057ZM27 22.1577V9.84233C26.9999 9.84032 26.9993 9.83837 26.9983 9.83662C26.9973 9.83484 26.9958 9.83335 26.994 9.83228C26.9939 9.83221 26.9942 9.83234 26.994 9.83228L16 3.64813L5.00631 9.83207C5.0062 9.83214 5.00643 9.832 5.00631 9.83207C5.00455 9.83315 5.00274 9.83484 5.0017 9.83662C5.00068 9.83837 5.0001 9.84033 5 9.84234V22.1577C5.0001 22.1597 5.00068 22.1616 5.0017 22.1634C5.00274 22.1652 5.00419 22.1666 5.00594 22.1677C5.00581 22.1676 5.00606 22.1678 5.00594 22.1677L16 28.3519L26.9937 22.1679C26.9936 22.168 26.9938 22.1679 26.9937 22.1679C26.9954 22.1669 26.9973 22.1652 26.9983 22.1634C26.9993 22.1616 26.9999 22.1597 27 22.1577Z" fill="black"/>
<path fill-rule="evenodd" clip-rule="evenodd" d="M3.26404 8.83812C3.53294 8.35572 4.14199 8.18264 4.62439 8.45153L16.1079 14.8525L27.3686 8.45551C27.8488 8.18271 28.4592 8.35085 28.732 8.83106C29.0048 9.31126 28.8367 9.9217 28.3565 10.1945L16.6065 16.8695C16.3027 17.0421 15.9308 17.0436 15.6256 16.8735L3.65063 10.1985C3.16823 9.92957 2.99514 9.32052 3.26404 8.83812Z" fill="black"/>
<path fill-rule="evenodd" clip-rule="evenodd" d="M16.1209 15C16.6732 15.0047 17.1171 15.4562 17.1125 16.0084L17 29.3584C16.9953 29.9107 16.5438 30.3546 15.9916 30.35C15.4393 30.3453 14.9954 29.8938 15 29.3416L15.1125 15.9916C15.1172 15.4393 15.5687 14.9954 16.1209 15Z" fill="black"/>
<path fill-rule="evenodd" clip-rule="evenodd" d="M9.0037 5.44673C9.27475 4.96553 9.88456 4.79517 10.3658 5.06621L16 8.23978L21.6342 5.06621C22.1154 4.79517 22.7252 4.96553 22.9963 5.44673C23.2673 5.92793 23.097 6.53775 22.6158 6.80879L16.4908 10.2588C16.1861 10.4304 15.8139 10.4304 15.5092 10.2588L9.38423 6.80879C8.90303 6.53775 8.73266 5.92793 9.0037 5.44673Z" fill="black"/>
<path fill-rule="evenodd" clip-rule="evenodd" d="M28.8716 15.3722C29.1423 15.8536 28.9716 16.4633 28.4903 16.7341L23 19.8223V26.125C23 26.6773 22.5523 27.125 22 27.125C21.4477 27.125 21 26.6773 21 26.125V19.2375C21 18.8762 21.1949 18.543 21.5097 18.3659L27.5097 14.9909C27.9911 14.7202 28.6008 14.8909 28.8716 15.3722Z" fill="black"/>
<path fill-rule="evenodd" clip-rule="evenodd" d="M3.12842 15.3722C3.39918 14.8909 4.0089 14.7202 4.49026 14.9909L10.4903 18.3659C10.8051 18.543 11 18.8762 11 19.2375V26.125C11 26.6773 10.5523 27.125 9.99999 27.125C9.44771 27.125 8.99999 26.6773 8.99999 26.125V19.8223L3.50973 16.7341C3.02838 16.4633 2.85765 15.8536 3.12842 15.3722Z" fill="black"/>
</svg>
