<svg xmlns="http://www.w3.org/2000/svg" width="32" height="32" fill="none" viewBox="0 0 32 32"><path fill="#000" fill-rule="evenodd" d="M16 5C9.92487 5 5 9.92487 5 16C5 22.0751 9.92487 27 16 27C22.0751 27 27 22.0751 27 16C27 9.92487 22.0751 5 16 5ZM3 16C3 8.8203 8.8203 3 16 3C23.1797 3 29 8.8203 29 16C29 23.1797 23.1797 29 16 29C8.8203 29 3 23.1797 3 16Z" clip-rule="evenodd"/><path fill="#000" fill-rule="evenodd" d="M22.3439 9.64221C22.6386 9.93633 22.7202 10.3823 22.5488 10.7617L19.0363 18.5367C18.9333 18.7649 18.7484 18.946 18.5182 19.0445L11.0932 22.2195C10.7175 22.3801 10.2818 22.296 9.9929 22.0071C9.70397 21.7182 9.61989 21.2825 9.78055 20.9068L12.9555 13.4818C13.0537 13.2523 13.2342 13.0677 13.4615 12.9645L21.224 9.43949C21.6031 9.26734 22.0492 9.34809 22.3439 9.64221ZM14.6419 14.625L12.6001 19.3999L17.3739 17.3586L19.6328 12.3587L14.6419 14.625Z" clip-rule="evenodd"/></svg>