<svg xmlns="http://www.w3.org/2000/svg" width="32" height="32" fill="none" viewBox="0 0 32 32"><path fill="#000" fill-rule="evenodd" d="M11.9732 5.86312C12.3024 5.79078 12.6446 5.80284 12.968 5.89817C13.2905 5.99328 13.5839 6.16817 13.8209 6.40667C13.8215 6.40725 13.8221 6.40783 13.8226 6.40841L25.5915 18.1773C25.5922 18.178 25.5929 18.1786 25.5935 18.1793C25.8319 18.4163 26.0067 18.7096 26.1018 19.032C26.1971 19.3553 26.2092 19.6975 26.1368 20.0268C26.0645 20.356 25.9101 20.6616 25.688 20.9152C25.466 21.1688 25.1834 21.3622 24.8665 21.4773L6.3603 28.2001C6.00437 28.3341 5.61739 28.3632 5.2453 28.2838C4.86999 28.2038 4.52587 28.0168 4.25452 27.7454C3.98316 27.4741 3.79617 27.13 3.71612 26.7547C3.63675 26.3825 3.66588 25.9955 3.79994 25.6395L10.5226 7.13353C10.6377 6.8167 10.8311 6.534 11.0847 6.31192C11.3383 6.08983 11.6439 5.93545 11.9732 5.86312ZM4.73749 25.9875L5.67157 26.3445C5.67243 26.3423 5.67262 26.3398 5.67212 26.3375C5.67162 26.3351 5.67044 26.3329 5.66873 26.3312C5.66703 26.3295 5.66487 26.3283 5.6625 26.3278C5.66021 26.3273 5.65783 26.3275 5.65562 26.3283L5.66557 26.3246L4.73749 25.9875ZM5.68101 26.3189L24.1834 19.5976L24.1804 19.5946L12.4054 7.81958L12.4023 7.81653L5.68101 26.3189Z" clip-rule="evenodd"/><path fill="#000" fill-rule="evenodd" d="M27 2C27.5523 2 28 2.44772 28 3H27C28 3 28 3.0005 28 3.00101L28 3.0021L28 3.00448L28 3.01011L27.9998 3.02473C27.9996 3.03595 27.9993 3.05011 27.9987 3.06701C27.9976 3.10077 27.9955 3.14568 27.9916 3.20015C27.9838 3.30877 27.9688 3.45741 27.9395 3.63315C27.8817 3.97989 27.7643 4.4575 27.5194 4.94721C27.2726 5.44084 26.8867 5.96489 26.2891 6.3633C25.6852 6.76588 24.925 7 24 7C23.425 7 23.0602 7.14088 22.8203 7.3008C22.5742 7.46489 22.3976 7.69084 22.2694 7.94721C22.1393 8.2075 22.0692 8.47989 22.0333 8.69565C22.0157 8.80116 22.0073 8.88689 22.0033 8.94234C22.0013 8.96989 22.0005 8.98944 22.0002 8.99962L22 9.00699C21.9962 9.55606 21.55 10 21 10C20.4477 10 20 9.55228 20 9H21C20 9 20 8.9995 20 8.99899L20 8.9979L20 8.99552L20 8.98989L20.0002 8.97527C20.0004 8.96405 20.0007 8.94989 20.0013 8.93299C20.0024 8.89923 20.0045 8.85432 20.0084 8.79985C20.0162 8.69123 20.0312 8.54259 20.0605 8.36685C20.1183 8.02011 20.2357 7.5425 20.4806 7.05279C20.7274 6.55916 21.1133 6.03511 21.7109 5.6367C22.3148 5.23412 23.075 5 24 5C24.575 5 24.9398 4.85912 25.1797 4.6992C25.4258 4.53511 25.6024 4.30916 25.7306 4.05279C25.8607 3.7925 25.9308 3.52011 25.9667 3.30435C25.9843 3.19884 25.9927 3.11311 25.9967 3.05766C25.9987 3.03011 25.9995 3.01056 25.9998 3.00038L26 2.99302C26.0038 2.44395 26.45 2 27 2ZM26 2.99248V2.99248V2.99248Z" clip-rule="evenodd"/><path fill="#000" fill-rule="evenodd" d="M6.49291 18.4928C6.88343 18.1023 7.51659 18.1023 7.90712 18.4928L13.5071 24.0928C13.8976 24.4834 13.8976 25.1165 13.5071 25.5071C13.1166 25.8976 12.4834 25.8976 12.0929 25.5071L6.49291 19.9071C6.10238 19.5165 6.10238 18.8834 6.49291 18.4928Z" clip-rule="evenodd"/><path fill="#000" fill-rule="evenodd" d="M18 1C18.5523 1 19 1.44772 19 2V5C19 5.55228 18.5523 6 18 6C17.4477 6 17 5.55228 17 5V2C17 1.44772 17.4477 1 18 1Z" clip-rule="evenodd"/><path fill="#000" fill-rule="evenodd" d="M26.2929 13.2929C26.6834 12.9024 27.3166 12.9024 27.7071 13.2929L29.7071 15.2929C30.0976 15.6834 30.0976 16.3166 29.7071 16.7071C29.3166 17.0976 28.6834 17.0976 28.2929 16.7071L26.2929 14.7071C25.9024 14.3166 25.9024 13.6834 26.2929 13.2929Z" clip-rule="evenodd"/><path fill="#000" fill-rule="evenodd" d="M30.9487 8.6838C31.1233 9.20774 30.8402 9.77406 30.3162 9.94871L27.3162 10.9487C26.7923 11.1234 26.226 10.8402 26.0513 10.3163C25.8767 9.79231 26.1598 9.22599 26.6838 9.05134L29.6838 8.05134C30.2077 7.8767 30.774 8.15986 30.9487 8.6838Z" clip-rule="evenodd"/><path fill="#000" fill-rule="evenodd" d="M8.8929 11.8929C9.28342 11.5023 9.91659 11.5023 10.3071 11.8929L20.1071 21.6929C20.4976 22.0834 20.4976 22.7166 20.1071 23.1071C19.7166 23.4976 19.0834 23.4976 18.6929 23.1071L8.8929 13.3071C8.50238 12.9166 8.50238 12.2834 8.8929 11.8929Z" clip-rule="evenodd"/></svg>