<svg xmlns="http://www.w3.org/2000/svg" width="32" height="32" fill="none" viewBox="0 0 32 32"><path fill="#000" fill-rule="evenodd" d="M16.0611 4.99995C13.8702 4.98902 11.7259 5.63258 9.90306 6.84824C8.07796 8.0654 6.65847 9.80047 5.82699 11.8305C4.9955 13.8606 4.79 16.0929 5.23689 18.2406C5.68377 20.3884 6.76263 22.3534 8.33484 23.8833C12.618 28.052 19.5423 28.006 23.7678 23.7804L23.7699 23.7783C24.8032 22.7512 25.6212 21.5281 26.1758 20.1809C26.7302 18.8341 27.0104 17.3902 27 15.9338C27 15.9333 27 15.9328 27 15.9323L27.9999 15.925L27.0001 15.9398C27 15.9379 26.9996 15.9361 26.9988 15.9344C26.998 15.9328 26.9968 15.9313 26.9953 15.9302C26.9939 15.929 26.9922 15.9282 26.9904 15.9278C26.9889 15.9274 26.9873 15.9273 26.9857 15.9276M22.8999 11.0918C22.9066 11.5364 23.012 11.974 23.2085 12.3729C23.4058 12.7733 23.69 13.1247 24.0403 13.4013C24.3906 13.678 24.7982 13.873 25.2334 13.9721C25.6687 14.0712 26.1205 14.0719 26.5561 13.9743L26.5649 13.9723C26.856 13.9098 27.1572 13.9126 27.447 13.9806C27.7368 14.0486 28.0079 14.1799 28.2408 14.3653C28.4737 14.5507 28.6626 14.7854 28.7938 15.0525C28.9251 15.3197 28.9954 15.6126 28.9998 15.9103L27.9999 15.925L28.9999 15.9177C29.0125 17.6407 28.6811 19.3489 28.0252 20.9422C27.3695 22.5351 26.4025 23.9811 25.181 25.1957C25.1813 25.1953 25.1817 25.195 25.1821 25.1946L24.4749 24.4875L25.1799 25.1967C25.1803 25.1964 25.1806 25.196 25.181 25.1957C20.1815 30.1941 12.0065 30.2477 6.93998 25.3166C6.93996 25.3166 6.94 25.3167 6.93998 25.3166C5.08194 23.5086 3.80695 21.1862 3.27882 18.648C2.75069 16.1098 2.99355 13.4716 3.97621 11.0725C4.95888 8.67332 6.63645 6.62278 8.79339 5.18432C10.9503 3.74586 13.4881 2.98518 16.0807 3.00003L16.0897 3.00008C16.3873 3.00447 16.6803 3.07486 16.9474 3.20611C17.2146 3.33736 17.4493 3.52623 17.6346 3.75913C17.82 3.99202 17.9514 4.26313 18.0194 4.55293C18.0873 4.84272 18.0901 5.14398 18.0276 5.435L18.0257 5.44386C17.9281 5.87942 17.9288 6.33128 18.0279 6.76651C18.127 7.20175 18.322 7.60938 18.5986 7.95969C18.8753 8.31 19.2266 8.59416 19.6271 8.79144C20.026 8.98799 20.4636 9.09339 20.9082 9.10003C21.4356 9.1022 21.941 9.31267 22.3142 9.6858C22.6873 10.0589 22.8978 10.5643 22.8999 11.0918Z" clip-rule="evenodd"/><path fill="#000" d="M19.5 23C20.3284 23 21 22.3284 21 21.5C21 20.6716 20.3284 20 19.5 20C18.6716 20 18 20.6716 18 21.5C18 22.3284 18.6716 23 19.5 23Z"/><path fill="#000" d="M11.5 22C12.3284 22 13 21.3284 13 20.5C13 19.6716 12.3284 19 11.5 19C10.6716 19 10 19.6716 10 20.5C10 21.3284 10.6716 22 11.5 22Z"/><path fill="#000" d="M10.5 15C11.3284 15 12 14.3284 12 13.5C12 12.6716 11.3284 12 10.5 12C9.67157 12 9 12.6716 9 13.5C9 14.3284 9.67157 15 10.5 15Z"/><path fill="#000" d="M17 17C17.8284 17 18.5 16.3284 18.5 15.5C18.5 14.6716 17.8284 14 17 14C16.1716 14 15.5 14.6716 15.5 15.5C15.5 16.3284 16.1716 17 17 17Z"/></svg>