<svg width="32" height="32" viewBox="0 0 32 32" fill="none" xmlns="http://www.w3.org/2000/svg">
<path fill-rule="evenodd" clip-rule="evenodd" d="M16 5C9.92487 5 5 9.92487 5 16C5 22.0751 9.92487 27 16 27C22.0751 27 27 22.0751 27 16C27 9.92487 22.0751 5 16 5ZM3 16C3 8.8203 8.8203 3 16 3C23.1797 3 29 8.8203 29 16C29 23.1797 23.1797 29 16 29C8.8203 29 3 23.1797 3 16Z" fill="black"/>
<path fill-rule="evenodd" clip-rule="evenodd" d="M17.2649 12.2053C16.4685 11.9398 15.6087 11.9316 14.8073 12.1819C14.006 12.4323 13.3037 12.9284 12.8 13.6C12.4686 14.0418 11.8418 14.1314 11.4 13.8C10.9582 13.4686 10.8686 12.8418 11.2 12.4C11.9556 11.3926 13.009 10.6484 14.211 10.2729C15.413 9.89744 16.7027 9.90968 17.8974 10.3079C19.092 10.7061 20.1311 11.4701 20.8675 12.4917C21.6038 13.5133 22 14.7407 22 16C22 17.2593 21.6038 18.4867 20.8675 19.5083C20.1311 20.5299 19.092 21.2939 17.8974 21.6921C16.7027 22.0903 15.413 22.1026 14.211 21.7271C13.009 21.3516 11.9556 20.6074 11.2 19.6C10.8686 19.1582 10.9582 18.5314 11.4 18.2C11.8418 17.8686 12.4686 17.9582 12.8 18.4C13.3037 19.0716 14.006 19.5677 14.8073 19.8181C15.6087 20.0684 16.4685 20.0602 17.2649 19.7947C18.0614 19.5292 18.7541 19.0199 19.245 18.3388C19.7358 17.6578 20 16.8395 20 16C20 15.1605 19.7358 14.3422 19.245 13.6612C18.7541 12.9801 18.0614 12.4707 17.2649 12.2053Z" fill="black"/>
</svg>
