<svg width="32" height="32" viewBox="0 0 32 32" fill="none" xmlns="http://www.w3.org/2000/svg">
<path fill-rule="evenodd" clip-rule="evenodd" d="M8 5C8 4.44772 8.44772 4 9 4H27C27.5523 4 28 4.44772 28 5V23C28 23.5523 27.5523 24 27 24C26.4477 24 26 23.5523 26 23V6H9C8.44772 6 8 5.55228 8 5Z" fill="black"/>
<path fill-rule="evenodd" clip-rule="evenodd" d="M4 9C4 8.44772 4.44772 8 5 8H23C23.5523 8 24 8.44772 24 9V27C24 27.5523 23.5523 28 23 28H5C4.44772 28 4 27.5523 4 27V9ZM6 10V26H22V10H6Z" fill="black"/>
</svg>
