<svg xmlns="http://www.w3.org/2000/svg" width="32" height="32" fill="none" viewBox="0 0 32 32"><path fill="#000" fill-rule="evenodd" d="M14.9842 4.33622C15.292 4.15478 15.6427 4.05908 16 4.05908C16.3572 4.05908 16.708 4.15478 17.0157 4.33622C17.3232 4.51748 17.5765 4.7777 17.7495 5.08988M17.75 5.09084L21.4193 11.7055C21.4208 11.7077 21.423 11.7093 21.4256 11.7102C21.4284 11.7111 21.4314 11.711 21.4342 11.7099C21.4341 11.7099 21.4343 11.7098 21.4342 11.7099L27.7562 8.89872L27.7595 8.89724C28.1008 8.74701 28.4772 8.69514 28.8463 8.7475C29.2154 8.79985 29.5626 8.95434 29.8486 9.19353C30.1345 9.43271 30.348 9.74707 30.4648 10.1011C30.5812 10.4542 30.597 10.8328 30.5102 11.1943C30.51 11.1953 30.5098 11.1963 30.5095 11.1972L27.3217 24.7364C27.2581 24.9977 27.1428 25.2436 26.9825 25.4596C26.8223 25.6756 26.6205 25.8572 26.3888 25.9939C26.1572 26.1305 25.9006 26.2194 25.6341 26.2552C25.3675 26.291 25.0965 26.273 24.8371 26.2023L24.8331 26.2012C19.049 24.5996 12.9385 24.5996 7.15434 26.2012L7.15041 26.2023C6.89096 26.273 6.61996 26.291 6.35343 26.2552C6.08689 26.2194 5.83024 26.1305 5.59864 25.9939C5.36703 25.8572 5.16515 25.6756 5.00494 25.4596C4.84472 25.2436 4.72942 24.9977 4.66584 24.7364L4.66388 24.7283L1.49044 11.1972C1.49014 11.196 1.48984 11.1947 1.48953 11.1935C1.40302 10.8322 1.41883 10.454 1.53522 10.1011C1.65201 9.74707 1.86545 9.43271 2.15143 9.19353C2.43741 8.95434 2.78456 8.79985 3.15369 8.7475C3.52281 8.69514 3.89923 8.74701 4.24044 8.89724L4.2438 8.89872L10.5655 11.7097C10.5654 11.7097 10.5656 11.7098 10.5655 11.7097C10.5682 11.7109 10.5716 11.7111 10.5744 11.7102C10.577 11.7093 10.5792 11.7077 10.5807 11.7055L14.2505 5.08988C14.4235 4.7777 14.6768 4.51748 14.9842 4.33622M12.3187 12.6955C12.0721 13.1278 11.674 13.4534 11.2013 13.6094C10.7287 13.7654 10.215 13.7407 9.75952 13.5402L9.75619 13.5387L3.43454 10.7277L3.43609 10.7341L6.60936 24.2643C6.60978 24.2657 6.61042 24.2669 6.61125 24.268C6.6119 24.2689 6.61267 24.2697 6.61353 24.2704C6.61397 24.2707 6.61444 24.2711 6.61493 24.2713C6.61638 24.2722 6.61798 24.2727 6.61962 24.273C6.62115 24.2732 6.6227 24.2731 6.62421 24.2727C12.7565 22.5755 19.2347 22.5758 25.3668 24.2737L25.1 25.2375L25.3629 24.2726C25.3645 24.2731 25.3662 24.2732 25.3679 24.273C25.3695 24.2727 25.3711 24.2722 25.3725 24.2713C25.374 24.2705 25.3752 24.2694 25.3762 24.268C25.3768 24.2673 25.3773 24.2664 25.3777 24.2656C25.3779 24.2651 25.378 24.2647 25.3781 24.2642C25.3781 24.2645 25.3782 24.264 25.3781 24.2642L28.5641 10.7333L28.5654 10.7277L22.2438 13.5387L22.2405 13.5402C21.785 13.7407 21.2713 13.7654 20.7986 13.6094C20.326 13.4534 19.928 13.1277 19.6814 12.6954L19.6755 12.6851L16 6.05908L12.3187 12.6955Z" clip-rule="evenodd"/><path fill="#000" fill-rule="evenodd" d="M19.8925 21.2068C17.305 20.927 14.695 20.927 12.1075 21.2068C11.5584 21.2661 11.0652 20.8691 11.0058 20.32C10.9464 19.771 11.3434 19.2777 11.8925 19.2183C14.6229 18.9231 17.3771 18.9231 20.1075 19.2183C20.6566 19.2777 21.0536 19.771 20.9942 20.32C20.9348 20.8691 20.4416 21.2661 19.8925 21.2068Z" clip-rule="evenodd"/></svg>