<svg width="32" height="32" viewBox="0 0 32 32" fill="none" xmlns="http://www.w3.org/2000/svg">
<path fill-rule="evenodd" clip-rule="evenodd" d="M16 1C16.5523 1 17 1.44772 17 2V30C17 30.5523 16.5523 31 16 31C15.4477 31 15 30.5523 15 30V2C15 1.44772 15.4477 1 16 1Z" fill="black"/>
<path fill-rule="evenodd" clip-rule="evenodd" d="M4.08963 15.5862C4.31817 15.0834 4.91102 14.8611 5.4138 15.0896L16 19.9015L26.5862 15.0896C27.089 14.8611 27.6818 15.0834 27.9104 15.5862C28.1389 16.089 27.9166 16.6818 27.4138 16.9104L16.4138 21.9104C16.1509 22.0299 15.8491 22.0299 15.5862 21.9104L4.5862 16.9104C4.08342 16.6818 3.8611 16.089 4.08963 15.5862Z" fill="black"/>
<path fill-rule="evenodd" clip-rule="evenodd" d="M16 1C16.3069 1 16.5967 1.14089 16.7863 1.38218L27.7863 15.3822C28.0712 15.7448 28.0712 16.2552 27.7863 16.6178L16.7863 30.6178C16.5967 30.8591 16.3069 31 16 31C15.6931 31 15.4033 30.8591 15.2137 30.6178L4.21368 16.6178C3.92877 16.2552 3.92877 15.7448 4.21368 15.3822L15.2137 1.38218C15.4033 1.14089 15.6931 1 16 1ZM6.27175 16L16 28.3814L25.7283 16L16 3.61859L6.27175 16Z" fill="black"/>
</svg>
