<svg width="32" height="32" viewBox="0 0 32 32" fill="none" xmlns="http://www.w3.org/2000/svg">
<path fill-rule="evenodd" clip-rule="evenodd" d="M2.62364 8.07355C3.13532 7.86569 3.71862 8.11197 3.92649 8.62364L9.50002 22.3431L15.0736 8.62364C15.2267 8.24662 15.5931 8.00002 16 8.00002C16.407 8.00002 16.7733 8.24662 16.9265 8.62364L22.5 22.3431L28.0736 8.62364C28.2814 8.11197 28.8647 7.86569 29.3764 8.07355C29.8881 8.28142 30.1344 8.86472 29.9265 9.3764L23.4265 25.3764C23.2733 25.7534 22.907 26 22.5 26C22.0931 26 21.7267 25.7534 21.5736 25.3764L16 11.6569L10.4265 25.3764C10.2733 25.7534 9.90696 26 9.50002 26C9.09308 26 8.72672 25.7534 8.57355 25.3764L2.07355 9.3764C1.86569 8.86472 2.11197 8.28142 2.62364 8.07355Z" fill="black"/>
<path fill-rule="evenodd" clip-rule="evenodd" d="M1 17C1 16.4477 1.44772 16 2 16H30C30.5523 16 31 16.4477 31 17C31 17.5523 30.5523 18 30 18H2C1.44772 18 1 17.5523 1 17Z" fill="black"/>
</svg>
