<svg width="32" height="32" viewBox="0 0 32 32" fill="none" xmlns="http://www.w3.org/2000/svg">
<path fill-rule="evenodd" clip-rule="evenodd" d="M4 18C4 17.4477 4.44772 17 5 17H27C27.5523 17 28 17.4477 28 18C28 18.5523 27.5523 19 27 19H5C4.44772 19 4 18.5523 4 18Z" fill="black"/>
<path fill-rule="evenodd" clip-rule="evenodd" d="M4 14C4 13.4477 4.44772 13 5 13H27C27.5523 13 28 13.4477 28 14C28 14.5523 27.5523 15 27 15H5C4.44772 15 4 14.5523 4 14Z" fill="black"/>
<path fill-rule="evenodd" clip-rule="evenodd" d="M7.67467 4.8044C8.07834 4.66552 8.52566 4.7982 8.78832 5.13473L23 23.3434V5.75C23 5.19771 23.4477 4.75 24 4.75C24.5523 4.75 25 5.19771 25 5.75V26.25C25 26.6769 24.729 27.0567 24.3253 27.1956C23.9217 27.3345 23.4743 27.2018 23.2117 26.8653L9 8.65655V26.25C9 26.8023 8.55228 27.25 8 27.25C7.44772 27.25 7 26.8023 7 26.25V5.75C7 5.3231 7.271 4.94328 7.67467 4.8044Z" fill="black"/>
</svg>
