<svg xmlns="http://www.w3.org/2000/svg" width="32" height="32" fill="none" viewBox="0 0 32 32"><path fill="#000" fill-rule="evenodd" d="M9.5 20C8.11929 20 7 21.1193 7 22.5C7 23.8807 8.11929 25 9.5 25C10.8807 25 12 23.8807 12 22.5C12 21.1193 10.8807 20 9.5 20ZM5 22.5C5 20.0147 7.01472 18 9.5 18C11.9853 18 14 20.0147 14 22.5C14 24.9853 11.9853 27 9.5 27C7.01472 27 5 24.9853 5 22.5Z" clip-rule="evenodd"/><path fill="#000" fill-rule="evenodd" d="M22.5 20C21.1193 20 20 21.1193 20 22.5C20 23.8807 21.1193 25 22.5 25C23.8807 25 25 23.8807 25 22.5C25 21.1193 23.8807 20 22.5 20ZM18 22.5C18 20.0147 20.0147 18 22.5 18C24.9853 18 27 20.0147 27 22.5C27 24.9853 24.9853 27 22.5 27C20.0147 27 18 24.9853 18 22.5Z" clip-rule="evenodd"/><path fill="#000" fill-rule="evenodd" d="M12 22.5C12 21.9477 12.4477 21.5 13 21.5H19C19.5523 21.5 20 21.9477 20 22.5C20 23.0523 19.5523 23.5 19 23.5H13C12.4477 23.5 12 23.0523 12 22.5Z" clip-rule="evenodd"/><path fill="#000" fill-rule="evenodd" d="M0 15C0 14.4477 0.447715 14 1 14H31C31.5523 14 32 14.4477 32 15C32 15.5523 31.5523 16 31 16H1C0.447715 16 0 15.5523 0 15Z" clip-rule="evenodd"/><path fill="#000" fill-rule="evenodd" d="M11.064 4.99511C11.3526 4.84574 11.6733 4.76896 11.9983 4.77142C12.3233 4.77388 12.6428 4.85551 12.9292 5.00924C13.2155 5.16297 13.4601 5.38417 13.6417 5.6537L13.6454 5.65918L16 9.20357L16.0045 9.19667L18.3582 5.65369C18.5398 5.38416 18.7844 5.16297 19.0707 5.00924C19.3571 4.85551 19.6766 4.77388 20.0016 4.77142C20.3266 4.76896 20.6473 4.84574 20.9359 4.99511C21.2241 5.14423 21.4717 5.36122 21.6572 5.62734C21.6576 5.62779 21.6579 5.62825 21.6582 5.6287L27.8191 14.4264C28.1359 14.8788 28.026 15.5024 27.5736 15.8192C27.1212 16.136 26.4976 16.026 26.1808 15.5736L20.0168 6.77138L17.6723 10.3005C17.4908 10.5772 17.2434 10.8046 16.9524 10.9623C16.6599 11.1206 16.3326 11.2036 16 11.2036C15.6674 11.2036 15.34 11.1206 15.0475 10.9623C14.7565 10.8046 14.5091 10.5772 14.3276 10.3005L11.9832 6.77138L11.9816 6.77365L5.81909 15.5736C5.50229 16.026 4.87873 16.136 4.42635 15.8192C3.97396 15.5024 3.86404 14.8788 4.18084 14.4264L10.3417 5.6287C10.3421 5.62825 10.3424 5.62779 10.3427 5.62734C10.5283 5.36122 10.7758 5.14423 11.064 4.99511Z" clip-rule="evenodd"/></svg>