<svg xmlns="http://www.w3.org/2000/svg" width="32" height="32" fill="none" viewBox="0 0 32 32"><path fill="#000" fill-rule="evenodd" d="M10.9928 9.41986C10.2117 8.63881 10.2117 7.37248 10.9928 6.59143L14.5814 3.00286C15.3624 2.22182 16.6287 2.22182 17.4098 3.00286L20.9957 6.58878C21.7768 7.36983 21.7768 8.63616 20.9957 9.41721L17.4071 13.0058C16.6261 13.7868 15.3598 13.7868 14.5787 13.0058L10.9928 9.41986ZM15.9956 4.41708L12.407 8.00565L15.9929 11.5916L19.5815 8.00299L15.9956 4.41708Z" clip-rule="evenodd"/><path fill="#000" fill-rule="evenodd" d="M18.994 17.4199C18.2129 16.6388 18.2129 15.3725 18.994 14.5914L22.5826 11.0029C23.3636 10.2218 24.6299 10.2218 25.411 11.0029L28.9969 14.5888C29.7779 15.3698 29.7779 16.6362 28.9969 17.4172L25.4083 21.0058C24.6273 21.7868 23.361 21.7868 22.5799 21.0058L18.994 17.4199ZM23.9968 12.4171L20.4082 16.0056L23.9941 19.5916L27.5827 16.003L23.9968 12.4171Z" clip-rule="evenodd"/><path fill="#000" fill-rule="evenodd" d="M2.9928 17.4086C2.21175 16.6275 2.21175 15.3612 2.9928 14.5801L6.58136 10.9916C7.36241 10.2105 8.62874 10.2105 9.40979 10.9916L12.9957 14.5775C13.7768 15.3585 13.7768 16.6249 12.9957 17.4059L9.40714 20.9945C8.62609 21.7755 7.35976 21.7755 6.57871 20.9945L2.9928 17.4086ZM7.99558 12.4058L4.40701 15.9944L7.99293 19.5803L11.5815 15.9917L7.99558 12.4058Z" clip-rule="evenodd"/><path fill="#000" fill-rule="evenodd" d="M10.994 25.4086C10.2129 24.6275 10.2129 23.3612 10.994 22.5801L14.5826 18.9916C15.3636 18.2105 16.6299 18.2105 17.411 18.9916L20.9969 22.5775C21.7779 23.3585 21.7779 24.6249 20.9969 25.4059L17.4083 28.9945C16.6273 29.7755 15.361 29.7755 14.5799 28.9945L10.994 25.4086ZM15.9968 20.4058L12.4082 23.9944L15.9941 27.5803L19.5827 23.9917L15.9968 20.4058Z" clip-rule="evenodd"/></svg>