<svg width="32" height="32" viewBox="0 0 32 32" fill="none" xmlns="http://www.w3.org/2000/svg">
<path d="M12 19.5C12.8284 19.5 13.5 18.8284 13.5 18C13.5 17.1716 12.8284 16.5 12 16.5C11.1716 16.5 10.5 17.1716 10.5 18C10.5 18.8284 11.1716 19.5 12 19.5Z" fill="black"/>
<path d="M20 19.5C20.8284 19.5 21.5 18.8284 21.5 18C21.5 17.1716 20.8284 16.5 20 16.5C19.1716 16.5 18.5 17.1716 18.5 18C18.5 18.8284 19.1716 19.5 20 19.5Z" fill="black"/>
<path fill-rule="evenodd" clip-rule="evenodd" d="M15.9926 9.99997C13.8247 9.98394 11.6677 10.3059 9.59902 10.9542C9.07201 11.1194 8.51089 10.8261 8.34572 10.2991C8.18055 9.77206 8.47388 9.21094 9.00088 9.04577C11.2655 8.33601 13.6268 7.98319 15.9999 7.99997C18.3731 7.98319 20.7344 8.33601 22.999 9.04577C23.526 9.21094 23.8194 9.77206 23.6542 10.2991C23.489 10.8261 22.9279 11.1194 22.4009 10.9542C20.3322 10.3059 18.1752 9.98394 16.0073 9.99997H15.9926Z" fill="black"/>
<path fill-rule="evenodd" clip-rule="evenodd" d="M8.34572 21.7009C8.51089 21.1739 9.07201 20.8806 9.59902 21.0458C11.6677 21.6941 13.8247 22.0161 15.9926 22H16.0073C18.1752 22.0161 20.3322 21.6941 22.4009 21.0458C22.9279 20.8806 23.489 21.1739 23.6542 21.7009C23.8194 22.2279 23.526 22.7891 22.999 22.9542C20.7344 23.664 18.3731 24.0168 15.9999 24C13.6268 24.0168 11.2655 23.664 9.00088 22.9542C8.47388 22.7891 8.18055 22.2279 8.34572 21.7009Z" fill="black"/>
<path fill-rule="evenodd" clip-rule="evenodd" d="M20.2199 4.81101C20.6504 4.56831 21.1551 4.49247 21.6378 4.59791C22.9554 4.88346 24.2453 5.28403 25.4928 5.79504C25.7736 5.90332 26.0259 6.07476 26.2299 6.29618C26.4362 6.51998 26.5875 6.78865 26.672 7.08095L30.9079 21.2253C31.0183 21.5938 31.0209 21.9862 30.9152 22.3561C30.8095 22.726 30.6 23.0579 30.3116 23.3124L30.3064 23.3169C28.2389 25.1159 25.4376 26.4775 22.2556 27.2575C21.8136 27.3701 21.3462 27.3263 20.9327 27.1334C20.521 26.9412 20.1882 26.613 19.9903 26.2042L18.482 23.2127C18.2334 22.7195 18.4316 22.1182 18.9248 21.8696C19.4179 21.6209 20.0193 21.8192 20.2679 22.3123L21.7804 25.3123L21.7815 25.3145C24.7194 24.5941 27.2136 23.3569 28.9936 21.8081L29.65 22.5625L28.9884 21.8126C28.9902 21.811 28.9915 21.809 28.9921 21.8067C28.9928 21.8044 28.9928 21.802 28.9921 21.7997L24.756 7.65445C24.7525 7.65304 24.7489 7.65162 24.7454 7.65017C23.6025 7.18128 22.4206 6.81392 21.2132 6.55232L21.211 6.55185C21.208 6.55119 21.2049 6.55166 21.2022 6.55317C21.1998 6.55453 21.1979 6.55664 21.1969 6.55917L20.212 9.53884C20.0386 10.0632 19.473 10.3478 18.9486 10.1745C18.4243 10.0011 18.1397 9.43554 18.313 8.91116L19.3034 5.91496C19.4629 5.44687 19.7892 5.05389 20.2199 4.81101Z" fill="black"/>
<path fill-rule="evenodd" clip-rule="evenodd" d="M10.7977 6.55317C10.795 6.55166 10.7919 6.55119 10.7889 6.55185L10.7867 6.55232C9.57939 6.81392 8.39743 7.18128 7.25453 7.65017C7.251 7.65162 7.24746 7.65304 7.24392 7.65445L3.00794 21.7994C3.00725 21.8017 3.00715 21.8044 3.00781 21.8067C3.0084 21.8088 3.00951 21.8106 3.01103 21.8121C4.79072 23.3591 7.28311 24.5947 10.2185 25.3145L10.2195 25.3123L11.732 22.3123C11.9807 21.8192 12.582 21.6209 13.0752 21.8696C13.5683 22.1182 13.7665 22.7195 13.5179 23.2127L12.0097 26.2043C11.8118 26.613 11.479 26.9412 11.0672 27.1334C10.6537 27.3263 10.1863 27.3701 9.74432 27.2575C6.56239 26.4775 3.76102 25.1159 1.69355 23.3169L1.68837 23.3124C1.3999 23.0579 1.19044 22.726 1.08476 22.3561C0.979102 21.9863 0.981619 21.594 1.092 21.2256C1.09198 21.2257 1.09203 21.2255 1.092 21.2256L5.3279 7.08097C5.41243 6.78867 5.56377 6.51999 5.77003 6.29618C5.97408 6.07475 6.2263 5.90331 6.50711 5.79504C7.75497 5.28389 9.04529 4.88323 10.3632 4.59768C10.8456 4.49259 11.3499 4.56849 11.78 4.81101C12.2108 5.05389 12.537 5.44688 12.6965 5.91497L12.6995 5.92364L13.6869 8.91116C13.8603 9.43554 13.5757 10.0011 13.0513 10.1745C12.5269 10.3478 11.9613 10.0632 11.788 9.53884L10.8031 6.55916C10.802 6.55664 10.8001 6.55453 10.7977 6.55317Z" fill="black"/>
<path d="M12 19.5C12.8284 19.5 13.5 18.8284 13.5 18C13.5 17.1716 12.8284 16.5 12 16.5C11.1716 16.5 10.5 17.1716 10.5 18C10.5 18.8284 11.1716 19.5 12 19.5Z" fill="black"/>
<path d="M20 19.5C20.8284 19.5 21.5 18.8284 21.5 18C21.5 17.1716 20.8284 16.5 20 16.5C19.1716 16.5 18.5 17.1716 18.5 18C18.5 18.8284 19.1716 19.5 20 19.5Z" fill="black"/>
<path fill-rule="evenodd" clip-rule="evenodd" d="M15.9926 9.99997C13.8247 9.98394 11.6677 10.3059 9.59902 10.9542C9.07201 11.1194 8.51089 10.8261 8.34572 10.2991C8.18055 9.77206 8.47388 9.21094 9.00088 9.04577C11.2655 8.33601 13.6268 7.98319 15.9999 7.99997C18.3731 7.98319 20.7344 8.33601 22.999 9.04577C23.526 9.21094 23.8194 9.77206 23.6542 10.2991C23.489 10.8261 22.9279 11.1194 22.4009 10.9542C20.3322 10.3059 18.1752 9.98394 16.0073 9.99997H15.9926Z" fill="black"/>
<path fill-rule="evenodd" clip-rule="evenodd" d="M8.34572 21.7009C8.51089 21.1739 9.07201 20.8806 9.59902 21.0458C11.6677 21.6941 13.8247 22.0161 15.9926 22H16.0073C18.1752 22.0161 20.3322 21.6941 22.4009 21.0458C22.9279 20.8806 23.489 21.1739 23.6542 21.7009C23.8194 22.2279 23.526 22.7891 22.999 22.9542C20.7344 23.664 18.3731 24.0168 15.9999 24C13.6268 24.0168 11.2655 23.664 9.00088 22.9542C8.47388 22.7891 8.18055 22.2279 8.34572 21.7009Z" fill="black"/>
<path fill-rule="evenodd" clip-rule="evenodd" d="M20.2199 4.81101C20.6504 4.56831 21.1551 4.49247 21.6378 4.59791C22.9554 4.88346 24.2453 5.28403 25.4928 5.79504C25.7736 5.90332 26.0259 6.07476 26.2299 6.29618C26.4362 6.51998 26.5875 6.78865 26.672 7.08095L30.9079 21.2253C31.0183 21.5938 31.0209 21.9862 30.9152 22.3561C30.8095 22.726 30.6 23.0579 30.3116 23.3124L30.3064 23.3169C28.2389 25.1159 25.4376 26.4775 22.2556 27.2575C21.8136 27.3701 21.3462 27.3263 20.9327 27.1334C20.521 26.9412 20.1882 26.613 19.9903 26.2042L18.482 23.2127C18.2334 22.7195 18.4316 22.1182 18.9248 21.8696C19.4179 21.6209 20.0193 21.8192 20.2679 22.3123L21.7804 25.3123L21.7815 25.3145C24.7194 24.5941 27.2136 23.3569 28.9936 21.8081L29.65 22.5625L28.9884 21.8126C28.9902 21.811 28.9915 21.809 28.9921 21.8067C28.9928 21.8044 28.9928 21.802 28.9921 21.7997L24.756 7.65445C24.7525 7.65304 24.7489 7.65162 24.7454 7.65017C23.6025 7.18128 22.4206 6.81392 21.2132 6.55232L21.211 6.55185C21.208 6.55119 21.2049 6.55166 21.2022 6.55317C21.1998 6.55453 21.1979 6.55664 21.1969 6.55917L20.212 9.53884C20.0386 10.0632 19.473 10.3478 18.9486 10.1745C18.4243 10.0011 18.1397 9.43554 18.313 8.91116L19.3034 5.91496C19.4629 5.44687 19.7892 5.05389 20.2199 4.81101Z" fill="black"/>
<path fill-rule="evenodd" clip-rule="evenodd" d="M10.7977 6.55317C10.795 6.55166 10.7919 6.55119 10.7889 6.55185L10.7867 6.55232C9.57939 6.81392 8.39743 7.18128 7.25453 7.65017C7.251 7.65162 7.24746 7.65304 7.24392 7.65445L3.00794 21.7994C3.00725 21.8017 3.00715 21.8044 3.00781 21.8067C3.0084 21.8088 3.00951 21.8106 3.01103 21.8121C4.79072 23.3591 7.28311 24.5947 10.2185 25.3145L10.2195 25.3123L11.732 22.3123C11.9807 21.8192 12.582 21.6209 13.0752 21.8696C13.5683 22.1182 13.7665 22.7195 13.5179 23.2127L12.0097 26.2043C11.8118 26.613 11.479 26.9412 11.0672 27.1334C10.6537 27.3263 10.1863 27.3701 9.74432 27.2575C6.56239 26.4775 3.76102 25.1159 1.69355 23.3169L1.68837 23.3124C1.3999 23.0579 1.19044 22.726 1.08476 22.3561C0.979102 21.9863 0.981619 21.594 1.092 21.2256C1.09198 21.2257 1.09203 21.2255 1.092 21.2256L5.3279 7.08097C5.41243 6.78867 5.56377 6.51999 5.77003 6.29618C5.97408 6.07475 6.2263 5.90331 6.50711 5.79504C7.75497 5.28389 9.04529 4.88323 10.3632 4.59768C10.8456 4.49259 11.3499 4.56849 11.78 4.81101C12.2108 5.05389 12.537 5.44688 12.6965 5.91497L12.6995 5.92364L13.6869 8.91116C13.8603 9.43554 13.5757 10.0011 13.0513 10.1745C12.5269 10.3478 11.9613 10.0632 11.788 9.53884L10.8031 6.55916C10.802 6.55664 10.8001 6.55453 10.7977 6.55317Z" fill="black"/>
</svg>
