<svg width="32" height="32" viewBox="0 0 32 32" fill="none" xmlns="http://www.w3.org/2000/svg">
<path fill-rule="evenodd" clip-rule="evenodd" d="M16 5C9.92487 5 5 9.92487 5 16C5 22.0751 9.92487 27 16 27C22.0751 27 27 22.0751 27 16C27 9.92487 22.0751 5 16 5ZM3 16C3 8.8203 8.8203 3 16 3C23.1797 3 29 8.8203 29 16C29 23.1797 23.1797 29 16 29C8.8203 29 3 23.1797 3 16Z" fill="black"/>
<path fill-rule="evenodd" clip-rule="evenodd" d="M16 13C14.3431 13 13 14.3431 13 16C13 17.6569 14.3431 19 16 19C17.6569 19 19 17.6569 19 16C19 14.3431 17.6569 13 16 13ZM11 16C11 13.2386 13.2386 11 16 11C18.7614 11 21 13.2386 21 16C21 18.7614 18.7614 21 16 21C13.2386 21 11 18.7614 11 16Z" fill="black"/>
<path fill-rule="evenodd" clip-rule="evenodd" d="M19 16C19 15.4477 19.4477 15 20 15H28C28.5523 15 29 15.4477 29 16C29 16.5523 28.5523 17 28 17H20C19.4477 17 19 16.5523 19 16Z" fill="black"/>
<path fill-rule="evenodd" clip-rule="evenodd" d="M25.1946 6.80534C25.5851 7.19587 25.5851 7.82903 25.1946 8.21956L19.5321 13.8821C19.1415 14.2726 18.5084 14.2726 18.1178 13.8821C17.7273 13.4915 17.7273 12.8584 18.1178 12.4678L23.7803 6.80534C24.1709 6.41482 24.804 6.41482 25.1946 6.80534Z" fill="black"/>
</svg>
