<svg xmlns="http://www.w3.org/2000/svg" width="32" height="32" fill="none" viewBox="0 0 32 32"><path fill="#000" fill-rule="evenodd" d="M16 23C16.5523 23 17 23.4477 17 24V27C17 27.5523 16.5523 28 16 28C15.4477 28 15 27.5523 15 27V24C15 23.4477 15.4477 23 16 23Z" clip-rule="evenodd"/><path fill="#000" d="M11.5 19C12.3284 19 13 18.3284 13 17.5C13 16.6716 12.3284 16 11.5 16C10.6716 16 10 16.6716 10 17.5C10 18.3284 10.6716 19 11.5 19Z"/><path fill="#000" d="M20.5 19C21.3284 19 22 18.3284 22 17.5C22 16.6716 21.3284 16 20.5 16C19.6716 16 19 16.6716 19 17.5C19 18.3284 19.6716 19 20.5 19Z"/><path fill="#000" fill-rule="evenodd" d="M13.2929 21.2929C13.6834 20.9024 14.3166 20.9024 14.7071 21.2929L16 22.5858L17.2929 21.2929C17.6834 20.9024 18.3166 20.9024 18.7071 21.2929C19.0976 21.6834 19.0976 22.3166 18.7071 22.7071L16.7071 24.7071C16.3166 25.0976 15.6834 25.0976 15.2929 24.7071L13.2929 22.7071C12.9024 22.3166 12.9024 21.6834 13.2929 21.2929Z" clip-rule="evenodd"/><path fill="#000" fill-rule="evenodd" d="M25.7323 3.29241C25.9948 3.22651 26.268 3.21459 26.5353 3.25738C26.803 3.30024 27.0593 3.3971 27.2884 3.54208C27.5176 3.68706 27.7149 3.87712 27.8683 4.10072C28.0217 4.32432 28.1281 4.57678 28.1809 4.84276L28.183 4.85347L30.2337 15.8076C30.6073 17.8498 27.9904 19.0575 26.6895 17.4064L18.2137 6.61778C18.0041 6.3511 17.9441 5.9964 18.0541 5.67561C18.1641 5.35481 18.4292 5.11163 18.7583 5.02965L25.7309 3.29276C25.7313 3.29264 25.7318 3.29253 25.7323 3.29241ZM20.7407 6.59695L28.2605 16.1686C28.2604 16.1685 28.2606 16.1687 28.2605 16.1686C28.2611 16.1694 28.2619 16.1704 28.2624 16.171C28.2628 16.1709 28.2632 16.1707 28.2636 16.1705C28.2647 16.17 28.2657 16.1695 28.2666 16.169C28.2666 16.1689 28.2667 16.1692 28.2666 16.169C28.2666 16.1687 28.2664 16.1678 28.2663 16.1674L26.2191 5.23225L26.2167 5.23285L20.7407 6.59695Z" clip-rule="evenodd"/><path fill="#000" fill-rule="evenodd" d="M6.26778 3.29241C6.26824 3.29253 6.26871 3.29264 6.26918 3.29276L13.2417 5.02965C13.5708 5.11163 13.8359 5.35481 13.946 5.67561C14.056 5.9964 13.9959 6.3511 13.7864 6.61778L5.31052 17.4064C4.0096 19.0575 1.39277 17.8498 1.76635 15.8076L1.7671 15.8035L3.81912 4.84275C3.87193 4.57677 3.97833 4.32432 4.13174 4.10072C4.28516 3.87713 4.48244 3.68706 4.7116 3.54208C4.94076 3.3971 5.19701 3.30024 5.46477 3.25738C5.73206 3.21459 6.00524 3.22651 6.26778 3.29241ZM5.78094 5.23226L3.73371 16.1674C3.73364 16.1678 3.73357 16.1682 3.73351 16.1686C3.73348 16.1687 3.73354 16.1684 3.73351 16.1686C3.73446 16.169 3.73538 16.17 3.73644 16.1705C3.73684 16.1707 3.73723 16.1709 3.73762 16.171C3.73816 16.1704 3.73872 16.1697 3.7393 16.1689C3.73922 16.169 3.73938 16.1688 3.7393 16.1689L11.2594 6.59695L5.78094 5.23226Z" clip-rule="evenodd"/><path fill="#000" fill-rule="evenodd" d="M12 6C12 5.44772 12.4477 5 13 5H19C19.5523 5 20 5.44772 20 6C20 6.55228 19.5523 7 19 7H13C12.4477 7 12 6.55228 12 6Z" clip-rule="evenodd"/><path fill="#000" fill-rule="evenodd" d="M6 13.9125C6.55228 13.9125 7 14.3602 7 14.9125V23C7 23.7956 7.31607 24.5587 7.87868 25.1213C8.44129 25.6839 9.20435 26 10 26H22C22.7956 26 23.5587 25.6839 24.1213 25.1213C24.6839 24.5587 25 23.7956 25 23V14.9125C25 14.3602 25.4477 13.9125 26 13.9125C26.5523 13.9125 27 14.3602 27 14.9125V23C27 24.3261 26.4732 25.5978 25.5355 26.5355C24.5979 27.4732 23.3261 28 22 28H10C8.67392 28 7.40215 27.4732 6.46447 26.5355C5.52678 25.5978 5 24.3261 5 23V14.9125C5 14.3602 5.44772 13.9125 6 13.9125Z" clip-rule="evenodd"/></svg>