<svg width="32" height="32" viewBox="0 0 32 32" fill="none" xmlns="http://www.w3.org/2000/svg">
<path fill-rule="evenodd" clip-rule="evenodd" d="M16 5C9.92487 5 5 9.92487 5 16C5 22.0751 9.92487 27 16 27C22.0751 27 27 22.0751 27 16C27 9.92487 22.0751 5 16 5ZM3 16C3 8.8203 8.8203 3 16 3C23.1797 3 29 8.8203 29 16C29 23.1797 23.1797 29 16 29C8.8203 29 3 23.1797 3 16Z" fill="black"/>
<path fill-rule="evenodd" clip-rule="evenodd" d="M26 17C22.7275 17.0006 19.5105 17.8458 16.6604 19.454C13.8102 21.0621 11.4234 23.3788 9.7309 26.1797C9.44528 26.6524 8.83054 26.804 8.35785 26.5184C7.88516 26.2327 7.73352 25.618 8.01915 25.1453C9.88969 22.0498 12.5276 19.4894 15.6776 17.7121C18.8276 15.9348 22.383 15.0006 25.9999 15H26C26.7122 15 27.4066 15.0396 28.0939 15.1044C28.6438 15.1563 29.0475 15.6441 28.9956 16.1939C28.9437 16.7438 28.4559 17.1475 27.9061 17.0956C27.2685 17.0354 26.638 17 26.0002 17" fill="black"/>
<path fill-rule="evenodd" clip-rule="evenodd" d="M24.1314 5.86205C24.5597 6.21077 24.6242 6.84065 24.2754 7.26891C22.3074 9.68591 19.8254 11.6339 17.0099 12.9712C14.1945 14.3086 11.1164 15.0016 7.99946 15L7.99885 15C6.6755 14.9985 5.35507 14.8757 4.05415 14.633C3.51122 14.5318 3.15318 14.0096 3.25443 13.4667C3.35569 12.9237 3.8779 12.5657 4.42082 12.6669C5.60137 12.8871 6.79961 12.9986 8.00051 13M24.1314 5.86205C23.7031 5.51333 23.0733 5.57782 22.7245 6.00608L24.1314 5.86205ZM22.7245 6.00608C20.9441 8.19262 18.6988 9.95487 16.1518 11.1647L22.7245 6.00608ZM16.1518 11.1647C13.605 12.3744 10.8206 13.0014 8.00112 13L16.1518 11.1647Z" fill="black"/>
<path fill-rule="evenodd" clip-rule="evenodd" d="M9.876 4.70468C10.1565 4.22891 10.7695 4.07058 11.2453 4.35104C15.1514 6.65363 18.2101 10.1553 19.9668 14.3354C21.7235 18.5155 22.0844 23.151 20.9957 27.5526C20.8631 28.0887 20.321 28.4158 19.7849 28.2832C19.2487 28.1506 18.9216 27.6085 19.0542 27.0724C20.0395 23.0887 19.7129 18.8935 18.123 15.1103C16.5331 11.327 13.7648 8.15791 10.2296 6.07396C9.75387 5.7935 9.59554 5.18045 9.876 4.70468Z" fill="black"/>
</svg>
