<svg xmlns="http://www.w3.org/2000/svg" width="32" height="32" fill="none" viewBox="0 0 32 32"><path fill="#000" fill-rule="evenodd" d="M5.32733 4.26007C5.73599 3.88856 6.36844 3.91868 6.73995 4.32733L26.7399 26.3273C27.1115 26.736 27.0813 27.3684 26.6727 27.7399C26.264 28.1115 25.6316 28.0813 25.2601 27.6727L5.26007 5.67268C4.88856 5.26402 4.91868 4.63157 5.32733 4.26007Z" clip-rule="evenodd"/><path fill="#000" fill-rule="evenodd" d="M11.8309 10.0611C12.3357 10.2852 12.5631 10.8761 12.339 11.3809C12.1132 11.8892 11.9977 12.4396 12 12.9958C12.0024 13.548 11.5565 13.9976 11.0043 14C10.452 14.0023 10.0024 13.5565 10.0001 13.0042C9.99651 12.1655 10.1707 11.3356 10.5111 10.5691C10.7353 10.0643 11.3262 9.83689 11.8309 10.0611Z" clip-rule="evenodd"/><path fill="#000" fill-rule="evenodd" d="M20.4437 5.17289C19.0602 4.38739 17.4932 3.98265 15.9023 3.99992C14.3115 4.01719 12.7537 4.45585 11.3875 5.2712C10.9133 5.55425 10.2994 5.39926 10.0163 4.92502C9.7333 4.45078 9.88829 3.83688 10.3625 3.55383C12.0322 2.55728 13.9363 2.02115 15.8806 2.00004C17.825 1.97893 19.7402 2.47361 21.4311 3.43367C23.1221 4.39373 24.5283 5.78487 25.5066 7.46535C26.4848 9.14583 27.0002 11.0556 27 13.0001C27 13.5524 26.5523 14.0001 26 14C25.4477 14 25 13.5522 25 13C25.0001 11.409 24.5785 9.84648 23.7781 8.47154C22.9777 7.0966 21.8272 5.9584 20.4437 5.17289Z" clip-rule="evenodd"/><path fill="#000" fill-rule="evenodd" d="M8.50098 6.30396C8.94751 6.62896 9.04602 7.25442 8.72101 7.70095C7.60071 9.24011 6.99809 11.0953 7 12.999L7 13C7 14.6418 7.26347 15.6976 7.60988 16.4426C7.95525 17.1853 8.4151 17.6918 8.94963 18.2151C9.0232 18.2872 9.10037 18.3613 9.18006 18.4379C9.6535 18.8929 10.2162 19.4336 10.6469 20.1284C11.1796 20.9879 11.4999 22.0426 11.5 23.4992C11.5 23.4995 11.5 23.4997 11.5 23.5H10.5L11.5 23.4988C11.5 23.499 11.5 23.4991 11.5 23.4992C11.5011 24.4248 11.7876 25.3275 12.3205 26.0843C12.8534 26.8412 13.6067 27.4154 14.4779 27.7285C15.349 28.0416 16.2955 28.0785 17.1884 27.834C18.0812 27.5895 18.8769 27.0757 19.467 26.3625C19.8191 25.937 20.4495 25.8774 20.875 26.2295C21.3005 26.5816 21.36 27.2119 21.008 27.6375C20.1555 28.6677 19.0062 29.4099 17.7165 29.763C16.4269 30.1161 15.0597 30.0629 13.8014 29.6106C12.5431 29.1583 11.4549 28.329 10.6851 27.2357C9.91535 26.1423 9.50151 24.8382 9.5 23.5011L9.5 23.5C9.5 22.3632 9.25784 21.6837 8.9469 21.1821C8.65897 20.7175 8.29887 20.3692 7.82328 19.9093C7.73627 19.8251 7.64539 19.7372 7.55038 19.6442C6.9599 19.066 6.29475 18.3576 5.79637 17.2859C5.29903 16.2164 5 14.8582 5 13" clip-rule="evenodd"/><path fill="#000" fill-rule="evenodd" d="M14.0467 7.33045C14.9503 7.01637 15.916 6.92337 16.8629 7.05923C17.8098 7.19509 18.7104 7.55586 19.4892 8.11132C20.2681 8.66679 20.9025 9.40078 21.3393 10.2518C21.7745 11.0997 22.001 12.0392 22 12.9921C22.0148 13.8897 21.7271 14.7663 21.1832 15.4808C20.8486 15.9202 20.2212 16.0052 19.7818 15.6707C19.3423 15.3361 19.2573 14.7087 19.5919 14.2693C19.865 13.9105 20.0089 13.47 20.0002 13.0193L20 12.9972C20.0018 12.3601 19.8509 11.7319 19.56 11.1651C19.2691 10.5984 18.8466 10.1095 18.3279 9.73962C17.8092 9.3697 17.2095 9.12943 16.5789 9.03895C15.9482 8.94848 15.3051 9.01041 14.7034 9.21958C14.1817 9.40091 13.6118 9.12501 13.4305 8.60334C13.2491 8.08167 13.525 7.51178 14.0467 7.33045Z" clip-rule="evenodd"/><path fill="#000" fill-rule="evenodd" d="M18.0487 16.9252C18.5663 17.1178 18.8298 17.6936 18.6372 18.2112C18.5443 18.4609 18.4978 18.7254 18.5 18.9918L18.5 18.9942C18.5013 19.2362 18.5607 19.4742 18.6731 19.6884C18.7856 19.9026 18.9477 20.0868 19.146 20.2254C19.3443 20.3639 19.5729 20.4529 19.8127 20.4849C20.0525 20.5168 20.2965 20.4908 20.5242 20.4089C21.0439 20.2221 21.6167 20.4919 21.8035 21.0116C21.9904 21.5313 21.7205 22.1041 21.2008 22.291C20.6721 22.4811 20.1056 22.5415 19.5487 22.4674C18.9918 22.3932 18.4608 22.1865 18.0003 21.8647C17.5398 21.5428 17.1632 21.1152 16.9022 20.6178C16.6413 20.1207 16.5034 19.5683 16.5 19.0069C16.5 19.0065 16.5 19.0061 16.5 19.0057L17.5 19L16.5 19.0081C16.5 19.0077 16.5 19.0073 16.5 19.0069C16.496 18.4973 16.5851 17.9913 16.7628 17.5137C16.9554 16.9961 17.5311 16.7326 18.0487 16.9252Z" clip-rule="evenodd"/></svg>