<svg width="32" height="32" viewBox="0 0 32 32" fill="none" xmlns="http://www.w3.org/2000/svg">
<path fill-rule="evenodd" clip-rule="evenodd" d="M10.3321 8.5547C8.41914 11.4241 7 15.2343 7 19C7 21.3869 7.94821 23.6761 9.63604 25.364C11.3239 27.0518 13.6131 28 16 28C18.3869 28 20.6761 27.0518 22.364 25.364C24.0518 23.6761 25 21.3869 25 19C25 15.2343 23.5809 11.4241 21.6679 8.5547C20.7138 7.12343 19.6586 5.95965 18.6361 5.16435C17.595 4.3546 16.6842 4 16 4C15.3158 4 14.405 4.3546 13.3639 5.16435C12.3414 5.95965 11.2862 7.12343 10.3321 8.5547ZM12.1361 3.58565C13.345 2.6454 14.6842 2 16 2C17.3158 2 18.655 2.6454 19.8639 3.58565C21.0914 4.54035 22.2862 5.87657 23.3321 7.4453C25.4191 10.5759 27 14.7657 27 19C27 21.9174 25.8411 24.7153 23.7782 26.7782C21.7153 28.8411 18.9174 30 16 30C13.0826 30 10.2847 28.8411 8.22183 26.7782C6.15893 24.7153 5 21.9174 5 19C5 14.7657 6.58086 10.5759 8.66795 7.4453C9.71377 5.87657 10.9086 4.54035 12.1361 3.58565Z" fill="black"/>
<path fill-rule="evenodd" clip-rule="evenodd" d="M22.2554 5.99327C22.6664 6.36216 22.7006 6.99441 22.3317 7.40543L17.9349 12.3045L20.1874 13.1805C20.6381 13.3557 20.8988 13.8283 20.8067 14.303L19.9067 18.9405C19.8015 19.4827 19.2766 19.8369 18.7345 19.7317C18.1923 19.6265 17.8381 19.1017 17.9433 18.5595L18.6842 14.7418L15.8625 13.6445C15.5566 13.5255 15.3285 13.2639 15.2523 12.9446C15.1761 12.6253 15.2615 12.2889 15.4808 12.0446L20.8433 6.06956C21.2122 5.65854 21.8444 5.62439 22.2554 5.99327Z" fill="black"/>
</svg>
