<svg width="32" height="32" viewBox="0 0 32 32" fill="none" xmlns="http://www.w3.org/2000/svg">
<path fill-rule="evenodd" clip-rule="evenodd" d="M15.1866 3.64331C15.4424 3.52856 15.7196 3.46924 16 3.46924C16.2804 3.46924 16.5576 3.52856 16.8134 3.64331C17.0661 3.75664 17.2923 3.92151 17.4774 4.1273L27.1879 14.65C27.4497 14.9363 27.6227 15.2925 27.6857 15.6753C27.7487 16.0581 27.699 16.4509 27.5426 16.806C27.3863 17.161 27.1301 17.463 26.8052 17.675C26.4803 17.887 26.1008 17.9999 25.7128 18H6.28753C5.89958 17.9999 5.51973 17.887 5.19484 17.675C4.86996 17.4629 4.61374 17.161 4.45741 16.806C4.30109 16.4509 4.25139 16.0581 4.31439 15.6753C4.37738 15.2925 4.55035 14.9363 4.81221 14.65L4.81511 14.6469L14.5226 4.12726C14.7078 3.92149 14.934 3.75663 15.1866 3.64331ZM15.2625 4.80004L15.9974 5.47821L6.28784 16H25.7122L16.0026 5.47821L15.9908 5.46521C15.992 5.46645 15.9934 5.46745 15.9949 5.46814C15.9965 5.46887 15.9983 5.46924 16 5.46924C16.0018 5.46924 16.0035 5.46887 16.0051 5.46814C16.0068 5.46742 16.0082 5.46637 16.0094 5.46505L15.2625 4.80004Z" fill="black"/>
<path fill-rule="evenodd" clip-rule="evenodd" d="M6 27C4.89543 27 4 26.1046 4 25V22C4 20.8954 4.89543 20 6 20H26C27.1046 20 28 20.8954 28 22V25C28 26.1046 27.1046 27 26 27H6ZM6 22V25H26V22H6Z" fill="black"/>
</svg>
