<svg width="32" height="32" viewBox="0 0 32 32" fill="none" xmlns="http://www.w3.org/2000/svg">
<path fill-rule="evenodd" clip-rule="evenodd" d="M15.142 3.77528C15.4101 3.64796 15.7032 3.58191 16 3.58191C16.2968 3.58191 16.5898 3.64796 16.8579 3.77528C17.126 3.90259 17.3624 4.08798 17.55 4.31799L17.5513 4.31963L28.4556 17.7499C28.6905 18.0433 28.838 18.397 28.8811 18.7703C28.9243 19.1437 28.8614 19.5217 28.6996 19.8609C28.5378 20.2002 28.2837 20.4869 27.9664 20.6884C27.6491 20.8899 27.2814 20.9978 26.9056 20.9999L26.9 20.9999H5.09437C4.71852 20.9978 4.35088 20.8898 4.03358 20.6884C3.71629 20.4869 3.46218 20.2002 3.30038 19.8609C3.13859 19.5217 3.07567 19.1437 3.11882 18.7703C3.16197 18.397 3.30946 18.0433 3.54437 17.7499L3.54863 17.7446L14.4486 4.31963L14.45 4.31799C14.6375 4.08798 14.8739 3.90259 15.142 3.77528ZM16 5.58191L5.10563 18.9999H26.8943L16 5.58191Z" fill="black"/>
<path fill-rule="evenodd" clip-rule="evenodd" d="M3 26C3 25.4477 3.44772 25 4 25H28C28.5523 25 29 25.4477 29 26C29 26.5523 28.5523 27 28 27H4C3.44772 27 3 26.5523 3 26Z" fill="black"/>
</svg>
