<svg xmlns="http://www.w3.org/2000/svg" width="32" height="32" fill="none" viewBox="0 0 32 32"><path fill="#000" fill-rule="evenodd" d="M10.7304 11.7304C11.1209 11.3399 11.7541 11.3399 12.1446 11.7304L20.6321 20.2179C21.0226 20.6084 21.0226 21.2416 20.6321 21.6321C20.2416 22.0226 19.6084 22.0226 19.2179 21.6321L10.7304 13.1446C10.3399 12.7541 10.3399 12.1209 10.7304 11.7304Z" clip-rule="evenodd"/><path fill="#000" fill-rule="evenodd" d="M19.925 5.78571C19.7945 5.78571 19.6652 5.81158 19.5448 5.86184C19.4243 5.91209 19.315 5.98573 19.2232 6.0785L19.2196 6.08211L5.07851 20.2232C4.98574 20.315 4.91209 20.4243 4.86184 20.5448C4.81158 20.6652 4.78571 20.7945 4.78571 20.925C4.78571 21.0555 4.81158 21.1847 4.86184 21.3052C4.91209 21.4257 4.98573 21.535 5.0785 21.6268L5.08211 21.6304L9.42671 25.975H13.4611L26.2893 13.159C26.4757 12.9676 26.5801 12.711 26.5801 12.4437C26.5801 12.1766 26.4758 11.92 26.2894 11.7287L20.6268 6.07851C20.535 5.98574 20.4257 5.91209 20.3052 5.86184C20.1847 5.81158 20.0555 5.78571 19.925 5.78571ZM13.8758 27.975H27C27.5523 27.975 28 27.5273 28 26.975C28 26.4227 27.5523 25.975 27 25.975H16.2908L27.7068 14.5699L27.7135 14.5631C28.2689 13.9975 28.5801 13.2365 28.5801 12.4437C28.5801 11.651 28.2689 10.89 27.7135 10.3244L22.0482 4.67149C22.0474 4.67065 22.0465 4.66981 22.0457 4.66898C21.7684 4.38952 21.4386 4.16762 21.0753 4.01603C20.7108 3.86399 20.3199 3.78571 19.925 3.78571C19.5301 3.78571 19.1392 3.86399 18.7747 4.01603C18.4111 4.16771 18.0812 4.38979 17.8038 4.66948C17.8031 4.67015 17.8025 4.67082 17.8018 4.67149L3.67149 18.8018C3.67082 18.8025 3.67015 18.8031 3.66948 18.8038C3.38979 19.0812 3.16771 19.4111 3.01603 19.7747C2.86399 20.1392 2.78571 20.5301 2.78571 20.925C2.78571 21.3199 2.86399 21.7108 3.01603 22.0753C3.16769 22.4388 3.38972 22.7687 3.66935 23.0461C3.67007 23.0468 3.67078 23.0475 3.67149 23.0482L8.30539 27.6821C8.49292 27.8696 8.74728 27.975 9.01249 27.975H13.8742C13.8747 27.975 13.8753 27.975 13.8758 27.975Z" clip-rule="evenodd"/></svg>