<svg width="32" height="32" viewBox="0 0 32 32" fill="none" xmlns="http://www.w3.org/2000/svg">
<path fill-rule="evenodd" clip-rule="evenodd" d="M24.6359 15.0474C25.1137 14.7704 25.7256 14.9331 26.0026 15.4109L28.8651 20.3484C29.1421 20.8262 28.9794 21.4381 28.5016 21.7151C28.0238 21.9921 27.4119 21.8293 27.1349 21.3515L24.2724 16.414C23.9954 15.9362 24.1582 15.3244 24.6359 15.0474Z" fill="black"/>
<path fill-rule="evenodd" clip-rule="evenodd" d="M19.1015 17.6777C19.6454 17.5818 20.164 17.9451 20.2598 18.489L21.1473 23.5265C21.2432 24.0704 20.8799 24.589 20.336 24.6848C19.7921 24.7806 19.2735 24.4174 19.1777 23.8735L18.2902 18.836C18.1943 18.2921 18.5576 17.7735 19.1015 17.6777Z" fill="black"/>
<path fill-rule="evenodd" clip-rule="evenodd" d="M12.8856 17.6651C13.4295 17.7607 13.793 18.2791 13.6974 18.8231L12.8099 23.8731C12.7143 24.417 12.1959 24.7805 11.6519 24.6849C11.108 24.5893 10.7445 24.0709 10.8401 23.5269L11.7276 18.4769C11.8232 17.933 12.3416 17.5695 12.8856 17.6651Z" fill="black"/>
<path fill-rule="evenodd" clip-rule="evenodd" d="M7.34966 15.0463C7.82806 15.3222 7.99218 15.9337 7.71622 16.4121L4.85372 21.3746C4.57777 21.8531 3.96624 22.0172 3.48784 21.7412C3.00944 21.4653 2.84533 20.8537 3.12128 20.3753L5.98378 15.4128C6.25973 14.9344 6.87126 14.7703 7.34966 15.0463Z" fill="black"/>
<path fill-rule="evenodd" clip-rule="evenodd" d="M3.37167 12.3346C3.80131 11.9875 4.43092 12.0545 4.77794 12.4842C6.76748 14.9474 10.3592 18 16 18C21.6408 18 25.2325 14.9474 27.2221 12.4842C27.5691 12.0545 28.1987 11.9875 28.6283 12.3346C29.058 12.6816 29.125 13.3112 28.7779 13.7408C26.5675 16.4776 22.4592 20 16 20C9.54084 20 5.43253 16.4776 3.22206 13.7408C2.87504 13.3112 2.94202 12.6816 3.37167 12.3346Z" fill="black"/>
</svg>
