<svg xmlns="http://www.w3.org/2000/svg" width="32" height="32" fill="none" viewBox="0 0 32 32"><path fill="#000" fill-rule="evenodd" d="M25.2095 6.68585C24.2471 5.76719 22.6675 5.79672 21.6821 6.7821L18.2321 10.2321C17.8416 10.6226 17.2084 10.6226 16.8179 10.2321L16.2085 9.62266C16.0193 9.43735 15.7649 9.33352 15.5 9.33352C15.2351 9.33352 14.9808 9.43735 14.7916 9.62265L13.9142 10.5L13.9196 10.5054L21.5 18.0858L21.5054 18.0804L22.3773 17.2085C22.5626 17.0193 22.6665 16.7649 22.6665 16.5C22.6665 16.2351 22.5626 15.9807 22.3773 15.7915L21.7679 15.1821C21.3774 14.7916 21.3774 14.1584 21.7679 13.7679L25.2664 10.2694C25.2662 10.2696 25.2666 10.2692 25.2664 10.2694C25.5016 10.033 25.6878 9.7514 25.8127 9.44228C25.9378 9.13288 25.9997 8.80157 25.9947 8.46789C25.9897 8.1342 25.918 7.8049 25.7837 7.49938C25.6494 7.19387 25.4553 6.91833 25.2129 6.68901L25.2095 6.68585ZM23.8867 14.4775C24.3875 15.0304 24.6665 15.751 24.6665 16.5C24.6665 17.2912 24.3552 18.0507 23.7998 18.6144L23.7946 18.6196L22.9219 19.4923C22.7364 19.6798 22.5157 19.8288 22.2724 19.9306C22.0278 20.0331 21.7652 20.0858 21.5 20.0858C21.2348 20.0858 20.9722 20.0331 20.7276 19.9306C20.4843 19.8288 20.2635 19.6798 20.0781 19.4923L12.5077 11.9219C12.3202 11.7364 12.1712 11.5157 12.0694 11.2724C11.9669 11.0278 11.9142 10.7652 11.9142 10.5C11.9142 10.2348 11.9669 9.9722 12.0694 9.72756C12.1712 9.4843 12.3202 9.2636 12.5076 9.07815L13.3856 8.20016C13.9492 7.64481 14.7088 7.33352 15.5 7.33352C16.249 7.33352 16.9696 7.61248 17.5225 8.11333L20.2679 5.36789C21.982 3.65379 24.8012 3.53287 26.5889 5.23758C27.0245 5.65003 27.3733 6.14543 27.6146 6.69465C27.8563 7.24458 27.9855 7.83733 27.9945 8.43797C28.0035 9.0386 27.8921 9.63495 27.667 10.1919C27.4418 10.7488 27.1075 11.255 26.6836 11.6806L23.8867 14.4775Z" clip-rule="evenodd"/><path fill="#000" fill-rule="evenodd" d="M14.8821 11.4679C15.2726 11.8584 15.2726 12.4916 14.8821 12.8821L7.87787 19.8863C7.5041 20.2556 7.23527 20.7177 7.09897 21.2252C6.96266 21.7326 6.96377 22.2672 7.10219 22.7741C7.16223 22.994 7.14535 23.2278 7.05434 23.4368L5.88974 26.111L8.56292 24.9458C8.77199 24.8547 9.00592 24.8377 9.22593 24.8978C9.73281 25.0362 10.2674 25.0373 10.7748 24.901C11.2823 24.7647 11.7444 24.4959 12.1137 24.1221L12.1179 24.1179L19.1179 17.1179C19.5084 16.7274 20.1416 16.7274 20.5321 17.1179C20.9226 17.5084 20.9226 18.1416 20.5321 18.5321L13.5342 25.53C12.9159 26.155 12.1427 26.6045 11.2937 26.8326C10.563 27.0288 9.7987 27.055 9.05918 26.9112L6.43918 28.0533C6.43883 28.0534 6.43848 28.0536 6.43813 28.0537C6.07356 28.2134 5.66964 28.2606 5.27806 28.1894C4.8861 28.1182 4.52435 27.9315 4.23918 27.6533L4.93752 26.9375L4.23601 27.6502C3.98676 27.4048 3.81861 27.0891 3.75416 26.7453C3.69014 26.4039 3.73147 26.0512 3.87255 25.7339L5.08881 22.941C4.94498 22.2014 4.97115 21.4371 5.16743 20.7063C5.39549 19.8573 5.84499 19.0841 6.46993 18.4658L13.4679 11.4679C13.8584 11.0774 14.4916 11.0774 14.8821 11.4679Z" clip-rule="evenodd"/><path fill="#000" fill-rule="evenodd" d="M5.53751 20C5.53751 19.4477 5.98522 19 6.53751 19H17.6625C18.2148 19 18.6625 19.4477 18.6625 20C18.6625 20.5523 18.2148 21 17.6625 21H6.53751C5.98522 21 5.53751 20.5523 5.53751 20Z" clip-rule="evenodd"/></svg>