<svg width="32" height="32" viewBox="0 0 32 32" fill="none" xmlns="http://www.w3.org/2000/svg">
<path fill-rule="evenodd" clip-rule="evenodd" d="M5.32733 4.26007C5.73599 3.88856 6.36844 3.91868 6.73995 4.32733L26.7399 26.3273C27.1115 26.736 27.0813 27.3684 26.6727 27.7399C26.264 28.1115 25.6316 28.0813 25.2601 27.6727L5.26007 5.67268C4.88856 5.26402 4.91868 4.63157 5.32733 4.26007Z" fill="black"/>
<path fill-rule="evenodd" clip-rule="evenodd" d="M13.3775 11.6274C13.749 12.0361 13.7188 12.6685 13.3101 13.04C12.7127 13.583 12.2936 14.2941 12.1078 15.0798C11.9221 15.8655 11.9785 16.689 12.2695 17.442C12.5606 18.1951 13.0727 18.8424 13.7385 19.299C14.4044 19.7555 15.1928 19.9999 16.0001 20L16.0038 20C16.9968 20.0038 17.9548 19.6334 18.687 18.9626C19.0943 18.5896 19.7268 18.6173 20.0999 19.0245C20.4729 19.4317 20.4452 20.0643 20.038 20.4374C18.9355 21.4473 17.4932 22.0052 15.9981 22C14.7877 21.9995 13.6058 21.6329 12.6075 20.9485C11.6087 20.2636 10.8406 19.2926 10.404 18.163C9.96743 17.0335 9.88289 15.7982 10.1615 14.6197C10.4401 13.4412 11.0688 12.3745 11.9649 11.56C12.3736 11.1885 13.006 11.2187 13.3775 11.6274Z" fill="black"/>
<path fill-rule="evenodd" clip-rule="evenodd" d="M10.1426 8.1243C10.3916 8.61731 10.1937 9.21876 9.70069 9.46768C7.3238 10.6678 5.62056 12.4062 4.50642 13.8611C3.95101 14.5864 3.54759 15.234 3.28502 15.696C3.22082 15.809 3.16514 15.9107 3.11783 15.9995C3.23548 16.2199 3.40451 16.5194 3.62746 16.8735C4.1285 17.6692 4.89611 18.7319 5.95708 19.7929C8.07326 21.9091 11.3326 24 16 24H16.0081C18.1923 24.0178 20.3493 23.5146 22.3001 22.5319C22.7934 22.2835 23.3946 22.4819 23.6431 22.9751C23.8915 23.4684 23.6931 24.0697 23.1998 24.3181C20.9662 25.4432 18.4967 26.0198 15.9958 26C10.6654 25.9988 6.92607 23.5903 4.54287 21.2071C3.35384 20.0181 2.49645 18.8308 1.93499 17.9391C1.65377 17.4924 1.44537 17.1177 1.30555 16.8507C1.2356 16.7172 1.1827 16.6104 1.14634 16.5349C1.12815 16.4971 1.11409 16.4671 1.10408 16.4455L1.09211 16.4194L1.08838 16.4111L1.08709 16.4082L1.08658 16.4071C1.08636 16.4066 1.08616 16.4062 1.99997 16C1.08577 15.5948 1.08592 15.5944 1.08607 15.5941L1.08726 15.5914L1.08955 15.5863L1.09655 15.5709C1.1023 15.5583 1.11023 15.5411 1.12035 15.5195C1.1406 15.4765 1.16964 15.416 1.2077 15.3398C1.28379 15.1874 1.39606 14.9721 1.54618 14.7079C1.84611 14.1801 2.29894 13.4542 2.91853 12.6451C4.15439 11.0313 6.07615 9.05725 8.79926 7.68234C9.29227 7.43342 9.89372 7.6313 10.1426 8.1243ZM1.99997 16L1.08607 15.5941C0.971534 15.8525 0.97138 16.1479 1.08616 16.4062L1.99997 16Z" fill="black"/>
<path fill-rule="evenodd" clip-rule="evenodd" d="M13.2474 6.22622C14.1573 6.07391 15.0784 5.99823 16.001 6C16.0007 6 16.0013 6 16.001 6L16 7V6C16.0003 6 16.0007 6 16.001 6C21.3331 6.0003 25.0734 8.40922 27.4571 10.7929C28.6461 11.9819 29.5035 13.1692 30.065 14.0609C30.3462 14.5076 30.5546 14.8823 30.6944 15.1493C30.7644 15.2828 30.8173 15.3896 30.8536 15.4651C30.8718 15.5029 30.8859 15.5329 30.8959 15.5545L30.9079 15.5806L30.9116 15.5889L30.9129 15.5918L30.9134 15.5929C30.9136 15.5934 30.9138 15.5939 30 16C29.0862 15.5939 29.0863 15.5936 29.0864 15.5934L29.0788 15.6099C29.0717 15.6252 29.0599 15.6502 29.0435 15.6842C29.0105 15.7522 28.9586 15.856 28.8873 15.9899C28.8855 15.9933 28.8837 15.9966 28.8819 16C28.7643 15.7796 28.5953 15.4804 28.3725 15.1266C27.8715 14.3308 27.1039 13.2681 26.0429 12.2071C23.9267 10.0909 20.6674 8 16 8H15.998C15.1871 7.9984 14.3774 8.06489 13.5776 8.19878C13.0329 8.28996 12.5174 7.9223 12.4262 7.3776C12.3351 6.83289 12.7027 6.3174 13.2474 6.22622ZM30 16L30.9138 16.4061C31.0287 16.1476 31.0287 15.8524 30.9138 15.5939L30 16ZM28.8819 16C28.739 16.2677 28.5207 16.6513 28.2224 17.1074C27.617 18.0333 26.6904 19.2453 25.4083 20.3922C24.9967 20.7604 24.9615 21.3926 25.3297 21.8042C25.6979 22.2158 26.3301 22.251 26.7417 21.8828C28.1846 20.5922 29.2205 19.2355 29.8963 18.202C30.2349 17.6842 30.4852 17.2444 30.6526 16.93C30.7363 16.7727 30.7995 16.6465 30.8428 16.5573C30.8644 16.5127 30.8811 16.4773 30.8929 16.4519L30.907 16.4213L30.9113 16.4118L30.9128 16.4084L30.9134 16.4072C30.9135 16.4069 30.9138 16.4061 30 16C29.0862 16.4061 29.0864 16.4065 29.0865 16.4069L29.0806 16.3939C29.0748 16.3814 29.0652 16.3609 29.0516 16.3327C29.0245 16.2764 28.9817 16.1898 28.9228 16.0773C28.9099 16.0527 28.8963 16.027 28.8819 16Z" fill="black"/>
<path fill-rule="evenodd" clip-rule="evenodd" d="M15.955 10.9013C16.0578 10.3587 16.581 10.0022 17.1237 10.105C18.4002 10.3468 19.5634 10.9973 20.4377 11.9583C21.3121 12.9193 21.8501 14.1386 21.9707 15.4322C22.0219 15.9821 21.6177 16.4694 21.0678 16.5207C20.5179 16.5719 20.0306 16.1677 19.9793 15.6178C19.899 14.7563 19.5407 13.9443 18.9584 13.3043C18.3761 12.6643 17.6015 12.2311 16.7513 12.07C16.2087 11.9672 15.8522 11.444 15.955 10.9013Z" fill="black"/>
</svg>
