<svg width="32" height="32" viewBox="0 0 32 32" fill="none" xmlns="http://www.w3.org/2000/svg">
<path fill-rule="evenodd" clip-rule="evenodd" d="M9 22C9 21.4477 9.44772 21 10 21H13.5C14.0523 21 14.5 21.4477 14.5 22C14.5 22.5523 14.0523 23 13.5 23H10C9.44772 23 9 22.5523 9 22Z" fill="black"/>
<path fill-rule="evenodd" clip-rule="evenodd" d="M17.5 22C17.5 21.4477 17.9477 21 18.5 21H22C22.5523 21 23 21.4477 23 22C23 22.5523 22.5523 23 22 23H18.5C17.9477 23 17.5 22.5523 17.5 22Z" fill="black"/>
<path fill-rule="evenodd" clip-rule="evenodd" d="M4.55279 10.1056C4.89157 9.93619 5.29698 9.97274 5.6 10.2L12 15V11C12 10.6212 12.214 10.275 12.5528 10.1056C12.8916 9.93619 13.297 9.97274 13.6 10.2L21.3333 16H27C27.5523 16 28 16.4477 28 17V27C28 27.5523 27.5523 28 27 28C26.4477 28 26 27.5523 26 27V18H21C20.7836 18 20.5731 17.9298 20.4 17.8L14 13V17C14 17.3788 13.786 17.725 13.4472 17.8944C13.1084 18.0638 12.703 18.0273 12.4 17.8L6 13V27C6 27.5523 5.55228 28 5 28C4.44772 28 4 27.5523 4 27V11C4 10.6212 4.214 10.275 4.55279 10.1056Z" fill="black"/>
<path fill-rule="evenodd" clip-rule="evenodd" d="M1 27C1 26.4477 1.44772 26 2 26H30C30.5523 26 31 26.4477 31 27C31 27.5523 30.5523 28 30 28H2C1.44772 28 1 27.5523 1 27Z" fill="black"/>
<path fill-rule="evenodd" clip-rule="evenodd" d="M21.8625 2H24.1405C24.6223 2.00145 25.0873 2.17674 25.4502 2.49366C25.8124 2.81009 26.0485 3.24646 26.1152 3.72278C26.1153 3.72352 26.1154 3.72426 26.1155 3.725L27.99 16.8587C28.068 17.4055 27.688 17.9119 27.1413 17.99C26.5946 18.068 26.0881 17.688 26.01 17.1413L24.1345 4H21.8655L21.8649 4.00422L20.1774 15.7917C20.0991 16.3384 19.5925 16.7182 19.0458 16.6399C18.4991 16.5616 18.1193 16.055 18.1976 15.5083L19.8845 3.725C19.8846 3.72418 19.8847 3.72337 19.8848 3.72255C19.9516 3.24632 20.1876 2.81004 20.5498 2.49366C20.9127 2.17674 21.3777 2.00145 21.8595 2L21.8625 2Z" fill="black"/>
</svg>
