<svg width="32" height="32" viewBox="0 0 32 32" fill="none" xmlns="http://www.w3.org/2000/svg">
<path fill-rule="evenodd" clip-rule="evenodd" d="M17.5323 7.08036C17.8471 6.90635 18.203 6.82043 18.5625 6.83166C18.922 6.8429 19.2718 6.95086 19.575 7.14419L19.5787 7.1465L30.724 14.3185C31.007 14.4968 31.2404 14.7437 31.4026 15.0363C31.566 15.3312 31.6518 15.6628 31.6518 15.9999C31.6518 16.3371 31.566 16.6687 31.4026 16.9636C31.2404 17.2562 31.007 17.503 30.724 17.6814L19.5787 24.8534L19.575 24.8557C19.2718 25.049 18.9219 25.157 18.5625 25.1682C18.203 25.1794 17.8471 25.0935 17.5323 24.9195C17.2176 24.7455 16.9556 24.4898 16.7739 24.1794C16.5929 23.8701 16.4983 23.5179 16.5 23.1597C16.5 23.1583 16.5 23.157 16.5 23.1557L17.5 23.1624H16.5V23.1597V8.84023C16.5 8.84155 16.5 8.84287 16.5 8.84419L17.5 8.83744H16.5V8.84023M30.1875 15.1624L29.6539 15.9917L29.6576 15.9893C29.6558 15.9904 29.6544 15.992 29.6534 15.9939C29.6524 15.9957 29.6518 15.9978 29.6518 15.9999C29.6518 16.0021 29.6524 16.0041 29.6534 16.006C29.6544 16.0079 29.6559 16.0094 29.6577 16.0105L30.1875 15.1624ZM29.641 15.9999L18.5 8.83069L18.5 8.83744L18.5 23.1624L18.5 23.1692L29.641 15.9999Z" fill="black"/>
<path fill-rule="evenodd" clip-rule="evenodd" d="M3.53234 7.08036C3.84711 6.90635 4.20297 6.82043 4.56246 6.83166C4.92195 6.8429 5.27176 6.95086 5.57505 7.14419L5.57867 7.1465L16.724 14.3185C17.007 14.4968 17.2404 14.7437 17.4026 15.0363C17.566 15.3312 17.6518 15.6628 17.6518 15.9999C17.6518 16.3371 17.566 16.6687 17.4026 16.9636C17.2404 17.2562 17.007 17.503 16.724 17.6814L5.57866 24.8534L5.57505 24.8557C5.27175 25.049 4.92195 25.157 4.56246 25.1682C4.20297 25.1794 3.84711 25.0935 3.53234 24.9195C3.21758 24.7455 2.95556 24.4898 2.77389 24.1794C2.59289 23.8701 2.49831 23.5179 2.50002 23.1597C2.50003 23.1583 2.50004 23.157 2.50005 23.1557L3.50002 23.1624H2.50002V23.1597V8.84023C2.50003 8.84155 2.50004 8.84287 2.50005 8.84419L3.50002 8.83744H2.50002V8.84023M16.1875 15.1624L15.6539 15.9917L15.6576 15.9893C15.6558 15.9904 15.6544 15.992 15.6534 15.9939C15.6524 15.9957 15.6518 15.9978 15.6518 15.9999C15.6518 16.0021 15.6524 16.0041 15.6534 16.006C15.6544 16.0079 15.6559 16.0094 15.6577 16.0105L16.1875 15.1624ZM15.641 15.9999L4.5 8.83069L4.50005 8.83744L4.50002 23.1624L4.5 23.1692L15.641 15.9999Z" fill="black"/>
</svg>
