<svg width="32" height="32" viewBox="0 0 32 32" fill="none" xmlns="http://www.w3.org/2000/svg">
<path fill-rule="evenodd" clip-rule="evenodd" d="M21.5 24C21.5 23.4477 21.9477 23 22.5 23H25.5C26.0523 23 26.5 23.4477 26.5 24C26.5 24.5523 26.0523 25 25.5 25H22.5C21.9477 25 21.5 24.5523 21.5 24Z" fill="black"/>
<path fill-rule="evenodd" clip-rule="evenodd" d="M21.5 21C21.5 20.4477 21.9477 20 22.5 20H26C26.5523 20 27 20.4477 27 21C27 21.5523 26.5523 22 26 22H23.5V26H26C26.5523 26 27 26.4477 27 27C27 27.5523 26.5523 28 26 28H22.5C21.9477 28 21.5 27.5523 21.5 27V21Z" fill="black"/>
<path fill-rule="evenodd" clip-rule="evenodd" d="M5.1154 20.0769C5.6252 19.8645 6.21068 20.1056 6.42309 20.6154L8.00002 24.4L9.57694 20.6154C9.78936 20.1056 10.3748 19.8645 10.8846 20.0769C11.3944 20.2893 11.6355 20.8748 11.4231 21.3846L8.92309 27.3846C8.76782 27.7573 8.40372 28 8.00002 28C7.59632 28 7.23221 27.7573 7.07694 27.3846L4.57694 21.3846C4.36452 20.8748 4.6056 20.2893 5.1154 20.0769Z" fill="black"/>
<path fill-rule="evenodd" clip-rule="evenodd" d="M14 20C14.5523 20 15 20.4477 15 21V24.75C15 25.0815 15.1317 25.3995 15.3661 25.6339C15.6005 25.8683 15.9185 26 16.25 26C16.5815 26 16.8995 25.8683 17.1339 25.6339C17.3683 25.3995 17.5 25.0815 17.5 24.75V21C17.5 20.4477 17.9477 20 18.5 20C19.0523 20 19.5 20.4477 19.5 21V24.75C19.5 25.612 19.1576 26.4386 18.5481 27.0481C17.9386 27.6576 17.112 28 16.25 28C15.388 28 14.5614 27.6576 13.9519 27.0481C13.3424 26.4386 13 25.612 13 24.75V21C13 20.4477 13.4477 20 14 20Z" fill="black"/>
<path fill-rule="evenodd" clip-rule="evenodd" d="M5.58579 3.58579C5.96086 3.21071 6.46957 3 7 3H19C19.2652 3 19.5196 3.10536 19.7071 3.29289L26.7071 10.2929C26.8946 10.4804 27 10.7348 27 11V16C27 16.5523 26.5523 17 26 17C25.4477 17 25 16.5523 25 16V11.4142L18.5858 5L7 5L7 16C7 16.5523 6.55228 17 6 17C5.44772 17 5 16.5523 5 16V5C5 4.46957 5.21071 3.96086 5.58579 3.58579Z" fill="black"/>
<path fill-rule="evenodd" clip-rule="evenodd" d="M19 3C19.5523 3 20 3.44772 20 4V10H26C26.5523 10 27 10.4477 27 11C27 11.5523 26.5523 12 26 12H19C18.4477 12 18 11.5523 18 11V4C18 3.44772 18.4477 3 19 3Z" fill="black"/>
</svg>
