<svg width="32" height="32" viewBox="0 0 32 32" fill="none" xmlns="http://www.w3.org/2000/svg">
<path fill-rule="evenodd" clip-rule="evenodd" d="M20.9001 20.2C21.3419 19.8686 21.9687 19.9582 22.3001 20.4L26.8001 26.4C27.1314 26.8418 27.0419 27.4686 26.6001 27.8C26.1582 28.1314 25.5314 28.0418 25.2001 27.6L20.7001 21.6C20.3687 21.1582 20.4582 20.5314 20.9001 20.2Z" fill="black"/>
<path fill-rule="evenodd" clip-rule="evenodd" d="M26.6001 20.2C27.0419 20.5314 27.1314 21.1582 26.8001 21.6L22.3001 27.6C21.9687 28.0418 21.3419 28.1314 20.9001 27.8C20.4582 27.4686 20.3687 26.8418 20.7001 26.4L25.2001 20.4C25.5314 19.9582 26.1582 19.8686 26.6001 20.2Z" fill="black"/>
<path fill-rule="evenodd" clip-rule="evenodd" d="M5 21C5 20.4477 5.44772 20 6 20H10.5C11.0523 20 11.5 20.4477 11.5 21C11.5 21.5523 11.0523 22 10.5 22H6C5.44772 22 5 21.5523 5 21Z" fill="black"/>
<path fill-rule="evenodd" clip-rule="evenodd" d="M8.25 20C8.80228 20 9.25 20.4477 9.25 21V27C9.25 27.5523 8.80228 28 8.25 28C7.69772 28 7.25 27.5523 7.25 27V21C7.25 20.4477 7.69772 20 8.25 20Z" fill="black"/>
<path fill-rule="evenodd" clip-rule="evenodd" d="M15.1665 22.0718C15.0771 22.1484 15.0001 22.2687 15.0001 22.5C15.0001 22.5118 15.0006 22.5198 15.0012 22.5248C15.0121 22.5366 15.0442 22.5666 15.1188 22.6089C15.3563 22.7438 15.7107 22.8416 16.2568 22.9866C16.2669 22.9893 16.2771 22.992 16.2874 22.9948C16.751 23.1178 17.3848 23.2861 17.8954 23.5972C18.4903 23.9597 19.0001 24.5686 19.0001 25.5C19.0001 26.4427 18.5954 27.1775 17.8985 27.6235C17.2741 28.0231 16.5183 28.125 15.8751 28.125L15.8724 28.125C14.982 28.1226 14.1159 27.834 13.4022 27.3016C12.9595 26.9714 12.8683 26.3448 13.1985 25.9021C13.5287 25.4594 14.1552 25.3682 14.5979 25.6984C14.9674 25.974 15.4156 26.1235 15.8765 26.125C16.3575 26.1248 16.6637 26.0393 16.8204 25.939C16.8857 25.8972 16.9195 25.8569 16.9418 25.8145C16.9654 25.7698 17.0001 25.6772 17.0001 25.5C17.0001 25.496 17.0001 25.4922 17.0001 25.4885C17.0006 25.4275 17.0009 25.3942 16.8547 25.3051C16.6267 25.1662 16.2774 25.0615 15.7433 24.9196C15.7146 24.912 15.6852 24.9042 15.655 24.8962C15.2083 24.7783 14.6114 24.6207 14.1314 24.3481C13.8578 24.1928 13.5681 23.9727 13.3473 23.6509C13.1178 23.3164 13.0001 22.9257 13.0001 22.5C13.0001 21.7313 13.298 21.0391 13.8649 20.5532C14.4154 20.0814 15.1342 19.875 15.8751 19.875H15.8777V19.875C16.7681 19.8774 17.6342 20.166 18.3479 20.6984C18.7906 21.0286 18.8818 21.6552 18.5516 22.0979C18.2214 22.5406 17.5949 22.6318 17.1522 22.3016C16.7828 22.026 16.3346 21.8765 15.8737 21.875C15.4904 21.8752 15.2721 21.9812 15.1665 22.0718ZM15.0024 22.532C15.0024 22.5321 15.0022 22.5314 15.0019 22.5299L15.0024 22.532Z" fill="black"/>
<path fill-rule="evenodd" clip-rule="evenodd" d="M5.58579 3.58579C5.96086 3.21071 6.46957 3 7 3H19C19.2652 3 19.5196 3.10536 19.7071 3.29289L26.7071 10.2929C26.8946 10.4804 27 10.7348 27 11V16C27 16.5523 26.5523 17 26 17C25.4477 17 25 16.5523 25 16V11.4142L18.5858 5L7 5L7 16C7 16.5523 6.55228 17 6 17C5.44772 17 5 16.5523 5 16V5C5 4.46957 5.21071 3.96086 5.58579 3.58579Z" fill="black"/>
<path fill-rule="evenodd" clip-rule="evenodd" d="M19 3C19.5523 3 20 3.44772 20 4V10H26C26.5523 10 27 10.4477 27 11C27 11.5523 26.5523 12 26 12H19C18.4477 12 18 11.5523 18 11V4C18 3.44772 18.4477 3 19 3Z" fill="black"/>
</svg>
