<svg width="32" height="32" viewBox="0 0 32 32" fill="none" xmlns="http://www.w3.org/2000/svg">
<path fill-rule="evenodd" clip-rule="evenodd" d="M12.2812 18.5825C12.5013 18.461 12.7486 18.3973 13 18.3973C13.2514 18.3973 13.4987 18.461 13.7188 18.5825C13.9341 18.7013 14.1164 18.8716 14.2497 19.078L19.8319 27.445C20.0366 27.7519 20.0557 28.1465 19.8818 28.4717C19.7078 28.7969 19.3689 29 19 29H3C2.63434 29 2.29783 28.8004 2.12248 28.4795C1.94713 28.1587 1.9609 27.7677 2.15839 27.4599L6.23339 21.1099L6.24573 21.0911C6.38417 20.8857 6.57095 20.7174 6.78965 20.6011C7.00835 20.4848 7.25228 20.4239 7.5 20.4239C7.74773 20.4239 7.99166 20.4848 8.21035 20.6011C8.42905 20.7174 8.61583 20.8857 8.75427 21.0911L8.76636 21.1095L9.56776 22.3571L11.7499 19.0786C11.8832 18.8719 12.0657 18.7014 12.2812 18.5825ZM13.0005 20.8093L10.8044 24.1087C10.665 24.3157 10.4761 24.4845 10.255 24.6001C10.0339 24.7156 9.78742 24.7742 9.53794 24.7705C9.28847 24.7667 9.04387 24.7008 8.82629 24.5788C8.6102 24.4575 8.42753 24.2846 8.29459 24.0756L7.50021 22.839L4.82993 27H17.1307L13.0005 20.8093Z" fill="black"/>
<path fill-rule="evenodd" clip-rule="evenodd" d="M19 3C19.5523 3 20 3.44772 20 4V10H26C26.5523 10 27 10.4477 27 11C27 11.5523 26.5523 12 26 12H19C18.4477 12 18 11.5523 18 11V4C18 3.44772 18.4477 3 19 3Z" fill="black"/>
<path fill-rule="evenodd" clip-rule="evenodd" d="M5.58579 3.58579C5.96086 3.21071 6.46957 3 7 3H19C19.2652 3 19.5196 3.10536 19.7071 3.29289L26.7071 10.2929C26.8946 10.4804 27 10.7348 27 11V27C27 27.5304 26.7893 28.0391 26.4142 28.4142C26.0391 28.7893 25.5304 29 25 29H24C23.4477 29 23 28.5523 23 28C23 27.4477 23.4477 27 24 27H25V11.4142L18.5858 5L7 5L7 17C7 17.5523 6.55228 18 6 18C5.44772 18 5 17.5523 5 17V5C5 4.46957 5.21071 3.96086 5.58579 3.58579Z" fill="black"/>
</svg>
