<svg xmlns="http://www.w3.org/2000/svg" width="32" height="32" fill="none" viewBox="0 0 32 32"><path fill="#000" fill-rule="evenodd" d="M4 14C4 13.4477 4.44772 13 5 13H27C27.5523 13 28 13.4477 28 14V25C28 25.5304 27.7893 26.0391 27.4142 26.4142C27.0391 26.7893 26.5304 27 26 27H6C5.46957 27 4.96086 26.7893 4.58579 26.4142C4.21071 26.0391 4 25.5304 4 25V14ZM6 15V25H26V15H6Z" clip-rule="evenodd"/><path fill="#000" fill-rule="evenodd" d="M23.7227 2.77315C23.9746 2.70283 24.2379 2.6829 24.4976 2.71455C24.7601 2.74654 25.0136 2.83061 25.2432 2.96182C25.4728 3.09303 25.674 3.26874 25.8348 3.47867C25.9949 3.68757 26.1118 3.92618 26.1789 4.18063C26.1793 4.18187 26.1796 4.18311 26.1799 4.18435L27.2158 8.04057C27.2846 8.29677 27.2488 8.56981 27.1162 8.7996C26.9837 9.0294 26.7653 9.19711 26.5091 9.26584L5.25907 14.9658C4.72577 15.1089 4.17746 14.7926 4.03423 14.2594L2.99627 10.3952C2.9284 10.1408 2.91145 9.87542 2.94639 9.61441C2.98133 9.35339 3.06747 9.10185 3.19987 8.87421C3.33227 8.64658 3.50833 8.44733 3.71793 8.28791C3.92672 8.1291 4.1647 8.01292 4.41832 7.94598C4.4193 7.94572 4.42029 7.94546 4.42127 7.94521L23.7227 2.77315ZM24.2483 4.70285L24.2463 4.70341L4.93382 9.87841L4.92871 9.87976L5.70644 12.7751L25.0247 7.59329L24.2483 4.70285Z" clip-rule="evenodd"/><path fill="#000" fill-rule="evenodd" d="M15.3965 5.29984C15.6728 4.82159 16.2844 4.65781 16.7626 4.93402L22.8876 8.47152C23.3659 8.74774 23.5297 9.35935 23.2534 9.8376C22.9772 10.3159 22.3656 10.4796 21.8874 10.2034L15.7624 6.66592C15.2841 6.38971 15.1203 5.77809 15.3965 5.29984Z" clip-rule="evenodd"/><path fill="#000" fill-rule="evenodd" d="M6.70949 7.6366C6.98613 7.15859 7.59789 6.99535 8.07589 7.27199L14.1884 10.8095C14.6664 11.0861 14.8296 11.6979 14.553 12.1759C14.2764 12.6539 13.6646 12.8171 13.1866 12.5405L7.0741 9.003C6.59609 8.72636 6.43285 8.1146 6.70949 7.6366Z" clip-rule="evenodd"/></svg>