<svg xmlns="http://www.w3.org/2000/svg" width="32" height="32" fill="none" viewBox="0 0 32 32"><path fill="#000" fill-rule="evenodd" d="M21.9992 15C22.5515 14.9996 22.9995 15.4469 23 15.9992C23.0032 20.0387 22.2179 24.0401 20.688 27.7787C20.4788 28.2899 19.8949 28.5347 19.3837 28.3255C18.8726 28.1163 18.6278 27.5324 18.837 27.0213C20.2683 23.5235 21.003 19.78 21 16.0008C20.9995 15.4485 21.4469 15.0004 21.9992 15Z" clip-rule="evenodd"/><path fill="#000" fill-rule="evenodd" d="M13.5029 9.45739C14.828 8.95139 16.2755 8.85988 17.6538 9.19498C19.0321 9.53009 20.276 10.276 21.2209 11.3339C21.5888 11.7458 21.5531 12.378 21.1412 12.7459C20.7293 13.1138 20.0971 13.0781 19.7292 12.6662C19.0543 11.9105 18.1658 11.3777 17.1813 11.1384C16.1968 10.899 15.1629 10.9644 14.2164 11.3258C13.2699 11.6872 12.4555 12.3277 11.8811 13.1623C11.307 13.9967 10.9997 14.9857 11.0001 15.9985C11.0078 19.2181 10.1896 22.3857 8.62383 25.1989C8.35523 25.6814 7.74629 25.8549 7.26372 25.5863C6.78115 25.3177 6.60769 24.7088 6.87629 24.2262C8.27586 21.7117 9.00708 18.8802 9.00006 16.0025L9.00006 16.0006C8.9993 14.5821 9.42947 13.197 10.2336 12.0285C11.0377 10.86 12.1778 9.9634 13.5029 9.45739Z" clip-rule="evenodd"/><path fill="#000" fill-rule="evenodd" d="M15.9974 5.00004C14.7499 4.99676 13.5112 5.20966 12.3364 5.62927C11.8163 5.81504 11.2441 5.544 11.0583 5.0239C10.8725 4.50379 11.1436 3.93157 11.6637 3.74581C13.0557 3.24863 14.5232 2.99631 16.0013 3.00004C19.4487 3.00039 22.7548 4.36999 25.1924 6.80765C27.6304 9.24563 29 12.5522 29 16V16.0005C28.9987 18.7651 28.6929 21.5211 28.0883 24.2187C27.9675 24.7577 27.4327 25.0966 26.8938 24.9758C26.3549 24.855 26.016 24.3203 26.1367 23.7813C26.7092 21.227 26.9987 18.6173 27 15.9995C26.9999 13.0823 25.841 10.2847 23.7782 8.22187C21.7153 6.15897 18.9174 5.00004 16 5.00004H15.9974V5.00004Z" clip-rule="evenodd"/><path fill="#000" fill-rule="evenodd" d="M8.74629 6.39685C9.11391 6.80901 9.07779 7.44115 8.66563 7.80876C7.51147 8.83816 6.58818 10.1001 5.95642 11.5117C5.3247 12.9232 4.99876 14.4524 5 15.9988" clip-rule="evenodd"/><path fill="#000" fill-rule="evenodd" d="M14.2389 25.0896C14.7416 25.3182 14.964 25.911 14.7354 26.4138C14.4754 26.9859 14.1865 27.5642 13.8683 28.1211C13.5943 28.6007 12.9834 28.7673 12.5039 28.4932C12.0244 28.2192 11.8578 27.6084 12.1318 27.1289C12.4136 26.6358 12.6747 26.1141 12.9147 25.5862C13.1432 25.0834 13.7361 24.8611 14.2389 25.0896Z" clip-rule="evenodd"/><path fill="#000" fill-rule="evenodd" d="M15.9985 15C16.5508 14.9991 16.9992 15.4462 17 15.9985C17.0033 18.1082 16.7362 20.2097 16.2054 22.2516C16.0664 22.7861 15.5204 23.1068 14.9859 22.9678C14.4514 22.8289 14.1308 22.2829 14.2697 21.7484C14.7576 19.8718 15.003 17.9405 15 16.0015C14.9992 15.4493 15.4462 15.0009 15.9985 15Z" clip-rule="evenodd"/></svg>