<svg width="32" height="32" viewBox="0 0 32 32" fill="none" xmlns="http://www.w3.org/2000/svg">
<path fill-rule="evenodd" clip-rule="evenodd" d="M11.7797 9.12387C12.1255 9.55448 12.0568 10.1839 11.6262 10.5297C10.8073 11.1874 10.1463 12.0203 9.6918 12.9671C9.23751 13.9135 9.00111 14.9498 9 15.9996C9.00444 18.6217 8.39957 21.209 7.2331 23.5574C6.98742 24.052 6.38727 24.2538 5.89265 24.0081C5.39802 23.7625 5.19621 23.1623 5.4419 22.6677C6.4707 20.5964 7.0041 18.3145 7 16.0018L7 15.9992C7.00118 14.6499 7.30488 13.318 7.88875 12.1016C8.47263 10.8852 9.32182 9.81522 10.3738 8.97035C10.8044 8.62452 11.4339 8.69326 11.7797 9.12387Z" fill="black"/>
<path fill-rule="evenodd" clip-rule="evenodd" d="M15.9986 15C16.5509 14.9993 16.9992 15.4464 16.9999 15.9987C17.0056 20.236 15.9298 24.4046 13.8744 28.1101C13.6065 28.593 12.9978 28.7674 12.5149 28.4995C12.0319 28.2316 11.8576 27.6229 12.1255 27.1399C14.0158 23.7321 15.0051 19.8983 14.9999 16.0013C14.9992 15.449 15.4463 15.0007 15.9986 15Z" fill="black"/>
<path fill-rule="evenodd" clip-rule="evenodd" d="M16 13C15.2044 13 14.4413 13.3161 13.8787 13.8787C13.3161 14.4413 13 15.2044 13 16C13 16.5523 12.5523 17 12 17C11.4477 17 11 16.5523 11 16C11 14.6739 11.5268 13.4021 12.4645 12.4645C13.4021 11.5268 14.6739 11 16 11C17.3261 11 18.5979 11.5268 19.5355 12.4645C20.473 13.4019 20.9997 14.6733 21 15.999C21 15.9993 21 15.9997 21 16H20L21 15.998C21 15.9983 21 15.9987 21 15.999C21.0084 20.2704 20.0662 24.4901 18.2417 28.3521C18.0058 28.8515 17.4097 29.0651 16.9104 28.8292C16.411 28.5933 16.1974 27.9972 16.4333 27.4979C18.1312 23.9038 19.008 19.9769 19 16.002L19 16C19 15.2044 18.6839 14.4413 18.1213 13.8787C17.5587 13.3161 16.7956 13 16 13Z" fill="black"/>
<path fill-rule="evenodd" clip-rule="evenodd" d="M6.80764 6.80761C9.24561 4.36964 12.5522 3 16 3C19.4478 3 22.7544 4.36964 25.1924 6.80761C27.6304 9.24558 29 12.5522 29 16V16.0005C28.9988 18.4138 28.7667 20.8215 28.3067 23.1906C28.2014 23.7327 27.6766 24.0869 27.1344 23.9817C26.5923 23.8764 26.2381 23.3516 26.3434 22.8094C26.779 20.5656 26.9989 18.2852 27 15.9995C26.9999 13.0823 25.841 10.2846 23.7782 8.22183C21.7153 6.15893 18.9174 5 16 5C13.0826 5 10.2848 6.15893 8.22185 8.22183C6.15926 10.2844 5.00038 13.0818 5.00003 15.9987C5.00376 17.4768 4.75144 18.9444 4.25426 20.3364C4.0685 20.8565 3.49627 21.1275 2.97617 20.9417C2.45606 20.756 2.18503 20.1837 2.37079 19.6636C2.79041 18.4888 3.00331 17.2501 3.00003 16.0026L3.00003 16C3.00003 12.5522 4.36967 9.24558 6.80764 6.80761Z" fill="black"/>
<path fill-rule="evenodd" clip-rule="evenodd" d="M11.801 19.0204C12.3421 19.1314 12.6906 19.66 12.5795 20.2011C12.1264 22.4082 11.325 24.5292 10.2052 26.4844C9.93076 26.9637 9.31975 27.1297 8.84049 26.8552C8.36123 26.5808 8.19521 25.9698 8.46968 25.4905C9.48396 23.7194 10.2099 21.7981 10.6204 19.7989C10.7314 19.2579 11.26 18.9093 11.801 19.0204Z" fill="black"/>
<path fill-rule="evenodd" clip-rule="evenodd" d="M15.9948 7.00003L16 7C18.3869 7.00001 20.6761 7.94822 22.3639 9.63605C24.0518 11.3239 25 13.6131 25 16V16.0009C24.9988 17.3791 24.9127 18.756 24.7423 20.1237C24.674 20.6717 24.1744 21.0606 23.6263 20.9923C23.0783 20.924 22.6894 20.4244 22.7577 19.8764C22.9179 18.5902 22.9989 17.2953 23 15.9992M16.0026 9.00001C15.7073 9.00165 15.4124 9.02013 15.1193 9.05537C14.571 9.12128 14.073 8.73019 14.0071 8.18185C13.9412 7.63351 14.3323 7.13557 14.8806 7.06966C15.2504 7.02522 15.6224 7.00197 15.9948 7.00003M16.0026 9.00001C17.8582 9.0007 19.6376 9.73812 20.9497 11.0503C22.2623 12.3628 22.9997 14.1429 23 15.9992" fill="black"/>
<path fill-rule="evenodd" clip-rule="evenodd" d="M23.2339 23.0308C23.7692 23.1669 24.0928 23.7111 23.9567 24.2464C23.7641 25.004 23.5449 25.7651 23.2987 26.5037C23.124 27.0277 22.5577 27.3108 22.0338 27.1362C21.5098 26.9615 21.2267 26.3952 21.4013 25.8713C21.6301 25.1849 21.8359 24.471 22.0183 23.7536C22.1544 23.2183 22.6986 22.8947 23.2339 23.0308Z" fill="black"/>
</svg>
