<svg xmlns="http://www.w3.org/2000/svg" width="32" height="32" fill="none" viewBox="0 0 32 32"><path fill="#000" fill-rule="evenodd" d="M18.167 1.37715C18.4868 1.3218 18.8136 1.42508 19.0434 1.65418C22.677 5.27531 27.4875 10.5423 27.4875 17.5C27.4875 20.55 26.2759 23.4751 24.1193 25.6317C21.9626 27.7884 19.0375 29 15.9875 29C12.9376 29 10.0125 27.7884 7.85582 25.6317C5.69915 23.4751 4.48755 20.55 4.48755 17.5C4.48755 14.0982 6.19868 10.5682 8.1544 7.62196C8.30115 7.40087 8.52976 7.24718 8.78989 7.19473C9.05002 7.14228 9.32032 7.19537 9.54129 7.34231L13.5806 10.0284L17.4346 1.93266C17.5741 1.63962 17.8472 1.43251 18.167 1.37715ZM18.6274 4.08015L14.8905 11.9298C14.7658 12.1917 14.5336 12.3865 14.2541 12.4638C13.9746 12.5411 13.6753 12.4933 13.4338 12.3327L9.28011 9.57048C7.65932 12.1876 6.48755 14.9748 6.48755 17.5C6.48755 20.0196 7.48844 22.4359 9.27003 24.2175C11.0516 25.9991 13.468 27 15.9875 27C18.5071 27 20.9235 25.9991 22.7051 24.2175C24.4867 22.4359 25.4875 20.0196 25.4875 17.5C25.4875 11.9996 22.0159 7.58421 18.6274 4.08015Z" clip-rule="evenodd"/></svg>