<svg width="32" height="32" viewBox="0 0 32 32" fill="none" xmlns="http://www.w3.org/2000/svg">
<path fill-rule="evenodd" clip-rule="evenodd" d="M22.5813 17.5123C23.1268 17.5986 23.4991 18.1108 23.4127 18.6563C23.1643 20.2263 22.4251 21.6772 21.3012 22.8012C20.1772 23.9251 18.7263 24.6643 17.1563 24.9127C16.6108 24.9991 16.0986 24.6268 16.0123 24.0813C15.926 23.5358 16.2982 23.0236 16.8437 22.9373C17.9964 22.7549 19.0618 22.2122 19.887 21.387C20.7122 20.5618 21.2549 19.4964 21.4373 18.3437C21.5236 17.7982 22.0358 17.426 22.5813 17.5123Z" fill="black"/>
<path fill-rule="evenodd" clip-rule="evenodd" d="M18.1794 1.37715C18.4992 1.3218 18.826 1.42508 19.0559 1.65418C22.6895 5.27531 27.5 10.5423 27.5 17.5C27.5 20.55 26.2884 23.4751 24.1317 25.6317C21.9751 27.7884 19.05 29 16 29C12.95 29 10.0249 27.7884 7.86827 25.6317C5.7116 23.4751 4.5 20.55 4.5 17.5C4.5 14.0982 6.21113 10.5682 8.16685 7.62196C8.3136 7.40087 8.54222 7.24718 8.80234 7.19473C9.06247 7.14228 9.33278 7.19537 9.55374 7.34231L13.593 10.0284L17.4471 1.93266C17.5866 1.63962 17.8596 1.43251 18.1794 1.37715ZM18.6398 4.08015L14.9029 11.9298C14.7783 12.1917 14.5461 12.3865 14.2666 12.4638C13.987 12.5411 13.6877 12.4933 13.4463 12.3327L9.29256 9.57048C7.67177 12.1876 6.5 14.9748 6.5 17.5C6.5 20.0196 7.50089 22.4359 9.28249 24.2175C11.0641 25.9991 13.4804 27 16 27C18.5196 27 20.9359 25.9991 22.7175 24.2175C24.4991 22.4359 25.5 20.0196 25.5 17.5C25.5 11.9996 22.0283 7.58421 18.6398 4.08015Z" fill="black"/>
</svg>
