<svg width="32" height="32" viewBox="0 0 32 32" fill="none" xmlns="http://www.w3.org/2000/svg">
<path d="M19.5 11C20.3284 11 21 10.3284 21 9.5C21 8.67157 20.3284 8 19.5 8C18.6716 8 18 8.67157 18 9.5C18 10.3284 18.6716 11 19.5 11Z" fill="black"/>
<path fill-rule="evenodd" clip-rule="evenodd" d="M21.1364 3.3573C23.5444 3.29929 25.5866 3.65623 26.5865 3.8726L26.5945 3.87433L26.5945 3.87437C26.9684 3.95851 27.3108 4.14705 27.5819 4.41809C27.8529 4.68912 28.0414 5.03151 28.1256 5.40547L28.1274 5.41347L28.1273 5.41348C28.3437 6.41337 28.7007 8.4555 28.6426 10.8635C28.5848 13.2656 28.1124 16.1007 26.6096 18.6296C25.0896 21.1876 22.5573 23.3589 18.5333 24.4595C16.013 25.1488 12.9227 25.4147 9.14111 25.1134C9.3365 26.5626 9.61192 28.1177 9.97687 29.7863C10.0949 30.3258 9.75317 30.8589 9.21364 30.9769C8.67411 31.0949 8.14107 30.7532 8.02306 30.2137C7.60855 28.3185 7.30314 26.5511 7.09696 24.903C5.44888 24.6968 3.68143 24.3914 1.7863 23.9769C1.24677 23.8589 0.905054 23.3258 1.02306 22.7863C1.14107 22.2468 1.67411 21.9051 2.21364 22.0231C3.88221 22.388 5.43737 22.6634 6.88655 22.8588C6.58521 19.0772 6.85115 15.9869 7.54047 13.4666C8.64105 9.44267 10.8123 6.91038 13.3704 5.39031C15.8993 3.88755 18.7343 3.41516 21.1364 3.3573ZM8.91291 23.087C12.6947 23.4245 15.6711 23.1689 18.0057 22.5303C21.5427 21.5629 23.6416 19.7092 24.8903 17.6079C26.1563 15.4774 26.5902 13.0187 26.6432 10.8153C26.696 8.62364 26.3704 6.75265 26.1741 5.84361C26.173 5.83934 26.1708 5.83543 26.1676 5.8323C26.1646 5.82922 26.1607 5.82701 26.1566 5.82586C25.2476 5.62957 23.3765 5.30392 21.1846 5.35672C18.9812 5.40979 16.5225 5.84366 14.3921 7.10965C12.2907 8.35833 10.437 10.4573 9.46962 13.9943C8.83108 16.3289 8.57546 19.3053 8.91291 23.087Z" fill="black"/>
<path fill-rule="evenodd" clip-rule="evenodd" d="M13.0146 5.82512C13.5669 5.83323 14.0079 6.28747 13.9998 6.83969C13.9783 8.3103 14.2518 9.7703 14.8043 11.1333C15.3568 12.4964 16.177 13.7348 17.2165 14.7753C18.2559 15.8158 19.4935 16.6373 20.856 17.1912C22.2185 17.7451 23.6782 18.0202 25.1488 18.0001C25.701 17.9926 26.1548 18.4341 26.1624 18.9864C26.1699 19.5386 25.7283 19.9924 25.1761 19.9999C23.4381 20.0236 21.713 19.6986 20.1028 19.044C18.4926 18.3894 17.03 17.4185 15.8015 16.1888C14.5731 14.9591 13.6037 13.4955 12.9508 11.8847C12.2978 10.2738 11.9745 8.54833 12.0001 6.81034C12.0082 6.25811 12.4624 5.81702 13.0146 5.82512Z" fill="black"/>
</svg>
