<svg xmlns="http://www.w3.org/2000/svg" width="32" height="32" fill="none" viewBox="0 0 32 32"><path fill="#000" fill-rule="evenodd" d="M5 5C5.55228 5 6 5.44772 6 6V27C6 27.5523 5.55228 28 5 28C4.44772 28 4 27.5523 4 27V6C4 5.44772 4.44772 5 5 5Z" clip-rule="evenodd"/><path fill="#000" fill-rule="evenodd" d="M21.4154 6.69281C22.9831 6.85499 24.6059 6.54555 26.4 5.20001C26.703 4.97274 27.1084 4.93619 27.4472 5.10558C27.786 5.27497 28 5.62123 28 6.00001V21C28 21.3148 27.8518 21.6112 27.6 21.8C25.3941 23.4545 23.2669 23.895 21.2096 23.6822C19.2451 23.479 17.3765 22.678 15.6741 21.9483L15.6061 21.9192C13.8267 21.1566 12.2189 20.4763 10.5846 20.3072C9.01689 20.145 7.39405 20.4545 5.6 21.8C5.15817 22.1314 4.53137 22.0418 4.2 21.6C3.86863 21.1582 3.95817 20.5314 4.4 20.2C6.60594 18.5455 8.73311 18.105 10.7904 18.3178C12.7549 18.521 14.6235 19.322 16.3259 20.0517L16.3939 20.0809C18.1733 20.8435 19.7811 21.5237 21.4154 21.6928C22.8658 21.8429 24.3633 21.5892 26 20.485V7.80199C24.3607 8.63049 22.7652 8.84312 21.2096 8.6822C19.2451 8.47897 17.3765 7.67803 15.6741 6.9483L15.6061 6.91915C13.8267 6.15656 12.2189 5.47626 10.5846 5.3072C9.01689 5.14502 7.39405 5.45446 5.6 6.80001C5.15817 7.13138 4.53137 7.04183 4.2 6.60001C3.86863 6.15818 3.95817 5.53138 4.4 5.20001C6.60594 3.54555 8.73311 3.10499 10.7904 3.31781C12.7549 3.52104 14.6235 4.32199 16.3259 5.05171L16.3939 5.08086C18.1733 5.84345 19.7811 6.52375 21.4154 6.69281Z" clip-rule="evenodd"/><path fill="#000" fill-rule="evenodd" d="M21.4154 13.9553C22.9831 14.1175 24.6059 13.808 26.4 12.4625C26.8418 12.1311 27.4686 12.2207 27.8 12.6625C28.1314 13.1043 28.0418 13.7311 27.6 14.0625C25.3941 15.717 23.2669 16.1575 21.2096 15.9447C19.2451 15.7415 17.3765 14.9405 15.6741 14.2108L15.6061 14.1816C13.8267 13.4191 12.2189 12.7388 10.5846 12.5697C9.01689 12.4075 7.39405 12.717 5.6 14.0625C5.15817 14.3939 4.53137 14.3043 4.2 13.8625C3.86863 13.4207 3.95817 12.7939 4.4 12.4625C6.60594 10.808 8.73311 10.3675 10.7904 10.5803C12.7549 10.7835 14.6235 11.5845 16.3259 12.3142L16.3939 12.3434C18.1733 13.1059 19.7811 13.7862 21.4154 13.9553Z" clip-rule="evenodd"/><path fill="#000" fill-rule="evenodd" d="M12.5 3.675C13.0523 3.675 13.5 4.12272 13.5 4.675V19.675C13.5 20.2273 13.0523 20.675 12.5 20.675C11.9477 20.675 11.5 20.2273 11.5 19.675V4.675C11.5 4.12272 11.9477 3.675 12.5 3.675Z" clip-rule="evenodd"/><path fill="#000" fill-rule="evenodd" d="M19.5 6.325C20.0523 6.325 20.5 6.77271 20.5 7.325V22.325C20.5 22.8773 20.0523 23.325 19.5 23.325C18.9477 23.325 18.5 22.8773 18.5 22.325V7.325C18.5 6.77271 18.9477 6.325 19.5 6.325Z" clip-rule="evenodd"/></svg>