<svg width="32" height="32" viewBox="0 0 32 32" fill="none" xmlns="http://www.w3.org/2000/svg">
<path fill-rule="evenodd" clip-rule="evenodd" d="M13 3C13.5523 3 14 3.44772 14 4V11.7317C13.9977 12.0827 13.9052 12.4272 13.7315 12.7323L13.72 12.752L5.77119 26H26.2288L18.28 12.752L18.2685 12.7323C18.0948 12.4272 18.0024 12.0827 18 11.7317L18 11.725L18 4C18 3.44772 18.4477 3 19 3C19.5523 3 20 3.44772 20 4V11.7195C20.0002 11.7263 20.0018 11.733 20.0046 11.7391L27.9462 24.975C28.1266 25.2773 28.2241 25.6219 28.2287 25.9739C28.2333 26.3259 28.1449 26.673 27.9724 26.9799C27.7999 27.2868 27.5494 27.5427 27.2463 27.7219C26.9432 27.901 26.5982 27.9969 26.2462 28L26.2375 28L5.75383 28C5.40178 27.997 5.05677 27.901 4.75366 27.7219C4.45056 27.5427 4.20011 27.2868 4.02763 26.9799C3.85514 26.673 3.76673 26.3259 3.77133 25.9739C3.77594 25.6219 3.87339 25.2773 4.05383 24.975L4.05501 24.973L11.9954 11.7391C11.9982 11.733 11.9998 11.7263 12 11.7195V4C12 3.44772 12.4477 3 13 3Z" fill="black"/>
<path fill-rule="evenodd" clip-rule="evenodd" d="M10 4C10 3.44772 10.4477 3 11 3H21C21.5523 3 22 3.44772 22 4C22 4.55228 21.5523 5 21 5H11C10.4477 5 10 4.55228 10 4Z" fill="black"/>
<path fill-rule="evenodd" clip-rule="evenodd" d="M15.5529 21.8945C11.6324 19.9404 9.51465 20.6217 8.41843 21.4299C7.97391 21.7576 7.34786 21.663 7.02012 21.2184C6.69237 20.7739 6.78704 20.1479 7.23157 19.8201C9.08526 18.4534 12.0422 17.9097 16.4461 20.105L16.4482 20.1061C18.5657 21.1678 20.1525 21.4434 21.3153 21.3648C22.4653 21.287 23.2724 20.8584 23.8395 20.3759C24.2601 20.018 24.8912 20.0688 25.2491 20.4895C25.607 20.9101 25.5562 21.5412 25.1355 21.8991C24.2776 22.6292 23.0722 23.2505 21.4503 23.3602C19.8415 23.469 17.8974 23.0698 15.5529 21.8945Z" fill="black"/>
</svg>
