<svg width="32" height="32" viewBox="0 0 32 32" fill="none" xmlns="http://www.w3.org/2000/svg">
<path fill-rule="evenodd" clip-rule="evenodd" d="M10.654 4.14902C10.8951 4.04999 11.1533 3.99936 11.414 4C11.4146 4 11.4153 4 11.416 4.00001L11.4125 5V4H11.414H26C26.5304 4 27.0391 4.21071 27.4142 4.58579C27.7893 4.96086 28 5.46957 28 6V26C28 26.5304 27.7893 27.0391 27.4142 27.4142C27.0391 27.7893 26.5304 28 26 28H6.00001C5.46957 28 4.96087 27.7893 4.58579 27.4142C4.21072 27.0391 4.00001 26.5304 4.00001 26V11.414C4.00001 11.4146 4.00001 11.4153 4.00001 11.416L5.00001 11.4125H5.98751L5.99461 11.4196L5.99636 11.4179L6.00001 11.4142V26H26V6H11.4142L11.4179 5.99635L11.4196 5.99461L10.7125 5.2875L11.4179 5.99635C11.4167 5.99752 11.4153 5.99843 11.4138 5.99906C11.4134 5.99923 11.4129 5.99938 11.4125 5.99951C11.4114 5.99983 11.4102 6 11.409 5.99999L11.4142 6L6.00001 11.4142V11.4125C6.00033 11.4114 6 11.4102 6 11.409L5.9875 11.409L5.28751 10.7125L5.98406 11.4091L5.00001 11.4125H4.00001V11.414C3.99936 11.1533 4.04999 10.8951 4.14902 10.6539C4.24831 10.4122 4.39431 10.1924 4.57865 10.0071L4.5804 10.0054L10.0054 4.58039L10.0072 4.57865C10.1924 4.3943 10.4122 4.24831 10.654 4.14902ZM5.9875 11.409L5.99098 11.4125H5.98751L5.98406 11.4091L5.9875 11.409ZM6.00001 11.4125C5.99988 11.4129 5.99924 11.4134 5.99906 11.4138C5.99844 11.4153 5.99752 11.4167 5.99636 11.4179L5.99098 11.4125H6.00001Z" fill="black"/>
<path fill-rule="evenodd" clip-rule="evenodd" d="M16 16C14.6193 16 13.5 17.1193 13.5 18.5C13.5 19.8807 14.6193 21 16 21C17.3807 21 18.5 19.8807 18.5 18.5C18.5 17.1193 17.3807 16 16 16ZM11.5 18.5C11.5 16.0147 13.5147 14 16 14C18.4853 14 20.5 16.0147 20.5 18.5C20.5 20.9853 18.4853 23 16 23C13.5147 23 11.5 20.9853 11.5 18.5Z" fill="black"/>
<path fill-rule="evenodd" clip-rule="evenodd" d="M20 4C20.5523 4 21 4.44772 21 5V10C21 10.5523 20.5523 11 20 11H12C11.4477 11 11 10.5523 11 10C11 9.44772 11.4477 9 12 9H19V5C19 4.44772 19.4477 4 20 4Z" fill="black"/>
</svg>
