<svg width="32" height="32" viewBox="0 0 32 32" fill="none" xmlns="http://www.w3.org/2000/svg">
<path fill-rule="evenodd" clip-rule="evenodd" d="M30.0723 14.2311C30.3282 14.2956 30.5687 14.4103 30.7798 14.5688C30.9925 14.7284 31.171 14.9291 31.3047 15.1591C31.4384 15.389 31.5247 15.6434 31.5583 15.9072C31.5917 16.17 31.5723 16.4368 31.5012 16.6919C31.053 18.3236 29.6683 21.2929 25.6135 23.6404C21.5773 25.9772 18.0433 26 16 26C15.4477 26 15 25.5523 15 25C15 24.4477 15.4477 24 16 24C17.9567 24 21.0477 23.9728 24.6115 21.9096C28.148 19.8621 29.2415 17.3638 29.5712 16.1673C28.792 15.9648 27.3603 15.7665 25.4939 16.2104C24.9566 16.3382 24.4174 16.0062 24.2896 15.4689C24.1619 14.9316 24.4938 14.3924 25.0311 14.2646C27.26 13.7346 29.0256 13.9593 30.0723 14.2311Z" fill="black"/>
<path fill-rule="evenodd" clip-rule="evenodd" d="M1.92763 14.2311C2.97375 13.9595 4.73715 13.735 6.9632 14.2508C7.50123 14.3755 7.83633 14.9127 7.71166 15.4507C7.587 15.9888 7.04978 16.3239 6.51175 16.1992C4.64251 15.7661 3.20859 15.9646 2.42872 16.1673C2.75905 17.3658 3.85317 19.8744 7.38637 21.9083C10.9525 23.9612 14.0464 24 16 24C16.5523 24 17 24.4477 17 25C17 25.5523 16.5523 26 16 26C13.9535 26 10.4225 25.9638 6.38857 23.6417C2.33049 21.3056 0.946404 18.3217 0.498758 16.6919C0.427642 16.4368 0.408241 16.17 0.441706 15.9072C0.475308 15.6434 0.561526 15.389 0.69525 15.1591C0.828975 14.9291 1.00749 14.7284 1.22021 14.5688C1.43128 14.4103 1.67177 14.2955 1.92763 14.2311Z" fill="black"/>
<path fill-rule="evenodd" clip-rule="evenodd" d="M14.8074 4.59449C15.153 4.34021 15.5709 4.20306 16 4.20306C16.4291 4.20306 16.847 4.34021 17.1926 4.59449L17.2025 4.60174L17.2024 4.6018C18.6795 5.71661 22 8.88081 22 15C22 18.8868 20.6583 21.6001 19.2863 23.346C18.6044 24.2136 17.9202 24.8365 17.3999 25.2462C17.1395 25.4512 16.9192 25.6037 16.7592 25.7075C16.6792 25.7595 16.6141 25.7993 16.5665 25.8276C16.5427 25.8417 16.5233 25.8529 16.5085 25.8613L16.4899 25.8718L16.4833 25.8754L16.4807 25.8769L16.4796 25.8775C16.479 25.8778 16.4785 25.8781 16 25C15.5215 25.8781 15.521 25.8778 15.5204 25.8775L15.5193 25.8769L15.5167 25.8754L15.5101 25.8718L15.4915 25.8613C15.4767 25.8529 15.4573 25.8417 15.4335 25.8276C15.3859 25.7993 15.3208 25.7595 15.2408 25.7075C15.0808 25.6037 14.8605 25.4512 14.6001 25.2462C14.0798 24.8365 13.3956 24.2136 12.7137 23.346C11.3417 21.6001 10 18.8868 10 15C10 8.88081 13.3205 5.71661 14.7976 4.6018L14.8074 4.59443L14.8074 4.59449ZM16 25L15.5215 25.8781C15.8198 26.0406 16.1802 26.0406 16.4785 25.8781L16 25ZM16.4799 24.1226C16.4815 24.1235 16.4825 24.1241 16.4827 24.1242L16.4815 24.1235L16.4802 24.1229L16.4799 24.1226ZM16 23.7995C15.9489 23.7614 15.8946 23.7199 15.8374 23.6749C15.4202 23.3463 14.8544 22.8332 14.2863 22.1102C13.1583 20.6749 12 18.3881 12 15C12 9.73224 14.8155 7.09643 15.9937 6.20479C15.9956 6.20366 15.9978 6.20306 16 6.20306C16.0022 6.20306 16.0044 6.20366 16.0063 6.20479C17.1845 7.09643 20 9.73224 20 15C20 18.3881 18.8417 20.6749 17.7137 22.1102C17.1456 22.8332 16.5798 23.3463 16.1626 23.6749C16.1054 23.7199 16.0511 23.7614 16 23.7995ZM15.5201 24.1226C15.5185 24.1235 15.5175 24.1241 15.5173 24.1242L15.5185 24.1235L15.5198 24.1229L15.5201 24.1226Z" fill="black"/>
<path fill-rule="evenodd" clip-rule="evenodd" d="M23.9416 7.56217C24.4266 7.45152 24.9356 7.52798 25.3668 7.77636C25.7965 8.02391 26.1172 8.42398 26.2655 8.89699C26.8067 10.5675 27.4227 14.207 24.8285 18.7C23.5366 20.9375 21.8221 22.6524 20.2375 23.8507C18.6784 25.0298 17.1598 25.7719 16.2117 25.9773C15.672 26.0942 15.1396 25.7515 15.0226 25.2117C14.9057 24.672 15.2485 24.1396 15.7882 24.0227C16.3401 23.9031 17.5903 23.3451 19.0312 22.2555C20.4466 21.1851 21.9634 19.6624 23.0965 17.7C25.3443 13.8068 24.7722 10.7793 24.364 9.51713C23.0841 9.80648 21.8869 10.3837 20.8633 11.205C20.4325 11.5506 19.8031 11.4816 19.4575 11.0508C19.1119 10.62 19.1809 9.99063 19.6117 9.645C20.8772 8.62958 22.3583 7.91713 23.9416 7.56217Z" fill="black"/>
<path fill-rule="evenodd" clip-rule="evenodd" d="M8.0584 7.56219C9.64164 7.91715 11.1227 8.62959 12.3883 9.645C12.819 9.99063 12.8881 10.62 12.5424 11.0508C12.1968 11.4816 11.5674 11.5506 11.1367 11.205C10.113 10.3837 8.9158 9.80648 7.63588 9.51713C7.22752 10.78 6.65608 13.8191 8.90283 17.6988C10.036 19.6557 11.5532 21.1788 12.9693 22.2512C14.4112 23.3431 15.661 23.9033 16.2117 24.0227C16.7515 24.1396 17.0942 24.672 16.9773 25.2117C16.8603 25.7515 16.328 26.0942 15.7882 25.9773C14.839 25.7716 13.32 25.0256 11.7619 23.8456C10.178 22.6461 8.46388 20.9318 7.17209 18.7011C4.57681 14.2196 5.19344 10.5669 5.73445 8.89698C5.88271 8.42397 6.20347 8.0239 6.63316 7.77636C7.06434 7.52797 7.57335 7.45151 8.0584 7.56219Z" fill="black"/>
</svg>
