<svg width="32" height="32" viewBox="0 0 32 32" fill="none" xmlns="http://www.w3.org/2000/svg">
<path fill-rule="evenodd" clip-rule="evenodd" d="M16 13.5C14.6193 13.5 13.5 14.6193 13.5 16C13.5 17.3807 14.6193 18.5 16 18.5C17.3807 18.5 18.5 17.3807 18.5 16C18.5 14.6193 17.3807 13.5 16 13.5ZM11.5 16C11.5 13.5147 13.5147 11.5 16 11.5C18.4853 11.5 20.5 13.5147 20.5 16C20.5 18.4853 18.4853 20.5 16 20.5C13.5147 20.5 11.5 18.4853 11.5 16Z" fill="black"/>
<path fill-rule="evenodd" clip-rule="evenodd" d="M16 4.5C15.337 4.5 14.7011 4.76339 14.2322 5.23223C13.7634 5.70107 13.5 6.33696 13.5 7C13.5 7.61899 13.6967 8.48646 14.0415 9.49526C14.3795 10.4838 14.8312 11.5278 15.2786 12.4717C15.5152 12.9707 15.3024 13.5671 14.8033 13.8036C14.3043 14.0402 13.7079 13.8274 13.4714 13.3283C13.0063 12.3472 12.5205 11.2287 12.1491 10.1422C11.7846 9.07604 11.5 7.95601 11.5 7C11.5 5.80653 11.9741 4.66193 12.818 3.81802C13.6619 2.97411 14.8065 2.5 16 2.5C17.1935 2.5 18.3381 2.97411 19.182 3.81802C20.0259 4.66193 20.5 5.80653 20.5 7C20.5 7.95601 20.2154 9.07604 19.8509 10.1422C19.4795 11.2287 18.9937 12.3472 18.5286 13.3283C18.2921 13.8274 17.6957 14.0402 17.1967 13.8036C16.6976 13.5671 16.4848 12.9707 16.7214 12.4717C17.1688 11.5278 17.6205 10.4838 17.9585 9.49526C18.3033 8.48646 18.5 7.61899 18.5 7C18.5 6.33696 18.2366 5.70107 17.7678 5.23223C17.2989 4.76339 16.663 4.5 16 4.5Z" fill="black"/>
<path fill-rule="evenodd" clip-rule="evenodd" d="M9.47641 9.35616C8.91118 9.07601 8.26059 9.01979 7.65524 9.19937C7.04234 9.38118 6.52238 9.79088 6.20225 10.3442C5.88212 10.8976 5.78614 11.5526 5.93406 12.1746C6.07986 12.7876 6.45172 13.3227 6.9747 13.6731C7.51187 13.9769 8.35259 14.2374 9.38272 14.4408C10.4077 14.6431 11.5375 14.7735 12.5763 14.8529C13.1269 14.895 13.5392 15.3755 13.4971 15.9262C13.455 16.4769 12.9744 16.8892 12.4238 16.8471C11.3375 16.764 10.1236 16.6256 8.99542 16.4029C7.88808 16.1843 6.77615 15.8685 5.94959 15.3908C5.93364 15.3815 5.91794 15.3719 5.90251 15.3618C4.93957 14.7318 4.25456 13.7568 3.98832 12.6373C3.72208 11.5178 3.89483 10.3388 4.47107 9.34274C5.0473 8.34668 5.98323 7.60921 7.08645 7.28195C8.18966 6.95469 9.37634 7.0625 10.4025 7.58322C10.4167 7.5904 10.4306 7.59791 10.4444 7.60575C11.2752 8.07833 12.1051 8.88495 12.8469 9.73437C13.6033 10.6005 14.3306 11.5845 14.9489 12.4832C15.2619 12.9382 15.1468 13.5608 14.6918 13.8738C14.2368 14.1869 13.6142 14.0718 13.3011 13.6168C12.7069 12.753 12.0279 11.837 11.3406 11.05C10.6478 10.2567 10.0042 9.66227 9.47641 9.35616Z" fill="black"/>
<path fill-rule="evenodd" clip-rule="evenodd" d="M13.4971 16.0738C13.5392 16.6244 13.127 17.105 12.5763 17.1471C11.5375 17.2265 10.4077 17.3569 9.38275 17.5592C8.33696 17.7656 7.48638 18.031 6.95044 18.3408C6.93471 18.3499 6.91874 18.3586 6.90254 18.3668C6.59947 18.5206 6.33094 18.7345 6.11335 18.9956C5.89577 19.2567 5.7337 19.5594 5.63705 19.8852C5.54039 20.211 5.51119 20.5531 5.55121 20.8906C5.59124 21.2281 5.69966 21.5539 5.86984 21.8481C6.04002 22.1422 6.2684 22.3986 6.54102 22.6016C6.81363 22.8045 7.12476 22.9497 7.4554 23.0283C7.78603 23.107 8.12923 23.1174 8.46401 23.0589C8.7988 23.0004 9.11815 22.8743 9.40254 22.6882C9.41989 22.6768 9.43759 22.666 9.45561 22.6558C9.98729 22.3534 10.6387 21.7537 11.3406 20.95C12.0279 20.163 12.7069 19.247 13.3012 18.3832C13.6142 17.9282 14.2368 17.8131 14.6918 18.1261C15.1468 18.4392 15.2619 19.0618 14.9489 19.5168C14.3306 20.4155 13.6034 21.3995 12.847 22.2656C12.1131 23.1059 11.2932 23.9042 10.4714 24.3788C9.96605 24.7044 9.40054 24.9256 8.80817 25.029C8.20556 25.1343 7.58781 25.1156 6.99267 24.9741C6.39752 24.8325 5.83749 24.5711 5.34678 24.2059C4.85607 23.8406 4.44499 23.3791 4.13866 22.8496C3.83233 22.32 3.63718 21.7336 3.56513 21.1262C3.49308 20.5187 3.54566 19.9029 3.71963 19.3164C3.89361 18.7299 4.18533 18.1851 4.57699 17.7151C4.96279 17.2522 5.43759 16.8716 5.97313 16.5957C6.7972 16.1255 7.89857 15.8136 8.99544 15.5971C10.1236 15.3744 11.3375 15.236 12.4238 15.1529C12.9745 15.1108 13.455 15.5231 13.4971 16.0738Z" fill="black"/>
<path fill-rule="evenodd" clip-rule="evenodd" d="M14.8033 18.1964C15.3024 18.433 15.5152 19.0293 15.2786 19.5284C14.8312 20.4722 14.3795 21.5162 14.0415 22.5048C13.6967 23.5136 13.5 24.381 13.5 25C13.5 25.6631 13.7634 26.299 14.2322 26.7678C14.7011 27.2366 15.337 27.5 16 27.5C16.663 27.5 17.2989 27.2366 17.7678 26.7678C18.2366 26.299 18.5 25.6631 18.5 25C18.5 24.381 18.3033 23.5136 17.9585 22.5048C17.6205 21.5162 17.1688 20.4722 16.7214 19.5284C16.4848 19.0293 16.6976 18.433 17.1967 18.1964C17.6957 17.9598 18.2921 18.1726 18.5286 18.6717C18.9937 19.6528 19.4795 20.7714 19.8509 21.8578C20.2154 22.924 20.5 24.044 20.5 25C20.5 26.1935 20.0259 27.3381 19.182 28.182C18.3381 29.0259 17.1935 29.5 16 29.5C14.8065 29.5 13.6619 29.0259 12.818 28.182C11.9741 27.3381 11.5 26.1935 11.5 25C11.5 24.044 11.7846 22.924 12.1491 21.8578C12.5205 20.7714 13.0063 19.6528 13.4714 18.6717C13.7079 18.1726 14.3043 17.9598 14.8033 18.1964Z" fill="black"/>
<path fill-rule="evenodd" clip-rule="evenodd" d="M18.5029 16.0738C18.545 15.5231 19.0255 15.1108 19.5762 15.1529C20.6625 15.236 21.8764 15.3744 23.0046 15.5971C24.1119 15.8156 25.2238 16.1315 26.0504 16.6092C26.0663 16.6184 26.082 16.6281 26.0975 16.6382C27.0604 17.2682 27.7454 18.2432 28.0117 19.3627C28.2779 20.4822 28.1051 21.6612 27.5289 22.6572C26.9527 23.6533 26.0167 24.3908 24.9135 24.718C23.8103 25.0453 22.6236 24.9375 21.5975 24.4168C21.5833 24.4096 21.5693 24.4021 21.5556 24.3942C20.7247 23.9217 19.8949 23.115 19.153 22.2656C18.3966 21.3995 17.6694 20.4155 17.0511 19.5168C16.7381 19.0618 16.8532 18.4392 17.3082 18.1261C17.7632 17.8131 18.3858 17.9282 18.6988 18.3832C19.2931 19.247 19.9721 20.163 20.6594 20.95C21.3522 21.7433 21.9957 22.3377 22.5236 22.6438C23.0888 22.924 23.7394 22.9802 24.3447 22.8006C24.9576 22.6188 25.4776 22.2091 25.7977 21.6557C26.1179 21.1024 26.2138 20.4474 26.0659 19.8254C25.9201 19.2124 25.5483 18.6773 25.0253 18.3269C24.4881 18.0231 23.6474 17.7625 22.6173 17.5592C21.5923 17.3569 20.4625 17.2265 19.4237 17.1471C18.873 17.105 18.4608 16.6244 18.5029 16.0738Z" fill="black"/>
<path fill-rule="evenodd" clip-rule="evenodd" d="M22.5236 9.35616C21.9957 9.66227 21.3522 10.2567 20.6594 11.05C19.9721 11.837 19.2931 12.753 18.6988 13.6168C18.3858 14.0718 17.7632 14.1869 17.3082 13.8738C16.8532 13.5608 16.7381 12.9382 17.0511 12.4832C17.6694 11.5845 18.3966 10.6005 19.153 9.73437C19.8949 8.88495 20.7247 8.07833 21.5556 7.60575C21.5693 7.59791 21.5833 7.5904 21.5975 7.58322C22.6236 7.0625 23.8103 6.95469 24.9135 7.28195C26.0167 7.60921 26.9527 8.34668 27.5289 9.34274C28.1051 10.3388 28.2779 11.5178 28.0117 12.6373C27.7454 13.7568 27.0604 14.7318 26.0975 15.3618C26.082 15.3719 26.0663 15.3815 26.0504 15.3908C25.2238 15.8685 24.1119 16.1843 23.0046 16.4029C21.8764 16.6256 20.6625 16.764 19.5762 16.8471C19.0255 16.8892 18.545 16.4769 18.5029 15.9262C18.4608 15.3755 18.873 14.895 19.4237 14.8529C20.4625 14.7735 21.5923 14.6431 22.6173 14.4408C23.6474 14.2374 24.4881 13.9769 25.0253 13.6731C25.5483 13.3227 25.9201 12.7876 26.0659 12.1746C26.2138 11.5526 26.1179 10.8976 25.7977 10.3442C25.4776 9.79088 24.9576 9.38118 24.3447 9.19937C23.7394 9.01979 23.0888 9.07601 22.5236 9.35616Z" fill="black"/>
</svg>
