<svg width="32" height="32" viewBox="0 0 32 32" fill="none" xmlns="http://www.w3.org/2000/svg">
<path fill-rule="evenodd" clip-rule="evenodd" d="M3.58579 6.58579C3.96086 6.21071 4.46957 6 5 6H11.6666C12.0964 6.00177 12.5143 6.14108 12.8592 6.39754L12.8616 6.39931L16.3342 8.99754C16.3341 8.99748 16.3343 8.9976 16.3342 8.99754C16.3362 8.99894 16.3388 8.99991 16.3412 9H25C25.5304 9 26.0391 9.21071 26.4142 9.58579C26.7893 9.96086 27 10.4696 27 11V14C27 14.5523 26.5523 15 26 15C25.4477 15 25 14.5523 25 14V11H16.3334C15.9036 10.9982 15.4857 10.8589 15.1408 10.6025L15.1384 10.6007L11.6658 8.00246C11.6657 8.0024 11.6659 8.00252 11.6658 8.00246C11.6638 8.00106 11.6612 8.00009 11.6588 8L5 8L5 26C5 26.5523 4.55228 27 4 27C3.44772 27 3 26.5523 3 26V8C3 7.46957 3.21071 6.96086 3.58579 6.58579Z" fill="black"/>
<path d="M7.55239 13.3798C7.89353 13.1329 8.3039 13 8.72501 13H28.6125C28.9287 13 29.2405 13.075 29.5221 13.2188C29.8038 13.3626 30.0473 13.5711 30.2327 13.8273C30.4182 14.0835 30.5402 14.38 30.5888 14.6925C30.6374 15.005 30.6113 15.3246 30.5124 15.625L30.5112 15.6287L26.9487 26.3162C26.8126 26.7246 26.4304 27 26 27H4.00001C3.67851 27 3.37661 26.8454 3.18867 26.5846C3.00073 26.3237 2.94966 25.9884 3.05143 25.6835L6.82509 14.375L6.82586 14.3727C6.95769 13.9736 7.21188 13.6262 7.55239 13.3798Z" fill="black"/>
</svg>
