<svg width="32" height="32" viewBox="0 0 32 32" fill="none" xmlns="http://www.w3.org/2000/svg">
<path fill-rule="evenodd" clip-rule="evenodd" d="M11.5858 7.00001L15.2929 10.7071C15.6834 11.0976 16.3166 11.0976 16.7071 10.7071C17.0976 10.3166 17.0976 9.68342 16.7071 9.2929L12.9946 5.5804L12.9928 5.57865C12.8076 5.39431 12.5878 5.24831 12.346 5.14902C12.1049 5.04999 11.8467 4.99936 11.586 5.00001H11.5875V6.00001L11.584 5.00001C11.5847 5.00001 11.5854 5.00001 11.586 5.00001" fill="black"/>
<path fill-rule="evenodd" clip-rule="evenodd" d="M3 10C3 9.44772 3.44772 9 4 9H27C27.5304 9 28.0391 9.21071 28.4142 9.58579C28.7893 9.96086 29 10.4696 29 11V15C29 15.5523 28.5523 16 28 16C27.4477 16 27 15.5523 27 15V11H5V25H15.075C15.6273 25 16.075 25.4477 16.075 26C16.075 26.5523 15.6273 27 15.075 27H4.925C4.6722 27 4.42189 26.9502 4.18833 26.8535C3.95479 26.7567 3.74258 26.6149 3.56382 26.4362C3.38506 26.2574 3.24327 26.0452 3.14653 25.8117C3.04979 25.5781 3 25.3278 3 25.075V10Z" fill="black"/>
<path fill-rule="evenodd" clip-rule="evenodd" d="M23.5 15C23.8995 15 24.2606 15.2377 24.4186 15.6046L25.8423 18.9124L29.5776 19.203C29.984 19.2346 30.3306 19.5098 30.4535 19.8985C30.5764 20.2871 30.4511 20.7115 30.1368 20.9711L27.3224 23.2951L28.183 26.7589C28.2802 27.1497 28.1333 27.5607 27.8105 27.8015C27.4877 28.0424 27.0519 28.066 26.7049 27.8616L23.5 25.9732L20.2952 27.8616C19.9482 28.066 19.5124 28.0424 19.1896 27.8015C18.8668 27.5607 18.7199 27.1497 18.8171 26.7589L19.6777 23.2951L16.8633 20.9711C16.549 20.7115 16.4237 20.2871 16.5466 19.8985C16.6695 19.5098 17.0161 19.2346 17.4225 19.203L21.1578 18.9124L22.5815 15.6046C22.7394 15.2377 23.1006 15 23.5 15ZM23.5 18.5294L22.7561 20.2579C22.6092 20.599 22.2854 20.8307 21.9151 20.8595L20.0454 21.005L21.4368 22.1539C21.7336 22.399 21.8633 22.7926 21.7705 23.1661L21.3325 24.929L22.9924 23.9509C23.3057 23.7664 23.6944 23.7664 24.0077 23.9509L25.6676 24.929L25.2296 23.1661C25.1367 22.7926 25.2665 22.399 25.5633 22.1539L26.9547 21.005L25.085 20.8595C24.7147 20.8307 24.3909 20.599 24.244 20.2579L23.5 18.5294Z" fill="black"/>
</svg>
