<svg width="32" height="32" viewBox="0 0 32 32" fill="none" xmlns="http://www.w3.org/2000/svg">
<path fill-rule="evenodd" clip-rule="evenodd" d="M3 10C3 9.44772 3.44772 9 4 9H27C27.5304 9 28.0391 9.21071 28.4142 9.58579C28.7893 9.96086 29 10.4696 29 11V25.1125C29 25.6131 28.8011 26.0932 28.4472 26.4472C28.0932 26.8011 27.6131 27 27.1125 27H4.925C4.6722 27 4.42189 26.9502 4.18833 26.8535C3.95479 26.7567 3.74258 26.6149 3.56382 26.4362C3.38506 26.2574 3.24327 26.0452 3.14653 25.8117C3.04979 25.5781 3 25.3278 3 25.075V10ZM5 11V25H27V11H5Z" fill="black"/>
<path fill-rule="evenodd" clip-rule="evenodd" d="M11.5858 7L15.2929 10.7071C15.6834 11.0976 16.3166 11.0976 16.7071 10.7071C17.0976 10.3166 17.0976 9.68342 16.7071 9.29289L12.9946 5.58039L12.9928 5.57864C12.8076 5.3943 12.5878 5.24831 12.346 5.14902C12.1049 5.04999 11.8467 4.99935 11.586 5H11.5875V6L11.584 5C11.5847 5 11.5854 5 11.586 5" fill="black"/>
<path fill-rule="evenodd" clip-rule="evenodd" d="M12 18C12 17.4477 12.4477 17 13 17H19C19.5523 17 20 17.4477 20 18C20 18.5523 19.5523 19 19 19H13C12.4477 19 12 18.5523 12 18Z" fill="black"/>
</svg>
