<svg width="32" height="32" viewBox="0 0 32 32" fill="none" xmlns="http://www.w3.org/2000/svg">
<path fill-rule="evenodd" clip-rule="evenodd" d="M15 10C15 9.44772 15.4477 9 16 9H27C27.5304 9 28.0391 9.21071 28.4142 9.58579C28.7893 9.96086 29 10.4696 29 11V25C29 25.5304 28.7893 26.0391 28.4142 26.4142C28.0391 26.7893 27.5304 27 27 27H5C4.46957 27 3.96086 26.7893 3.58579 26.4142C3.21071 26.0391 3 25.5304 3 25V13C3 12.4477 3.44772 12 4 12C4.55228 12 5 12.4477 5 13V25H27V11H16C15.4477 11 15 10.5523 15 10Z" fill="black"/>
<path fill-rule="evenodd" clip-rule="evenodd" d="M3.58579 6.58579C3.96086 6.21071 4.46957 6 5 6H11.6666C12.0964 6.00177 12.5143 6.14108 12.8592 6.39754L12.8621 6.39967L16.5996 9.19968C16.8516 9.38851 17 9.68505 17 10C17 10.3149 16.8516 10.6115 16.5996 10.8003L12.8621 13.6003L12.8592 13.6025C12.5143 13.8589 12.0964 13.9982 11.6666 14L11.6625 13V14H4C3.44772 14 3 13.5523 3 13V8C3 7.46957 3.21071 6.96086 3.58579 6.58579ZM11.6588 12C11.6612 11.9999 11.6635 11.9991 11.6655 11.9978C11.6654 11.9978 11.6656 11.9977 11.6655 11.9978L14.3321 10L11.6658 8.00246C11.6657 8.00239 11.6659 8.00253 11.6658 8.00246C11.6638 8.00108 11.6612 8.00009 11.6588 8L5 8L5 12H11.6588Z" fill="black"/>
<path fill-rule="evenodd" clip-rule="evenodd" d="M12 18.5C12 17.9477 12.4477 17.5 13 17.5H19C19.5523 17.5 20 17.9477 20 18.5C20 19.0523 19.5523 19.5 19 19.5H13C12.4477 19.5 12 19.0523 12 18.5Z" fill="black"/>
<path fill-rule="evenodd" clip-rule="evenodd" d="M16 14.5C16.5523 14.5 17 14.9477 17 15.5V21.5C17 22.0523 16.5523 22.5 16 22.5C15.4477 22.5 15 22.0523 15 21.5V15.5C15 14.9477 15.4477 14.5 16 14.5Z" fill="black"/>
</svg>
