<svg xmlns="http://www.w3.org/2000/svg" width="32" height="32" fill="none" viewBox="0 0 32 32"><path fill="#000" fill-rule="evenodd" d="M23.5 19.5C22.3954 19.5 21.5 20.3954 21.5 21.5C21.5 22.6046 22.3954 23.5 23.5 23.5C24.6046 23.5 25.5 22.6046 25.5 21.5C25.5 20.3954 24.6046 19.5 23.5 19.5ZM19.5 21.5C19.5 19.2909 21.2909 17.5 23.5 17.5C25.7091 17.5 27.5 19.2909 27.5 21.5C27.5 23.7091 25.7091 25.5 23.5 25.5C21.2909 25.5 19.5 23.7091 19.5 21.5Z" clip-rule="evenodd"/><path fill="#000" fill-rule="evenodd" d="M23.5 25.4922C22.8339 25.4922 22.1867 25.7139 21.6605 26.1223C21.1343 26.5308 20.759 27.1027 20.5937 27.748C20.4568 28.2831 19.912 28.6057 19.377 28.4688C18.8419 28.3318 18.5193 27.787 18.6562 27.252C18.9316 26.1764 19.5571 25.2232 20.4341 24.5424C21.3111 23.8617 22.3898 23.4922 23.5 23.4922C24.6102 23.4922 25.6888 23.8617 26.5659 24.5424C27.4429 25.2232 28.0684 26.1764 28.3437 27.252C28.4807 27.787 28.1581 28.3318 27.623 28.4688C27.088 28.6057 26.5432 28.2831 26.4062 27.748C26.241 27.1027 25.8657 26.5308 25.3395 26.1223C24.8133 25.7139 24.1661 25.4922 23.5 25.4922Z" clip-rule="evenodd"/><path fill="#000" fill-rule="evenodd" d="M11.5858 7.00001L15.2929 10.7071C15.6834 11.0976 16.3166 11.0976 16.7071 10.7071C17.0976 10.3166 17.0976 9.68342 16.7071 9.2929L12.9946 5.5804L12.9928 5.57865C12.8076 5.39431 12.5878 5.24831 12.346 5.14902C12.1049 5.04999 11.8467 4.99936 11.586 5.00001H11.5875V6.00001L11.584 5.00001C11.5847 5.00001 11.5854 5.00001 11.586 5.00001" clip-rule="evenodd"/><path fill="#000" fill-rule="evenodd" d="M3 10C3 9.44772 3.44772 9 4 9H27C27.5304 9 28.0391 9.21071 28.4142 9.58579C28.7893 9.96086 29 10.4696 29 11V15C29 15.5523 28.5523 16 28 16C27.4477 16 27 15.5523 27 15V11H5V25H15.075C15.6273 25 16.075 25.4477 16.075 26C16.075 26.5523 15.6273 27 15.075 27H4.925C4.6722 27 4.42189 26.9502 4.18833 26.8535C3.95479 26.7567 3.74258 26.6149 3.56382 26.4362C3.38506 26.2574 3.24327 26.0452 3.14653 25.8117C3.04979 25.5781 3 25.3278 3 25.075V10Z" clip-rule="evenodd"/></svg>