<svg width="32" height="32" viewBox="0 0 32 32" fill="none" xmlns="http://www.w3.org/2000/svg">
<path fill-rule="evenodd" clip-rule="evenodd" d="M11.5858 7L15.2929 10.7071C15.6834 11.0976 16.3166 11.0976 16.7071 10.7071C17.0976 10.3166 17.0976 9.68342 16.7071 9.29289L12.9946 5.58039L12.9928 5.57865C12.8076 5.3943 12.5878 5.24831 12.346 5.14902C12.1049 5.04999 11.8467 4.99936 11.586 5H11.5875V6L11.584 5.00001C11.5847 5 11.5854 5 11.586 5" fill="black"/>
<path fill-rule="evenodd" clip-rule="evenodd" d="M18 20.5C18 19.9477 18.4477 19.5 19 19.5H28C28.5523 19.5 29 19.9477 29 20.5V26C29 26.5523 28.5523 27 28 27H19C18.4477 27 18 26.5523 18 26V20.5ZM20 21.5V25H27V21.5H20Z" fill="black"/>
<path fill-rule="evenodd" clip-rule="evenodd" d="M3 10C3 9.44772 3.44772 9 4 9H27C27.5304 9 28.0391 9.21071 28.4142 9.58579C28.7893 9.96086 29 10.4696 29 11V13C29 13.5523 28.5523 14 28 14C27.4477 14 27 13.5523 27 13V11H5V25H14.075C14.6273 25 15.075 25.4477 15.075 26C15.075 26.5523 14.6273 27 14.075 27H4.925C4.6722 27 4.42189 26.9502 4.18833 26.8535C3.95479 26.7567 3.74258 26.6149 3.56382 26.4362C3.38506 26.2574 3.24327 26.0452 3.14653 25.8117C3.04979 25.5781 3 25.3278 3 25.075V10Z" fill="black"/>
<path fill-rule="evenodd" clip-rule="evenodd" d="M23.5 17.5C23.1022 17.5 22.7206 17.658 22.4393 17.9393C22.158 18.2206 22 18.6022 22 19V20.5C22 21.0523 21.5523 21.5 21 21.5C20.4477 21.5 20 21.0523 20 20.5V19C20 18.0717 20.3687 17.1815 21.0251 16.5251C21.6815 15.8687 22.5717 15.5 23.5 15.5C24.4283 15.5 25.3185 15.8687 25.9749 16.5251C26.6313 17.1815 27 18.0717 27 19V20.5C27 21.0523 26.5523 21.5 26 21.5C25.4477 21.5 25 21.0523 25 20.5V19C25 18.6022 24.842 18.2206 24.5607 17.9393C24.2794 17.658 23.8978 17.5 23.5 17.5Z" fill="black"/>
</svg>
