<svg width="32" height="32" viewBox="0 0 32 32" fill="none" xmlns="http://www.w3.org/2000/svg">
<path fill-rule="evenodd" clip-rule="evenodd" d="M24.6333 5.72346C21.2284 5.14782 14.4576 4.79495 9.63296 9.63121C4.80622 14.4696 5.14831 21.231 5.72351 24.6333L5.72373 24.6346C5.79256 25.045 5.9877 25.4237 6.28197 25.718C6.57624 26.0123 6.95497 26.2074 7.36539 26.2762L7.3667 26.2764C10.7687 26.8516 17.5296 27.1937 22.3679 22.3678C27.1937 17.5295 26.8517 10.7687 26.2765 7.36666L26.2763 7.36535C26.2074 6.95493 26.0123 6.57619 25.718 6.28193C25.4238 5.98766 25.045 5.79251 24.6346 5.72368L24.6333 5.72346ZM24.9667 3.75145C21.4216 3.1521 13.7674 2.65496 8.21704 8.2187C2.66912 13.78 3.15163 21.418 3.75138 24.966C3.88914 25.7866 4.27938 26.5438 4.86776 27.1322C5.45598 27.7204 6.21295 28.1106 7.0333 28.2485C10.5811 28.8483 18.2196 29.3312 23.7813 23.7829L23.783 23.7812C29.3309 18.2199 28.8484 10.582 28.2486 7.03391C28.1109 6.21331 27.7206 5.45609 27.1322 4.86771C26.544 4.27949 25.787 3.8893 24.9667 3.75145Z" fill="black"/>
<path fill-rule="evenodd" clip-rule="evenodd" d="M20.7071 11.2929C21.0976 11.6834 21.0976 12.3166 20.7071 12.7071L12.7071 20.7071C12.3166 21.0976 11.6834 21.0976 11.2929 20.7071C10.9024 20.3166 10.9024 19.6834 11.2929 19.2929L19.2929 11.2929C19.6834 10.9024 20.3166 10.9024 20.7071 11.2929Z" fill="black"/>
<path fill-rule="evenodd" clip-rule="evenodd" d="M14.8804 12.0553C15.2709 11.6648 15.9041 11.6648 16.2946 12.0553L19.9446 15.7053C20.3351 16.0959 20.3351 16.729 19.9446 17.1196C19.5541 17.5101 18.9209 17.5101 18.5304 17.1196L14.8804 13.4696C14.4899 13.079 14.4899 12.4459 14.8804 12.0553Z" fill="black"/>
<path fill-rule="evenodd" clip-rule="evenodd" d="M12.0554 14.8804C12.4459 14.4899 13.0791 14.4899 13.4696 14.8804L17.1196 18.5304C17.5101 18.9209 17.5101 19.5541 17.1196 19.9446C16.7291 20.3352 16.0959 20.3352 15.7054 19.9446L12.0554 16.2946C11.6649 15.9041 11.6649 15.2709 12.0554 14.8804Z" fill="black"/>
<path fill-rule="evenodd" clip-rule="evenodd" d="M17.8179 3.81792C18.2084 3.42739 18.8416 3.42739 19.2321 3.81792L28.1821 12.7679C28.5726 13.1584 28.5726 13.7916 28.1821 14.1821C27.7916 14.5727 27.1584 14.5727 26.7679 14.1821L17.8179 5.23213C17.4274 4.84161 17.4274 4.20844 17.8179 3.81792Z" fill="black"/>
<path fill-rule="evenodd" clip-rule="evenodd" d="M3.81789 17.8179C4.20842 17.4274 4.84158 17.4274 5.23211 17.8179L14.1821 26.7679C14.5726 27.1584 14.5726 27.7916 14.1821 28.1821C13.7916 28.5727 13.1584 28.5727 12.7679 28.1821L3.81789 19.2321C3.42737 18.8416 3.42737 18.2084 3.81789 17.8179Z" fill="black"/>
</svg>
