<svg width="32" height="32" viewBox="0 0 32 32" fill="none" xmlns="http://www.w3.org/2000/svg">
<path fill-rule="evenodd" clip-rule="evenodd" d="M6.07072 3.63055C6.22208 3.24987 6.59031 3 6.99997 3H25C25.5523 3 26 3.44772 26 4V12.5C26 13.0523 25.5523 13.5 25 13.5H18.5152L25.6866 20.273C25.9844 20.5543 26.0806 20.9888 25.9292 21.3694C25.7779 21.7501 25.4096 22 25 22H17V29.5C17 29.8993 16.7625 30.2603 16.3958 30.4183C16.0292 30.5764 15.6036 30.5012 15.3134 30.227L6.31335 21.727C6.11333 21.5381 5.99997 21.2751 5.99997 21V12.5C5.99997 11.9477 6.44769 11.5 6.99997 11.5H13.4847L6.31335 4.72701C6.01552 4.44573 5.91937 4.01123 6.07072 3.63055ZM16.3976 11.5H24V5H9.5152L16.3976 11.5ZM15.6024 13.5H7.99997V20.569L15 27.1801V21C15 20.4477 15.4477 20 16 20H22.4848L15.6024 13.5Z" fill="black"/>
</svg>
