<svg width="32" height="32" viewBox="0 0 32 32" fill="none" xmlns="http://www.w3.org/2000/svg">
<path fill-rule="evenodd" clip-rule="evenodd" d="M7 16C7 15.4477 7.44772 15 8 15H24C24.5523 15 25 15.4477 25 16C25 16.5523 24.5523 17 24 17H8C7.44772 17 7 16.5523 7 16Z" fill="black"/>
<path fill-rule="evenodd" clip-rule="evenodd" d="M2 10C2 9.44772 2.44772 9 3 9H29C29.5523 9 30 9.44772 30 10C30 10.5523 29.5523 11 29 11H3C2.44772 11 2 10.5523 2 10Z" fill="black"/>
<path fill-rule="evenodd" clip-rule="evenodd" d="M12 22C12 21.4477 12.4477 21 13 21H19C19.5523 21 20 21.4477 20 22C20 22.5523 19.5523 23 19 23H13C12.4477 23 12 22.5523 12 22Z" fill="black"/>
</svg>
