<svg xmlns="http://www.w3.org/2000/svg" width="32" height="32" fill="none" viewBox="0 0 32 32"><path fill="#000" fill-rule="evenodd" d="M18 13.5C18 12.9477 18.4477 12.5 19 12.5H23C23.5523 12.5 24 12.9477 24 13.5C24 14.0523 23.5523 14.5 23 14.5H19C18.4477 14.5 18 14.0523 18 13.5Z" clip-rule="evenodd"/><path fill="#000" fill-rule="evenodd" d="M8 13.5C8 12.9477 8.44772 12.5 9 12.5H13C13.5523 12.5 14 12.9477 14 13.5C14 14.0523 13.5523 14.5 13 14.5H9C8.44772 14.5 8 14.0523 8 13.5Z" clip-rule="evenodd"/><path fill="#000" fill-rule="evenodd" d="M11 10.5C11.5523 10.5 12 10.9477 12 11.5V15.5C12 16.0523 11.5523 16.5 11 16.5C10.4477 16.5 10 16.0523 10 15.5V11.5C10 10.9477 10.4477 10.5 11 10.5Z" clip-rule="evenodd"/><path fill="#000" fill-rule="evenodd" d="M21.5 5.96252C23.4891 5.96252 25.3968 6.7527 26.8033 8.15922C28.2098 9.56575 29 11.4734 29 13.4625C29 15.4516 28.2098 17.3593 26.8033 18.7658C25.3973 20.1718 23.4907 20.9619 21.5024 20.9625C21.5016 20.9625 21.5008 20.9625 21.5 20.9625L13.821 20.998L8.7169 26.6455L7.975 25.975L8.68355 26.6807C8.00689 27.3601 7.13088 27.8056 6.18325 27.9523C5.23561 28.0989 4.26591 27.939 3.41553 27.4959C2.56515 27.0528 1.87855 26.3496 1.45586 25.4889C1.03316 24.6281 0.896462 23.6549 1.0657 22.711L1.06849 22.6961L3.11692 12.1917C3.42623 10.4598 4.33359 8.89128 5.68094 7.75971C7.03034 6.62643 8.73517 6.00357 10.4973 6.00003M21.5 5.96252V6.96252V5.96252ZM21.5 7.96252L10.5019 8.00002C9.20868 8.00248 7.95749 8.45954 6.96718 9.29124C5.97688 10.1229 5.31051 11.2763 5.08463 12.5497L4.1 12.375L5.08151 12.5664L3.03309 23.0709C2.94095 23.5931 3.01725 24.1311 3.25106 24.6072C3.48589 25.0854 3.86733 25.4761 4.33976 25.7223C4.8122 25.9685 5.35092 26.0573 5.87739 25.9758C6.39653 25.8955 6.87698 25.6537 7.2507 25.285L12.6331 19.3295C12.8216 19.1209 13.0892 19.0013 13.3704 19L21.4954 18.9625L21.5 18.9625C22.9587 18.9625 24.3576 18.3831 25.3891 17.3516C26.4205 16.3202 27 14.9212 27 13.4625C27 12.0038 26.4205 10.6049 25.3891 9.57344C24.358 8.54237 22.9597 7.96296 21.5016 7.96252C21.5011 7.96252 21.5005 7.96252 21.5 7.96252Z" clip-rule="evenodd"/><path fill="#000" fill-rule="evenodd" d="M27.7093 11.3558C28.2514 11.2505 28.7763 11.6046 28.8816 12.1467L30.9316 22.6967L30.9343 22.711C31.1035 23.6548 30.9669 24.6281 30.5442 25.4888C30.1215 26.3495 29.4349 27.0527 28.5845 27.4959C27.7341 27.939 26.7644 28.0989 25.8168 27.9522C24.8691 27.8056 23.9931 27.3601 23.3165 26.6806L24.025 25.975L23.2817 26.6439L17.8817 20.6439C17.5123 20.2334 17.5455 19.6011 17.956 19.2317C18.3666 18.8622 18.9988 18.8955 19.3683 19.306L24.75 25.2856C25.1236 25.6539 25.6038 25.8955 26.1226 25.9758C26.6491 26.0572 27.1878 25.9684 27.6602 25.7222C28.1327 25.476 28.5141 25.0854 28.749 24.6072C28.9828 24.131 29.0591 23.5928 28.9669 23.0705L26.9184 12.5282C26.813 11.9861 27.1671 11.4612 27.7093 11.3558Z" clip-rule="evenodd"/></svg>