<svg width="32" height="32" viewBox="0 0 32 32" fill="none" xmlns="http://www.w3.org/2000/svg">
<path fill-rule="evenodd" clip-rule="evenodd" d="M20.5602 8.90016C19.099 8.29983 17.5336 7.99392 15.9538 8L15.9535 8C9.34289 8.02303 4 13.4873 4 20.1375V23H28V20C28 18.4202 27.6881 16.856 27.0822 15.3971C26.4762 13.9382 25.5882 12.6133 24.469 11.4984C23.3498 10.3834 22.0215 9.5005 20.5602 8.90016ZM15.9465 6.00001C17.7894 5.99297 19.6156 6.34986 21.3203 7.0502C23.025 7.7506 24.5747 8.7807 25.8805 10.0814C27.1862 11.3822 28.2223 12.9279 28.9292 14.63C29.6361 16.3321 30 18.157 30 20V23C30 23.5304 29.7893 24.0391 29.4142 24.4142C29.0391 24.7893 28.5304 25 28 25H4C3.46957 25 2.96086 24.7893 2.58579 24.4142C2.21071 24.0391 2 23.5304 2 23V20.1375C2 12.4128 8.20692 6.02718 15.9462 6.00001" fill="black"/>
<path fill-rule="evenodd" clip-rule="evenodd" d="M16 6C16.5523 6 17 6.44772 17 7V11C17 11.5523 16.5523 12 16 12C15.4477 12 15 11.5523 15 11V7C15 6.44772 15.4477 6 16 6Z" fill="black"/>
<path fill-rule="evenodd" clip-rule="evenodd" d="M2.47153 16.3789C2.61437 15.8454 3.16264 15.5287 3.69614 15.6715L7.57114 16.709C8.10463 16.8519 8.42132 17.4001 8.27848 17.9336C8.13564 18.4671 7.58737 18.7838 7.05387 18.641L3.17887 17.6035C2.64538 17.4606 2.32869 16.9124 2.47153 16.3789Z" fill="black"/>
<path fill-rule="evenodd" clip-rule="evenodd" d="M29.5285 16.3789C29.6713 16.9124 29.3546 17.4606 28.8211 17.6035L24.9461 18.641C24.4126 18.7838 23.8644 18.4671 23.7215 17.9336C23.5787 17.4001 23.8954 16.8519 24.4289 16.709L28.3039 15.6715C28.8374 15.5287 29.3856 15.8454 29.5285 16.3789Z" fill="black"/>
<path fill-rule="evenodd" clip-rule="evenodd" d="M22.0839 12.0693C22.522 12.4056 22.6045 13.0334 22.2682 13.4714L13.7182 24.6089C13.3819 25.047 12.7541 25.1295 12.316 24.7932C11.878 24.4569 11.7955 23.8292 12.1318 23.3911L20.6818 12.2536C21.0181 11.8155 21.6458 11.733 22.0839 12.0693Z" fill="black"/>
</svg>
