<svg width="32" height="32" viewBox="0 0 32 32" fill="none" xmlns="http://www.w3.org/2000/svg">
<path fill-rule="evenodd" clip-rule="evenodd" d="M16 13C11.8579 13 8.5 16.3579 8.5 20.5C8.5 24.6421 11.8579 28 16 28C20.1421 28 23.5 24.6421 23.5 20.5C23.5 16.3579 20.1421 13 16 13ZM6.5 20.5C6.5 15.2533 10.7533 11 16 11C21.2467 11 25.5 15.2533 25.5 20.5C25.5 25.7467 21.2467 30 16 30C10.7533 30 6.5 25.7467 6.5 20.5Z" fill="black"/>
<path fill-rule="evenodd" clip-rule="evenodd" d="M10.7076 1.94207C11.0157 1.48373 11.637 1.36195 12.0954 1.67008L21.0204 7.67008C21.4787 7.97821 21.6005 8.59956 21.2924 9.0579C20.9842 9.51624 20.3629 9.63801 19.9045 9.32988L10.9795 3.32988C10.5212 3.02175 10.3994 2.40041 10.7076 1.94207Z" fill="black"/>
<path fill-rule="evenodd" clip-rule="evenodd" d="M21.2924 1.94207C21.6005 2.40041 21.4787 3.02175 21.0204 3.32988L12.0954 9.32988C11.637 9.63801 11.0157 9.51624 10.7076 9.0579C10.3994 8.59956 10.5212 7.97821 10.9795 7.67008L19.9045 1.67008C20.3629 1.36195 20.9842 1.48373 21.2924 1.94207Z" fill="black"/>
<path fill-rule="evenodd" clip-rule="evenodd" d="M16 4.5C16.5523 4.5 17 4.94772 17 5.5V12C17 12.5523 16.5523 13 16 13C15.4477 13 15 12.5523 15 12V5.5C15 4.94772 15.4477 4.5 16 4.5Z" fill="black"/>
</svg>
