<svg width="32" height="32" viewBox="0 0 32 32" fill="none" xmlns="http://www.w3.org/2000/svg">
<path fill-rule="evenodd" clip-rule="evenodd" d="M15 7C11.4101 7 8.5 9.91015 8.5 13.5C8.5 17.0899 11.4101 20 15 20C18.5899 20 21.5 17.0899 21.5 13.5C21.5 9.91015 18.5899 7 15 7ZM6.5 13.5C6.5 8.80558 10.3056 5 15 5C19.6944 5 23.5 8.80558 23.5 13.5C23.5 18.1944 19.6944 22 15 22C10.3056 22 6.5 18.1944 6.5 13.5Z" fill="black"/>
<path fill-rule="evenodd" clip-rule="evenodd" d="M15 20C15.5523 20 16 20.4477 16 21V29C16 29.5523 15.5523 30 15 30C14.4477 30 14 29.5523 14 29V21C14 20.4477 14.4477 20 15 20Z" fill="black"/>
<path fill-rule="evenodd" clip-rule="evenodd" d="M10 25.5C10 24.9477 10.4477 24.5 11 24.5H19C19.5523 24.5 20 24.9477 20 25.5C20 26.0523 19.5523 26.5 19 26.5H11C10.4477 26.5 10 26.0523 10 25.5Z" fill="black"/>
<path fill-rule="evenodd" clip-rule="evenodd" d="M20 3C20 2.44772 20.4477 2 21 2H26C26.5523 2 27 2.44772 27 3V8C27 8.55228 26.5523 9 26 9C25.4477 9 25 8.55228 25 8V4H21C20.4477 4 20 3.55228 20 3Z" fill="black"/>
<path fill-rule="evenodd" clip-rule="evenodd" d="M26.7071 2.29289C27.0976 2.68342 27.0976 3.31658 26.7071 3.70711L21.2571 9.15711C20.8666 9.54763 20.2334 9.54763 19.8429 9.15711C19.4524 8.76658 19.4524 8.13342 19.8429 7.74289L25.2929 2.29289C25.6834 1.90237 26.3166 1.90237 26.7071 2.29289Z" fill="black"/>
</svg>
