<svg xmlns="http://www.w3.org/2000/svg" width="32" height="32" fill="none" viewBox="0 0 32 32"><path fill="#000" fill-rule="evenodd" d="M16 5C11.5817 5 8 8.58172 8 13C8 17.4183 11.5817 21 16 21C20.4183 21 24 17.4183 24 13C24 8.58172 20.4183 5 16 5ZM6 13C6 7.47715 10.4772 3 16 3C21.5228 3 26 7.47715 26 13C26 18.5228 21.5228 23 16 23C10.4772 23 6 18.5228 6 13Z" clip-rule="evenodd"/><path fill="#000" fill-rule="evenodd" d="M16 21C16.5523 21 17 21.4477 17 22V29C17 29.5523 16.5523 30 16 30C15.4477 30 15 29.5523 15 29V22C15 21.4477 15.4477 21 16 21Z" clip-rule="evenodd"/></svg>