<svg xmlns="http://www.w3.org/2000/svg" width="32" height="32" fill="none" viewBox="0 0 32 32"><path fill="#000" fill-rule="evenodd" d="M12 13C8.13401 13 5 16.134 5 20C5 23.866 8.13401 27 12 27C15.866 27 19 23.866 19 20C19 16.134 15.866 13 12 13ZM3 20C3 15.0294 7.02944 11 12 11C16.9706 11 21 15.0294 21 20C21 24.9706 16.9706 29 12 29C7.02944 29 3 24.9706 3 20Z" clip-rule="evenodd"/><path fill="#000" fill-rule="evenodd" d="M27.7071 4.29289C28.0976 4.68342 28.0976 5.31658 27.7071 5.70711L18.3696 15.0446C17.9791 15.4351 17.3459 15.4351 16.9554 15.0446C16.5648 14.6541 16.5648 14.0209 16.9554 13.6304L26.2929 4.29289C26.6834 3.90237 27.3166 3.90237 27.7071 4.29289Z" clip-rule="evenodd"/><path fill="#000" fill-rule="evenodd" d="M20 5C20 4.44772 20.4477 4 21 4H27C27.5523 4 28 4.44772 28 5V11C28 11.5523 27.5523 12 27 12C26.4477 12 26 11.5523 26 11V6H21C20.4477 6 20 5.55228 20 5Z" clip-rule="evenodd"/><path fill="#000" fill-rule="evenodd" d="M17.2929 7.29289C17.6834 6.90237 18.3166 6.90237 18.7071 7.29289L24.7071 13.2929C25.0976 13.6834 25.0976 14.3166 24.7071 14.7071C24.3166 15.0976 23.6834 15.0976 23.2929 14.7071L17.2929 8.70711C16.9024 8.31658 16.9024 7.68342 17.2929 7.29289Z" clip-rule="evenodd"/></svg>