<svg xmlns="http://www.w3.org/2000/svg" width="32" height="32" fill="none" viewBox="0 0 32 32"><path fill="#000" fill-rule="evenodd" d="M17 8C17.5523 8 18 8.44772 18 9V23C18 23.5523 17.5523 24 17 24C16.4477 24 16 23.5523 16 23V9C16 8.44772 16.4477 8 17 8Z" clip-rule="evenodd"/><path fill="#000" fill-rule="evenodd" d="M21.5 9C21.5 8.44772 21.9477 8 22.5 8H28.5C29.0523 8 29.5 8.44772 29.5 9C29.5 9.55228 29.0523 10 28.5 10H23.5V23C23.5 23.5523 23.0523 24 22.5 24C21.9477 24 21.5 23.5523 21.5 23V9Z" clip-rule="evenodd"/><path fill="#000" fill-rule="evenodd" d="M21.5 16C21.5 15.4477 21.9477 15 22.5 15H27C27.5523 15 28 15.4477 28 16C28 16.5523 27.5523 17 27 17H22.5C21.9477 17 21.5 16.5523 21.5 16Z" clip-rule="evenodd"/><path fill="#000" fill-rule="evenodd" d="M9.68629 10.5109C9.08152 10.0999 8.34746 9.92392 7.62208 10.016C6.89669 10.1081 6.22991 10.462 5.74707 11.0111C5.26423 11.5603 4.99856 12.2668 5 12.998L5 13L5 19C5 19.7957 5.31607 20.5587 5.87868 21.1213C6.44129 21.6839 7.20435 22 8 22C8.79565 22 9.55871 21.6839 10.1213 21.1213C10.6839 20.5587 11 19.7957 11 19V17H9C8.44772 17 8 16.5523 8 16C8 15.4477 8.44772 15 9 15H12C12.5523 15 13 15.4477 13 16V19C13 20.3261 12.4732 21.5979 11.5355 22.5355C10.5979 23.4732 9.32608 24 8 24C6.67392 24 5.40215 23.4732 4.46447 22.5355C3.52678 21.5979 3 20.3261 3 19V13.0009" clip-rule="evenodd"/></svg>