<svg width="32" height="32" viewBox="0 0 32 32" fill="none" xmlns="http://www.w3.org/2000/svg">
<path fill-rule="evenodd" clip-rule="evenodd" d="M13.5 20C14.0523 20 14.5 20.4477 14.5 21V26.9981" fill="black"/>
<path fill-rule="evenodd" clip-rule="evenodd" d="M18.5 20C19.0523 20 19.5 20.4477 19.5 21V27.0042C19.4989 27.2666 19.5498 27.5266 19.6497 27.7693C19.7496 28.0119 19.8966 28.2324 20.0821 28.4179C20.2677 28.6034 20.4881 28.7504 20.7308 28.8503C20.9734 28.9502 21.2334 29.0011 21.4958 29C22.0481 28.9977 22.4977 29.4435 22.5 29.9958C22.5023 30.5481 22.0565 30.9977 21.5042 31C20.9778 31.0022 20.4561 30.9001 19.9693 30.6997C19.4825 30.4992 19.0402 30.2044 18.6679 29.8321C18.2956 29.4599 18.0008 29.0176 17.8003 28.5307C17.6002 28.0446 17.4981 27.5237 17.5 26.998C17.5 26.9973 17.5 26.9966 17.5 26.9958L18.5 27H17.5V26.998V21C17.5 20.4477 17.9477 20 18.5 20Z" fill="black"/>
<path fill-rule="evenodd" clip-rule="evenodd" d="M21.7693 22.1497C21.5266 22.0498 21.2666 21.9989 21.0042 22L21 22L19 22C18.4477 22 18 21.5523 18 21C18 20.4477 18.4477 20 19 20H20.998M21.7693 22.1497C22.0119 22.2496 22.2324 22.3966 22.4179 22.5821L21.7693 22.1497ZM22.4179 22.5821C22.6034 22.7676 22.7504 22.9881 22.8503 23.2307L22.4179 22.5821ZM22.8503 23.2307C22.9502 23.4734 23.0011 23.7334 23 23.9958L22.8503 23.2307ZM25 24.002V25.0042C24.9989 25.2666 25.0498 25.5266 25.1497 25.7693C25.2496 26.0119 25.3966 26.2324 25.5821 26.4179C25.7676 26.6034 25.9881 26.7504 26.2307 26.8503C26.4734 26.9502 26.7334 27.0011 26.9958 27C27.5481 26.9977 27.9977 27.4435 28 27.9958C28.0023 28.5481 27.5565 28.9977 27.0042 29C26.4777 29.0022 25.9561 28.9001 25.4693 28.6997C24.9824 28.4992 24.5401 28.2044 24.1679 27.8321C23.7956 27.4599 23.5008 27.0176 23.3003 26.5307C23.1001 26.0446 22.9981 25.5237 23 24.998C23 24.9973 23 24.9965 23 24.9958L24 25H23V24.998L23 23.9958" fill="black"/>
<path fill-rule="evenodd" clip-rule="evenodd" d="M11.002 20H13C13.5523 20 14 20.4477 14 21C14 21.5523 13.5523 22 13 22H10.9958C10.7334 21.9989 10.4734 22.0498 10.2308 22.1497C9.98813 22.2496 9.76767 22.3966 9.58213 22.5821C9.39658 22.7676 9.24961 22.9881 9.1497 23.2307C9.04979 23.4734 8.99892 23.7334 9.00002 23.9958L9.00003 24L9.00003 24.9981" fill="black"/>
<path fill-rule="evenodd" clip-rule="evenodd" d="M7.63411 4.49976C7.81284 4.19039 8.14305 3.99988 8.50034 4C9.75923 4.00043 10.9978 4.31774 12.1018 4.92268C13.0413 5.43746 13.8576 6.14643 14.4978 7H17.5022C18.1424 6.14643 18.9587 5.43746 19.8982 4.92268C21.0022 4.31774 22.2408 4.00043 23.4997 4C23.8569 3.99988 24.1872 4.19039 24.3659 4.49976C24.9256 5.46867 25.2615 6.55055 25.3489 7.66611C25.4228 8.61091 25.317 9.55958 25.0385 10.4622C25.6578 11.5333 25.9905 12.7494 26 13.9924L26 14L26 15C26 16.8565 25.2625 18.637 23.9497 19.9497C22.637 21.2625 20.8565 22 19 22H13C11.1435 22 9.36301 21.2625 8.05025 19.9497C6.7375 18.637 6 16.8565 6 15V13.9924C6.00948 12.7494 6.34224 11.5333 6.96146 10.4622C6.68303 9.55958 6.57717 8.61091 6.65114 7.66611C6.73849 6.55055 7.07435 5.46867 7.63411 4.49976ZM9.09575 6.0326C8.84636 6.5982 8.69352 7.20314 8.64504 7.82223C8.58099 8.64032 8.7008 9.46236 8.99569 10.2281C9.11342 10.5338 9.07395 10.8778 8.89006 11.1489C8.31816 11.9919 8.00849 12.9853 8 14.004V15C8 16.3261 8.52678 17.5979 9.46447 18.5355C10.4021 19.4732 11.6739 20 13 20H19C20.3261 20 21.5979 19.4732 22.5355 18.5355C23.4732 17.5979 24 16.3261 24 15V14.004C23.9915 12.9854 23.6819 11.992 23.1099 11.1489C22.926 10.8778 22.8866 10.5338 23.0043 10.2281C23.2992 9.46236 23.419 8.64032 23.355 7.82223C23.3065 7.20315 23.1536 6.5982 22.9043 6.0326C22.1889 6.11084 21.4938 6.32896 20.8593 6.67663C20.0497 7.12026 19.3648 7.76054 18.8677 8.53846C18.6839 8.826 18.3662 9 18.025 9H13.975C13.6338 9 13.3161 8.826 13.1324 8.53846C12.6352 7.76054 11.9503 7.12026 11.1407 6.67663C10.5062 6.32896 9.81113 6.11084 9.09575 6.0326Z" fill="black"/>
</svg>
