<svg width="32" height="32" viewBox="0 0 32 32" fill="none" xmlns="http://www.w3.org/2000/svg">
<path fill-rule="evenodd" clip-rule="evenodd" d="M7.16286 8.27902L4.14633 19.5635C4.1459 19.5674 4.14638 19.5713 4.14775 19.575C4.14924 19.579 4.15174 19.5825 4.15499 19.5853L15.9929 27.7769C15.9928 27.7769 15.9929 27.7769 15.9929 27.7769C15.9949 27.7783 15.9975 27.7791 16 27.7791C16.0025 27.7791 16.0049 27.7784 16.007 27.777C16.007 27.777 16.007 27.7769 16.007 27.777L27.8449 19.5853C27.8482 19.5825 27.8507 19.579 27.8522 19.575C27.8536 19.5713 27.854 19.5674 27.8536 19.5635L24.8371 8.27902L22.5614 14.351C22.415 14.7413 22.0419 15 21.625 15H10.375C9.95806 15 9.5849 14.7413 9.43858 14.351L7.16286 8.27902ZM24.434 6.77126C24.4339 6.77094 24.4341 6.77158 24.434 6.77126V6.77126ZM7.00423 5.14347C7.32078 5.12681 7.63446 5.21086 7.90028 5.38355C8.16609 5.55624 8.37036 5.8087 8.48377 6.1047L8.48639 6.11154L11.0681 13H20.9318L23.5161 6.10469C23.6296 5.8087 23.8339 5.55625 24.0997 5.38355C24.3655 5.21086 24.6792 5.12681 24.9957 5.14347C25.3123 5.16013 25.6154 5.27664 25.8616 5.47628C26.1078 5.67593 26.2845 5.94844 26.3662 6.2547L29.791 19.0667L29.7969 19.0896C29.8919 19.4821 29.8674 19.894 29.7266 20.2724C29.5858 20.6509 29.3351 20.9786 29.0066 21.2134L28.994 21.2223L17.1429 29.4231C16.8068 29.6549 16.4082 29.7791 16 29.7791C15.5917 29.7791 15.1931 29.6549 14.8571 29.4231L3.00594 21.2223L2.99331 21.2134C2.66486 20.9786 2.41412 20.6509 2.27331 20.2724C2.13249 19.894 2.10803 19.4821 2.20306 19.0896L2.20889 19.0667L5.63377 6.2547C5.63373 6.25486 5.63381 6.25455 5.63377 6.2547C5.71554 5.94862 5.89225 5.67583 6.13834 5.47628C6.38456 5.27664 6.68769 5.16013 7.00423 5.14347Z" fill="black"/>
<path fill-rule="evenodd" clip-rule="evenodd" d="M20.6886 13.6491C20.8349 13.2587 21.2081 13 21.625 13H27.4C27.9523 13 28.4 13.4477 28.4 14C28.4 14.5523 27.9523 15 27.4 15H22.3181L17.0239 29.1259C16.8301 29.6431 16.2537 29.9052 15.7365 29.7114C15.2194 29.5176 14.9573 28.9412 15.1511 28.424L20.6886 13.6491Z" fill="black"/>
<path fill-rule="evenodd" clip-rule="evenodd" d="M3.59998 14C3.59998 13.4477 4.04769 13 4.59998 13H10.375C10.7919 13 11.1651 13.2587 11.3114 13.6491L16.8489 28.424C17.0427 28.9412 16.7806 29.5176 16.2634 29.7114C15.7463 29.9052 15.1699 29.6431 14.9761 29.1259L9.68184 15H4.59998C4.04769 15 3.59998 14.5523 3.59998 14Z" fill="black"/>
</svg>
