<svg width="32" height="32" viewBox="0 0 32 32" fill="none" xmlns="http://www.w3.org/2000/svg">
<path fill-rule="evenodd" clip-rule="evenodd" d="M16 5C9.92487 5 5 9.92487 5 16C5 22.0751 9.92487 27 16 27C22.0751 27 27 22.0751 27 16C27 9.92487 22.0751 5 16 5ZM3 16C3 8.8203 8.8203 3 16 3C23.1797 3 29 8.8203 29 16C29 23.1797 23.1797 29 16 29C8.8203 29 3 23.1797 3 16Z" fill="black"/>
<path fill-rule="evenodd" clip-rule="evenodd" d="M16.8749 15.6095L19.7244 15.9952C20.0068 16.0287 20.2782 16.1252 20.5183 16.2775L27.2989 20.4482C27.7693 20.7376 27.9161 21.3535 27.6267 21.8239C27.3374 22.2943 26.7215 22.4411 26.2511 22.1518L19.4664 17.9785L16.6143 17.5925L16.6132 17.595L14.9007 21.4325L14.899 21.4361L17.2521 23.977C17.462 24.2076 17.6158 24.4837 17.7014 24.7835C17.7871 25.0834 17.8024 25.3989 17.746 25.7057L17.7437 25.7183L17.2561 28.1933C17.1494 28.7351 16.6236 29.0879 16.0817 28.9812C15.5398 28.8744 15.1871 28.3486 15.2938 27.8067L15.7792 25.3426C15.7796 25.3394 15.7793 25.3361 15.7784 25.333C15.7774 25.3296 15.7758 25.3266 15.7736 25.3239L13.4259 22.7889C13.161 22.5004 12.9867 22.1405 12.9245 21.7539C12.8624 21.368 12.9147 20.9724 13.075 20.616L14.7831 16.7883C14.9532 16.3907 15.2492 16.0597 15.6257 15.8465C16.0046 15.6319 16.4438 15.5486 16.8749 15.6095Z" fill="black"/>
<path fill-rule="evenodd" clip-rule="evenodd" d="M8.51574 6.02951C9.02412 6.24533 9.26128 6.8324 9.04546 7.34077L7.92311 9.98453L7.92355 9.9857L9.36105 13.8107L9.36572 13.8235L12.0302 14.3963C12.3283 14.4577 12.6083 14.5872 12.8481 14.7747C13.0891 14.9631 13.2829 15.2048 13.4145 15.4809C13.415 15.4818 13.4154 15.4827 13.4158 15.4836L13.8813 16.4512C13.8832 16.4543 13.8859 16.4569 13.889 16.4588C13.8923 16.4609 13.8961 16.4621 13.8999 16.4625H15.575C16.1273 16.4625 16.575 16.9102 16.575 17.4625C16.575 18.0148 16.1273 18.4625 15.575 18.4625H13.8875L13.8731 18.4624C13.5035 18.4571 13.1424 18.3507 12.829 18.1548C12.5156 17.9589 12.2617 17.681 12.095 17.3511L12.0863 17.3335L11.6145 16.3526L8.94099 15.7779C8.9408 15.7779 8.94061 15.7778 8.94042 15.7778C8.60793 15.7066 8.29926 15.5514 8.04392 15.3269C7.79147 15.1049 7.5995 14.8225 7.48588 14.5063L6.05185 10.6905C6.05176 10.6903 6.05167 10.69 6.05158 10.6898C5.87193 10.2131 5.88096 9.68578 6.07685 9.21549L6.07946 9.20921L6.07948 9.20922L7.20448 6.55922C7.4203 6.05085 8.00737 5.81369 8.51574 6.02951Z" fill="black"/>
<path fill-rule="evenodd" clip-rule="evenodd" d="M18.5782 3.5126C19.0614 3.24512 19.6699 3.41999 19.9374 3.90318L21.1036 6.00986C21.317 6.40229 21.3937 6.85455 21.3217 7.29537C21.2497 7.7362 21.0331 8.14056 20.7061 8.44475L20.6954 8.45456L17.3412 11.4845C17.2257 11.5929 17.097 11.6865 16.9582 11.763C16.9579 11.7632 16.9576 11.7634 16.9573 11.7635L15.4214 12.6127L15.4062 12.6209C15.1233 12.771 14.8095 12.8535 14.4894 12.8621C14.4804 12.8624 14.4715 12.8625 14.4625 12.8625H11.7921C11.7898 12.8626 11.7877 12.8633 11.7858 12.8646C11.7839 12.8658 11.7825 12.8674 11.7815 12.8694L10.7466 15.3258C10.5321 15.8347 9.94572 16.0735 9.43676 15.859C8.9278 15.6446 8.68905 15.0582 8.90348 14.5492L9.94384 12.0799C10.0986 11.7201 10.355 11.4133 10.6816 11.197C11.0082 10.9807 11.3908 10.8645 11.7824 10.8625L11.7875 10.8625L14.4413 10.8625C14.4497 10.8616 14.4579 10.8594 14.4656 10.8557L15.9816 10.0176C15.9851 10.0144 15.9886 10.0111 15.9922 10.0079L19.345 6.97919C19.3465 6.97747 19.3474 6.97536 19.3478 6.97311C19.3482 6.97062 19.3479 6.96807 19.3468 6.96581L18.1876 4.87181C17.9202 4.38862 18.095 3.78008 18.5782 3.5126Z" fill="black"/>
</svg>
