<svg width="32" height="32" viewBox="0 0 32 32" fill="none" xmlns="http://www.w3.org/2000/svg">
<path fill-rule="evenodd" clip-rule="evenodd" d="M16 5C9.92487 5 5 9.92487 5 16C5 22.0751 9.92487 27 16 27C22.0751 27 27 22.0751 27 16C27 9.92487 22.0751 5 16 5ZM3 16C3 8.8203 8.8203 3 16 3C23.1797 3 29 8.8203 29 16C29 23.1797 23.1797 29 16 29C8.8203 29 3 23.1797 3 16Z" fill="black"/>
<path fill-rule="evenodd" clip-rule="evenodd" d="M16 12.5C14.067 12.5 12.5 14.067 12.5 16C12.5 17.933 14.067 19.5 16 19.5C17.933 19.5 19.5 17.933 19.5 16C19.5 14.067 17.933 12.5 16 12.5ZM10.5 16C10.5 12.9624 12.9624 10.5 16 10.5C19.0376 10.5 21.5 12.9624 21.5 16C21.5 19.0376 19.0376 21.5 16 21.5C12.9624 21.5 10.5 19.0376 10.5 16Z" fill="black"/>
<path fill-rule="evenodd" clip-rule="evenodd" d="M15 11.5C15 10.9477 15.4477 10.5 16 10.5H27.125C27.6773 10.5 28.125 10.9477 28.125 11.5C28.125 12.0523 27.6773 12.5 27.125 12.5H16C15.4477 12.5 15 12.0523 15 11.5Z" fill="black"/>
<path fill-rule="evenodd" clip-rule="evenodd" d="M6.03764 7.74641C6.51597 7.47033 7.12753 7.63429 7.40361 8.11262L12.9661 17.7501C13.2422 18.2284 13.0782 18.84 12.5999 19.1161C12.1216 19.3922 11.51 19.2282 11.2339 18.7499L5.67143 9.11238C5.39535 8.63406 5.55931 8.02249 6.03764 7.74641Z" fill="black"/>
<path fill-rule="evenodd" clip-rule="evenodd" d="M20.3998 17.3839C20.8782 17.66 21.0421 18.2716 20.766 18.7499L15.2035 28.3874C14.9275 28.8657 14.3159 29.0297 13.8376 28.7536C13.3592 28.4775 13.1953 27.8659 13.4714 27.3876L19.0339 17.7501C19.3099 17.2718 19.9215 17.1078 20.3998 17.3839Z" fill="black"/>
</svg>
