<svg xmlns="http://www.w3.org/2000/svg" width="32" height="32" fill="none" viewBox="0 0 32 32"><path fill="#000" fill-rule="evenodd" d="M4.99514 2.25263C5.30206 2.08014 5.64908 1.99173 6.00112 1.99634C6.34963 2.00089 6.69084 2.09645 6.99096 2.27344L27.9482 14.2757C28.2555 14.4428 28.5127 14.689 28.693 14.9889C28.8765 15.2943 28.9735 15.6438 28.9735 16C28.9735 16.3562 28.8765 16.7057 28.693 17.0111C28.5127 17.311 28.2555 17.5572 27.9482 17.7243L6.991 29.7265C6.69088 29.9035 6.34965 29.9991 6.00112 30.0037C5.64907 30.0083 5.30206 29.9199 4.99514 29.7474C4.68822 29.5749 4.43226 29.3244 4.25315 29.0213C4.07403 28.7182 3.9781 28.3732 3.97505 28.0212L3.97498 28.0125L3.97501 3.97883C3.97806 3.62678 4.07403 3.28177 4.25315 2.97866C4.43226 2.67556 4.68822 2.42511 4.99514 2.25263ZM26.9345 16L5.99054 4.00526L5.97501 3.99619V28.0038L5.99054 27.9947L26.9345 16Z" clip-rule="evenodd"/><path fill="#000" fill-rule="evenodd" d="M4.56792 2.56789C4.95844 2.17737 5.59161 2.17737 5.98213 2.56789L22.6946 19.2804C23.0852 19.6709 23.0852 20.3041 22.6946 20.6946C22.3041 21.0851 21.6709 21.0851 21.2804 20.6946L4.56792 3.98211C4.17739 3.59158 4.17739 2.95842 4.56792 2.56789Z" clip-rule="evenodd"/><path fill="#000" fill-rule="evenodd" d="M22.6946 11.3054C23.0852 11.6959 23.0852 12.3291 22.6946 12.7196L5.98213 29.4321C5.59161 29.8226 4.95844 29.8226 4.56792 29.4321C4.17739 29.0416 4.17739 28.4084 4.56792 28.0179L21.2804 11.3054C21.6709 10.9149 22.3041 10.9149 22.6946 11.3054Z" clip-rule="evenodd"/></svg>