<svg width="32" height="32" viewBox="0 0 32 32" fill="none" xmlns="http://www.w3.org/2000/svg">
<path fill-rule="evenodd" clip-rule="evenodd" d="M16.9681 6.04717C14.6623 5.82025 12.3492 6.40001 10.423 7.68764C8.49687 8.97527 7.07687 10.8911 6.40508 13.1085C5.7333 15.3258 5.85132 17.7076 6.73902 19.8477C7.62673 21.9878 9.22916 23.7538 11.2732 24.8447C13.3172 25.9356 15.6763 26.2839 17.9484 25.8301C20.2204 25.3764 22.2648 24.1487 23.733 22.3564C24.989 20.8231 25.7569 18.9577 25.9511 17H16C15.4477 17 15 16.5523 15 16C15 15.4477 15.4477 15 16 15H27C27.5518 15 27.9994 15.4471 28 15.999C28.0029 18.7787 27.0417 21.4734 25.2802 23.6237C23.5187 25.7741 21.066 27.247 18.3401 27.7914C15.6142 28.3358 12.7838 27.918 10.3315 26.6092C7.87919 25.3004 5.95666 23.1816 4.89164 20.614C3.82662 18.0464 3.68503 15.1889 4.491 12.5286C5.29697 9.86824 7.00061 7.56977 9.31154 6.02494C11.6225 4.48011 14.3976 3.78454 17.164 4.05679C19.9304 4.32903 22.5167 5.55225 24.4821 7.51794C24.8726 7.90849 24.8726 8.54165 24.482 8.93215C24.0915 9.32265 23.4583 9.32261 23.0678 8.93206C21.4296 7.29365 19.2739 6.27409 16.9681 6.04717Z" fill="black"/>
</svg>
