<svg width="32" height="32" viewBox="0 0 32 32" fill="none" xmlns="http://www.w3.org/2000/svg">
<path fill-rule="evenodd" clip-rule="evenodd" d="M16 14C14.8954 14 14 14.8954 14 16C14 17.1046 14.8954 18 16 18C17.1046 18 18 17.1046 18 16C18 14.8954 17.1046 14 16 14ZM12 16C12 13.7909 13.7909 12 16 12C18.2091 12 20 13.7909 20 16C20 18.2091 18.2091 20 16 20C13.7909 20 12 18.2091 12 16Z" fill="black"/>
<path fill-rule="evenodd" clip-rule="evenodd" d="M12 5C10.8954 5 10 5.89543 10 7C10 8.10457 10.8954 9 12 9C13.1046 9 14 8.10457 14 7C14 5.89543 13.1046 5 12 5ZM8 7C8 4.79086 9.79086 3 12 3C14.2091 3 16 4.79086 16 7C16 9.20914 14.2091 11 12 11C9.79086 11 8 9.20914 8 7Z" fill="black"/>
<path fill-rule="evenodd" clip-rule="evenodd" d="M25 11C23.8954 11 23 11.8954 23 13C23 14.1046 23.8954 15 25 15C26.1046 15 27 14.1046 27 13C27 11.8954 26.1046 11 25 11ZM21 13C21 10.7909 22.7909 9 25 9C27.2091 9 29 10.7909 29 13C29 15.2091 27.2091 17 25 17C22.7909 17 21 15.2091 21 13Z" fill="black"/>
<path fill-rule="evenodd" clip-rule="evenodd" d="M25 21C23.8954 21 23 21.8954 23 23C23 24.1046 23.8954 25 25 25C26.1046 25 27 24.1046 27 23C27 21.8954 26.1046 21 25 21ZM21 23C21 20.7909 22.7909 19 25 19C27.2091 19 29 20.7909 29 23C29 25.2091 27.2091 27 25 27C22.7909 27 21 25.2091 21 23Z" fill="black"/>
<path fill-rule="evenodd" clip-rule="evenodd" d="M7 22C5.89543 22 5 22.8954 5 24C5 25.1046 5.89543 26 7 26C8.10457 26 9 25.1046 9 24C9 22.8954 8.10457 22 7 22ZM3 24C3 21.7909 4.79086 20 7 20C9.20914 20 11 21.7909 11 24C11 26.2091 9.20914 28 7 28C4.79086 28 3 26.2091 3 24Z" fill="black"/>
<path fill-rule="evenodd" clip-rule="evenodd" d="M12.8046 8.82448C13.3088 8.59918 13.9002 8.82531 14.1255 9.32955L15.7005 12.8546C15.9258 13.3588 15.6997 13.9502 15.1954 14.1755C14.6912 14.4008 14.0998 14.1747 13.8745 13.6704L12.2995 10.1454C12.0742 9.64119 12.3003 9.04978 12.8046 8.82448Z" fill="black"/>
<path fill-rule="evenodd" clip-rule="evenodd" d="M23.0987 13.6338C23.2733 14.1577 22.9902 14.724 22.4662 14.8987L19.1662 15.9987C18.6423 16.1733 18.076 15.8902 17.9013 15.3662C17.7267 14.8423 18.0098 14.276 18.5338 14.1013L21.8338 13.0013C22.3577 12.8267 22.924 13.1098 23.0987 13.6338Z" fill="black"/>
<path fill-rule="evenodd" clip-rule="evenodd" d="M17.5732 17.2236C17.9122 16.7876 18.5405 16.7091 18.9764 17.0482L23.2514 20.3732C23.6874 20.7122 23.7659 21.3405 23.4269 21.7765C23.0878 22.2124 22.4595 22.2909 22.0236 21.9519L17.7486 18.6269C17.3126 18.2878 17.2341 17.6595 17.5732 17.2236Z" fill="black"/>
<path fill-rule="evenodd" clip-rule="evenodd" d="M14.5097 17.3229C14.8767 17.7355 14.8398 18.3676 14.4271 18.7347L9.90212 22.7597C9.48946 23.1267 8.85738 23.0898 8.49032 22.6771C8.12326 22.2645 8.16022 21.6324 8.57288 21.2653L13.0979 17.2403C13.5105 16.8733 14.1426 16.9102 14.5097 17.3229Z" fill="black"/>
</svg>
