<svg width="32" height="32" viewBox="0 0 32 32" fill="none" xmlns="http://www.w3.org/2000/svg">
<path fill-rule="evenodd" clip-rule="evenodd" d="M16 5C10.7388 5 6.76868 7.79264 6.1041 10.9909L6.10222 11L25.8979 11L25.8959 10.991C25.2313 7.79265 21.2612 5 16 5ZM4.14675 10.5801C5.08435 6.08057 10.2379 3 16 3C21.7621 3 26.9156 6.0805 27.8532 10.58C27.9155 10.87 27.9126 11.1702 27.8445 11.459C27.776 11.7494 27.6434 12.0208 27.4564 12.2533C27.2695 12.4858 27.0329 12.6736 26.7639 12.8028C26.495 12.932 26.2005 12.9994 25.9022 13H6.09785C5.79949 12.9994 5.50505 12.932 5.23611 12.8028C4.96717 12.6736 4.73054 12.4858 4.54358 12.2533C4.3566 12.0208 4.22403 11.7494 4.15555 11.459C4.08748 11.1703 4.08448 10.8701 4.14675 10.5801Z" fill="black"/>
<path fill-rule="evenodd" clip-rule="evenodd" d="M6 20C6.55228 20 7 20.4477 7 21V23C7 23.7956 7.31607 24.5587 7.87868 25.1213C8.44129 25.6839 9.20435 26 10 26H22C22.7956 26 23.5587 25.6839 24.1213 25.1213C24.6839 24.5587 25 23.7956 25 23V21C25 20.4477 25.4477 20 26 20C26.5523 20 27 20.4477 27 21V23C27 24.3261 26.4732 25.5979 25.5355 26.5355C24.5979 27.4732 23.3261 28 22 28H10C8.67392 28 7.40215 27.4732 6.46447 26.5355C5.52678 25.5979 5 24.3261 5 23V21C5 20.4477 5.44772 20 6 20Z" fill="black"/>
<path fill-rule="evenodd" clip-rule="evenodd" d="M29.4285 19.6286C29.6336 20.1414 29.3842 20.7234 28.8714 20.9285L23.8714 22.9285C23.633 23.0239 23.367 23.0239 23.1286 22.9285L18.5 21.0771L13.8714 22.9285C13.633 23.0239 13.367 23.0239 13.1286 22.9285L8.50002 21.0771L3.87141 22.9285C3.35863 23.1336 2.77666 22.8842 2.57155 22.3714C2.36643 21.8586 2.61585 21.2767 3.12863 21.0715L8.12863 19.0715C8.36704 18.9762 8.633 18.9762 8.87141 19.0715L13.5 20.923L18.1286 19.0715C18.367 18.9762 18.633 18.9762 18.8714 19.0715L23.5 20.923L28.1286 19.0715C28.6414 18.8664 29.2234 19.1158 29.4285 19.6286Z" fill="black"/>
<path fill-rule="evenodd" clip-rule="evenodd" d="M2 16C2 15.4477 2.44772 15 3 15H29C29.5523 15 30 15.4477 30 16C30 16.5523 29.5523 17 29 17H3C2.44772 17 2 16.5523 2 16Z" fill="black"/>
</svg>
