<svg xmlns="http://www.w3.org/2000/svg" width="32" height="32" fill="none" viewBox="0 0 32 32"><path fill="#000" fill-rule="evenodd" d="M13.5 3C13.1022 3 12.7206 3.15804 12.4393 3.43934C12.158 3.72064 12 4.10218 12 4.5V8.5C12 9.05228 11.5523 9.5 11 9.5C10.4477 9.5 10 9.05228 10 8.5V4.5C10 3.57174 10.3687 2.6815 11.0251 2.02513C11.6815 1.36875 12.5717 1 13.5 1C14.4283 1 15.3185 1.36875 15.9749 2.02513C16.6313 2.6815 17 3.57174 17 4.5V13C17 13.5523 16.5523 14 16 14C15.4477 14 15 13.5523 15 13V4.5C15 4.10218 14.842 3.72064 14.5607 3.43934C14.2794 3.15804 13.8978 3 13.5 3Z" clip-rule="evenodd"/><path fill="#000" fill-rule="evenodd" d="M9.48566 19.9064C10.2356 18.7485 12.3838 16 16 16C19.6162 16 21.7643 18.7485 22.5143 19.9064L22.5189 19.9134L22.5188 19.9134C22.7253 20.2382 22.835 20.6151 22.835 21C22.835 21.3849 22.7253 21.7618 22.5188 22.0866L22.5143 22.0937L22.5143 22.0936C21.7643 23.2515 19.6162 26 16 26C12.3838 26 10.2356 23.2515 9.48566 22.0936L9.4811 22.0866L9.48113 22.0866C9.27461 21.7618 9.16492 21.3849 9.16492 21C9.16492 20.6151 9.27461 20.2382 9.48113 19.9134L9.48563 19.9063L9.48566 19.9064ZM11.1682 20.9876C11.1661 20.9914 11.1649 20.9956 11.1649 21C11.1649 21.0044 11.1661 21.0086 11.1682 21.0124C11.8456 22.0561 13.4711 24 16 24C18.5289 24 20.1544 22.056 20.8318 21.0123C20.8339 21.0086 20.835 21.0043 20.835 21C20.835 20.9957 20.8339 20.9914 20.8318 20.9877C20.1544 19.944 18.5289 18 16 18C13.4711 18 11.8456 19.9439 11.1682 20.9876Z" clip-rule="evenodd"/><path fill="#000" fill-rule="evenodd" d="M18.5 5C18.1022 5 17.7206 5.15804 17.4393 5.43934C17.158 5.72064 17 6.10218 17 6.5C17 7.05228 16.5523 7.5 16 7.5C15.4477 7.5 15 7.05228 15 6.5C15 5.57174 15.3687 4.6815 16.0251 4.02513C16.6815 3.36875 17.5717 3 18.5 3C19.4283 3 20.3185 3.36875 20.9749 4.02513C21.6313 4.6815 22 5.57174 22 6.5V14C22 14.5523 21.5523 15 21 15C20.4477 15 20 14.5523 20 14V6.5C20 6.10218 19.842 5.72064 19.5607 5.43934C19.2794 5.15804 18.8978 5 18.5 5Z" clip-rule="evenodd"/><path fill="#000" fill-rule="evenodd" d="M8.5 7C8.10218 7 7.72064 7.15804 7.43934 7.43934C7.15804 7.72064 7 8.10218 7 8.5V19C7 21.3869 7.94821 23.6761 9.63604 25.364C11.3239 27.0518 13.6131 28 16 28C18.3869 28 20.6761 27.0518 22.364 25.364C24.0518 23.6761 25 21.3869 25 19V14C25 13.6022 24.842 13.2206 24.5607 12.9393C24.2794 12.658 23.8978 12.5 23.5 12.5C23.1022 12.5 22.7206 12.658 22.4393 12.9393C22.158 13.2206 22 13.6022 22 14V14.5C22 15.0523 21.5523 15.5 21 15.5C20.4477 15.5 20 15.0523 20 14.5V14C20 13.0717 20.3687 12.1815 21.0251 11.5251C21.6815 10.8687 22.5717 10.5 23.5 10.5C24.4283 10.5 25.3185 10.8687 25.9749 11.5251C26.6313 12.1815 27 13.0717 27 14V19C27 21.9174 25.8411 24.7153 23.7782 26.7782C21.7153 28.8411 18.9174 30 16 30C13.0826 30 10.2847 28.8411 8.22183 26.7782C6.15893 24.7153 5 21.9174 5 19V8.5C5 7.57174 5.36875 6.6815 6.02513 6.02513C6.6815 5.36875 7.57174 5 8.5 5C9.42826 5 10.3185 5.36875 10.9749 6.02513C11.6313 6.6815 12 7.57174 12 8.5V14C12 14.5523 11.5523 15 11 15C10.4477 15 10 14.5523 10 14V8.5C10 8.10218 9.84196 7.72064 9.56066 7.43934C9.27936 7.15804 8.89782 7 8.5 7Z" clip-rule="evenodd"/><path fill="#000" d="M16 22.5C16.8284 22.5 17.5 21.8284 17.5 21C17.5 20.1716 16.8284 19.5 16 19.5C15.1716 19.5 14.5 20.1716 14.5 21C14.5 21.8284 15.1716 22.5 16 22.5Z"/></svg>