<svg xmlns="http://www.w3.org/2000/svg" width="32" height="32" fill="none" viewBox="0 0 32 32"><path fill="#000" fill-rule="evenodd" d="M17.1593 11.2431C17.8757 10.8284 18.7233 10.7028 19.5292 10.8917C20.3351 11.0807 21.0386 11.57 21.496 12.2599C21.5075 12.2773 21.5185 12.2951 21.529 12.3132L23.6584 16.0083C24.9542 18.3033 25.2917 21.017 24.5974 23.5595C23.9031 26.1019 22.2333 28.2675 19.9508 29.5853C17.6684 30.9032 14.9581 31.2667 12.4091 30.5969C9.86007 29.927 7.67856 28.278 6.33888 26.0083L6.33394 26L1.70898 17.9874C1.49562 17.6176 1.35708 17.2092 1.30148 16.7859C1.24589 16.3625 1.27422 15.9324 1.38486 15.52C1.4955 15.1077 1.68627 14.7211 1.9463 14.3825C2.20632 14.0438 2.5305 13.7597 2.90033 13.5463C3.27016 13.333 3.67839 13.1946 4.10171 13.139C4.52504 13.0834 4.95517 13.1117 5.36755 13.2223C5.77992 13.333 6.16647 13.5237 6.50512 13.7838C6.84376 14.0438 7.12788 14.368 7.34124 14.7378C7.61723 15.2162 7.45316 15.8277 6.97478 16.1037C6.49639 16.3797 5.88486 16.2156 5.60887 15.7373C5.52675 15.5949 5.41741 15.4702 5.28708 15.3701C5.15676 15.27 5.00799 15.1966 4.84929 15.154C4.69058 15.1114 4.52505 15.1005 4.36213 15.1219C4.19921 15.1433 4.04211 15.1966 3.89978 15.2787C3.75745 15.3608 3.63269 15.4702 3.53261 15.6005C3.43254 15.7308 3.35912 15.8796 3.31654 16.0383C3.27396 16.197 3.26306 16.3625 3.28446 16.5255C3.30584 16.6883 3.35908 16.8453 3.44113 16.9876C3.44109 16.9875 3.44116 16.9877 3.44113 16.9876L8.06363 24.9958C9.13557 26.8094 10.8797 28.1271 12.9174 28.6625C14.9566 29.1984 17.1249 28.9076 18.9508 27.8533C20.7767 26.7991 22.1126 25.0666 22.6681 23.0326C23.2231 21 22.9538 18.8306 21.9189 16.9954L19.8141 13.343C19.638 13.0893 19.3739 12.9096 19.0727 12.8389C18.7627 12.7662 18.4367 12.8146 18.1612 12.9741C17.8856 13.1335 17.6813 13.3921 17.5899 13.6971C17.4985 14.0021 17.527 14.3304 17.6694 14.6151C17.9165 15.1091 17.7164 15.7098 17.2224 15.9569C16.7285 16.204 16.1278 16.0038 15.8807 15.5099C15.5104 14.7696 15.4365 13.9159 15.6741 13.123C15.9117 12.3301 16.4429 11.6577 17.1593 11.2431Z" clip-rule="evenodd"/><path fill="#000" fill-rule="evenodd" d="M6.25162 7.86392C6.67494 7.80833 7.10507 7.83666 7.51745 7.9473C7.92982 8.05793 8.31637 8.24871 8.65502 8.50874C8.99355 8.76867 9.27759 9.09272 9.49092 9.46239C9.49085 9.46226 9.491 9.46252 9.49092 9.46239L14.2409 17.6874C14.5171 18.1657 14.3533 18.7773 13.8751 19.0535C13.3968 19.3297 12.7852 19.1659 12.509 18.6876L7.75899 10.4626C7.67688 10.3203 7.56732 10.1951 7.43699 10.0951C7.30666 9.99498 7.1579 9.92156 6.99919 9.87898C6.84049 9.8364 6.67495 9.8255 6.51203 9.8469C6.34911 9.86829 6.19201 9.92157 6.04968 10.0037C5.90735 10.0858 5.78259 10.1951 5.68252 10.3255C5.58245 10.4558 5.50902 10.6046 5.46645 10.7633C5.42387 10.922 5.41296 11.0875 5.43436 11.2504C5.45573 11.4132 5.50893 11.5702 5.59092 11.7124L10.3409 19.9374C10.6171 20.4157 10.4533 21.0273 9.97506 21.3035C9.4968 21.5797 8.88519 21.4159 8.60899 20.9376L3.85899 12.7126C3.64563 12.3428 3.50698 11.9342 3.45139 11.5108C3.39579 11.0875 3.42412 10.6574 3.53476 10.245C3.6454 9.83262 3.83618 9.44608 4.0962 9.10743C4.35623 8.76878 4.68041 8.48467 5.05023 8.27131C5.42006 8.05794 5.82829 7.91952 6.25162 7.86392Z" clip-rule="evenodd"/><path fill="#000" fill-rule="evenodd" d="M9.95027 7.74629C10.6972 7.31539 11.5846 7.19884 12.4175 7.42228C13.2503 7.64572 13.9603 8.19086 14.3912 8.93775L19.6412 18.0378C19.9172 18.5161 19.7531 19.1277 19.2747 19.4037C18.7963 19.6797 18.1848 19.5156 17.9088 19.0372L12.6588 9.9372C12.493 9.64975 12.2197 9.43996 11.8992 9.35397C11.5787 9.26797 11.2372 9.31283 10.9497 9.47866C10.6623 9.6445 10.4525 9.91773 10.3665 10.2382C10.2805 10.5588 10.3253 10.9003 10.4912 11.1878C10.7672 11.6661 10.6031 12.2777 10.1247 12.5537C9.64633 12.8297 9.03479 12.6656 8.7588 12.1872C8.3279 11.4403 8.21135 10.5528 8.43479 9.71998C8.65823 8.88715 9.20337 8.17719 9.95027 7.74629Z" clip-rule="evenodd"/><path fill="#000" fill-rule="evenodd" d="M7.51277 4.53383C8.25967 4.10292 9.14715 3.98637 9.97998 4.20982C10.8128 4.43326 11.5228 4.97839 11.9537 5.72529L11.9542 5.72627L13.2417 7.96377C13.5172 8.44246 13.3524 9.05381 12.8737 9.32926C12.395 9.60471 11.7837 9.43995 11.5082 8.96126L10.2213 6.72474C10.2212 6.7246 10.2214 6.72487 10.2213 6.72474C10.0554 6.4375 9.78209 6.22745 9.46173 6.1415C9.14121 6.05551 8.79966 6.10036 8.51222 6.2662C8.22477 6.43203 8.01497 6.70526 7.92898 7.02578C7.84322 7.34543 7.8876 7.68599 8.05233 7.97295L8.35051 8.48233C8.62951 8.95896 8.4693 9.57152 7.99267 9.85053C7.51604 10.1295 6.90348 9.96932 6.62448 9.49269L6.32129 8.97475C5.89039 8.22785 5.77385 7.34035 5.9973 6.50752C6.22074 5.67469 6.76587 4.96473 7.51277 4.53383Z" clip-rule="evenodd"/><path fill="#000" fill-rule="evenodd" d="M20.7642 6.98892C21.1875 6.93333 21.6176 6.96166 22.03 7.0723C22.4424 7.18293 22.8289 7.37371 23.1676 7.63374C23.5061 7.89366 23.7901 8.21768 24.0035 8.58733C24.0034 8.58718 24.0035 8.58747 24.0035 8.58733L26.1293 12.2638C27.2696 14.2457 27.6971 16.5582 27.3409 18.8168C26.9847 21.0754 25.8661 23.144 24.1712 24.6788C23.7619 25.0495 23.1295 25.0181 22.7588 24.6087C22.3881 24.1993 22.4194 23.5669 22.8288 23.1962C24.1851 21.9681 25.0803 20.3126 25.3653 18.5052C25.6503 16.6981 25.3084 14.8479 24.3963 13.2621C24.3961 13.2618 24.3959 13.2615 24.3957 13.2612L22.2718 9.58806C22.1897 9.44574 22.0799 9.32013 21.9496 9.22005C21.8192 9.11998 21.6705 9.04656 21.5118 9.00398C21.3531 8.9614 21.1875 8.9505 21.0246 8.97189C20.8617 8.99329 20.7046 9.04657 20.5623 9.12868C20.4199 9.21079 20.2952 9.32013 20.1951 9.45046C20.095 9.58079 20.0216 9.72955 19.979 9.88826C19.9364 10.047 19.9255 10.2125 19.9469 10.3754C19.9683 10.5383 20.0216 10.6954 20.1037 10.8378C20.3797 11.3162 20.2156 11.9277 19.7373 12.2037C19.2589 12.4797 18.6473 12.3156 18.3713 11.8372C18.158 11.4674 18.0196 11.0592 17.964 10.6358C17.9084 10.2125 17.9367 9.78238 18.0473 9.37C18.158 8.95763 18.3487 8.57108 18.6088 8.23243C18.8688 7.89378 19.193 7.60967 19.5628 7.39631C19.9326 7.18294 20.3409 7.04452 20.7642 6.98892Z" clip-rule="evenodd"/><path fill="#000" fill-rule="evenodd" d="M12.4128 4.02131C13.1597 3.59041 14.0472 3.47386 14.88 3.6973C15.7127 3.92071 16.4225 4.46568 16.8535 5.21237L20.391 11.3374C20.6672 11.8156 20.5034 12.4272 20.0251 12.7035C19.5469 12.9797 18.9353 12.8159 18.6591 12.3376L15.1216 6.21263C14.9557 5.92519 14.6823 5.71498 14.3617 5.62899C14.0412 5.543 13.6997 5.58785 13.4122 5.75369C13.1248 5.91952 12.915 6.19275 12.829 6.51327C12.743 6.83378 12.7879 7.17533 12.9537 7.46278C13.2297 7.94116 13.0656 8.5527 12.5872 8.82869C12.1089 9.10468 11.4973 8.9406 11.2213 8.46222C10.7904 7.71532 10.6739 6.82784 10.8973 5.99501C11.1208 5.16218 11.6659 4.45222 12.4128 4.02131Z" clip-rule="evenodd"/><path fill="#000" fill-rule="evenodd" d="M22.3573 0.44614C22.891 0.588227 23.2085 1.13606 23.0664 1.66975L22.5539 3.59475C22.4118 4.12845 21.8639 4.44591 21.3303 4.30382C20.7966 4.16173 20.4791 3.6139 20.6212 3.08021L21.1337 1.15521C21.2758 0.621512 21.8236 0.304052 22.3573 0.44614Z" clip-rule="evenodd"/><path fill="#000" fill-rule="evenodd" d="M26.4622 2.35666C26.9142 2.67407 27.0233 3.29777 26.7059 3.74973L25.5559 5.38723C25.2385 5.83919 24.6148 5.94827 24.1628 5.63086C23.7108 5.31345 23.6018 4.68975 23.9192 4.23779L25.0692 2.60029C25.3866 2.14833 26.0103 2.03925 26.4622 2.35666Z" clip-rule="evenodd"/><path fill="#000" fill-rule="evenodd" d="M29.6433 5.53779C29.9607 5.98975 29.8516 6.61345 29.3997 6.93086L27.7622 8.08086C27.3102 8.39827 26.6865 8.28919 26.3691 7.83723C26.0517 7.38527 26.1608 6.76157 26.6127 6.44416L28.2502 5.29416C28.7022 4.97675 29.3259 5.08583 29.6433 5.53779Z" clip-rule="evenodd"/></svg>