<svg width="32" height="32" viewBox="0 0 32 32" fill="none" xmlns="http://www.w3.org/2000/svg">
<path fill-rule="evenodd" clip-rule="evenodd" d="M5.9 8H26.1V9L26.1047 8.00001C26.5938 8.00231 27.0653 8.18264 27.4311 8.50729C27.7969 8.83194 28.032 9.2787 28.0924 9.76405L28.094 9.77723L29.8687 25.775C29.8686 25.7748 29.8687 25.7752 29.8687 25.775C29.9001 26.0536 29.8727 26.3364 29.7881 26.6036C29.7034 26.8712 29.5634 27.1179 29.3771 27.3277C29.1908 27.5376 28.9625 27.7059 28.7069 27.8217C28.4513 27.9375 28.1742 27.9983 27.8937 28L27.8875 28H4.10635C3.82576 27.9983 3.54867 27.9375 3.2931 27.8217C3.03752 27.7059 2.80918 27.5376 2.62291 27.3277C2.43664 27.1179 2.29661 26.8712 2.21192 26.6036C2.12737 26.3366 2.09987 26.0548 2.13119 25.7764C2.13125 25.7759 2.1313 25.7755 2.13135 25.775L3.90756 9.76404C3.96794 9.27869 4.20309 8.83194 4.56889 8.50729C4.9347 8.18264 5.40622 8.00231 5.89531 8.00001L5.9 8ZM26.0958 10H5.90423C5.90136 10.0001 5.89862 10.0012 5.89646 10.0031C5.89452 10.0049 5.89317 10.0071 5.89259 10.0096L4.11866 26H27.8814L26.1074 10.0096C26.1068 10.0071 26.1055 10.0049 26.1035 10.0031C26.1014 10.0012 26.0986 10.0001 26.0958 10Z" fill="black"/>
<path fill-rule="evenodd" clip-rule="evenodd" d="M16 5C14.9391 5 13.9217 5.42143 13.1716 6.17157C12.4214 6.92172 12 7.93913 12 9C12 9.55228 11.5523 10 11 10C10.4477 10 10 9.55228 10 9C10 7.4087 10.6321 5.88258 11.7574 4.75736C12.8826 3.63214 14.4087 3 16 3C17.5913 3 19.1174 3.63214 20.2426 4.75736C21.3679 5.88258 22 7.4087 22 9C22 9.55228 21.5523 10 21 10C20.4477 10 20 9.55228 20 9C20 7.93913 19.5786 6.92172 18.8284 6.17157C18.0783 5.42143 17.0609 5 16 5Z" fill="black"/>
</svg>
