<svg xmlns="http://www.w3.org/2000/svg" width="32" height="32" fill="none" viewBox="0 0 32 32"><path fill="#000" fill-rule="evenodd" d="M26.5681 8.44652L29.6386 14.3255L29.6386 14.3255L29.6411 14.3302L27.4319 15.4303L24.358 9.55156L26.5681 8.44652ZM30.0872 15.2244L30.5333 16.1202L27.4458 17.6577C26.9583 17.9004 26.3662 17.7085 26.1138 17.2259L22.1138 9.57589C21.9895 9.33807 21.9659 9.06026 22.0485 8.80492C22.131 8.54957 22.3128 8.33812 22.5528 8.2181L25.6749 6.65704C26.1414 6.42059 26.6824 6.37752 27.1805 6.5373C27.6796 6.69738 28.0952 7.04811 28.3369 7.51312C28.3372 7.51357 28.3374 7.51402 28.3376 7.51448L31.4089 13.3949C31.4094 13.3958 31.4099 13.3967 31.4104 13.3976C31.5342 13.6326 31.61 13.8899 31.6334 14.1545C31.6568 14.4201 31.6269 14.6877 31.5453 14.9417C31.4638 15.1955 31.3323 15.4306 31.1586 15.6329C30.9849 15.8353 30.7725 16.0008 30.5339 16.1199L30.0872 15.2244Z" clip-rule="evenodd"/><path fill="#000" fill-rule="evenodd" d="M5.43713 8.31157L2.36412 14.1953L4.56904 15.3022L7.64263 9.41433L5.43713 8.31157ZM4.81008 6.41237C5.30505 6.24894 5.84428 6.28521 6.31291 6.51346L6.32227 6.51801L9.44725 8.08056C9.68717 8.20053 9.86884 8.41185 9.95144 8.66706C10.034 8.92227 10.0106 9.19996 9.88651 9.43775L5.88651 17.1003C5.63379 17.5844 5.03943 17.7762 4.55137 17.5312L1.46746 15.983C1.23022 15.8659 1.01872 15.7026 0.84539 15.5027C0.670848 15.3013 0.538571 15.067 0.456425 14.8135C0.374279 14.56 0.343941 14.2926 0.367216 14.0272C0.390371 13.7631 0.466122 13.5063 0.589993 13.272L3.66291 7.38846C3.66308 7.38813 3.66325 7.38781 3.66341 7.38749C3.90406 6.92555 4.31544 6.5757 4.81008 6.41237Z" clip-rule="evenodd"/><path fill="#000" fill-rule="evenodd" d="M4.21178 16.0222C4.55162 15.5868 5.18003 15.5094 5.61538 15.8492L12.4529 21.1867L12.4679 21.1987L19.6674 22.9985C19.6753 22.9994 19.6833 22.9988 19.691 22.9967C19.6986 22.9946 19.7057 22.991 19.712 22.9863L24.2645 18.4338L26.2385 16.1144C26.5965 15.6938 27.2276 15.643 27.6482 16.001C28.0687 16.3589 28.1195 16.99 27.7616 17.4106L25.7616 19.7606C25.7442 19.781 25.7261 19.8007 25.7072 19.8196L21.1072 24.4196C21.1028 24.4239 21.0985 24.4282 21.0941 24.4324C21.0905 24.4359 21.0868 24.4394 21.0831 24.4429C20.8397 24.6705 20.5448 24.8357 20.2237 24.9244C19.9025 25.0132 19.5646 25.0228 19.2389 24.9525C19.2284 24.9502 19.2179 24.9477 19.2075 24.9451L11.9575 23.1326C11.9488 23.1305 11.9402 23.1282 11.9315 23.1258C11.6704 23.053 11.4269 22.9279 11.2157 22.7582L4.38471 17.4258C3.94936 17.0859 3.87194 16.4575 4.21178 16.0222Z" clip-rule="evenodd"/><path fill="#000" fill-rule="evenodd" d="M17.9142 10.1125L13.0279 14.9863C13.0271 14.9874 13.0265 14.9885 13.026 14.9897C13.0254 14.9914 13.0252 14.9931 13.0253 14.9949C13.0254 14.9967 13.0259 14.9984 13.0268 14.9999C13.0276 15.0015 13.0288 15.0029 13.0302 15.0039L13.7012 15.5134C14.221 15.9003 14.8519 16.1094 15.5 16.1094C16.149 16.1094 16.7806 15.8998 17.3009 15.5118C17.3012 15.5116 17.3015 15.5113 17.3019 15.5111L18.9 14.3125C19.2512 14.0491 19.7331 14.0455 20.0882 14.3038L25.5882 18.3038C26.0348 18.6286 26.1336 19.254 25.8087 19.7007C25.4839 20.1473 24.8585 20.2461 24.4118 19.9212L19.5091 16.3556L18.4981 17.1139C17.6322 17.7602 16.5805 18.1094 15.5 18.1094C14.4194 18.1094 13.3678 17.7602 12.5019 17.1139L12.4953 17.109L11.8203 16.5964C11.5934 16.424 11.4052 16.2049 11.2692 15.9544C11.1332 15.704 11.052 15.4275 11.0308 15.1433C11.0097 14.859 11.0491 14.5736 11.1466 14.3058C11.2441 14.0379 11.3973 13.7939 11.5962 13.5897L11.6063 13.5795L16.5071 8.69114C16.6924 8.5068 16.9122 8.3608 17.1539 8.26151C17.3951 8.16248 17.6533 8.11185 17.9139 8.11249C17.9146 8.1125 17.9153 8.1125 17.916 8.1125L17.9125 9.11249V8.11249H17.9139H23C23.5523 8.11249 24 8.56021 24 9.11249C24 9.66478 23.5523 10.1125 23 10.1125H17.9142Z" clip-rule="evenodd"/><path fill="#000" fill-rule="evenodd" d="M15.7631 8.06129L20.0868 10.0232C20.5897 10.2514 21.1824 10.0287 21.4106 9.52573C21.6388 9.0228 21.4161 8.4301 20.9132 8.20189L16.5882 6.23939L16.5868 6.23877C16.1548 6.04353 15.6675 6.00809 15.2118 6.13877L8.79432 8.01521C8.26423 8.17021 7.96016 8.72558 8.11516 9.25567C8.27015 9.78576 8.82552 10.0898 9.35561 9.93484L15.7631 8.06129Z" clip-rule="evenodd"/><path fill="#000" fill-rule="evenodd" d="M6.24455 22.3448C6.6064 21.9276 7.23797 21.8827 7.6552 22.2445L10.4767 24.6916C10.4786 24.692 10.4805 24.6925 10.4823 24.6929L14.2448 25.6429C14.7803 25.7781 15.1048 26.3218 14.9696 26.8573C14.8344 27.3928 14.2907 27.7173 13.7552 27.5821L10.0027 26.6346C9.692 26.5619 9.40421 26.4131 9.16526 26.2015L6.34483 23.7555C5.9276 23.3936 5.8827 22.7621 6.24455 22.3448Z" clip-rule="evenodd"/></svg>