<svg width="32" height="32" viewBox="0 0 32 32" fill="none" xmlns="http://www.w3.org/2000/svg">
<path fill-rule="evenodd" clip-rule="evenodd" d="M16.087 2.99996C17.8006 2.98671 19.5 3.3124 21.0873 3.95832C22.6771 4.60523 24.123 5.56053 25.3417 6.76912C26.5603 7.97771 27.5276 9.41565 28.1877 11C28.8477 12.5843 29.1876 14.2837 29.1875 16C29.1875 16 29.1875 16 29.1875 16V23C29.1875 23.7956 28.8714 24.5587 28.3088 25.1213C27.7462 25.6839 26.9832 26 26.1875 26H24.1875C23.3918 26 22.6288 25.6839 22.0662 25.1213C21.5036 24.5587 21.1875 23.7956 21.1875 23V18C21.1875 17.2043 21.5036 16.4413 22.0662 15.8787C22.6288 15.3161 23.3918 15 24.1875 15H27.142C27.0408 13.8906 26.7714 12.801 26.3415 11.7692C25.783 10.4286 24.9645 9.21184 23.9333 8.18919C22.9022 7.16654 21.6787 6.3582 20.3335 5.81082C18.9883 5.26344 17.5481 4.98785 16.0958 4.99995L16.0802 4.99996C14.6289 4.98938 13.1899 5.26609 11.8461 5.81415C10.5022 6.36222 9.28009 7.17079 8.25013 8.19329C7.22018 9.21579 6.40274 10.432 5.84493 11.7718C5.41566 12.8029 5.14667 13.8916 5.04552 15H8C8.79565 15 9.55871 15.3161 10.1213 15.8787C10.6839 16.4413 11 17.2043 11 18V23C11 23.7956 10.6839 24.5587 10.1213 25.1213C9.55871 25.6839 8.79565 26 8 26H6C5.20435 26 4.44129 25.6839 3.87868 25.1213C3.31607 24.5587 3 23.7956 3 23V16C2.99995 14.2848 3.33932 12.5866 3.99856 11.0031C4.65779 9.4197 5.62384 7.98236 6.84106 6.77395C8.05828 5.56554 9.5026 4.60995 11.0908 3.96224C12.6766 3.31552 14.3745 2.9885 16.087 2.99996ZM5 17V23C5 23.2652 5.10536 23.5196 5.29289 23.7071C5.48043 23.8946 5.73478 24 6 24H8C8.26522 24 8.51957 23.8946 8.70711 23.7071C8.89464 23.5196 9 23.2652 9 23V18C9 17.7348 8.89464 17.4804 8.70711 17.2929C8.51957 17.1053 8.26522 17 8 17H5ZM27.1875 17H24.1875C23.9223 17 23.6679 17.1053 23.4804 17.2929C23.2929 17.4804 23.1875 17.7348 23.1875 18V23C23.1875 23.2652 23.2929 23.5196 23.4804 23.7071C23.6679 23.8946 23.9223 24 24.1875 24H26.1875C26.4527 24 26.7071 23.8946 26.8946 23.7071C27.0821 23.5196 27.1875 23.2652 27.1875 23V17Z" fill="black"/>
<path fill-rule="evenodd" clip-rule="evenodd" d="M28.1875 22C28.7398 22 29.1875 22.4477 29.1875 23V26C29.1875 27.3261 28.6607 28.5979 27.723 29.5355C26.7854 30.4732 25.5136 31 24.1875 31H17C16.4477 31 16 30.5523 16 30C16 29.4477 16.4477 29 17 29H24.1875C24.9831 29 25.7462 28.6839 26.3088 28.1213C26.8714 27.5587 27.1875 26.7956 27.1875 26V23C27.1875 22.4477 27.6352 22 28.1875 22Z" fill="black"/>
</svg>
