<svg xmlns="http://www.w3.org/2000/svg" width="32" height="32" fill="none" viewBox="0 0 32 32"><path fill="#000" fill-rule="evenodd" d="M16.087 3.99996C17.8006 3.98671 19.5 4.3124 21.0873 4.95832C22.6771 5.60523 24.123 6.56053 25.3417 7.76912C26.5603 8.97771 27.5276 10.4157 28.1877 12C28.8477 13.5843 29.1876 15.2837 29.1875 17C29.1875 17 29.1875 17 29.1875 17V24C29.1875 24.7956 28.8714 25.5587 28.3088 26.1213C27.7462 26.6839 26.9832 27 26.1875 27H24.1875C23.3918 27 22.6288 26.6839 22.0662 26.1213C21.5036 25.5587 21.1875 24.7956 21.1875 24V19C21.1875 18.2043 21.5036 17.4413 22.0662 16.8787C22.6288 16.3161 23.3918 16 24.1875 16H27.142C27.0408 14.8906 26.7714 13.801 26.3415 12.7692C25.783 11.4286 24.9645 10.2118 23.9333 9.18919C22.9022 8.16654 21.6787 7.3582 20.3335 6.81082C18.9883 6.26344 17.5481 5.98785 16.0958 5.99995L16.0802 5.99996C14.6289 5.98938 13.1899 6.26609 11.8461 6.81415C10.5022 7.36222 9.28009 8.17079 8.25013 9.19329C7.22018 10.2158 6.40274 11.432 5.84493 12.7718C5.41566 13.8029 5.14667 14.8916 5.04552 16H8C8.79565 16 9.55871 16.3161 10.1213 16.8787C10.6839 17.4413 11 18.2043 11 19V24C11 24.7956 10.6839 25.5587 10.1213 26.1213C9.55871 26.6839 8.79565 27 8 27H6C5.20435 27 4.44129 26.6839 3.87868 26.1213C3.31607 25.5587 3 24.7956 3 24V17C2.99995 15.2848 3.33932 13.5866 3.99856 12.0031C4.65779 10.4197 5.62384 8.98236 6.84106 7.77395C8.05828 6.56554 9.5026 5.60995 11.0908 4.96224C12.6766 4.31552 14.3745 3.9885 16.087 3.99996ZM5 18V24C5 24.2652 5.10536 24.5196 5.29289 24.7071C5.48043 24.8946 5.73478 25 6 25H8C8.26522 25 8.51957 24.8946 8.70711 24.7071C8.89464 24.5196 9 24.2652 9 24V19C9 18.7348 8.89464 18.4804 8.70711 18.2929C8.51957 18.1053 8.26522 18 8 18H5ZM27.1875 18H24.1875C23.9223 18 23.6679 18.1053 23.4804 18.2929C23.2929 18.4804 23.1875 18.7348 23.1875 19V24C23.1875 24.2652 23.2929 24.5196 23.4804 24.7071C23.6679 24.8946 23.9223 25 24.1875 25H26.1875C26.4527 25 26.7071 24.8946 26.8946 24.7071C27.0821 24.5196 27.1875 24.2652 27.1875 24V18Z" clip-rule="evenodd"/></svg>