<svg xmlns="http://www.w3.org/2000/svg" width="32" height="32" fill="none" viewBox="0 0 32 32"><path fill="#000" fill-rule="evenodd" d="M19.7223 4.52909C20.6696 4.15223 21.6839 3.97248 22.703 4.00082C23.7222 4.02917 24.7249 4.26502 25.6498 4.69396C26.5744 5.12273 27.4019 5.73544 28.0818 6.49467C30.8335 9.55478 30.3556 14.2445 27.5464 17.0679L27.5446 17.0697L17.4196 27.1947L16.7125 26.4875L17.4162 27.198C17.0393 27.5713 16.5304 27.7807 16 27.7807C15.4696 27.7807 14.9606 27.5713 14.5838 27.198L14.5804 27.1947L4.19288 16.8072C3.47221 16.086 2.90589 15.2251 2.52903 14.2778C2.15216 13.3304 1.97242 12.3162 2.00076 11.297C2.02911 10.2778 2.26496 9.27516 2.6939 8.35022C3.12267 7.42564 3.73538 6.59815 4.49461 5.91828C7.55472 3.16656 12.2445 3.64446 15.0678 6.45367L15.0723 6.45812L16.0004 7.3933L17.1906 6.19527L17.1931 6.19268C17.9143 5.47201 18.7749 4.90595 19.7223 4.52909ZM16.0088 25.7771C16.0087 25.7772 16.0089 25.7769 16.0088 25.7771L26.1286 15.6572C26.1289 15.657 26.1291 15.6567 26.1293 15.6565C28.2942 13.48 28.5412 9.99599 26.594 7.83132L26.5924 7.82953C26.0937 7.27245 25.4867 6.82291 24.8084 6.50835C24.1301 6.1938 23.3948 6.02084 22.6474 6.00005C21.9 5.97926 21.1563 6.11108 20.4615 6.38744C19.7673 6.6636 19.1367 7.0783 18.608 7.60623C18.6076 7.60662 18.6072 7.60702 18.6068 7.60742L16.7094 9.51733C16.5216 9.70636 16.2662 9.81262 15.9997 9.81255C15.7333 9.81248 15.4779 9.70608 15.2902 9.51696L13.6551 7.86933C11.4785 5.70576 7.99547 5.45926 5.83126 7.40602L5.82947 7.40763C5.2724 7.90631 4.82284 8.51334 4.50829 9.19163C4.19373 9.86992 4.02078 10.6052 3.99999 11.3526C3.9792 12.1 4.11102 12.8438 4.38738 13.5385C4.66375 14.2332 5.07886 14.8643 5.60735 15.3932L15.9912 25.7771C15.9911 25.7769 15.9913 25.7772 15.9912 25.7771C15.9935 25.7792 15.9969 25.7807 16 25.7807C16.0031 25.7807 16.0065 25.7792 16.0088 25.7771Z" clip-rule="evenodd"/><path fill="#000" fill-rule="evenodd" d="M16.6748 8.07448C17.0824 8.44714 17.1107 9.07967 16.738 9.48728L15.3833 10.9691L18.7071 14.2929C19.0976 14.6834 19.0976 15.3166 18.7071 15.7071L16.7071 17.7071C16.3166 18.0976 15.6834 18.0976 15.2929 17.7071C14.9024 17.3166 14.9024 16.6834 15.2929 16.2929L16.5858 15L13.2929 11.7071C12.9147 11.3289 12.901 10.72 13.262 10.3252L15.262 8.13774C15.6346 7.73014 16.2672 7.70181 16.6748 8.07448Z" clip-rule="evenodd"/></svg>