<svg width="32" height="32" viewBox="0 0 32 32" fill="none" xmlns="http://www.w3.org/2000/svg">
<path fill-rule="evenodd" clip-rule="evenodd" d="M15.017 2.40637C15.3162 2.23472 15.6551 2.14438 16 2.14438C16.3449 2.14438 16.6838 2.23472 16.983 2.40637L27.4813 8.34293C27.789 8.51768 28.0452 8.77047 28.2241 9.07582C28.4029 9.38116 28.4981 9.72827 28.5 10.0821L28.5 10.0875L28.5 21.9125H27.5L28.5 21.9179C28.4981 22.2717 28.4029 22.6188 28.2241 22.9242C28.0452 23.2295 27.789 23.4823 27.4813 23.6571L16.983 29.5936C16.6839 29.7653 16.345 29.8556 16 29.8556C15.655 29.8556 15.3161 29.7653 15.017 29.5936L4.52027 23.658L4.51869 23.6571C4.21097 23.4823 3.95478 23.2295 3.77593 22.9242C3.59709 22.6188 3.50191 22.2717 3.50001 21.9179L3.5 21.9125V10.0821C3.5019 9.72827 3.59709 9.38116 3.77593 9.07582C3.95478 8.77047 4.21097 8.51768 4.51869 8.34294L4.52027 8.34204L15.017 2.40637ZM26.5 21.9077V10.0923C26.4999 10.0903 26.4993 10.0884 26.4983 10.0866C26.4976 10.0855 26.4968 10.0845 26.4959 10.0837C26.4952 10.0831 26.4946 10.0826 26.4938 10.0822C26.4938 10.0821 26.4939 10.0822 26.4938 10.0822L16 4.14814L5.50631 10.0821C5.50626 10.0821 5.50636 10.082 5.50631 10.0821C5.50447 10.0832 5.50278 10.0848 5.5017 10.0866C5.50068 10.0884 5.5001 10.0903 5.5 10.0923V21.9077C5.5001 21.9097 5.50068 21.9116 5.5017 21.9134C5.50278 21.9152 5.50431 21.9168 5.50614 21.9178C5.50608 21.9178 5.5062 21.9179 5.50614 21.9178L16 27.8519L26.4937 21.9179C26.4936 21.918 26.4937 21.9179 26.4937 21.9179C26.4955 21.9169 26.4972 21.9152 26.4983 21.9134C26.4993 21.9116 26.4999 21.9097 26.5 21.9077Z" fill="black"/>
</svg>
