<svg xmlns="http://www.w3.org/2000/svg" width="32" height="32" fill="none" viewBox="0 0 32 32"><path fill="#000" fill-rule="evenodd" d="M7.41084 4C7.4114 4 7.41196 4 7.41251 4H24.5892C24.9858 4.00066 25.3732 4.11921 25.7022 4.34059C26.0313 4.56196 26.2871 4.87616 26.4372 5.24326C26.5872 5.61036 26.6247 6.01378 26.545 6.40226C26.4655 6.78928 26.2732 7.14406 25.9924 7.42187C25.9913 7.42291 25.9902 7.42396 25.9892 7.425L16.7071 16.7071C16.5196 16.8946 16.2652 17 16 17C15.7348 17 15.4804 16.8946 15.2929 16.7071L6.00766 7.42186C5.72682 7.14405 5.53452 6.78928 5.45506 6.40226C5.37529 6.01378 5.41282 5.61036 5.56288 5.24326C5.71293 4.87616 5.96874 4.56196 6.29778 4.34059C6.6265 4.11944 7.01348 4.0009 7.40964 4M24.5858 6L7.41419 6L7.41964 6.00537L16 14.5858L24.5858 6Z" clip-rule="evenodd"/><path fill="#000" fill-rule="evenodd" d="M16 15C16.2652 15 16.5196 15.1054 16.7071 15.2929L25.9892 24.575C25.9902 24.576 25.9913 24.5771 25.9923 24.5781C26.2732 24.8559 26.4655 25.2107 26.545 25.5977C26.6247 25.9862 26.5872 26.3896 26.4372 26.7567C26.2871 27.1238 26.0313 27.438 25.7022 27.6594C25.3732 27.8808 24.9858 27.9993 24.5892 28H7.41084C7.01426 27.9993 6.62683 27.8808 6.29778 27.6594C5.96874 27.438 5.71293 27.1238 5.56288 26.7567C5.41282 26.3896 5.37529 25.9862 5.45506 25.5977C5.53452 25.2107 5.72683 24.8559 6.00768 24.5781L15.2929 15.2929C15.4804 15.1054 15.7348 15 16 15ZM16 17.4142L7.41423 26L24.5858 26L24.5804 25.9946L16 17.4142Z" clip-rule="evenodd"/></svg>