<svg xmlns="http://www.w3.org/2000/svg" width="32" height="32" fill="none" viewBox="0 0 32 32"><path fill="#000" fill-rule="evenodd" d="M18 14C18 13.4477 18.4477 13 19 13H24C24.5523 13 25 13.4477 25 14C25 14.5523 24.5523 15 24 15H19C18.4477 15 18 14.5523 18 14Z" clip-rule="evenodd"/><path fill="#000" fill-rule="evenodd" d="M18 18C18 17.4477 18.4477 17 19 17H24C24.5523 17 25 17.4477 25 18C25 18.5523 24.5523 19 24 19H19C18.4477 19 18 18.5523 18 18Z" clip-rule="evenodd"/><path fill="#000" fill-rule="evenodd" d="M11.5125 13C10.4079 13 9.51251 13.8954 9.51251 15C9.51251 16.1046 10.4079 17 11.5125 17C12.6171 17 13.5125 16.1046 13.5125 15C13.5125 13.8954 12.6171 13 11.5125 13ZM7.51251 15C7.51251 12.7909 9.30337 11 11.5125 11C13.7217 11 15.5125 12.7909 15.5125 15C15.5125 17.2091 13.7217 19 11.5125 19C9.30337 19 7.51251 17.2091 7.51251 15Z" clip-rule="evenodd"/><path fill="#000" fill-rule="evenodd" d="M11.5125 18.9922C10.8464 18.9922 10.1992 19.2139 9.67299 19.6223C9.14678 20.0308 8.77148 20.6028 8.60626 21.2481C8.46927 21.7831 7.9245 22.1058 7.38947 21.9688C6.85444 21.8318 6.53177 21.287 6.66876 20.752C6.94414 19.6765 7.56964 18.7232 8.44665 18.0424C9.32366 17.3617 10.4023 16.9922 11.5125 16.9922C12.6227 16.9922 13.7014 17.3617 14.5784 18.0424C15.4554 18.7232 16.0809 19.6765 16.3563 20.752C16.4932 21.287 16.1706 21.8318 15.6355 21.9688C15.1005 22.1058 14.5557 21.7831 14.4188 21.2481C14.2535 20.6028 13.8782 20.0308 13.352 19.6223C12.8258 19.2139 12.1786 18.9922 11.5125 18.9922Z" clip-rule="evenodd"/><path fill="#000" fill-rule="evenodd" d="M3 7C3 5.89543 3.89543 5 5 5H27C28.1046 5 29 5.89543 29 7V25C29 26.1046 28.1046 27 27 27H5C3.89543 27 3 26.1046 3 25V7ZM27 7H5V25H27V7Z" clip-rule="evenodd"/></svg>