<svg width="32" height="32" viewBox="0 0 32 32" fill="none" xmlns="http://www.w3.org/2000/svg">
<path fill-rule="evenodd" clip-rule="evenodd" d="M8.9772 11.1077C8.00996 10.916 7.00759 11.0153 6.09675 11.393C5.18591 11.7707 4.40749 12.41 3.85984 13.23C3.31219 14.05 3.0199 15.014 3.0199 16C3.0199 16.9861 3.31219 17.95 3.85984 18.77C4.40749 19.59 5.18591 20.2293 6.09675 20.607C7.00759 20.9848 8.00996 21.0841 8.9772 20.8923C9.93504 20.7024 10.8159 20.2356 11.5106 19.5501L12.5772 18.3486C12.9438 17.9356 13.5759 17.898 13.9889 18.2647C14.4019 18.6313 14.4395 19.2634 14.0728 19.6764L12.9853 20.9014C12.972 20.9164 12.9582 20.931 12.944 20.9452C11.9663 21.9212 10.7212 22.5855 9.3661 22.8541C8.01099 23.1228 6.60666 22.9837 5.33058 22.4545C4.05449 21.9252 2.96391 21.0296 2.19666 19.8808C1.4294 18.732 1.0199 17.3815 1.0199 16C1.0199 14.6185 1.4294 13.2681 2.19666 12.1192C2.96391 10.9704 4.05449 10.0748 5.33058 9.54558C6.60666 9.01635 8.01099 8.87726 9.3661 9.14589C10.7212 9.41451 11.9663 10.0788 12.944 11.0548C12.9582 11.069 12.972 11.0836 12.9853 11.0986L20.4894 19.55C21.1841 20.2356 22.0649 20.7024 23.0228 20.8923C23.99 21.0841 24.9924 20.9848 25.9032 20.607C26.8141 20.2293 27.5925 19.59 28.1402 18.77C28.6878 17.95 28.9801 16.9861 28.9801 16C28.9801 15.014 28.6878 14.05 28.1402 13.23C27.5925 12.41 26.8141 11.7707 25.9032 11.393C24.9924 11.0153 23.99 10.916 23.0228 11.1077C22.065 11.2976 21.1841 11.7644 20.4894 12.45L19.4228 13.6514C19.0562 14.0644 18.4241 14.102 18.0111 13.7353C17.5981 13.3687 17.5605 12.7366 17.9272 12.3236L19.0147 11.0986C19.028 11.0836 19.0418 11.069 19.056 11.0548C20.0337 10.0788 21.2788 9.41451 22.6339 9.14589C23.989 8.87726 25.3933 9.01635 26.6694 9.54558C27.9455 10.0748 29.0361 10.9704 29.8033 12.1192C30.5706 13.2681 30.9801 14.6185 30.9801 16C30.9801 17.3815 30.5706 18.732 29.8033 19.8808C29.0361 21.0296 27.9455 21.9252 26.6694 22.4545C25.3933 22.9837 23.989 23.1228 22.6339 22.8541C21.2788 22.5855 20.0337 21.9212 19.056 20.9452C19.0418 20.9311 19.028 20.9165 19.0147 20.9015L11.5106 12.45C10.8159 11.7644 9.93505 11.2976 8.9772 11.1077Z" fill="black"/>
</svg>
