<svg width="32" height="32" viewBox="0 0 32 32" fill="none" xmlns="http://www.w3.org/2000/svg">
<path fill-rule="evenodd" clip-rule="evenodd" d="M4 7C4 6.44772 4.44772 6 5 6H27C27.5523 6 28 6.44772 28 7V22C28 22.5304 27.7893 23.0391 27.4142 23.4142C27.0391 23.7893 26.5304 24 26 24H21C20.4696 24 19.9609 23.7893 19.5858 23.4142C19.2107 23.0391 19 22.5304 19 22V20H13V26C13 26.5304 12.7893 27.0391 12.4142 27.4142C12.0391 27.7893 11.5304 28 11 28H6C5.46957 28 4.96086 27.7893 4.58579 27.4142C4.21071 27.0391 4 26.5304 4 26V7ZM6 8V26H11V19C11 18.4477 11.4477 18 12 18H20C20.5523 18 21 18.4477 21 19V22H26V8H6Z" fill="black"/>
<path fill-rule="evenodd" clip-rule="evenodd" d="M4 15C4 14.4477 4.44772 14 5 14H12C12.5523 14 13 14.4477 13 15C13 15.5523 12.5523 16 12 16H5C4.44772 16 4 15.5523 4 15Z" fill="black"/>
<path fill-rule="evenodd" clip-rule="evenodd" d="M12 6C12.5523 6 13 6.44772 13 7V19C13 19.5523 12.5523 20 12 20C11.4477 20 11 19.5523 11 19V7C11 6.44772 11.4477 6 12 6Z" fill="black"/>
<path fill-rule="evenodd" clip-rule="evenodd" d="M19 15C19 14.4477 19.4477 14 20 14H27C27.5523 14 28 14.4477 28 15C28 15.5523 27.5523 16 27 16H20C19.4477 16 19 15.5523 19 15Z" fill="black"/>
<path fill-rule="evenodd" clip-rule="evenodd" d="M20 6C20.5523 6 21 6.44772 21 7V19C21 19.5523 20.5523 20 20 20C19.4477 20 19 19.5523 19 19V7C19 6.44772 19.4477 6 20 6Z" fill="black"/>
</svg>
