<svg xmlns="http://www.w3.org/2000/svg" width="32" height="32" fill="none" viewBox="0 0 32 32"><path fill="#000" fill-rule="evenodd" d="M4.06059 8.06177C4.06059 8.06197 4.06058 8.06222 4.06058 8.0625V23.9375C4.06058 23.9378 4.06059 23.938 4.06059 23.9382C4.06073 23.9384 4.06091 23.9386 4.06113 23.9388C4.06135 23.9391 4.06155 23.9392 4.06172 23.9394C4.06193 23.9394 4.06217 23.9394 4.06246 23.9394H27.9375C27.9377 23.9394 27.938 23.9394 27.9382 23.9394C27.9384 23.9392 27.9386 23.9391 27.9388 23.9388C27.939 23.9386 27.9392 23.9384 27.9393 23.9382C27.9393 23.938 27.9393 23.9378 27.9393 23.9375V8.0625C27.9393 8.06222 27.9393 8.06197 27.9393 8.06177C27.9392 8.0616 27.939 8.0614 27.9388 8.06118C27.9386 8.06095 27.9384 8.06078 27.9382 8.06064C27.938 8.06063 27.9377 8.06063 27.9375 8.06063H4.06246C4.06217 8.06063 4.06193 8.06063 4.06172 8.06064C4.06155 8.06078 4.06135 8.06095 4.06113 8.06118C4.06091 8.0614 4.06073 8.0616 4.06059 8.06177ZM1.93933 8.0625C1.93933 6.88993 2.88989 5.93938 4.06246 5.93938H27.9375C29.11 5.93938 30.0606 6.88993 30.0606 8.0625V23.9375C30.0606 25.1101 29.11 26.0606 27.9375 26.0606H4.06246C2.88989 26.0606 1.93933 25.1101 1.93933 23.9375V8.0625Z" clip-rule="evenodd"/><path fill="#000" fill-rule="evenodd" d="M6 16C6 15.4477 6.44772 15 7 15H25C25.5523 15 26 15.4477 26 16C26 16.5523 25.5523 17 25 17H7C6.44772 17 6 16.5523 6 16Z" clip-rule="evenodd"/><path fill="#000" fill-rule="evenodd" d="M6 12C6 11.4477 6.44772 11 7 11H25C25.5523 11 26 11.4477 26 12C26 12.5523 25.5523 13 25 13H7C6.44772 13 6 12.5523 6 12Z" clip-rule="evenodd"/><path fill="#000" fill-rule="evenodd" d="M6 20C6 19.4477 6.44772 19 7 19H8C8.55228 19 9 19.4477 9 20C9 20.5523 8.55228 21 8 21H7C6.44772 21 6 20.5523 6 20Z" clip-rule="evenodd"/><path fill="#000" fill-rule="evenodd" d="M11 20C11 19.4477 11.4477 19 12 19H20C20.5523 19 21 19.4477 21 20C21 20.5523 20.5523 21 20 21H12C11.4477 21 11 20.5523 11 20Z" clip-rule="evenodd"/><path fill="#000" fill-rule="evenodd" d="M23 20C23 19.4477 23.4477 19 24 19H25C25.5523 19 26 19.4477 26 20C26 20.5523 25.5523 21 25 21H24C23.4477 21 23 20.5523 23 20Z" clip-rule="evenodd"/></svg>