<svg xmlns="http://www.w3.org/2000/svg" width="32" height="32" fill="none" viewBox="0 0 32 32"><path fill="#000" fill-rule="evenodd" d="M25.4483 5.44098L19.7209 11.3067L21.9515 13.5373L27.5327 7.57887C27.5401 7.57092 27.5477 7.56309 27.5554 7.55539C27.8353 7.27548 27.9926 6.89585 27.9926 6.5C27.9926 6.10415 27.8353 5.72451 27.5554 5.4446C27.2755 5.1647 26.8959 5.00745 26.5 5.00745C26.1059 5.00745 25.7278 5.16334 25.4483 5.44098ZM21.2707 15.6849C21.2685 15.6827 21.2664 15.6806 21.2643 15.6785L18.3236 12.7378L5.03492 26.3473C10.3863 27.0154 14.9477 25.0776 18.3142 22.7971C20.1818 21.5319 21.6612 20.1737 22.6732 19.1315C23.0768 18.7158 23.4047 18.3519 23.6519 18.0661L21.2707 15.6849ZM25 18L25.8 18.6C26.0986 18.2019 26.059 17.6448 25.7071 17.2929L23.3665 14.9523L28.9821 8.95706C29.6293 8.3033 29.9926 7.42038 29.9926 6.5C29.9926 5.57372 29.6246 4.68537 28.9696 4.03039C28.3146 3.37541 27.4263 3.00745 26.5 3.00745C25.5737 3.00745 24.6854 3.37541 24.0304 4.03039L17.6593 10.5552C17.6409 10.5712 17.6229 10.5879 17.6054 10.6054C17.5821 10.6287 17.5602 10.6529 17.5397 10.6778L2.28453 26.3014C2.03206 26.5599 1.93874 26.9346 2.04044 27.2814C2.14214 27.6282 2.42303 27.8931 2.77516 27.9744C9.64077 29.5588 15.4259 27.1693 19.4359 24.4529C21.4432 23.0931 23.0263 21.6388 24.1081 20.5248C24.6497 19.9669 25.0678 19.4922 25.3527 19.154C25.4952 18.9849 25.6045 18.8498 25.6794 18.7552C25.7169 18.708 25.7458 18.6709 25.7659 18.6447L25.7896 18.6138L25.7965 18.6047L25.7987 18.6018L25.8 18.6C25.8003 18.5996 25.8 18.6 25 18Z" clip-rule="evenodd"/></svg>