<svg width="32" height="32" viewBox="0 0 32 32" fill="none" xmlns="http://www.w3.org/2000/svg">
<path fill-rule="evenodd" clip-rule="evenodd" d="M10 5C10 4.44772 10.4477 4 11 4H23C23.5523 4 24 4.44772 24 5C24 5.55228 23.5523 6 23 6H11C10.4477 6 10 5.55228 10 5Z" fill="black"/>
<path fill-rule="evenodd" clip-rule="evenodd" d="M13.3418 4.06023C13.8608 4.24897 14.1286 4.82274 13.9398 5.34177L5.93982 27.3418C5.75108 27.8608 5.17732 28.1286 4.65828 27.9398C4.13925 27.7511 3.8715 27.1773 4.06023 26.6583L12.0602 4.65828C12.249 4.13925 12.8227 3.8715 13.3418 4.06023Z" fill="black"/>
<path fill-rule="evenodd" clip-rule="evenodd" d="M21.3418 4.06023C21.8608 4.24897 22.1286 4.82274 21.9398 5.34177L13.9398 27.3418C13.7511 27.8608 13.1773 28.1286 12.6583 27.9398C12.1393 27.7511 11.8715 27.1773 12.0602 26.6583L20.0602 4.65828C20.249 4.13925 20.8227 3.8715 21.3418 4.06023Z" fill="black"/>
<path fill-rule="evenodd" clip-rule="evenodd" d="M7.63751 17C7.63751 16.4477 8.08523 16 8.63751 16H16.6375C17.1898 16 17.6375 16.4477 17.6375 17C17.6375 17.5523 17.1898 18 16.6375 18H8.63751C8.08523 18 7.63751 17.5523 7.63751 17Z" fill="black"/>
<path fill-rule="evenodd" clip-rule="evenodd" d="M9.8125 11C9.8125 10.4477 10.2602 10 10.8125 10H18.8125C19.3648 10 19.8125 10.4477 19.8125 11C19.8125 11.5523 19.3648 12 18.8125 12H10.8125C10.2602 12 9.8125 11.5523 9.8125 11Z" fill="black"/>
<path fill-rule="evenodd" clip-rule="evenodd" d="M5.45001 23C5.45001 22.4477 5.89773 22 6.45001 22H14.45C15.0023 22 15.45 22.4477 15.45 23C15.45 23.5523 15.0023 24 14.45 24H6.45001C5.89773 24 5.45001 23.5523 5.45001 23Z" fill="black"/>
<path fill-rule="evenodd" clip-rule="evenodd" d="M19.1583 8.18523C19.6773 7.9965 20.2511 8.26425 20.4398 8.78328L26.9398 26.6583C27.1286 27.1773 26.8608 27.7511 26.3418 27.9398C25.8227 28.1286 25.249 27.8608 25.0602 27.3418L18.5602 9.46677C18.3715 8.94774 18.6393 8.37397 19.1583 8.18523Z" fill="black"/>
<path fill-rule="evenodd" clip-rule="evenodd" d="M14.55 20C14.55 19.4477 14.9977 19 15.55 19H23.45C24.0023 19 24.45 19.4477 24.45 20C24.45 20.5523 24.0023 21 23.45 21H15.55C14.9977 21 14.55 20.5523 14.55 20Z" fill="black"/>
</svg>
