<svg xmlns="http://www.w3.org/2000/svg" width="32" height="32" fill="none" viewBox="0 0 32 32"><path fill="#000" fill-rule="evenodd" d="M8.6622 6C8.65978 6 8.65742 6.0007 8.65539 6.00201C8.65379 6.00305 8.65245 6.00444 8.65147 6.00607L3.51657 18L28.4835 18L28.4807 17.9936L23.3486 6.00606C23.3476 6.00444 23.3463 6.00305 23.3447 6.00201C23.3426 6.0007 23.3403 6 23.3379 6H8.6622C8.66231 6 8.66209 6 8.6622 6ZM8.66286 4H23.3372C23.3371 4 23.3373 4 23.3372 4C23.726 3.99993 24.1068 4.1125 24.4331 4.32409C24.7593 4.53574 25.0173 4.83741 25.1758 5.19259L25.1818 5.20643L30.3165 17.2C30.3171 17.2013 30.3177 17.2026 30.3182 17.2039C30.4496 17.5066 30.504 17.8371 30.4766 18.1659C30.4491 18.4962 30.34 18.8144 30.159 19.0921C29.9781 19.3697 29.731 19.598 29.4399 19.7565C29.1488 19.915 28.8229 19.9987 28.4915 20L28.4875 20H3.50852C3.17711 19.9987 2.85123 19.915 2.56017 19.7565C2.26911 19.598 2.02199 19.3697 1.84102 19.0921C1.66006 18.8144 1.55093 18.4962 1.52343 18.1659C1.49606 17.837 1.5505 17.5065 1.68188 17.2038L6.81824 5.20643L6.82428 5.19259C6.98274 4.83741 7.24071 4.53574 7.56701 4.32409C7.89321 4.1125 8.27405 3.99993 8.66286 4Z" clip-rule="evenodd"/><path fill="#000" fill-rule="evenodd" d="M16 18C16.5523 18 17 18.4477 17 19V27C17 27.5523 16.5523 28 16 28C15.4477 28 15 27.5523 15 27V19C15 18.4477 15.4477 18 16 18Z" clip-rule="evenodd"/><path fill="#000" fill-rule="evenodd" d="M11 27C11 26.4477 11.4477 26 12 26H20C20.5523 26 21 26.4477 21 27C21 27.5523 20.5523 28 20 28H12C11.4477 28 11 27.5523 11 27Z" clip-rule="evenodd"/><path fill="#000" fill-rule="evenodd" d="M25 18C25.5523 18 26 18.4477 26 19V24C26 24.5523 25.5523 25 25 25C24.4477 25 24 24.5523 24 24V19C24 18.4477 24.4477 18 25 18Z" clip-rule="evenodd"/></svg>