<svg xmlns="http://www.w3.org/2000/svg" width="32" height="32" fill="none" viewBox="0 0 32 32"><path fill="#000" fill-rule="evenodd" d="M20.7071 11.2929C21.0976 11.6834 21.0976 12.3166 20.7071 12.7071L5.70711 27.7071C5.31658 28.0976 4.68342 28.0976 4.29289 27.7071C3.90237 27.3166 3.90237 26.6834 4.29289 26.2929L19.2929 11.2929C19.6834 10.9024 20.3166 10.9024 20.7071 11.2929Z" clip-rule="evenodd"/><path fill="#000" fill-rule="evenodd" d="M8.73028 23.2697C13.3163 25.924 17.732 25.3831 20.9436 22.3931C24.1525 19.4055 26.3291 13.8103 26.0444 5.95559C18.1897 5.67094 12.5945 7.84751 9.60687 11.0564C6.61684 14.2679 6.07597 18.6837 8.73028 23.2697ZM8.14308 9.69359C11.793 5.77334 18.3852 3.49153 27.0587 4.00174C27.5648 4.03151 27.9685 4.43523 27.9983 4.94129C28.5085 13.6148 26.2266 20.207 22.3064 23.8569C18.3183 27.57 12.8224 28.0597 7.48548 24.8575C7.34473 24.7731 7.22693 24.6553 7.14248 24.5145C3.94034 19.1776 4.42998 13.6817 8.14308 9.69359Z" clip-rule="evenodd"/></svg>