<svg xmlns="http://www.w3.org/2000/svg" width="32" height="32" fill="none" viewBox="0 0 32 32"><path fill="#000" fill-rule="evenodd" d="M16 5C9.92487 5 5 9.92487 5 16C5 22.0751 9.92487 27 16 27C22.0751 27 27 22.0751 27 16C27 9.92487 22.0751 5 16 5ZM3 16C3 8.8203 8.8203 3 16 3C23.1797 3 29 8.8203 29 16C29 23.1797 23.1797 29 16 29C8.8203 29 3 23.1797 3 16Z" clip-rule="evenodd"/><path fill="#000" fill-rule="evenodd" d="M16 12C13.7909 12 12 13.7909 12 16C12 18.2091 13.7909 20 16 20C18.2091 20 20 18.2091 20 16C20 13.7909 18.2091 12 16 12ZM10 16C10 12.6863 12.6863 10 16 10C19.3137 10 22 12.6863 22 16C22 19.3137 19.3137 22 16 22C12.6863 22 10 19.3137 10 16Z" clip-rule="evenodd"/><path fill="#000" fill-rule="evenodd" d="M6.80541 6.80541C7.19593 6.41488 7.82909 6.41488 8.21962 6.80541L13.1696 11.7554C13.5601 12.1459 13.5601 12.7791 13.1696 13.1696C12.7791 13.5601 12.1459 13.5601 11.7554 13.1696L6.80541 8.21962C6.41488 7.82909 6.41488 7.19593 6.80541 6.80541Z" clip-rule="evenodd"/><path fill="#000" fill-rule="evenodd" d="M25.1946 6.80541C25.5851 7.19593 25.5851 7.82909 25.1946 8.21962L20.2446 13.1696C19.8541 13.5601 19.2209 13.5601 18.8304 13.1696C18.4399 12.7791 18.4399 12.1459 18.8304 11.7554L23.7804 6.80541C24.1709 6.41488 24.8041 6.41488 25.1946 6.80541Z" clip-rule="evenodd"/><path fill="#000" fill-rule="evenodd" d="M18.8304 18.8304C19.2209 18.4398 19.8541 18.4398 20.2446 18.8304L25.1946 23.7804C25.5851 24.1709 25.5851 24.8041 25.1946 25.1946C24.8041 25.5851 24.1709 25.5851 23.7804 25.1946L18.8304 20.2446C18.4399 19.8541 18.4399 19.2209 18.8304 18.8304Z" clip-rule="evenodd"/><path fill="#000" fill-rule="evenodd" d="M13.1696 18.8304C13.5601 19.2209 13.5601 19.8541 13.1696 20.2446L8.21962 25.1946C7.82909 25.5851 7.19593 25.5851 6.80541 25.1946C6.41488 24.8041 6.41488 24.1709 6.80541 23.7804L11.7554 18.8304C12.1459 18.4398 12.7791 18.4398 13.1696 18.8304Z" clip-rule="evenodd"/></svg>