<svg xmlns="http://www.w3.org/2000/svg" width="32" height="32" fill="none" viewBox="0 0 32 32"><path fill="#000" fill-rule="evenodd" d="M10 29C10 28.4477 10.4477 28 11 28H21C21.5523 28 22 28.4477 22 29C22 29.5523 21.5523 30 21 30H11C10.4477 30 10 29.5523 10 29Z" clip-rule="evenodd"/><path fill="#000" fill-rule="evenodd" d="M21.0903 5.57535C19.5316 4.50619 17.6758 3.95492 15.7862 3.99972C10.9096 4.11208 6.97747 8.17451 6.99997 13.0579L6.99998 13.0592C7.00442 14.4155 7.31748 15.753 7.91545 16.9704C8.51342 18.1877 9.38061 19.253 10.4513 20.0856L9.83747 20.875L10.4563 20.0895C10.9338 20.4656 11.3205 20.9444 11.5877 21.4903C11.8549 22.0363 11.9958 22.6353 12 23.2432L12 23.25L12 24H20L20 23.2481C20.0012 22.6344 20.1427 22.0291 20.4136 21.4785C20.684 20.9292 21.0761 20.4488 21.56 20.0739C23.0454 18.9068 24.1258 17.3019 24.6483 15.4866C25.1712 13.6702 25.1088 11.7353 24.4702 9.95627C23.8315 8.17728 22.649 6.64451 21.0903 5.57535ZM9.22086 21.6623C7.91184 20.6437 6.85158 19.3408 6.12032 17.8521C5.38854 16.3623 5.00542 14.7256 4.99999 13.0658L5.99998 13.0625L4.99999 13.0671C4.99999 13.0667 4.99999 13.0662 4.99999 13.0658C4.97321 7.09983 9.76633 2.13803 15.7392 2.00027C15.7391 2.00027 15.7393 2.00026 15.7392 2.00027C18.0485 1.94566 20.3167 2.61943 22.2216 3.92605C24.1267 5.2328 25.572 7.10619 26.3526 9.28051C27.1331 11.4548 27.2093 13.8197 26.5703 16.0398C25.9313 18.2598 24.6096 20.2224 22.7925 21.649L22.7866 21.6537C22.5423 21.8425 22.3444 22.0847 22.2081 22.3617C22.0719 22.6384 22.0007 22.9426 22 23.251C22 23.2507 22 23.2513 22 23.251V24C22 24.5304 21.7893 25.0391 21.4142 25.4142C21.0391 25.7893 20.5304 26 20 26H12C11.4696 26 10.9608 25.7893 10.5858 25.4142C10.2107 25.0391 9.99998 24.5304 9.99998 24V23.2538C9.99743 22.9472 9.92613 22.645 9.79132 22.3696C9.65647 22.0941 9.46153 21.8524 9.22086 21.6623Z" clip-rule="evenodd"/><path fill="#000" fill-rule="evenodd" d="M16.0266 6.93286C16.1189 6.38835 16.6351 6.02176 17.1796 6.11406C18.606 6.35585 19.9221 7.0344 20.9464 8.05607C21.9706 9.07773 22.6526 10.3921 22.898 11.8178C22.9917 12.3621 22.6264 12.8793 22.0821 12.973C21.5379 13.0667 21.0207 12.7014 20.927 12.1571C20.7518 11.1395 20.2651 10.2013 19.534 9.47208C18.8029 8.74285 17.8634 8.25852 16.8454 8.08593C16.3008 7.99363 15.9342 7.47738 16.0266 6.93286Z" clip-rule="evenodd"/></svg>