<svg width="32" height="32" viewBox="0 0 32 32" fill="none" xmlns="http://www.w3.org/2000/svg">
<path fill-rule="evenodd" clip-rule="evenodd" d="M5.32733 4.26006C5.73599 3.88855 6.36844 3.91867 6.73995 4.32733L26.7399 26.3273C27.1115 26.736 27.0813 27.3684 26.6727 27.7399C26.264 28.1114 25.6316 28.0813 25.2601 27.6727L5.26007 5.67267C4.88856 5.26401 4.91868 4.63157 5.32733 4.26006Z" fill="black"/>
<path fill-rule="evenodd" clip-rule="evenodd" d="M12.207 10.3436C12.6109 10.7203 12.633 11.3531 12.2564 11.757L7.75095 16.5886L14.3511 19.0637C14.8102 19.2358 15.0767 19.7154 14.9806 20.1961L13.6706 26.746L19.7442 20.2425C20.1211 19.8388 20.7539 19.8172 21.1575 20.1941C21.5612 20.5711 21.5828 21.2039 21.2059 21.6075L12.7309 30.6825C12.4258 31.0092 11.9409 31.0938 11.5433 30.8896C11.1456 30.6855 10.9318 30.2422 11.0194 29.8039L12.8527 20.6377L5.64889 17.9363C5.33634 17.8191 5.10288 17.5537 5.02653 17.2287C4.95017 16.9038 5.041 16.5621 5.26865 16.318L10.7937 10.393C11.1703 9.98909 11.8031 9.96699 12.207 10.3436Z" fill="black"/>
<path fill-rule="evenodd" clip-rule="evenodd" d="M20.4569 1.1105C20.8544 1.31472 21.0682 1.75789 20.9805 2.19611L19.1473 11.3623L26.3511 14.0637C26.6637 14.1809 26.8972 14.4464 26.9735 14.7714C27.0498 15.0964 26.9589 15.4381 26.7311 15.6822L23.9436 18.6697C23.5668 19.0735 22.9341 19.0954 22.5302 18.7187C22.1264 18.3419 22.1045 17.7091 22.4813 17.3053L24.2486 15.4112L17.6488 12.9363C17.1898 12.7642 16.9232 12.2846 17.0194 11.8039L18.33 5.25071L14.993 8.8204C14.6158 9.22385 13.983 9.24516 13.5796 8.86801C13.1761 8.49085 13.1548 7.85805 13.5319 7.4546L19.2694 1.3171C19.5746 0.990631 20.0594 0.906294 20.4569 1.1105Z" fill="black"/>
</svg>
