<svg width="32" height="32" viewBox="0 0 32 32" fill="none" xmlns="http://www.w3.org/2000/svg">
<path fill-rule="evenodd" clip-rule="evenodd" d="M12 5C12.5523 5 13 5.44772 13 6V9C13 9.55228 12.5523 10 12 10C11.4477 10 11 9.55228 11 9V6C11 5.44772 11.4477 5 12 5Z" fill="black"/>
<path fill-rule="evenodd" clip-rule="evenodd" d="M20 22C20.5523 22 21 22.4477 21 23V26C21 26.5523 20.5523 27 20 27C19.4477 27 19 26.5523 19 26V23C19 22.4477 19.4477 22 20 22Z" fill="black"/>
<path fill-rule="evenodd" clip-rule="evenodd" d="M5 12C5 11.4477 5.44772 11 6 11H9C9.55228 11 10 11.4477 10 12C10 12.5523 9.55228 13 9 13H6C5.44772 13 5 12.5523 5 12Z" fill="black"/>
<path fill-rule="evenodd" clip-rule="evenodd" d="M22 20C22 19.4477 22.4477 19 23 19H26C26.5523 19 27 19.4477 27 20C27 20.5523 26.5523 21 26 21H23C22.4477 21 22 20.5523 22 20Z" fill="black"/>
<path fill-rule="evenodd" clip-rule="evenodd" d="M9.58208 15.3429C9.9726 15.7334 9.9726 16.3666 9.58208 16.7571L8.16958 18.1696C7.41891 18.9203 6.99719 19.9384 6.99719 21C6.99719 21.5257 7.10073 22.0462 7.30189 22.5318C7.50304 23.0174 7.79789 23.4587 8.16958 23.8304C8.54127 24.2021 8.98254 24.4969 9.46817 24.6981C9.95381 24.8993 10.4743 25.0028 11 25.0028C12.0616 25.0028 13.0797 24.5811 13.8304 23.8304L15.2429 22.4179C15.6334 22.0274 16.2666 22.0274 16.6571 22.4179C17.0476 22.8084 17.0476 23.4416 16.6571 23.8321L15.2446 25.2446C14.1188 26.3704 12.592 27.0028 11 27.0028C10.2117 27.0028 9.4311 26.8475 8.70281 26.5459C7.97452 26.2442 7.31278 25.802 6.75537 25.2446C6.19796 24.6872 5.7558 24.0255 5.45413 23.2972C5.15246 22.5689 4.99719 21.7883 4.99719 21C4.99719 19.408 5.62963 17.8811 6.75537 16.7554L8.16787 15.3429C8.55839 14.9524 9.19156 14.9524 9.58208 15.3429Z" fill="black"/>
<path fill-rule="evenodd" clip-rule="evenodd" d="M16.7554 6.7554C17.8812 5.62966 19.408 4.99722 21 4.99722C22.5921 4.99722 24.1189 5.62966 25.2447 6.7554C26.3704 7.88114 27.0028 9.40797 27.0028 11C27.0028 12.592 26.3704 14.1189 25.2447 15.2446L23.8322 16.6571C23.4416 17.0476 22.8085 17.0476 22.4179 16.6571C22.0274 16.2666 22.0274 15.6334 22.4179 15.2429L23.8304 13.8304C24.5811 13.0797 25.0028 12.0616 25.0028 11C25.0028 9.9384 24.5811 8.92028 23.8304 8.16961C23.0798 7.41894 22.0617 6.99722 21 6.99722C19.9384 6.99722 18.9203 7.41894 18.1697 8.16961L16.7572 9.58211C16.3666 9.97263 15.7335 9.97263 15.3429 9.58211C14.9524 9.19159 14.9524 8.55842 15.3429 8.1679L16.7554 6.7554Z" fill="black"/>
</svg>
