<svg xmlns="http://www.w3.org/2000/svg" width="32" height="32" fill="none" viewBox="0 0 32 32"><path fill="#000" fill-rule="evenodd" d="M10.3446 13.1679C10.7351 13.5584 10.7351 14.1916 10.3446 14.5821L6.80709 18.1196C5.86911 19.0576 5.34216 20.3298 5.34216 21.6562C5.34216 22.9827 5.86911 24.2549 6.80709 25.1929C7.74506 26.1309 9.01723 26.6578 10.3437 26.6578C11.0005 26.6578 11.6509 26.5285 12.2577 26.2771C12.8646 26.0257 13.4159 25.6573 13.8804 25.1929L17.4179 21.6554C17.8084 21.2649 18.4416 21.2649 18.8321 21.6554C19.2226 22.0459 19.2226 22.6791 18.8321 23.0696L15.2946 26.6071C14.6444 27.2573 13.8726 27.773 13.0231 28.1249C12.1736 28.4767 11.2632 28.6578 10.3437 28.6578C8.4868 28.6578 6.70592 27.9202 5.39287 26.6071C4.07983 25.2941 3.34216 23.5132 3.34216 21.6562C3.34216 19.7993 4.07983 18.0184 5.39287 16.7054L8.93037 13.1679C9.3209 12.7774 9.95406 12.7774 10.3446 13.1679Z" clip-rule="evenodd"/><path fill="#000" fill-rule="evenodd" d="M16.7054 5.39289C18.0184 4.07985 19.7993 3.34218 21.6562 3.34218C23.5132 3.34218 25.2941 4.07985 26.6071 5.39289C27.9202 6.70594 28.6578 8.48682 28.6578 10.3438C28.6578 12.2007 27.9202 13.9816 26.6071 15.2946L23.0696 18.8321C22.6791 19.2226 22.0459 19.2226 21.6554 18.8321C21.2649 18.4416 21.2649 17.8084 21.6554 17.4179L25.1929 13.8804C26.1309 12.9424 26.6578 11.6702 26.6578 10.3438C26.6578 9.01725 26.1309 7.74508 25.1929 6.80711C24.2549 5.86913 22.9827 5.34218 21.6562 5.34218C20.3298 5.34218 19.0576 5.86913 18.1196 6.80711L14.5821 10.3446C14.1916 10.7351 13.5584 10.7351 13.1679 10.3446C12.7774 9.95408 12.7774 9.32092 13.1679 8.93039L16.7054 5.39289Z" clip-rule="evenodd"/><path fill="#000" fill-rule="evenodd" d="M10.3446 13.1679C10.7351 13.5584 10.7351 14.1916 10.3446 14.5821L6.80709 18.1196C5.86911 19.0576 5.34216 20.3298 5.34216 21.6562C5.34216 22.9827 5.86911 24.2549 6.80709 25.1929C7.74506 26.1309 9.01723 26.6578 10.3437 26.6578C11.0005 26.6578 11.6509 26.5285 12.2577 26.2771C12.8646 26.0257 13.4159 25.6573 13.8804 25.1929L17.4179 21.6554C17.8084 21.2649 18.4416 21.2649 18.8321 21.6554C19.2226 22.0459 19.2226 22.6791 18.8321 23.0696L15.2946 26.6071C14.6444 27.2573 13.8726 27.773 13.0231 28.1249C12.1736 28.4767 11.2632 28.6578 10.3437 28.6578C8.4868 28.6578 6.70592 27.9202 5.39287 26.6071C4.07983 25.2941 3.34216 23.5132 3.34216 21.6562C3.34216 19.7993 4.07983 18.0184 5.39287 16.7054L8.93037 13.1679C9.3209 12.7774 9.95406 12.7774 10.3446 13.1679Z" clip-rule="evenodd"/><path fill="#000" fill-rule="evenodd" d="M16.7054 5.39289C18.0184 4.07985 19.7993 3.34218 21.6562 3.34218C23.5132 3.34218 25.2941 4.07985 26.6071 5.39289C27.9202 6.70594 28.6578 8.48682 28.6578 10.3438C28.6578 12.2007 27.9202 13.9816 26.6071 15.2946L23.0696 18.8321C22.6791 19.2226 22.0459 19.2226 21.6554 18.8321C21.2649 18.4416 21.2649 17.8084 21.6554 17.4179L25.1929 13.8804C26.1309 12.9424 26.6578 11.6702 26.6578 10.3438C26.6578 9.01725 26.1309 7.74508 25.1929 6.80711C24.2549 5.86913 22.9827 5.34218 21.6562 5.34218C20.3298 5.34218 19.0576 5.86913 18.1196 6.80711L14.5821 10.3446C14.1916 10.7351 13.5584 10.7351 13.1679 10.3446C12.7774 9.95408 12.7774 9.32092 13.1679 8.93039L16.7054 5.39289Z" clip-rule="evenodd"/></svg>