<svg xmlns="http://www.w3.org/2000/svg" width="32" height="32" fill="none" viewBox="0 0 32 32"><path fill="#000" fill-rule="evenodd" d="M18.4525 7.1743L15.9947 9.63211C15.6041 10.0226 14.971 10.0226 14.5804 9.63211C14.1899 9.24158 14.1899 8.60842 14.5804 8.21789L17.0554 5.74289C17.0664 5.73198 17.0775 5.72132 17.0889 5.71093C18.3269 4.58257 19.952 3.97461 21.6266 4.01338C23.3012 4.05215 24.8965 4.73467 26.0809 5.9191C27.2654 7.10354 27.9479 8.69881 27.9867 10.3734C28.0254 12.048 27.4175 13.6731 26.2891 14.9111C26.2783 14.923 26.2673 14.9345 26.2559 14.9459L22.721 18.4683C22.7205 18.4687 22.7201 18.4692 22.7197 18.4696C22.1172 19.074 21.4014 19.5535 20.6133 19.8809C19.8246 20.2084 18.979 20.377 18.125 20.377C17.2711 20.377 16.4255 20.2084 15.6368 19.8809C14.8481 19.5533 14.1319 19.0733 13.5291 18.4683C13.1393 18.077 13.1405 17.4439 13.5318 17.0541C13.923 16.6643 14.5562 16.6655 14.946 17.0567C15.3629 17.4752 15.8583 17.8072 16.4039 18.0338C16.9494 18.2604 17.5343 18.377 18.125 18.377C18.7158 18.377 19.3007 18.2604 19.8462 18.0338C20.3918 17.8072 20.8872 17.4752 21.3041 17.0567L21.3067 17.0541L24.8263 13.547C25.5983 12.6913 26.0139 11.5724 25.9872 10.4197C25.9603 9.25937 25.4874 8.15401 24.6667 7.33332C23.846 6.51262 22.7407 6.03971 21.5804 6.01285C20.4274 5.98615 19.3082 6.40193 18.4525 7.1743Z" clip-rule="evenodd"/><path fill="#000" fill-rule="evenodd" d="M13.875 13.623C13.2842 13.623 12.6993 13.7396 12.1538 13.9662C11.6083 14.1928 11.1128 14.5248 10.6959 14.9433L10.6933 14.9459L10.6933 14.9459L7.17369 18.4531C6.40169 19.3087 5.98612 20.4276 6.01281 21.5803C6.03967 22.7406 6.51259 23.846 7.33328 24.6667C8.15397 25.4874 9.25933 25.9603 10.4197 25.9872C11.5726 26.0139 12.6918 25.5981 13.5475 24.8257L16.0054 22.3679C16.3959 21.9774 17.029 21.9774 17.4196 22.3679C17.8101 22.7584 17.8101 23.3916 17.4196 23.7821L14.9446 26.2571C14.9337 26.268 14.9225 26.2787 14.9111 26.2891C13.6731 27.4174 12.048 28.0254 10.3734 27.9866C8.69877 27.9479 7.1035 27.2653 5.91907 26.0809C4.73463 24.8965 4.05211 23.3012 4.01334 21.6266C3.97457 19.952 4.58254 18.3269 5.71089 17.0889C5.72168 17.077 5.73276 17.0655 5.74411 17.0541L9.27903 13.5317C9.27949 13.5313 9.27994 13.5308 9.28039 13.5304C9.88284 12.926 10.5986 12.4464 11.3867 12.1191C12.1754 11.7916 13.021 11.623 13.875 11.623C14.729 11.623 15.5745 11.7916 16.3632 12.1191C17.1519 12.4467 17.8682 12.9267 18.4709 13.5317C18.8607 13.923 18.8595 14.5561 18.4682 14.9459C18.077 15.3357 17.4438 15.3345 17.054 14.9433C16.6371 14.5248 16.1417 14.1928 15.5961 13.9662C15.0506 13.7396 14.4657 13.623 13.875 13.623Z" clip-rule="evenodd"/></svg>