<svg width="32" height="32" viewBox="0 0 32 32" fill="none" xmlns="http://www.w3.org/2000/svg">
<path fill-rule="evenodd" clip-rule="evenodd" d="M16 5C14.1435 5 12.363 5.7375 11.0502 7.05025C9.73749 8.36301 8.99999 10.1435 8.99999 12C8.99999 16.1572 7.96286 20.0283 6.93978 22.8417C6.42671 24.2527 5.91324 25.4083 5.52651 26.214C5.33303 26.6171 5.17095 26.9332 5.05606 27.1507C4.9986 27.2595 4.95291 27.3436 4.92096 27.4017C4.90498 27.4307 4.89243 27.4532 4.88356 27.469L4.87305 27.4877L4.86992 27.4932L4.86889 27.495C4.86874 27.4952 4.86823 27.4961 3.99999 27L4.86823 27.4961C4.59422 27.9757 3.98337 28.1423 3.50385 27.8682C3.02447 27.5943 2.85783 26.9837 3.13151 26.5043C3.13149 26.5043 3.13152 26.5043 3.13151 26.5043L3.13273 26.5021L3.13936 26.4904L3.16886 26.4372C3.19551 26.3888 3.23575 26.3147 3.28767 26.2165C3.39152 26.0199 3.54194 25.7267 3.72346 25.3485C4.08673 24.5917 4.57327 23.4973 5.06019 22.1583C6.03712 19.4717 6.99999 15.8428 6.99999 12C6.99999 9.61305 7.9482 7.32387 9.63603 5.63604C11.3239 3.94821 13.613 3 16 3C18.3869 3 20.6761 3.94821 22.364 5.63604C24.0518 7.32387 25 9.61305 25 12C25 15.8428 25.9629 19.4717 26.9398 22.1583C27.4267 23.4973 27.9132 24.5917 28.2765 25.3485C28.458 25.7267 28.6085 26.0199 28.7123 26.2165C28.7642 26.3147 28.8045 26.3888 28.8311 26.4372L28.8606 26.4904L28.8673 26.5021L28.8682 26.5039C28.8682 26.5037 28.8683 26.504 28.8682 26.5039C28.8681 26.5037 28.8682 26.5039 28 27L27.1317 27.4961C27.4058 27.9757 28.0166 28.1423 28.4961 27.8682C28.9755 27.5943 29.142 26.9833 28.8682 26.5039M28 27C27.1317 27.4961 27.1319 27.4964 27.1317 27.4961L27.1301 27.4932L27.1269 27.4877L27.1164 27.469C27.1075 27.4532 27.095 27.4307 27.079 27.4017C27.0471 27.3436 27.0014 27.2595 26.9439 27.1507C26.829 26.9332 26.6669 26.6171 26.4735 26.214C26.0867 25.4083 25.5733 24.2527 25.0602 22.8417C24.0371 20.0283 23 16.1572 23 12C23 10.1435 22.2625 8.36301 20.9497 7.05025C19.637 5.7375 17.8565 5 16 5" fill="black"/>
<path d="M12.5 15C13.3284 15 14 14.3284 14 13.5C14 12.6716 13.3284 12 12.5 12C11.6716 12 11 12.6716 11 13.5C11 14.3284 11.6716 15 12.5 15Z" fill="black"/>
<path d="M19.5 15C20.3284 15 21 14.3284 21 13.5C21 12.6716 20.3284 12 19.5 12C18.6716 12 18 12.6716 18 13.5C18 14.3284 18.6716 15 19.5 15Z" fill="black"/>
<path fill-rule="evenodd" clip-rule="evenodd" d="M11.1055 17.5528C11.3525 17.0588 11.9532 16.8586 12.4472 17.1056L16 18.882L19.5528 17.1056C20.0467 16.8586 20.6474 17.0588 20.8944 17.5528C21.1414 18.0468 20.9412 18.6474 20.4472 18.8944L16.4472 20.8944C16.1657 21.0352 15.8343 21.0352 15.5528 20.8944L11.5528 18.8944C11.0588 18.6474 10.8586 18.0468 11.1055 17.5528Z" fill="black"/>
<path fill-rule="evenodd" clip-rule="evenodd" d="M16 25.0058C15.1221 25.0058 14.2595 25.2364 13.4987 25.6745C12.7379 26.1125 12.1055 26.7427 11.6648 27.502C11.3876 27.9797 10.7756 28.1421 10.298 27.8649C9.82031 27.5876 9.65786 26.9756 9.9351 26.498C10.5517 25.4358 11.4364 24.5541 12.5008 23.9412C13.5651 23.3284 14.7718 23.0058 16 23.0058C17.2282 23.0058 18.4348 23.3284 19.4992 23.9412C20.5635 24.5541 21.4483 25.4358 22.0648 26.498C22.3421 26.9756 22.1796 27.5876 21.702 27.8649C21.2243 28.1421 20.6124 27.9797 20.3351 27.502C19.8944 26.7427 19.262 26.1125 18.5012 25.6745C17.7404 25.2364 16.8779 25.0058 16 25.0058Z" fill="black"/>
</svg>
