<svg width="32" height="32" viewBox="0 0 32 32" fill="none" xmlns="http://www.w3.org/2000/svg">
<path fill-rule="evenodd" clip-rule="evenodd" d="M12 16C12 15.4477 12.4477 15 13 15H27C27.5523 15 28 15.4477 28 16C28 16.5523 27.5523 17 27 17H13C12.4477 17 12 16.5523 12 16Z" fill="black"/>
<path fill-rule="evenodd" clip-rule="evenodd" d="M12 8C12 7.44772 12.4477 7 13 7H27C27.5523 7 28 7.44772 28 8C28 8.55228 27.5523 9 27 9H13C12.4477 9 12 8.55228 12 8Z" fill="black"/>
<path fill-rule="evenodd" clip-rule="evenodd" d="M12 24C12 23.4477 12.4477 23 13 23H27C27.5523 23 28 23.4477 28 24C28 24.5523 27.5523 25 27 25H13C12.4477 25 12 24.5523 12 24Z" fill="black"/>
<path fill-rule="evenodd" clip-rule="evenodd" d="M7.52571 5.64935C7.82052 5.83156 7.99997 6.15342 7.99997 6.5V13.5C7.99997 14.0523 7.55226 14.5 6.99997 14.5C6.44769 14.5 5.99997 14.0523 5.99997 13.5V8.11804L5.44719 8.39443C4.95321 8.64142 4.35254 8.44119 4.10555 7.94721C3.85856 7.45324 4.05878 6.85256 4.55276 6.60557L6.55276 5.60557C6.86275 5.45058 7.23089 5.46714 7.52571 5.64935Z" fill="black"/>
<path fill-rule="evenodd" clip-rule="evenodd" d="M6.81555 18.9824C6.71037 18.9746 6.60474 18.9891 6.50554 19.0249C6.40635 19.0607 6.31582 19.117 6.23986 19.1902C6.16391 19.2633 6.10424 19.3517 6.06474 19.4495C5.85793 19.9616 5.27514 20.209 4.76304 20.0022C4.25094 19.7954 4.00345 19.2126 4.21027 18.7005C4.35507 18.342 4.57386 18.018 4.85236 17.7497C5.13086 17.4815 5.4628 17.2749 5.82653 17.1437C6.19025 17.0124 6.57757 16.9593 6.9632 16.9878C7.34884 17.0164 7.72412 17.1259 8.06454 17.3093C8.40496 17.4928 8.70288 17.7459 8.93884 18.0522C9.1748 18.3586 9.3435 18.7113 9.43393 19.0872C9.52435 19.4632 9.53447 19.854 9.46362 20.2342C9.39278 20.6143 9.24256 20.9752 9.02277 21.2934C9.01556 21.3038 9.00816 21.3141 9.00057 21.3242L6.99767 24H8.50001C9.05229 24 9.50001 24.4477 9.50001 25C9.50001 25.5523 9.05229 26 8.50001 26H5.00001C4.6214 26 4.27526 25.7862 4.10579 25.4476C3.93631 25.1091 3.97257 24.7038 4.19944 24.4007L7.38567 20.1441C7.44104 20.0605 7.47908 19.9665 7.49748 19.8677C7.5168 19.7641 7.51404 19.6575 7.48938 19.5549C7.46472 19.4524 7.41871 19.3562 7.35436 19.2727C7.29 19.1891 7.20875 19.1201 7.11591 19.0701C7.02306 19.02 6.92071 18.9901 6.81555 18.9824Z" fill="black"/>
</svg>
