<svg xmlns="http://www.w3.org/2000/svg" width="32" height="32" fill="none" viewBox="0 0 32 32"><path fill="#000" fill-rule="evenodd" d="M27 15C27.5523 15 28 15.4477 28 16V22C28 22.5523 27.5523 23 27 23C26.4477 23 26 22.5523 26 22V16C26 15.4477 26.4477 15 27 15Z" clip-rule="evenodd"/><path fill="#000" fill-rule="evenodd" d="M23 19C23 18.4477 23.4477 18 24 18H30C30.5523 18 31 18.4477 31 19C31 19.5523 30.5523 20 30 20H24C23.4477 20 23 19.5523 23 19Z" clip-rule="evenodd"/><path fill="#000" fill-rule="evenodd" d="M10.5 4C11.0523 4 11.5 4.44772 11.5 5V10C11.5 10.5523 11.0523 11 10.5 11C9.94772 11 9.5 10.5523 9.5 10V5C9.5 4.44772 9.94772 4 10.5 4Z" clip-rule="evenodd"/><path fill="#000" fill-rule="evenodd" d="M7 7.5C7 6.94772 7.44772 6.5 8 6.5H13C13.5523 6.5 14 6.94772 14 7.5C14 8.05228 13.5523 8.5 13 8.5H8C7.44772 8.5 7 8.05228 7 7.5Z" clip-rule="evenodd"/><path fill="#000" fill-rule="evenodd" d="M21 22C21.5523 22 22 22.4477 22 23V27C22 27.5523 21.5523 28 21 28C20.4477 28 20 27.5523 20 27V23C20 22.4477 20.4477 22 21 22Z" clip-rule="evenodd"/><path fill="#000" fill-rule="evenodd" d="M18 25C18 24.4477 18.4477 24 19 24H23C23.5523 24 24 24.4477 24 25C24 25.5523 23.5523 26 23 26H19C18.4477 26 18 25.5523 18 25Z" clip-rule="evenodd"/><path fill="#000" fill-rule="evenodd" d="M4.00812 25.4134C3.22707 24.6323 3.22707 23.366 4.00812 22.5849L22.5962 3.99686C23.3772 3.21581 24.6436 3.21581 25.4246 3.99686L28.01 6.58222C28.791 7.36327 28.791 8.6296 28.01 9.41065L9.4219 27.9987C8.64085 28.7798 7.37452 28.7798 6.59347 27.9987L4.00812 25.4134ZM24.0104 5.41108L5.42233 23.9991L8.00769 26.5845L26.5958 7.99643L24.0104 5.41108Z" clip-rule="evenodd"/><path fill="#000" fill-rule="evenodd" d="M17.2929 9.29289C17.6834 8.90237 18.3166 8.90237 18.7071 9.29289L22.7071 13.2929C23.0976 13.6834 23.0976 14.3166 22.7071 14.7071C22.3166 15.0976 21.6834 15.0976 21.2929 14.7071L17.2929 10.7071C16.9024 10.3166 16.9024 9.68342 17.2929 9.29289Z" clip-rule="evenodd"/></svg>