<svg width="32" height="32" viewBox="0 0 32 32" fill="none" xmlns="http://www.w3.org/2000/svg">
<path fill-rule="evenodd" clip-rule="evenodd" d="M13.8458 3.82561C15.1888 3.27305 16.6278 2.99185 18.0799 2.99824C19.5321 3.00464 20.9685 3.29849 22.3065 3.86285C23.6444 4.42715 24.8573 5.25074 25.8753 6.2861C30.1344 10.6142 29.9962 17.593 25.7196 21.8696L25.7132 21.8761L17.4037 30.0352C17.0248 30.3977 16.5192 30.5979 15.9949 30.5932C15.4705 30.5886 14.9686 30.3794 14.5961 30.0103L14.5929 30.0071L10.9958 26.41C10.6259 26.0299 10.421 25.5191 10.4256 24.9887C10.4303 24.4583 10.6442 23.9511 11.0207 23.5776L11.0292 23.5692L19.398 15.4628C20.2186 14.6367 20.2043 13.3118 19.4213 12.5601C19.0424 12.1986 18.5375 11.9989 18.0138 12.0036C17.4924 12.0082 16.9933 12.2151 16.6215 12.5803L8.42246 20.9793C8.04889 21.3559 7.54175 21.5697 7.01134 21.5744C6.48094 21.579 5.97014 21.3741 5.59002 21.0041L5.58033 20.9947L1.99203 17.4063C1.61801 17.0313 1.40796 16.5234 1.40796 15.9938C1.40796 15.4651 1.61727 14.958 1.99006 14.5832C1.99072 14.5826 1.99138 14.5819 1.99203 14.5813L10.2556 6.21768C11.2827 5.19116 12.5029 4.37818 13.8458 3.82561ZM18.0711 4.99823C16.883 4.993 15.7056 5.22307 14.6069 5.67516C13.5091 6.12686 12.5115 6.79127 11.6716 7.63012L3.40797 15.9938L6.98599 19.5718C6.9882 19.5735 6.99095 19.5745 6.9938 19.5744C6.99682 19.5744 6.99972 19.5733 7.00198 19.5713L15.1969 11.1765L15.209 11.1643C15.9515 10.4294 16.9513 10.013 17.996 10.0036C19.0406 9.99432 20.0477 10.3928 20.8032 11.1144L20.8046 11.1157C22.4441 12.6876 22.3811 15.3081 20.8071 16.8821L20.7958 16.8933L12.4285 24.9983C12.4266 25.0005 12.4256 25.0033 12.4256 25.0062C12.4255 25.009 12.4265 25.0118 12.4282 25.014L16.0039 28.5897C16.0038 28.5896 16.004 28.5898 16.0039 28.5897C16.0061 28.5918 16.0095 28.5933 16.0126 28.5933C16.0154 28.5933 16.0181 28.5924 16.0203 28.5907L24.3085 20.4523C27.8288 16.9286 27.9145 11.2098 24.4497 7.68892C23.6168 6.84167 22.624 6.16738 21.5293 5.70563C20.4345 5.24388 19.2592 5.00345 18.0711 4.99823Z" fill="black"/>
<path fill-rule="evenodd" clip-rule="evenodd" d="M15.1429 19.5929C15.5334 19.2024 16.1666 19.2024 16.5571 19.5929L21.5321 24.5679C21.9226 24.9584 21.9226 25.5916 21.5321 25.9821C21.1416 26.3726 20.5084 26.3726 20.1179 25.9821L15.1429 21.0071C14.7524 20.6166 14.7524 19.9834 15.1429 19.5929Z" fill="black"/>
<path fill-rule="evenodd" clip-rule="evenodd" d="M6.04378 10.492C6.4348 10.102 7.06796 10.1028 7.458 10.4938L12.4205 15.4688C12.8105 15.8598 12.8097 16.493 12.4187 16.883C12.0277 17.273 11.3945 17.2722 11.0045 16.8812L6.042 11.9062C5.65197 11.5152 5.65277 10.882 6.04378 10.492Z" fill="black"/>
</svg>
