<svg xmlns="http://www.w3.org/2000/svg" width="32" height="32" fill="none" viewBox="0 0 32 32"><path fill="#000" fill-rule="evenodd" d="M12.9701 4.75746C13.1041 5.29326 12.7783 5.83619 12.2425 5.97014L5 7.78078V23.7192L11.7575 22.0299C12.2933 21.8959 12.8362 22.2217 12.9701 22.7575C13.1041 23.2933 12.7783 23.8362 12.2425 23.9701L4.24254 25.9701C3.94379 26.0448 3.6273 25.9777 3.38459 25.7882C3.14187 25.5987 3 25.3079 3 25V7C3 6.54113 3.3123 6.14115 3.75746 6.02986L11.7575 4.02986C12.2933 3.89591 12.8362 4.22167 12.9701 4.75746Z" clip-rule="evenodd"/><path fill="#000" fill-rule="evenodd" d="M11.4743 4.14935C11.7691 3.96714 12.1372 3.95058 12.4472 4.10557L20.4472 8.10557C20.786 8.27496 21 8.62123 21 9V27C21 27.3466 20.8205 27.6684 20.5257 27.8507C20.2309 28.0329 19.8628 28.0494 19.5528 27.8944L11.5528 23.8944C11.214 23.725 11 23.3788 11 23V5C11 4.65342 11.1795 4.33156 11.4743 4.14935ZM13 6.61803V22.382L19 25.382V9.61803L13 6.61803Z" clip-rule="evenodd"/><path fill="#000" fill-rule="evenodd" d="M28.6154 6.21179C28.8581 6.4013 29 6.69206 29 7V25C29 25.4589 28.6877 25.8589 28.2425 25.9701L20.2425 27.9701C19.7067 28.1041 19.1638 27.7783 19.0298 27.2425C18.8959 26.7067 19.2217 26.1638 19.7575 26.0299L27 24.2192V8.28078L20.2425 9.97014C19.7067 10.1041 19.1638 9.77833 19.0298 9.24254C18.8959 8.70674 19.2217 8.16381 19.7575 8.02986L27.7575 6.02986C28.0562 5.95517 28.3727 6.02229 28.6154 6.21179Z" clip-rule="evenodd"/></svg>