<svg xmlns="http://www.w3.org/2000/svg" width="32" height="32" fill="none" viewBox="0 0 32 32"><path fill="#000" fill-rule="evenodd" d="M16 5C9.92487 5 5 9.92487 5 16C5 22.0751 9.92487 27 16 27C22.0751 27 27 22.0751 27 16C27 9.92487 22.0751 5 16 5ZM3 16C3 8.8203 8.8203 3 16 3C23.1797 3 29 8.8203 29 16C29 23.1797 23.1797 29 16 29C8.8203 29 3 23.1797 3 16Z" clip-rule="evenodd"/><path fill="#000" fill-rule="evenodd" d="M9.58579 20.5858C9.96086 20.2107 10.4696 20 11 20H21C21.5304 20 22.0391 20.2107 22.4142 20.5858C22.7893 20.9609 23 21.4696 23 22V26.4C23 26.9523 22.5523 27.4 22 27.4C21.4477 27.4 21 26.9523 21 26.4V22L11 22L11 26.4C11 26.9523 10.5523 27.4 10 27.4C9.44772 27.4 9 26.9523 9 26.4V22C9 21.4696 9.21071 20.9609 9.58579 20.5858Z" clip-rule="evenodd"/><path fill="#000" fill-rule="evenodd" d="M11.5858 16.5858C11.9609 16.2107 12.4696 16 13 16H19C19.5304 16 20.0391 16.2107 20.4142 16.5858C20.7893 16.9609 21 17.4696 21 18V21C21 21.5523 20.5523 22 20 22C19.4477 22 19 21.5523 19 21V18L13 18L13 21C13 21.5523 12.5523 22 12 22C11.4477 22 11 21.5523 11 21V18C11 17.4696 11.2107 16.9609 11.5858 16.5858Z" clip-rule="evenodd"/><path fill="#000" fill-rule="evenodd" d="M17.9547 9.59943L19.454 16.796C19.5666 17.3367 19.2196 17.8663 18.679 17.979C18.1383 18.0916 17.6087 17.7446 17.496 17.204L16 10.0231L14.504 17.204C14.3913 17.7446 13.8617 18.0916 13.321 17.979C12.7804 17.8663 12.4334 17.3367 12.546 16.796L14.0453 9.59943C14.4752 7.47103 17.5248 7.47103 17.9547 9.59943Z" clip-rule="evenodd"/></svg>