<svg xmlns="http://www.w3.org/2000/svg" width="32" height="32" fill="none" viewBox="0 0 32 32"><path fill="#000" fill-rule="evenodd" d="M17.5964 14.2542C18.0083 13.8863 18.6404 13.922 19.0083 14.3339C19.1959 14.5439 19.4258 14.712 19.6829 14.8271C19.9399 14.9421 20.2184 15.0016 20.5 15.0016C20.7816 15.0016 21.0601 14.9421 21.3172 14.8271C21.5742 14.712 21.8041 14.5439 21.9917 14.3339C22.3596 13.922 22.9917 13.8863 23.4036 14.2542C23.8156 14.6221 23.8512 15.2542 23.4833 15.6661C23.1081 16.0862 22.6484 16.4224 22.1343 16.6525C21.6202 16.8826 21.0633 17.0016 20.5 17.0016C19.9367 17.0016 19.3798 16.8826 18.8657 16.6525C18.3516 16.4224 17.8919 16.0862 17.5167 15.6661C17.1488 15.2542 17.1845 14.6221 17.5964 14.2542Z" clip-rule="evenodd"/><path fill="#000" fill-rule="evenodd" d="M8.59637 14.2542C9.00829 13.8863 9.64045 13.922 10.0083 14.3339C10.1959 14.5439 10.4258 14.712 10.6829 14.8271C10.9399 14.9421 11.2184 15.0016 11.5 15.0016C11.7816 15.0016 12.0601 14.9421 12.3172 14.8271C12.5742 14.712 12.8041 14.5439 12.9917 14.3339C13.3596 13.922 13.9917 13.8863 14.4036 14.2542C14.8156 14.6221 14.8512 15.2542 14.4833 15.6661C14.1081 16.0862 13.6484 16.4224 13.1343 16.6525C12.6202 16.8826 12.0633 17.0016 11.5 17.0016C10.9367 17.0016 10.3798 16.8826 9.86571 16.6525C9.3516 16.4224 8.89189 16.0862 8.51667 15.6661C8.14878 15.2542 8.18446 14.6221 8.59637 14.2542Z" clip-rule="evenodd"/><path fill="#000" fill-rule="evenodd" d="M12.1343 22.167C13.2799 21.4061 14.6247 21.0002 16 21.0002C17.3753 21.0002 18.7201 21.4061 19.8657 22.167C20.3258 22.4725 20.4511 23.0932 20.1455 23.5532C19.84 24.0133 19.2193 24.1386 18.7593 23.833C17.9415 23.2899 16.9817 23.0002 16 23.0002C15.0183 23.0002 14.0585 23.2899 13.2407 23.833C12.7807 24.1386 12.16 24.0133 11.8545 23.5532C11.5489 23.0932 11.6742 22.4725 12.1343 22.167Z" clip-rule="evenodd"/><path fill="#000" fill-rule="evenodd" d="M6.7298 4.18236C8.56516 4.8866 12.0673 6.00001 16 6.00001C19.9327 6.00001 23.4349 4.8866 25.2702 4.18236C25.5704 4.06148 25.8957 4.01571 26.2177 4.04913C26.5443 4.08302 26.8573 4.19726 27.1289 4.38166C27.4005 4.56605 27.6222 4.81485 27.7742 5.10583C27.9251 5.39475 28.0027 5.71634 28 6.04223V13C28 17.595 26.7214 21.7983 24.6022 24.8806C22.486 27.9585 19.4616 30 16 30C12.5384 30 9.51401 27.9585 7.39785 24.8806C5.27866 21.7983 4.00001 17.595 4.00001 13V6.04233C3.99733 5.7164 4.07485 5.39479 4.22579 5.10583C4.37778 4.81485 4.59948 4.56605 4.87109 4.38166C5.14269 4.19726 5.45574 4.08302 5.78227 4.04913C6.10432 4.01571 6.42959 4.06148 6.7298 4.18236ZM6.00001 6.04446V13C6.00001 17.2426 7.18385 21.0392 9.04591 23.7475C10.911 26.4603 13.3866 28 16 28C18.6134 28 21.089 26.4603 22.9541 23.7475C24.8162 21.0392 26 17.2426 26 13V6.04446L25.9961 6.04602C24.054 6.79197 20.2861 8.00001 16 8.00001C11.7139 8.00001 7.94597 6.79197 6.00394 6.04602L6.00001 6.04446Z" clip-rule="evenodd"/></svg>