<svg xmlns="http://www.w3.org/2000/svg" width="32" height="32" fill="none" viewBox="0 0 32 32"><path fill="#000" fill-rule="evenodd" d="M20.5 15.9984C20.2184 15.9984 19.9399 16.0579 19.6829 16.173C19.4258 16.288 19.1959 16.4561 19.0083 16.6661C18.6404 17.0781 18.0083 17.1137 17.5964 16.7458C17.1845 16.378 17.1488 15.7458 17.5167 15.3339C17.8919 14.9138 18.3516 14.5777 18.8657 14.3475C19.3798 14.1174 19.9367 13.9984 20.5 13.9984C21.0633 13.9984 21.6202 14.1174 22.1343 14.3475C22.6484 14.5777 23.1081 14.9138 23.4833 15.3339C23.8512 15.7458 23.8156 16.378 23.4036 16.7458C22.9917 17.1137 22.3596 17.0781 21.9917 16.6661C21.8041 16.4561 21.5742 16.288 21.3172 16.173C21.0601 16.0579 20.7816 15.9984 20.5 15.9984Z" clip-rule="evenodd"/><path fill="#000" fill-rule="evenodd" d="M11.5 15.9984C11.2184 15.9984 10.9399 16.0579 10.6828 16.173C10.4258 16.288 10.1959 16.4561 10.0083 16.6661C9.64044 17.0781 9.00828 17.1137 8.59637 16.7458C8.18445 16.378 8.14877 15.7458 8.51667 15.3339C8.89188 14.9138 9.35159 14.5777 9.8657 14.3475C10.3798 14.1174 10.9367 13.9984 11.5 13.9984C12.0633 13.9984 12.6202 14.1174 13.1343 14.3475C13.6484 14.5777 14.1081 14.9138 14.4833 15.3339C14.8512 15.7458 14.8155 16.378 14.4036 16.7458C13.9917 17.1137 13.3596 17.0781 12.9917 16.6661C12.8041 16.4561 12.5742 16.288 12.3171 16.173C12.0601 16.0579 11.7816 15.9984 11.5 15.9984Z" clip-rule="evenodd"/><path fill="#000" fill-rule="evenodd" d="M11.8545 21.4467C12.16 20.9867 12.7807 20.8614 13.2407 21.167C14.0585 21.7101 15.0183 21.9998 16 21.9998C16.9817 21.9998 17.9415 21.7101 18.7593 21.167C19.2193 20.8614 19.84 20.9867 20.1455 21.4467C20.4511 21.9068 20.3258 22.5275 19.8657 22.833C18.7201 23.5939 17.3753 23.9998 16 23.9998C14.6247 23.9998 13.2799 23.5939 12.1343 22.833C11.6742 22.5275 11.5489 21.9068 11.8545 21.4467Z" clip-rule="evenodd"/><path fill="#000" fill-rule="evenodd" d="M6.7298 4.18236C8.56516 4.8866 12.0673 6.00001 16 6.00001C19.9327 6.00001 23.4348 4.8866 25.2702 4.18236C25.5704 4.06148 25.8957 4.01571 26.2177 4.04913C26.5443 4.08302 26.8573 4.19726 27.1289 4.38166C27.4005 4.56605 27.6222 4.81485 27.7742 5.10583C27.9251 5.39475 28.0027 5.71634 28 6.04223V13C28 17.595 26.7213 21.7983 24.6022 24.8806C22.486 27.9585 19.4616 30 16 30C12.5384 30 9.514 27.9585 7.39784 24.8806C5.27865 21.7983 4 17.595 4 13V6.04233C3.99732 5.7164 4.07484 5.39479 4.22578 5.10583C4.37777 4.81485 4.59947 4.56605 4.87108 4.38166C5.14268 4.19726 5.45573 4.08302 5.78226 4.04913C6.10431 4.01571 6.42958 4.06148 6.7298 4.18236ZM6 6.04446V13C6 17.2426 7.18384 21.0392 9.0459 23.7475C10.911 26.4603 13.3866 28 16 28C18.6134 28 21.089 26.4603 22.9541 23.7475C24.8162 21.0392 26 17.2426 26 13V6.04446L25.9961 6.04602C24.054 6.79197 20.2861 8.00001 16 8.00001C11.7139 8.00001 7.94597 6.79197 6.00393 6.04602L6 6.04446Z" clip-rule="evenodd"/></svg>