<svg width="32" height="32" viewBox="0 0 32 32" fill="none" xmlns="http://www.w3.org/2000/svg">
<path fill-rule="evenodd" clip-rule="evenodd" d="M4 23C4 22.4477 4.44772 22 5 22H13C13.5523 22 14 22.4477 14 23C14 23.5523 13.5523 24 13 24H5C4.44772 24 4 23.5523 4 23Z" fill="black"/>
<path fill-rule="evenodd" clip-rule="evenodd" d="M9 18C9.55228 18 10 18.4477 10 19V27C10 27.5523 9.55228 28 9 28C8.44772 28 8 27.5523 8 27V19C8 18.4477 8.44772 18 9 18Z" fill="black"/>
<path fill-rule="evenodd" clip-rule="evenodd" d="M4 9C4 8.44772 4.44772 8 5 8H13C13.5523 8 14 8.44772 14 9C14 9.55228 13.5523 10 13 10H5C4.44772 10 4 9.55228 4 9Z" fill="black"/>
<path fill-rule="evenodd" clip-rule="evenodd" d="M18 21.0125C18 20.4602 18.4477 20.0125 19 20.0125H27C27.5523 20.0125 28 20.4602 28 21.0125C28 21.5648 27.5523 22.0125 27 22.0125H19C18.4477 22.0125 18 21.5648 18 21.0125Z" fill="black"/>
<path fill-rule="evenodd" clip-rule="evenodd" d="M18 24.9875C18 24.4352 18.4477 23.9875 19 23.9875H27C27.5523 23.9875 28 24.4352 28 24.9875C28 25.5398 27.5523 25.9875 27 25.9875H19C18.4477 25.9875 18 25.5398 18 24.9875Z" fill="black"/>
<path fill-rule="evenodd" clip-rule="evenodd" d="M26.7071 5.29289C27.0976 5.68342 27.0976 6.31658 26.7071 6.70711L20.7071 12.7071C20.3166 13.0976 19.6834 13.0976 19.2929 12.7071C18.9024 12.3166 18.9024 11.6834 19.2929 11.2929L25.2929 5.29289C25.6834 4.90237 26.3166 4.90237 26.7071 5.29289Z" fill="black"/>
<path fill-rule="evenodd" clip-rule="evenodd" d="M19.2929 5.29289C19.6834 4.90237 20.3166 4.90237 20.7071 5.29289L26.7071 11.2929C27.0976 11.6834 27.0976 12.3166 26.7071 12.7071C26.3166 13.0976 25.6834 13.0976 25.2929 12.7071L19.2929 6.70711C18.9024 6.31658 18.9024 5.68342 19.2929 5.29289Z" fill="black"/>
</svg>
