<svg width="32" height="32" viewBox="0 0 32 32" fill="none" xmlns="http://www.w3.org/2000/svg">
<path fill-rule="evenodd" clip-rule="evenodd" d="M16.6744 5.04682C14.0032 4.87941 11.3627 5.69279 9.24862 7.33426C7.13458 8.97573 5.69238 11.3324 5.19278 13.9618C4.69318 16.5913 5.17053 19.3127 6.53522 21.6151C6.67497 21.8509 6.71182 22.1337 6.63715 22.3974L5.46594 26.534L9.60255 25.3628L9.87497 26.325L10.3849 25.4648C12.6873 26.8294 15.4087 27.3068 18.0381 26.8072C20.6676 26.3076 23.0242 24.8654 24.6657 22.7514C26.3072 20.6373 27.1206 17.9968 26.9532 15.3256C26.7857 12.6543 25.6491 10.136 23.7565 8.24347C21.8639 6.35091 19.3456 5.21423 16.6744 5.04682ZM9.74409 27.4014C12.3826 28.8478 15.4465 29.3354 18.4115 28.772C21.5195 28.1815 24.3052 26.4768 26.2454 23.9779C28.1857 21.4791 29.1471 18.358 28.9492 15.2005C28.7514 12.043 27.4078 9.06631 25.1707 6.82926C22.9337 4.5922 19.957 3.24862 16.7995 3.05074C13.642 2.85286 10.5209 3.81429 8.02203 5.75455C5.52319 7.69481 3.81847 10.4804 3.22793 13.5885C2.66458 16.5535 3.15213 19.6174 4.59861 22.2559L3.53877 25.9992C3.44004 26.3399 3.43433 26.701 3.52227 27.0447C3.61062 27.3902 3.79028 27.7055 4.04239 27.9576C4.29451 28.2097 4.60981 28.3893 4.95523 28.4777C5.29902 28.5656 5.66007 28.5599 6.00087 28.4612L9.74409 27.4014Z" fill="black"/>
<path fill-rule="evenodd" clip-rule="evenodd" d="M13.2929 13.2929C13.6834 12.9024 14.3166 12.9024 14.7071 13.2929L18 16.5858L21.2929 13.2929C21.6834 12.9024 22.3166 12.9024 22.7071 13.2929C23.0976 13.6834 23.0976 14.3166 22.7071 14.7071L18.7071 18.7071C18.3166 19.0976 17.6834 19.0976 17.2929 18.7071L14 15.4142L10.7071 18.7071C10.3166 19.0976 9.68342 19.0976 9.29289 18.7071C8.90237 18.3166 8.90237 17.6834 9.29289 17.2929L13.2929 13.2929Z" fill="black"/>
</svg>
