<svg width="32" height="32" viewBox="0 0 32 32" fill="none" xmlns="http://www.w3.org/2000/svg">
<path fill-rule="evenodd" clip-rule="evenodd" d="M16 4C13.7909 4 12 5.79086 12 8V16C12 18.2091 13.7909 20 16 20C18.2091 20 20 18.2091 20 16V8C20 5.79086 18.2091 4 16 4ZM10 8C10 4.68629 12.6863 2 16 2C19.3137 2 22 4.68629 22 8V16C22 19.3137 19.3137 22 16 22C12.6863 22 10 19.3137 10 16V8Z" fill="black"/>
<path fill-rule="evenodd" clip-rule="evenodd" d="M16 24C16.5523 24 17 24.4477 17 25V29C17 29.5523 16.5523 30 16 30C15.4477 30 15 29.5523 15 29V25C15 24.4477 15.4477 24 16 24Z" fill="black"/>
<path fill-rule="evenodd" clip-rule="evenodd" d="M6.93246 16.0069C7.48091 15.942 7.97816 16.334 8.04309 16.8824C8.27374 18.8307 9.21121 20.6267 10.6778 21.9299C12.1444 23.2331 14.0381 23.9529 16 23.9529C17.9619 23.9529 19.8557 23.2331 21.3223 21.9299C22.7888 20.6267 23.7263 18.8307 23.957 16.8824C24.0219 16.334 24.5191 15.942 25.0676 16.0069C25.616 16.0718 26.008 16.5691 25.9431 17.1175C25.6549 19.5522 24.4834 21.7965 22.6507 23.4249C20.8181 25.0534 18.4517 25.9529 16 25.9529C13.5484 25.9529 11.1819 25.0534 9.3493 23.4249C7.51666 21.7965 6.34519 19.5522 6.05696 17.1175C5.99203 16.5691 6.384 16.0718 6.93246 16.0069Z" fill="black"/>
</svg>
