<svg width="32" height="32" viewBox="0 0 32 32" fill="none" xmlns="http://www.w3.org/2000/svg">
<path fill-rule="evenodd" clip-rule="evenodd" d="M21 4C17.134 4 14 7.13401 14 11C14 14.866 17.134 18 21 18C24.866 18 28 14.866 28 11C28 7.13401 24.866 4 21 4ZM12 11C12 6.02944 16.0294 2 21 2C25.9706 2 30 6.02944 30 11C30 15.9706 25.9706 20 21 20C16.0294 20 12 15.9706 12 11Z" fill="black"/>
<path fill-rule="evenodd" clip-rule="evenodd" d="M14.6304 4.63042C15.0209 4.23989 15.6541 4.23989 16.0446 4.63042L27.3696 15.9554C27.7602 16.3459 27.7602 16.9791 27.3696 17.3696C26.9791 17.7602 26.3459 17.7602 25.9554 17.3696L14.6304 6.04463C14.2399 5.65411 14.2399 5.02094 14.6304 4.63042Z" fill="black"/>
<path fill-rule="evenodd" clip-rule="evenodd" d="M13.2071 18.7929C13.5976 19.1834 13.5976 19.8166 13.2071 20.2071L11.7071 21.7071C11.3166 22.0976 10.6834 22.0976 10.2929 21.7071C9.90237 21.3166 9.90237 20.6834 10.2929 20.2929L11.7929 18.7929C12.1834 18.4024 12.8166 18.4024 13.2071 18.7929Z" fill="black"/>
<path fill-rule="evenodd" clip-rule="evenodd" d="M13.6913 11.4311C14.1367 11.7576 14.233 12.3834 13.9064 12.8288L4.31891 25.9038L4.31964 25.9053L6.09559 27.6814L19.1711 18.0936C19.6165 17.767 20.2423 17.8633 20.5689 18.3087C20.8955 18.754 20.7992 19.3798 20.3538 19.7064L7.28265 29.2911C6.89747 29.5784 6.42118 29.7165 5.94193 29.6796C5.46283 29.6427 5.01337 29.4336 4.6767 29.0909L2.90898 27.3232C2.56638 26.9865 2.35722 26.5371 2.32037 26.058C2.28351 25.5788 2.42158 25.1025 2.70888 24.7173L12.2935 11.6462C12.6201 11.2008 13.2459 11.1045 13.6913 11.4311Z" fill="black"/>
</svg>
