<svg width="32" height="32" viewBox="0 0 32 32" fill="none" xmlns="http://www.w3.org/2000/svg">
<path fill-rule="evenodd" clip-rule="evenodd" d="M18 12C18 11.4477 18.4477 11 19 11H26C26.5523 11 27 11.4477 27 12C27 12.5523 26.5523 13 26 13H19C18.4477 13 18 12.5523 18 12Z" fill="black"/>
<path fill-rule="evenodd" clip-rule="evenodd" d="M18 20C18 19.4477 18.4477 19 19 19H26C26.5523 19 27 19.4477 27 20C27 20.5523 26.5523 21 26 21H19C18.4477 21 18 20.5523 18 20Z" fill="black"/>
<path fill-rule="evenodd" clip-rule="evenodd" d="M7.58579 3.58579C7.96086 3.21071 8.46957 3 9 3H25C25.5304 3 26.0391 3.21071 26.4142 3.58579C26.7893 3.96086 27 4.46957 27 5V27C27 27.5304 26.7893 28.0391 26.4142 28.4142C26.0391 28.7893 25.5304 29 25 29H9C8.46957 29 7.96086 28.7893 7.58579 28.4142C7.21071 28.0391 7 27.5304 7 27V23C7 22.4477 7.44772 22 8 22C8.55228 22 9 22.4477 9 23V27H25V5L9 5L9 9C9 9.55228 8.55228 10 8 10C7.44772 10 7 9.55228 7 9V5C7 4.46957 7.21071 3.96086 7.58579 3.58579Z" fill="black"/>
<path fill-rule="evenodd" clip-rule="evenodd" d="M7.75746 12.0299C8.29325 11.8959 8.83619 12.2217 8.97013 12.7575L9.76574 15.9399L10.5862 14.0939C10.7467 13.7327 11.1048 13.5 11.5 13.5C11.8952 13.5 12.2533 13.7327 12.4138 14.0939L13.2343 15.9399L14.0299 12.7575C14.1638 12.2217 14.7067 11.8959 15.2425 12.0299C15.7783 12.1638 16.1041 12.7067 15.9701 13.2425L14.4701 19.2425C14.3666 19.6566 14.0117 19.9593 13.5865 19.9963C13.1613 20.0332 12.7595 19.7962 12.5862 19.4061L11.5 16.9622L10.4138 19.4061C10.2405 19.7962 9.83869 20.0332 9.41348 19.9963C8.98827 19.9593 8.63337 19.6566 8.52985 19.2425L7.02985 13.2425C6.8959 12.7067 7.22166 12.1638 7.75746 12.0299Z" fill="black"/>
<path fill-rule="evenodd" clip-rule="evenodd" d="M3 10C3 8.89543 3.89543 8 5 8H18C19.1046 8 20 8.89543 20 10V22C20 23.1046 19.1046 24 18 24H5C3.89543 24 3 23.1046 3 22V10ZM18 10H5V22H18V10Z" fill="black"/>
</svg>
