<svg xmlns="http://www.w3.org/2000/svg" width="32" height="32" fill="none" viewBox="0 0 32 32"><path fill="#000" fill-rule="evenodd" d="M3 10C3 8.89543 3.89543 8 5 8H18C19.1046 8 20 8.89543 20 10V22C20 23.1046 19.1046 24 18 24H5C3.89543 24 3 23.1046 3 22V10ZM18 10H5V22H18V10Z" clip-rule="evenodd"/><path fill="#000" fill-rule="evenodd" d="M18 11C18 10.4477 18.4477 10 19 10H23C23.5304 10 24.0391 10.2107 24.4142 10.5858C24.7893 10.9609 25 11.4696 25 12V21C25 23.1217 24.1571 25.1566 22.6568 26.6569C21.1566 28.1571 19.1217 29 17 29V28L16.9993 29C15.2766 28.9988 13.6001 28.4424 12.2186 27.4133C10.837 26.3842 9.82395 24.9372 9.32956 23.287C9.17106 22.7579 9.47145 22.2006 10.0005 22.0421C10.5296 21.8836 11.0869 22.184 11.2454 22.713C11.6164 23.9513 12.3766 25.0371 13.4133 25.8093C14.45 26.5815 15.708 26.9991 17.0007 27M17.0007 27C18.5918 26.9998 20.1176 26.3677 21.2426 25.2426C22.3679 24.1174 23 22.5913 23 21L23 12L19 12C18.4477 12 18 11.5523 18 11" clip-rule="evenodd"/><path fill="#000" fill-rule="evenodd" d="M8.25 13C8.25 12.4477 8.69772 12 9.25 12H13.75C14.3023 12 14.75 12.4477 14.75 13C14.75 13.5523 14.3023 14 13.75 14H9.25C8.69772 14 8.25 13.5523 8.25 13Z" clip-rule="evenodd"/><path fill="#000" fill-rule="evenodd" d="M11.5 12C12.0523 12 12.5 12.4477 12.5 13V19C12.5 19.5523 12.0523 20 11.5 20C10.9477 20 10.5 19.5523 10.5 19V13C10.5 12.4477 10.9477 12 11.5 12Z" clip-rule="evenodd"/><path fill="#000" fill-rule="evenodd" d="M17.7764 4.10018C17.2031 3.9467 16.5972 3.96668 16.0354 4.15759C15.4735 4.34851 14.9808 4.70178 14.6197 5.17271C14.2587 5.64365 14.0454 6.2111 14.0068 6.80328C13.9683 7.39546 14.1062 7.98576 14.4032 8.49953C14.6796 8.97767 14.5161 9.58935 14.038 9.86575C13.5598 10.1422 12.9481 9.97862 12.6717 9.50048C12.1767 8.6442 11.9468 7.66036 12.011 6.67339C12.0753 5.68642 12.4308 4.74068 13.0326 3.95578C13.6344 3.17089 14.4555 2.58211 15.3919 2.26392C16.3284 1.94573 17.3382 1.91243 18.2936 2.16822C19.249 2.42401 20.1071 2.95742 20.7593 3.70095C21.4115 4.44449 21.8286 5.36475 21.9577 6.34534C22.0868 7.32593 21.9222 8.32279 21.4847 9.20982C21.0472 10.0968 20.3565 10.8342 19.4999 11.3286C19.0215 11.6047 18.41 11.4407 18.1339 10.9624C17.8578 10.484 18.0218 9.87248 18.5001 9.5964C19.0141 9.29976 19.4285 8.85735 19.691 8.32514C19.9535 7.79292 20.0523 7.1948 19.9748 6.60645C19.8973 6.0181 19.6471 5.46594 19.2558 5.01981C18.8645 4.57369 18.3496 4.25365 17.7764 4.10018Z" clip-rule="evenodd"/><path fill="#000" fill-rule="evenodd" d="M24.1426 5.68444C23.6988 5.49136 23.2045 5.44652 22.7332 5.55659C22.2619 5.66665 21.8387 5.92575 21.5263 6.29542C21.1699 6.71727 20.5389 6.77028 20.1171 6.41382C19.6952 6.05736 19.6422 5.42642 19.9987 5.00457C20.5887 4.3063 21.3882 3.81689 22.2784 3.60899C23.1686 3.40109 24.1022 3.48578 24.9404 3.85049C25.7787 4.21519 26.4771 4.84048 26.9318 5.63353C27.3866 6.42658 27.5735 7.34513 27.4648 8.25283C27.3561 9.16052 26.9577 10.009 26.3286 10.6723C25.6995 11.3356 24.8733 11.7784 23.9726 11.9349C23.0719 12.0914 22.1448 11.9533 21.3288 11.5412C20.5128 11.129 19.8514 10.4647 19.4429 9.64688C19.1961 9.15281 19.3965 8.55221 19.8906 8.3054C20.3847 8.0586 20.9853 8.25905 21.2321 8.75312C21.4484 9.18608 21.7985 9.53776 22.2305 9.75597C22.6625 9.97417 23.1533 10.0473 23.6302 9.96441C24.107 9.88154 24.5444 9.64713 24.8774 9.29598C25.2105 8.94482 25.4214 8.49563 25.479 8.01509C25.5365 7.53454 25.4376 7.04825 25.1968 6.6284C24.9561 6.20855 24.5863 5.87752 24.1426 5.68444Z" clip-rule="evenodd"/><path fill="#000" fill-rule="evenodd" d="M23 11C23 10.4477 23.4477 10 24 10H27.4125C27.8336 10 28.2373 10.1673 28.5351 10.465C28.8328 10.7627 29 11.1665 29 11.5875V19C29 20.3261 28.4732 21.5979 27.5356 22.5355C26.5979 23.4732 25.3261 24 24 24H23.7125C23.1602 24 22.7125 23.5523 22.7125 23C22.7125 22.4477 23.1602 22 23.7125 22H24C24.7957 22 25.5587 21.6839 26.1213 21.1213C26.684 20.5587 27 19.7956 27 19V12H24C23.4477 12 23 11.5523 23 11Z" clip-rule="evenodd"/></svg>