<svg width="32" height="32" viewBox="0 0 32 32" fill="none" xmlns="http://www.w3.org/2000/svg">
<path fill-rule="evenodd" clip-rule="evenodd" d="M20.5 5C19.6716 5 19 5.67157 19 6.5C19 7.32843 19.6716 8 20.5 8C21.3284 8 22 7.32843 22 6.5C22 5.67157 21.3284 5 20.5 5ZM17 6.5C17 4.567 18.567 3 20.5 3C22.433 3 24 4.567 24 6.5C24 8.433 22.433 10 20.5 10C18.567 10 17 8.433 17 6.5Z" fill="black"/>
<path fill-rule="evenodd" clip-rule="evenodd" d="M11 9.98035C10.9979 9.98035 10.9958 9.98089 10.9939 9.98194C10.9926 9.98266 10.9915 9.9836 10.9905 9.98471L2.7482 24H19.2518L11.0095 9.98471C11.0085 9.9836 11.0074 9.98266 11.0061 9.98194C11.0042 9.98089 11.0021 9.98035 11 9.98035ZM10.018 8.23621C10.3181 8.06843 10.6562 7.98035 11 7.98035C11.3438 7.98035 11.6819 8.06843 11.982 8.23621C12.2821 8.40398 12.5343 8.64584 12.7144 8.93873L12.7245 8.95559L21.862 24.4931C22.0438 24.8023 22.0461 25.1852 21.868 25.4965C21.6899 25.8079 21.3587 26 21 26H1C0.641302 26 0.310079 25.8079 0.131977 25.4965C-0.0461256 25.1852 -0.0438225 24.8023 0.138012 24.4931L9.27551 8.95559L9.28565 8.93873C9.46574 8.64584 9.71786 8.40398 10.018 8.23621Z" fill="black"/>
<path fill-rule="evenodd" clip-rule="evenodd" d="M5.30005 16C5.30005 15.4477 5.74776 15 6.30005 15H15.7C16.2523 15 16.7 15.4477 16.7 16C16.7 16.5523 16.2523 17 15.7 17H6.30005C5.74776 17 5.30005 16.5523 5.30005 16Z" fill="black"/>
<path fill-rule="evenodd" clip-rule="evenodd" d="M23 13.4678C22.9979 13.4678 22.9958 13.4684 22.9939 13.4694C22.9925 13.4702 22.9913 13.4712 22.9903 13.4724L18.8732 20.434C18.5921 20.9094 17.9788 21.0669 17.5034 20.7857C17.0281 20.5046 16.8706 19.8913 17.1517 19.416L21.2767 12.441L21.2856 12.4262C21.4657 12.1333 21.7178 11.8915 22.018 11.7237C22.3181 11.5559 22.6562 11.4678 23 11.4678C23.3438 11.4678 23.6819 11.5559 23.982 11.7237C24.2821 11.8915 24.5342 12.1333 24.7143 12.4262L24.7229 12.4404L31.8604 24.4904C32.0435 24.7995 32.0467 25.183 31.8688 25.4952C31.6909 25.8073 31.3592 26 31 26H21C20.4477 26 20 25.5523 20 25C20 24.4477 20.4477 24 21 24H29.2454L23.0097 13.4724C23.0087 13.4712 23.0075 13.4702 23.0061 13.4694C23.0042 13.4684 23.0021 13.4678 23 13.4678Z" fill="black"/>
</svg>
