<svg width="32" height="32" viewBox="0 0 32 32" fill="none" xmlns="http://www.w3.org/2000/svg">
<path fill-rule="evenodd" clip-rule="evenodd" d="M25 3C25.5523 3 26 3.44772 26 4V10C26 10.5523 25.5523 11 25 11C24.4477 11 24 10.5523 24 10V4C24 3.44772 24.4477 3 25 3Z" fill="black"/>
<path fill-rule="evenodd" clip-rule="evenodd" d="M21 7C21 6.44772 21.4477 6 22 6H28C28.5523 6 29 6.44772 29 7C29 7.55228 28.5523 8 28 8H22C21.4477 8 21 7.55228 21 7Z" fill="black"/>
<path fill-rule="evenodd" clip-rule="evenodd" d="M22.5 19C21.1193 19 20 20.1193 20 21.5C20 22.8807 21.1193 24 22.5 24C23.8807 24 25 22.8807 25 21.5C25 20.1193 23.8807 19 22.5 19ZM18 21.5C18 19.0147 20.0147 17 22.5 17C24.9853 17 27 19.0147 27 21.5C27 23.9853 24.9853 26 22.5 26C20.0147 26 18 23.9853 18 21.5Z" fill="black"/>
<path fill-rule="evenodd" clip-rule="evenodd" d="M6.5 23C5.11929 23 4 24.1193 4 25.5C4 26.8807 5.11929 28 6.5 28C7.88071 28 9 26.8807 9 25.5C9 24.1193 7.88071 23 6.5 23ZM2 25.5C2 23.0147 4.01472 21 6.5 21C8.98528 21 11 23.0147 11 25.5C11 27.9853 8.98528 30 6.5 30C4.01472 30 2 27.9853 2 25.5Z" fill="black"/>
<path fill-rule="evenodd" clip-rule="evenodd" d="M26 13.9C26.5523 13.9 27 14.3477 27 14.9V21.5C27 22.0523 26.5523 22.5 26 22.5C25.4477 22.5 25 22.0523 25 21.5V14.9C25 14.3477 25.4477 13.9 26 13.9Z" fill="black"/>
<path fill-rule="evenodd" clip-rule="evenodd" d="M18.0327 5.99535C18.1665 6.5312 17.8405 7.074 17.3046 7.20772L11 8.78109V25.5C11 26.0523 10.5523 26.5 10 26.5C9.44772 26.5 9 26.0523 9 25.5V7.99998C9 7.54096 9.3125 7.14088 9.75787 7.02974L16.8204 5.26724C17.3562 5.13351 17.899 5.4595 18.0327 5.99535Z" fill="black"/>
<path fill-rule="evenodd" clip-rule="evenodd" d="M20.8576 11.2822C20.9917 11.8179 20.6661 12.361 20.1303 12.4951L10.2428 14.9701C9.70706 15.1042 9.16403 14.7786 9.02992 14.2428C8.89581 13.7071 9.22141 13.1641 9.75717 13.0299L19.6447 10.5549C20.1804 10.4208 20.7235 10.7464 20.8576 11.2822Z" fill="black"/>
</svg>
