<svg xmlns="http://www.w3.org/2000/svg" width="32" height="32" fill="none" viewBox="0 0 32 32"><path fill="#000" fill-rule="evenodd" d="M6.27894 3.73065C6.27981 3.73095 6.28069 3.73126 6.28156 3.73157L27.4365 11.0539C27.437 11.0541 27.4375 11.0543 27.438 11.0545C29.2852 11.6885 29.1985 14.2872 27.3718 14.8549L27.3698 14.8556L17.8073 17.8056C17.8054 17.8061 17.8036 17.8067 17.8017 17.8073L14.8557 27.3694L14.8549 27.3718C14.2872 29.1985 11.6885 29.2852 11.0545 27.438C11.0543 27.4375 11.0541 27.437 11.0539 27.4365L3.73156 6.28157C3.73125 6.28069 3.73095 6.27982 3.73064 6.27894C3.60647 5.92407 3.58484 5.54136 3.66826 5.17472C3.75189 4.80718 3.93768 4.47075 4.20421 4.20422C4.47074 3.93768 4.80717 3.7519 5.17471 3.66827C5.54135 3.58485 5.92406 3.60648 6.27894 3.73065ZM4.67499 5.95L5.61999 5.62291L12.9438 26.782C12.9441 26.7811 12.9445 26.78 12.9448 26.7789C12.9448 26.7792 12.9449 26.7787 12.9448 26.7789L15.8917 17.2141C15.9846 16.8955 16.1578 16.606 16.3948 16.3735C16.6291 16.1436 16.9178 15.9771 17.2339 15.8895L26.7782 12.9451C26.778 12.9451 26.7784 12.945 26.7782 12.9451C26.7794 12.9447 26.781 12.9442 26.782 12.9438L5.61842 5.61844L4.67499 5.95Z" clip-rule="evenodd"/></svg>