<svg width="32" height="32" viewBox="0 0 32 32" fill="none" xmlns="http://www.w3.org/2000/svg">
<path fill-rule="evenodd" clip-rule="evenodd" d="M23.7071 8.29289C24.0976 8.68342 24.0976 9.31658 23.7071 9.70711L21.7071 11.7071C21.3166 12.0976 20.6834 12.0976 20.2929 11.7071C19.9024 11.3166 19.9024 10.6834 20.2929 10.2929L22.2929 8.29289C22.6834 7.90237 23.3166 7.90237 23.7071 8.29289Z" fill="black"/>
<path fill-rule="evenodd" clip-rule="evenodd" d="M19.5035 5.43398C20.4547 4.57218 21.7008 4.10915 22.9839 4.14074C24.267 4.17233 25.4888 4.69613 26.3963 5.60369C27.3039 6.51125 27.8277 7.73306 27.8593 9.01615C27.8909 10.2992 27.4278 11.5454 26.566 12.4965C26.555 12.5086 26.5437 12.5205 26.5321 12.5321L23.5321 15.5321C23.386 15.6782 23.1983 15.7755 22.9947 15.8105C21.4713 16.0728 19.6307 16.9053 17.6756 18.0802C15.7374 19.245 13.7613 20.7001 11.9797 22.1325C10.2005 23.5629 8.62984 24.9589 7.50341 25.998C6.94061 26.5171 6.48973 26.9462 6.18034 27.2447C6.02567 27.394 5.90642 27.5105 5.8263 27.5893C5.78624 27.6287 5.75597 27.6586 5.73595 27.6784L5.70982 27.7044L5.7084 27.7058L5.70741 27.7068C5.31689 28.0974 4.68342 28.0977 4.29289 27.7071C3.90237 27.3166 3.90237 26.6834 4.29289 26.2929L4.29375 26.2921L4.29561 26.2902L4.32158 26.2641C4.34144 26.2441 4.37137 26.2138 4.41076 26.1737C4.48954 26.0936 4.60608 25.9744 4.75532 25.8197C5.05384 25.5103 5.48293 25.0594 6.00206 24.4966C7.04111 23.3702 8.43709 21.7995 9.86752 20.0203C11.2999 18.2387 12.7551 16.2626 13.9198 14.3244C15.0947 12.3693 15.9272 10.5287 16.1895 9.00536C16.2246 8.80176 16.3218 8.61401 16.4679 8.46792L19.4679 5.46792C19.4795 5.45632 19.4914 5.445 19.5035 5.43398ZM13.6596 18.3405C14.6382 17.6398 15.643 16.9684 16.6455 16.3659C18.5586 15.2162 20.5314 14.2758 22.3354 13.9004L25.0992 11.1366C25.6065 10.5681 25.8787 9.82762 25.8599 9.06538C25.8409 8.29552 25.5267 7.56244 24.9821 7.0179C24.4376 6.47337 23.7045 6.15909 22.9346 6.14013C22.1724 6.12136 21.4319 6.39353 20.8634 6.9008L18.0996 9.66464C17.7242 11.4686 16.7838 13.4414 15.6341 15.3546C15.0317 16.357 14.3602 17.3618 13.6596 18.3405Z" fill="black"/>
</svg>
