<svg xmlns="http://www.w3.org/2000/svg" width="32" height="32" fill="none" viewBox="0 0 32 32"><path fill="#000" fill-rule="evenodd" d="M13 14C13 13.4477 13.4477 13 14 13H22C22.5523 13 23 13.4477 23 14C23 14.5523 22.5523 15 22 15H14C13.4477 15 13 14.5523 13 14Z" clip-rule="evenodd"/><path fill="#000" fill-rule="evenodd" d="M13 18C13 17.4477 13.4477 17 14 17H22C22.5523 17 23 17.4477 23 18C23 18.5523 22.5523 19 22 19H14C13.4477 19 13 18.5523 13 18Z" clip-rule="evenodd"/><path fill="#000" fill-rule="evenodd" d="M4 6C4 4.89543 4.89543 4 6 4H26C27.1046 4 28 4.89543 28 6V26C28 27.1046 27.1046 28 26 28H6C4.89543 28 4 27.1046 4 26V6ZM26 6H6V26H26V6Z" clip-rule="evenodd"/><path fill="#000" fill-rule="evenodd" d="M10 4C10.5523 4 11 4.44772 11 5V27C11 27.5523 10.5523 28 10 28C9.44772 28 9 27.5523 9 27V5C9 4.44772 9.44772 4 10 4Z" clip-rule="evenodd"/></svg>