<svg width="32" height="32" viewBox="0 0 32 32" fill="none" xmlns="http://www.w3.org/2000/svg">
<path fill-rule="evenodd" clip-rule="evenodd" d="M18.5127 3.14143C18.9869 3.42461 19.1417 4.03855 18.8585 4.51271L10.796 18.0127C10.5129 18.4869 9.89892 18.6417 9.42476 18.3585C8.9506 18.0753 8.79578 17.4614 9.07896 16.9872L17.1415 3.48723C17.4246 3.01307 18.0386 2.85825 18.5127 3.14143Z" fill="black"/>
<path fill-rule="evenodd" clip-rule="evenodd" d="M16 15C12.6863 15 10 17.6863 10 21C10 24.3137 12.6863 27 16 27C19.3137 27 22 24.3137 22 21C22 17.6863 19.3137 15 16 15ZM8 21C8 16.5817 11.5817 13 16 13C20.4183 13 24 16.5817 24 21C24 25.4183 20.4183 29 16 29C11.5817 29 8 25.4183 8 21Z" fill="black"/>
</svg>
