<svg width="32" height="32" viewBox="0 0 32 32" fill="none" xmlns="http://www.w3.org/2000/svg">
<path fill-rule="evenodd" clip-rule="evenodd" d="M15.8328 2.05704C16.3536 2.24085 16.6268 2.81205 16.443 3.33285L10.9134 19H21.5C22.0523 19 22.5 19.4477 22.5 20C22.5 20.5523 22.0523 21 21.5 21H9.50001C9.17547 21 8.87111 20.8425 8.68367 20.5776C8.49622 20.3127 8.449 19.9732 8.55702 19.6672L14.557 2.66721C14.7408 2.14641 15.312 1.87323 15.8328 2.05704Z" fill="black"/>
<path fill-rule="evenodd" clip-rule="evenodd" d="M21.5 11C22.0523 11 22.5 11.4477 22.5 12V28C22.5 28.5523 22.0523 29 21.5 29C20.9477 29 20.5 28.5523 20.5 28V12C20.5 11.4477 20.9477 11 21.5 11Z" fill="black"/>
</svg>
