<svg width="32" height="32" viewBox="0 0 32 32" fill="none" xmlns="http://www.w3.org/2000/svg">
<path fill-rule="evenodd" clip-rule="evenodd" d="M22.5764 13.6422C23.0502 13.926 23.2042 14.5402 22.9203 15.0139L14.8328 28.5139C14.549 28.9877 13.9349 29.1417 13.4611 28.8579C12.9873 28.574 12.8333 27.9599 13.1172 27.4861L21.2047 13.9861C21.4885 13.5123 22.1026 13.3584 22.5764 13.6422Z" fill="black"/>
<path fill-rule="evenodd" clip-rule="evenodd" d="M16 5C12.6863 5 10 7.68629 10 11C10 14.3137 12.6863 17 16 17C19.3137 17 22 14.3137 22 11C22 7.68629 19.3137 5 16 5ZM8 11C8 6.58172 11.5817 3 16 3C20.4183 3 24 6.58172 24 11C24 15.4183 20.4183 19 16 19C11.5817 19 8 15.4183 8 11Z" fill="black"/>
</svg>
