<svg xmlns="http://www.w3.org/2000/svg" width="32" height="32" fill="none" viewBox="0 0 32 32"><path fill="#000" fill-rule="evenodd" d="M12.9878 9.84025C13.0662 9.35593 13.4844 9 13.975 9H19C19.5523 9 20 9.44772 20 10C20 10.5523 19.5523 11 19 11H14.8262L14.3161 14.1517C14.4088 14.127 14.5025 14.1052 14.597 14.0864C15.4699 13.9128 16.3747 14.002 17.1969 14.3426C18.0192 14.6832 18.7219 15.26 19.2164 16C19.7108 16.74 19.9747 17.61 19.9747 18.5C19.9747 19.39 19.7108 20.26 19.2164 21C18.7219 21.74 18.0192 22.3168 17.1969 22.6574C16.3747 22.998 15.4699 23.0872 14.597 22.9136C13.7241 22.74 12.9223 22.3114 12.2929 21.6821C11.9024 21.2916 11.9023 20.6585 12.2928 20.2679C12.6834 19.8774 13.3165 19.8774 13.7071 20.2679C14.0567 20.6175 14.5022 20.8555 14.9871 20.952C15.4721 21.0484 15.9747 20.9989 16.4315 20.8097C16.8883 20.6204 17.2787 20.3 17.5534 19.8889C17.8281 19.4778 17.9747 18.9944 17.9747 18.5C17.9747 18.0056 17.8281 17.5222 17.5534 17.1111C17.2787 16.7 16.8883 16.3796 16.4315 16.1903C15.9747 16.0011 15.4721 15.9516 14.9871 16.048C14.5022 16.1445 14.0567 16.3825 13.7071 16.7321C13.4003 17.0389 12.9307 17.1128 12.5445 16.9152C12.1583 16.7176 11.9435 16.2935 12.0128 15.8653L12.9878 9.84025Z" clip-rule="evenodd"/><path fill="#000" fill-rule="evenodd" d="M4 6C4 4.89543 4.89543 4 6 4H26C27.1046 4 28 4.89543 28 6V26C28 27.1046 27.1046 28 26 28H6C4.89543 28 4 27.1046 4 26V6ZM26 6H6V26H26V6Z" clip-rule="evenodd"/></svg>