<svg width="32" height="32" viewBox="0 0 32 32" fill="none" xmlns="http://www.w3.org/2000/svg">
<path fill-rule="evenodd" clip-rule="evenodd" d="M16 5C9.92487 5 5 9.92487 5 16C5 22.0751 9.92487 27 16 27C22.0751 27 27 22.0751 27 16C27 9.92487 22.0751 5 16 5ZM3 16C3 8.8203 8.8203 3 16 3C23.1797 3 29 8.8203 29 16C29 23.1797 23.1797 29 16 29C8.8203 29 3 23.1797 3 16Z" fill="black"/>
<path fill-rule="evenodd" clip-rule="evenodd" d="M17.5122 8.64111C17.9865 8.92396 18.1418 9.5378 17.8589 10.0122L13.8339 16.7622C13.551 17.2365 12.9372 17.3917 12.4629 17.1089C11.9885 16.826 11.8333 16.2122 12.1161 15.7378L16.1411 8.98785C16.424 8.51349 17.0378 8.35825 17.5122 8.64111Z" fill="black"/>
<path fill-rule="evenodd" clip-rule="evenodd" d="M16 15.5C14.6193 15.5 13.5 16.6193 13.5 18C13.5 19.3807 14.6193 20.5 16 20.5C17.3807 20.5 18.5 19.3807 18.5 18C18.5 16.6193 17.3807 15.5 16 15.5ZM11.5 18C11.5 15.5147 13.5147 13.5 16 13.5C18.4853 13.5 20.5 15.5147 20.5 18C20.5 20.4853 18.4853 22.5 16 22.5C13.5147 22.5 11.5 20.4853 11.5 18Z" fill="black"/>
</svg>
