<svg width="32" height="32" viewBox="0 0 32 32" fill="none" xmlns="http://www.w3.org/2000/svg">
<path fill-rule="evenodd" clip-rule="evenodd" d="M16.9939 5.10198C15.8636 4.87275 14.6889 5.04126 13.6687 5.57896C12.6485 6.11666 11.8455 6.99049 11.3958 8.05243C11.1805 8.56099 10.5936 8.79867 10.085 8.5833C9.57649 8.36794 9.33881 7.78108 9.55417 7.27251C10.1838 5.78581 11.3079 4.56244 12.7362 3.80966C14.1645 3.05688 15.8091 2.82096 17.3914 3.14189C18.9737 3.46281 20.3965 4.32084 21.4186 5.57061C22.4404 6.82003 22.9991 8.38416 23 9.99819C23 9.99866 23 9.99913 23 9.9996L22 9.99997L23 9.99677C23 9.99724 23 9.99771 23 9.99819C23.0042 11.3937 22.5866 12.758 21.802 13.9122L20.975 13.35L20.1747 12.7504L20.1603 12.7696C20.7106 11.9524 21.0032 10.9887 21 10.0032L21 10.0003C20.9996 8.84711 20.6005 7.72948 19.8704 6.83678C19.1403 5.94409 18.1241 5.33121 16.9939 5.10198ZM11.9986 27L21.7753 13.9495L20.975 13.35L20.148 12.7878C20.1521 12.7817 20.1562 12.7757 20.1603 12.7696L9.19968 27.4004C8.97264 27.7035 8.93626 28.1088 9.1057 28.4474C9.27514 28.7861 9.62133 29 10 29H22C22.5523 29 23 28.5523 23 28C23 27.4477 22.5523 27 22 27H11.9986Z" fill="black"/>
</svg>
