<svg width="32" height="32" viewBox="0 0 32 32" fill="none" xmlns="http://www.w3.org/2000/svg">
<path fill-rule="evenodd" clip-rule="evenodd" d="M4 6C4 4.89543 4.89543 4 6 4H26C27.1046 4 28 4.89543 28 6V26C28 27.1046 27.1046 28 26 28H6C4.89543 28 4 27.1046 4 26V6ZM26 6H6V26H26V6Z" fill="black"/>
<path fill-rule="evenodd" clip-rule="evenodd" d="M17.5122 9.14108C17.9865 9.42393 18.1418 10.0378 17.8589 10.5121L13.8339 17.2621C13.551 17.7365 12.9372 17.8917 12.4629 17.6089C11.9885 17.326 11.8333 16.7122 12.1161 16.2378L16.1411 9.48782C16.424 9.01346 17.0378 8.85822 17.5122 9.14108Z" fill="black"/>
<path fill-rule="evenodd" clip-rule="evenodd" d="M16 16C14.6193 16 13.5 17.1193 13.5 18.5C13.5 19.8807 14.6193 21 16 21C17.3807 21 18.5 19.8807 18.5 18.5C18.5 17.1193 17.3807 16 16 16ZM11.5 18.5C11.5 16.0147 13.5147 14 16 14C18.4853 14 20.5 16.0147 20.5 18.5C20.5 20.9853 18.4853 23 16 23C13.5147 23 11.5 20.9853 11.5 18.5Z" fill="black"/>
</svg>
