<svg width="32" height="32" viewBox="0 0 32 32" fill="none" xmlns="http://www.w3.org/2000/svg">
<path fill-rule="evenodd" clip-rule="evenodd" d="M10.9755 3.83925C11.0543 3.35539 11.4723 3 11.9625 3H22C22.5523 3 23 3.44772 23 4C23 4.55228 22.5523 5 22 5H12.8128L11.3715 13.8498C12.4784 13.297 13.7084 13.0014 14.9687 13.0014C17.0945 13.0014 19.1339 13.8422 20.642 15.3403C21.3887 16.0816 21.9814 16.9633 22.3858 17.9347C22.7902 18.906 22.9984 19.9478 22.9984 21C22.9984 22.0522 22.7902 23.094 22.3858 24.0653C21.9814 25.0366 21.3889 25.9182 20.6423 26.6594C19.1342 28.1577 17.0946 28.9986 14.9687 28.9986C12.8429 28.9986 10.8033 28.1577 9.2952 26.6594C8.9034 26.2702 8.90133 25.637 9.29057 25.2452C9.67982 24.8534 10.313 24.8513 10.7048 25.2406C11.8382 26.3666 13.371 26.9986 14.9687 26.9986C16.5664 26.9986 18.0993 26.3666 19.2327 25.2406L19.233 25.2403C19.7924 24.6849 20.2364 24.0243 20.5394 23.2966C20.8424 22.5688 20.9984 21.7883 20.9984 21C20.9984 20.2117 20.8424 19.4312 20.5394 18.7034C20.2364 17.9757 19.7924 17.3151 19.233 16.7597L19.2327 16.7594C18.0993 15.6334 16.5664 15.0014 14.9687 15.0014C13.371 15.0014 11.8382 15.6334 10.7048 16.7594C10.3973 17.0649 9.92803 17.1375 9.5426 16.9393C9.15717 16.741 8.94332 16.317 9.013 15.8893L10.9755 3.83925Z" fill="black"/>
</svg>
