<svg xmlns="http://www.w3.org/2000/svg" width="32" height="32" fill="none" viewBox="0 0 32 32"><path fill="#000" fill-rule="evenodd" d="M16.9719 9.61833C17.297 9.79235 17.5 10.1312 17.5 10.5V22C17.5 22.5523 17.0523 23 16.5 23C15.9477 23 15.5 22.5523 15.5 22V12.3685L14.0547 13.3321C13.5952 13.6384 12.9743 13.5142 12.668 13.0547C12.3616 12.5952 12.4858 11.9743 12.9453 11.668L15.9453 9.66795C16.2522 9.46338 16.6467 9.44431 16.9719 9.61833Z" clip-rule="evenodd"/><path fill="#000" fill-rule="evenodd" d="M4 6C4 4.89543 4.89543 4 6 4H26C27.1046 4 28 4.89543 28 6V26C28 27.1046 27.1046 28 26 28H6C4.89543 28 4 27.1046 4 26V6ZM26 6H6V26H26V6Z" clip-rule="evenodd"/></svg>