<svg width="32" height="32" viewBox="0 0 32 32" fill="none" xmlns="http://www.w3.org/2000/svg">
<path fill-rule="evenodd" clip-rule="evenodd" d="M16.1855 11.0051C15.7859 10.9651 15.3847 11.0648 15.0503 11.2872C14.7159 11.5096 14.4689 11.841 14.3513 12.225C14.2336 12.609 14.2526 13.0219 14.4051 13.3934C14.5575 13.765 14.8339 14.0723 15.1874 14.263C15.5408 14.4537 15.9494 14.5162 16.3436 14.4396C16.7379 14.3631 17.0934 14.1524 17.3499 13.8432C17.6055 13.5351 17.7468 13.1481 17.75 12.7479C17.7483 12.2826 17.5652 11.8363 17.2396 11.5038C16.9562 11.2211 16.5839 11.0449 16.1855 11.0051ZM13.9428 9.62191C14.6621 9.14349 15.5249 8.92904 16.3845 9.01503C17.2442 9.10101 18.0474 9.48213 18.6577 10.0935L18.663 10.0988L18.663 10.0989C19.3581 10.8057 19.7484 11.757 19.75 12.7484L19.75 12.7559L19.75 12.7559C19.7449 13.6198 19.4407 14.4552 18.8892 15.1201C18.3377 15.785 17.5728 16.2384 16.7247 16.403C15.8767 16.5676 14.9978 16.4334 14.2375 16.0231C13.4773 15.6128 12.8826 14.9518 12.5547 14.1526C12.2268 13.3533 12.1859 12.4651 12.439 11.6392C12.692 10.8132 13.2234 10.1003 13.9428 9.62191Z" fill="black"/>
<path fill-rule="evenodd" clip-rule="evenodd" d="M16.2311 16.5142C15.7162 16.4637 15.1998 16.5931 14.7696 16.8805C14.3395 17.1678 14.0222 17.5954 13.8717 18.0903C13.7213 18.5853 13.747 19.1171 13.9445 19.5952C14.142 20.0734 14.499 20.4683 14.9549 20.7128C15.4108 20.9573 15.9373 21.0363 16.4449 20.9364C16.9525 20.8364 17.4097 20.5637 17.7388 20.1645C18.0679 19.7654 18.2486 19.2646 18.25 18.7472C18.2508 18.4521 18.1932 18.1597 18.0805 17.8869C17.9679 17.614 17.8023 17.3662 17.5934 17.1577C17.2274 16.7922 16.7459 16.5648 16.2311 16.5142ZM13.6587 15.2174C14.4734 14.6732 15.4514 14.4281 16.4265 14.5238C17.4015 14.6195 18.3133 15.0501 19.0066 15.7424C19.4021 16.1373 19.7157 16.6067 19.9291 17.1233C20.1425 17.64 20.2515 18.1938 20.25 18.7528C20.2473 19.7325 19.9052 20.681 19.2819 21.4369C18.6586 22.1928 17.7926 22.7094 16.8314 22.8987C15.8701 23.088 14.873 22.9384 14.0096 22.4753C13.1462 22.0122 12.47 21.2643 12.096 20.3588C11.7219 19.4532 11.6732 18.4461 11.9582 17.5087C12.2431 16.5713 12.844 15.7616 13.6587 15.2174Z" fill="black"/>
<path fill-rule="evenodd" clip-rule="evenodd" d="M4 6C4 4.89543 4.89543 4 6 4H26C27.1046 4 28 4.89543 28 6V26C28 27.1046 27.1046 28 26 28H6C4.89543 28 4 27.1046 4 26V6ZM26 6H6V26H26V6Z" fill="black"/>
</svg>
