<svg width="32" height="32" viewBox="0 0 32 32" fill="none" xmlns="http://www.w3.org/2000/svg">
<path fill-rule="evenodd" clip-rule="evenodd" d="M19.5372 14.8911C20.0115 15.1739 20.1667 15.7878 19.8839 16.2621L15.8589 23.0121C15.576 23.4865 14.9622 23.6417 14.4878 23.3589C14.0135 23.076 13.8583 22.4622 14.1411 21.9878L18.1661 15.2378C18.449 14.7635 19.0628 14.6082 19.5372 14.8911Z" fill="black"/>
<path fill-rule="evenodd" clip-rule="evenodd" d="M4 6C4 4.89543 4.89543 4 6 4H26C27.1046 4 28 4.89543 28 6V26C28 27.1046 27.1046 28 26 28H6C4.89543 28 4 27.1046 4 26V6ZM26 6H6V26H26V6Z" fill="black"/>
<path fill-rule="evenodd" clip-rule="evenodd" d="M16 11.5C14.6193 11.5 13.5 12.6193 13.5 14C13.5 15.3807 14.6193 16.5 16 16.5C17.3807 16.5 18.5 15.3807 18.5 14C18.5 12.6193 17.3807 11.5 16 11.5ZM11.5 14C11.5 11.5147 13.5147 9.5 16 9.5C18.4853 9.5 20.5 11.5147 20.5 14C20.5 16.4853 18.4853 18.5 16 18.5C13.5147 18.5 11.5 16.4853 11.5 14Z" fill="black"/>
</svg>
