<svg width="32" height="32" viewBox="0 0 32 32" fill="none" xmlns="http://www.w3.org/2000/svg">
<path fill-rule="evenodd" clip-rule="evenodd" d="M15.8328 8.55704C16.3536 8.74085 16.6268 9.31205 16.443 9.83285L13.9134 17H18.5C19.0523 17 19.5 17.4477 19.5 18C19.5 18.5523 19.0523 19 18.5 19H12.5C12.1755 19 11.8711 18.8425 11.6837 18.5776C11.4962 18.3127 11.449 17.9732 11.557 17.6672L14.557 9.16721C14.7408 8.64641 15.312 8.37323 15.8328 8.55704Z" fill="black"/>
<path fill-rule="evenodd" clip-rule="evenodd" d="M18.5 13C19.0523 13 19.5 13.4477 19.5 14V22C19.5 22.5523 19.0523 23 18.5 23C17.9477 23 17.5 22.5523 17.5 22V14C17.5 13.4477 17.9477 13 18.5 13Z" fill="black"/>
<path fill-rule="evenodd" clip-rule="evenodd" d="M4 6C4 4.89543 4.89543 4 6 4H26C27.1046 4 28 4.89543 28 6V26C28 27.1046 27.1046 28 26 28H6C4.89543 28 4 27.1046 4 26V6ZM26 6H6V26H26V6Z" fill="black"/>
</svg>
