<svg width="32" height="32" viewBox="0 0 32 32" fill="none" xmlns="http://www.w3.org/2000/svg">
<path fill-rule="evenodd" clip-rule="evenodd" d="M16 5C9.92487 5 5 9.92487 5 16C5 22.0751 9.92487 27 16 27C22.0751 27 27 22.0751 27 16C27 9.92487 22.0751 5 16 5ZM3 16C3 8.8203 8.8203 3 16 3C23.1797 3 29 8.8203 29 16C29 23.1797 23.1797 29 16 29C8.8203 29 3 23.1797 3 16Z" fill="black"/>
<path fill-rule="evenodd" clip-rule="evenodd" d="M16.3955 11.0468C15.9437 10.9557 15.4742 11.0234 15.0666 11.2385C14.6589 11.4536 14.3381 11.803 14.1583 12.2274C13.943 12.736 13.3561 12.9737 12.8476 12.7583C12.339 12.543 12.1013 11.9561 12.3167 11.4475C12.6762 10.5986 13.3178 9.89997 14.1331 9.46971C14.9484 9.03945 15.8874 8.90402 16.791 9.08632C17.6947 9.26862 18.5077 9.75747 19.0924 10.4702C19.6771 11.1829 19.9977 12.0757 20 12.9975L19 13L20 12.9955C20 12.9962 20 12.9968 20 12.9975C20.0032 13.7967 19.7639 14.578 19.3138 15.2383L18.4875 14.675L17.6872 14.0754L17.6724 14.0951C17.8876 13.7724 18.0018 13.3927 18 13.0045L18 13.0024C17.9989 12.5415 17.8386 12.0951 17.5462 11.7387C17.2538 11.3824 16.8474 11.138 16.3955 11.0468ZM14.9986 21L19.2878 15.2745L18.4875 14.675L17.6612 14.1117C17.665 14.1062 17.6687 14.1007 17.6724 14.0951L12.1997 21.4004C11.9726 21.7035 11.9363 22.1088 12.1057 22.4474C12.2751 22.7861 12.6213 23 13 23H19C19.5523 23 20 22.5523 20 22C20 21.4477 19.5523 21 19 21H14.9986Z" fill="black"/>
</svg>
