<svg xmlns="http://www.w3.org/2000/svg" width="32" height="32" fill="none" viewBox="0 0 32 32"><path fill="#000" d="M21.4875 20C22.3159 20 22.9875 19.3284 22.9875 18.5C22.9875 17.6716 22.3159 17 21.4875 17C20.6591 17 19.9875 17.6716 19.9875 18.5C19.9875 19.3284 20.6591 20 21.4875 20Z"/><path fill="#000" fill-rule="evenodd" d="M16.9875 7.9989C16.9881 8.55119 16.5409 8.99939 15.9886 9C14.3028 9.00185 12.6513 9.47717 11.2224 10.3718C9.79356 11.2664 8.64467 12.5444 7.90667 14.0601C7.16867 15.5758 6.87122 17.2684 7.04822 18.9449C7.22521 20.6214 7.86953 22.2145 8.90778 23.5427C9.94602 24.8709 11.3364 25.8808 12.9206 26.4573C14.5048 27.0339 16.2191 27.1539 17.8682 26.8036C19.5172 26.4534 21.0348 25.6471 22.2479 24.4765C23.4611 23.3058 24.321 21.818 24.7298 20.1825C24.8638 19.6467 25.4067 19.3209 25.9425 19.4548C26.4783 19.5888 26.8041 20.1317 26.6701 20.6675C26.1705 22.6665 25.1194 24.4849 23.6367 25.9157C22.1539 27.3464 20.2992 28.332 18.2837 28.76C16.2681 29.1881 14.1729 29.0414 12.2367 28.3368C10.3004 27.6321 8.60102 26.3978 7.33206 24.7744C6.0631 23.1511 5.2756 21.204 5.05927 19.1549C4.84295 17.1058 5.20649 15.0371 6.10849 13.1846C7.0105 11.332 8.41469 9.77007 10.1611 8.67664C11.9075 7.5832 13.9259 7.00226 15.9864 7C16.5387 6.99939 16.9869 7.44662 16.9875 7.9989Z" clip-rule="evenodd"/><path fill="#000" fill-rule="evenodd" d="M8.53061 5.50451C7.95467 5.54112 7.4067 5.77622 6.98208 6.17314C6.50804 6.61626 6.22487 7.22633 6.19241 7.87441C6.15994 8.52249 6.38074 9.1578 6.80812 9.64607C7.23551 10.1343 7.83599 10.4373 8.48267 10.4909C9.03306 10.5366 9.44225 11.0197 9.3966 11.5701C9.35096 12.1205 8.86778 12.5297 8.31738 12.4841C7.15337 12.3876 6.07249 11.8422 5.3032 10.9633C4.53391 10.0845 4.13648 8.9409 4.19491 7.77435C4.25334 6.60781 4.76306 5.50969 5.61632 4.71208C6.46959 3.91447 7.59955 3.47988 8.76738 3.50015C8.91206 3.50266 9.05447 3.53654 9.18477 3.59945L23.4604 10.4911C24.0464 10.4417 24.5988 10.1868 25.0178 9.76777C25.4866 9.29893 25.75 8.66304 25.75 8C25.75 7.33696 25.4866 6.70108 25.0178 6.23223C24.549 5.76339 23.9131 5.5 23.25 5.5C22.6977 5.5 22.25 5.05229 22.25 4.5C22.25 3.94772 22.6977 3.5 23.25 3.5C24.4435 3.5 25.5881 3.97411 26.432 4.81802C27.2759 5.66194 27.75 6.80653 27.75 8C27.75 9.19348 27.2759 10.3381 26.432 11.182C25.5881 12.0259 24.4435 12.5 23.25 12.5C23.0995 12.5 22.9509 12.466 22.8153 12.4006L8.53061 5.50451Z" clip-rule="evenodd"/><path fill="#000" fill-rule="evenodd" d="M16.502 13.1425C16.8032 13.3232 16.9875 13.6487 16.9875 14V28C16.9875 28.5523 16.5398 29 15.9875 29C15.4352 29 14.9875 28.5523 14.9875 28V15.6668L6.54567 20.1698C6.05838 20.4298 5.45263 20.2454 5.1927 19.7581C4.93277 19.2709 5.11709 18.6651 5.60438 18.4052L15.5169 13.1177C15.8268 12.9524 16.2008 12.9618 16.502 13.1425Z" clip-rule="evenodd"/><path fill="#000" fill-rule="evenodd" d="M11.9875 15.1375C12.5398 15.1375 12.9875 15.5852 12.9875 16.1375V27.1625C12.9875 27.7148 12.5398 28.1625 11.9875 28.1625C11.4352 28.1625 10.9875 27.7148 10.9875 27.1625V16.1375C10.9875 15.5852 11.4352 15.1375 11.9875 15.1375Z" clip-rule="evenodd"/></svg>