<svg width="32" height="32" viewBox="0 0 32 32" fill="none" xmlns="http://www.w3.org/2000/svg">
<path fill-rule="evenodd" clip-rule="evenodd" d="M15.0182 1.90567C15.317 1.73446 15.6555 1.64435 16 1.64435C16.3445 1.64435 16.683 1.73446 16.9818 1.90567L27.9813 8.0929C28.289 8.26765 28.5452 8.52044 28.7241 8.82579C28.9029 9.13113 28.9981 9.47824 29 9.8321L29 9.83747L29 22.1625H28L29 22.1678C28.9981 22.5217 28.9029 22.8688 28.7241 23.1742C28.5452 23.4795 28.289 23.7323 27.9813 23.907L27.9778 23.909L16.9818 30.0943C16.6829 30.2655 16.3445 30.3556 16 30.3556C15.6555 30.3556 15.3171 30.2655 15.0182 30.0943L4.02224 23.909L4.01869 23.907C3.71097 23.7323 3.45478 23.4795 3.27593 23.1742C3.09709 22.8688 3.00191 22.5217 3.00001 22.1678L3 22.1625V9.8321C3.0019 9.47824 3.09709 9.13113 3.27593 8.82579C3.45478 8.52044 3.71097 8.26765 4.01869 8.0929L4.02223 8.09089L15.0182 1.90567ZM27 22.1576V9.8423C26.9999 9.84029 26.9993 9.83834 26.9983 9.83659C26.9973 9.83481 26.9958 9.83332 26.994 9.83224C26.9939 9.83218 26.9942 9.83231 26.994 9.83224L16 3.6481L5.00631 9.83204C5.0062 9.83211 5.00643 9.83197 5.00631 9.83204C5.00455 9.83311 5.00274 9.83481 5.0017 9.83659C5.00068 9.83834 5.0001 9.84029 5 9.84231V22.1576C5.0001 22.1597 5.00068 22.1616 5.0017 22.1634C5.00274 22.1651 5.00419 22.1666 5.00594 22.1677C5.00581 22.1676 5.00606 22.1678 5.00594 22.1677L16 28.3518L26.9937 22.1679C26.9936 22.168 26.9938 22.1678 26.9937 22.1679C26.9954 22.1668 26.9973 22.1651 26.9983 22.1634C26.9993 22.1616 26.9999 22.1597 27 22.1576Z" fill="black"/>
<path fill-rule="evenodd" clip-rule="evenodd" d="M9.1243 5.39204C9.39103 4.90844 9.99929 4.73263 10.4829 4.99936L22.6079 11.6869C22.9269 11.8628 23.1249 12.1982 23.1249 12.5625V19.0625C23.1249 19.6148 22.6772 20.0625 22.1249 20.0625C21.5727 20.0625 21.1249 19.6148 21.1249 19.0625V13.153L9.51698 6.75065C9.03338 6.48391 8.85757 5.87565 9.1243 5.39204Z" fill="black"/>
<path fill-rule="evenodd" clip-rule="evenodd" d="M3.26404 8.83813C3.53294 8.35573 4.14199 8.18264 4.62439 8.45154L16.1079 14.8526L27.3686 8.45552C27.8488 8.18272 28.4592 8.35086 28.732 8.83106C29.0048 9.31127 28.8367 9.9217 28.3565 10.1945L16.6065 16.8695C16.3027 17.0421 15.9308 17.0436 15.6256 16.8735L3.65063 10.1985C3.16823 9.92958 2.99514 9.32053 3.26404 8.83813Z" fill="black"/>
<path fill-rule="evenodd" clip-rule="evenodd" d="M16.1209 15C16.6732 15.0047 17.1171 15.4562 17.1125 16.0084L17 29.3584C16.9953 29.9107 16.5438 30.3546 15.9916 30.35C15.4393 30.3453 14.9954 29.8938 15 29.3416L15.1125 15.9916C15.1172 15.4393 15.5687 14.9954 16.1209 15Z" fill="black"/>
</svg>
