<svg width="32" height="32" viewBox="0 0 32 32" fill="none" xmlns="http://www.w3.org/2000/svg">
<path fill-rule="evenodd" clip-rule="evenodd" d="M8.29289 12.2929C8.68342 11.9024 9.31658 11.9024 9.70711 12.2929L19.7071 22.2929C20.0976 22.6834 20.0976 23.3166 19.7071 23.7071C19.3166 24.0976 18.6834 24.0976 18.2929 23.7071L8.29289 13.7071C7.90237 13.3166 7.90237 12.6834 8.29289 12.2929Z" fill="black"/>
<path fill-rule="evenodd" clip-rule="evenodd" d="M13.4321 22.2179C13.8226 22.6084 13.8226 23.2416 13.4321 23.6321L9.53212 27.5321C9.14159 27.9226 8.50843 27.9226 8.11791 27.5321C7.72738 27.1416 7.72738 26.5084 8.11791 26.1179L12.0179 22.2179C12.4084 21.8274 13.0416 21.8274 13.4321 22.2179Z" fill="black"/>
<path fill-rule="evenodd" clip-rule="evenodd" d="M9.93212 18.7179C10.3226 19.1084 10.3226 19.7416 9.93212 20.1321L6.03212 24.0321C5.64159 24.4226 5.00843 24.4226 4.61791 24.0321C4.22738 23.6416 4.22738 23.0084 4.61791 22.6179L8.51791 18.7179C8.90843 18.3274 9.54159 18.3274 9.93212 18.7179Z" fill="black"/>
<path fill-rule="evenodd" clip-rule="evenodd" d="M24.5994 4.56498L17.7569 12.1928L17.0124 11.525L17.7553 12.1945C17.5736 12.3961 17.3528 12.5586 17.1063 12.6721C16.8597 12.7856 16.5927 12.8478 16.3214 12.8548C16.0501 12.8618 15.7802 12.8136 15.5282 12.7129C15.2762 12.6123 15.0473 12.4615 14.8554 12.2696C14.8554 12.2696 14.8554 12.2696 14.8554 12.2696L13.7084 11.1226C13.5192 10.9373 13.2649 10.8335 13 10.8335C12.7351 10.8335 12.4808 10.9373 12.2916 11.1226C12.2908 11.1234 12.2901 11.1241 12.2894 11.1248L3.41421 20L12 28.5858L20.8752 19.7106C20.8759 19.7099 20.8767 19.7091 20.8774 19.7084C21.0627 19.5192 21.1665 19.2649 21.1665 19C21.1665 18.7351 21.0627 18.4808 20.8774 18.2916C20.8767 18.2909 20.8759 18.2901 20.8752 18.2894L19.7305 17.1447C19.7305 17.1447 19.7305 17.1447 19.7305 17.1447C19.5386 16.9528 19.3877 16.7238 19.2871 16.4718C19.1864 16.2198 19.1382 15.9499 19.1452 15.6786C19.1522 15.4073 19.2144 15.1403 19.3279 14.8937C19.4414 14.6472 19.6039 14.4264 19.8055 14.2447L19.8072 14.2431L27.435 7.40054C27.8004 7.02624 28.0052 6.52368 28.0052 6C28.0052 5.46819 27.7939 4.95816 27.4179 4.58211C27.0418 4.20606 26.5318 3.9948 26 3.9948C25.4763 3.9948 24.9737 4.19965 24.5994 4.56498ZM23.1679 3.16789C23.919 2.41677 24.9378 1.9948 26 1.9948C27.0622 1.9948 28.081 2.41677 28.8321 3.16789C29.5832 3.91902 30.0052 4.93775 30.0052 6C30.0052 7.06225 29.5832 8.08099 28.8321 8.83211C28.8193 8.84489 28.8062 8.85732 28.7928 8.86938L21.1445 15.7303L22.2998 16.8856C22.8552 17.4492 23.1665 18.2087 23.1665 19C23.1665 19.7913 22.8552 20.5507 22.2998 21.1144L22.2946 21.1196L12.7071 30.7071C12.3166 31.0976 11.6834 31.0976 11.2929 30.7071L1.29289 20.7071C1.10536 20.5196 1 20.2652 1 20C1 19.7348 1.10536 19.4804 1.29289 19.2929L10.8856 9.70017C11.4492 9.14482 12.2087 8.83353 13 8.83353C13.7913 8.83353 14.5507 9.14484 15.1144 9.70019L15.1196 9.70537L16.2696 10.8554L23.1306 3.20725C23.1427 3.19379 23.1551 3.18067 23.1679 3.16789Z" fill="black"/>
</svg>
