<svg width="32" height="32" viewBox="0 0 32 32" fill="none" xmlns="http://www.w3.org/2000/svg">
<path fill-rule="evenodd" clip-rule="evenodd" d="M8.62988 13.5709C10.0003 13.0032 11.5083 12.8547 12.9632 13.1441C14.418 13.4335 15.7544 14.1478 16.8033 15.1967C17.8522 16.2456 18.5665 17.582 18.8559 19.0368C19.1453 20.4917 18.9968 21.9997 18.4291 23.3701C17.8614 24.7406 16.9001 25.9119 15.6668 26.736C14.4334 27.5601 12.9834 28 11.5 28H2.5C2.07531 28 1.69695 27.7318 1.55637 27.331C1.41664 26.9327 1.54216 26.4898 1.86937 26.2239L1.87604 26.2183C1.88506 26.2105 1.90242 26.1953 1.92697 26.1725C1.97611 26.1269 2.05375 26.0511 2.15069 25.9445C2.3447 25.7311 2.61461 25.3954 2.88807 24.9305C3.43158 24.0065 4 22.5549 4 20.5C4 19.0166 4.43987 17.5666 5.26398 16.3332C6.08809 15.0999 7.25943 14.1386 8.62988 13.5709ZM12.573 15.1057C11.5061 14.8935 10.4002 15.0024 9.39524 15.4187C8.39025 15.8349 7.53127 16.5399 6.92692 17.4444C6.32257 18.3488 6 19.4122 6 20.5C6 22.9451 5.31842 24.7435 4.61194 25.9445C4.60097 25.9632 4.59 25.9817 4.57903 26H11.5C12.5878 26 13.6512 25.6774 14.5556 25.0731C15.4601 24.4687 16.1651 23.6098 16.5813 22.6048C16.9976 21.5998 17.1065 20.4939 16.8943 19.427C16.6821 18.3601 16.1583 17.3801 15.3891 16.6109C14.6199 15.8417 13.6399 15.3179 12.573 15.1057ZM1.87451 26.2198C1.8745 26.2198 1.8745 26.2198 1.8745 26.2198L1.87409 26.2201C1.87423 26.22 1.87437 26.2199 1.87451 26.2198Z" fill="black"/>
<path fill-rule="evenodd" clip-rule="evenodd" d="M20.5639 8.73097C18.1145 10.9239 16.0358 13.5254 14.8533 15.1205C14.5244 15.5642 13.8981 15.6572 13.4545 15.3283C13.0108 14.9994 12.9178 14.3731 13.2467 13.9295C14.4642 12.2871 16.6355 9.56364 19.2298 7.2409C21.7792 4.95853 24.9414 2.875 28.125 2.875C28.6773 2.875 29.125 3.32272 29.125 3.875C29.125 7.05859 27.0415 10.2208 24.7591 12.7701C22.4364 15.3645 19.7129 17.5358 18.0705 18.7533C17.6269 19.0822 17.0006 18.9892 16.6717 18.5455C16.3428 18.1019 16.4358 17.4756 16.8795 17.1467C18.4746 15.9642 21.0761 13.8855 23.269 11.4361C25.1627 9.32097 26.6174 7.07585 27.016 4.98401C24.9241 5.38264 22.679 6.83732 20.5639 8.73097Z" fill="black"/>
<path fill-rule="evenodd" clip-rule="evenodd" d="M15.7541 10.8335C16.0256 10.3525 16.6355 10.1827 17.1165 10.4541C18.9689 11.4995 20.5005 13.0311 21.5459 14.8835C21.8173 15.3645 21.6475 15.9744 21.1665 16.2459C20.6855 16.5173 20.0756 16.3475 19.8041 15.8665C18.9378 14.3314 17.6686 13.0622 16.1335 12.1959C15.6525 11.9244 15.4827 11.3145 15.7541 10.8335Z" fill="black"/>
</svg>
