<svg width="32" height="32" viewBox="0 0 32 32" fill="none" xmlns="http://www.w3.org/2000/svg">
<path fill-rule="evenodd" clip-rule="evenodd" d="M26.0124 3.52609C26.353 3.42758 26.7137 3.42194 27.0572 3.50981C27.4027 3.59817 27.718 3.77783 27.9701 4.02994C28.2222 4.28205 28.4018 4.59735 28.4902 4.94277C28.5781 5.28633 28.5724 5.64712 28.4739 5.98771L21.9146 29.2762C21.9142 29.2777 21.9138 29.2791 21.9134 29.2805C21.8045 29.6755 21.5769 30.0275 21.2614 30.2889C20.9447 30.5513 20.5548 30.7096 20.1449 30.7424C19.735 30.7752 19.3249 30.6809 18.9705 30.4722C18.6187 30.265 18.3388 29.9552 18.1683 29.5844L13.109 18.891L2.41558 13.8317C2.04481 13.6612 1.735 13.3813 1.52785 13.0295C1.31917 12.6751 1.2248 12.2651 1.25759 11.8551C1.29039 11.4452 1.44875 11.0553 1.71112 10.7387C1.97253 10.4231 2.32452 10.1955 2.71944 10.0866C2.72088 10.0862 2.72233 10.0858 2.72377 10.0854L26.0124 3.52609ZM26.2875 4.48752L26.5573 5.44537C26.5586 5.44632 26.56 5.44702 26.5616 5.44742C26.5638 5.44798 26.5661 5.44794 26.5682 5.44731L26.2875 4.48752ZM26.5466 5.45346L3.25126 12.0146L3.26518 12.0211L13.9621 17.0821C14.3832 17.2784 14.7216 17.6168 14.9179 18.0379L19.9789 28.7348L19.9854 28.7488L19.9874 28.7414L26.5466 5.45346Z" fill="black"/>
<path fill-rule="evenodd" clip-rule="evenodd" d="M20.2196 11.7804C20.6101 12.1709 20.6101 12.8041 20.2196 13.1946L14.5696 18.8446C14.1791 19.2351 13.5459 19.2351 13.1554 18.8446C12.7649 18.4541 12.7649 17.8209 13.1554 17.4304L18.8054 11.7804C19.1959 11.3899 19.8291 11.3899 20.2196 11.7804Z" fill="black"/>
</svg>
