<svg xmlns="http://www.w3.org/2000/svg" width="32" height="32" fill="none" viewBox="0 0 32 32"><path fill="#000" fill-rule="evenodd" d="M14.9718 3.32377C15.2795 3.14233 15.6302 3.04663 15.9875 3.04663C16.3448 3.04663 16.6955 3.14233 17.0033 3.32377C17.3101 3.5047 17.5631 3.76429 17.736 4.0757C17.7365 4.07659 17.737 4.07749 17.7375 4.07839L29.5628 25.1914C29.7593 25.5471 29.8428 25.9542 29.8022 26.3585C29.7616 26.7628 29.5987 27.1452 29.3354 27.4546C29.0721 27.7641 28.7207 27.986 28.3282 28.0909C27.9358 28.1956 27.5208 28.1785 27.1384 28.0417C27.1382 28.0416 27.1386 28.0417 27.1384 28.0417L15.9892 24.0669C15.9886 24.0667 15.9881 24.0665 15.9875 24.0663C15.9869 24.0665 15.9864 24.0667 15.9858 24.0669L4.83719 28.0414C4.83709 28.0415 4.8373 28.0414 4.83719 28.0414C4.45474 28.1784 4.03933 28.1957 3.64685 28.0909C3.25427 27.986 2.90292 27.7641 2.63959 27.4546C2.37627 27.1452 2.21346 26.7628 2.17283 26.3585C2.13221 25.9542 2.2157 25.5471 2.41219 25.1914L2.41502 25.1863L14.2375 4.07839C14.238 4.07749 14.2385 4.0766 14.239 4.0757C14.4119 3.76429 14.6649 3.5047 14.9718 3.32377ZM27.8122 26.1586L15.9875 5.04664L15.985 5.05118L4.16284 26.1586L15.2981 22.1888C15.7415 22.0162 16.2335 22.0162 16.6769 22.1888L27.8122 26.1586Z" clip-rule="evenodd"/><path fill="#000" fill-rule="evenodd" d="M15.9875 14C16.5398 14 16.9875 14.4477 16.9875 15V23C16.9875 23.5523 16.5398 24 15.9875 24C15.4352 24 14.9875 23.5523 14.9875 23V15C14.9875 14.4477 15.4352 14 15.9875 14Z" clip-rule="evenodd"/></svg>