<svg width="32" height="32" viewBox="0 0 32 32" fill="none" xmlns="http://www.w3.org/2000/svg">
<path fill-rule="evenodd" clip-rule="evenodd" d="M8.99998 10C8.99998 9.44772 9.44769 9 9.99998 9H24C25.8565 9 27.637 9.7375 28.9497 11.0503C30.2625 12.363 31 14.1435 31 16C31 17.8565 30.2625 19.637 28.9497 20.9497C27.637 22.2625 25.8565 23 24 23H5.74998C3.02516 23 0.849976 20.742 0.849976 18C0.849976 15.258 3.02516 13 5.74998 13H23.75C24.5456 13 25.3087 13.3161 25.8713 13.8787C26.4339 14.4413 26.75 15.2043 26.75 16C26.75 16.7957 26.4339 17.5587 25.8713 18.1213C25.3087 18.6839 24.5456 19 23.75 19H9.74998C9.19769 19 8.74998 18.5523 8.74998 18C8.74998 17.4477 9.19769 17 9.74998 17H23.75C24.0152 17 24.2695 16.8946 24.4571 16.7071C24.6446 16.5196 24.75 16.2652 24.75 16C24.75 15.7348 24.6446 15.4804 24.4571 15.2929C24.2695 15.1054 24.0152 15 23.75 15H5.74998C4.17479 15 2.84998 16.317 2.84998 18C2.84998 19.683 4.17479 21 5.74998 21H24C25.3261 21 26.5978 20.4732 27.5355 19.5355C28.4732 18.5979 29 17.3261 29 16C29 14.6739 28.4732 13.4021 27.5355 12.4645C26.5978 11.5268 25.3261 11 24 11H9.99998C9.44769 11 8.99998 10.5523 8.99998 10Z" fill="black"/>
</svg>
