<svg xmlns="http://www.w3.org/2000/svg" width="32" height="32" fill="none" viewBox="0 0 32 32"><path fill="#000" fill-rule="evenodd" d="M5.64148 2.18531C6.04579 2.14469 6.45288 2.22818 6.80856 2.42468L6.81367 2.4275L27.9216 14.25C27.9225 14.2505 27.9234 14.251 27.9243 14.2515C28.2357 14.4244 28.4953 14.6774 28.6762 14.9842C28.8577 15.292 28.9534 15.6427 28.9534 16C28.9534 16.3572 28.8577 16.708 28.6762 17.0157C28.4953 17.3226 28.2357 17.5756 27.9243 17.7485C27.9234 17.749 27.9225 17.7495 27.9216 17.75L6.80857 29.5753C6.45289 29.7718 6.04579 29.8553 5.64148 29.8147C5.23717 29.774 4.85483 29.6112 4.54536 29.3479C4.23588 29.0846 4.01396 28.7332 3.90913 28.3406C3.80443 27.9485 3.8215 27.5338 3.95806 27.1517C3.95803 27.1518 3.95809 27.1516 3.95806 27.1517C3.95819 27.1513 3.95842 27.1507 3.95856 27.1503L7.93306 16.0017C7.93326 16.0011 7.93347 16.0006 7.93367 16C7.93347 15.9994 7.93326 15.9989 7.93306 15.9983L3.95856 4.84968C3.95846 4.84941 3.95865 4.84994 3.95856 4.84968C3.8218 4.46735 3.80437 4.05166 3.90913 3.65933C4.01396 3.26675 4.23588 2.9154 4.54536 2.65208C4.85483 2.38875 5.23718 2.22594 5.64148 2.18531ZM27.4375 15.125L26.9488 15.9975L5.84143 4.17529L5.84193 4.17668L9.81118 15.3106C9.98384 15.7539 9.98384 16.246 9.81118 16.6894L5.84143 27.8247L26.9488 16.0025L26.9534 16L27.4375 15.125Z" clip-rule="evenodd"/><path fill="#000" fill-rule="evenodd" d="M8 16C8 15.4477 8.44772 15 9 15H17C17.5523 15 18 15.4477 18 16C18 16.5523 17.5523 17 17 17H9C8.44772 17 8 16.5523 8 16Z" clip-rule="evenodd"/></svg>