<svg width="32" height="32" viewBox="0 0 32 32" fill="none" xmlns="http://www.w3.org/2000/svg">
<path fill-rule="evenodd" clip-rule="evenodd" d="M5 6C5.55228 6 6 6.44772 6 7V25C6 25.5523 5.55228 26 5 26C4.44772 26 4 25.5523 4 25V7C4 6.44772 4.44772 6 5 6Z" fill="black"/>
<path fill-rule="evenodd" clip-rule="evenodd" d="M13 11C13.5523 11 14 11.4477 14 12V16C14 16.5523 13.5523 17 13 17C12.4477 17 12 16.5523 12 16V12C12 11.4477 12.4477 11 13 11Z" fill="black"/>
<path fill-rule="evenodd" clip-rule="evenodd" d="M8.24913 14.4528C8.42014 13.9277 8.98449 13.6406 9.50963 13.8116L13.3096 15.0491C13.8348 15.2201 14.1218 15.7845 13.9508 16.3096C13.7798 16.8348 13.2155 17.1218 12.6903 16.9508L8.89033 15.7133C8.36519 15.5423 8.07811 14.978 8.24913 14.4528Z" fill="black"/>
<path fill-rule="evenodd" clip-rule="evenodd" d="M13.5874 15.1907C14.0344 15.5151 14.1337 16.1404 13.8092 16.5874L11.4592 19.8249C11.1348 20.2718 10.5095 20.3712 10.0625 20.0467C9.61559 19.7223 9.51627 19.097 9.8407 18.65L12.1907 15.4125C12.5151 14.9656 13.1405 14.8662 13.5874 15.1907Z" fill="black"/>
<path fill-rule="evenodd" clip-rule="evenodd" d="M12.4125 15.1907C12.8595 14.8662 13.4848 14.9656 13.8092 15.4125L16.1592 18.65C16.4837 19.097 16.3843 19.7223 15.9374 20.0467C15.4904 20.3712 14.8651 20.2718 14.5407 19.8249L12.1907 16.5874C11.8662 16.1404 11.9656 15.5151 12.4125 15.1907Z" fill="black"/>
<path fill-rule="evenodd" clip-rule="evenodd" d="M17.7509 14.4528C17.9219 14.978 17.6348 15.5423 17.1097 15.7133L13.3097 16.9508C12.7845 17.1218 12.2202 16.8348 12.0492 16.3096C11.8782 15.7845 12.1652 15.2201 12.6904 15.0491L16.4904 13.8116C17.0155 13.6406 17.5799 13.9277 17.7509 14.4528Z" fill="black"/>
<path fill-rule="evenodd" clip-rule="evenodd" d="M25 11C25.5523 11 26 11.4477 26 12V16C26 16.5523 25.5523 17 25 17C24.4477 17 24 16.5523 24 16V12C24 11.4477 24.4477 11 25 11Z" fill="black"/>
<path fill-rule="evenodd" clip-rule="evenodd" d="M20.2491 14.4528C20.4201 13.9277 20.9845 13.6406 21.5096 13.8116L25.3096 15.0491C25.8348 15.2201 26.1218 15.7845 25.9508 16.3096C25.7798 16.8348 25.2155 17.1218 24.6903 16.9508L20.8903 15.7133C20.3652 15.5423 20.0781 14.978 20.2491 14.4528Z" fill="black"/>
<path fill-rule="evenodd" clip-rule="evenodd" d="M25.5874 15.1907C26.0344 15.5151 26.1337 16.1404 25.8092 16.5874L23.4592 19.8249C23.1348 20.2718 22.5095 20.3712 22.0625 20.0467C21.6156 19.7223 21.5163 19.097 21.8407 18.65L24.1907 15.4125C24.5151 14.9656 25.1405 14.8662 25.5874 15.1907Z" fill="black"/>
<path fill-rule="evenodd" clip-rule="evenodd" d="M24.4125 15.1907C24.8595 14.8662 25.4848 14.9656 25.8092 15.4125L28.1592 18.65C28.4837 19.097 28.3843 19.7223 27.9374 20.0467C27.4904 20.3712 26.8651 20.2718 26.5407 19.8249L24.1907 16.5874C23.8662 16.1404 23.9656 15.5151 24.4125 15.1907Z" fill="black"/>
<path fill-rule="evenodd" clip-rule="evenodd" d="M29.7509 14.4528C29.9219 14.978 29.6348 15.5423 29.1097 15.7133L25.3097 16.9508C24.7845 17.1218 24.2202 16.8348 24.0492 16.3096C23.8782 15.7845 24.1652 15.2201 24.6904 15.0491L28.4904 13.8116C29.0155 13.6406 29.5799 13.9277 29.7509 14.4528Z" fill="black"/>
</svg>
