<svg xmlns="http://www.w3.org/2000/svg" width="32" height="32" fill="none" viewBox="0 0 32 32"><path fill="#000" fill-rule="evenodd" d="M16 18C16.5523 18 17 18.4477 17 19V31C17 31.5523 16.5523 32 16 32C15.4477 32 15 31.5523 15 31V19C15 18.4477 15.4477 18 16 18Z" clip-rule="evenodd"/><path fill="#000" fill-rule="evenodd" d="M16 15C15.1716 15 14.5 15.6716 14.5 16.5C14.5 17.3284 15.1716 18 16 18C16.8284 18 17.5 17.3284 17.5 16.5C17.5 15.6716 16.8284 15 16 15ZM12.5 16.5C12.5 14.567 14.067 13 16 13C17.933 13 19.5 14.567 19.5 16.5C19.5 18.433 17.933 20 16 20C14.067 20 12.5 18.433 12.5 16.5Z" clip-rule="evenodd"/><path fill="#000" fill-rule="evenodd" d="M8.58579 2.58579C8.96086 2.21071 9.46957 2 10 2H22C22.5304 2 23.0391 2.21071 23.4142 2.58579C23.7893 2.96086 24 3.46957 24 4V9C24 9.55228 23.5523 10 23 10C22.4477 10 22 9.55228 22 9V4H10L10 9C10 9.55228 9.55228 10 9 10C8.44772 10 8 9.55228 8 9V4C8 3.46957 8.21071 2.96086 8.58579 2.58579Z" clip-rule="evenodd"/><path fill="#000" fill-rule="evenodd" d="M8.10364 8.55667C8.27225 8.21576 8.61966 8 9 8H23C23.3803 8 23.7277 8.21576 23.8964 8.55667L27.3261 15.4913C27.483 15.8172 27.5497 16.1793 27.5193 16.5397C27.4889 16.9002 27.3624 17.2459 27.1532 17.541L27.1427 17.5555L16.8052 31.593C16.6167 31.8489 16.3178 32 16 32C15.6822 32 15.3833 31.8489 15.1948 31.593L4.85728 17.5555L4.84681 17.541C4.63755 17.2459 4.51114 16.9002 4.48074 16.5397C4.45034 16.1793 4.51706 15.8172 4.67394 15.4913L4.67859 15.4816L8.10364 8.55667ZM9.62104 10L6.47546 16.36C6.47395 16.3637 6.47333 16.3677 6.47367 16.3716C6.47398 16.3753 6.47508 16.3788 6.47689 16.382L16 29.3136L25.5231 16.382C25.5249 16.3788 25.526 16.3753 25.5263 16.3716C25.5267 16.3677 25.526 16.3637 25.5245 16.36L22.379 10H9.62104Z" clip-rule="evenodd"/></svg>