<svg width="32" height="32" viewBox="0 0 32 32" fill="none" xmlns="http://www.w3.org/2000/svg">
<path fill-rule="evenodd" clip-rule="evenodd" d="M14.5 16C13.6716 16 13 16.6716 13 17.5C13 18.3284 13.6716 19 14.5 19C15.3284 19 16 18.3284 16 17.5C16 16.6716 15.3284 16 14.5 16ZM11 17.5C11 15.567 12.567 14 14.5 14C16.433 14 18 15.567 18 17.5C18 19.433 16.433 21 14.5 21C12.567 21 11 19.433 11 17.5Z" fill="black"/>
<path fill-rule="evenodd" clip-rule="evenodd" d="M13.4446 18.5554C13.8351 18.9459 13.8351 19.5791 13.4446 19.9696L4.70711 28.7071C4.31658 29.0976 3.68342 29.0976 3.29289 28.7071C2.90237 28.3166 2.90237 27.6834 3.29289 27.2929L12.0304 18.5554C12.4209 18.1649 13.0541 18.1649 13.4446 18.5554Z" fill="black"/>
<path fill-rule="evenodd" clip-rule="evenodd" d="M14.6487 6.06373C15.0159 5.92595 15.4298 6.01556 15.7071 6.29289L25.7071 16.2929C25.9844 16.5702 26.074 16.9841 25.9363 17.3513L23.138 24.8092C23.0181 25.137 22.814 25.4275 22.5462 25.6514C22.2766 25.8768 21.9521 26.0266 21.6057 26.0858L21.6016 26.0865L4.16405 28.9865C3.84558 29.0394 3.52112 28.9354 3.29285 28.7071C3.06457 28.4788 2.96056 28.1543 3.01357 27.8358L5.91438 10.4059C5.97351 10.0612 6.12149 9.73782 6.34369 9.46769C6.56589 9.19757 6.85466 8.99001 7.18152 8.8655L7.1862 8.86372L14.6487 6.06373ZM7.89301 10.7347C7.89285 10.7347 7.89316 10.7346 7.89301 10.7347C7.89117 10.7355 7.88954 10.7367 7.88827 10.7382C7.88699 10.7398 7.88611 10.7416 7.8857 10.7436C7.88566 10.7437 7.88572 10.7434 7.8857 10.7436L5.21613 26.784L21.2621 24.1154L21.2637 24.1112L23.8375 17.2517L14.7483 8.16251L7.89301 10.7347Z" fill="black"/>
<path fill-rule="evenodd" clip-rule="evenodd" d="M18.2276 2.56935C18.4722 2.46692 18.7348 2.41417 19 2.41417C19.2652 2.41417 19.5278 2.46692 19.7724 2.56935C20.0157 2.67121 20.2364 2.82018 20.4219 3.00766L28.9923 11.5781C29.1798 11.7636 29.3288 11.9843 29.4306 12.2276C29.5331 12.4722 29.5858 12.7348 29.5858 13C29.5858 13.2652 29.5331 13.5278 29.4306 13.7724C29.3288 14.0157 29.1798 14.2364 28.9923 14.4219L25.7071 17.7071C25.3166 18.0976 24.6834 18.0976 24.2929 17.7071C23.9024 17.3166 23.9024 16.6834 24.2929 16.2929L27.5858 13L27.5804 12.9946L19 4.41419L18.9946 4.41962L15.7071 7.7071C15.3166 8.09763 14.6834 8.09763 14.2929 7.7071C13.9024 7.31658 13.9024 6.68341 14.2929 6.29289L17.5782 3.00763C17.7636 2.82016 17.9843 2.67121 18.2276 2.56935Z" fill="black"/>
</svg>
