<svg xmlns="http://www.w3.org/2000/svg" width="32" height="32" fill="none" viewBox="0 0 32 32"><path fill="#000" fill-rule="evenodd" d="M19 4C17.8954 4 17 4.89543 17 6C17 7.10457 17.8954 8 19 8C20.1046 8 21 7.10457 21 6C21 4.89543 20.1046 4 19 4ZM15 6C15 3.79086 16.7909 2 19 2C21.2091 2 23 3.79086 23 6C23 8.20914 21.2091 10 19 10C16.7909 10 15 8.20914 15 6Z" clip-rule="evenodd"/><path fill="#000" fill-rule="evenodd" d="M6.70681 16.7074L6.7091 16.7051L6.72101 16.6934C6.7322 16.6824 6.74984 16.6652 6.77363 16.6422C6.8212 16.5964 6.89328 16.5278 6.98744 16.4407C7.17592 16.2665 7.45192 16.0191 7.79611 15.7326C8.48791 15.1566 9.43896 14.4357 10.4967 13.8305C11.5647 13.2193 12.678 12.7631 13.7046 12.6485C14.6982 12.5377 15.5768 12.7458 16.321 13.4341L16.3222 13.4353C16.6964 13.7802 17.0769 14.1916 17.4846 14.6325C19.2495 16.5407 21.524 19 26 19C26.5523 19 27 18.5523 27 18C27 17.4477 26.5523 17 26 17C22.4738 17 20.8835 15.305 19.1615 13.4695C18.691 12.968 18.2107 12.4561 17.6784 11.9653C16.4227 10.8042 14.9266 10.4998 13.4829 10.6609C12.072 10.8182 10.6853 11.4182 9.50334 12.0946C8.31104 12.7768 7.26209 13.5747 6.51639 14.1956C6.14183 14.5075 5.83971 14.7781 5.62975 14.9722C5.52468 15.0693 5.44247 15.1475 5.38555 15.2024C5.35709 15.2298 5.33493 15.2514 5.31939 15.2667L5.30107 15.2848L5.2957 15.2901L5.29398 15.2918C5.29373 15.2921 5.2929 15.2929 5.98015 15.9802L5.29289 15.2929C4.90237 15.6834 4.90237 16.3166 5.29289 16.7071C5.68332 17.0975 6.31626 17.0976 6.70681 16.7074Z" clip-rule="evenodd"/><path fill="#000" fill-rule="evenodd" d="M16.7111 11.2579C17.2176 11.478 17.4498 12.0671 17.2296 12.5736L9.91713 29.3986C9.69699 29.9051 9.10792 30.1373 8.60141 29.9171C8.09489 29.697 7.86274 29.1079 8.08289 28.6014L15.3954 11.7764C15.6155 11.2699 16.2046 11.0377 16.7111 11.2579Z" clip-rule="evenodd"/><path fill="#000" fill-rule="evenodd" d="M12.8732 17.632C13.1938 17.1823 13.8183 17.0776 14.268 17.3982L19.5805 21.1857C19.8437 21.3734 20 21.6767 20 22V29C20 29.5523 19.5522 30 19 30C18.4477 30 18 29.5523 18 29V22.5152L13.1069 19.0267C12.6572 18.7061 12.5526 18.0817 12.8732 17.632Z" clip-rule="evenodd"/></svg>