<svg width="32" height="32" viewBox="0 0 32 32" fill="none" xmlns="http://www.w3.org/2000/svg">
<path fill-rule="evenodd" clip-rule="evenodd" d="M19 5C17.8954 5 17 5.89543 17 7C17 8.10457 17.8954 9 19 9C20.1046 9 21 8.10457 21 7C21 5.89543 20.1046 5 19 5ZM15 7C15 4.79086 16.7909 3 19 3C21.2091 3 23 4.79086 23 7C23 9.20914 21.2091 11 19 11C16.7909 11 15 9.20914 15 7Z" fill="black"/>
<path fill-rule="evenodd" clip-rule="evenodd" d="M7.67404 13.4387C7.26842 13.8089 6.63939 13.7828 6.26591 13.379C5.89088 12.9736 5.91553 12.3409 6.32096 11.9659L7 12.7C6.32096 11.9659 6.32147 11.9654 6.322 11.9649L6.32314 11.9639L6.32569 11.9615L6.33196 11.9558L6.34908 11.9405C6.36252 11.9286 6.38004 11.9134 6.40156 11.8952C6.4446 11.8589 6.5038 11.8108 6.57868 11.7539C6.72826 11.6403 6.9416 11.4909 7.21488 11.3315C7.76054 11.0132 8.55375 10.6498 9.56064 10.4556C11.6162 10.0591 14.4063 10.3982 17.616 12.9122C20.6435 15.2741 22.961 15.9333 24.4455 16.0499C25.1924 16.1086 25.7476 16.0316 26.0983 15.9499C26.2743 15.9089 26.4001 15.8664 26.4739 15.8383C26.5108 15.8243 26.5347 15.8139 26.5454 15.8091C26.5474 15.8081 26.549 15.8074 26.5501 15.8069C26.5518 15.8061 26.5522 15.8059 26.5514 15.8063L26.5468 15.8086L26.5427 15.8107L26.5401 15.812L26.5387 15.8127C26.538 15.8131 26.5372 15.8135 27 16.7C27.4628 17.5865 27.462 17.5869 27.4612 17.5873L27.4596 17.5881L27.456 17.59L27.4478 17.5941L27.4271 17.6044C27.4114 17.612 27.392 17.6212 27.3687 17.6317C27.3223 17.6527 27.2608 17.6788 27.1846 17.7078C27.0321 17.7658 26.8205 17.8352 26.5521 17.8977C26.0142 18.023 25.253 18.1195 24.2889 18.0438C22.3516 17.8916 19.6694 17.051 16.3849 14.4884L16.3833 14.4872C13.5933 12.3017 11.3837 12.1408 9.93937 12.4194C9.19626 12.5627 8.61447 12.8305 8.22263 13.0591C8.02716 13.1731 7.88113 13.2761 7.78852 13.3465C7.74231 13.3816 7.7097 13.4083 7.69122 13.4239C7.68198 13.4317 7.67631 13.4367 7.67425 13.4385M7.67404 13.4387C7.67404 13.4387 7.67404 13.4387 7.67404 13.4387L7.67404 13.4387Z" fill="black"/>
<path fill-rule="evenodd" clip-rule="evenodd" d="M17.0983 12.6225C17.6382 12.7389 17.9814 13.271 17.865 13.8108C17.565 15.2017 16.4645 18.4176 14.2876 21.2005C12.0925 24.0066 8.70525 26.4783 3.89988 25.995C3.35037 25.9397 2.94971 25.4494 3.00497 24.8999C3.06024 24.3504 3.55051 23.9498 4.10002 24.005C7.99466 24.3967 10.7761 22.4434 12.7123 19.9682C14.6666 17.4699 15.6599 14.5483 15.9099 13.3892C16.0264 12.8493 16.5584 12.506 17.0983 12.6225Z" fill="black"/>
<path fill-rule="evenodd" clip-rule="evenodd" d="M12.8468 19.9423C12.9615 19.4021 13.4925 19.0571 14.0327 19.1718C15.216 19.423 17.4241 20.0507 19.3567 21.5194C21.3279 23.0175 23 25.3886 23 29C23 29.5523 22.5523 30 22 30C21.4478 30 21 29.5523 21 29C21 26.1114 19.7034 24.295 18.1465 23.1118C16.551 21.8992 14.6716 21.352 13.6174 21.1282C13.0771 21.0135 12.7321 20.4826 12.8468 19.9423Z" fill="black"/>
</svg>
