<svg width="32" height="32" viewBox="0 0 32 32" fill="none" xmlns="http://www.w3.org/2000/svg">
<path fill-rule="evenodd" clip-rule="evenodd" d="M10.1104 3.05809C10.5426 3.00264 10.9811 3.09077 11.3583 3.30893C11.7338 3.52611 12.028 3.86016 12.1959 4.26005L14.7047 10.1141C14.7051 10.1149 14.7055 10.1158 14.7058 10.1166C14.8357 10.4168 14.89 10.7443 14.8639 11.0703C14.8377 11.3973 14.7316 11.7128 14.5547 11.9891L14.5481 11.9994L12.4645 15.1683C13.3944 17.0862 14.9454 18.6334 16.8655 19.5587L16.8695 19.5559L19.9921 17.4701C20.2692 17.283 20.589 17.1688 20.922 17.1381C21.255 17.1074 21.5903 17.1613 21.8969 17.2946C21.8982 17.2952 21.8995 17.2957 21.9007 17.2963L27.7404 19.8043C28.1401 19.9722 28.474 20.2663 28.6911 20.6417C28.9092 21.0189 28.9973 21.4574 28.9419 21.8896C28.7256 23.5779 27.9015 25.1296 26.6238 26.2543C25.3461 27.379 23.7024 27.9996 22.0002 28C17.2263 28 12.6477 26.1036 9.27208 22.7279C5.89642 19.3522 4 14.7739 4 9.99998C4.00038 8.29781 4.62098 6.65387 5.74566 5.37619C6.87027 4.09859 8.42217 3.27447 10.1104 3.05809ZM11.5625 15.6L10.6605 16.0317C10.5128 15.7231 10.4467 15.3818 10.4686 15.0404C10.4905 14.699 10.5996 14.3689 10.7855 14.0817L10.7894 14.0756L12.8702 10.9108L12.8683 10.9064L10.3559 5.0439C9.1534 5.2002 8.04823 5.78732 7.2469 6.69766C6.44361 7.61024 6.00033 8.78422 6 9.99998M11.5625 15.6L10.6625 16.0358C11.79 18.3642 13.6727 20.2421 16.004 21.3636L16.0095 21.3663C16.3234 21.5149 16.6706 21.5792 17.0169 21.5529C17.3623 21.5267 17.695 21.4112 17.9823 21.2178C17.9831 21.2173 17.9838 21.2168 17.9845 21.2163L21.1055 19.1315L26.9554 21.6438L26.9569 21.6445C26.8006 22.847 26.2126 23.9518 25.3023 24.7531C24.3897 25.5564 23.2158 25.9997 22 26M6 9.99998C6.00006 14.2434 7.68576 18.3132 10.6863 21.3137C13.6868 24.3142 17.7566 25.9999 22 26" fill="black"/>
<path fill-rule="evenodd" clip-rule="evenodd" d="M20 6C20 5.44772 20.4477 5 21 5H26C26.5523 5 27 5.44772 27 6V11C27 11.5523 26.5523 12 26 12C25.4477 12 25 11.5523 25 11V7H21C20.4477 7 20 6.55228 20 6Z" fill="black"/>
<path fill-rule="evenodd" clip-rule="evenodd" d="M26.7071 5.29289C27.0976 5.68342 27.0976 6.31658 26.7071 6.70711L20.7071 12.7071C20.3166 13.0976 19.6834 13.0976 19.2929 12.7071C18.9024 12.3166 18.9024 11.6834 19.2929 11.2929L25.2929 5.29289C25.6834 4.90237 26.3166 4.90237 26.7071 5.29289Z" fill="black"/>
</svg>
