<svg width="32" height="32" viewBox="0 0 32 32" fill="none" xmlns="http://www.w3.org/2000/svg">
<path fill-rule="evenodd" clip-rule="evenodd" d="M6.71281 18.6959C4.89132 20.5173 4.89087 23.4677 6.70883 25.2856C8.52679 27.1036 11.4771 27.1032 13.2986 25.2817L25.2929 13.2874C27.1144 11.4659 27.1149 8.51554 25.2969 6.69758C23.4789 4.87962 20.5286 4.88007 18.7071 6.70155L6.71281 18.6959ZM5.29462 26.6999C2.69428 24.0995 2.69739 19.8828 5.29859 17.2816L17.2929 5.28734C19.8941 2.68613 24.1108 2.68303 26.7111 5.28336C29.3114 7.8837 29.3083 12.1004 26.7071 14.7016L14.7128 26.6959C12.1116 29.2971 7.89495 29.3002 5.29462 26.6999Z" fill="black"/>
<path fill-rule="evenodd" clip-rule="evenodd" d="M11.2929 11.2929C11.6834 10.9024 12.3166 10.9024 12.7071 11.2929L20.7071 19.2929C21.0976 19.6834 21.0976 20.3166 20.7071 20.7071C20.3166 21.0976 19.6834 21.0976 19.2929 20.7071L11.2929 12.7071C10.9024 12.3166 10.9024 11.6834 11.2929 11.2929Z" fill="black"/>
<path fill-rule="evenodd" clip-rule="evenodd" d="M23.7813 10.3673C24.1653 10.7643 24.1547 11.3973 23.7577 11.7813L20.7077 14.7313C20.3108 15.1153 19.6777 15.1047 19.2937 14.7077C18.9098 14.3107 18.9203 13.6777 19.3173 13.2937L22.3673 10.3437C22.7643 9.95975 23.3973 9.9703 23.7813 10.3673Z" fill="black"/>
</svg>
