<svg xmlns="http://www.w3.org/2000/svg" width="32" height="32" fill="none" viewBox="0 0 32 32"><path fill="#000" fill-rule="evenodd" d="M15.229 10.0266C15.7666 10.1531 16.0999 10.6914 15.9734 11.229L11.9734 28.229C11.8469 28.7666 11.3085 29.0999 10.7709 28.9734C10.2333 28.8469 9.90007 28.3085 10.0266 27.7709L14.0266 10.7709C14.1531 10.2333 14.6914 9.90007 15.229 10.0266Z" clip-rule="evenodd"/><path fill="#000" fill-rule="evenodd" d="M17.5285 5.14673C16.144 4.90814 14.7228 4.99698 13.3788 5.40614C12.0348 5.8153 10.8053 6.53343 9.78862 7.50303C8.77194 8.47262 7.99638 9.66677 7.524 10.9899C7.05162 12.313 6.89555 13.7283 7.06829 15.1225C7.24102 16.5168 7.73776 17.8512 8.51874 19.0191C8.82575 19.4782 8.70247 20.0992 8.24339 20.4062C7.7843 20.7132 7.16325 20.5899 6.85624 20.1309C5.9017 18.7035 5.29458 17.0725 5.08346 15.3684C4.87234 13.6644 5.06309 11.9345 5.64044 10.3174C6.21779 8.70028 7.16571 7.24076 8.40831 6.0557C9.65092 4.87063 11.1537 3.99293 12.7964 3.49284C14.439 2.99275 16.176 2.88417 17.8681 3.17578C19.5603 3.4674 21.1607 4.15111 22.5412 5.17219C23.9217 6.19328 25.044 7.52337 25.8183 9.05601C26.5925 10.5886 26.9972 12.2813 27 13.9984L27 14C27 20.0403 22.5885 24 18 24C15.7588 24 14.2359 23.254 13.264 22.4529C12.7852 22.0583 12.4516 21.66 12.2337 21.3523C12.1247 21.1982 12.044 21.0659 11.9881 20.9666C11.9601 20.9169 11.9382 20.8753 11.922 20.8432C11.9139 20.8272 11.9072 20.8135 11.9018 20.8023L11.8948 20.7875L11.892 20.7816L11.8908 20.7789L11.8903 20.7777C11.89 20.7772 11.8898 20.7766 12.8 20.3625L11.8898 20.7766C11.6611 20.2739 11.8832 19.681 12.3859 19.4522C12.8853 19.225 13.4737 19.4427 13.7057 19.9385C13.706 19.9391 13.7064 19.9399 13.7069 19.9409C13.7102 19.9475 13.718 19.9626 13.7306 19.985C13.756 20.0299 13.8003 20.1037 13.8662 20.1969C13.9984 20.3836 14.2148 20.6448 14.536 20.9095C15.1641 21.4272 16.2412 22 18 22C21.4114 22 24.9998 19.0098 25 14.0004C24.9976 12.5959 24.6664 11.2115 24.0331 9.95782C23.3997 8.70385 22.4814 7.61559 21.3519 6.78016C20.2224 5.94473 18.913 5.38532 17.5285 5.14673Z" clip-rule="evenodd"/></svg>