<svg xmlns="http://www.w3.org/2000/svg" width="32" height="32" fill="none" viewBox="0 0 32 32"><path fill="#000" fill-rule="evenodd" d="M15.229 10.0266C15.7666 10.1531 16.0999 10.6914 15.9734 11.229L11.9734 28.229C11.8469 28.7666 11.3085 29.0999 10.7709 28.9734C10.2333 28.8469 9.90007 28.3086 10.0266 27.771L14.0266 10.771C14.1531 10.2334 14.6914 9.90008 15.229 10.0266Z" clip-rule="evenodd"/><path fill="#000" fill-rule="evenodd" d="M17.5285 5.14678C16.144 4.90818 14.7228 4.99702 13.3788 5.40619C12.0348 5.81535 10.8053 6.53347 9.78862 7.50307C8.77194 8.47267 7.99638 9.66682 7.524 10.9899C7.05162 12.313 6.89555 13.7283 7.06829 15.1226C7.24102 16.5168 7.73776 17.8513 8.51874 19.0191C8.82575 19.4782 8.70247 20.0992 8.24339 20.4063C7.7843 20.7133 7.16325 20.59 6.85624 20.1309C5.9017 18.7036 5.29458 17.0726 5.08346 15.3685C4.87234 13.6644 5.06309 11.9346 5.64044 10.3175C6.21779 8.70032 7.16571 7.24081 8.40831 6.05575C9.65092 4.87068 11.1537 3.99297 12.7964 3.49289C14.439 2.9928 16.176 2.88421 17.8681 3.17583C19.5603 3.46744 21.1607 4.15116 22.5412 5.17224C23.9217 6.19332 25.044 7.52342 25.8183 9.05605C26.5925 10.5887 26.9972 12.2813 27 13.9984L27 14C27 20.0403 22.5885 24 18 24C15.7588 24 14.2359 23.254 13.264 22.4529C12.7852 22.0583 12.4516 21.6601 12.2337 21.3523C12.1247 21.1982 12.044 21.0659 11.9881 20.9666C11.9601 20.9169 11.9382 20.8754 11.922 20.8433C11.9139 20.8272 11.9072 20.8135 11.9018 20.8024L11.8948 20.7876L11.892 20.7816L11.8908 20.779L11.8903 20.7778C11.89 20.7772 11.8898 20.7766 12.8 20.3625L11.8898 20.7766C11.6611 20.2739 11.8832 19.681 12.3859 19.4523C12.8853 19.2251 13.4737 19.4428 13.7057 19.9386C13.706 19.9392 13.7064 19.94 13.7069 19.941C13.7102 19.9475 13.718 19.9626 13.7306 19.985C13.756 20.03 13.8003 20.1037 13.8662 20.1969C13.9984 20.3837 14.2148 20.6448 14.536 20.9096C15.1641 21.4272 16.2412 22 18 22C21.4114 22 24.9998 19.0098 25 14.0005C24.9976 12.596 24.6664 11.2115 24.0331 9.95787C23.3997 8.70389 22.4814 7.61563 21.3519 6.7802C20.2224 5.94477 18.913 5.38537 17.5285 5.14678Z" clip-rule="evenodd"/></svg>