<svg width="32" height="32" viewBox="0 0 32 32" fill="none" xmlns="http://www.w3.org/2000/svg">
<path fill-rule="evenodd" clip-rule="evenodd" d="M13.1581 4.09092L16.846 14.2118C17.7667 13.6429 18.5061 12.8104 18.9608 11.8115C19.5582 10.4992 19.6163 9.00471 19.1226 7.64992C18.629 6.29513 17.623 5.18839 16.3214 4.568C15.3307 4.09581 14.229 3.93411 13.1581 4.09092ZM11.5117 2.44204C13.3707 1.80149 15.4069 1.91659 17.1819 2.76258C18.9569 3.60856 20.3286 5.11776 21.0018 6.9652C21.6749 8.81264 21.5957 10.8505 20.7811 12.6401C19.9665 14.4297 18.4816 15.8278 16.6463 16.5334C16.3959 16.6297 16.1174 16.6213 15.8732 16.5101C15.629 16.399 15.4398 16.1944 15.3479 15.9423L10.8979 3.72985C10.8061 3.47779 10.8194 3.19941 10.9348 2.95724C11.0502 2.71507 11.2581 2.52943 11.5117 2.44204Z" fill="black"/>
<path fill-rule="evenodd" clip-rule="evenodd" d="M11.8115 11.0392C10.4992 10.4418 9.00471 10.3837 7.64992 10.8774C6.29513 11.371 5.18839 12.377 4.568 13.6786C4.09581 14.6693 3.93411 15.771 4.09092 16.8419L14.2118 13.154C13.6429 12.2333 12.8104 11.4939 11.8115 11.0392ZM6.9652 8.99822C8.81264 8.32505 10.8505 8.4043 12.6401 9.21892C14.4297 10.0335 15.8278 11.5184 16.5334 13.3537C16.6297 13.6041 16.6213 13.8826 16.5101 14.1268C16.399 14.371 16.1944 14.5602 15.9423 14.6521L3.72985 19.1021C3.47779 19.1939 3.19941 19.1806 2.95724 19.0652C2.71507 18.9498 2.52943 18.7419 2.44204 18.4883C1.80149 16.6293 1.91659 14.5931 2.76258 12.8181C3.60856 11.0431 5.11776 9.67139 6.9652 8.99822Z" fill="black"/>
<path fill-rule="evenodd" clip-rule="evenodd" d="M14.1268 13.4899C14.371 13.601 14.5602 13.8056 14.6521 14.0577L19.1021 26.2702C19.1939 26.5222 19.1806 26.8006 19.0652 27.0428C18.9498 27.2849 18.7419 27.4706 18.4883 27.558C16.6293 28.1985 14.5931 28.0834 12.8181 27.2374C11.0431 26.3914 9.67139 24.8823 8.99822 23.0348C8.32505 21.1874 8.4043 19.1495 9.21892 17.3599C10.0335 15.5703 11.5184 14.1722 13.3537 13.4666C13.6041 13.3704 13.8826 13.3787 14.1268 13.4899ZM13.154 15.7882C12.2333 16.3571 11.4939 17.1896 11.0392 18.1885C10.4418 19.5008 10.3837 20.9953 10.8774 22.3501C11.371 23.7049 12.377 24.8116 13.6786 25.432C14.6693 25.9042 15.771 26.0659 16.8419 25.9091L13.154 15.7882Z" fill="black"/>
<path fill-rule="evenodd" clip-rule="evenodd" d="M27.0427 10.9348C27.2849 11.0502 27.4705 11.2581 27.5579 11.5118C28.1985 13.3708 28.0834 15.407 27.2374 17.1819C26.3914 18.9569 24.8822 20.3286 23.0348 21.0018C21.1873 21.675 19.1494 21.5957 17.3599 20.7811C15.5703 19.9665 14.1722 18.4817 13.4666 16.6464C13.3703 16.396 13.3787 16.1174 13.4899 15.8732C13.601 15.6291 13.8056 15.4398 14.0576 15.348L26.2701 10.898C26.5222 10.8061 26.8006 10.8194 27.0427 10.9348ZM15.7881 16.846C16.357 17.7668 17.1896 18.5061 18.1884 18.9608C19.5008 19.5582 20.9953 19.6163 22.3501 19.1227C23.7049 18.629 24.8116 17.6231 25.432 16.3214C25.9042 15.3307 26.0659 14.229 25.9091 13.1582L15.7881 16.846Z" fill="black"/>
<path fill-rule="evenodd" clip-rule="evenodd" d="M19.8554 19.8554C20.2459 19.4649 20.8791 19.4649 21.2696 19.8554L28.7071 27.2929C29.0976 27.6834 29.0976 28.3166 28.7071 28.7071C28.3166 29.0976 27.6834 29.0976 27.2929 28.7071L19.8554 21.2696C19.4649 20.8791 19.4649 20.2459 19.8554 19.8554Z" fill="black"/>
</svg>
