<svg xmlns="http://www.w3.org/2000/svg" width="32" height="32" fill="none" viewBox="0 0 32 32"><path fill="#000" fill-rule="evenodd" d="M16 4.99976C11.6174 4.99976 7.34487 6.37255 3.78249 8.92533L3.7728 8.9321L16 28.1284L28.2272 8.9321L28.2175 8.92533C24.6551 6.37255 20.3826 4.99976 16 4.99976ZM2.62569 7.2938C6.52611 4.50135 11.2029 2.99976 16 2.99976C20.7972 2.99976 25.4739 4.50135 29.3743 7.2938C29.7962 7.58544 30.0893 8.02906 30.1917 8.532C30.2949 9.03885 30.1965 9.56595 29.9174 10.0014C29.917 10.0019 29.9167 10.0025 29.9163 10.003L17.6829 29.2091C17.5045 29.4931 17.257 29.7274 16.9637 29.89C16.6688 30.0535 16.3372 30.1393 16 30.1393C15.6629 30.1393 15.3312 30.0535 15.0364 29.89C14.743 29.7274 14.4955 29.4931 14.3171 29.2091L2.08368 10.003C2.08327 10.0024 2.08286 10.0017 2.08246 10.0011C1.80345 9.56574 1.70509 9.03875 1.80831 8.532C1.91076 8.02907 2.20376 7.58544 2.62569 7.2938Z" clip-rule="evenodd"/><path fill="#000" fill-rule="evenodd" d="M16 8.99823C12.0701 8.99823 8.26149 10.3588 5.22108 12.8487C4.79379 13.1986 4.16374 13.1359 3.81382 12.7086C3.4639 12.2813 3.52662 11.6512 3.95391 11.3013C7.35175 8.5187 11.6082 6.99823 16 6.99823C20.3918 6.99823 24.6482 8.5187 28.0461 11.3013C28.4734 11.6512 28.5361 12.2813 28.1862 12.7086C27.8362 13.1359 27.2062 13.1986 26.7789 12.8487C23.7385 10.3588 19.9298 8.99823 16 8.99823Z" clip-rule="evenodd"/><path fill="#000" fill-rule="evenodd" d="M22.4472 17.1843C22.0873 17.0362 21.6978 16.9743 21.3097 17.0033C20.9216 17.0323 20.5456 17.1516 20.2117 17.3515C19.8778 17.5515 19.5952 17.8266 19.3864 18.1551C19.1776 18.4835 19.0484 18.8561 19.009 19.2433C18.9696 19.6305 19.0212 20.0215 19.1595 20.3853C19.2979 20.749 19.5193 21.0754 19.8061 21.3385C20.0929 21.6016 20.4371 21.7941 20.8114 21.9007C21.3426 22.052 21.6505 22.6052 21.4993 23.1364C21.348 23.6676 20.7948 23.9755 20.2636 23.8243C19.5899 23.6324 18.9702 23.2859 18.454 22.8123C17.9378 22.3387 17.5393 21.7512 17.2902 21.0964C17.0411 20.4417 16.9484 19.7378 17.0193 19.0409C17.0902 18.3439 17.3228 17.6732 17.6986 17.082C18.0745 16.4909 18.5832 15.9956 19.1842 15.6357C19.7852 15.2758 20.4619 15.0611 21.1605 15.0089C21.859 14.9566 22.5602 15.0682 23.208 15.3347C23.8559 15.6012 24.4326 16.0152 24.8922 16.5439C25.2546 16.9607 25.2104 17.5923 24.7936 17.9547C24.3768 18.317 23.7452 18.2729 23.3828 17.8561C23.1275 17.5624 22.8071 17.3324 22.4472 17.1843Z" clip-rule="evenodd"/><path fill="#000" fill-rule="evenodd" d="M11.5371 15.2266C11.1236 15.0374 10.6663 14.9646 10.2145 15.016C9.76264 15.0674 9.3334 15.2411 8.97293 15.5183C8.61247 15.7955 8.33445 16.1658 8.1688 16.5893C7.96761 17.1036 7.38756 17.3575 6.87323 17.1563C6.35889 16.9551 6.10504 16.3751 6.30622 15.8607C6.6044 15.0984 7.10484 14.4319 7.75367 13.9329C8.4025 13.4339 9.17514 13.1213 9.98842 13.0288C10.8017 12.9363 11.6248 13.0674 12.3691 13.4079C13.1135 13.7484 13.7508 14.2855 14.2126 14.9614C14.6743 15.6372 14.943 16.4262 14.9897 17.2434C15.0364 18.0606 14.8593 18.875 14.4775 19.599C14.0957 20.3231 13.5236 20.9292 12.8229 21.3523C12.1222 21.7754 11.3194 21.9993 10.5009 22H10.275C9.72273 22 9.27501 21.5523 9.27501 21C9.27501 20.4477 9.72273 20 10.275 20L10.4992 20C10.499 20 10.4993 20 10.4992 20C10.9537 19.9995 11.4 19.8751 11.7892 19.6402C12.1785 19.4051 12.4963 19.0684 12.7084 18.6661C12.9205 18.2639 13.0189 17.8114 12.9929 17.3574C12.967 16.9034 12.8177 16.4651 12.5612 16.0896C12.3047 15.7142 11.9506 15.4158 11.5371 15.2266Z" clip-rule="evenodd"/></svg>