<svg xmlns="http://www.w3.org/2000/svg" width="32" height="32" fill="none" viewBox="0 0 32 32"><path fill="#000" fill-rule="evenodd" d="M4 6C4 4.89543 4.89543 4 6 4H26C27.1046 4 28 4.89543 28 6V26C28 27.1046 27.1046 28 26 28H6C4.89543 28 4 27.1046 4 26V6ZM26 6H6V26H26V6Z" clip-rule="evenodd"/><path fill="#000" fill-rule="evenodd" d="M4.5804 4.58039C4.97092 4.18987 5.60409 4.18987 5.99461 4.58039L27.4196 26.0054C27.8101 26.3959 27.8101 27.0291 27.4196 27.4196C27.0291 27.8101 26.3959 27.8101 26.0054 27.4196L4.5804 5.99461C4.18988 5.60408 4.18988 4.97092 4.5804 4.58039Z" clip-rule="evenodd"/></svg>