<svg xmlns="http://www.w3.org/2000/svg" width="32" height="32" fill="none" viewBox="0 0 32 32"><path fill="#000" fill-rule="evenodd" d="M16 6C10.4772 6 6 10.4772 6 16C6 21.5228 10.4772 26 16 26C21.5228 26 26 21.5228 26 16C26 10.4772 21.5228 6 16 6ZM4 16C4 9.37258 9.37258 4 16 4C22.6274 4 28 9.37258 28 16C28 22.6274 22.6274 28 16 28C9.37258 28 4 22.6274 4 16Z" clip-rule="evenodd"/><path fill="#000" fill-rule="evenodd" d="M27.3934 7.91394C26.3648 7.85399 24.9666 8.04174 23.2896 8.50187C22.757 8.64799 22.2068 8.3347 22.0606 7.80209C21.9145 7.26949 22.2278 6.71927 22.7604 6.57314C24.5458 6.08327 26.1789 5.83976 27.5097 5.91732C28.7964 5.99231 30.08 6.3913 30.7257 7.49512L30.7291 7.50093L30.729 7.50094C31.3058 8.50241 31.1144 9.67126 30.6593 10.7129C30.1942 11.7774 29.3676 12.9234 28.301 14.0808C26.1592 16.4049 22.8876 18.9487 18.9996 21.1912C15.1121 23.4335 11.2736 24.9949 8.18962 25.6882C6.65371 26.0334 5.24768 26.1767 4.09243 26.0473C2.9616 25.9207 1.85372 25.5019 1.27288 24.5025L1.27075 24.4988C0.632684 23.39 0.930896 22.0768 1.50765 20.9267C2.10506 19.7354 3.13138 18.4415 4.44637 17.1394C4.83881 16.7508 5.47197 16.7539 5.86056 17.1464C6.24916 17.5388 6.24604 18.172 5.8536 18.5606C4.61858 19.7835 3.75741 20.9021 3.29544 21.8233C2.81418 22.783 2.87941 23.2822 3.00316 23.4994C3.11708 23.6935 3.44581 23.9624 4.31495 24.0597C5.16244 24.1546 6.32594 24.0572 7.75097 23.7369C10.5889 23.0989 14.2378 21.629 18.0003 19.4588C21.7624 17.2888 24.8595 14.8639 26.8303 12.7254C27.8198 11.6517 28.4855 10.6929 28.8266 9.91213C29.176 9.11245 29.1074 8.69552 28.9976 8.50197C28.8664 8.28102 28.4613 7.97617 27.3934 7.91394Z" clip-rule="evenodd"/></svg>