<svg xmlns="http://www.w3.org/2000/svg" width="32" height="32" fill="none" viewBox="0 0 32 32"><path fill="#000" fill-rule="evenodd" d="M10.2071 14.7929C10.5977 15.1834 10.5977 15.8166 10.2071 16.2071L6.33092 20.0833C6.14447 20.2691 5.99653 20.4899 5.89558 20.733C5.79464 20.9761 5.74268 21.2368 5.74268 21.5C5.74268 21.7632 5.79464 22.0239 5.89558 22.267C5.99653 22.5101 6.14447 22.7309 6.33092 22.9167L6.33215 22.9179L9.08338 25.6691C9.26918 25.8556 9.48997 26.0035 9.73307 26.1045C9.97617 26.2054 10.2368 26.2574 10.5 26.2574C10.7633 26.2574 11.0239 26.2054 11.267 26.1045C11.5101 26.0035 11.7309 25.8556 11.9167 25.6691L15.7929 21.7929C16.1835 21.4024 16.8166 21.4024 17.2071 21.7929C17.5977 22.1834 17.5977 22.8166 17.2071 23.2071L13.3334 27.0809C13.3332 27.0811 13.3336 27.0807 13.3334 27.0809C12.9619 27.4535 12.5199 27.7498 12.034 27.9516C11.5478 28.1534 11.0265 28.2574 10.5 28.2574C9.97359 28.2574 9.45231 28.1534 8.9661 27.9516C8.48015 27.7498 8.03878 27.4541 7.66729 27.0815C7.6671 27.0813 7.66749 27.0817 7.66729 27.0815L4.91916 24.3333C4.91893 24.3331 4.9194 24.3336 4.91916 24.3333C4.54659 23.9619 4.25025 23.5198 4.04849 23.0339C3.8466 22.5477 3.74268 22.0265 3.74268 21.5C3.74268 20.9735 3.8466 20.4523 4.04849 19.9661C4.25025 19.4802 4.54588 19.0388 4.91845 18.6674C4.91869 18.6671 4.91893 18.6669 4.91916 18.6667L8.79293 14.7929C9.18346 14.4024 9.81662 14.4024 10.2071 14.7929Z" clip-rule="evenodd"/><path fill="#000" fill-rule="evenodd" d="M7.70711 24.2929C8.09763 24.6834 8.09763 25.3166 7.70711 25.7071L3.70711 29.7071C3.31658 30.0976 2.68342 30.0976 2.29289 29.7071C1.90237 29.3166 1.90237 28.6834 2.29289 28.2929L6.29289 24.2929C6.68342 23.9024 7.31658 23.9024 7.70711 24.2929Z" clip-rule="evenodd"/><path fill="#000" fill-rule="evenodd" d="M29.7071 2.29289C30.0976 2.68342 30.0976 3.31658 29.7071 3.70711L25.7071 7.70711C25.3166 8.09763 24.6834 8.09763 24.2929 7.70711C23.9024 7.31658 23.9024 6.68342 24.2929 6.29289L28.2929 2.29289C28.6834 1.90237 29.3166 1.90237 29.7071 2.29289Z" clip-rule="evenodd"/><path fill="#000" fill-rule="evenodd" d="M18.7071 17.2929C19.0976 17.6834 19.0976 18.3166 18.7071 18.7071L15.7071 21.7071C15.3166 22.0976 14.6834 22.0976 14.2929 21.7071C13.9024 21.3166 13.9024 20.6834 14.2929 20.2929L17.2929 17.2929C17.6834 16.9024 18.3166 16.9024 18.7071 17.2929Z" clip-rule="evenodd"/><path fill="#000" fill-rule="evenodd" d="M14.7071 13.2929C15.0976 13.6834 15.0976 14.3166 14.7071 14.7071L11.7071 17.7071C11.3166 18.0976 10.6834 18.0976 10.2929 17.7071C9.90237 17.3166 9.90237 16.6834 10.2929 16.2929L13.2929 13.2929C13.6834 12.9024 14.3166 12.9024 14.7071 13.2929Z" clip-rule="evenodd"/><path fill="#000" fill-rule="evenodd" d="M19.9661 4.04845C20.4523 3.84656 20.9735 3.74263 21.5 3.74263C22.0265 3.74263 22.5477 3.84656 23.0339 4.04845C23.5198 4.25021 23.9612 4.54584 24.3326 4.91841C24.3324 4.91818 24.3329 4.91865 24.3326 4.91841L27.0809 7.66667C27.0807 7.66647 27.0811 7.66686 27.0809 7.66667C27.4535 8.03816 27.7498 8.48011 27.9516 8.96606C28.1534 9.45227 28.2574 9.97354 28.2574 10.5C28.2574 11.0265 28.1534 11.5477 27.9516 12.0339C27.7498 12.5199 27.4541 12.9613 27.0815 13.3327C27.0813 13.3329 27.0817 13.3326 27.0815 13.3327L23.2071 17.2071C22.8166 17.5976 22.1834 17.5976 21.7929 17.2071C21.4024 16.8166 21.4024 16.1834 21.7929 15.7929L25.6691 11.9167C25.8556 11.7309 26.0035 11.5101 26.1045 11.267C26.2054 11.0239 26.2574 10.7632 26.2574 10.5C26.2574 10.2368 26.2054 9.97613 26.1045 9.73303C26.0035 9.48993 25.8556 9.26914 25.6691 9.08333L22.9167 6.33088C22.7309 6.14442 22.5101 5.99648 22.267 5.89554C22.0239 5.7946 21.7632 5.74263 21.5 5.74263C21.2368 5.74263 20.9761 5.7946 20.733 5.89554C20.4899 5.99648 20.2691 6.14442 20.0833 6.33088L16.2071 10.2071C15.8166 10.5976 15.1834 10.5976 14.7929 10.2071C14.4024 9.81658 14.4024 9.18342 14.7929 8.79289L18.6667 4.91912C18.6669 4.91889 18.6671 4.91865 18.6674 4.91841C19.0388 4.54584 19.4802 4.25021 19.9661 4.04845Z" clip-rule="evenodd"/><path fill="#000" fill-rule="evenodd" d="M13.7929 7.79289C14.1834 7.40237 14.8166 7.40237 15.2071 7.79289L24.2071 16.7929C24.5976 17.1834 24.5976 17.8166 24.2071 18.2071C23.8166 18.5976 23.1834 18.5976 22.7929 18.2071L13.7929 9.20711C13.4024 8.81658 13.4024 8.18342 13.7929 7.79289Z" clip-rule="evenodd"/><path fill="#000" fill-rule="evenodd" d="M7.79289 13.7929C8.18342 13.4024 8.81658 13.4024 9.20711 13.7929L18.2071 22.7929C18.5976 23.1834 18.5976 23.8166 18.2071 24.2071C17.8166 24.5976 17.1834 24.5976 16.7929 24.2071L7.79289 15.2071C7.40237 14.8166 7.40237 14.1834 7.79289 13.7929Z" clip-rule="evenodd"/></svg>