<svg width="32" height="32" viewBox="0 0 32 32" fill="none" xmlns="http://www.w3.org/2000/svg">
<path fill-rule="evenodd" clip-rule="evenodd" d="M16.2071 4.79289C16.5976 5.18342 16.5976 5.81658 16.2071 6.20711L9.03069 13.3835C8.75206 13.661 8.53098 13.9909 8.38012 14.3541C8.22927 14.7173 8.15161 15.1067 8.15161 15.5C8.15161 15.8933 8.22927 16.2827 8.38012 16.6459C8.53098 17.0091 8.75206 17.339 9.03069 17.6165L9.03205 17.6179L14.3834 22.9693C14.661 23.2479 14.9908 23.469 15.354 23.6198C15.7172 23.7707 16.1067 23.8483 16.4999 23.8483C16.8932 23.8483 17.2827 23.7707 17.6459 23.6198C18.0091 23.469 18.3389 23.2479 18.6165 22.9693L18.6178 22.9679L25.7928 15.7929C26.1834 15.4024 26.8165 15.4024 27.2071 15.7929C27.5976 16.1834 27.5976 16.8166 27.2071 17.2071L20.0334 24.3807C20.0331 24.381 20.0329 24.3813 20.0326 24.3815C19.5694 24.8463 19.019 25.2151 18.413 25.4668C17.8066 25.7187 17.1565 25.8483 16.4999 25.8483C15.8434 25.8483 15.1932 25.7187 14.5869 25.4668C13.9808 25.2151 13.4304 24.8463 12.9671 24.3814C12.9669 24.3812 12.9673 24.3816 12.9671 24.3814L7.6192 19.0335C7.61896 19.0332 7.61943 19.0337 7.6192 19.0335C7.15437 18.5702 6.78482 18.0191 6.5331 17.4131C6.28125 16.8067 6.15161 16.1566 6.15161 15.5C6.15161 14.8434 6.28125 14.1933 6.5331 13.5869C6.78483 12.9808 7.15371 12.4304 7.61859 11.9671C7.61838 11.9673 7.61879 11.9669 7.61859 11.9671L14.7928 4.79289C15.1834 4.40237 15.8165 4.40237 16.2071 4.79289Z" fill="black"/>
<path fill-rule="evenodd" clip-rule="evenodd" d="M11.7071 20.2929C12.0976 20.6834 12.0976 21.3166 11.7071 21.7071L4.70711 28.7071C4.31658 29.0976 3.68342 29.0976 3.29289 28.7071C2.90237 28.3166 2.90237 27.6834 3.29289 27.2929L10.2929 20.2929C10.6834 19.9024 11.3166 19.9024 11.7071 20.2929Z" fill="black"/>
<path fill-rule="evenodd" clip-rule="evenodd" d="M23.7071 2.29289C24.0976 2.68342 24.0976 3.31658 23.7071 3.70711L18.7071 8.70711C18.3166 9.09763 17.6834 9.09763 17.2929 8.70711C16.9024 8.31658 16.9024 7.68342 17.2929 7.29289L22.2929 2.29289C22.6834 1.90237 23.3166 1.90237 23.7071 2.29289Z" fill="black"/>
<path fill-rule="evenodd" clip-rule="evenodd" d="M29.7071 8.29289C30.0976 8.68342 30.0976 9.31658 29.7071 9.70711L24.7071 14.7071C24.3166 15.0976 23.6834 15.0976 23.2929 14.7071C22.9024 14.3166 22.9024 13.6834 23.2929 13.2929L28.2929 8.29289C28.6834 7.90237 29.3166 7.90237 29.7071 8.29289Z" fill="black"/>
<path fill-rule="evenodd" clip-rule="evenodd" d="M13.2929 3.29289C13.6834 2.90237 14.3166 2.90237 14.7071 3.29289L28.7071 17.2929C29.0976 17.6834 29.0976 18.3166 28.7071 18.7071C28.3166 19.0976 27.6834 19.0976 27.2929 18.7071L13.2929 4.70711C12.9024 4.31658 12.9024 3.68342 13.2929 3.29289Z" fill="black"/>
</svg>
