<svg width="32" height="32" viewBox="0 0 32 32" fill="none" xmlns="http://www.w3.org/2000/svg">
<path fill-rule="evenodd" clip-rule="evenodd" d="M10.7071 21.2929C11.0976 21.6834 11.0976 22.3166 10.7071 22.7071L3.70711 29.7071C3.31658 30.0976 2.68342 30.0976 2.29289 29.7071C1.90237 29.3166 1.90237 28.6834 2.29289 28.2929L9.29289 21.2929C9.68342 20.9024 10.3166 20.9024 10.7071 21.2929Z" fill="black"/>
<path fill-rule="evenodd" clip-rule="evenodd" d="M29.7071 2.29289C30.0976 2.68342 30.0976 3.31658 29.7071 3.70711L22.7071 10.7071C22.3166 11.0976 21.6834 11.0976 21.2929 10.7071C20.9024 10.3166 20.9024 9.68342 21.2929 9.29289L28.2929 2.29289C28.6834 1.90237 29.3166 1.90237 29.7071 2.29289Z" fill="black"/>
<path fill-rule="evenodd" clip-rule="evenodd" d="M9.32907 17.0872C8.54802 17.8682 8.54802 19.1346 9.32907 19.9156L12.0868 22.6733C12.8678 23.4544 14.1342 23.4544 14.9152 22.6733L22.6757 14.9128C23.4568 14.1318 23.4568 12.8654 22.6757 12.0844L19.918 9.32668C19.1369 8.54563 17.8706 8.54563 17.0896 9.32668L9.32907 17.0872ZM7.91485 21.3298C6.35276 19.7677 6.35276 17.2351 7.91485 15.673L15.6753 7.91247C17.2374 6.35037 19.7701 6.35037 21.3322 7.91247L24.0899 10.6702C25.652 12.2323 25.652 14.7649 24.0899 16.327L16.3294 24.0875C14.7673 25.6496 12.2347 25.6496 10.6726 24.0875L7.91485 21.3298Z" fill="black"/>
<path fill-rule="evenodd" clip-rule="evenodd" d="M10.7929 10.7929C11.1834 10.4024 11.8166 10.4024 12.2071 10.7929L21.2071 19.7929C21.5976 20.1834 21.5976 20.8166 21.2071 21.2071C20.8166 21.5976 20.1834 21.5976 19.7929 21.2071L10.7929 12.2071C10.4024 11.8166 10.4024 11.1834 10.7929 10.7929Z" fill="black"/>
<path fill-rule="evenodd" clip-rule="evenodd" d="M24.0513 18.6838C24.226 18.1598 24.7923 17.8767 25.3163 18.0513L28.3163 19.0513C28.8402 19.226 29.1234 19.7923 28.9487 20.3162C28.7741 20.8402 28.2077 21.1233 27.6838 20.9487L24.6838 19.9487C24.1599 19.774 23.8767 19.2077 24.0513 18.6838Z" fill="black"/>
<path fill-rule="evenodd" clip-rule="evenodd" d="M3.05134 11.6838C3.22599 11.1598 3.79231 10.8767 4.31625 11.0513L7.31625 12.0513C7.8402 12.226 8.12336 12.7923 7.94871 13.3162C7.77406 13.8402 7.20774 14.1233 6.6838 13.9487L3.6838 12.9487C3.15986 12.774 2.8767 12.2077 3.05134 11.6838Z" fill="black"/>
<path fill-rule="evenodd" clip-rule="evenodd" d="M11.6838 3.05132C12.2077 2.87667 12.7741 3.15983 12.9487 3.68377L13.9487 6.68377C14.1234 7.20772 13.8402 7.77404 13.3163 7.94868C12.7923 8.12333 12.226 7.84017 12.0513 7.31623L11.0513 4.31623C10.8767 3.79228 11.1599 3.22596 11.6838 3.05132Z" fill="black"/>
<path fill-rule="evenodd" clip-rule="evenodd" d="M18.6838 24.0513C19.2077 23.8767 19.7741 24.1598 19.9487 24.6838L20.9487 27.6838C21.1234 28.2077 20.8402 28.774 20.3163 28.9487C19.7923 29.1233 19.226 28.8402 19.0513 28.3162L18.0513 25.3162C17.8767 24.7923 18.1599 24.226 18.6838 24.0513Z" fill="black"/>
</svg>
