<svg width="32" height="32" viewBox="0 0 32 32" fill="none" xmlns="http://www.w3.org/2000/svg">
<path fill-rule="evenodd" clip-rule="evenodd" d="M15.2481 9.22372C15.4866 9.12554 15.742 9.07501 16 9.07501C16.258 9.07501 16.5134 9.12554 16.7519 9.22373L21.0535 10.9444L26.0869 9.50124L26.1036 9.49661C26.4381 9.40694 26.7901 9.40512 27.1256 9.49133C27.461 9.57753 27.7685 9.74885 28.0184 9.9887C28.2682 10.2285 28.4519 10.5288 28.5517 10.8605C28.6516 11.1921 28.6641 11.5439 28.5882 11.8818L28.586 11.8915L25.1609 26.454L25.1596 26.4595C25.0544 26.8955 24.8066 27.2839 24.4555 27.563C24.1044 27.8421 23.6701 27.9959 23.2216 28L23.2125 28.0001L8.77835 28C8.32986 27.9959 7.8956 27.8421 7.54449 27.563C7.19339 27.2839 6.94557 26.8955 6.84039 26.4595L6.83904 26.454L3.41406 11.8915L4.3875 11.6625L3.41184 11.8818C3.33589 11.5439 3.34843 11.1921 3.44825 10.8605C3.54807 10.5288 3.73179 10.2285 3.98163 9.9887C4.23148 9.74885 4.53899 9.57753 4.87443 9.49133C5.20987 9.40512 5.56187 9.40694 5.8964 9.49661L5.91311 9.50124L10.9465 10.9444L15.2481 9.22372ZM5.36298 11.4423L8.78475 25.991C8.78547 25.9935 8.78695 25.9957 8.78898 25.9973C8.79092 25.9989 8.79327 25.9998 8.79573 26H23.2043C23.2067 25.9998 23.2091 25.9989 23.211 25.9973C23.2123 25.9963 23.2134 25.995 23.2142 25.9936C23.2146 25.9928 23.215 25.9919 23.2152 25.991C23.2152 25.9912 23.2153 25.9908 23.2152 25.991L26.637 11.4423C26.6373 11.4405 26.6371 11.4386 26.6366 11.4369C26.636 11.4348 26.6349 11.433 26.6333 11.4315C26.6317 11.43 26.6298 11.4289 26.6278 11.4284C26.6262 11.428 26.6247 11.4279 26.6231 11.4281L21.2756 12.9613C21.0623 13.0224 20.8347 13.0109 20.6286 12.9285L16.0036 11.0785L16 11.077L15.9964 11.0785L11.3714 12.9285C11.1653 13.0109 10.9377 13.0224 10.7244 12.9613L5.37689 11.4281C5.37534 11.4279 5.37376 11.428 5.37224 11.4284C5.37016 11.4289 5.36825 11.43 5.3667 11.4315C5.36515 11.433 5.364 11.4348 5.36338 11.4369C5.36286 11.4386 5.36272 11.4405 5.36298 11.4423Z" fill="black"/>
<path fill-rule="evenodd" clip-rule="evenodd" d="M10.8678 11.0088C11.4153 10.9358 11.9182 11.3204 11.9912 11.8678L13.9912 26.8678C14.0642 27.4153 13.6796 27.9182 13.1322 27.9912C12.5847 28.0642 12.0818 27.6796 12.0088 27.1322L10.0088 12.1322C9.93577 11.5847 10.3204 11.0818 10.8678 11.0088Z" fill="black"/>
<path fill-rule="evenodd" clip-rule="evenodd" d="M21.1322 11.0088C21.6796 11.0818 22.0642 11.5847 21.9912 12.1322L19.9912 27.1322C19.9182 27.6796 19.4153 28.0642 18.8678 27.9912C18.3204 27.9182 17.9358 27.4153 18.0088 26.8678L20.0088 11.8678C20.0818 11.3204 20.5847 10.9358 21.1322 11.0088Z" fill="black"/>
<path fill-rule="evenodd" clip-rule="evenodd" d="M12.551 3.1989C13.5274 2.40993 14.7447 1.97955 16 1.97955C17.2553 1.97955 18.4726 2.40993 19.449 3.1989C20.12 3.74116 20.6494 4.43028 21.0004 5.20671C21.5327 5.05583 22.087 4.98554 22.6446 5.00021C23.5936 5.02517 24.52 5.29535 25.3337 5.78446C26.1473 6.27357 26.8205 6.96495 27.2877 7.79135C27.755 8.61775 28.0004 9.55101 28 10.5004C27.9998 11.0526 27.5519 11.5002 26.9996 11.5C26.4473 11.4998 25.9998 11.0519 26 10.4996C26.0002 9.89548 25.8441 9.30159 25.5467 8.7757C25.2494 8.24981 24.821 7.80984 24.3032 7.49859C23.7855 7.18734 23.1959 7.0154 22.592 6.99952C21.9881 6.98364 21.3904 7.12434 20.8569 7.40794C20.5801 7.55516 20.2501 7.56396 19.9658 7.43172C19.6815 7.29948 19.4756 7.04152 19.4098 6.73491C19.2423 5.95491 18.8125 5.25591 18.192 4.75449C17.5714 4.25307 16.7978 3.97955 16 3.97955C15.2022 3.97955 14.4286 4.25307 13.808 4.75449C13.1875 5.25591 12.7577 5.95491 12.5902 6.73491C12.5244 7.04152 12.3185 7.29948 12.0342 7.43172C11.7499 7.56396 11.4199 7.55516 11.1431 7.40794C10.6096 7.12434 10.0119 6.98364 9.40798 6.99952C8.80406 7.0154 8.21454 7.18734 7.69676 7.49859C7.17899 7.80984 6.7506 8.24981 6.45326 8.7757C6.15593 9.30159 5.99978 9.89548 6 10.4996C6.00021 11.0519 5.55266 11.4998 5.00037 11.5C4.44809 11.5002 4.00021 11.0526 4 10.5004C3.99965 9.55101 4.24503 8.61775 4.71227 7.79135C5.17951 6.96495 5.8527 6.27357 6.66634 5.78446C7.47999 5.29535 8.40638 5.02517 9.35539 5.00021C9.913 4.98554 10.4673 5.05583 10.9996 5.20671C11.3506 4.43028 11.88 3.74116 12.551 3.1989Z" fill="black"/>
</svg>
