<svg xmlns="http://www.w3.org/2000/svg" width="32" height="32" fill="none" viewBox="0 0 32 32"><path fill="#000" fill-rule="evenodd" d="M16 5C16.5523 5 17 5.44772 17 6V15.5C17 16.0523 16.5523 16.5 16 16.5C15.4477 16.5 15 16.0523 15 15.5V6C15 5.44772 15.4477 5 16 5Z" clip-rule="evenodd"/><path fill="#000" fill-rule="evenodd" d="M10.8381 6.22955C11.1394 6.69244 11.0083 7.3119 10.5455 7.61314C8.73867 8.78899 7.36022 10.5172 6.61557 12.5402C5.87091 14.5632 5.79993 16.7727 6.41319 18.8394C7.02645 20.906 8.29112 22.7191 10.0187 24.0085C11.7463 25.2979 13.8443 25.9945 16 25.9945C18.1557 25.9945 20.2537 25.2979 21.9813 24.0085C23.7089 22.7191 24.9736 20.906 25.5868 18.8394C26.2001 16.7727 26.1291 14.5632 25.3844 12.5402C24.6398 10.5172 23.2613 8.78899 21.4545 7.61314C20.9917 7.3119 20.8606 6.69244 21.1619 6.22955C21.4631 5.76666 22.0826 5.63562 22.5455 5.93686C24.7136 7.34787 26.3677 9.42174 27.2613 11.8494C28.1549 14.277 28.2401 16.9284 27.5042 19.4083C26.7683 21.8883 25.2507 24.0641 23.1776 25.6113C21.1045 27.1586 18.5869 27.9945 16 27.9945C13.4131 27.9945 10.8955 27.1586 8.82244 25.6113C6.74934 24.0641 5.23174 21.8883 4.49582 19.4083C3.75991 16.9284 3.84509 14.277 4.73868 11.8494C5.63226 9.42174 7.2864 7.34787 9.45455 5.93686C9.91744 5.63562 10.5369 5.76666 10.8381 6.22955Z" clip-rule="evenodd"/></svg>