<svg xmlns="http://www.w3.org/2000/svg" width="32" height="32" fill="none" viewBox="0 0 32 32"><path fill="#000" fill-rule="evenodd" d="M3 7C3 5.89543 3.89543 5 5 5H27C28.1046 5 29 5.89543 29 7V22C29 23.1046 28.1046 24 27 24H5C3.89543 24 3 23.1046 3 22V7ZM27 7H5V22H27V7Z" clip-rule="evenodd"/><path fill="#000" fill-rule="evenodd" d="M19.3753 22.2191C19.8065 21.8741 20.4358 21.944 20.7808 22.3753L24.7808 27.3753C25.1259 27.8066 25.0559 28.4359 24.6247 28.7809C24.1934 29.1259 23.5641 29.056 23.2191 28.6247L19.2191 23.6247C18.8741 23.1934 18.944 22.5641 19.3753 22.2191Z" clip-rule="evenodd"/><path fill="#000" fill-rule="evenodd" d="M12.6247 22.2191C13.0559 22.5641 13.1259 23.1934 12.7808 23.6247L8.78084 28.6247C8.43584 29.056 7.80654 29.1259 7.37528 28.7809C6.94402 28.4359 6.8741 27.8066 7.21911 27.3753L11.2191 22.3753C11.5641 21.944 12.1934 21.8741 12.6247 22.2191Z" clip-rule="evenodd"/><path fill="#000" fill-rule="evenodd" d="M12 14C12.5523 14 13 14.4477 13 15V18C13 18.5523 12.5523 19 12 19C11.4477 19 11 18.5523 11 18V15C11 14.4477 11.4477 14 12 14Z" clip-rule="evenodd"/><path fill="#000" fill-rule="evenodd" d="M16 12C16.5523 12 17 12.4477 17 13V18C17 18.5523 16.5523 19 16 19C15.4477 19 15 18.5523 15 18V13C15 12.4477 15.4477 12 16 12Z" clip-rule="evenodd"/><path fill="#000" fill-rule="evenodd" d="M20 10C20.5523 10 21 10.4477 21 11V18C21 18.5523 20.5523 19 20 19C19.4477 19 19 18.5523 19 18V11C19 10.4477 19.4477 10 20 10Z" clip-rule="evenodd"/><path fill="#000" fill-rule="evenodd" d="M16 2C16.5523 2 17 2.44772 17 3V6C17 6.55228 16.5523 7 16 7C15.4477 7 15 6.55228 15 6V3C15 2.44772 15.4477 2 16 2Z" clip-rule="evenodd"/></svg>