<svg xmlns="http://www.w3.org/2000/svg" width="32" height="32" fill="none" viewBox="0 0 32 32"><path fill="#000" fill-rule="evenodd" d="M16 5C9.92487 5 5 9.92487 5 16C5 22.0751 9.92487 27 16 27C22.0751 27 27 22.0751 27 16C27 9.92487 22.0751 5 16 5ZM3 16C3 8.8203 8.8203 3 16 3C23.1797 3 29 8.8203 29 16C29 23.1797 23.1797 29 16 29C8.8203 29 3 23.1797 3 16Z" clip-rule="evenodd"/><path fill="#000" fill-rule="evenodd" d="M6.80534 6.80534C7.19587 6.41482 7.82903 6.41482 8.21956 6.80534L25.1946 23.7803C25.5851 24.1709 25.5851 24.804 25.1946 25.1946C24.804 25.5851 24.1709 25.5851 23.7803 25.1946L6.80534 8.21956C6.41482 7.82903 6.41482 7.19587 6.80534 6.80534Z" clip-rule="evenodd"/></svg>