<svg width="32" height="32" viewBox="0 0 32 32" fill="none" xmlns="http://www.w3.org/2000/svg">
<path fill-rule="evenodd" clip-rule="evenodd" d="M16 5C9.92487 5 5 9.92487 5 16C5 22.0751 9.92487 27 16 27C22.0751 27 27 22.0751 27 16C27 9.92487 22.0751 5 16 5ZM3 16C3 8.8203 8.8203 3 16 3C23.1797 3 29 8.8203 29 16C29 23.1797 23.1797 29 16 29C8.8203 29 3 23.1797 3 16Z" fill="black"/>
<path fill-rule="evenodd" clip-rule="evenodd" d="M11.7554 11.7554C12.1459 11.3649 12.7791 11.3649 13.1696 11.7554L20.2446 18.8304C20.6352 19.2209 20.6352 19.8541 20.2446 20.2446C19.8541 20.6352 19.2209 20.6352 18.8304 20.2446L11.7554 13.1696C11.3649 12.7791 11.3649 12.1459 11.7554 11.7554Z" fill="black"/>
</svg>
