<svg xmlns="http://www.w3.org/2000/svg" width="32" height="32" fill="none" viewBox="0 0 32 32"><path fill="#000" fill-rule="evenodd" d="M6 8C6.55228 8 7 8.44772 7 9V23C7 23.5523 6.55228 24 6 24C5.44772 24 5 23.5523 5 23V9C5 8.44772 5.44772 8 6 8Z" clip-rule="evenodd"/><path fill="#000" fill-rule="evenodd" d="M26 8C26.5523 8 27 8.44772 27 9V23C27 23.5523 26.5523 24 26 24C25.4477 24 25 23.5523 25 23V9C25 8.44772 25.4477 8 26 8Z" clip-rule="evenodd"/><path fill="#000" fill-rule="evenodd" d="M12 15C12.5523 15 13 15.4477 13 16V18C13 18.5523 12.5523 19 12 19C11.4477 19 11 18.5523 11 18V16C11 15.4477 11.4477 15 12 15Z" clip-rule="evenodd"/><path fill="#000" fill-rule="evenodd" d="M16 14C16.5523 14 17 14.4477 17 15V18C17 18.5523 16.5523 19 16 19C15.4477 19 15 18.5523 15 18V15C15 14.4477 15.4477 14 16 14Z" clip-rule="evenodd"/><path fill="#000" fill-rule="evenodd" d="M20 13C20.5523 13 21 13.4477 21 14V18C21 18.5523 20.5523 19 20 19C19.4477 19 19 18.5523 19 18V14C19 13.4477 19.4477 13 20 13Z" clip-rule="evenodd"/><path fill="#000" fill-rule="evenodd" d="M3 6C3 4.89543 3.89543 4 5 4H27C28.1046 4 29 4.89543 29 6V8C29 9.10457 28.1046 10 27 10H5C3.89543 10 3 9.10457 3 8V6ZM27 6H5V8H27V6Z" clip-rule="evenodd"/><path fill="#000" fill-rule="evenodd" d="M16 22C16.5523 22 17 22.4477 17 23V27C17 27.5523 16.5523 28 16 28C15.4477 28 15 27.5523 15 27V23C15 22.4477 15.4477 22 16 22Z" clip-rule="evenodd"/><path fill="#000" fill-rule="evenodd" d="M16 28C15.4477 28 15 28.4477 15 29C15 29.5523 15.4477 30 16 30C16.5523 30 17 29.5523 17 29C17 28.4477 16.5523 28 16 28ZM13 29C13 27.3431 14.3431 26 16 26C17.6569 26 19 27.3431 19 29C19 30.6569 17.6569 32 16 32C14.3431 32 13 30.6569 13 29Z" clip-rule="evenodd"/><path fill="#000" fill-rule="evenodd" d="M3 23C3 22.4477 3.44772 22 4 22H28C28.5523 22 29 22.4477 29 23C29 23.5523 28.5523 24 28 24H4C3.44772 24 3 23.5523 3 23Z" clip-rule="evenodd"/></svg>