<svg width="32" height="32" viewBox="0 0 32 32" fill="none" xmlns="http://www.w3.org/2000/svg">
<path fill-rule="evenodd" clip-rule="evenodd" d="M11.7071 20.2929C12.0976 20.6834 12.0976 21.3166 11.7071 21.7071L6.70711 26.7071C6.31658 27.0976 5.68342 27.0976 5.29289 26.7071C4.90237 26.3166 4.90237 25.6834 5.29289 25.2929L10.2929 20.2929C10.6834 19.9024 11.3166 19.9024 11.7071 20.2929Z" fill="black"/>
<path fill-rule="evenodd" clip-rule="evenodd" d="M5.32733 4.26007C5.73599 3.88856 6.36844 3.91868 6.73995 4.32733L26.7399 26.3273C27.1115 26.736 27.0813 27.3684 26.6727 27.7399C26.264 28.1115 25.6316 28.0813 25.2601 27.6727L5.26007 5.67268C4.88856 5.26402 4.91868 4.63157 5.32733 4.26007Z" fill="black"/>
<path fill-rule="evenodd" clip-rule="evenodd" d="M11.3315 10.3626C11.2869 10.348 11.2401 10.3332 11.1911 10.3184C10.7442 10.1829 10.1121 10.0413 9.34928 10.0072C7.80598 9.93832 5.76486 10.3133 3.69646 11.9847C3.47798 12.1615 3.29867 12.3828 3.17128 12.6333C3.04389 12.8839 2.97073 13.1584 2.95658 13.4391C2.94242 13.7198 2.9876 14.0004 3.08914 14.2624C3.19038 14.5237 3.34539 14.7608 3.54411 14.9583C3.54471 14.9589 3.54532 14.9595 3.54592 14.9601L17.0154 28.4296C17.2164 28.6331 17.4588 28.7911 17.7261 28.893C17.9951 28.9955 18.283 29.0387 18.5701 29.0197C18.8573 29.0007 19.137 28.92 19.3901 28.783C19.6431 28.646 19.8636 28.4561 20.0365 28.2263M11.3315 10.3626C11.6936 10.2136 12.1254 10.2862 12.4196 10.5804C12.8101 10.9709 12.8101 11.6041 12.4196 11.9946L12.2071 12.2071C11.9039 12.5103 11.4414 12.5863 11.0573 12.3967L11.0448 12.3909C11.0302 12.3842 11.0036 12.3724 10.9657 12.3569C10.8898 12.3259 10.7694 12.2805 10.6108 12.2324C10.2925 12.1358 9.8269 12.0306 9.26006 12.0052C8.14411 11.9554 6.59794 12.2117 4.95404 13.5399L4.9571 13.5429L18.4382 27.024C19.3604 25.7984 20.515 23.6854 19.87 21.6092C19.7062 21.0818 20.0009 20.5214 20.5283 20.3575C21.0557 20.1937 21.6161 20.4884 21.78 21.0158C22.7348 24.0894 21.0144 26.9267 20.0365 28.2263" fill="black"/>
<path fill-rule="evenodd" clip-rule="evenodd" d="M19.2276 2.56937C19.4722 2.46694 19.7348 2.41418 20 2.41418C20.2652 2.41418 20.5278 2.46694 20.7724 2.56937C21.0157 2.67123 21.2364 2.82019 21.4219 3.00767L28.9923 10.5781C29.1798 10.7635 29.3288 10.9843 29.4306 11.2276C29.5331 11.4722 29.5858 11.7348 29.5858 12C29.5858 12.2652 29.5331 12.5278 29.4306 12.7724C29.3288 13.0157 29.1798 13.2364 28.9923 13.4219L23.8196 18.5946C23.4291 18.9851 22.7959 18.9851 22.4054 18.5946C22.0149 18.2041 22.0149 17.5709 22.4054 17.1804L27.5858 12L27.5804 11.9946L20 4.41421L19.9946 4.41964L15.2571 9.15712C14.8666 9.54764 14.2334 9.54764 13.8429 9.15712C13.4524 8.76659 13.4524 8.13343 13.8429 7.74291L18.5781 3.00767C18.7636 2.82019 18.9843 2.67123 19.2276 2.56937Z" fill="black"/>
</svg>
