<svg xmlns="http://www.w3.org/2000/svg" width="32" height="32" fill="none" viewBox="0 0 32 32"><path fill="#000" fill-rule="evenodd" d="M16 21C16.5523 21 17 21.4477 17 22V30C17 30.5523 16.5523 31 16 31C15.4477 31 15 30.5523 15 30V22C15 21.4477 15.4477 21 16 21Z" clip-rule="evenodd"/><path fill="#000" fill-rule="evenodd" d="M7 5C7 4.44772 7.44772 4 8 4H24C24.5523 4 25 4.44772 25 5C25 5.55228 24.5523 6 24 6H8C7.44772 6 7 5.55228 7 5Z" clip-rule="evenodd"/><path fill="#000" fill-rule="evenodd" d="M4 22C4 21.4477 4.44772 21 5 21H27C27.5523 21 28 21.4477 28 22C28 22.5523 27.5523 23 27 23H5C4.44772 23 4 22.5523 4 22Z" clip-rule="evenodd"/><path fill="#000" fill-rule="evenodd" d="M10.1738 4.01523C10.7177 4.11121 11.0808 4.62992 10.9848 5.1738L7.98483 22.1738C7.88885 22.7177 7.37014 23.0808 6.82626 22.9848C6.28238 22.8888 5.91928 22.3701 6.01526 21.8262L9.01526 4.82623C9.11124 4.28235 9.62995 3.91925 10.1738 4.01523Z" clip-rule="evenodd"/><path fill="#000" fill-rule="evenodd" d="M21.8263 4.01523C22.3701 3.91925 22.8888 4.28235 22.9848 4.82623L25.9848 21.8262C26.0808 22.3701 25.7177 22.8888 25.1738 22.9848C24.6299 23.0808 24.1112 22.7177 24.0153 22.1738L21.0153 5.1738C20.9193 4.62992 21.2824 4.11121 21.8263 4.01523Z" clip-rule="evenodd"/></svg>