<svg width="32" height="32" viewBox="0 0 32 32" fill="none" xmlns="http://www.w3.org/2000/svg">
<path fill-rule="evenodd" clip-rule="evenodd" d="M11.7071 20.2929C12.0976 20.6834 12.0976 21.3166 11.7071 21.7071L6.70711 26.7071C6.31658 27.0976 5.68342 27.0976 5.29289 26.7071C4.90237 26.3166 4.90237 25.6834 5.29289 25.2929L10.2929 20.2929C10.6834 19.9024 11.3166 19.9024 11.7071 20.2929Z" fill="black"/>
<path fill-rule="evenodd" clip-rule="evenodd" d="M19.2276 2.56937C19.4723 2.46694 19.7348 2.41418 20 2.41418C20.2653 2.41418 20.5278 2.46694 20.7725 2.56937C21.0157 2.6712 21.2364 2.82012 21.4218 3.00754L28.9925 10.5783C29.1799 10.7637 29.3288 10.9844 29.4307 11.2276C29.5331 11.4722 29.5859 11.7348 29.5859 12C29.5859 12.2652 29.5331 12.5278 29.4307 12.7724C29.3289 13.0157 29.1799 13.2363 28.9925 13.4217L21.6869 20.7274C22.8547 23.9106 21.0364 26.9048 20.0359 28.2272C19.8631 28.4567 19.6429 28.6462 19.3902 28.783C19.1371 28.92 18.8574 29.0007 18.5702 29.0197C18.283 29.0387 17.9951 28.9955 17.7262 28.893C17.4588 28.7911 17.2165 28.6331 17.0154 28.4296L3.54598 14.9602C3.5454 14.9596 3.54482 14.959 3.54424 14.9584C3.34548 14.7609 3.19045 14.5238 3.0892 14.2625C2.98766 14.0004 2.94249 13.7199 2.95664 13.4392C2.97079 13.1585 3.04395 12.8839 3.17134 12.6334C3.29873 12.3828 3.4775 12.162 3.69598 11.9852C5.76439 10.3137 7.80604 9.93834 9.34934 10.0073C10.1122 10.0413 10.7442 10.1829 11.1912 10.3184C11.211 10.3244 11.2304 10.3304 11.2495 10.3364L18.5782 3.00763C18.7637 2.82017 18.9844 2.67122 19.2276 2.56937ZM27.5804 11.9946L20 4.41421L19.9947 4.41964L12.2072 12.2071C11.904 12.5103 11.4414 12.5863 11.0574 12.3967L11.0449 12.3909C11.0303 12.3842 11.0037 12.3724 10.9658 12.3569C10.8898 12.3259 10.7695 12.2805 10.6108 12.2324C10.2926 12.1359 9.82696 12.0306 9.26012 12.0053C8.14417 11.9554 6.598 12.2117 4.9541 13.5399L4.95716 13.5429L18.4383 27.024L18.4401 27.0216C19.4693 25.6616 20.7592 23.2443 19.6064 20.9488C19.4129 20.5636 19.4881 20.0977 19.7929 19.7929L27.5859 12L27.5804 11.9946Z" fill="black"/>
</svg>
