<svg width="32" height="32" viewBox="0 0 32 32" fill="none" xmlns="http://www.w3.org/2000/svg">
<path fill-rule="evenodd" clip-rule="evenodd" d="M10.4 5C10.4 4.44772 10.8477 4 11.4 4H24C24.5523 4 25 4.44772 25 5C25 5.55228 24.5523 6 24 6H11.4C10.8477 6 10.4 5.55228 10.4 5Z" fill="black"/>
<path fill-rule="evenodd" clip-rule="evenodd" d="M16 21C16.5523 21 17 21.4477 17 22V30C17 30.5523 16.5523 31 16 31C15.4477 31 15 30.5523 15 30V22C15 21.4477 15.4477 21 16 21Z" fill="black"/>
<path fill-rule="evenodd" clip-rule="evenodd" d="M5.32733 4.26007C5.73599 3.88856 6.36844 3.91868 6.73995 4.32733L26.7399 26.3273C27.1115 26.736 27.0813 27.3684 26.6727 27.7399C26.264 28.1115 25.6316 28.0813 25.2601 27.6727L5.26007 5.67268C4.88856 5.26402 4.91868 4.63157 5.32733 4.26007Z" fill="black"/>
<path fill-rule="evenodd" clip-rule="evenodd" d="M21.8263 4.01521C22.3702 3.91931 22.8889 4.28248 22.9848 4.82638L25.5348 19.2889C25.6307 19.8328 25.2675 20.3514 24.7236 20.4473C24.1797 20.5432 23.6611 20.18 23.5652 19.6362L21.0152 5.17365C20.9193 4.62976 21.2824 4.1111 21.8263 4.01521Z" fill="black"/>
<path fill-rule="evenodd" clip-rule="evenodd" d="M4 22C4 21.4477 4.44772 21 5 21H21.45C22.0023 21 22.45 21.4477 22.45 22C22.45 22.5523 22.0023 23 21.45 23H5C4.44772 23 4 22.5523 4 22Z" fill="black"/>
<path fill-rule="evenodd" clip-rule="evenodd" d="M9.52382 7.70274C10.0677 7.79875 10.4308 8.31748 10.3348 8.86135L7.98476 22.1739C7.88875 22.7177 7.37002 23.0808 6.82615 22.9848C6.28227 22.8888 5.9192 22.3701 6.01521 21.8262L8.36521 8.51368C8.46122 7.9698 8.97995 7.60673 9.52382 7.70274Z" fill="black"/>
</svg>
