<svg width="32" height="32" viewBox="0 0 32 32" fill="none" xmlns="http://www.w3.org/2000/svg">
<path fill-rule="evenodd" clip-rule="evenodd" d="M17.6436 4.07739C17.2884 3.98326 16.9169 3.96857 16.5554 4.03437C16.1939 4.10017 15.8514 4.24484 15.5521 4.45808C15.2529 4.67132 15.0044 4.9479 14.8242 5.26812C14.6441 5.58834 14.5367 5.94433 14.5098 6.31077L14.5093 6.31781L14.5093 6.31781C14.4746 6.74807 14.5542 7.17985 14.7401 7.56944C14.8879 7.87927 14.8664 8.24326 14.6832 8.53359C14.5001 8.82391 14.1808 8.99999 13.8375 8.99999H7.99999V14.3375C7.99999 14.6807 7.82396 15 7.53371 15.1832C7.24345 15.3663 6.87952 15.3879 6.56969 15.2402C6.23803 15.0821 5.87559 14.999 5.50817 14.9969C5.14076 14.9949 4.7774 15.0738 4.44395 15.2281C4.11051 15.3824 3.81518 15.6083 3.57898 15.8898C3.34278 16.1712 3.17152 16.5013 3.07739 16.8564C2.98326 17.2116 2.96857 17.5831 3.03437 17.9446C3.10017 18.3061 3.24484 18.6486 3.45808 18.9478C3.67132 19.247 3.9479 19.4956 4.26812 19.6757C4.58834 19.8559 4.94433 19.9633 5.31077 19.9902L5.31781 19.9907L5.31781 19.9907C5.74807 20.0254 6.17985 19.9458 6.56944 19.7599C6.87927 19.6121 7.24326 19.6336 7.53359 19.8168C7.82391 19.9999 7.99999 20.3192 7.99999 20.6625V26H26V21.9745C25.8408 21.9926 25.6804 22.0021 25.5195 22.003C24.8582 22.0068 24.2041 21.8647 23.6039 21.5869C23.0037 21.3092 22.4722 20.9025 22.047 20.3959C21.6218 19.8893 21.3136 19.2952 21.1441 18.6559C20.9747 18.0167 20.9483 17.3479 21.0667 16.6972C21.1851 16.0465 21.4455 15.43 21.8294 14.8914C22.2132 14.3528 22.711 13.9055 23.2874 13.5812C23.8628 13.2575 24.5024 13.0643 25.1607 13.0154C25.4414 12.993 25.7223 12.9974 26 13.0279V8.99999H20.1625C19.8193 8.99999 19.5 8.82396 19.3168 8.53371C19.1336 8.24345 19.1121 7.87952 19.2598 7.56969C19.4179 7.23803 19.501 6.87559 19.503 6.50817C19.5051 6.14076 19.4262 5.7774 19.2719 5.44395C19.1176 5.11051 18.8917 4.81518 18.6102 4.57898C18.3288 4.34278 17.9987 4.17152 17.6436 4.07739ZM16.1972 2.0667C16.8479 1.94827 17.5167 1.97471 18.1559 2.14414C18.7952 2.31358 19.3893 2.62184 19.8959 3.047C20.4025 3.47215 20.8092 4.00375 21.0869 4.60395C21.3647 5.20414 21.5068 5.85819 21.503 6.51954C21.5021 6.68045 21.4926 6.84082 21.4745 6.99999H26C26.5304 6.99999 27.0391 7.2107 27.4142 7.58578C27.7893 7.96085 28 8.46956 28 8.99999V14.3375C28 14.6808 27.8239 15.0001 27.5336 15.1832C27.2433 15.3664 26.8793 15.3879 26.5694 15.2401C26.1798 15.0542 25.7481 14.9746 25.3178 15.0093L25.3108 15.0098C24.9443 15.0367 24.5883 15.1441 24.2681 15.3242C23.9479 15.5044 23.6713 15.7529 23.4581 16.0521C23.2448 16.3514 23.1002 16.6939 23.0344 17.0554C22.9686 17.4169 22.9833 17.7884 23.0774 18.1436C23.1715 18.4987 23.3428 18.8288 23.579 19.1102C23.8152 19.3917 24.1105 19.6176 24.444 19.7719C24.7774 19.9262 25.1408 20.0051 25.5082 20.003C25.8756 20.001 26.238 19.9179 26.5697 19.7598C26.8795 19.6121 27.2435 19.6336 27.5337 19.8168C27.824 20 28 20.3193 28 20.6625V26C28 26.5304 27.7893 27.0391 27.4142 27.4142C27.0391 27.7893 26.5304 28 26 28H7.99999C7.46956 28 6.96085 27.7893 6.58578 27.4142C6.2107 27.0391 5.99999 26.5304 5.99999 26V21.9721C5.72241 22.0025 5.44148 22.0069 5.16091 21.9846C4.50249 21.9357 3.86288 21.7425 3.28744 21.4188C2.71105 21.0945 2.21321 20.6472 1.82938 20.1086C1.44554 19.57 1.18514 18.9534 1.0667 18.3028C0.948266 17.6521 0.974706 16.9833 1.14414 16.344C1.31358 15.7047 1.62184 15.1107 2.047 14.6041C2.47215 14.0975 3.00375 13.6908 3.60395 13.413C4.20415 13.1353 4.85819 12.9932 5.51954 12.997C5.68045 12.9979 5.84082 13.0074 5.99999 13.0254V8.99999C5.99999 8.46956 6.2107 7.96085 6.58578 7.58578C6.96085 7.2107 7.46956 6.99999 7.99999 6.99999H12.5279C12.4974 6.72235 12.493 6.44137 12.5154 6.16073C12.5643 5.50238 12.7575 4.86283 13.0812 4.28744C13.4055 3.71105 13.8528 3.21321 14.3914 2.82938C14.93 2.44554 15.5465 2.18514 16.1972 2.0667Z" fill="black"/>
</svg>
