<svg width="32" height="32" viewBox="0 0 32 32" fill="none" xmlns="http://www.w3.org/2000/svg">
<path fill-rule="evenodd" clip-rule="evenodd" d="M2.64887 8.0637C3.16599 7.86978 3.74241 8.13178 3.93633 8.6489L9 22.152L14.0637 8.6489C14.21 8.2586 14.5832 8.00003 15 8.00003H29C29.5523 8.00003 30 8.44774 30 9.00003V12C30 12.5523 29.5523 13 29 13C28.4477 13 28 12.5523 28 12V10H15.693L9.93633 25.3512C9.78996 25.7415 9.41684 26 9 26C8.58315 26 8.21003 25.7415 8.06367 25.3512L2.06367 9.35115C1.86975 8.83403 2.13175 8.25762 2.64887 8.0637Z" fill="black"/>
</svg>
