<svg xmlns="http://www.w3.org/2000/svg" width="32" height="32" fill="none" viewBox="0 0 32 32"><path fill="#000" fill-rule="evenodd" d="M3 10C3 9.44772 3.44772 9 4 9H27C27.5304 9 28.0391 9.21071 28.4142 9.58579C28.7893 9.96086 29 10.4696 29 11V25C29 25.5304 28.7893 26.0391 28.4142 26.4142C28.0391 26.7893 27.5304 27 27 27H5C4.46957 27 3.96086 26.7893 3.58579 26.4142C3.21071 26.0391 3 25.5304 3 25V10ZM5 11V25H27V11H5Z" clip-rule="evenodd"/><path fill="#000" fill-rule="evenodd" d="M24.9578 3.71267C25.1165 4.24166 24.8163 4.79915 24.2873 4.95785L4.28734 10.9578C3.75834 11.1165 3.20086 10.8164 3.04216 10.2874C2.88346 9.75837 3.18365 9.20089 3.71264 9.04219L23.7126 3.04219C24.2416 2.8835 24.7991 3.18368 24.9578 3.71267Z" clip-rule="evenodd"/><path fill="#000" fill-rule="evenodd" d="M20 15C18.3431 15 17 16.3431 17 18C17 19.6569 18.3431 21 20 21C21.6569 21 23 19.6569 23 18C23 16.3431 21.6569 15 20 15ZM15 18C15 15.2386 17.2386 13 20 13C22.7614 13 25 15.2386 25 18C25 20.7614 22.7614 23 20 23C17.2386 23 15 20.7614 15 18Z" clip-rule="evenodd"/><path fill="#000" fill-rule="evenodd" d="M7 14C7 13.4477 7.44772 13 8 13H12C12.5523 13 13 13.4477 13 14C13 14.5523 12.5523 15 12 15H8C7.44772 15 7 14.5523 7 14Z" clip-rule="evenodd"/><path fill="#000" fill-rule="evenodd" d="M7 18C7 17.4477 7.44772 17 8 17H12C12.5523 17 13 17.4477 13 18C13 18.5523 12.5523 19 12 19H8C7.44772 19 7 18.5523 7 18Z" clip-rule="evenodd"/><path fill="#000" fill-rule="evenodd" d="M7 22C7 21.4477 7.44772 21 8 21H12C12.5523 21 13 21.4477 13 22C13 22.5523 12.5523 23 12 23H8C7.44772 23 7 22.5523 7 22Z" clip-rule="evenodd"/></svg>