<svg width="32" height="32" viewBox="0 0 32 32" fill="none" xmlns="http://www.w3.org/2000/svg">
<path fill-rule="evenodd" clip-rule="evenodd" d="M26.2653 16.2057C25.5474 15.9661 24.7763 15.9351 24.0414 16.1163C23.3066 16.2975 22.6383 16.6834 22.114 17.2292C21.5898 17.7751 21.2312 18.4585 21.0798 19.2C21.0194 19.4957 20.8288 19.7483 20.561 19.8874C20.2932 20.0265 19.9769 20.0373 19.7003 19.9166C19.4819 19.8214 19.2459 19.7731 19.0077 19.775L19 19.775C17.9241 19.775 17 20.6798 17 21.8875C17 23.0952 17.9241 24 19 24H24.9998C24.9997 24 24.9999 24 24.9998 24C25.7565 23.9998 26.4979 23.7849 27.1375 23.3804C27.777 22.9758 28.2887 22.398 28.6131 21.7142C28.9374 21.0304 29.0611 20.2686 28.9697 19.5173C28.8784 18.766 28.5758 18.056 28.0971 17.4699C27.6184 16.8837 26.9832 16.4453 26.2653 16.2057ZM23.5627 14.1745C24.6649 13.9027 25.8216 13.9492 26.8985 14.3086C27.9753 14.668 28.9281 15.3255 29.6462 16.2048C30.3642 17.0841 30.8181 18.149 30.9551 19.276C31.0921 20.4029 30.9066 21.5456 30.4201 22.5713C29.9336 23.597 29.1661 24.4636 28.2067 25.0706C27.2473 25.6775 26.1354 25.9998 25.0002 26H19C16.7509 26 15 24.1298 15 21.8875C15 19.6465 16.7489 17.7771 18.9962 17.775M19.4183 17.7963C19.7038 17.0733 20.1284 16.4094 20.6716 15.8439C21.4579 15.0251 22.4604 14.4462 23.5627 14.1745" fill="black"/>
<path fill-rule="evenodd" clip-rule="evenodd" d="M16.031 9.19542C13.9066 8.7963 11.7116 9.03197 9.72025 9.87299C7.72892 10.714 6.02953 12.1231 4.83434 13.9243C3.63924 15.7253 3.00124 17.8385 3 20C3 19.9999 3 20.0001 3 20V22C3 22.5523 2.55228 23 2 23C1.44772 23 1 22.5523 1 22V20C1.00134 17.4453 1.75536 14.9471 3.16786 12.8185C4.58036 10.6898 6.58873 9.02452 8.94211 8.03058C11.2955 7.03664 13.8896 6.75812 16.4003 7.22981C18.9111 7.70151 21.2272 8.9025 23.0594 10.6828C23.4555 11.0677 23.4646 11.7008 23.0797 12.0969C22.6948 12.493 22.0617 12.502 21.6656 12.1172C20.1153 10.6108 18.1555 9.59455 16.031 9.19542Z" fill="black"/>
<path fill-rule="evenodd" clip-rule="evenodd" d="M14.577 13.0202C13.2869 12.9135 11.9925 13.1666 10.8377 13.7514C9.68283 14.3362 8.71276 15.2298 8.03527 16.3328C7.35779 17.4358 6.99942 18.7051 7 19.9996L7 22C7 22.5523 6.55229 23 6 23C5.44772 23 5 22.5523 5 22L5 20.0005C5 20.0003 5 20.0006 5 20.0005C4.99934 18.3363 5.46009 16.7041 6.33107 15.286C7.20212 13.8679 8.44936 12.719 9.93416 11.9671C11.419 11.2153 13.0832 10.8898 14.7418 11.027C16.4005 11.1642 17.9886 11.7586 19.3297 12.7442C19.7747 13.0713 19.8704 13.6972 19.5433 14.1422C19.2162 14.5872 18.5903 14.6829 18.1453 14.3558C17.1022 13.5892 15.867 13.1269 14.577 13.0202Z" fill="black"/>
<path fill-rule="evenodd" clip-rule="evenodd" d="M14.6819 17.0825C14.4601 17.0269 14.2322 16.9992 14.0035 17L14 17C13.2044 17 12.4413 17.3161 11.8787 17.8787C11.3161 18.4413 11 19.2044 11 20V22C11 22.5523 10.5523 23 10 23C9.44772 23 9 22.5523 9 22V20C9 18.6739 9.52678 17.4021 10.4645 16.4645C11.4017 15.5272 12.6728 15.0005 13.9982 15" fill="black"/>
</svg>
