<svg width="32" height="32" viewBox="0 0 32 32" fill="none" xmlns="http://www.w3.org/2000/svg">
<path fill-rule="evenodd" clip-rule="evenodd" d="M19.7071 22.2929C20.0976 22.6834 20.0976 23.3166 19.7071 23.7071L17.4142 26L19.7071 28.2929C20.0976 28.6834 20.0976 29.3166 19.7071 29.7071C19.3166 30.0976 18.6834 30.0976 18.2929 29.7071L15.2929 26.7071C14.9024 26.3166 14.9024 25.6834 15.2929 25.2929L18.2929 22.2929C18.6834 21.9024 19.3166 21.9024 19.7071 22.2929Z" fill="black"/>
<path fill-rule="evenodd" clip-rule="evenodd" d="M24.5841 8.43416C25.1176 8.57727 25.434 9.12571 25.2909 9.65913L24.1909 13.7591C24.1221 14.0154 23.9543 14.2339 23.7244 14.3664C23.4945 14.4989 23.2214 14.5346 22.9651 14.4656L18.8776 13.3656C18.3443 13.2221 18.0284 12.6734 18.1719 12.1401C18.3154 11.6068 18.8641 11.2908 19.3974 11.4344L22.5185 12.2743L23.3592 9.14087C23.5023 8.60745 24.0507 8.29104 24.5841 8.43416Z" fill="black"/>
<path fill-rule="evenodd" clip-rule="evenodd" d="M9.27471 12.6338C9.50444 12.7664 9.67211 12.9847 9.74083 13.2409L10.8408 17.3409C10.9839 17.8743 10.6675 18.4227 10.1341 18.5658C9.6007 18.709 9.05226 18.3926 8.90915 17.8591L8.06828 14.725L4.93412 15.5658C4.4007 15.709 3.85226 15.3926 3.70915 14.8591C3.56604 14.3257 3.88244 13.7773 4.41586 13.6342L8.51586 12.5342C8.77202 12.4654 9.04499 12.5013 9.27471 12.6338Z" fill="black"/>
<path fill-rule="evenodd" clip-rule="evenodd" d="M25.2375 16.9589C25.7158 16.6828 26.3274 16.8467 26.6035 17.325L29.591 22.5C29.8539 22.9553 29.9925 23.4716 29.993 23.9974C29.9934 24.5231 29.8557 25.0397 29.5937 25.4954C29.3316 25.9512 28.9544 26.33 28.4998 26.5941C28.0452 26.8582 27.5292 26.9981 27.0035 27L27 27H16C15.4477 27 15 26.5523 15 26C15 25.4477 15.4477 25 16 25H26.9979C27.1727 24.9991 27.3441 24.9525 27.4952 24.8647C27.6468 24.7767 27.7725 24.6504 27.8599 24.4985C27.9472 24.3466 27.9931 24.1744 27.993 23.9991C27.9928 23.8239 27.9466 23.6518 27.859 23.5L27.859 23.5L24.8715 18.325C24.5953 17.8467 24.7592 17.2351 25.2375 16.9589Z" fill="black"/>
<path fill-rule="evenodd" clip-rule="evenodd" d="M9.27601 12.6346C9.75397 12.9113 9.91712 13.5231 9.6404 14.001L4.141 23.5C4.14088 23.5002 4.14112 23.4998 4.141 23.5C4.05361 23.6516 4.00717 23.8241 4.00702 23.9991C4.00686 24.1744 4.05276 24.3466 4.14011 24.4985C4.22746 24.6504 4.3532 24.7767 4.50473 24.8647C4.65581 24.9525 4.82724 24.9991 5.00195 25H11C11.5523 25 12 25.4477 12 26C12 26.5523 11.5523 27 11 27H4.99998L4.99645 27C4.47074 26.9982 3.95474 26.8582 3.50016 26.5941C3.04557 26.3301 2.66835 25.9512 2.4063 25.4954C2.14425 25.0397 2.00655 24.5231 2.00702 23.9974C2.00749 23.4717 2.14609 22.9553 2.40895 22.5L7.90955 12.999C8.18626 12.521 8.79805 12.3579 9.27601 12.6346Z" fill="black"/>
<path fill-rule="evenodd" clip-rule="evenodd" d="M14.5013 2.4028C14.9567 2.13875 15.4737 1.99969 16 1.99969C16.5264 1.99969 17.0434 2.13875 17.4987 2.4028C17.9532 2.66639 18.3302 3.0452 18.5916 3.501C18.592 3.50177 18.5925 3.50254 18.5929 3.50332L24.0904 12.999C24.3671 13.4769 24.204 14.0887 23.726 14.3654C23.2481 14.6422 22.6363 14.479 22.3596 14.001L16.8571 4.49671C16.7707 4.34571 16.6459 4.22021 16.4954 4.13294C16.3449 4.04566 16.174 3.99969 16 3.99969C15.826 3.99969 15.6551 4.04566 15.5046 4.13294C15.3541 4.22022 15.2293 4.34571 15.1429 4.49671L15.1402 4.50155L12.1401 9.67654C11.8632 10.1543 11.2513 10.3171 10.7735 10.0402C10.2957 9.76316 10.1329 9.15128 10.4099 8.67348L13.4086 3.50065C13.67 3.04501 14.0469 2.66632 14.5013 2.4028Z" fill="black"/>
</svg>
