<svg width="32" height="32" viewBox="0 0 32 32" fill="none" xmlns="http://www.w3.org/2000/svg">
<path fill-rule="evenodd" clip-rule="evenodd" d="M23.5 3C22.9477 3 22.5 3.44772 22.5 4C22.5 4.55228 22.9477 5 23.5 5C24.0523 5 24.5 4.55228 24.5 4C24.5 3.44772 24.0523 3 23.5 3ZM20.5 4C20.5 2.34315 21.8431 1 23.5 1C25.1569 1 26.5 2.34315 26.5 4C26.5 5.65685 25.1569 7 23.5 7C21.8431 7 20.5 5.65685 20.5 4Z" fill="black"/>
<path fill-rule="evenodd" clip-rule="evenodd" d="M10.9865 21.541C11.24 21.0503 11.8433 20.8581 12.3339 21.1115C13.4673 21.697 14.7243 22.0025 16 22.0025C17.2756 22.0025 18.5327 21.697 19.666 21.1115C20.1567 20.8581 20.7599 21.0503 21.0134 21.541C21.2669 22.0317 21.0746 22.635 20.5839 22.8884C19.1668 23.6205 17.595 24.0025 16 24.0025C14.4049 24.0025 12.8331 23.6205 11.416 22.8884C10.9253 22.635 10.733 22.0317 10.9865 21.541Z" fill="black"/>
<path fill-rule="evenodd" clip-rule="evenodd" d="M16.0136 2.8356C16.1037 2.29532 16.6116 1.92802 17.1529 2.01175L21.6779 2.71175C22.2237 2.79619 22.5977 3.30708 22.5133 3.85288C22.4288 4.39867 21.9179 4.77268 21.3722 4.68824L17.8239 4.13935L16.9864 9.1644C16.8956 9.70917 16.3804 10.0772 15.8356 9.98639C15.2909 9.8956 14.9228 9.38037 15.0136 8.8356L16.0136 2.8356Z" fill="black"/>
<path fill-rule="evenodd" clip-rule="evenodd" d="M16 10C12.8755 10 10.0602 10.7971 7.94706 12.0904L7.42505 11.2375L6.61686 11.8264C6.44196 11.5864 6.21579 11.3883 5.95479 11.2466C5.69379 11.1049 5.40451 11.0231 5.10795 11.0072C4.81139 10.9912 4.515 11.0415 4.2403 11.1544C3.9656 11.2673 3.71949 11.4399 3.51984 11.6598C3.32019 11.8796 3.17201 12.1412 3.08606 12.4255C3.00012 12.7098 2.97857 13.0096 3.02297 13.3033C3.06737 13.5969 3.17661 13.877 3.34276 14.1232C3.50891 14.3693 3.7278 14.5754 3.98353 14.7264L3.47505 15.5875L4.4001 15.9673C4.13538 16.612 3.99948 17.3023 4.00005 17.9992L4.00005 18C4.00005 20.0665 5.20866 22.042 7.37841 23.5433C9.54432 25.0419 12.5901 26 16 26C19.41 26 22.4558 25.0419 24.6217 23.5433C26.7914 22.042 28 20.0665 28 18V17.9992C28.0006 17.3023 27.8647 16.612 27.6 15.9673L28.525 15.5875L28.0166 14.7264C28.2723 14.5754 28.4912 14.3693 28.6573 14.1232C28.8235 13.877 28.9327 13.5969 28.9771 13.3033C29.0215 13.0096 29 12.7098 28.914 12.4255C28.8281 12.1412 28.6799 11.8796 28.4803 11.6598C28.2806 11.4399 28.0345 11.2673 27.7598 11.1544C27.4851 11.0415 27.1887 10.9912 26.8921 11.0072C26.5956 11.0231 26.3063 11.1049 26.0453 11.2466C25.7843 11.3883 25.5581 11.5864 25.3832 11.8264C25.0763 12.2476 24.4975 12.3625 24.053 12.0904C21.9399 10.7971 19.1246 10 16 10ZM29.7086 15.9473C29.9021 16.6133 30.0006 17.3046 30 18.0008L29 18H30C30 18.0003 30 18.0005 30 18.0008C29.9997 20.909 28.2959 23.4331 25.7597 25.188C23.2193 26.9456 19.7651 28 16 28C12.235 28 8.78078 26.9456 6.24044 25.188C3.70406 23.4331 2.00021 20.9088 2.00005 18.0004C1.99952 17.3044 2.09802 16.6132 2.2915 15.9473C2.06331 15.7373 1.85961 15.5007 1.68503 15.2421C1.35273 14.7498 1.13425 14.1896 1.04544 13.6023C0.956642 13.015 0.999751 12.4153 1.17164 11.8467C1.34353 11.2782 1.63989 10.755 2.03919 10.3153C2.43849 9.87555 2.93071 9.53026 3.48011 9.30449C4.02951 9.07872 4.62229 8.97814 5.21541 9.01006C5.80853 9.04197 6.3871 9.20558 6.9091 9.489C7.16203 9.62632 7.3986 9.79011 7.61507 9.97708C9.96513 8.72079 12.8735 8 16 8C19.1266 8 22.035 8.72079 24.385 9.97708C24.6015 9.79011 24.8381 9.62632 25.091 9.489C25.613 9.20558 26.1916 9.04197 26.7847 9.01006C27.3778 8.97814 27.9706 9.07872 28.52 9.30449C29.0694 9.53026 29.5616 9.87555 29.9609 10.3153C30.3602 10.755 30.6566 11.2782 30.8285 11.8467C31.0003 12.4153 31.0435 13.015 30.9547 13.6023C30.8659 14.1896 30.6474 14.7498 30.3151 15.2421C30.1405 15.5007 29.9368 15.7373 29.7086 15.9473Z" fill="black"/>
<path d="M11 18.5C12.1046 18.5 13 17.6046 13 16.5C13 15.3954 12.1046 14.5 11 14.5C9.89543 14.5 9 15.3954 9 16.5C9 17.6046 9.89543 18.5 11 18.5Z" fill="black"/>
<path d="M21 18.5C22.1046 18.5 23 17.6046 23 16.5C23 15.3954 22.1046 14.5 21 14.5C19.8954 14.5 19 15.3954 19 16.5C19 17.6046 19.8954 18.5 21 18.5Z" fill="black"/>
</svg>
