<svg xmlns="http://www.w3.org/2000/svg" width="32" height="32" fill="none" viewBox="0 0 32 32"><path fill="#000" fill-rule="evenodd" d="M13 28C13 27.4477 13.4477 27 14 27H18C18.5523 27 19 27.4477 19 28C19 28.5523 18.5523 29 18 29H14C13.4477 29 13 28.5523 13 28Z" clip-rule="evenodd"/><path fill="#000" fill-rule="evenodd" d="M14.7434 1.69968C15.097 1.40799 15.5413 1.24833 16 1.24833C16.4603 1.24833 16.9061 1.4091 17.2603 1.70275C18.502 2.71394 21.19 5.22082 22.6771 9.08625C24.1857 13.0078 24.4157 18.223 20.8705 24.4922C20.693 24.806 20.3605 25 20 25H12C11.6426 25 11.3124 24.8093 11.1338 24.4997C7.5161 18.229 7.73764 13.0061 9.26316 9.07856C10.7648 5.21242 13.4868 2.70614 14.7434 1.69968ZM16 3.25564L15.9997 3.25587C14.8782 4.1531 12.4512 6.39471 11.1275 9.80268C9.86283 13.0586 9.5635 17.4794 12.585 23H19.4092C22.3667 17.4815 22.0636 13.0617 20.8104 9.80437C19.5016 6.40227 17.1128 4.16242 16 3.25564Z" clip-rule="evenodd"/><path fill="#000" fill-rule="evenodd" d="M9.87849 13.1574C10.3024 13.5115 10.3591 14.1421 10.0051 14.566L6.08826 19.2562C6.0885 19.2572 6.08874 19.2583 6.08898 19.2594L7.62578 26.2188L11.3753 23.2191C11.8066 22.8741 12.4359 22.944 12.7809 23.3753C13.1259 23.8066 13.056 24.4359 12.6247 24.7809L8.8747 27.7809C8.60969 27.9926 8.2947 28.1339 7.96027 28.1906C7.62583 28.2473 7.28247 28.218 6.96246 28.1055C6.64245 27.993 6.35631 27.801 6.13095 27.5475C5.90559 27.2939 5.74842 26.9872 5.67422 26.6562L5.67353 26.6531L4.13861 19.7023C4.06657 19.4049 4.06551 19.0946 4.13564 18.7966C4.20649 18.4955 4.34796 18.2156 4.54833 17.98L8.46995 13.284C8.82396 12.8601 9.45458 12.8034 9.87849 13.1574Z" clip-rule="evenodd"/><path fill="#000" fill-rule="evenodd" d="M22.0473 13.0568C22.4716 12.7032 23.1022 12.7605 23.4557 13.1848L27.4521 17.9804C27.6522 18.216 27.7936 18.4957 27.8644 18.7966C27.9345 19.0946 27.9334 19.4049 27.8614 19.7023L26.3265 26.6531L26.3258 26.6562C26.2516 26.9872 26.0944 27.2939 25.8691 27.5475C25.6437 27.801 25.3576 27.993 25.0376 28.1055C24.7175 28.218 24.3742 28.2473 24.0397 28.1906C23.7053 28.1339 23.3908 27.993 23.1258 27.7812L19.3753 24.7809C18.944 24.4359 18.8741 23.8066 19.2191 23.3753C19.5641 22.944 20.1934 22.8741 20.6247 23.2191L24.3742 26.2188L25.911 19.2594C25.9113 19.2583 25.9115 19.2572 25.9118 19.2561L21.9193 14.4652C21.5657 14.0409 21.623 13.4103 22.0473 13.0568Z" clip-rule="evenodd"/><path fill="#000" d="M16 13.5C16.8284 13.5 17.5 12.8284 17.5 12C17.5 11.1716 16.8284 10.5 16 10.5C15.1716 10.5 14.5 11.1716 14.5 12C14.5 12.8284 15.1716 13.5 16 13.5Z"/></svg>