<svg xmlns="http://www.w3.org/2000/svg" width="32" height="32" fill="none" viewBox="0 0 32 32"><path fill="#000" fill-rule="evenodd" d="M9.87284 19.9188C10.0489 20.4422 9.76722 21.0093 9.24374 21.1853C7.54867 21.7554 6.64783 23.1783 6.16596 24.6253C5.97462 25.1999 5.85902 25.7531 5.78956 26.2104C6.24694 26.141 6.80009 26.0254 7.37468 25.834C8.82168 25.3522 10.2446 24.4513 10.8147 22.7563C10.9907 22.2328 11.5578 21.9511 12.0812 22.1272C12.6047 22.3032 12.8864 22.8703 12.7103 23.3937C11.8554 25.9362 9.74082 27.1541 8.00657 27.7316C7.13049 28.0233 6.31032 28.1674 5.71168 28.2392C5.41091 28.2753 5.16226 28.2935 4.98561 28.3028C4.89719 28.3075 4.82652 28.3099 4.77608 28.3112C4.75085 28.3118 4.73066 28.3121 4.7158 28.3123L4.69754 28.3125L4.69148 28.3125L4.68923 28.3125L4.6883 28.3125C4.68789 28.3125 4.6875 28.3125 4.6875 27.3125C3.6875 27.3125 3.6875 27.3121 3.6875 27.3117L3.6875 27.3108L3.68751 27.3085L3.68753 27.3025L3.6877 27.2842C3.68788 27.2693 3.68822 27.2491 3.68884 27.2239C3.69009 27.1735 3.69251 27.1028 3.69716 27.0144C3.70645 26.8377 3.72475 26.5891 3.76083 26.2883C3.83264 25.6897 3.97667 24.8695 4.26841 23.9934C4.84592 22.2592 6.06383 20.1446 8.60626 19.2897C9.12974 19.1136 9.6968 19.3953 9.87284 19.9188ZM4.6875 27.3125H3.6875C3.6875 27.8648 4.13522 28.3125 4.6875 28.3125V27.3125Z" clip-rule="evenodd"/><path fill="#000" fill-rule="evenodd" d="M26.474 5.52606C25.3132 5.35865 22.4562 5.29559 19.5321 8.21961L11.7517 16L16 20.2483L23.7804 12.4679C26.7044 9.54387 26.6414 6.68678 26.474 5.52606ZM26.764 3.54719C25.1676 3.31607 21.6092 3.31407 18.1179 6.80539L9.63042 15.2929C9.44288 15.4804 9.33752 15.7348 9.33752 16C9.33752 16.2652 9.44288 16.5196 9.63042 16.7071L15.2929 22.3696C15.6834 22.7601 16.3166 22.7601 16.7071 22.3696L25.1946 13.8821C28.686 10.3908 28.684 6.83239 28.4528 5.23607C28.3944 4.80883 28.1976 4.41241 27.8926 4.1074C27.5876 3.8024 27.1912 3.60567 26.764 3.54719Z" clip-rule="evenodd"/><path fill="#000" fill-rule="evenodd" d="M23.075 13.5875C23.6273 13.5875 24.075 14.0352 24.075 14.5875V22.6625L24.0749 22.6767C24.0674 23.202 23.8536 23.7031 23.4798 24.0719L19.4442 28.12C19.188 28.3759 18.8672 28.5574 18.5159 28.6453C18.1646 28.7331 17.7961 28.7239 17.4496 28.6187C17.1032 28.5135 16.7917 28.3161 16.5486 28.0478C16.3057 27.7797 16.1401 27.4507 16.0694 27.0958C16.0693 27.0956 16.0694 27.0961 16.0694 27.0958L15.0195 21.8591C14.911 21.3176 15.2619 20.7906 15.8034 20.682C16.345 20.5734 16.8719 20.9244 16.9805 21.4659L18.0308 26.705L22.075 22.6483V14.5875C22.075 14.0352 22.5227 13.5875 23.075 13.5875Z" clip-rule="evenodd"/><path fill="#000" fill-rule="evenodd" d="M9.32326 7.9251L9.3375 7.925H17.4125C17.9648 7.925 18.4125 8.37272 18.4125 8.925C18.4125 9.47728 17.9648 9.925 17.4125 9.925H9.35164L9.34356 9.93325L9.34351 9.9332L5.29501 13.9692L5.29657 13.9695L10.5341 15.0195C11.0756 15.1281 11.4266 15.6551 11.318 16.1966C11.2094 16.7381 10.6824 17.0891 10.1409 16.9805L4.90499 15.9308C4.90469 15.9307 4.90439 15.9307 4.90409 15.9306C4.54929 15.8599 4.22031 15.6943 3.9522 15.4514C3.68385 15.2083 3.48655 14.8969 3.38132 14.5504C3.2761 14.2039 3.26691 13.8354 3.35473 13.4841C3.44255 13.1328 3.6241 12.812 3.87999 12.5558L3.88149 12.5543L3.88149 12.5543L7.92805 8.52022C8.29687 8.14641 8.798 7.93258 9.32326 7.9251Z" clip-rule="evenodd"/></svg>