<svg width="32" height="32" viewBox="0 0 32 32" fill="none" xmlns="http://www.w3.org/2000/svg">
<path fill-rule="evenodd" clip-rule="evenodd" d="M8.68414 19.5267C7.83393 19.1761 6.92279 18.9971 6.00314 19C5.45086 19.0017 5.00174 18.5554 5.00001 18.0031C4.99827 17.4508 5.44458 17.0017 5.99686 17C7.18021 16.9963 8.35261 17.2266 9.4466 17.6777C10.5406 18.1289 11.5346 18.7919 12.3713 19.6287C13.2081 20.4654 13.8711 21.4594 14.3222 22.5534C14.7734 23.6474 15.0037 24.8198 15 26.0031C14.9983 26.5554 14.5491 27.0017 13.9969 27C13.4446 26.9982 12.9983 26.5491 13 25.9968C13.0029 25.0772 12.8239 24.166 12.4733 23.3158C12.1227 22.4656 11.6074 21.6932 10.9571 21.0429C10.3068 20.3926 9.53434 19.8773 8.68414 19.5267Z" fill="black"/>
<path fill-rule="evenodd" clip-rule="evenodd" d="M5 12C5 11.4477 5.44772 11 6 11C9.97825 11 13.7936 12.5804 16.6066 15.3934C19.4196 18.2064 21 22.0218 21 26C21 26.5523 20.5523 27 20 27C19.4477 27 19 26.5523 19 26C19 22.5522 17.6304 19.2456 15.1924 16.8076C12.7544 14.3696 9.44781 13 6 13C5.44772 13 5 12.5523 5 12Z" fill="black"/>
<path fill-rule="evenodd" clip-rule="evenodd" d="M13.2722 8.44053C10.9677 7.48489 8.49669 6.99528 6.00188 6.99997C5.4496 7.00101 5.00104 6.55414 5 6.00185C4.99896 5.44957 5.44584 5.00101 5.99812 4.99998C8.7571 4.99479 11.4898 5.53624 14.0383 6.59307C16.5861 7.64956 18.8993 9.20015 20.8446 11.1554C22.7998 13.1007 24.3504 15.4139 25.4069 17.9616C26.4637 20.5102 27.0052 23.2429 27 26.0019C26.999 26.5541 26.5504 27.001 25.9981 27C25.4458 26.9989 24.999 26.5504 25 25.9981C25.0047 23.5033 24.5151 21.0323 23.5594 18.7277C22.6038 16.4232 21.2011 14.3308 19.4323 12.5715L19.4285 12.5677L19.4285 12.5677C17.6691 10.7989 15.5768 9.39616 13.2722 8.44053Z" fill="black"/>
<path d="M6.5 27C7.32843 27 8 26.3284 8 25.5C8 24.6716 7.32843 24 6.5 24C5.67157 24 5 24.6716 5 25.5C5 26.3284 5.67157 27 6.5 27Z" fill="black"/>
</svg>
