<svg xmlns="http://www.w3.org/2000/svg" width="32" height="32" fill="none" viewBox="0 0 32 32"><path fill="#000" fill-rule="evenodd" d="M3.00049 22.4082C2.21944 21.6271 2.21944 20.3608 3.00049 19.5797L19.5821 2.99807C20.3632 2.21702 21.6295 2.21702 22.4106 2.99807L28.9964 9.58389C29.7774 10.3649 29.7774 11.6313 28.9964 12.4123L12.4147 28.994C11.6337 29.775 10.3674 29.775 9.5863 28.994L3.00049 22.4082ZM20.9964 4.41229L4.4147 20.9939L11.0005 27.5798L27.5822 10.9981L20.9964 4.41229Z" clip-rule="evenodd"/><path fill="#000" fill-rule="evenodd" d="M15.7929 6.79289C16.1834 6.40237 16.8166 6.40237 17.2071 6.79289L21.2071 10.7929C21.5976 11.1834 21.5976 11.8166 21.2071 12.2071C20.8166 12.5976 20.1834 12.5976 19.7929 12.2071L15.7929 8.20711C15.4024 7.81658 15.4024 7.18342 15.7929 6.79289Z" clip-rule="evenodd"/><path fill="#000" fill-rule="evenodd" d="M11.2929 11.2929C11.6834 10.9024 12.3166 10.9024 12.7071 11.2929L16.7071 15.2929C17.0976 15.6834 17.0976 16.3166 16.7071 16.7071C16.3166 17.0976 15.6834 17.0976 15.2929 16.7071L11.2929 12.7071C10.9024 12.3166 10.9024 11.6834 11.2929 11.2929Z" clip-rule="evenodd"/><path fill="#000" fill-rule="evenodd" d="M6.79289 15.7929C7.18342 15.4024 7.81658 15.4024 8.20711 15.7929L12.2071 19.7929C12.5976 20.1834 12.5976 20.8166 12.2071 21.2071C11.8166 21.5976 11.1834 21.5976 10.7929 21.2071L6.79289 17.2071C6.40237 16.8166 6.40237 16.1834 6.79289 15.7929Z" clip-rule="evenodd"/></svg>