<svg width="32" height="32" viewBox="0 0 32 32" fill="none" xmlns="http://www.w3.org/2000/svg">
<path fill-rule="evenodd" clip-rule="evenodd" d="M7.5 7C6.11929 7 5 8.11929 5 9.5C5 10.8807 6.11929 12 7.5 12C8.88071 12 10 10.8807 10 9.5C10 8.11929 8.88071 7 7.5 7ZM3 9.5C3 7.01472 5.01472 5 7.5 5C9.98528 5 12 7.01472 12 9.5C12 11.9853 9.98528 14 7.5 14C5.01472 14 3 11.9853 3 9.5Z" fill="black"/>
<path fill-rule="evenodd" clip-rule="evenodd" d="M7.5 20C6.11929 20 5 21.1193 5 22.5C5 23.8807 6.11929 25 7.5 25C8.88071 25 10 23.8807 10 22.5C10 21.1193 8.88071 20 7.5 20ZM3 22.5C3 20.0147 5.01472 18 7.5 18C9.98528 18 12 20.0147 12 22.5C12 24.9853 9.98528 27 7.5 27C5.01472 27 3 24.9853 3 22.5Z" fill="black"/>
<path fill-rule="evenodd" clip-rule="evenodd" d="M17.8253 15.4353C18.1372 15.891 18.0205 16.5134 17.5647 16.8253L10.9522 21.3503C10.4964 21.6622 9.87411 21.5455 9.56222 21.0897C9.25032 20.634 9.36696 20.0116 9.82275 19.6997L16.4352 15.1747C16.891 14.8628 17.5134 14.9795 17.8253 15.4353Z" fill="black"/>
<path fill-rule="evenodd" clip-rule="evenodd" d="M29.8254 7.22299C30.1372 7.67886 30.0204 8.30116 29.5645 8.61293L21.102 14.4004C20.6461 14.7122 20.0239 14.5954 19.7121 14.1395C19.4003 13.6836 19.5171 13.0613 19.973 12.7496L28.4355 6.96207C28.8914 6.6503 29.5137 6.76712 29.8254 7.22299Z" fill="black"/>
<path fill-rule="evenodd" clip-rule="evenodd" d="M9.56223 10.9102C9.87414 10.4545 10.4965 10.3378 10.9522 10.6497L29.5647 23.3872C30.0205 23.6992 30.1371 24.3215 29.8252 24.7773C29.5133 25.233 28.891 25.3497 28.4352 25.0378L9.82272 12.3003C9.36695 11.9883 9.25032 11.366 9.56223 10.9102Z" fill="black"/>
</svg>
