<svg width="32" height="32" viewBox="0 0 32 32" fill="none" xmlns="http://www.w3.org/2000/svg">
<path fill-rule="evenodd" clip-rule="evenodd" d="M3.81336 12.1817L3.81873 12.1744C3.82419 12.1669 3.83343 12.1544 3.84637 12.1371C3.87227 12.1026 3.91296 12.0492 3.96795 11.9797C4.07801 11.8405 4.2449 11.6372 4.46467 11.391C4.90524 10.8976 5.5526 10.2385 6.37468 9.58087C8.03142 8.25548 10.3153 7 13 7C15.9676 7 18.0536 8.12877 19.4005 9.76138C20.2723 10.8181 20.8586 12.1166 21.1541 13.5162C19.8767 13.1952 18.4881 13 17 13C10.6551 13 7.11552 16.224 6.51359 19.8356C6.21931 21.6013 6.6569 23.4004 7.79426 24.7652C8.94179 26.1422 10.736 27 13 27C19.5607 27 23.0762 21.6326 23.36 16.3965C24.3281 16.8322 25.1932 17.3306 25.9453 17.8321C27.0144 18.5448 27.8452 19.2572 28.406 19.7885C28.686 20.0537 28.8976 20.2728 29.0367 20.4226C29.1063 20.4975 29.1576 20.5551 29.1903 20.5923C29.2067 20.6109 29.2184 20.6245 29.2253 20.6326L29.2318 20.6402C29.2317 20.6401 29.2318 20.6402 29.2318 20.6402C29.2319 20.6403 29.2326 20.6412 29.2327 20.6413C29.5865 21.0646 30.2163 21.1215 30.6402 20.7682C31.0644 20.4147 31.1218 19.7841 30.7682 19.3598L30 20C30.7682 19.3598 30.7685 19.3602 30.7682 19.3598L30.767 19.3584L30.7653 19.3564L30.7606 19.3507L30.7455 19.333C30.733 19.3184 30.7157 19.2983 30.6934 19.2729C30.649 19.2223 30.5851 19.1509 30.5023 19.0617C30.3368 18.8835 30.0952 18.6338 29.7815 18.3365C29.1547 17.7428 28.2356 16.9552 27.0547 16.1679C26.0063 15.469 24.7437 14.7653 23.2906 14.1993C23.0447 12.1217 22.2799 10.1088 20.9432 8.48862C19.1964 6.37123 16.5324 5 13 5C9.68465 5 6.96855 6.54452 5.12529 8.01913C4.19737 8.76147 3.46973 9.50242 2.9728 10.059C2.72382 10.3378 2.53134 10.572 2.39921 10.7391C2.33311 10.8227 2.282 10.8896 2.24637 10.9371C2.22855 10.9609 2.2146 10.9798 2.20456 10.9935L2.19245 11.0101L2.18861 11.0155L2.18724 11.0174C2.18701 11.0177 2.18625 11.0188 2.99999 11.6L2.18625 11.0188C1.86524 11.4682 1.96934 12.0927 2.41875 12.4137C2.86799 12.7346 3.49225 12.6307 3.81336 12.1817ZM21.3786 15.653C20.0543 15.2528 18.5888 15 17 15C11.3449 15 8.88445 17.776 8.48638 20.1644C8.28067 21.3987 8.59307 22.5996 9.33071 23.4848C10.0582 24.3578 11.264 25 13 25C18.2839 25 21.2591 20.6245 21.3753 15.975C21.378 15.8675 21.3791 15.7602 21.3786 15.653Z" fill="black"/>
</svg>
