<svg width="32" height="32" viewBox="0 0 32 32" fill="none" xmlns="http://www.w3.org/2000/svg">
<path fill-rule="evenodd" clip-rule="evenodd" d="M21.998 4.00003C22.5237 3.99812 23.0446 4.10018 23.5307 4.30034C24.0176 4.50079 24.4599 4.79565 24.8321 5.16791C25.2044 5.54017 25.4992 5.98247 25.6997 6.46928C25.8998 6.95533 26.0019 7.47614 26 8.00177C26 8.00258 26 8.0034 26 8.00422L25 8.00003H26V8.00177V22C26 22.5523 25.5523 23 25 23C24.4477 23 24 22.5523 24 22V8.00003L24 7.99583C24.0011 7.73343 23.9502 7.47341 23.8503 7.23077C23.7504 6.98813 23.6034 6.76767 23.4179 6.58213C23.2324 6.39658 23.0119 6.24961 22.7693 6.1497C22.5266 6.04979 22.2666 5.99892 22.0042 6.00002L22 6.00003H5C4.44772 6.00003 4 5.55231 4 5.00003C4 4.44774 4.44772 4.00003 5 4.00003H21.998ZM21.998 4.00003C21.9973 4.00003 21.9966 4.00003 21.9958 4.00004L22 5.00003V4.00003H21.998Z" fill="black"/>
<path fill-rule="evenodd" clip-rule="evenodd" d="M12 13C12 12.4477 12.4477 12 13 12H21C21.5523 12 22 12.4477 22 13C22 13.5523 21.5523 14 21 14H13C12.4477 14 12 13.5523 12 13Z" fill="black"/>
<path fill-rule="evenodd" clip-rule="evenodd" d="M12 17C12 16.4477 12.4477 16 13 16H21C21.5523 16 22 16.4477 22 17C22 17.5523 21.5523 18 21 18H13C12.4477 18 12 17.5523 12 17Z" fill="black"/>
<path fill-rule="evenodd" clip-rule="evenodd" d="M5.23741 6.01573C4.91561 5.97726 4.58929 6.01756 4.28653 6.13318C3.98376 6.24879 3.71363 6.43625 3.49938 6.67942C3.28513 6.92258 3.13318 7.21417 3.05662 7.52908C2.98005 7.844 2.98116 8.1728 3.05985 8.48719C3.13854 8.80158 3.29245 9.09214 3.50833 9.33385C3.87623 9.74576 3.84054 10.3779 3.42863 10.7458C3.01672 11.1137 2.38456 11.078 2.01667 10.6661C1.5849 10.1827 1.27707 9.60157 1.1197 8.97279C0.962318 8.34401 0.9601 7.68641 1.11323 7.05658C1.26636 6.42676 1.57026 5.84358 1.99876 5.35724C2.42726 4.87091 2.96752 4.496 3.57305 4.26477C4.17858 4.03354 4.83123 3.95293 5.47482 4.02987C6.11841 4.10681 6.73367 4.339 7.26762 4.70646C7.80158 5.07391 8.23824 5.56562 8.54002 6.13926C8.8418 6.71289 8.99965 7.35128 9 7.99945V23.9995C9.00017 24.3235 9.0791 24.6427 9.22999 24.9295C9.38088 25.2164 9.59921 25.4622 9.86619 25.6459C10.1332 25.8297 10.4408 25.9458 10.7626 25.9842C11.0844 26.0227 11.4107 25.9824 11.7135 25.8668C12.0162 25.7512 12.2864 25.5637 12.5006 25.3206C12.7149 25.0774 12.8668 24.7858 12.9434 24.4709C13.0199 24.156 13.0188 23.8272 12.9402 23.5128C12.8615 23.1984 12.7076 22.9078 12.4917 22.6661C12.2291 22.3721 12.1637 21.9512 12.3248 21.5914C12.4858 21.2316 12.8433 21 13.2375 21H27.2375C27.5221 21 27.7931 21.1212 27.9829 21.3333C28.4977 21.909 28.835 22.6214 28.9538 23.3845C29.0726 24.1477 28.968 24.9289 28.6525 25.6339C28.3371 26.3388 27.8242 26.9374 27.176 27.3572C26.5279 27.777 25.7722 28.0003 25 28C24.9998 28 25.0002 28 25 28H11C10.9778 28 10.9558 27.9993 10.9339 27.9978C10.7976 27.9956 10.6612 27.9864 10.5252 27.9701C9.88158 27.8932 9.26633 27.661 8.73238 27.2935C8.19842 26.9261 7.76176 26.4344 7.45998 25.8607C7.1582 25.2871 7.00035 24.6487 7 24.0005V8.00052C6.99983 7.67643 6.9209 7.35724 6.77001 7.07042C6.61912 6.7836 6.40079 6.53775 6.13381 6.35402C5.86683 6.1703 5.55921 6.0542 5.23741 6.01573ZM14.4632 26H25C25.3862 26.0002 25.7646 25.8886 26.0887 25.6786C26.4128 25.4687 26.6692 25.1694 26.827 24.8169C26.9847 24.4644 27.037 24.0738 26.9776 23.6923C26.9395 23.4472 26.8563 23.2127 26.7335 23H14.8734C14.8757 23.009 14.878 23.0181 14.8803 23.0272C15.0377 23.656 15.0399 24.3136 14.8868 24.9434C14.7963 25.3153 14.6534 25.6709 14.4632 26Z" fill="black"/>
</svg>
