<svg width="32" height="32" viewBox="0 0 32 32" fill="none" xmlns="http://www.w3.org/2000/svg">
<path fill-rule="evenodd" clip-rule="evenodd" d="M10.4819 10H4C3.44772 10 3 9.55228 3 9C3 8.44772 3.44772 8 4 8H10.4844M10.4819 10L10.4865 10.0065L19.8814 23.1494C20.0633 23.4121 20.3064 23.6269 20.5897 23.7751C20.8754 23.9245 21.1933 24.0017 21.5157 24H21.5125V23L21.5201 24C21.5186 24 21.5172 24 21.5157 24M21.5181 22L21.5135 21.9935L12.1186 8.85063C12.121 8.85406 12.1234 8.85749 12.1257 8.86093L11.3 9.425L12.1135 8.84347L12.1186 8.85063M21.5181 22L21.5254 22.0105C21.5231 22.0073 21.5201 22.0047 21.5167 22.0029C21.5153 22.0022 21.5139 22.0016 21.5125 22.0012C21.51 22.0004 21.5075 22 21.5049 22L21.5125 22L21.5181 22Z" fill="black"/>
<path fill-rule="evenodd" clip-rule="evenodd" d="M25.2929 5.29289C25.6834 4.90237 26.3166 4.90237 26.7071 5.29289L29.7071 8.29289C30.0976 8.68342 30.0976 9.31658 29.7071 9.70711L26.7071 12.7071C26.3166 13.0976 25.6834 13.0976 25.2929 12.7071C24.9024 12.3166 24.9024 11.6834 25.2929 11.2929L27.5858 9L25.2929 6.70711C24.9024 6.31658 24.9024 5.68342 25.2929 5.29289Z" fill="black"/>
<path fill-rule="evenodd" clip-rule="evenodd" d="M25.2929 19.2929C25.6834 18.9024 26.3166 18.9024 26.7071 19.2929L29.7071 22.2929C30.0976 22.6834 30.0976 23.3166 29.7071 23.7071L26.7071 26.7071C26.3166 27.0976 25.6834 27.0976 25.2929 26.7071C24.9024 26.3166 24.9024 25.6834 25.2929 25.2929L27.5858 23L25.2929 20.7071C24.9024 20.3166 24.9024 19.6834 25.2929 19.2929Z" fill="black"/>
<path fill-rule="evenodd" clip-rule="evenodd" d="M21.5181 10L21.5142 10.0057L19.2767 13.1432C18.956 13.5928 18.3315 13.6974 17.8819 13.3767C17.4322 13.056 17.3276 12.4316 17.6483 11.9819L19.881 8.85118C20.063 8.58818 20.3061 8.37325 20.5897 8.22496C20.8753 8.07552 21.1933 7.9983 21.5156 8.00003C21.5171 8.00004 21.5186 8.00005 21.5201 8.00006L21.5125 9.00003V8.00003" fill="black"/>
<path fill-rule="evenodd" clip-rule="evenodd" d="M14.1181 18.6233C14.5678 18.944 14.6723 19.5685 14.3517 20.0181L12.119 23.1489C11.937 23.4119 11.6938 23.6268 11.4103 23.7751C11.1246 23.9245 10.8067 24.0017 10.4844 24C10.4829 24 10.4814 24 10.4799 24L10.4875 23V24H10.4844H4C3.44772 24 3 23.5523 3 23C3 22.4477 3.44772 22 4 22H10.4819L10.4746 22.0105C10.4768 22.0073 10.4799 22.0047 10.4833 22.0029C10.4847 22.0022 10.4861 22.0016 10.4875 22.0012C10.4895 22.0005 10.4916 22.0002 10.4938 22.0001C10.4942 22.0001 10.4947 22 10.4951 22L10.4819 22L10.4858 21.9944L12.7233 18.8569C13.044 18.4072 13.6685 18.3027 14.1181 18.6233Z" fill="black"/>
</svg>
