<svg width="32" height="32" viewBox="0 0 32 32" fill="none" xmlns="http://www.w3.org/2000/svg">
<path fill-rule="evenodd" clip-rule="evenodd" d="M20 6C20 5.44772 20.4477 5 21 5H26C26.5523 5 27 5.44772 27 6V11C27 11.5523 26.5523 12 26 12C25.4477 12 25 11.5523 25 11V7H21C20.4477 7 20 6.55228 20 6Z" fill="black"/>
<path fill-rule="evenodd" clip-rule="evenodd" d="M26 20C26.5523 20 27 20.4477 27 21V26C27 26.5523 26.5523 27 26 27H21C20.4477 27 20 26.5523 20 26C20 25.4477 20.4477 25 21 25H25V21C25 20.4477 25.4477 20 26 20Z" fill="black"/>
<path fill-rule="evenodd" clip-rule="evenodd" d="M5.29289 5.29289C5.68342 4.90237 6.31658 4.90237 6.70711 5.29289L26.7071 25.2929C27.0976 25.6834 27.0976 26.3166 26.7071 26.7071C26.3166 27.0976 25.6834 27.0976 25.2929 26.7071L5.29289 6.70711C4.90237 6.31658 4.90237 5.68342 5.29289 5.29289Z" fill="black"/>
<path fill-rule="evenodd" clip-rule="evenodd" d="M26.7071 5.29289C27.0976 5.68342 27.0976 6.31658 26.7071 6.70711L19.5321 13.8821C19.1416 14.2726 18.5084 14.2726 18.1179 13.8821C17.7274 13.4916 17.7274 12.8584 18.1179 12.4679L25.2929 5.29289C25.6834 4.90237 26.3166 4.90237 26.7071 5.29289Z" fill="black"/>
<path fill-rule="evenodd" clip-rule="evenodd" d="M13.8821 18.1179C14.2726 18.5084 14.2726 19.1416 13.8821 19.5321L6.70711 26.7071C6.31658 27.0976 5.68342 27.0976 5.29289 26.7071C4.90237 26.3166 4.90237 25.6834 5.29289 25.2929L12.4679 18.1179C12.8584 17.7274 13.4916 17.7274 13.8821 18.1179Z" fill="black"/>
</svg>
