<svg xmlns="http://www.w3.org/2000/svg" width="32" height="32" fill="none" viewBox="0 0 32 32"><path fill="#000" fill-rule="evenodd" d="M8.24742 4.3415C8.43731 4.12448 8.71164 4 9 4H23C23.2884 4 23.5627 4.12448 23.7526 4.3415L30.7526 12.3415C31.0905 12.7277 31.0812 13.3071 30.7311 13.6823L16.7311 28.6823C16.5419 28.885 16.2772 29 16 29C15.7228 29 15.4581 28.885 15.2689 28.6823L1.26895 13.6823C0.918761 13.3071 0.909461 12.7277 1.24742 12.3415L8.24742 4.3415ZM9.45377 6L3.3477 12.9784L16 26.5344L28.6523 12.9784L22.5462 6H9.45377Z" clip-rule="evenodd"/><path fill="#000" fill-rule="evenodd" d="M16.0001 4C16.311 4 16.6042 4.14462 16.7935 4.39131L22.931 12.3913C23.1475 12.6735 23.1978 13.0495 23.0631 13.3787L16.9256 28.3787C16.7718 28.7545 16.4061 29 16.0001 29C15.594 29 15.2283 28.7545 15.0745 28.3787L8.93704 13.3787C8.80234 13.0495 8.85264 12.6735 9.06915 12.3913L15.2067 4.39131C15.3959 4.14462 15.6891 4 16.0001 4ZM16.0001 6.64287L11.0056 13.1529L16.0001 25.3593L20.9945 13.1529L16.0001 6.64287Z" clip-rule="evenodd"/><path fill="#000" fill-rule="evenodd" d="M1 13C1 12.4477 1.44772 12 2 12H30C30.5523 12 31 12.4477 31 13C31 13.5523 30.5523 14 30 14H2C1.44772 14 1 13.5523 1 13Z" clip-rule="evenodd"/></svg>