<svg width="32" height="32" viewBox="0 0 32 32" fill="none" xmlns="http://www.w3.org/2000/svg">
<path fill-rule="evenodd" clip-rule="evenodd" d="M23.962 4.77642C24.3199 4.76961 24.673 4.85898 24.9846 5.0352C25.2962 5.21143 25.5548 5.46804 25.7334 5.77828C25.9109 6.0866 26.0029 6.43664 26 6.79231V25.2077C26.0029 25.5634 25.9109 25.9134 25.7334 26.2217C25.5548 26.532 25.2962 26.7886 24.9846 26.9648C24.673 27.141 24.3199 27.2304 23.962 27.2236C23.6046 27.2168 23.2556 27.1143 22.9513 26.9269C22.9509 26.9266 22.9504 26.9264 22.9499 26.9261L7.87801 17.703L7.87319 17.7C7.58377 17.5206 7.34494 17.2703 7.17931 16.9728C7.01369 16.6754 6.92676 16.3405 6.92676 16C6.92676 15.6595 7.01369 15.3246 7.17931 15.0272C7.34494 14.7297 7.58377 14.4794 7.87319 14.3L7.878 14.297L22.9499 5.07394C22.9505 5.07355 22.9512 5.07317 22.9518 5.07279C23.256 4.88556 23.6048 4.78322 23.962 4.77642ZM23.9969 6.77797L8.92676 16L23.9969 25.222L24 25.2239L23.9999 25.2125L24 6.7761L23.9969 6.77797Z" fill="black"/>
<path fill-rule="evenodd" clip-rule="evenodd" d="M7 4C7.55228 4 8 4.44772 8 5V27C8 27.5523 7.55228 28 7 28C6.44772 28 6 27.5523 6 27V5C6 4.44772 6.44772 4 7 4Z" fill="black"/>
</svg>
