<svg width="32" height="32" viewBox="0 0 32 32" fill="none" xmlns="http://www.w3.org/2000/svg">
<path fill-rule="evenodd" clip-rule="evenodd" d="M7.01529 5.0352C7.32688 4.85898 7.68005 4.76961 8.03795 4.77642C8.39514 4.78322 8.74398 4.88558 9.0482 5.07282C9.0488 5.0732 9.04941 5.07357 9.05001 5.07394L24.1267 14.3C24.4161 14.4794 24.655 14.7297 24.8206 15.0272C24.9862 15.3246 25.0732 15.6595 25.0732 16C25.0732 16.3405 24.9862 16.6754 24.8206 16.9728C24.655 17.2703 24.4162 17.5206 24.1267 17.7L24.1219 17.703L9.05001 26.9261C9.04955 26.9263 9.04909 26.9266 9.04863 26.9269C8.7443 27.1143 8.3953 27.2168 8.03795 27.2236C7.68005 27.2304 7.32688 27.141 7.01529 26.9648C6.70371 26.7886 6.44513 26.532 6.26655 26.2217C6.08908 25.9134 5.99707 25.5634 5.99994 25.2078V6.79224C5.99707 6.4366 6.08908 6.08658 6.26655 5.77828C6.44513 5.46804 6.70371 5.21143 7.01529 5.0352ZM23.0732 16L7.99988 6.77607L8.00001 6.7875L7.99994 25.2239L8.00298 25.222L23.0732 16Z" fill="black"/>
<path fill-rule="evenodd" clip-rule="evenodd" d="M25 4C25.5523 4 26 4.44772 26 5V27C26 27.5523 25.5523 28 25 28C24.4477 28 24 27.5523 24 27V5C24 4.44772 24.4477 4 25 4Z" fill="black"/>
</svg>
