<svg width="32" height="32" viewBox="0 0 32 32" fill="none" xmlns="http://www.w3.org/2000/svg">
<path fill-rule="evenodd" clip-rule="evenodd" d="M11.5 15C10.6716 15 10 15.6716 10 16.5C10 17.3284 10.6716 18 11.5 18C12.3284 18 13 17.3284 13 16.5C13 15.6716 12.3284 15 11.5 15ZM8 16.5C8 14.567 9.567 13 11.5 13C13.433 13 15 14.567 15 16.5C15 18.433 13.433 20 11.5 20C9.567 20 8 18.433 8 16.5Z" fill="black"/>
<path fill-rule="evenodd" clip-rule="evenodd" d="M20.5 15C19.6716 15 19 15.6716 19 16.5C19 17.3284 19.6716 18 20.5 18C21.3284 18 22 17.3284 22 16.5C22 15.6716 21.3284 15 20.5 15ZM17 16.5C17 14.567 18.567 13 20.5 13C22.433 13 24 14.567 24 16.5C24 18.433 22.433 20 20.5 20C18.567 20 17 18.433 17 16.5Z" fill="black"/>
<path fill-rule="evenodd" clip-rule="evenodd" d="M16 4.00177C13.7113 4.00177 11.4853 4.74956 9.6608 6.13131C7.83629 7.51307 6.51322 9.45311 5.89295 11.6561C5.27269 13.8592 5.38922 16.2045 6.2248 18.3352C7.06038 20.4659 8.56925 22.2653 10.5217 23.4594C10.8188 23.6411 11 23.9642 11 24.3125V27H21V24.3125C21 23.9642 21.1812 23.6411 21.4783 23.4594C23.4307 22.2653 24.9396 20.4659 25.7752 18.3352C26.6108 16.2045 26.7273 13.8592 26.107 11.6561C25.4868 9.45311 24.1637 7.51307 22.3392 6.13131C20.5147 4.74956 18.2887 4.00177 16 4.00177ZM8.45333 4.53694C10.6254 2.892 13.2754 2.00177 16 2.00177C18.7246 2.00177 21.3746 2.892 23.5467 4.53694C25.7187 6.18189 27.2938 8.49146 28.0322 11.1141C28.7706 13.7368 28.6319 16.5289 27.6371 19.0654C26.7117 21.4252 25.0926 23.4435 23 24.8579V27C23 27.5304 22.7893 28.0391 22.4142 28.4142C22.0391 28.7893 21.5304 29 21 29H11C10.4696 29 9.96086 28.7893 9.58579 28.4142C9.21072 28.0391 9 27.5304 9 27V24.8579C6.90736 23.4435 5.28826 21.4252 4.36286 19.0654C3.36812 16.5289 3.2294 13.7368 3.9678 11.1141C4.70621 8.49146 6.2813 6.18189 8.45333 4.53694Z" fill="black"/>
<path fill-rule="evenodd" clip-rule="evenodd" d="M14 23C14.5523 23 15 23.4477 15 24V28C15 28.5523 14.5523 29 14 29C13.4477 29 13 28.5523 13 28V24C13 23.4477 13.4477 23 14 23Z" fill="black"/>
<path fill-rule="evenodd" clip-rule="evenodd" d="M18 23C18.5523 23 19 23.4477 19 24V28C19 28.5523 18.5523 29 18 29C17.4477 29 17 28.5523 17 28V24C17 23.4477 17.4477 23 18 23Z" fill="black"/>
</svg>
