<svg xmlns="http://www.w3.org/2000/svg" width="32" height="32" fill="none" viewBox="0 0 32 32"><path fill="#000" fill-rule="evenodd" d="M15 13C15 12.4696 14.7893 11.9609 14.4142 11.5858C14.0391 11.2107 13.5304 11 13 11H7C6.46957 11 5.96086 11.2107 5.58579 11.5858C5.21071 11.9609 5 12.4696 5 13C5 13.5304 5.21071 14.0391 5.58579 14.4142C5.96086 14.7893 6.46957 15 7 15H15V13ZM17 13V16C17 16.5523 16.5523 17 16 17H7C5.93913 17 4.92172 16.5786 4.17157 15.8284C3.42143 15.0783 3 14.0609 3 13C3 11.9391 3.42143 10.9217 4.17157 10.1716C4.92172 9.42143 5.93913 9 7 9H13C14.0609 9 15.0783 9.42143 15.8284 10.1716C16.5786 10.9217 17 11.9391 17 13Z" clip-rule="evenodd"/><path fill="#000" fill-rule="evenodd" d="M12.9958 4.99999C12.7334 4.99889 12.4734 5.04976 12.2308 5.14967C11.9881 5.24958 11.7677 5.39655 11.5821 5.58209C11.3966 5.76764 11.2496 5.9881 11.1497 6.23074C11.0498 6.47338 10.9989 6.7334 11 6.9958L10 7L11 7.00419C10.9989 7.26659 11.0498 7.52661 11.1497 7.76925C11.2496 8.01189 11.3966 8.23235 11.5821 8.4179C11.7677 8.60345 11.9881 8.75041 12.2308 8.85032C12.4734 8.95023 12.7334 9.0011 12.9958 9L13 8.99999L15 9V6.9958C15.0011 6.7334 14.9503 6.47338 14.8504 6.23074C14.7504 5.9881 14.6035 5.76764 14.4179 5.58209C14.2324 5.39655 14.0119 5.24958 13.7693 5.14967C13.5266 5.04976 13.2666 4.99889 13.0042 4.99999L13 4L12.9958 4.99999ZM13 2.99999C12.475 2.99834 11.9548 3.10039 11.4693 3.30031C10.9825 3.50076 10.5402 3.79562 10.1679 4.16788C9.79565 4.54014 9.50079 4.98244 9.30034 5.46925C9.10042 5.95476 8.99837 6.47496 9.00002 7C8.99837 7.52503 9.10042 8.04523 9.30034 8.53075C9.50079 9.01755 9.79565 9.45985 10.1679 9.83211C10.5402 10.2044 10.9825 10.4992 11.4693 10.6997C11.9554 10.8999 12.4763 11.0019 13.002 11H13V10L13.0042 11C13.0035 11 13.0028 11 13.002 11M17 7.002V7H16L17 7.00419C17 7.00346 17 7.00273 17 7.002ZM17 7.002C17.0019 6.47629 16.8999 5.95538 16.6997 5.46925C16.4993 4.98244 16.2044 4.54014 15.8321 4.16788C15.4599 3.79562 15.0176 3.50076 14.5308 3.30031C14.0453 3.10039 13.5251 2.99834 13 2.99999" clip-rule="evenodd"/><path fill="#000" fill-rule="evenodd" d="M19 15C19.5304 15 20.0391 14.7893 20.4142 14.4142C20.7893 14.0391 21 13.5304 21 13V7C21 6.46957 20.7893 5.96086 20.4142 5.58579C20.0391 5.21071 19.5304 5 19 5C18.4696 5 17.9609 5.21071 17.5858 5.58579C17.2107 5.96086 17 6.46957 17 7V15H19ZM19 17H16C15.4477 17 15 16.5523 15 16L15 7C15 5.93913 15.4214 4.92172 16.1716 4.17157C16.9217 3.42143 17.9391 3 19 3C20.0609 3 21.0783 3.42143 21.8284 4.17157C22.5786 4.92172 23 5.93913 23 7V13C23 14.0609 22.5786 15.0783 21.8284 15.8284C21.0783 16.5786 20.0609 17 19 17Z" clip-rule="evenodd"/><path fill="#000" fill-rule="evenodd" d="M24.9958 11C24.7334 10.9989 24.4734 11.0498 24.2308 11.1497C23.9881 11.2496 23.7677 11.3965 23.5821 11.5821C23.3966 11.7676 23.2496 11.9881 23.1497 12.2307C23.0498 12.4734 22.9989 12.7334 23 12.9958L23 13L23 15H25.0042C25.2666 15.0011 25.5266 14.9502 25.7693 14.8503C26.0119 14.7504 26.2324 14.6034 26.4179 14.4179C26.6035 14.2323 26.7504 14.0119 26.8504 13.7693C26.9503 13.5266 27.0011 13.2666 27 13.0042L28 13L27 12.9958C27.0011 12.7334 26.9503 12.4734 26.8504 12.2307C26.7504 11.9881 26.6035 11.7676 26.4179 11.5821C26.2324 11.3965 26.0119 11.2496 25.7693 11.1497C25.5266 11.0498 25.2666 10.9989 25.0042 11L25 10L24.9958 11ZM25 8.99999C24.475 8.99834 23.9548 9.10039 23.4693 9.30031C22.9825 9.50076 22.5402 9.79562 22.1679 10.1679C21.7956 10.5401 21.5008 10.9824 21.3003 11.4692C21.1002 11.9554 20.9981 12.4763 21 13.0019V13H22L21 13.0042C21 13.0034 21 13.0027 21 13.0019M24.998 17H25V16L24.9958 17C24.9966 17 24.9973 17 24.998 17ZM24.998 17C25.5237 17.0019 26.0446 16.8999 26.5308 16.6997C27.0176 16.4992 27.4599 16.2044 27.8321 15.8321C28.2044 15.4598 28.4993 15.0176 28.6997 14.5307C28.8996 14.0452 29.0017 13.525 29 13C29.0017 12.475 28.8996 11.9548 28.6997 11.4692C28.4993 10.9824 28.2044 10.5401 27.8321 10.1679C27.4599 9.79562 27.0176 9.50076 26.5308 9.30031C26.0453 9.10039 25.5251 8.99834 25 8.99999" clip-rule="evenodd"/><path fill="#000" fill-rule="evenodd" d="M17 19C17 19.5304 17.2107 20.0391 17.5858 20.4142C17.9609 20.7893 18.4696 21 19 21H25C25.5304 21 26.0391 20.7893 26.4142 20.4142C26.7893 20.0391 27 19.5304 27 19C27 18.4696 26.7893 17.9609 26.4142 17.5858C26.0391 17.2107 25.5304 17 25 17H17V19ZM29 19C29 20.0609 28.5786 21.0783 27.8284 21.8284C27.0783 22.5786 26.0609 23 25 23H19C17.9391 23 16.9217 22.5786 16.1716 21.8284C15.4214 21.0783 15 20.0609 15 19V16C15 15.4477 15.4477 15 16 15H25C26.0609 15 27.0783 15.4214 27.8284 16.1716C28.5786 16.9217 29 17.9391 29 19Z" clip-rule="evenodd"/><path fill="#000" fill-rule="evenodd" d="M19.7693 23.1497C19.5266 23.0498 19.2666 22.9989 19.0042 23L19 23L17 23V25.0042C16.9989 25.2666 17.0498 25.5266 17.1497 25.7693C17.2496 26.0119 17.3966 26.2323 17.5821 26.4179C17.7677 26.6034 17.9881 26.7504 18.2308 26.8503C18.4734 26.9502 18.7334 27.0011 18.9958 27L19.0042 27C19.2666 27.0011 19.5266 26.9502 19.7693 26.8503C20.0119 26.7504 20.2324 26.6034 20.4179 26.4179C20.6035 26.2323 20.7504 26.0119 20.8504 25.7693C20.9503 25.5266 21.0011 25.2666 21 25.0042L22 25L21 24.9958C21.0011 24.7334 20.9503 24.4734 20.8504 24.2307C20.7504 23.9881 20.6035 23.7676 20.4179 23.5821C20.2324 23.3965 20.0119 23.2496 19.7693 23.1497ZM23 25C23.0017 24.475 22.8996 23.9548 22.6997 23.4692C22.4993 22.9824 22.2044 22.5401 21.8321 22.1679C21.4599 21.7956 21.0176 21.5008 20.5308 21.3003C20.0447 21.1001 19.5238 20.9981 18.9981 21H19V22L18.9958 21C18.9966 21 18.9973 21 18.9981 21M15 24.998V25H16L15 24.9958C15 24.9965 15 24.9973 15 24.998ZM15 24.998C14.9981 25.5237 15.1002 26.0446 15.3003 26.5307C15.5008 27.0176 15.7956 27.4598 16.1679 27.8321C16.5402 28.2044 16.9825 28.4992 17.4693 28.6997C17.9548 28.8996 18.475 29.0017 19 29C19.5251 29.0017 20.0453 28.8996 20.5308 28.6997C21.0176 28.4992 21.4599 28.2044 21.8321 27.8321C22.2044 27.4598 22.4993 27.0176 22.6997 26.5307C22.8996 26.0452 23.0017 25.525 23 25" clip-rule="evenodd"/><path fill="#000" fill-rule="evenodd" d="M13 17C12.4696 17 11.9609 17.2107 11.5858 17.5858C11.2107 17.9609 11 18.4696 11 19V25C11 25.5304 11.2107 26.0391 11.5858 26.4142C11.9609 26.7893 12.4696 27 13 27C13.5304 27 14.0391 26.7893 14.4142 26.4142C14.7893 26.0391 15 25.5304 15 25V17H13ZM13 15H16C16.5523 15 17 15.4477 17 16V25C17 26.0609 16.5786 27.0783 15.8284 27.8284C15.0783 28.5786 14.0609 29 13 29C11.9391 29 10.9217 28.5786 10.1716 27.8284C9.42143 27.0783 9 26.0609 9 25V19C9 17.9391 9.42143 16.9217 10.1716 16.1716C10.9217 15.4214 11.9391 15 13 15Z" clip-rule="evenodd"/><path fill="#000" fill-rule="evenodd" d="M6.99583 17C6.73343 16.9989 6.47341 17.0498 6.23077 17.1497C5.98813 17.2496 5.76767 17.3965 5.58213 17.5821C5.39658 17.7676 5.24961 17.9881 5.1497 18.2307C5.04979 18.4734 4.99892 18.7334 5.00002 18.9958L5.00005 19.0042C4.99895 19.2666 5.04979 19.5266 5.1497 19.7693C5.24961 20.0119 5.39658 20.2323 5.58213 20.4179C5.76767 20.6034 5.98813 20.7504 6.23077 20.8503C6.47341 20.9502 6.73343 21.0011 6.99583 21L7.00003 22L7.00422 21C7.26662 21.0011 7.52665 20.9502 7.76929 20.8503C8.01192 20.7504 8.23238 20.6034 8.41793 20.4179C8.60348 20.2323 8.75044 20.0119 8.85035 19.7693C8.95026 19.5266 9.00114 19.2666 9.00003 19.0042L9.00002 19L9.00003 17L6.99583 17ZM7.00003 23C6.47499 23.0017 5.95479 22.8996 5.46928 22.6997C4.98247 22.4992 4.54017 22.2044 4.16791 21.8321C3.79565 21.4598 3.50079 21.0176 3.30034 20.5307C3.10042 20.0452 2.99837 19.525 3.00002 19C2.99837 18.475 3.10042 17.9548 3.30034 17.4692C3.50079 16.9824 3.79565 16.5401 4.16791 16.1679C4.54017 15.7956 4.98247 15.5008 5.46928 15.3003C5.95539 15.1001 6.47628 14.9981 7.00198 15C7.00273 15 7.00347 15 7.00422 15L7.00003 16V15H7.00198H10C10.5523 15 11 15.4477 11 16V18.998C11 18.9973 11 18.9965 11 18.9958L10 19H11V18.998" clip-rule="evenodd"/></svg>