<svg width="32" height="32" viewBox="0 0 32 32" fill="none" xmlns="http://www.w3.org/2000/svg">
<path fill-rule="evenodd" clip-rule="evenodd" d="M16 7C16.5523 7 17 7.44772 17 8V24C17 24.5523 16.5523 25 16 25C15.4477 25 15 24.5523 15 24V8C15 7.44772 15.4477 7 16 7Z" fill="black"/>
<path fill-rule="evenodd" clip-rule="evenodd" d="M12.2929 4.29289C12.6834 3.90237 13.3166 3.90237 13.7071 4.29289L16 6.58579L18.2929 4.29289C18.6834 3.90237 19.3166 3.90237 19.7071 4.29289C20.0976 4.68342 20.0976 5.31658 19.7071 5.70711L16.7071 8.70711C16.3166 9.09763 15.6834 9.09763 15.2929 8.70711L12.2929 5.70711C11.9024 5.31658 11.9024 4.68342 12.2929 4.29289Z" fill="black"/>
<path fill-rule="evenodd" clip-rule="evenodd" d="M15.2929 23.2929C15.6834 22.9024 16.3166 22.9024 16.7071 23.2929L19.7071 26.2929C20.0976 26.6834 20.0976 27.3166 19.7071 27.7071C19.3166 28.0976 18.6834 28.0976 18.2929 27.7071L16 25.4142L13.7071 27.7071C13.3166 28.0976 12.6834 28.0976 12.2929 27.7071C11.9024 27.3166 11.9024 26.6834 12.2929 26.2929L15.2929 23.2929Z" fill="black"/>
<path fill-rule="evenodd" clip-rule="evenodd" d="M8.20907 11.4998C8.48531 11.0216 9.09693 10.8578 9.57517 11.1341L23.4252 19.1341C23.9034 19.4103 24.0672 20.0219 23.7909 20.5002C23.5147 20.9784 22.9031 21.1421 22.4248 20.8659L8.57482 12.8659C8.09659 12.5897 7.93283 11.978 8.20907 11.4998Z" fill="black"/>
<path fill-rule="evenodd" clip-rule="evenodd" d="M7.71585 6.93419C8.24927 6.79107 8.79771 7.10748 8.94082 7.6409L10.0408 11.7409C10.1839 12.2743 9.86753 12.8228 9.33411 12.9659L5.23411 14.0659C4.70069 14.209 4.15225 13.8926 4.00914 13.3592C3.86602 12.8257 4.18243 12.2773 4.71585 12.1342L7.85001 11.2933L7.00914 8.15916C6.86602 7.62574 7.18243 7.0773 7.71585 6.93419Z" fill="black"/>
<path fill-rule="evenodd" clip-rule="evenodd" d="M27.9909 18.6409C28.134 19.1743 27.8176 19.7228 27.2842 19.8659L24.15 20.7067L24.9909 23.8409C25.134 24.3743 24.8176 24.9228 24.2842 25.0659C23.7508 25.209 23.2023 24.8926 23.0592 24.3592L21.9592 20.2592C21.8161 19.7257 22.1325 19.1773 22.6659 19.0342L26.7659 17.9342C27.2993 17.7911 27.8478 18.1075 27.9909 18.6409Z" fill="black"/>
<path fill-rule="evenodd" clip-rule="evenodd" d="M23.7909 11.4998C24.0672 11.978 23.9034 12.5897 23.4252 12.8659L9.57517 20.8659C9.09693 21.1421 8.48531 20.9784 8.20907 20.5002C7.93283 20.0219 8.09659 19.4103 8.57482 19.1341L22.4248 11.1341C22.9031 10.8578 23.5147 11.0216 23.7909 11.4998Z" fill="black"/>
<path fill-rule="evenodd" clip-rule="evenodd" d="M4.00914 18.6409C4.15225 18.1075 4.70069 17.7911 5.23411 17.9342L9.33411 19.0342C9.86753 19.1773 10.1839 19.7257 10.0408 20.2592L8.94082 24.3592C8.79771 24.8926 8.24927 25.209 7.71585 25.0659C7.18243 24.9228 6.86602 24.3743 7.00914 23.8409L7.85001 20.7067L4.71585 19.8659C4.18243 19.7228 3.86602 19.1743 4.00914 18.6409Z" fill="black"/>
<path fill-rule="evenodd" clip-rule="evenodd" d="M24.2842 6.93419C24.8176 7.0773 25.134 7.62574 24.9909 8.15916L24.15 11.2933L27.2842 12.1342C27.8176 12.2773 28.134 12.8257 27.9909 13.3592C27.8478 13.8926 27.2993 14.209 26.7659 14.0659L22.6659 12.9659C22.4098 12.8971 22.1914 12.7295 22.0589 12.4998C21.9263 12.27 21.8905 11.9971 21.9592 11.7409L23.0592 7.6409C23.2023 7.10748 23.7508 6.79107 24.2842 6.93419Z" fill="black"/>
</svg>
