<svg width="32" height="32" viewBox="0 0 32 32" fill="none" xmlns="http://www.w3.org/2000/svg">
<path fill-rule="evenodd" clip-rule="evenodd" d="M16 5C9.92487 5 5 9.92487 5 16C5 22.0751 9.92487 27 16 27C22.0751 27 27 22.0751 27 16C27 9.92487 22.0751 5 16 5ZM3 16C3 8.8203 8.8203 3 16 3C23.1797 3 29 8.8203 29 16C29 23.1797 23.1797 29 16 29C8.8203 29 3 23.1797 3 16Z" fill="black"/>
<path fill-rule="evenodd" clip-rule="evenodd" d="M15.4121 9.94109C15.7626 9.6863 16.2374 9.6863 16.5879 9.94109L21.5754 13.5661C21.9254 13.8205 22.0721 14.2711 21.939 14.6827L20.039 20.5577C19.9055 20.9704 19.5212 21.25 19.0875 21.25H12.9125C12.4788 21.25 12.0945 20.9704 11.961 20.5577L10.061 14.6827C9.92789 14.2711 10.0746 13.8205 10.4246 13.5661L15.4121 9.94109ZM12.1872 14.7575L13.6401 19.25H18.3599L19.8128 14.7575L16 11.9862L12.1872 14.7575Z" fill="black"/>
<path fill-rule="evenodd" clip-rule="evenodd" d="M16 7C16.5523 7 17 7.44772 17 8V10.75C17 11.3023 16.5523 11.75 16 11.75C15.4477 11.75 15 11.3023 15 10.75V8C15 7.44772 15.4477 7 16 7Z" fill="black"/>
<path fill-rule="evenodd" clip-rule="evenodd" d="M10.8157 4.23768C11.14 3.79069 11.7654 3.6913 12.2123 4.01569L16 6.76444L19.7876 4.01569C20.2346 3.6913 20.8599 3.79069 21.1843 4.23768C21.5087 4.68466 21.4093 5.30998 20.9623 5.63436L16.5873 8.80936C16.237 9.06358 15.763 9.06358 15.4126 8.80936L11.0376 5.63436C10.5907 5.30998 10.4913 4.68466 10.8157 4.23768Z" fill="black"/>
<path fill-rule="evenodd" clip-rule="evenodd" d="M7.43614 13.2169C7.60628 12.6915 8.17014 12.4035 8.69557 12.5736L11.3206 13.4236C11.846 13.5938 12.134 14.1576 11.9639 14.6831C11.7937 15.2085 11.2299 15.4965 10.7044 15.3264L8.07945 14.4764C7.55402 14.3062 7.266 13.7424 7.43614 13.2169Z" fill="black"/>
<path fill-rule="evenodd" clip-rule="evenodd" d="M6.41712 7.43605C6.94258 7.26601 7.50639 7.55414 7.67643 8.07959L9.33893 13.2171C9.47203 13.6284 9.32576 14.0787 8.97636 14.3332L4.60136 17.5207C4.15499 17.8459 3.52949 17.7477 3.20427 17.3013C2.87905 16.855 2.97727 16.2295 3.42365 15.9042L7.21298 13.1434L5.77358 8.69536C5.60354 8.1699 5.89167 7.60609 6.41712 7.43605Z" fill="black"/>
<path fill-rule="evenodd" clip-rule="evenodd" d="M13.4993 19.4403C13.9465 19.7644 14.0463 20.3896 13.7222 20.8368L12.1097 23.0618C11.7856 23.509 11.1604 23.6088 10.7132 23.2847C10.266 22.9606 10.1662 22.3354 10.4903 21.8882L12.1028 19.6632C12.4269 19.216 13.0521 19.1162 13.4993 19.4403Z" fill="black"/>
<path fill-rule="evenodd" clip-rule="evenodd" d="M4.8875 22.475C4.8875 21.9227 5.33521 21.475 5.8875 21.475H11.3C11.7329 21.475 12.1166 21.7535 12.2507 22.165L13.9257 27.3025C14.0969 27.8276 13.8101 28.392 13.285 28.5632C12.7599 28.7344 12.1954 28.4475 12.0243 27.9224L10.5742 23.475H5.8875C5.33521 23.475 4.8875 23.0273 4.8875 22.475Z" fill="black"/>
<path fill-rule="evenodd" clip-rule="evenodd" d="M18.5007 19.4403C18.9479 19.1162 19.5731 19.216 19.8972 19.6632L21.5097 21.8882C21.8338 22.3354 21.734 22.9606 21.2868 23.2847C20.8396 23.6088 20.2144 23.509 19.8903 23.0618L18.2778 20.8368C17.9537 20.3896 18.0535 19.7644 18.5007 19.4403Z" fill="black"/>
<path fill-rule="evenodd" clip-rule="evenodd" d="M19.7493 22.165C19.8834 21.7535 20.2672 21.475 20.7 21.475H26.1125C26.6648 21.475 27.1125 21.9227 27.1125 22.475C27.1125 23.0273 26.6648 23.475 26.1125 23.475H21.4258L19.9757 27.9225C19.8046 28.4475 19.2401 28.7344 18.715 28.5632C18.1899 28.392 17.9031 27.8276 18.0743 27.3025L19.7493 22.165Z" fill="black"/>
<path fill-rule="evenodd" clip-rule="evenodd" d="M24.5639 13.2169C24.734 13.7424 24.446 14.3062 23.9206 14.4764L21.2956 15.3264C20.7701 15.4965 20.2063 15.2085 20.0361 14.6831C19.866 14.1576 20.154 13.5938 20.6794 13.4236L23.3044 12.5736C23.8299 12.4035 24.3937 12.6915 24.5639 13.2169Z" fill="black"/>
<path fill-rule="evenodd" clip-rule="evenodd" d="M25.5829 7.43605C26.1083 7.60609 26.3965 8.1699 26.2264 8.69536L24.787 13.1434L28.5764 15.9042C29.0227 16.2295 29.1209 16.855 28.7957 17.3013C28.4705 17.7477 27.845 17.8459 27.3986 17.5207L23.0236 14.3332C22.6742 14.0787 22.528 13.6284 22.6611 13.2171L24.3236 8.07959C24.4936 7.55414 25.0574 7.26601 25.5829 7.43605Z" fill="black"/>
</svg>
