<svg xmlns="http://www.w3.org/2000/svg" width="32" height="32" fill="none" viewBox="0 0 32 32"><path fill="#000" fill-rule="evenodd" d="M16.5391 2.15773L16 3L15.4609 2.15773C15.7895 1.94742 16.2105 1.94742 16.5391 2.15773ZM2.5 17.4996C2.50012 15.5717 3.41684 13.6469 4.63552 11.9164C5.86724 10.1674 7.48969 8.50142 9.08104 7.06921C10.677 5.63283 12.2687 4.40758 13.459 3.54259C14.055 3.10949 14.5525 2.76523 14.9022 2.52842C15.0771 2.40998 15.2152 2.31834 15.3103 2.2558C15.3579 2.22453 15.3948 2.20053 15.4201 2.18409L15.4494 2.16513L15.4574 2.15997L15.4598 2.15848L15.4605 2.15801C15.4607 2.15786 15.4609 2.15773 16 3C16.5391 2.15773 16.5393 2.15786 16.5395 2.15801L16.5402 2.15848L16.5426 2.15997L16.5506 2.16513L16.5799 2.18409C16.6052 2.20053 16.6421 2.22453 16.6897 2.2558C16.7848 2.31834 16.9229 2.40998 17.0978 2.52842C17.4475 2.76523 17.945 3.10949 18.541 3.54259C19.7313 4.40758 21.323 5.63283 22.919 7.06921C24.5103 8.50142 26.1328 10.1674 27.3645 11.9164C28.5831 13.6468 29.4997 15.5713 29.5 17.4991M2.5 17.4996C2.5 17.4995 2.5 17.4993 2.5 17.4991L3.5 17.5H2.5C2.5 17.4999 2.5 17.4998 2.5 17.4996ZM16 4.20045C15.6673 4.42605 15.1972 4.75183 14.6347 5.16053C13.4813 5.99867 11.948 7.17967 10.419 8.55579C8.88531 9.93608 7.38276 11.4889 6.27073 13.068C5.14574 14.6655 4.5 16.1781 4.5 17.5L4.5 17.5009C4.4991 18.5479 4.7971 19.5735 5.35898 20.457C5.92085 21.3406 6.72326 22.0453 7.67189 22.4886C8.62052 22.9318 9.67596 23.095 10.7142 22.959C11.7524 22.8231 12.7302 22.3936 13.5327 21.7211C13.8757 21.4336 14.3679 21.409 14.7378 21.6609C15.1077 21.9128 15.2653 22.3798 15.1235 22.8043L13.3883 28H18.6117L16.8765 22.8043C16.7347 22.3798 16.8923 21.9128 17.2622 21.6609C17.6321 21.409 18.1243 21.4336 18.4673 21.7211C19.2698 22.3936 20.2476 22.8231 21.2858 22.959C22.324 23.095 23.3795 22.9318 24.3281 22.4886C25.2767 22.0453 26.0791 21.3406 26.641 20.457C27.2029 19.5735 27.5009 18.5479 27.5 17.5009V17.5C27.5 16.1781 26.8543 14.6655 25.7293 13.068C24.6172 11.4889 23.1147 9.93608 21.581 8.55579C20.052 7.17967 18.5187 5.99867 17.3653 5.16053C16.8028 4.75183 16.3327 4.42605 16 4.20045Z" clip-rule="evenodd"/></svg>