<svg xmlns="http://www.w3.org/2000/svg" width="32" height="32" fill="none" viewBox="0 0 32 32"><path fill="#000" fill-rule="evenodd" d="M12.858 6.25607C13.1932 6.02296 13.5917 5.89801 14 5.89801C14.4082 5.89801 14.8067 6.02296 15.1419 6.25607C15.4771 6.48918 15.7329 6.81929 15.875 7.20204L15.8758 7.20424L18.2758 13.7167C18.2764 13.7184 18.2774 13.72 18.2787 13.7213C18.28 13.7226 18.2815 13.7236 18.2832 13.7242L24.798 16.125C25.1807 16.2671 25.5108 16.5229 25.7439 16.8581C25.977 17.1933 26.102 17.5918 26.102 18C26.102 18.4083 25.977 18.8068 25.7439 19.142C25.5108 19.4771 25.1807 19.733 24.798 19.875L24.7958 19.8758L18.2833 22.2758C18.2816 22.2765 18.28 22.2775 18.2787 22.2787C18.2774 22.28 18.2764 22.2816 18.2758 22.2833L15.8758 28.7958L15.875 28.798C15.7329 29.1808 15.4771 29.5109 15.1419 29.744C14.8067 29.9771 14.4082 30.102 14 30.102C13.5917 30.102 13.1932 29.9771 12.858 29.744C12.5228 29.5109 12.267 29.1808 12.125 28.798L12.1242 28.7958L9.72415 22.2833C9.72353 22.2816 9.72252 22.28 9.72124 22.2787C9.72062 22.2781 9.71993 22.2776 9.7192 22.2771C9.71842 22.2766 9.7176 22.2762 9.71673 22.2759L3.20418 19.8758L3.20198 19.875C2.81922 19.733 2.48912 19.4771 2.25601 19.142C2.0229 18.8068 1.89795 18.4083 1.89795 18C1.89795 17.5918 2.0229 17.1933 2.25601 16.8581C2.48912 16.5229 2.81922 16.2671 3.20198 16.125L3.20418 16.1242L9.71667 13.7242C9.71837 13.7236 9.71996 13.7226 9.72124 13.7213C9.72252 13.72 9.72351 13.7185 9.72413 13.7168L12.1242 7.20424L12.125 7.20204C12.267 6.81929 12.5228 6.48918 12.858 6.25607ZM16.3992 21.5917C16.3991 21.5918 16.3992 21.5917 16.3992 21.5917C16.4998 21.3185 16.6586 21.0704 16.8645 20.8645C17.0704 20.6587 17.3185 20.4999 17.5917 20.3992C17.5917 20.3992 17.5917 20.3992 17.5917 20.3992L24.102 18L17.5917 15.6009C17.5917 15.6009 17.5917 15.6009 17.5917 15.6009C17.3185 15.5002 17.0704 15.3414 16.8645 15.1355C16.6586 14.9296 16.4998 14.6815 16.3992 14.4083C16.3991 14.4083 16.3992 14.4083 16.3992 14.4083L14 7.89801L11.6008 14.4083C11.6008 14.4083 11.6008 14.4082 11.6008 14.4083C11.5001 14.6815 11.3413 14.9296 11.1355 15.1355C10.9296 15.3414 10.6815 15.5002 10.4083 15.6008C10.4082 15.6008 10.4083 15.6008 10.4083 15.6008L3.89795 18L10.4082 20.3992C10.4082 20.3992 10.4082 20.3992 10.4082 20.3992C10.6814 20.4999 10.9296 20.6586 11.1355 20.8645C11.3413 21.0704 11.5001 21.3185 11.6008 21.5917C11.6008 21.5917 11.6008 21.5918 11.6008 21.5917L14 28.102L16.3992 21.5917Z" clip-rule="evenodd"/><path fill="#000" fill-rule="evenodd" d="M22 1C22.5523 1 23 1.44772 23 2V8C23 8.55228 22.5523 9 22 9C21.4477 9 21 8.55228 21 8V2C21 1.44772 21.4477 1 22 1Z" clip-rule="evenodd"/><path fill="#000" fill-rule="evenodd" d="M18 5C18 4.44772 18.4477 4 19 4H25C25.5523 4 26 4.44772 26 5C26 5.55228 25.5523 6 25 6H19C18.4477 6 18 5.55228 18 5Z" clip-rule="evenodd"/><path fill="#000" fill-rule="evenodd" d="M28 8C28.5523 8 29 8.44772 29 9V13C29 13.5523 28.5523 14 28 14C27.4477 14 27 13.5523 27 13V9C27 8.44772 27.4477 8 28 8Z" clip-rule="evenodd"/><path fill="#000" fill-rule="evenodd" d="M25 11C25 10.4477 25.4477 10 26 10H30C30.5523 10 31 10.4477 31 11C31 11.5523 30.5523 12 30 12H26C25.4477 12 25 11.5523 25 11Z" clip-rule="evenodd"/></svg>