<svg xmlns="http://www.w3.org/2000/svg" width="32" height="32" fill="none" viewBox="0 0 32 32"><path fill="#000" fill-rule="evenodd" d="M26.6546 8.93123C27.0446 8.54025 27.6778 8.53951 28.0688 8.92958C28.9987 9.85731 29.7364 10.9594 30.2398 12.1726C30.7431 13.3859 31.0023 14.6865 31.0023 16C31.0023 17.3135 30.7431 18.6142 30.2398 19.8274C29.7364 21.0407 28.9987 22.1427 28.0688 23.0704C27.6778 23.4605 27.0446 23.4598 26.6546 23.0688C26.2645 22.6778 26.2652 22.0447 26.6562 21.6546C27.3999 20.9126 27.9899 20.0313 28.3925 19.061C28.795 18.0907 29.0023 17.0505 29.0023 16C29.0023 14.9495 28.795 13.9093 28.3925 12.939C27.9899 11.9687 27.3999 11.0874 26.6562 10.3454C26.2652 9.95537 26.2645 9.32221 26.6546 8.93123Z" clip-rule="evenodd"/><path fill="#000" fill-rule="evenodd" d="M10 10C10.5523 10 11 10.4477 11 11V21C11 21.5523 10.5523 22 10 22C9.44772 22 9 21.5523 9 21V11C9 10.4477 9.44772 10 10 10Z" clip-rule="evenodd"/><path fill="#000" fill-rule="evenodd" d="M23.1165 12.4692C23.5063 12.078 24.1395 12.0768 24.5308 12.4665C24.9959 12.9299 25.365 13.4806 25.6169 14.0869C25.8687 14.6933 25.9983 15.3434 25.9983 16C25.9983 16.6566 25.8687 17.3067 25.6169 17.913C25.365 18.5194 24.9959 19.0701 24.5308 19.5335C24.1395 19.9232 23.5063 19.922 23.1165 19.5307C22.7268 19.1395 22.728 18.5063 23.1193 18.1165C23.3979 17.839 23.619 17.5091 23.7698 17.1459C23.9207 16.7827 23.9983 16.3933 23.9983 16C23.9983 15.6067 23.9207 15.2173 23.7698 14.8541C23.619 14.4909 23.3979 14.161 23.1193 13.8835C22.728 13.4937 22.7268 12.8605 23.1165 12.4692Z" clip-rule="evenodd"/><path fill="#000" fill-rule="evenodd" d="M5.32733 4.26007C5.73599 3.88856 6.36844 3.91868 6.73995 4.32733L26.7399 26.3273C27.1115 26.736 27.0813 27.3684 26.6727 27.7399C26.264 28.1115 25.6316 28.0813 25.2601 27.6727L5.26007 5.67268C4.88856 5.26402 4.91868 4.63157 5.32733 4.26007Z" clip-rule="evenodd"/><path fill="#000" fill-rule="evenodd" d="M11.6387 9.72277C11.9782 10.1584 11.9003 10.7867 11.4647 11.1262L10.6147 11.7887C10.4391 11.9257 10.2227 12 10 12L4 12V20H10C10.2224 20 10.4384 20.0741 10.6139 20.2107L18 25.9554V19.3C18 18.7477 18.4477 18.3 19 18.3C19.5523 18.3 20 18.7477 20 19.3V28C20 28.3819 19.7824 28.7305 19.4394 28.8983C19.0963 29.0661 18.6875 29.0238 18.3861 28.7894L9.65689 22H4C3.46957 22 2.96086 21.7893 2.58579 21.4142C2.21071 21.0391 2 20.5304 2 20V12C2 11.4696 2.21071 10.9609 2.58579 10.5858C2.96086 10.2107 3.46957 10 4 10H9.65632L10.2353 9.54878C10.6709 9.20927 11.2992 9.28716 11.6387 9.72277Z" clip-rule="evenodd"/><path fill="#000" fill-rule="evenodd" d="M19.439 3.10154C19.7823 3.26928 20 3.61795 20 4.00001V13.35C20 13.9023 19.5523 14.35 19 14.35C18.4477 14.35 18 13.9023 18 13.35V6.04645L14.6395 8.66393C14.2038 9.00331 13.5755 8.92521 13.2361 8.4895C12.8967 8.05379 12.9748 7.42546 13.4105 7.08608L18.3855 3.21108C18.6869 2.97631 19.0958 2.9338 19.439 3.10154Z" clip-rule="evenodd"/></svg>