<svg xmlns="http://www.w3.org/2000/svg" width="32" height="32" fill="none" viewBox="0 0 32 32"><path fill="#000" fill-rule="evenodd" d="M16 3C16.5523 3 17 3.44772 17 4V8C17 8.55228 16.5523 9 16 9C15.4477 9 15 8.55228 15 8V4C15 3.44772 15.4477 3 16 3Z" clip-rule="evenodd"/><path fill="#000" fill-rule="evenodd" d="M23 16C23 15.4477 23.4477 15 24 15H28C28.5523 15 29 15.4477 29 16C29 16.5523 28.5523 17 28 17H24C23.4477 17 23 16.5523 23 16Z" clip-rule="evenodd"/><path fill="#000" fill-rule="evenodd" d="M20.9554 20.9554C21.3459 20.5649 21.9791 20.5649 22.3696 20.9554L25.1946 23.7804C25.5851 24.1709 25.5851 24.8041 25.1946 25.1946C24.8041 25.5851 24.1709 25.5851 23.7804 25.1946L20.9554 22.3696C20.5648 21.9791 20.5648 21.3459 20.9554 20.9554Z" clip-rule="evenodd"/><path fill="#000" fill-rule="evenodd" d="M16 23C16.5523 23 17 23.4477 17 24V28C17 28.5523 16.5523 29 16 29C15.4477 29 15 28.5523 15 28V24C15 23.4477 15.4477 23 16 23Z" clip-rule="evenodd"/><path fill="#000" fill-rule="evenodd" d="M11.0446 20.9554C11.4351 21.3459 11.4351 21.9791 11.0446 22.3696L8.21956 25.1946C7.82903 25.5851 7.19587 25.5851 6.80534 25.1946C6.41482 24.8041 6.41482 24.1709 6.80534 23.7804L9.63034 20.9554C10.0209 20.5649 10.654 20.5649 11.0446 20.9554Z" clip-rule="evenodd"/><path fill="#000" fill-rule="evenodd" d="M3 16C3 15.4477 3.44772 15 4 15H8C8.55228 15 9 15.4477 9 16C9 16.5523 8.55228 17 8 17H4C3.44772 17 3 16.5523 3 16Z" clip-rule="evenodd"/><path fill="#000" fill-rule="evenodd" d="M6.80534 6.80539C7.19587 6.41487 7.82903 6.41487 8.21956 6.80539L11.0446 9.63039C11.4351 10.0209 11.4351 10.6541 11.0446 11.0446C10.654 11.4351 10.0209 11.4351 9.63034 11.0446L6.80534 8.2196C6.41482 7.82908 6.41482 7.19591 6.80534 6.80539Z" clip-rule="evenodd"/></svg>