<svg width="32" height="32" viewBox="0 0 32 32" fill="none" xmlns="http://www.w3.org/2000/svg">
<path fill-rule="evenodd" clip-rule="evenodd" d="M16 5C9.92487 5 5 9.92487 5 16C5 22.0751 9.92487 27 16 27C22.0751 27 27 22.0751 27 16C27 9.92487 22.0751 5 16 5ZM3 16C3 8.8203 8.8203 3 16 3C23.1797 3 29 8.8203 29 16C29 23.1797 23.1797 29 16 29C8.8203 29 3 23.1797 3 16Z" fill="black"/>
<path fill-rule="evenodd" clip-rule="evenodd" d="M15.9913 11C18.3735 10.9977 20.7221 11.5623 22.8429 12.6472C23.3346 12.8988 23.5293 13.5012 23.2778 13.9929C23.0263 14.4846 22.4238 14.6793 21.9321 14.4278C20.0938 13.4874 18.0581 12.998 15.9932 13C13.9284 13.002 11.8936 13.4954 10.0572 14.4394C9.56597 14.6919 8.9631 14.4984 8.71062 14.0072C8.45814 13.516 8.65165 12.9131 9.14284 12.6606C11.2616 11.5716 13.609 11.0024 15.9913 11Z" fill="black"/>
<path fill-rule="evenodd" clip-rule="evenodd" d="M15.9908 15.0003C17.7288 14.9979 19.4425 15.4078 20.9912 16.1964C21.4834 16.4469 21.6792 17.049 21.4286 17.5412C21.178 18.0334 20.5759 18.2292 20.0838 17.9786C18.8169 17.3336 17.4152 16.9984 15.9936 17.0003C14.572 17.0023 13.1712 17.3414 11.9061 17.9899C11.4147 18.2418 10.812 18.0476 10.5601 17.5562C10.3082 17.0647 10.5023 16.462 10.9938 16.2101C12.5404 15.4173 14.2529 15.0027 15.9908 15.0003Z" fill="black"/>
<path fill-rule="evenodd" clip-rule="evenodd" d="M15.9976 19C17.0889 18.9969 18.1655 19.2524 19.1392 19.7453C19.632 19.9948 19.8292 20.5965 19.5797 21.0892C19.3302 21.5819 18.7286 21.7791 18.2358 21.5297C17.5438 21.1793 16.7786 20.9978 16.0029 21L16.002 21C15.2189 21.0015 14.4467 21.1839 13.7455 21.5328C13.2511 21.7788 12.6508 21.5775 12.4047 21.083C12.1587 20.5886 12.3601 19.9883 12.8545 19.7422C13.8311 19.2562 14.9067 19.0022 15.9976 19ZM15.9976 19C15.9977 19 15.9979 19 15.998 19L16 20L15.9972 19C15.9973 19 15.9974 19 15.9976 19Z" fill="black"/>
</svg>
