<svg width="32" height="32" viewBox="0 0 32 32" fill="none" xmlns="http://www.w3.org/2000/svg">
<path fill-rule="evenodd" clip-rule="evenodd" d="M6 18C6.55228 18 7 18.4477 7 19V26H25V19C25 18.4477 25.4477 18 26 18C26.5523 18 27 18.4477 27 19V27C27 27.5523 26.5523 28 26 28H6C5.44772 28 5 27.5523 5 27V19C5 18.4477 5.44772 18 6 18Z" fill="black"/>
<path fill-rule="evenodd" clip-rule="evenodd" d="M10 22C10 21.4477 10.4477 21 11 21H21C21.5523 21 22 21.4477 22 22C22 22.5523 21.5523 23 21 23H11C10.4477 23 10 22.5523 10 22Z" fill="black"/>
<path fill-rule="evenodd" clip-rule="evenodd" d="M10.9091 15.141C11.0522 14.6076 11.6005 14.2911 12.134 14.4341L21.784 17.0216C22.3174 17.1647 22.6339 17.713 22.4909 18.2465C22.3479 18.7799 21.7995 19.0964 21.266 18.9534L11.616 16.3659C11.0826 16.2228 10.7661 15.6745 10.9091 15.141Z" fill="black"/>
<path fill-rule="evenodd" clip-rule="evenodd" d="M13.5464 8.7501C13.8225 8.27177 14.4341 8.10783 14.9124 8.38392L23.5749 13.3839C24.0532 13.66 24.2172 14.2716 23.9411 14.7499C23.665 15.2282 23.0534 15.3922 22.5751 15.1161L13.9126 10.1161C13.4343 9.83999 13.2704 9.22842 13.5464 8.7501Z" fill="black"/>
<path fill-rule="evenodd" clip-rule="evenodd" d="M17.7679 3.2679C18.1584 2.87738 18.7916 2.87738 19.1821 3.2679L26.2446 10.3304C26.6351 10.7209 26.6351 11.3541 26.2446 11.7446C25.8541 12.1351 25.2209 12.1351 24.8304 11.7446L17.7679 4.68211C17.3773 4.29159 17.3773 3.65842 17.7679 3.2679Z" fill="black"/>
</svg>
