<svg xmlns="http://www.w3.org/2000/svg" width="32" height="32" fill="none" viewBox="0 0 32 32"><path fill="#000" fill-rule="evenodd" d="M4 28C4 27.4477 4.44772 27 5 27H27C27.5523 27 28 27.4477 28 28C28 28.5523 27.5523 29 27 29H5C4.44772 29 4 28.5523 4 28Z" clip-rule="evenodd"/><path fill="#000" fill-rule="evenodd" d="M14.7114 4C14.4132 3.99967 14.1187 4.06602 13.8495 4.19421C13.5802 4.32239 13.343 4.50915 13.1553 4.74083C12.9676 4.97251 12.834 5.24324 12.7644 5.5332C12.6949 5.82295 12.6909 6.12458 12.7529 6.41603C12.7529 6.41582 12.753 6.41624 12.7529 6.41603L14.9778 16.7903C15.0936 17.3303 14.7497 17.862 14.2097 17.9778C13.6697 18.0936 13.138 17.7497 13.0222 17.2097L10.7969 6.83334C10.6727 6.25003 10.6804 5.64632 10.8196 5.0664C10.9588 4.48648 11.226 3.94502 11.6014 3.48167C11.9769 3.01831 12.4513 2.64478 12.9897 2.38841C13.528 2.13213 14.1168 1.99943 14.713 2C14.7128 2 14.7132 2 14.713 2H17.287C17.2868 2 17.2872 2 17.287 2M19.2471 6.4161C19.247 6.41629 19.2471 6.41591 19.2471 6.4161V6.4161ZM19.2471 6.4161C19.3091 6.12462 19.3051 5.82297 19.2356 5.5332C19.166 5.24324 19.0324 4.97251 18.8447 4.74083C18.6569 4.50915 18.4198 4.32239 18.1505 4.19421C17.8813 4.06602 17.5868 3.99967 17.2886 4H14.7114" clip-rule="evenodd"/><path fill="#000" fill-rule="evenodd" d="M4 18C4 16.8954 4.89543 16 6 16H26C27.1046 16 28 16.8954 28 18V23C28 24.1046 27.1046 25 26 25H6C4.89543 25 4 24.1046 4 23V18ZM26 18H6V23H26V18Z" clip-rule="evenodd"/></svg>