<svg width="32" height="32" viewBox="0 0 32 32" fill="none" xmlns="http://www.w3.org/2000/svg">
<path fill-rule="evenodd" clip-rule="evenodd" d="M14.858 2.29348C15.1932 2.06037 15.5917 1.93542 15.9999 1.93542C16.4082 1.93542 16.8067 2.06037 17.1419 2.29348C17.4771 2.52659 17.7329 2.8567 17.8749 3.23945L17.8773 3.24569L20.7758 11.2167C20.7757 11.2166 20.7758 11.2168 20.7758 11.2167C20.7764 11.2183 20.7775 11.22 20.7787 11.2212C20.7796 11.2221 20.7806 11.2229 20.7817 11.2235C20.782 11.2236 20.7824 11.2238 20.7828 11.2239C20.7826 11.2239 20.7829 11.224 20.7828 11.2239L28.7604 14.1249C29.1432 14.267 29.4733 14.5228 29.7064 14.858C29.9395 15.1932 30.0645 15.5917 30.0645 15.9999C30.0645 16.4082 29.9395 16.8067 29.7064 17.1419C29.4733 17.4771 29.1432 17.7329 28.7604 17.8749L28.7542 17.8773L20.7832 20.7758C20.7831 20.7758 20.7833 20.7757 20.7832 20.7758C20.7816 20.7764 20.7798 20.7775 20.7787 20.7787C20.7775 20.7798 20.7765 20.7813 20.7759 20.7828C20.7759 20.7829 20.776 20.7827 20.7759 20.7828L17.875 28.7604C17.7329 29.1432 17.4771 29.4733 17.1419 29.7064C16.8067 29.9395 16.4082 30.0645 15.9999 30.0645C15.5917 30.0645 15.1932 29.9395 14.858 29.7064C14.5228 29.4733 14.267 29.1432 14.1249 28.7604L14.1226 28.7542L11.2241 20.7832C11.2241 20.783 11.2242 20.7833 11.2241 20.7832C11.2237 20.7822 11.2231 20.7809 11.2225 20.7801C11.2221 20.7796 11.2217 20.7791 11.2212 20.7787C11.22 20.7775 11.2186 20.7765 11.2171 20.7759C11.2169 20.7759 11.2172 20.776 11.2171 20.7759L3.23945 17.875C2.85669 17.7329 2.52659 17.4771 2.29348 17.1419C2.06037 16.8067 1.93542 16.4082 1.93542 15.9999C1.93542 15.5917 2.06037 15.1932 2.29348 14.858C2.52659 14.5228 2.8567 14.267 3.23945 14.1249L3.24569 14.1226L11.2167 11.2241C11.2166 11.2242 11.2168 11.2241 11.2167 11.2241C11.2182 11.2235 11.22 11.2224 11.2212 11.2212C11.2224 11.22 11.2233 11.2186 11.2239 11.2171C11.2239 11.2172 11.224 11.217 11.2239 11.2171L14.1249 3.23945C14.267 2.85669 14.5228 2.52659 14.858 2.29348ZM19.8375 20.4375L18.8991 20.0917C18.9998 19.8185 19.1586 19.5703 19.3644 19.3644C19.5703 19.1586 19.8185 18.9998 20.0917 18.8991L20.0957 18.8976L28.0645 15.9999L20.0957 13.1022L20.0917 13.1008C19.8185 13.0001 19.5703 12.8413 19.3644 12.6354C19.1586 12.4295 18.9998 12.1814 18.8991 11.9082L18.8976 11.9042L15.9999 3.93549L13.1022 11.9042L13.1008 11.9082C13.0001 12.1814 12.8413 12.4295 12.6354 12.6354C12.4295 12.8413 12.1814 13.0001 11.9082 13.1008L11.9042 13.1022L3.93549 15.9999L11.9082 18.8991C12.1814 18.9998 12.4295 19.1586 12.6354 19.3644C12.8413 19.5703 13.0001 19.8185 13.1008 20.0917L13.1022 20.0957L15.9999 28.0645L18.8976 20.0957L19.8375 20.4375Z" fill="black"/>
</svg>
