<svg xmlns="http://www.w3.org/2000/svg" width="32" height="32" fill="none" viewBox="0 0 32 32"><path fill="#000" fill-rule="evenodd" d="M14.8312 2.36072C15.1737 2.12081 15.5818 1.99213 16 1.99213C16.4182 1.99213 16.8263 2.12081 17.1688 2.36072C17.5067 2.59737 17.7647 2.93093 17.9089 3.31718L20.6544 10.2309L20.6626 10.2523C20.6651 10.2591 20.6696 10.265 20.6755 10.2694C20.6813 10.2737 20.6883 10.2762 20.6956 10.2767L20.7018 10.277L28.0768 10.752C29.9912 10.8764 30.6455 13.2729 29.2522 14.4311C29.2519 14.4313 29.2517 14.4315 29.2514 14.4318L23.603 19.1429L23.5997 19.1456C23.587 19.1561 23.5775 19.17 23.5724 19.1857C23.5674 19.2009 23.5666 19.2173 23.5703 19.2329C23.5704 19.2333 23.5705 19.2337 23.5706 19.2341L25.3941 26.4035C25.8357 28.1464 23.9537 29.716 22.3165 28.6833L22.314 28.6817L16.014 24.6817C16.01 24.6791 16.0047 24.6774 16 24.6774C15.9952 24.6774 15.9906 24.6788 15.9866 24.6813L15.985 24.6823L10.1244 28.3936C10.1241 28.3938 10.1238 28.394 10.1235 28.3942C8.32746 29.5361 6.2531 27.8001 6.74339 25.8783C6.74331 25.8786 6.74347 25.878 6.74339 25.8783L8.42943 19.2341C8.42952 19.2338 8.42961 19.2334 8.4297 19.233C8.43337 19.2173 8.43264 19.201 8.42761 19.1857C8.42245 19.17 8.41297 19.1561 8.40026 19.1456L8.39698 19.1429L2.74859 14.4318C2.74833 14.4315 2.74806 14.4313 2.74779 14.4311C1.3545 13.2728 2.00825 10.8764 3.9227 10.7521L11.3044 10.2766C11.3117 10.2762 11.3187 10.2737 11.3245 10.2694C11.3304 10.265 11.3349 10.2591 11.3374 10.2523L11.3456 10.2309L14.0911 3.31718C14.2353 2.93094 14.4933 2.59737 14.8312 2.36072ZM17.0866 22.9936C17.0864 22.9935 17.0868 22.9937 17.0866 22.9936L23.3835 26.9917C23.3832 26.9915 23.3838 26.9918 23.3835 26.9917C23.3949 26.9988 23.4024 27.0016 23.4044 27.0022C23.407 27.0016 23.4157 26.9993 23.4275 26.9903C23.4427 26.9788 23.4524 26.9645 23.4567 26.9528C23.4587 26.9475 23.46 26.9418 23.4604 26.9347C23.4608 26.9279 23.4606 26.9153 23.4557 26.8957C23.4556 26.8957 23.4557 26.8958 23.4557 26.8957L21.6294 19.7158C21.5347 19.334 21.5498 18.9333 21.6729 18.5597C21.7957 18.1869 22.0212 17.8563 22.3235 17.6058C22.3241 17.6053 22.3247 17.6048 22.3253 17.6043L27.9736 12.8932C27.9853 12.8835 27.9902 12.8765 27.9924 12.8732C27.9947 12.8695 27.9967 12.8652 27.9982 12.8593C28.0018 12.8458 28.003 12.8225 27.9947 12.7957C27.9864 12.7689 27.9741 12.7558 27.9705 12.7528C27.9693 12.7518 27.9689 12.7516 27.9685 12.7514C27.9683 12.7514 27.9626 12.7489 27.948 12.7479C27.9479 12.7479 27.9481 12.7479 27.948 12.7479L20.5794 12.2733C20.5782 12.2732 20.577 12.2731 20.5758 12.2731C20.1819 12.2495 19.8033 12.112 19.4861 11.8773C19.1714 11.6445 18.9305 11.3261 18.7921 10.9602L16.0456 4.04405C16.042 4.03502 16.0386 4.02594 16.0352 4.01681C16.0326 4.00958 16.0278 4.00333 16.0215 3.99891C16.0152 3.99449 16.0077 3.99213 16 3.99213C15.9923 3.99213 15.9848 3.99449 15.9785 3.99891C15.9722 4.00333 15.9674 4.00958 15.9648 4.01681C15.9614 4.02594 15.958 4.03502 15.9544 4.04405L13.2079 10.9602C13.0695 11.3261 12.8286 11.6445 12.5139 11.8773C12.1966 12.112 11.8181 12.2495 11.4241 12.2731L4.05229 12.7479C4.05219 12.7479 4.0524 12.7479 4.05229 12.7479C4.03773 12.7488 4.03172 12.7513 4.03161 12.7514C4.03116 12.7516 4.03078 12.7517 4.0295 12.7528C4.02587 12.7558 4.01357 12.7689 4.00528 12.7957C3.99697 12.8225 3.99821 12.8458 4.00176 12.8593C4.00332 12.8652 4.00532 12.8695 4.00764 12.8732C4.00975 12.8765 4.0147 12.8835 4.0264 12.8932L4.02802 12.8945L9.67473 17.6043C9.67538 17.6048 9.67604 17.6054 9.67669 17.6059C9.97884 17.8564 10.2043 18.1869 10.3271 18.5597C10.4502 18.9333 10.4653 19.334 10.3706 19.7158L10.3693 19.7209L8.68136 26.3726C8.64523 26.514 8.69507 26.6235 8.78641 26.6929C8.83316 26.7285 8.88038 26.7437 8.9177 26.7463C8.94856 26.7485 8.99129 26.7441 9.05062 26.7063L14.9134 22.9936C14.9139 22.9933 14.9145 22.993 14.915 22.9926C15.2394 22.7867 15.6157 22.6774 16 22.6774C16.3847 22.6774 16.7619 22.7873 17.0866 22.9936Z" clip-rule="evenodd"/></svg>