<svg xmlns="http://www.w3.org/2000/svg" width="32" height="32" fill="none" viewBox="0 0 32 32"><path fill="#000" fill-rule="evenodd" d="M8.5 21C7.11929 21 6 22.1193 6 23.5C6 24.8807 7.11929 26 8.5 26C9.88071 26 11 24.8807 11 23.5C11 22.1193 9.88071 21 8.5 21ZM4 23.5C4 21.0147 6.01472 19 8.5 19C10.9853 19 13 21.0147 13 23.5C13 25.9853 10.9853 28 8.5 28C6.01472 28 4 25.9853 4 23.5Z" clip-rule="evenodd"/><path fill="#000" fill-rule="evenodd" d="M4.29289 8.29289C4.68342 7.90237 5.31658 7.90237 5.70711 8.29289L10.7071 13.2929C11.0976 13.6834 11.0976 14.3166 10.7071 14.7071C10.3166 15.0976 9.68342 15.0976 9.29289 14.7071L4.29289 9.70711C3.90237 9.31658 3.90237 8.68342 4.29289 8.29289Z" clip-rule="evenodd"/><path fill="#000" fill-rule="evenodd" d="M10.7071 8.29289C11.0976 8.68342 11.0976 9.31658 10.7071 9.70711L5.70711 14.7071C5.31658 15.0976 4.68342 15.0976 4.29289 14.7071C3.90237 14.3166 3.90237 13.6834 4.29289 13.2929L9.29289 8.29289C9.68342 7.90237 10.3166 7.90237 10.7071 8.29289Z" clip-rule="evenodd"/><path fill="#000" fill-rule="evenodd" d="M21.2929 20.2929C21.6834 19.9024 22.3166 19.9024 22.7071 20.2929L27.7071 25.2929C28.0976 25.6834 28.0976 26.3166 27.7071 26.7071C27.3166 27.0976 26.6834 27.0976 26.2929 26.7071L21.2929 21.7071C20.9024 21.3166 20.9024 20.6834 21.2929 20.2929Z" clip-rule="evenodd"/><path fill="#000" fill-rule="evenodd" d="M27.7071 20.2929C28.0976 20.6834 28.0976 21.3166 27.7071 21.7071L22.7071 26.7071C22.3166 27.0976 21.6834 27.0976 21.2929 26.7071C20.9024 26.3166 20.9024 25.6834 21.2929 25.2929L26.2929 20.2929C26.6834 19.9024 27.3166 19.9024 27.7071 20.2929Z" clip-rule="evenodd"/><path fill="#000" fill-rule="evenodd" d="M16 5C16 4.44772 16.4477 4 17 4H22C22.5523 4 23 4.44772 23 5C23 5.55228 22.5523 6 22 6H18V10C18 10.5523 17.5523 11 17 11C16.4477 11 16 10.5523 16 10V5Z" clip-rule="evenodd"/><path fill="#000" fill-rule="evenodd" d="M16.2929 4.29289C16.6834 3.90237 17.3166 3.90237 17.7071 4.29289L19.7071 6.29289C22.4907 9.07647 22.8241 12.2471 21.807 14.8624C20.8229 17.3931 18.5794 19.3859 16.2425 19.9701C15.7067 20.1041 15.1638 19.7783 15.0298 19.2425C14.8959 18.7067 15.2217 18.1638 15.7575 18.0299C17.4206 17.6141 19.1771 16.1069 19.943 14.1376C20.6759 12.2529 20.5093 9.92353 18.2929 7.70711L16.2929 5.70711C15.9024 5.31658 15.9024 4.68342 16.2929 4.29289Z" clip-rule="evenodd"/></svg>