<svg width="32" height="32" viewBox="0 0 32 32" fill="none" xmlns="http://www.w3.org/2000/svg">
<path fill-rule="evenodd" clip-rule="evenodd" d="M13.5194 11.6887C12.9687 12.0844 12.7375 12.5556 12.7375 13C12.7375 13.3286 12.89 13.622 13.5582 13.9583C14.2248 14.2938 15.1303 14.5256 16.1997 14.7994C16.2572 14.8141 16.3151 14.8289 16.3734 14.8438C17.4435 15.1182 18.6798 15.4441 19.6427 16.0019C20.6604 16.5914 21.5125 17.5289 21.5125 19C21.5125 20.2712 20.738 21.2958 19.742 21.9567C18.7391 22.6221 17.4125 23 16 23C14.5876 23 13.261 22.6221 12.2581 21.9567C11.2621 21.2958 10.4875 20.2712 10.4875 19C10.4875 18.4477 10.9353 18 11.4875 18C12.0398 18 12.4875 18.4477 12.4875 19C12.4875 19.3913 12.7255 19.8667 13.3638 20.2902C13.9953 20.7091 14.925 21 16 21C17.0751 21 18.0048 20.7091 18.6363 20.2902C19.2746 19.8667 19.5125 19.3913 19.5125 19C19.5125 18.4711 19.2678 18.0961 18.6402 17.7325C17.9578 17.3372 17.0004 17.0693 15.8767 16.7812C15.7958 16.7604 15.7138 16.7395 15.6311 16.7184C14.6406 16.466 13.5293 16.1828 12.6591 15.7448C11.6819 15.253 10.7375 14.4214 10.7375 13C10.7375 11.7819 11.3939 10.7531 12.3525 10.0644C13.3059 9.3795 14.5852 9 16 9C18.0881 9 19.9614 9.84207 20.8089 11.3468C21.0799 11.828 20.9095 12.4378 20.4283 12.7088C19.9471 12.9798 19.3373 12.8094 19.0662 12.3282C18.6887 11.6579 17.637 11 16 11C14.9274 11 14.0755 11.2893 13.5194 11.6887Z" fill="black"/>
<path fill-rule="evenodd" clip-rule="evenodd" d="M4 6C4 4.89543 4.89543 4 6 4H26C27.1046 4 28 4.89543 28 6V26C28 27.1046 27.1046 28 26 28H6C4.89543 28 4 27.1046 4 26V6ZM26 6H6V26H26V6Z" fill="black"/>
</svg>
