<svg width="32" height="32" viewBox="0 0 32 32" fill="none" xmlns="http://www.w3.org/2000/svg">
<path fill-rule="evenodd" clip-rule="evenodd" d="M16 9.5C12.4101 9.5 9.5 12.4101 9.5 16C9.5 19.5899 12.4101 22.5 16 22.5C19.5899 22.5 22.5 19.5899 22.5 16C22.5 12.4101 19.5899 9.5 16 9.5ZM7.5 16C7.5 11.3056 11.3056 7.5 16 7.5C20.6944 7.5 24.5 11.3056 24.5 16C24.5 20.6944 20.6944 24.5 16 24.5C11.3056 24.5 7.5 20.6944 7.5 16Z" fill="black"/>
<path fill-rule="evenodd" clip-rule="evenodd" d="M16 2.5C16.5523 2.5 17 2.94772 17 3.5V4.5C17 5.05228 16.5523 5.5 16 5.5C15.4477 5.5 15 5.05228 15 4.5V3.5C15 2.94772 15.4477 2.5 16 2.5Z" fill="black"/>
<path fill-rule="evenodd" clip-rule="evenodd" d="M6.45537 6.45537C6.84589 6.06484 7.47906 6.06484 7.86958 6.45537L8.56958 7.15537C8.96011 7.54589 8.96011 8.17906 8.56958 8.56958C8.17906 8.96011 7.54589 8.96011 7.15537 8.56958L6.45537 7.86958C6.06484 7.47906 6.06484 6.84589 6.45537 6.45537Z" fill="black"/>
<path fill-rule="evenodd" clip-rule="evenodd" d="M2.5 16C2.5 15.4477 2.94772 15 3.5 15H4.5C5.05228 15 5.5 15.4477 5.5 16C5.5 16.5523 5.05228 17 4.5 17H3.5C2.94772 17 2.5 16.5523 2.5 16Z" fill="black"/>
<path fill-rule="evenodd" clip-rule="evenodd" d="M8.56958 23.4303C8.96011 23.8209 8.96011 24.454 8.56958 24.8446L7.86958 25.5446C7.47906 25.9351 6.84589 25.9351 6.45537 25.5446C6.06484 25.154 6.06484 24.5209 6.45537 24.1303L7.15537 23.4303C7.54589 23.0398 8.17906 23.0398 8.56958 23.4303Z" fill="black"/>
<path fill-rule="evenodd" clip-rule="evenodd" d="M16 26.5C16.5523 26.5 17 26.9477 17 27.5V28.5C17 29.0523 16.5523 29.5 16 29.5C15.4477 29.5 15 29.0523 15 28.5V27.5C15 26.9477 15.4477 26.5 16 26.5Z" fill="black"/>
<path fill-rule="evenodd" clip-rule="evenodd" d="M23.4303 23.4303C23.8209 23.0398 24.454 23.0398 24.8446 23.4303L25.5446 24.1303C25.9351 24.5209 25.9351 25.154 25.5446 25.5446C25.154 25.9351 24.5209 25.9351 24.1303 25.5446L23.4303 24.8446C23.0398 24.454 23.0398 23.8209 23.4303 23.4303Z" fill="black"/>
<path fill-rule="evenodd" clip-rule="evenodd" d="M26.5 16C26.5 15.4477 26.9477 15 27.5 15H28.5C29.0523 15 29.5 15.4477 29.5 16C29.5 16.5523 29.0523 17 28.5 17H27.5C26.9477 17 26.5 16.5523 26.5 16Z" fill="black"/>
<path fill-rule="evenodd" clip-rule="evenodd" d="M25.5446 6.45537C25.9351 6.84589 25.9351 7.47906 25.5446 7.86958L24.8446 8.56958C24.454 8.96011 23.8209 8.96011 23.4303 8.56958C23.0398 8.17906 23.0398 7.54589 23.4303 7.15537L24.1303 6.45537C24.5209 6.06484 25.154 6.06484 25.5446 6.45537Z" fill="black"/>
</svg>
