<svg xmlns="http://www.w3.org/2000/svg" width="32" height="32" fill="none" viewBox="0 0 32 32"><path fill="#000" fill-rule="evenodd" d="M10.2532 4.13929C10.7631 3.92707 11.3485 4.16837 11.5607 4.67826L12.5232 6.99076C12.7354 7.50064 12.4941 8.08602 11.9842 8.29824C11.4743 8.51046 10.889 8.26916 10.6767 7.75928L9.71424 5.44678C9.50202 4.9369 9.74332 4.35151 10.2532 4.13929Z" clip-rule="evenodd"/><path fill="#000" fill-rule="evenodd" d="M2.13929 12.2532C2.35151 11.7433 2.9369 11.502 3.44678 11.7142L5.75928 12.6767C6.26916 12.889 6.51046 13.4743 6.29824 13.9842C6.08602 14.4941 5.50064 14.7354 4.99076 14.5232L2.67826 13.5607C2.16837 13.3485 1.92707 12.7631 2.13929 12.2532Z" clip-rule="evenodd"/><path fill="#000" fill-rule="evenodd" d="M29.8607 12.2532C30.073 12.7631 29.8317 13.3485 29.3218 13.5607L27.0093 14.5232C26.4994 14.7354 25.914 14.4941 25.7018 13.9842C25.4896 13.4743 25.7309 12.889 26.2408 12.6767L28.5533 11.7142C29.0631 11.502 29.6485 11.7433 29.8607 12.2532Z" clip-rule="evenodd"/><path fill="#000" fill-rule="evenodd" d="M21.7468 4.13929C22.2567 4.35151 22.498 4.93689 22.2858 5.44678L21.3233 7.75928C21.111 8.26916 20.5257 8.51046 20.0158 8.29824C19.5059 8.08602 19.2646 7.50064 19.4768 6.99076L20.4393 4.67826C20.6515 4.16837 21.2369 3.92707 21.7468 4.13929Z" clip-rule="evenodd"/><path fill="#000" fill-rule="evenodd" d="M1 20C1 19.4477 1.44772 19 2 19H30C30.5523 19 31 19.4477 31 20C31 20.5523 30.5523 21 30 21H2C1.44772 21 1 20.5523 1 20Z" clip-rule="evenodd"/><path fill="#000" fill-rule="evenodd" d="M5 25C5 24.4477 5.44772 24 6 24H26C26.5523 24 27 24.4477 27 25C27 25.5523 26.5523 26 26 26H6C5.44772 26 5 25.5523 5 25Z" clip-rule="evenodd"/><path fill="#000" fill-rule="evenodd" d="M16 11.4877C14.9976 11.4877 14.0087 11.7195 13.1108 12.1651C12.2128 12.6107 11.4301 13.2579 10.8238 14.0561C10.2175 14.8544 9.80402 15.7821 9.61571 16.7666C9.42741 17.7512 9.46938 18.766 9.73833 19.7317C9.88652 20.2637 9.57534 20.8151 9.04331 20.9633C8.51127 21.1115 7.95985 20.8003 7.81167 20.2683C7.45995 19.0055 7.40508 17.6785 7.65132 16.3909C7.89756 15.1034 8.43826 13.8903 9.23113 12.8464C10.024 11.8025 11.0476 10.9562 12.2218 10.3735C13.3961 9.79086 14.6891 9.48767 16 9.48767C17.3109 9.48767 18.6039 9.79086 19.7782 10.3735C20.9524 10.9562 21.976 11.8025 22.7689 12.8464C23.5617 13.8903 24.1024 15.1034 24.3487 16.3909C24.5949 17.6785 24.54 19.0055 24.1883 20.2683C24.0402 20.8003 23.4887 21.1115 22.9567 20.9633C22.4247 20.8151 22.1135 20.2637 22.2617 19.7317C22.5306 18.766 22.5726 17.7512 22.3843 16.7666C22.196 15.7821 21.7825 14.8544 21.1762 14.0561C20.5699 13.2579 19.7872 12.6107 18.8892 12.1651C17.9913 11.7195 17.0024 11.4877 16 11.4877Z" clip-rule="evenodd"/></svg>