<svg width="32" height="32" viewBox="0 0 32 32" fill="none" xmlns="http://www.w3.org/2000/svg">
<path fill-rule="evenodd" clip-rule="evenodd" d="M8.59736 4.66134L5.57238 21.7982C5.22737 23.7599 6.54542 25.6537 8.45655 25.9623C9.36269 26.1031 10.288 25.8839 11.0347 25.3516C11.7818 24.819 12.2908 24.0153 12.453 23.1124C12.453 23.112 12.4531 23.1115 12.4532 23.1111L15.4889 5.88398C15.4891 5.88102 15.4884 5.87804 15.4867 5.87559C15.485 5.87321 15.4826 5.87149 15.4798 5.87071L8.59736 4.66134ZM8.93745 2.69042C8.67873 2.64409 8.41337 2.64953 8.15674 2.70644C7.89923 2.76355 7.65565 2.87135 7.44022 3.02356C7.22479 3.17577 7.04181 3.36933 6.90195 3.59298C6.7634 3.81452 6.66992 4.06119 6.62681 4.31886L3.60273 21.4512C3.07287 24.4638 5.07857 27.4448 8.14124 27.9373L8.14581 27.938C9.56909 28.1602 11.0228 27.8163 12.1957 26.9801C13.3687 26.1439 14.1677 24.8818 14.4218 23.4639L14.4223 23.461L17.4598 6.22354L17.4613 6.21519C17.5483 5.69527 17.4279 5.16194 17.1259 4.72985C16.824 4.29777 16.3645 4.00143 15.8463 3.90454L8.94015 2.69091C8.93925 2.69075 8.93835 2.69058 8.93745 2.69042Z" fill="black"/>
<path fill-rule="evenodd" clip-rule="evenodd" d="M23.5564 11.3484C23.8033 11.2576 24.0658 11.2165 24.3287 11.2273C24.5927 11.2382 24.8518 11.3012 25.0912 11.4128C25.3306 11.5243 25.5455 11.6822 25.7236 11.8773C25.901 12.0717 26.0383 12.2991 26.1276 12.5466C26.1279 12.5475 26.1283 12.5485 26.1286 12.5494L28.5296 19.1272C28.7067 19.6245 28.6798 20.1717 28.455 20.6494C28.2302 21.1271 27.8257 21.4966 27.3296 21.6772L10.8795 27.6647C10.3606 27.8536 9.78671 27.586 9.59781 27.067C9.40892 26.5481 9.6765 25.9742 10.1955 25.7853L26.6454 19.7978L24.2464 13.2256L24.2416 13.2273L15.1291 16.5398C14.6101 16.7285 14.0364 16.4607 13.8477 15.9416C13.659 15.4226 13.9268 14.8489 14.4459 14.6602L23.5536 11.3494C23.5545 11.3491 23.5555 11.3487 23.5564 11.3484Z" fill="black"/>
<path fill-rule="evenodd" clip-rule="evenodd" d="M27.5 19.3125C28.0523 19.3125 28.5 19.7602 28.5 20.3125V26C28.5 26.5304 28.2893 27.0391 27.9142 27.4142C27.5391 27.7893 27.0304 28 26.5 28H9C8.44772 28 8 27.5523 8 27C8 26.4477 8.44772 26 9 26H26.5V20.3125C26.5 19.7602 26.9477 19.3125 27.5 19.3125Z" fill="black"/>
<path d="M9 24C9.82843 24 10.5 23.3284 10.5 22.5C10.5 21.6716 9.82843 21 9 21C8.17157 21 7.5 21.6716 7.5 22.5C7.5 23.3284 8.17157 24 9 24Z" fill="black"/>
</svg>
