<svg width="32" height="32" viewBox="0 0 32 32" fill="none" xmlns="http://www.w3.org/2000/svg">
<path fill-rule="evenodd" clip-rule="evenodd" d="M27.7071 4.29289C27.8954 4.4812 28.0008 4.73683 28 5.00313L27.975 12.9781C27.9741 13.2753 27.841 13.5567 27.6119 13.746L16.1119 23.246C15.6861 23.5977 15.0558 23.5377 14.704 23.1119C14.3523 22.6861 14.4123 22.0558 14.8381 21.704L25.9765 12.5028L25.9968 6.00315L19.4972 6.02352L10.296 17.1619C9.94421 17.5877 9.3139 17.6477 8.88811 17.296C8.46232 16.9442 8.40229 16.3139 8.75403 15.8881L18.254 4.38812C18.4433 4.159 18.7247 4.02594 19.0219 4.02501L26.9969 4C27.2632 3.99917 27.5188 4.10459 27.7071 4.29289Z" fill="black"/>
<path fill-rule="evenodd" clip-rule="evenodd" d="M20.7071 11.2929C21.0976 11.6834 21.0976 12.3166 20.7071 12.7071L13.2071 20.2071C12.8166 20.5976 12.1834 20.5976 11.7929 20.2071C11.4024 19.8166 11.4024 19.1834 11.7929 18.7929L19.2929 11.2929C19.6834 10.9024 20.3166 10.9024 20.7071 11.2929Z" fill="black"/>
<path fill-rule="evenodd" clip-rule="evenodd" d="M6.22756 13.5694C6.47221 13.4669 6.73478 13.4142 7 13.4142C7.26521 13.4142 7.52779 13.4669 7.77243 13.5694C8.01571 13.6712 8.23642 13.8202 8.42188 14.0077L17.9923 23.5781C18.1798 23.7636 18.3288 23.9843 18.4306 24.2276C18.5331 24.4722 18.5858 24.7348 18.5858 25C18.5858 25.2652 18.5331 25.5278 18.4306 25.7724C18.3288 26.0157 18.1798 26.2364 17.9923 26.4219L16.4219 27.9923C16.2364 28.1798 16.0157 28.3288 15.7724 28.4307C15.5278 28.5331 15.2652 28.5858 15 28.5858C14.7348 28.5858 14.4722 28.5331 14.2276 28.4307C13.9843 28.3288 13.7636 28.1798 13.5781 27.9923L10.975 25.3892L10.9696 25.3946L7.23125 29.133C6.85631 29.507 6.34834 29.717 5.81875 29.717C5.28915 29.717 4.78118 29.507 4.40625 29.133L2.86703 27.5938C2.49301 27.2188 2.28296 26.7109 2.28296 26.1813C2.28296 25.6517 2.49301 25.1437 2.86703 24.7688L6.6108 21.025L6.60537 21.0196L4.00765 18.4219C3.82017 18.2364 3.67121 18.0157 3.56935 17.7724C3.46692 17.5278 3.41417 17.2652 3.41417 17C3.41417 16.7348 3.46692 16.4722 3.56935 16.2276C3.67121 15.9843 3.82016 15.7636 4.00763 15.5782L5.57814 14.0077C5.76359 13.8202 5.9843 13.6712 6.22756 13.5694ZM16.5804 24.9946L6.99998 15.4142L6.99462 15.4196L5.41419 17L5.41962 17.0054L8.01736 19.6032C8.20483 19.7886 8.35378 20.0093 8.45564 20.2526C8.55807 20.4972 8.61082 20.7598 8.61082 21.025C8.61082 21.2902 8.55807 21.5528 8.45564 21.7974C8.35379 22.0407 8.20485 22.2614 8.01741 22.4468L4.28296 26.1813L5.81875 27.717L9.55306 23.9827C9.73853 23.7952 9.95926 23.6462 10.2026 23.5444C10.4472 23.4419 10.7098 23.3892 10.975 23.3892C11.2402 23.3892 11.5028 23.4419 11.7474 23.5444C11.9907 23.6462 12.2114 23.7952 12.3969 23.9827L15 26.5858L15.0054 26.5804L16.5858 25L16.5804 24.9946Z" fill="black"/>
</svg>
