<svg xmlns="http://www.w3.org/2000/svg" width="32" height="32" fill="none" viewBox="0 0 32 32"><path fill="#000" fill-rule="evenodd" d="M22.2929 2.29289C22.6834 1.90237 23.3166 1.90237 23.7071 2.29289L29.7071 8.29289C30.0976 8.68342 30.0976 9.31658 29.7071 9.70711C29.3166 10.0976 28.6834 10.0976 28.2929 9.70711L22.2929 3.70711C21.9024 3.31658 21.9024 2.68342 22.2929 2.29289Z" clip-rule="evenodd"/><path fill="#000" fill-rule="evenodd" d="M15.2929 5.29289C15.6834 4.90237 16.3166 4.90237 16.7071 5.29289L26.7071 15.2929C27.0976 15.6834 27.0976 16.3166 26.7071 16.7071C26.3166 17.0976 25.6834 17.0976 25.2929 16.7071L15.2929 6.70711C14.9024 6.31658 14.9024 5.68342 15.2929 5.29289Z" clip-rule="evenodd"/><path fill="#000" fill-rule="evenodd" d="M18.2071 6.79291C18.5976 7.18343 18.5976 7.8166 18.2071 8.20712L7 19.4142V25H12.5858L23.7929 13.7929C24.1834 13.4024 24.8166 13.4024 25.2071 13.7929C25.5976 14.1834 25.5976 14.8166 25.2071 15.2071L13.9946 26.4196L13.9929 26.4214C13.8076 26.6057 13.5878 26.7517 13.3461 26.851C13.1049 26.95 12.8466 27.0007 12.5859 27C12.5853 27 12.5846 27 12.584 27L12.5875 26V27H12.5859H6C5.44772 27 5 26.5523 5 26V19.414C5 19.4147 5 19.4153 5.00001 19.416L6 19.4125H5V19.414" clip-rule="evenodd"/><path fill="#000" fill-rule="evenodd" d="M12.0429 11.5429C12.4334 11.1524 13.0666 11.1524 13.4571 11.5429L16.7071 14.7929C17.0976 15.1834 17.0976 15.8166 16.7071 16.2071C16.3166 16.5976 15.6834 16.5976 15.2929 16.2071L12.0429 12.9571C11.6524 12.5666 11.6524 11.9334 12.0429 11.5429Z" clip-rule="evenodd"/><path fill="#000" fill-rule="evenodd" d="M8.54289 15.0429C8.93342 14.6524 9.56658 14.6524 9.95711 15.0429L13.2071 18.2929C13.5976 18.6834 13.5976 19.3166 13.2071 19.7071C12.8166 20.0976 12.1834 20.0976 11.7929 19.7071L8.54289 16.4571C8.15237 16.0666 8.15237 15.4334 8.54289 15.0429Z" clip-rule="evenodd"/><path fill="#000" fill-rule="evenodd" d="M26.7071 5.29289C27.0976 5.68342 27.0976 6.31658 26.7071 6.70711L21.7071 11.7071C21.3166 12.0976 20.6834 12.0976 20.2929 11.7071C19.9024 11.3166 19.9024 10.6834 20.2929 10.2929L25.2929 5.29289C25.6834 4.90237 26.3166 4.90237 26.7071 5.29289Z" clip-rule="evenodd"/><path fill="#000" fill-rule="evenodd" d="M6.70711 25.2929C7.09763 25.6834 7.09763 26.3166 6.70711 26.7071L3.70711 29.7071C3.31658 30.0976 2.68342 30.0976 2.29289 29.7071C1.90237 29.3166 1.90237 28.6834 2.29289 28.2929L5.29289 25.2929C5.68342 24.9024 6.31658 24.9024 6.70711 25.2929Z" clip-rule="evenodd"/></svg>