<svg width="32" height="32" viewBox="0 0 32 32" fill="none" xmlns="http://www.w3.org/2000/svg">
<path fill-rule="evenodd" clip-rule="evenodd" d="M4.75198 10C4.32127 9.99856 3.90157 10.1362 3.55535 10.3925C3.20839 10.6493 2.95384 11.0115 2.82974 11.425L0.0422284 20.7125C-0.116535 21.2415 0.18358 21.799 0.712553 21.9578C1.24153 22.1166 1.79905 21.8164 1.95781 21.2875L4.7453 12H15.25L15.2547 12L18.0422 21.2875C18.201 21.8164 18.7585 22.1166 19.2875 21.9578C19.8165 21.799 20.1166 21.2415 19.9578 20.7125L17.1703 11.425C17.0462 11.0116 16.7917 10.6493 16.4447 10.3925C16.0985 10.1362 15.6788 9.99856 15.2481 10H15.25V11L15.2453 10C15.2462 10 15.2471 10 15.2481 10" fill="black"/>
<path fill-rule="evenodd" clip-rule="evenodd" d="M21.248 10C21.6788 9.99856 22.0984 10.1362 22.4447 10.3925C22.7916 10.6493 23.0462 11.0115 23.1703 11.425L23.1703 11.425L25.9578 20.7125C26.1166 21.2415 25.8164 21.799 25.2875 21.9578C24.7585 22.1166 24.201 21.8164 24.0422 21.2875L21.2547 12L21.25 12V12H20C19.4477 12 19 11.5523 19 11C19 10.4477 19.4477 10 20 10H21.248Z" fill="black"/>
<path fill-rule="evenodd" clip-rule="evenodd" d="M27.248 10C27.6788 9.99856 28.0984 10.1362 28.4447 10.3925C28.7916 10.6493 29.0462 11.0115 29.1703 11.425L29.1703 11.425L31.9578 20.7125C32.1166 21.2415 31.8164 21.799 31.2875 21.9578C30.7585 22.1166 30.201 21.8164 30.0422 21.2875L27.2547 12L27.25 12V12H26C25.4477 12 25 11.5523 25 11C25 10.4477 25.4477 10 26 10H27.248Z" fill="black"/>
<path fill-rule="evenodd" clip-rule="evenodd" d="M0 21C0 20.4477 0.447715 20 1 20H31C31.5523 20 32 20.4477 32 21C32 21.5523 31.5523 22 31 22H1C0.447715 22 0 21.5523 0 21Z" fill="black"/>
</svg>
