<svg width="32" height="32" viewBox="0 0 32 32" fill="none" xmlns="http://www.w3.org/2000/svg">
<path fill-rule="evenodd" clip-rule="evenodd" d="M22.4587 5.99998C22.7913 5.99783 23.1192 6.07919 23.4123 6.23666C23.7049 6.39388 23.9534 6.62189 24.1351 6.89982L29.4547 14.8918C29.6764 15.2188 29.7949 15.6048 29.7949 16C29.7949 16.3951 29.6764 16.7811 29.4548 17.1081L24.1351 25.1001C23.9534 25.3781 23.7049 25.6061 23.4123 25.7633C23.1192 25.9208 22.7913 26.0021 22.4587 26H3C2.63133 26 2.29256 25.7971 2.11849 25.4721C1.94442 25.1472 1.96328 24.7527 2.16757 24.4458L7.78982 16L2.16757 7.55411C1.96328 7.24722 1.94442 6.85281 2.11849 6.52782C2.29256 6.20283 2.63133 5.99998 3 5.99998H22.4587ZM23.3 24.55L22.4676 23.9959L27.7898 16L22.4648 8L22.4625 8.00002L4.86699 7.99998L9.45467 14.8917C9.67638 15.2187 9.79494 15.6048 9.79494 16C9.79494 16.3952 9.67638 16.7812 9.45469 17.1082L4.86699 24H22.4717C22.4701 24 22.4686 24.0003 22.4672 24.0008C22.4666 24.001 22.4661 24.0012 22.4657 24.0015C22.4645 24.0021 22.4634 24.003 22.4625 24.0039C22.462 24.0045 22.4615 24.0051 22.4611 24.0057L23.3 24.55Z" fill="black"/>
</svg>
