<svg width="32" height="32" viewBox="0 0 32 32" fill="none" xmlns="http://www.w3.org/2000/svg">
<path fill-rule="evenodd" clip-rule="evenodd" d="M28.7071 3.29289C29.0976 3.68342 29.0976 4.31658 28.7071 4.70711L16.7071 16.7071C16.3166 17.0976 15.6834 17.0976 15.2929 16.7071C14.9024 16.3166 14.9024 15.6834 15.2929 15.2929L27.2929 3.29289C27.6834 2.90237 28.3166 2.90237 28.7071 3.29289Z" fill="black"/>
<path fill-rule="evenodd" clip-rule="evenodd" d="M7.58876 6.03394C10.0867 3.93338 13.2821 2.84713 16.5427 2.99019C19.8033 3.13325 22.8913 4.49518 25.1957 6.80644C25.5856 7.19755 25.5846 7.83071 25.1935 8.22065C24.8024 8.61059 24.1693 8.60964 23.7793 8.21853C21.8288 6.26217 19.2149 5.10936 16.455 4.98827C13.6951 4.86718 10.9903 5.78663 8.87598 7.56465C6.76164 9.34267 5.39185 11.8497 5.03774 14.5894C4.68362 17.3292 5.37098 20.1021 6.96377 22.3593C8.55656 24.6164 10.9387 26.1934 13.6387 26.778C16.3387 27.3626 19.1598 26.9123 21.5436 25.5161C23.9274 24.12 25.7002 21.8797 26.5111 19.2389C27.322 16.598 27.1119 13.7489 25.9224 11.2556C25.6846 10.7571 25.896 10.1602 26.3944 9.92243C26.8929 9.68463 27.4897 9.89594 27.7275 10.3944C29.1328 13.3401 29.381 16.706 28.423 19.8259C27.465 22.9459 25.3706 25.5925 22.5544 27.2419C19.7381 28.8913 16.4053 29.4233 13.2155 28.7327C10.0257 28.042 7.2114 26.179 5.32967 23.5124C3.44793 20.8458 2.63588 17.5699 3.05424 14.3331C3.47259 11.0963 5.09087 8.1345 7.58876 6.03394Z" fill="black"/>
<path fill-rule="evenodd" clip-rule="evenodd" d="M12.0395 10.2522C13.3835 9.32423 15.01 8.89636 16.6366 9.04291C18.2633 9.18945 19.7872 9.90115 20.9436 11.0544C21.3347 11.4444 21.3356 12.0775 20.9456 12.4686C20.5556 12.8597 19.9225 12.8606 19.5314 12.4706C18.7059 11.6474 17.6182 11.1394 16.4572 11.0348C15.2961 10.9302 14.1351 11.2356 13.1759 11.898C12.2166 12.5603 11.5196 13.5378 11.206 14.6606C10.8924 15.7833 10.982 16.9805 11.4593 18.0441C11.9365 19.1076 12.7712 19.9704 13.8184 20.4826C14.8657 20.9948 16.0592 21.1239 17.1917 20.8476C18.3242 20.5713 19.3242 19.9071 20.0179 18.9702C20.7116 18.0333 21.0553 16.8831 20.9891 15.7192C20.9578 15.1678 21.3794 14.6954 21.9308 14.6641C22.4822 14.6328 22.9546 15.0543 22.9859 15.6057C23.0786 17.2363 22.5971 18.8478 21.6253 20.1604C20.6534 21.4729 19.2524 22.4036 17.6657 22.7906C16.079 23.1777 14.4069 22.9968 12.9398 22.2792C11.4726 21.5617 10.3032 20.3529 9.63455 18.8628C8.96593 17.3728 8.84039 15.6956 9.27972 14.1226C9.71906 12.5496 10.6955 11.1801 12.0395 10.2522Z" fill="black"/>
</svg>
