<svg width="32" height="32" viewBox="0 0 32 32" fill="none" xmlns="http://www.w3.org/2000/svg">
<path fill-rule="evenodd" clip-rule="evenodd" d="M1 15C1 14.4477 1.44772 14 2 14H30C30.5523 14 31 14.4477 31 15C31 15.5523 30.5523 16 30 16H2C1.44772 16 1 15.5523 1 15Z" fill="black"/>
<path fill-rule="evenodd" clip-rule="evenodd" d="M23 22C23.5523 22 24 22.4477 24 23L24 26L27 26V23C27 22.4477 27.4477 22 28 22C28.5523 22 29 22.4477 29 23V26C29 26.5304 28.7893 27.0391 28.4142 27.4142C28.0391 27.7893 27.5304 28 27 28H24C23.4696 28 22.9609 27.7893 22.5858 27.4142C22.2107 27.0391 22 26.5304 22 26V23C22 22.4477 22.4477 22 23 22Z" fill="black"/>
<path fill-rule="evenodd" clip-rule="evenodd" d="M4 22C4.55228 22 5 22.4477 5 23V26H8V23C8 22.4477 8.44772 22 9 22C9.55228 22 10 22.4477 10 23V26C10 26.5304 9.78929 27.0391 9.41421 27.4142C9.03914 27.7893 8.53043 28 8 28H5C4.46957 28 3.96086 27.7893 3.58579 27.4142C3.21071 27.0391 3 26.5304 3 26V23C3 22.4477 3.44772 22 4 22Z" fill="black"/>
<path fill-rule="evenodd" clip-rule="evenodd" d="M7 19C7 18.4477 7.44772 18 8 18H10C10.5523 18 11 18.4477 11 19C11 19.5523 10.5523 20 10 20H8C7.44772 20 7 19.5523 7 19Z" fill="black"/>
<path fill-rule="evenodd" clip-rule="evenodd" d="M21 19C21 18.4477 21.4477 18 22 18H24C24.5523 18 25 18.4477 25 19C25 19.5523 24.5523 20 24 20H22C21.4477 20 21 19.5523 21 19Z" fill="black"/>
<path fill-rule="evenodd" clip-rule="evenodd" d="M7.57449 7.26803C7.87891 7.09155 8.22471 6.99907 8.57655 7C8.57729 7 8.57803 7 8.57876 7.00001L8.575 8V7H8.57655H23.4234C23.4227 7 23.422 7 23.4212 7.00001L23.425 8V7H23.4234M25.1572 8.00634C25.157 8.00608 25.1569 8.00582 25.1567 8.00556L25.1572 8.00634ZM25.1572 8.00634L28.8683 14.504C28.9546 14.6551 29 14.826 29 15V23C29 23.5523 28.5523 24 28 24H4C3.44772 24 3 23.5523 3 23V15C3 14.826 3.04538 14.6551 3.13165 14.504L6.84285 8.00634C6.84312 8.00586 6.84338 8.00539 6.84365 8.00492C7.01769 7.6989 7.2699 7.4446 7.57449 7.26803M8.57854 9L5 15.2655V22H27V15.2655L23.4215 9H8.57854ZM23.4178 8.99366L23.4179 8.99371L23.4178 8.99366Z" fill="black"/>
</svg>
