<svg width="32" height="32" viewBox="0 0 32 32" fill="none" xmlns="http://www.w3.org/2000/svg">
<path fill-rule="evenodd" clip-rule="evenodd" d="M26.8761 3.61762C27.2138 3.4867 27.5807 3.44994 27.9377 3.51128C28.2947 3.57261 28.6283 3.72974 28.9029 3.96588C29.1776 4.20202 29.3829 4.50831 29.4971 4.85206C29.6112 5.1958 29.6299 5.5641 29.5511 5.91762L29.5498 5.92322L29.5498 5.92322L24.8498 26.4482L24.8497 26.4488C24.7721 26.7869 24.6078 27.099 24.3731 27.3544C24.1384 27.6098 23.8413 27.7999 23.511 27.9058C23.1807 28.0117 22.8285 28.0298 22.489 27.9585C22.1502 27.8873 21.8357 27.7293 21.5763 27.5001C21.5757 27.4997 21.5752 27.4992 21.5747 27.4988L10.5406 17.7902L4.14072 16.5054L4.1366 16.5046C2.21431 16.1103 1.91892 13.4177 3.79767 12.6814L4.16254 13.6125L3.79699 12.6817L3.79767 12.6814L26.872 3.61922L26.8761 3.61762ZM4.5337 14.5411C4.53387 14.5423 4.53408 14.5434 4.5343 14.5445C4.53526 14.5447 4.53629 14.5449 4.5374 14.5452C4.53775 14.5452 4.53812 14.5453 4.53849 14.5454L11.1969 15.8821C11.3689 15.9166 11.5289 15.9958 11.6606 16.1117L22.8981 25.9992L22.9004 26.0013L27.599 5.48239L4.5337 14.5411ZM4.52417 14.5413C4.52417 14.5413 4.52418 14.5414 4.52421 14.5414L4.52417 14.5413Z" fill="black"/>
<path fill-rule="evenodd" clip-rule="evenodd" d="M28.8231 3.98948C29.1465 4.4372 29.0457 5.06229 28.598 5.38566L11.5855 17.6732C11.1377 17.9965 10.5127 17.8957 10.1893 17.448C9.86592 17.0003 9.96672 16.3752 10.4144 16.0518L27.4269 3.76433C27.8747 3.44096 28.4997 3.54176 28.8231 3.98948Z" fill="black"/>
<path fill-rule="evenodd" clip-rule="evenodd" d="M11 15.8625C11.5523 15.8625 12 16.3102 12 16.8625L12 24.9983L12.0054 24.9929L15.9054 21.0929C16.2959 20.7024 16.9291 20.7024 17.3196 21.0929C17.7101 21.4834 17.7101 22.1166 17.3196 22.5071L13.4218 26.4049C13.144 26.6857 12.7893 26.878 12.4023 26.9575C12.0138 27.0372 11.6104 26.9997 11.2433 26.8496C10.8762 26.6996 10.562 26.4438 10.3406 26.1147C10.1192 25.7857 10.0007 25.3983 10 25.0017L10 16.8625C10 16.3102 10.4477 15.8625 11 15.8625Z" fill="black"/>
</svg>
