<svg width="32" height="32" viewBox="0 0 32 32" fill="none" xmlns="http://www.w3.org/2000/svg">
<path fill-rule="evenodd" clip-rule="evenodd" d="M16 5C9.92487 5 5 9.92487 5 16C5 22.0751 9.92487 27 16 27C22.0751 27 27 22.0751 27 16C27 9.92487 22.0751 5 16 5ZM3 16C3 8.8203 8.8203 3 16 3C23.1797 3 29 8.8203 29 16C29 23.1797 23.1797 29 16 29C8.8203 29 3 23.1797 3 16Z" fill="black"/>
<path fill-rule="evenodd" clip-rule="evenodd" d="M15.976 3C16.5283 3.00058 16.9756 3.44876 16.975 4.00104C16.9714 7.44085 15.6034 10.7387 13.1711 13.1711C10.7387 15.6034 7.44085 16.9714 4.00104 16.975C3.44876 16.9756 3.00058 16.5283 3 15.976C2.99942 15.4238 3.44667 14.9756 3.99896 14.975C6.90905 14.972 9.69909 13.8146 11.7568 11.7568C13.8146 9.69909 14.972 6.90905 14.975 3.99896C14.9756 3.44667 15.4238 2.99942 15.976 3Z" fill="black"/>
<path fill-rule="evenodd" clip-rule="evenodd" d="M29 16.024C29.0006 16.5763 28.5534 17.0244 28.0011 17.025C25.091 17.0281 22.3009 18.1854 20.2432 20.2432C18.1854 22.3009 17.0281 25.091 17.025 28.0011C17.0244 28.5534 16.5763 29.0006 16.024 29C15.4717 28.9994 15.0244 28.5513 15.025 27.999C15.0286 24.5592 16.3967 21.2613 18.829 18.829C21.2613 16.3967 24.5592 15.0286 27.999 15.025C28.5513 15.0244 28.9994 15.4717 29 16.024Z" fill="black"/>
</svg>
