<svg xmlns="http://www.w3.org/2000/svg" width="32" height="32" fill="none" viewBox="0 0 32 32"><path fill="#000" fill-rule="evenodd" d="M4.2526 7.33565C4.61952 6.92286 5.25159 6.88568 5.66437 7.2526L14.6644 15.2526C14.8779 15.4424 15 15.7144 15 16C15 16.2856 14.8779 16.5577 14.6644 16.7474L5.66437 24.7474C5.25159 25.1143 4.61952 25.0772 4.2526 24.6644C3.88568 24.2516 3.92286 23.6195 4.33565 23.2526L12.4948 16L4.33565 8.74742C3.92286 8.3805 3.88568 7.74843 4.2526 7.33565Z" clip-rule="evenodd"/><path fill="#000" fill-rule="evenodd" d="M14 24C14 23.4477 14.4477 23 15 23H27C27.5523 23 28 23.4477 28 24C28 24.5523 27.5523 25 27 25H15C14.4477 25 14 24.5523 14 24Z" clip-rule="evenodd"/></svg>