<svg xmlns="http://www.w3.org/2000/svg" width="32" height="32" fill="none" viewBox="0 0 32 32"><path fill="#000" fill-rule="evenodd" d="M9.21914 11.3753C9.56415 10.944 10.1934 10.8741 10.6247 11.2191L15.6247 15.2191C15.8619 15.4089 16 15.6962 16 16C16 16.3038 15.8619 16.5911 15.6247 16.7809L10.6247 20.7809C10.1934 21.1259 9.56415 21.056 9.21914 20.6247C8.87413 20.1934 8.94405 19.5641 9.37531 19.2191L13.3992 16L9.37531 12.7809C8.94405 12.4359 8.87413 11.8066 9.21914 11.3753Z" clip-rule="evenodd"/><path fill="#000" fill-rule="evenodd" d="M16 20C16 19.4477 16.4477 19 17 19H22C22.5523 19 23 19.4477 23 20C23 20.5523 22.5523 21 22 21H17C16.4477 21 16 20.5523 16 20Z" clip-rule="evenodd"/><path fill="#000" fill-rule="evenodd" d="M5.06064 7.06175C5.06063 7.06196 5.06063 7.0622 5.06063 7.06249V24.9375C5.06063 24.9378 5.06063 24.938 5.06064 24.9382C5.06078 24.9384 5.06095 24.9386 5.06118 24.9388C5.0614 24.939 5.0616 24.9392 5.06177 24.9394C5.06197 24.9394 5.06222 24.9394 5.0625 24.9394H26.9375C26.9378 24.9394 26.938 24.9394 26.9382 24.9394C26.9384 24.9392 26.9386 24.939 26.9388 24.9388C26.9391 24.9386 26.9392 24.9384 26.9394 24.9382C26.9394 24.938 26.9394 24.9378 26.9394 24.9375V7.06249C26.9394 7.0622 26.9394 7.06196 26.9394 7.06175C26.9392 7.06158 26.9391 7.06138 26.9388 7.06116C26.9386 7.06094 26.9384 7.06076 26.9382 7.06062C26.938 7.06062 26.9378 7.06061 26.9375 7.06061H5.0625C5.06222 7.06061 5.06197 7.06062 5.06177 7.06062C5.0616 7.06076 5.0614 7.06094 5.06118 7.06116C5.06095 7.06138 5.06078 7.06158 5.06064 7.06175ZM2.93938 7.06249C2.93938 5.88992 3.88993 4.93936 5.0625 4.93936H26.9375C28.1101 4.93936 29.0606 5.88992 29.0606 7.06249V24.9375C29.0606 26.1101 28.1101 27.0606 26.9375 27.0606H5.0625C3.88993 27.0606 2.93938 26.1101 2.93938 24.9375V7.06249Z" clip-rule="evenodd"/></svg>