<svg width="32" height="32" viewBox="0 0 32 32" fill="none" xmlns="http://www.w3.org/2000/svg">
<path fill-rule="evenodd" clip-rule="evenodd" d="M20.7929 3.29289C21.1834 2.90237 21.8166 2.90237 22.2071 3.29289L29.7071 10.7929C29.9522 11.038 30.0529 11.3924 29.9733 11.7298C29.8936 12.0671 29.645 12.3391 29.3162 12.4487L26.5402 13.374L12.4585 27.4558C12.4582 27.456 12.4579 27.4563 12.4577 27.4566C11.9387 27.9773 11.3221 28.3905 10.6432 28.6725C9.96387 28.9546 9.23556 29.0998 8.50001 29.0998C7.76447 29.0998 7.03616 28.9546 6.35688 28.6725C5.67817 28.3906 5.06175 27.9776 4.54291 27.4571C4.02244 26.9383 3.60944 26.3218 3.32756 25.6431C3.04544 24.9639 2.90021 24.2355 2.90021 23.5C2.90021 22.7645 3.04544 22.0361 3.32756 21.3569C3.60955 20.6779 4.02276 20.0613 4.54351 19.5423C4.54375 19.542 4.544 19.5418 4.54425 19.5416L20.7929 3.29289ZM5.25001 26.75L5.95846 26.0442C6.29177 26.3788 6.68785 26.6443 7.12399 26.8254C7.56014 27.0066 8.02775 27.0998 8.50001 27.0998C8.97228 27.0998 9.43989 27.0066 9.87603 26.8254C10.3122 26.6443 10.7083 26.3788 11.0416 26.0442L25.2929 11.7929C25.4027 11.6831 25.5365 11.6004 25.6838 11.5513L27.1488 11.063L21.5 5.41421L5.95712 20.9571L5.95578 20.9584C5.62121 21.2918 5.35573 21.6878 5.17459 22.124C4.99345 22.5601 4.90021 23.0277 4.90021 23.5C4.90021 23.9723 4.99345 24.4399 5.17459 24.876C5.35573 25.3122 5.62121 25.7082 5.95578 26.0416L5.25001 26.75Z" fill="black"/>
<path fill-rule="evenodd" clip-rule="evenodd" d="M9.11691 17.787C8.68589 18.125 8.06205 18.0534 7.71911 17.6247C7.3741 17.1934 7.44402 16.5641 7.87528 16.2191L8.49998 17C7.87528 16.2191 7.87577 16.2187 7.87628 16.2183L7.87734 16.2175L7.87964 16.2157L7.88496 16.2115L7.89852 16.201C7.90885 16.193 7.92176 16.1833 7.93722 16.172C7.96813 16.1493 8.00931 16.1201 8.06051 16.0859C8.16283 16.0177 8.30575 15.9294 8.48735 15.8338C8.8502 15.6429 9.3711 15.4209 10.033 15.2738C11.3748 14.9757 13.235 14.9995 15.4472 16.1056C17.235 16.9995 18.6248 16.9757 19.533 16.7738C19.9961 16.6709 20.3502 16.5179 20.5811 16.3963C20.6964 16.3357 20.78 16.2833 20.83 16.25C20.855 16.2333 20.8715 16.2215 20.8791 16.2159C20.8809 16.2146 20.8822 16.2136 20.883 16.213C20.883 16.213 20.883 16.213 20.883 16.213C21.3141 15.875 21.9379 15.9466 22.2808 16.3753C22.6259 16.8066 22.5559 17.4359 22.1247 17.7809L21.5 17C22.1247 17.7809 22.1242 17.7813 22.1237 17.7817L22.1226 17.7825L22.1203 17.7843L22.115 17.7885L22.1014 17.799C22.0911 17.807 22.0782 17.8167 22.0627 17.8281C22.0318 17.8508 21.9906 17.88 21.9394 17.9141C21.8371 17.9823 21.6942 18.0706 21.5126 18.1662C21.1497 18.3571 20.6289 18.5791 19.9669 18.7262C18.6252 19.0244 16.7649 19.0005 14.5528 17.8944C12.7649 17.0005 11.3752 17.0244 10.4669 17.2262C10.0039 17.3291 9.64975 17.4821 9.41885 17.6037C9.30357 17.6643 9.21994 17.7167 9.16991 17.75C9.14494 17.7667 9.1285 17.7785 9.12083 17.7841C9.11904 17.7854 9.11773 17.7864 9.11691 17.787Z" fill="black"/>
</svg>
