<svg width="32" height="32" viewBox="0 0 32 32" fill="none" xmlns="http://www.w3.org/2000/svg">
<path fill-rule="evenodd" clip-rule="evenodd" d="M5 6C5.55228 6 6 6.44772 6 7V22C6 22.5523 5.55228 23 5 23C4.44772 23 4 22.5523 4 22V7C4 6.44772 4.44772 6 5 6Z" fill="black"/>
<path fill-rule="evenodd" clip-rule="evenodd" d="M4 14.5C4 13.9477 4.44772 13.5 5 13.5H18C18.5523 13.5 19 13.9477 19 14.5C19 15.0523 18.5523 15.5 18 15.5H5C4.44772 15.5 4 15.0523 4 14.5Z" fill="black"/>
<path fill-rule="evenodd" clip-rule="evenodd" d="M18 6C18.5523 6 19 6.44772 19 7V22C19 22.5523 18.5523 23 18 23C17.4477 23 17 22.5523 17 22V7C17 6.44772 17.4477 6 18 6Z" fill="black"/>
<path fill-rule="evenodd" clip-rule="evenodd" d="M23.9878 13.3403C24.0662 12.8559 24.4844 12.5 24.975 12.5H30C30.5523 12.5 31 12.9477 31 13.5C31 14.0523 30.5523 14.5 30 14.5H25.8262L25.3161 17.6517C25.4088 17.627 25.5025 17.6052 25.597 17.5864C26.4699 17.4128 27.3747 17.502 28.1969 17.8426C29.0192 18.1832 29.7219 18.76 30.2164 19.5C30.7108 20.24 30.9747 21.11 30.9747 22C30.9747 22.89 30.7108 23.76 30.2164 24.5C29.7219 25.24 29.0192 25.8168 28.1969 26.1574C27.3747 26.498 26.4699 26.5872 25.597 26.4136C24.7241 26.24 23.9223 25.8114 23.2929 25.1821C22.9024 24.7916 22.9023 24.1585 23.2928 23.7679C23.6834 23.3774 24.3165 23.3774 24.7071 23.7679C25.0567 24.1175 25.5022 24.3555 25.9871 24.452C26.4721 24.5484 26.9747 24.4989 27.4315 24.3097C27.8883 24.1204 28.2787 23.8 28.5534 23.3889C28.8281 22.9778 28.9747 22.4944 28.9747 22C28.9747 21.5056 28.8281 21.0222 28.5534 20.6111C28.2787 20.2 27.8883 19.8796 27.4315 19.6903C26.9747 19.5011 26.4721 19.4516 25.9871 19.548C25.5022 19.6445 25.0567 19.8825 24.7071 20.2321C24.4003 20.5389 23.9307 20.6128 23.5445 20.4152C23.1583 20.2176 22.9435 19.7935 23.0128 19.3653L23.9878 13.3403Z" fill="black"/>
</svg>
