<svg width="32" height="32" viewBox="0 0 32 32" fill="none" xmlns="http://www.w3.org/2000/svg">
<path fill-rule="evenodd" clip-rule="evenodd" d="M9.99996 6C10.3704 6 10.7104 6.20475 10.8837 6.53211L19.8837 23.5321C20.1422 24.0202 19.9559 24.6254 19.4678 24.8838C18.9797 25.1422 18.3746 24.956 18.1162 24.4679L9.99996 9.13727L1.88374 24.4679C1.62534 24.956 1.02017 25.1422 0.532068 24.8838C0.0439656 24.6254 -0.142239 24.0202 0.116168 23.5321L9.11617 6.53211C9.28948 6.20475 9.62955 6 9.99996 6Z" fill="black"/>
<path fill-rule="evenodd" clip-rule="evenodd" d="M26 18.3625C24.2135 18.3625 23 19.603 23 20.8625C23 22.1219 24.2135 23.3625 26 23.3625C27.7865 23.3625 29 22.1219 29 20.8625C29 19.603 27.7865 18.3625 26 18.3625ZM21 20.8625C21 18.256 23.3682 16.3625 26 16.3625C28.6318 16.3625 31 18.256 31 20.8625C31 23.469 28.6318 25.3625 26 25.3625C23.3682 25.3625 21 23.469 21 20.8625Z" fill="black"/>
<path fill-rule="evenodd" clip-rule="evenodd" d="M25.9888 13.8624C25.1338 13.8528 24.3093 14.1792 23.6926 14.7714C23.2942 15.1539 22.6612 15.141 22.2787 14.7426C21.8962 14.3442 21.909 13.7112 22.3074 13.3287C23.3009 12.3748 24.6286 11.8485 26.0056 11.8625C28.6382 11.8652 31 13.7531 31 16.3625V24C31 24.5523 30.5523 25 30 25C29.4477 25 29 24.5523 29 24V16.3625C29 15.0988 27.7901 13.8625 26 13.8625H25.9888L25.9888 13.8624Z" fill="black"/>
<path fill-rule="evenodd" clip-rule="evenodd" d="M2.65002 19C2.65002 18.4477 3.09774 18 3.65002 18H16.35C16.9023 18 17.35 18.4477 17.35 19C17.35 19.5523 16.9023 20 16.35 20H3.65002C3.09774 20 2.65002 19.5523 2.65002 19Z" fill="black"/>
</svg>
