<svg xmlns="http://www.w3.org/2000/svg" width="32" height="32" fill="none" viewBox="0 0 32 32"><path fill="#000" fill-rule="evenodd" d="M19.3163 6.05134C19.8402 6.22599 20.1234 6.79231 19.9487 7.31625L13.9487 25.3163C13.7741 25.8402 13.2077 26.1234 12.6838 25.9487C12.1599 25.7741 11.8767 25.2077 12.0513 24.6838L18.0513 6.6838C18.226 6.15986 18.7923 5.8767 19.3163 6.05134Z" clip-rule="evenodd"/><path fill="#000" fill-rule="evenodd" d="M7 25C7 24.4477 7.44772 24 8 24H18C18.5523 24 19 24.4477 19 25C19 25.5523 18.5523 26 18 26H8C7.44772 26 7 25.5523 7 25Z" clip-rule="evenodd"/><path fill="#000" fill-rule="evenodd" d="M13 7C13 6.44772 13.4477 6 14 6H24C24.5523 6 25 6.44772 25 7C25 7.55228 24.5523 8 24 8H14C13.4477 8 13 7.55228 13 7Z" clip-rule="evenodd"/></svg>