<svg xmlns="http://www.w3.org/2000/svg" width="32" height="32" fill="none" viewBox="0 0 32 32"><path fill="#000" fill-rule="evenodd" d="M14 5C14.5523 5 15 5.44772 15 6V26C15 26.5523 14.5523 27 14 27C13.4477 27 13 26.5523 13 26V6C13 5.44772 13.4477 5 14 5Z" clip-rule="evenodd"/><path fill="#000" fill-rule="evenodd" d="M17 9C17 8.44772 17.4477 8 18 8H29C29.5304 8 30.0391 8.21071 30.4142 8.58579C30.7893 8.96086 31 9.46957 31 10V22C31 22.5304 30.7893 23.0391 30.4142 23.4142C30.0391 23.7893 29.5304 24 29 24H18C17.4477 24 17 23.5523 17 23C17 22.4477 17.4477 22 18 22H29L29 10L18 10C17.4477 10 17 9.55228 17 9Z" clip-rule="evenodd"/><path fill="#000" fill-rule="evenodd" d="M1.58579 8.58579C1.96086 8.21071 2.46957 8 3 8H14C14.5523 8 15 8.44772 15 9C15 9.55228 14.5523 10 14 10L3 10V22H14C14.5523 22 15 22.4477 15 23C15 23.5523 14.5523 24 14 24H3C2.46957 24 1.96086 23.7893 1.58579 23.4142C1.21071 23.0391 1 22.5304 1 22V10C1 9.46957 1.21071 8.96086 1.58579 8.58579Z" clip-rule="evenodd"/><path fill="#000" fill-rule="evenodd" d="M5.25 14C5.25 13.4477 5.69772 13 6.25 13H9.75C10.3023 13 10.75 13.4477 10.75 14C10.75 14.5523 10.3023 15 9.75 15H6.25C5.69772 15 5.25 14.5523 5.25 14Z" clip-rule="evenodd"/><path fill="#000" fill-rule="evenodd" d="M8 13C8.55228 13 9 13.4477 9 14V18.5C9 19.0523 8.55228 19.5 8 19.5C7.44772 19.5 7 19.0523 7 18.5V14C7 13.4477 7.44772 13 8 13Z" clip-rule="evenodd"/></svg>