<svg xmlns="http://www.w3.org/2000/svg" width="32" height="32" fill="none" viewBox="0 0 32 32"><path fill="#000" fill-rule="evenodd" d="M4 16C4 15.4477 4.44772 15 5 15H27C27.5523 15 28 15.4477 28 16C28 16.5523 27.5523 17 27 17H5C4.44772 17 4 16.5523 4 16Z" clip-rule="evenodd"/><path fill="#000" fill-rule="evenodd" d="M16 7C12.4351 7 10.3875 9.01395 10.3875 11V11.0117L10.3875 11.0117C10.3848 11.2436 10.4194 11.4745 10.49 11.6955C10.6582 12.2215 10.3681 12.7843 9.84208 12.9525C9.31603 13.1207 8.75323 12.8306 8.58504 12.3045C8.44967 11.8811 8.38299 11.4388 8.38755 10.9943C8.39127 7.45839 11.8422 5 16 5C19.2385 5 21.9744 6.44803 23.0879 8.75241C23.3282 9.24968 23.1199 9.8476 22.6226 10.0879C22.1254 10.3282 21.5274 10.1199 21.2872 9.62259C20.6007 8.20197 18.7116 7 16 7Z" clip-rule="evenodd"/><path fill="#000" fill-rule="evenodd" d="M16.34 15.72C16.4946 15.1898 17.0498 14.8854 17.58 15.04C19.0863 15.4793 20.662 16.0243 21.8657 16.9057C23.1257 17.8281 24 19.1393 24 21C24 22.7884 22.9828 24.3123 21.5295 25.3498C20.0743 26.3888 18.1157 27 16 27C13.8843 27 11.9257 26.3888 10.4705 25.3498C9.01724 24.3123 8 22.7884 8 21C8 20.4477 8.44772 20 9 20C9.55228 20 10 20.4477 10 21C10 21.9742 10.5515 22.9502 11.6326 23.7221C12.7118 24.4925 14.2532 25 16 25C17.7468 25 19.2882 24.4925 20.3674 23.7221C21.4485 22.9502 22 21.9742 22 21C22 19.8857 21.5243 19.1344 20.6843 18.5194C19.788 17.8632 18.5137 17.3957 17.02 16.96C16.4898 16.8054 16.1854 16.2502 16.34 15.72Z" clip-rule="evenodd"/></svg>