<svg xmlns="http://www.w3.org/2000/svg" width="32" height="32" fill="none" viewBox="0 0 32 32"><path fill="#000" fill-rule="evenodd" d="M16 3C15.2044 3 14.4413 3.31607 13.8787 3.87868C13.3161 4.44129 13 5.20435 13 6V18.375H12L12.6154 19.1632C11.7127 19.868 11.0525 20.837 10.7269 21.935C10.4013 23.033 10.4267 24.2053 10.7993 25.2882C11.172 26.3711 11.8734 27.3107 12.8057 27.9758C13.7381 28.641 14.8547 28.9985 16 28.9985C17.1453 28.9985 18.2619 28.641 19.1943 27.9758C20.1266 27.3107 20.828 26.3711 21.2007 25.2882C21.5733 24.2053 21.5987 23.033 21.2731 21.935C20.9475 20.837 20.2873 19.868 19.3846 19.1632C19.1419 18.9737 19 18.6829 19 18.375V6C19 5.20435 18.6839 4.44129 18.1213 3.87868C17.5587 3.31607 16.7956 3 16 3ZM11 17.9083V6C11 4.67392 11.5268 3.40215 12.4645 2.46447C13.4021 1.52678 14.6739 1 16 1C17.3261 1 18.5979 1.52678 19.5355 2.46447C20.4732 3.40215 21 4.67392 21 6V17.9083C22.0343 18.8334 22.7943 20.0298 23.1906 21.3665C23.6345 22.8638 23.6 24.4623 23.0918 25.939C22.5836 27.4157 21.6271 28.697 20.3558 29.604C19.0845 30.511 17.5617 30.9985 16 30.9985C14.4383 30.9985 12.9155 30.511 11.6442 29.604C10.3729 28.697 9.41637 27.4157 8.90818 25.939C8.4 24.4623 8.36547 22.8638 8.80941 21.3665C9.20573 20.0298 9.96572 18.8334 11 17.9083Z" clip-rule="evenodd"/><path fill="#000" fill-rule="evenodd" d="M16 22C15.1716 22 14.5 22.6716 14.5 23.5C14.5 24.3284 15.1716 25 16 25C16.8284 25 17.5 24.3284 17.5 23.5C17.5 22.6716 16.8284 22 16 22ZM12.5 23.5C12.5 21.567 14.067 20 16 20C17.933 20 19.5 21.567 19.5 23.5C19.5 25.433 17.933 27 16 27C14.067 27 12.5 25.433 12.5 23.5Z" clip-rule="evenodd"/><path fill="#000" fill-rule="evenodd" d="M16 10C16.5523 10 17 10.4477 17 11V21C17 21.5523 16.5523 22 16 22C15.4477 22 15 21.5523 15 21V11C15 10.4477 15.4477 10 16 10Z" clip-rule="evenodd"/></svg>