<svg width="32" height="32" viewBox="0 0 32 32" fill="none" xmlns="http://www.w3.org/2000/svg">
<path fill-rule="evenodd" clip-rule="evenodd" d="M26.5 8.5C25.6716 8.5 25 9.17157 25 10C25 10.8284 25.6716 11.5 26.5 11.5C27.3284 11.5 28 10.8284 28 10C28 9.17157 27.3284 8.5 26.5 8.5ZM23 10C23 8.067 24.567 6.5 26.5 6.5C28.433 6.5 30 8.067 30 10C30 11.933 28.433 13.5 26.5 13.5C24.567 13.5 23 11.933 23 10Z" fill="black"/>
<path fill-rule="evenodd" clip-rule="evenodd" d="M15 3C14.2044 3 13.4413 3.31607 12.8787 3.87868C12.3161 4.44129 12 5.20435 12 6V18.375H11L11.6154 19.1632C10.7127 19.868 10.0525 20.837 9.7269 21.935C9.40134 23.033 9.42667 24.2053 9.79933 25.2882C10.172 26.3711 10.8734 27.3107 11.8057 27.9758C12.7381 28.641 13.8547 28.9985 15 28.9985C16.1453 28.9985 17.2619 28.641 18.1943 27.9758C19.1266 27.3107 19.828 26.3711 20.2007 25.2882C20.5733 24.2053 20.5987 23.033 20.2731 21.935C19.9475 20.837 19.2873 19.868 18.3846 19.1632C18.1419 18.9737 18 18.6829 18 18.375V6C18 5.20435 17.6839 4.44129 17.1213 3.87868C16.5587 3.31607 15.7956 3 15 3ZM10 17.9083V6C10 4.67392 10.5268 3.40215 11.4645 2.46447C12.4021 1.52678 13.6739 1 15 1C16.3261 1 17.5979 1.52678 18.5355 2.46447C19.4732 3.40215 20 4.67392 20 6V17.9083C21.0343 18.8334 21.7943 20.0298 22.1906 21.3665C22.6345 22.8638 22.6 24.4623 22.0918 25.939C21.5836 27.4157 20.6271 28.697 19.3558 29.604C18.0845 30.511 16.5617 30.9985 15 30.9985C13.4383 30.9985 11.9155 30.511 10.6442 29.604C9.37286 28.697 8.41637 27.4157 7.90818 25.939C7.4 24.4623 7.36547 22.8638 7.80941 21.3665C8.20573 20.0298 8.96572 18.8334 10 17.9083Z" fill="black"/>
<path fill-rule="evenodd" clip-rule="evenodd" d="M15 22C14.1716 22 13.5 22.6716 13.5 23.5C13.5 24.3284 14.1716 25 15 25C15.8284 25 16.5 24.3284 16.5 23.5C16.5 22.6716 15.8284 22 15 22ZM11.5 23.5C11.5 21.567 13.067 20 15 20C16.933 20 18.5 21.567 18.5 23.5C18.5 25.433 16.933 27 15 27C13.067 27 11.5 25.433 11.5 23.5Z" fill="black"/>
<path fill-rule="evenodd" clip-rule="evenodd" d="M15 10C15.5523 10 16 10.4477 16 11V21C16 21.5523 15.5523 22 15 22C14.4477 22 14 21.5523 14 21V11C14 10.4477 14.4477 10 15 10Z" fill="black"/>
</svg>
