<svg xmlns="http://www.w3.org/2000/svg" width="32" height="32" fill="none" viewBox="0 0 32 32"><path fill="#000" fill-rule="evenodd" d="M15 22C14.1716 22 13.5 22.6716 13.5 23.5C13.5 24.3284 14.1716 25 15 25C15.8284 25 16.5 24.3284 16.5 23.5C16.5 22.6716 15.8284 22 15 22ZM11.5 23.5C11.5 21.567 13.067 20 15 20C16.933 20 18.5 21.567 18.5 23.5C18.5 25.433 16.933 27 15 27C13.067 27 11.5 25.433 11.5 23.5Z" clip-rule="evenodd"/><path fill="#000" fill-rule="evenodd" d="M15 14C15.5523 14 16 14.4477 16 15V21C16 21.5523 15.5523 22 15 22C14.4477 22 14 21.5523 14 21V15C14 14.4477 14.4477 14 15 14Z" clip-rule="evenodd"/><path fill="#000" fill-rule="evenodd" d="M26.5 5C27.0523 5 27.5 5.44772 27.5 6V10C27.5 10.5523 27.0523 11 26.5 11C25.9477 11 25.5 10.5523 25.5 10V6C25.5 5.44772 25.9477 5 26.5 5Z" clip-rule="evenodd"/><path fill="#000" fill-rule="evenodd" d="M21.7491 8.45283C21.9201 7.92769 22.4845 7.64061 23.0096 7.81163L26.8096 9.04913C27.3348 9.22014 27.6218 9.78449 27.4508 10.3096C27.2798 10.8348 26.7155 11.1218 26.1903 10.9508L22.3903 9.71333C21.8652 9.54231 21.5781 8.97797 21.7491 8.45283Z" clip-rule="evenodd"/><path fill="#000" fill-rule="evenodd" d="M27.0874 9.19067C27.5344 9.5151 27.6337 10.1404 27.3093 10.5874L24.9592 13.8249C24.6348 14.2718 24.0095 14.3712 23.5625 14.0467C23.1156 13.7223 23.0163 13.097 23.3407 12.65L25.6907 9.41252C26.0151 8.96557 26.6405 8.86625 27.0874 9.19067Z" clip-rule="evenodd"/><path fill="#000" fill-rule="evenodd" d="M25.9125 9.19067C26.3595 8.86625 26.9848 8.96557 27.3092 9.41252L29.6592 12.65C29.9837 13.097 29.8843 13.7223 29.4374 14.0467C28.9904 14.3712 28.3651 14.2718 28.0407 13.8249L25.6907 10.5874C25.3662 10.1404 25.4656 9.5151 25.9125 9.19067Z" clip-rule="evenodd"/><path fill="#000" fill-rule="evenodd" d="M31.2509 8.45283C31.4219 8.97797 31.1348 9.54231 30.6097 9.71333L26.8097 10.9508C26.2845 11.1218 25.7202 10.8348 25.5492 10.3096C25.3782 9.78449 25.6652 9.22014 26.1904 9.04913L29.9904 7.81163C30.5155 7.64061 31.0799 7.92769 31.2509 8.45283Z" clip-rule="evenodd"/><path fill="#000" fill-rule="evenodd" d="M15 3C14.2044 3 13.4413 3.31607 12.8787 3.87868C12.3161 4.44129 12 5.20435 12 6V18.375H11L11.6154 19.1632C10.7127 19.868 10.0525 20.837 9.7269 21.935C9.40134 23.033 9.42667 24.2053 9.79933 25.2882C10.172 26.3711 10.8734 27.3107 11.8057 27.9758C12.7381 28.641 13.8547 28.9985 15 28.9985C16.1453 28.9985 17.2619 28.641 18.1943 27.9758C19.1266 27.3107 19.828 26.3711 20.2007 25.2882C20.5733 24.2053 20.5987 23.033 20.2731 21.935C19.9475 20.837 19.2873 19.868 18.3846 19.1632C18.1419 18.9737 18 18.6829 18 18.375V6C18 5.20435 17.6839 4.44129 17.1213 3.87868C16.5587 3.31607 15.7956 3 15 3ZM10 17.9083V6C10 4.67392 10.5268 3.40215 11.4645 2.46447C12.4021 1.52678 13.6739 1 15 1C16.3261 1 17.5979 1.52678 18.5355 2.46447C19.4732 3.40215 20 4.67392 20 6V17.9083C21.0343 18.8334 21.7943 20.0298 22.1906 21.3665C22.6345 22.8638 22.6 24.4623 22.0918 25.939C21.5836 27.4157 20.6271 28.697 19.3558 29.604C18.0845 30.511 16.5617 30.9985 15 30.9985C13.4383 30.9985 11.9155 30.511 10.6442 29.604C9.37286 28.697 8.41637 27.4157 7.90818 25.939C7.4 24.4623 7.36547 22.8638 7.80941 21.3665C8.20573 20.0298 8.96572 18.8334 10 17.9083Z" clip-rule="evenodd"/></svg>