<svg width="32" height="32" viewBox="0 0 32 32" fill="none" xmlns="http://www.w3.org/2000/svg">
<path fill-rule="evenodd" clip-rule="evenodd" d="M16 5C14.9391 5 13.9217 5.42143 13.1716 6.17157C12.4214 6.92172 12 7.93913 12 9C12 9.55228 11.5523 10 11 10C10.4477 10 10 9.55228 10 9C10 7.4087 10.6321 5.88258 11.7574 4.75736C12.8826 3.63214 14.4087 3 16 3C17.5913 3 19.1174 3.63214 20.2426 4.75736C21.3679 5.88258 22 7.4087 22 9C22 9.55228 21.5523 10 21 10C20.4477 10 20 9.55228 20 9C20 7.93913 19.5786 6.92172 18.8284 6.17157C18.0783 5.42143 17.0609 5 16 5Z" fill="black"/>
</svg>
