<svg xmlns="http://www.w3.org/2000/svg" width="32" height="32" fill="none" viewBox="0 0 32 32"><path fill="#000" fill-rule="evenodd" d="M16 5C9.92487 5 5 9.92487 5 16C5 22.0751 9.92487 27 16 27C22.0751 27 27 22.0751 27 16C27 9.92487 22.0751 5 16 5ZM3 16C3 8.8203 8.8203 3 16 3C23.1797 3 29 8.8203 29 16C29 23.1797 23.1797 29 16 29C8.8203 29 3 23.1797 3 16Z" clip-rule="evenodd"/><path fill="#000" fill-rule="evenodd" d="M12 11C12 10.4477 12.4477 10 13 10H17C18.0609 10 19.0783 10.4214 19.8284 11.1716C20.5786 11.9217 21 12.9391 21 14C21 15.0609 20.5786 16.0783 19.8284 16.8284C19.0783 17.5786 18.0609 18 17 18H14V21C14 21.5523 13.5523 22 13 22C12.4477 22 12 21.5523 12 21V11ZM14 16H17C17.5304 16 18.0391 15.7893 18.4142 15.4142C18.7893 15.0391 19 14.5304 19 14C19 13.4696 18.7893 12.9609 18.4142 12.5858C18.0391 12.2107 17.5304 12 17 12H14V16Z" clip-rule="evenodd"/><path fill="#000" fill-rule="evenodd" d="M16.6277 16.1674C17.0806 15.8514 17.704 15.9623 18.02 16.4153L20.82 20.4278C21.1361 20.8807 21.0252 21.504 20.5722 21.8201C20.1193 22.1361 19.496 22.0252 19.1799 21.5723L16.3799 17.5598C16.0639 17.1069 16.1748 16.4835 16.6277 16.1674Z" clip-rule="evenodd"/></svg>