<svg width="32" height="32" viewBox="0 0 32 32" fill="none" xmlns="http://www.w3.org/2000/svg">
<path fill-rule="evenodd" clip-rule="evenodd" d="M17.2929 11.2929C17.6834 10.9024 18.3166 10.9024 18.7071 11.2929L21.7071 14.2929C22.0976 14.6834 22.0976 15.3166 21.7071 15.7071L18.7071 18.7071C18.3166 19.0976 17.6834 19.0976 17.2929 18.7071C16.9024 18.3166 16.9024 17.6834 17.2929 17.2929L19.5858 15L17.2929 12.7071C16.9024 12.3166 16.9024 11.6834 17.2929 11.2929Z" fill="black"/>
<path fill-rule="evenodd" clip-rule="evenodd" d="M1.50674 17.4142C0.725694 16.6332 0.725694 15.3668 1.50674 14.5858L14.5882 1.50431C15.3693 0.723262 16.6356 0.723263 17.4166 1.50431L30.5025 14.5902C31.2836 15.3713 31.2836 16.6376 30.5025 17.4186L17.4211 30.5001C16.64 31.2812 15.3737 31.2812 14.5926 30.5001L1.50674 17.4142ZM16.0024 2.91852L2.92096 16L16.0069 29.0859L29.0883 16.0044L16.0024 2.91852Z" fill="black"/>
<path fill-rule="evenodd" clip-rule="evenodd" d="M13.9958 16C13.7334 15.9989 13.4734 16.0498 13.2307 16.1497C12.9881 16.2496 12.7676 16.3966 12.5821 16.5821C12.3966 16.7676 12.2496 16.9881 12.1497 17.2307C12.0498 17.4734 11.9989 17.7334 12 17.9958L12 18L12 19C12 19.5523 11.5523 20 11 20C10.4477 20 10 19.5523 10 19V18.002M14.002 14H21C21.5523 14 22 14.4477 22 15C22 15.5523 21.5523 16 21 16L13.9958 16" fill="black"/>
</svg>
