<svg xmlns="http://www.w3.org/2000/svg" width="32" height="32" fill="none" viewBox="0 0 32 32"><path fill="#000" fill-rule="evenodd" d="M14.7125 3H17.3006C17.7118 3.00539 18.1117 3.13595 18.447 3.37417C18.7822 3.61239 19.037 3.94705 19.1774 4.33362L19.1821 4.34655L26.9445 26.6716C27.1259 27.1932 26.8501 27.7632 26.3284 27.9445C25.8068 28.1259 25.2368 27.8501 25.0555 27.3284L17.2969 5.01465C17.2951 5.01061 17.2922 5.00711 17.2886 5.00453C17.2849 5.00193 17.2806 5.00037 17.2762 5H14.7238C14.7194 5.00037 14.7151 5.00193 14.7114 5.00453C14.7078 5.00711 14.7049 5.01061 14.7031 5.01466L6.94453 27.3284C6.76315 27.8501 6.19323 28.1259 5.67158 27.9445C5.14993 27.7632 4.87409 27.1932 5.05547 26.6716L12.8225 4.33359C12.9629 3.94701 13.2178 3.61239 13.553 3.37417C13.8883 3.13595 14.2882 3.00547 14.6994 3.00009L14.7125 3Z" clip-rule="evenodd"/><path fill="#000" fill-rule="evenodd" d="M2 27C2 26.4477 2.44772 26 3 26H29C29.5523 26 30 26.4477 30 27C30 27.5523 29.5523 28 29 28H3C2.44772 28 2 27.5523 2 27Z" clip-rule="evenodd"/><path fill="#000" fill-rule="evenodd" d="M10.2125 12C10.2125 11.4477 10.6602 11 11.2125 11H20.7875C21.3398 11 21.7875 11.4477 21.7875 12C21.7875 12.5523 21.3398 13 20.7875 13H11.2125C10.6602 13 10.2125 12.5523 10.2125 12Z" clip-rule="evenodd"/><path fill="#000" fill-rule="evenodd" d="M7.4375 20C7.4375 19.4477 7.88522 19 8.4375 19H23.5625C24.1148 19 24.5625 19.4477 24.5625 20C24.5625 20.5523 24.1148 21 23.5625 21H8.4375C7.88522 21 7.4375 20.5523 7.4375 20Z" clip-rule="evenodd"/></svg>