<svg width="32" height="32" viewBox="0 0 32 32" fill="none" xmlns="http://www.w3.org/2000/svg">
<path fill-rule="evenodd" clip-rule="evenodd" d="M4 6C4 4.89543 4.89543 4 6 4H26C27.1046 4 28 4.89543 28 6V26C28 27.1046 27.1046 28 26 28H6C4.89543 28 4 27.1046 4 26V6ZM26 6H6V26H26V6Z" fill="black"/>
<path fill-rule="evenodd" clip-rule="evenodd" d="M9.58578 21L12.0054 23.4196L12.0071 23.4214C12.1924 23.6057 12.4122 23.7517 12.6539 23.851C12.8951 23.95 13.1533 24.0007 13.414 24H13.4125V23L13.416 24C13.4153 24 13.4147 24 13.414 24M18.586 24H18.5875V23L18.584 24C18.5846 24 18.5853 24 18.586 24ZM18.586 24C18.8466 24.0007 19.1049 23.95 19.346 23.851C19.5878 23.7517 19.8076 23.6057 19.9928 23.4214L19.9946 23.4196L22.4142 21H27C27.5523 21 28 20.5523 28 20C28 19.4477 27.5523 19 27 19H22.4139M13.4142 22L10.9946 19.5804L10.9928 19.5787C10.8076 19.3943 10.5878 19.2483 10.346 19.149C10.1049 19.05 9.84669 18.9994 9.58604 19H9.58749V20L9.58398 19C9.58467 19 9.58535 19 9.58604 19" fill="black"/>
</svg>
