<svg width="32" height="32" viewBox="0 0 32 32" fill="none" xmlns="http://www.w3.org/2000/svg">
<path fill-rule="evenodd" clip-rule="evenodd" d="M16 10C16.5523 10 17 10.4477 17 11V29C17 29.5523 16.5523 30 16 30C15.4477 30 15 29.5523 15 29V11C15 10.4477 15.4477 10 16 10Z" fill="black"/>
<path fill-rule="evenodd" clip-rule="evenodd" d="M9.10555 15.5528C9.35254 15.0588 9.95321 14.8586 10.4472 15.1055L16.4472 18.1055C16.9412 18.3525 17.1414 18.9532 16.8944 19.4472C16.6474 19.9412 16.0467 20.1414 15.5528 19.8944L9.55276 16.8944C9.05878 16.6474 8.85856 16.0467 9.10555 15.5528Z" fill="black"/>
<path fill-rule="evenodd" clip-rule="evenodd" d="M22.8944 12.5528C23.1414 13.0467 22.9412 13.6474 22.4472 13.8944L16.4472 16.8944C15.9532 17.1414 15.3525 16.9412 15.1055 16.4472C14.8586 15.9532 15.0588 15.3525 15.5528 15.1055L21.5528 12.1055C22.0467 11.8586 22.6474 12.0588 22.8944 12.5528Z" fill="black"/>
<path fill-rule="evenodd" clip-rule="evenodd" d="M10.7407 3.59102C12.2991 2.55508 14.1287 2.00244 15.9999 2.00244C17.8712 2.00244 19.7008 2.55508 21.2592 3.59102C22.8131 4.62405 24.0284 6.0918 24.7534 7.81097C24.7593 7.8226 24.7681 7.83246 24.7789 7.83962C25.9054 8.34981 26.9148 9.08675 27.7441 10.0046C28.5812 10.9312 29.2164 12.0219 29.6092 13.2074C30.002 14.3928 30.1437 15.647 30.0255 16.8902C29.9072 18.1334 29.5315 19.3384 28.9223 20.4286C28.3131 21.5187 27.4837 22.4701 26.4868 23.2223C25.4899 23.9745 24.3474 24.511 23.132 24.7977C21.9165 25.0843 20.6547 25.1149 19.4267 24.8875C18.2037 24.6609 17.0409 24.1833 16.0118 23.4849C16.0081 23.4829 16.0041 23.4819 15.9999 23.4819C15.9958 23.4819 15.9917 23.4829 15.9881 23.4849C14.959 24.1833 13.7962 24.6609 12.5731 24.8875C11.3452 25.1149 10.0834 25.0843 8.86792 24.7977C7.65245 24.511 6.50995 23.9745 5.51308 23.2223C4.5162 22.4701 3.68678 21.5187 3.07756 20.4286C2.46834 19.3384 2.09265 18.1334 1.9744 16.8902C1.85615 15.647 1.99792 14.3928 2.39069 13.2074C2.78346 12.0219 3.41864 10.9312 4.25582 10.0046C5.08503 9.08675 6.09444 8.34981 7.22096 7.83962C7.23178 7.83246 7.24058 7.8226 7.24648 7.81098C7.97148 6.0918 9.18673 4.62406 10.7407 3.59102ZM15.9999 4.00244C14.5226 4.00244 13.0782 4.43874 11.8479 5.25658C10.6176 6.07443 9.65629 7.23739 9.0845 8.59957L9.07672 8.61759C8.88206 9.05695 8.54095 9.41512 8.11161 9.63097C8.09834 9.63764 8.08493 9.64401 8.07138 9.65008C7.18501 10.0473 6.391 10.6246 5.73985 11.3453C5.08871 12.066 4.59468 12.9144 4.28919 13.8364C3.9837 14.7584 3.87344 15.7339 3.96541 16.7008C4.05739 17.6678 4.34959 18.605 4.82343 19.4529C5.29726 20.3008 5.94237 21.0408 6.71772 21.6258C7.49306 22.2108 8.38168 22.6281 9.32704 22.8511C10.2724 23.074 11.2538 23.0978 12.2089 22.9209C13.1639 22.744 14.0717 22.3703 14.8745 21.8235L14.8887 21.8141C15.2188 21.5973 15.605 21.4819 15.9999 21.4819C16.3948 21.4819 16.7811 21.5973 17.1112 21.8141L17.1254 21.8235C17.9282 22.3703 18.8359 22.744 19.791 22.9209C20.7461 23.0978 21.7275 23.074 22.6728 22.8511C23.6182 22.6281 24.5068 22.2108 25.2822 21.6258C26.0575 21.0408 26.7026 20.3008 27.1765 19.4529C27.6503 18.605 27.9425 17.6678 28.0345 16.7008C28.1264 15.7339 28.0162 14.7584 27.7107 13.8364C27.4052 12.9144 26.9112 12.066 26.26 11.3453C25.6089 10.6246 24.8149 10.0473 23.9285 9.65008C23.9149 9.64401 23.9015 9.63764 23.8883 9.63097C23.4589 9.41512 23.1178 9.05695 22.9232 8.61759L22.9154 8.59957C22.3436 7.23739 21.3822 6.07443 20.152 5.25658C18.9217 4.43874 17.4773 4.00244 15.9999 4.00244Z" fill="black"/>
</svg>
