<svg width="32" height="32" viewBox="0 0 32 32" fill="none" xmlns="http://www.w3.org/2000/svg">
<path fill-rule="evenodd" clip-rule="evenodd" d="M2 13.5C2 12.3954 2.89543 11.5 4 11.5H9C10.1046 11.5 11 12.3954 11 13.5V18.5C11 19.6046 10.1046 20.5 9 20.5H4C2.89543 20.5 2 19.6046 2 18.5V13.5ZM9 13.5H4V18.5H9V13.5Z" fill="black"/>
<path fill-rule="evenodd" clip-rule="evenodd" d="M19 6C19 4.89543 19.8954 4 21 4H27C28.1046 4 29 4.89543 29 6V12C29 13.1046 28.1046 14 27 14H21C19.8954 14 19 13.1046 19 12V6ZM27 6H21V12H27V6Z" fill="black"/>
<path fill-rule="evenodd" clip-rule="evenodd" d="M19 20C19 18.8954 19.8954 18 21 18H27C28.1046 18 29 18.8954 29 20V26C29 27.1046 28.1046 28 27 28H21C19.8954 28 19 27.1046 19 26V20ZM27 20H21V26H27V20Z" fill="black"/>
<path fill-rule="evenodd" clip-rule="evenodd" d="M9 16C9 15.4477 9.44772 15 10 15H15C15.5523 15 16 15.4477 16 16C16 16.5523 15.5523 17 15 17H10C9.44772 17 9 16.5523 9 16Z" fill="black"/>
<path fill-rule="evenodd" clip-rule="evenodd" d="M17.9958 9.99999C17.7334 9.99889 17.4734 10.0498 17.2307 10.1497C16.9881 10.2496 16.7676 10.3966 16.5821 10.5821C16.3966 10.7676 16.2496 10.9881 16.1497 11.2307C16.0498 11.4734 15.9989 11.7334 16 11.9958L16 12L16 20.0042C15.9989 20.2666 16.0498 20.5266 16.1497 20.7693C16.2496 21.0119 16.3966 21.2324 16.5821 21.4179C16.7676 21.6034 16.9881 21.7504 17.2307 21.8503C17.4734 21.9502 17.7334 22.0011 17.9958 22L18 22L20 22C20.5523 22 21 22.4477 21 23C21 23.5523 20.5523 24 20 24H18.002M14 12.002V19.998V12.002ZM18.002 8H20C20.5523 8 21 8.44772 21 9C21 9.55228 20.5523 10 20 10L17.9958 9.99999" fill="black"/>
</svg>
