<svg xmlns="http://www.w3.org/2000/svg" width="32" height="32" fill="none" viewBox="0 0 32 32"><path fill="#000" fill-rule="evenodd" d="M23.1316 4.50423C23.4054 4.02459 24.0162 3.85773 24.4958 4.13153L30.6763 7.65969C31.1184 7.91577 31.4465 8.3304 31.5941 8.81947C31.7418 9.30853 31.6979 9.83544 31.4714 10.2933L31.4695 10.2972L29.1716 14.893C29.1711 14.8939 29.1707 14.8948 29.1703 14.8956C29.0057 15.2275 28.7516 15.5067 28.4367 15.7019C28.1214 15.8973 27.7578 16.0005 27.3869 16C27.3864 16 27.3858 16 27.3853 16L27.3876 15L27.3869 16H24C23.4478 16 23 15.5523 23 15C23 14.4477 23.4478 14 24 14H27.382L27.3806 14.0028L27.3785 14.007C27.3793 14.0055 27.3794 14.0038 27.3806 14.0028C27.3812 14.0023 27.3825 14.0023 27.3832 14.0019C27.3845 14.001 27.386 14.0005 27.3876 14.0002C27.3883 14.0001 27.389 14 27.3898 14H27.382L29.6787 9.40663L30.5751 9.84999L29.6806 9.40278L29.6787 9.40663C29.68 9.40388 29.6803 9.40038 29.6795 9.39748C29.6786 9.39464 29.6768 9.39221 29.6743 9.3906L29.6793 9.39345L30.175 8.52499L29.6743 9.3906C29.6741 9.39049 29.6745 9.39071 29.6743 9.3906L23.5043 5.86845C23.0247 5.59465 22.8578 4.98387 23.1316 4.50423Z" clip-rule="evenodd"/><path fill="#000" fill-rule="evenodd" d="M8.86848 4.50423C9.14228 4.98387 8.97542 5.59465 8.49578 5.86845L2.32577 9.3906C2.32329 9.39221 2.32146 9.39464 2.32061 9.39748C2.31973 9.40038 2.31994 9.40349 2.32118 9.40624C2.32112 9.40611 2.32124 9.40637 2.32118 9.40624L4.61806 14H8.00002C8.55231 14 9.00002 14.4477 9.00002 15C9.00002 15.5523 8.55231 16 8.00002 16H4.6132M2.82852 14.893L0.528672 10.2934C0.302176 9.83544 0.25831 9.30853 0.405951 8.81947C0.553593 8.3304 0.8817 7.91579 1.32374 7.6597L1.32925 7.65651L7.50426 4.13153C7.9839 3.85773 8.59468 4.02459 8.86848 4.50423" clip-rule="evenodd"/><path fill="#000" fill-rule="evenodd" d="M7 5C7 4.44772 7.44772 4 8 4H12C12.5523 4 13 4.44772 13 5C13 5.79565 13.3161 6.55871 13.8787 7.12132C14.4413 7.68393 15.2044 8 16 8C16.7956 8 17.5587 7.68393 18.1213 7.12132C18.6839 6.55871 19 5.79565 19 5C19 4.44772 19.4477 4 20 4H24C24.5523 4 25 4.44772 25 5V26C25 26.5304 24.7893 27.0391 24.4142 27.4142C24.0391 27.7893 23.5304 28 23 28H9C8.46957 28 7.96086 27.7893 7.58579 27.4142C7.21071 27.0391 7 26.5304 7 26V5ZM9 6V26H23V6H20.899C20.7044 6.95344 20.2339 7.83715 19.5355 8.53553C18.5979 9.47322 17.3261 10 16 10C14.6739 10 13.4021 9.47322 12.4645 8.53553C11.7661 7.83715 11.2956 6.95344 11.101 6H9Z" clip-rule="evenodd"/></svg>