<svg xmlns="http://www.w3.org/2000/svg" width="32" height="32" fill="none" viewBox="0 0 32 32"><path fill="#000" fill-rule="evenodd" d="M21.0488 6.99991C18.858 6.97003 17 8.806 17 11V13C17 13.294 16.8706 13.573 16.6464 13.763C16.4221 13.953 16.1255 14.0347 15.8356 13.9864C12.6305 13.4522 9.74011 11.863 7.68345 10.449C6.92264 9.92598 6.26668 9.42047 5.74052 8.98957C5.38165 13.2102 6.65083 16.1261 8.05504 18.0318C8.86252 19.1277 9.7275 19.9057 10.3868 20.4073C10.7158 20.6577 10.9916 20.8377 11.1803 20.9526C11.2746 21.01 11.3469 21.051 11.3928 21.0763C11.4158 21.089 11.4322 21.0977 11.4414 21.1025L11.4489 21.1064L11.4482 21.1061C11.7042 21.2344 11.893 21.4665 11.9665 21.7433C12.0401 22.0206 11.9911 22.316 11.832 22.5547C10.7145 24.231 9.07207 25.4479 7.76448 26.2325C7.53095 26.3726 7.30569 26.5004 7.09298 26.6158C7.73405 26.8233 8.66992 27 9.99998 27H10.0005C13.8103 27.0019 17.4779 25.5528 20.2576 22.9472C23.0372 20.3417 24.7203 16.7754 24.9645 12.9734C24.9801 12.7308 25.0835 12.5023 25.2554 12.3304L27.5858 10H25.5875C25.1898 10 24.83 9.76439 24.6709 9.39993C24.3628 8.69374 23.8572 8.09156 23.2151 7.66581C22.5729 7.24005 21.8214 7.00883 21.0509 6.99993L21.0488 6.99991ZM4.99998 26.5C4.16793 27.0547 4.16843 27.0555 4.16894 27.0562L4.16998 27.0578L4.17215 27.061L4.17681 27.0678L4.18746 27.083C4.19517 27.0939 4.2041 27.1062 4.21432 27.1197C4.23475 27.1467 4.26031 27.1788 4.2915 27.2152C4.35395 27.2881 4.4387 27.3777 4.54977 27.4777C4.77262 27.6782 5.09717 27.9166 5.55277 28.1444C6.46584 28.601 7.87416 28.9999 9.99949 29M4.64886 25.5637C4.6486 25.5638 4.64835 25.5639 4.6481 25.564C4.36272 25.6712 4.14186 25.9028 4.04826 26.193C3.95458 26.4835 3.99865 26.8008 4.16793 27.0547L4.99998 26.5M4.64886 25.5637L4.65304 25.5621L4.67927 25.5519C4.70386 25.5422 4.74239 25.5268 4.79341 25.5057C4.89551 25.4634 5.04726 25.3984 5.23717 25.3108C5.61777 25.1351 6.14737 24.8704 6.73548 24.5175C7.67012 23.9567 8.70624 23.2008 9.53549 22.2627C9.77177 22.4295 9.97701 22.5614 10.1399 22.6607C10.2605 22.7341 10.3582 22.7898 10.4284 22.8285C10.4636 22.8478 10.4918 22.8629 10.5128 22.8738L10.5385 22.8872L10.5471 22.8916L10.5503 22.8932L10.5516 22.8939M4.99998 7C5.70709 6.29289 5.70693 6.29274 5.7068 6.2926L5.70794 6.29374L5.71595 6.30165L5.7531 6.33787C5.78712 6.3708 5.83948 6.42093 5.9092 6.48606C6.04869 6.61637 6.25738 6.8065 6.5275 7.03911C7.06836 7.50485 7.85206 8.1379 8.81651 8.80096C10.4871 9.94951 12.6501 11.1533 15 11.7645V11C15 7.69434 17.7664 4.95554 21.0751 5.00008C22.2304 5.01362 23.3572 5.36044 24.3202 5.99888C25.096 6.5132 25.7388 7.19914 26.2011 8H30C30.4044 8 30.7691 8.24364 30.9239 8.61732C31.0786 8.99099 30.9931 9.42111 30.7071 9.70711L26.9317 13.4825C26.5699 17.6487 24.6829 21.5404 21.6254 24.4064C18.4749 27.3595 14.3181 29.002 9.99998 29M4.99998 7L5.70709 6.29289C5.70693 6.29274 5.70678 6.29258 5.70662 6.29242C5.44362 6.02977 5.05663 5.93465 4.70181 6.04549C4.34679 6.15639 4.08265 6.45517 4.01611 6.82111C2.96385 12.6085 4.5417 16.6352 6.44492 19.2182C7.38744 20.4973 8.39746 21.4068 9.17571 21.999C9.30194 22.095 9.42228 22.1828 9.53549 22.2627" clip-rule="evenodd"/></svg>