<svg width="32" height="32" viewBox="0 0 32 32" fill="none" xmlns="http://www.w3.org/2000/svg">
<path fill-rule="evenodd" clip-rule="evenodd" d="M16 16C16.5523 16 17 16.4477 17 17V25C17 25.5304 17.2107 26.0391 17.5858 26.4142C17.9609 26.7893 18.4696 27 19 27C19.5304 27 20.0391 26.7893 20.4142 26.4142C20.7893 26.0391 21 25.5304 21 25C21 24.4477 21.4477 24 22 24C22.5523 24 23 24.4477 23 25C23 26.0609 22.5786 27.0783 21.8284 27.8284C21.0783 28.5786 20.0609 29 19 29C17.9391 29 16.9217 28.5786 16.1716 27.8284C15.4214 27.0783 15 26.0609 15 25V17C15 16.4477 15.4477 16 16 16Z" fill="black"/>
<path fill-rule="evenodd" clip-rule="evenodd" d="M16 5.05164C12.9994 5.05164 10.1077 6.17577 7.89495 8.20241C5.68225 10.229 4.30907 13.0111 4.04613 16.0001H27.9538C27.6909 13.0111 26.3177 10.229 24.105 8.20241C21.8922 6.17577 19.0005 5.05164 16 5.05164ZM6.54412 6.72754C9.12564 4.36313 12.4993 3.05164 16 3.05164C19.5006 3.05164 22.8743 4.36313 25.4558 6.72754C28.0359 9.09068 29.6377 12.3342 29.9456 15.8193C29.9725 16.0941 29.9418 16.3715 29.8555 16.6338C29.7683 16.8987 29.6264 17.1422 29.4389 17.3487C29.2515 17.5551 29.0227 17.7198 28.7674 17.832C28.5131 17.9438 28.2382 18.0011 27.9604 18.0001C27.9594 18.0001 27.9583 18 27.9573 18L27.9625 17.0001V18.0001H27.9604H4.03956C4.04057 18.0001 4.04159 18 4.04261 18L4.03747 17.0001V18.0001H4.03956M6.54412 6.72754C3.96402 9.09065 2.36232 12.3341 2.05432 15.8192L6.54412 6.72754Z" fill="black"/>
<path fill-rule="evenodd" clip-rule="evenodd" d="M16.6247 3.21913L16 4L15.3753 3.21913C15.7405 2.92696 16.2595 2.92696 16.6247 3.21913ZM16 5.39312C16.0136 5.40791 16.0274 5.42297 16.0413 5.4383C16.4697 5.90953 17.0521 6.63588 17.6381 7.63202C18.8066 9.6185 20 12.6951 20 17C20 17.5523 20.4477 18 21 18C21.5523 18 22 17.5523 22 17C22 12.3049 20.6934 8.8815 19.3619 6.61798C18.6979 5.48912 18.0303 4.65297 17.5212 4.09295C17.2666 3.81286 17.0512 3.60147 16.8953 3.45666C16.8173 3.38424 16.7541 3.32842 16.7082 3.28893C16.6852 3.26919 16.6666 3.25352 16.6526 3.2419L16.6351 3.2275L16.629 3.22256L16.6266 3.22066L16.6256 3.21985C16.6251 3.21948 16.6247 3.21913 16 4C15.3753 3.21913 15.3749 3.21948 15.3744 3.21985L15.3734 3.22066L15.371 3.22256L15.3649 3.2275L15.3474 3.2419C15.3334 3.25352 15.3148 3.26919 15.2918 3.28893C15.2459 3.32842 15.1827 3.38424 15.1047 3.45666C14.9488 3.60147 14.7334 3.81286 14.4788 4.09295C13.9697 4.65297 13.3021 5.48912 12.6381 6.61798C11.3066 8.8815 10 12.3049 10 17C10 17.5523 10.4477 18 11 18C11.5523 18 12 17.5523 12 17C12 12.6951 13.1934 9.6185 14.3619 7.63202C14.9479 6.63588 15.5303 5.90953 15.9587 5.4383C15.9726 5.42297 15.9864 5.40791 16 5.39312Z" fill="black"/>
</svg>
