<svg xmlns="http://www.w3.org/2000/svg" width="32" height="32" fill="none" viewBox="0 0 32 32"><path fill="#000" fill-rule="evenodd" d="M16 16C16.5523 16 17 16.4477 17 17V25C17 25.5304 17.2107 26.0391 17.5858 26.4142C17.9609 26.7893 18.4696 27 19 27C19.5304 27 20.0391 26.7893 20.4142 26.4142C20.7893 26.0391 21 25.5304 21 25C21 24.4477 21.4477 24 22 24C22.5523 24 23 24.4477 23 25C23 26.0609 22.5786 27.0783 21.8284 27.8284C21.0783 28.5786 20.0609 29 19 29C17.9391 29 16.9217 28.5786 16.1716 27.8284C15.4214 27.0783 15 26.0609 15 25V17C15 16.4477 15.4477 16 16 16Z" clip-rule="evenodd"/><path fill="#000" fill-rule="evenodd" d="M16 5.05164C12.9994 5.05164 10.1077 6.17577 7.89495 8.20241C5.68225 10.229 4.30907 13.0111 4.04613 16.0001H27.9538C27.6909 13.0111 26.3177 10.229 24.105 8.20241C21.8922 6.17577 19.0005 5.05164 16 5.05164ZM6.54412 6.72754C9.12564 4.36313 12.4993 3.05164 16 3.05164C19.5006 3.05164 22.8743 4.36313 25.4558 6.72754C28.0359 9.09068 29.6377 12.3342 29.9456 15.8193C29.9725 16.0941 29.9418 16.3715 29.8555 16.6338C29.7683 16.8987 29.6264 17.1422 29.4389 17.3487C29.2515 17.5551 29.0227 17.7198 28.7674 17.832C28.5131 17.9438 28.2382 18.0011 27.9604 18.0001C27.9594 18.0001 27.9583 18 27.9573 18L27.9625 17.0001V18.0001H27.9604H4.03956C4.04057 18.0001 4.04159 18 4.04261 18L4.03747 17.0001V18.0001H4.03956M6.54412 6.72754C3.96402 9.09065 2.36232 12.3341 2.05432 15.8192L6.54412 6.72754Z" clip-rule="evenodd"/></svg>