<svg xmlns="http://www.w3.org/2000/svg" width="32" height="32" fill="none" viewBox="0 0 32 32"><path fill="#000" fill-rule="evenodd" d="M13.5 6C9.91015 6 7 8.91015 7 12.5C7 16.0899 9.91015 19 13.5 19C17.0899 19 20 16.0899 20 12.5C20 8.91015 17.0899 6 13.5 6ZM5 12.5C5 7.80558 8.80558 4 13.5 4C18.1944 4 22 7.80558 22 12.5C22 17.1944 18.1944 21 13.5 21C8.80558 21 5 17.1944 5 12.5Z" clip-rule="evenodd"/><path fill="#000" fill-rule="evenodd" d="M13.5 20.9985C11.6016 20.9985 9.72628 21.4143 8.00576 22.2166C6.28524 23.019 4.76133 24.1884 3.54112 25.6427C3.18614 26.0658 2.55538 26.121 2.13229 25.766C1.7092 25.411 1.65399 24.7803 2.00898 24.3572C3.41691 22.6792 5.17527 21.3298 7.16049 20.4041C9.1457 19.4783 11.3096 18.9985 13.5 18.9985C15.6905 18.9985 17.8544 19.4783 19.8396 20.4041C21.8248 21.3298 23.5832 22.6792 24.9911 24.3572C25.3461 24.7803 25.2909 25.411 24.8678 25.766C24.4447 26.121 23.814 26.0658 23.459 25.6427C22.2388 24.1884 20.7149 23.019 18.9943 22.2166C17.2738 21.4143 15.3984 20.9985 13.5 20.9985Z" clip-rule="evenodd"/><path fill="#000" fill-rule="evenodd" d="M27.5 16C26.9477 16 26.5 16.4477 26.5 17C26.5 17.5523 26.9477 18 27.5 18C28.0523 18 28.5 17.5523 28.5 17C28.5 16.4477 28.0523 16 27.5 16ZM24.5 17C24.5 15.3431 25.8431 14 27.5 14C29.1569 14 30.5 15.3431 30.5 17C30.5 18.6569 29.1569 20 27.5 20C25.8431 20 24.5 18.6569 24.5 17Z" clip-rule="evenodd"/><path fill="#000" fill-rule="evenodd" d="M27.5 12.5C28.0523 12.5 28.5 12.9477 28.5 13.5V15C28.5 15.5523 28.0523 16 27.5 16C26.9477 16 26.5 15.5523 26.5 15V13.5C26.5 12.9477 26.9477 12.5 27.5 12.5Z" clip-rule="evenodd"/><path fill="#000" fill-rule="evenodd" d="M23.6109 14.7467C23.8889 14.2695 24.5011 14.108 24.9784 14.386L26.2659 15.136C26.7431 15.414 26.9046 16.0262 26.6266 16.5034C26.3486 16.9806 25.7364 17.1421 25.2592 16.8641L23.9717 16.1141C23.4944 15.8361 23.3329 15.2239 23.6109 14.7467Z" clip-rule="evenodd"/><path fill="#000" fill-rule="evenodd" d="M26.6266 17.4967C26.9046 17.9739 26.7431 18.5861 26.2659 18.8641L24.9784 19.6141C24.5011 19.8921 23.8889 19.7306 23.6109 19.2534C23.3329 18.7762 23.4944 18.164 23.9717 17.886L25.2592 17.136C25.7364 16.858 26.3486 17.0195 26.6266 17.4967Z" clip-rule="evenodd"/><path fill="#000" fill-rule="evenodd" d="M27.5 18C28.0523 18 28.5 18.4477 28.5 19V20.5C28.5 21.0523 28.0523 21.5 27.5 21.5C26.9477 21.5 26.5 21.0523 26.5 20.5V19C26.5 18.4477 26.9477 18 27.5 18Z" clip-rule="evenodd"/><path fill="#000" fill-rule="evenodd" d="M28.3734 17.4967C28.6514 17.0195 29.2636 16.858 29.7408 17.136L31.0283 17.886C31.5055 18.164 31.667 18.7762 31.3891 19.2534C31.1111 19.7306 30.4988 19.8921 30.0216 19.6141L28.7341 18.8641C28.2569 18.5861 28.0954 17.9739 28.3734 17.4967Z" clip-rule="evenodd"/><path fill="#000" fill-rule="evenodd" d="M31.3891 14.7467C31.667 15.2239 31.5055 15.8361 31.0283 16.1141L29.7408 16.8641C29.2636 17.1421 28.6514 16.9806 28.3734 16.5034C28.0954 16.0262 28.2569 15.414 28.7341 15.136L30.0216 14.386C30.4988 14.108 31.1111 14.2695 31.3891 14.7467Z" clip-rule="evenodd"/></svg>