<svg xmlns="http://www.w3.org/2000/svg" width="32" height="32" fill="none" viewBox="0 0 32 32"><path fill="#000" fill-rule="evenodd" d="M16 11C13.7909 11 12 12.7909 12 15C12 17.2091 13.7909 19 16 19C18.2091 19 20 17.2091 20 15C20 12.7909 18.2091 11 16 11ZM10 15C10 11.6863 12.6863 9 16 9C19.3137 9 22 11.6863 22 15C22 18.3137 19.3137 21 16 21C12.6863 21 10 18.3137 10 15Z" clip-rule="evenodd"/><path fill="#000" fill-rule="evenodd" d="M3 7C3 5.89543 3.89543 5 5 5H27C28.1046 5 29 5.89543 29 7V25C29 26.1046 28.1046 27 27 27H5C3.89543 27 3 26.1046 3 25V7ZM27 7H5V25H27V7Z" clip-rule="evenodd"/><path fill="#000" fill-rule="evenodd" d="M16 20.9938C14.3446 20.9938 12.73 21.5073 11.3788 22.4635C10.0275 23.4197 9.00617 24.7716 8.45554 26.3327C8.27183 26.8535 7.70068 27.1268 7.17984 26.9431C6.65901 26.7594 6.38571 26.1883 6.56942 25.6674C7.25772 23.716 8.5344 22.0262 10.2235 20.8309C11.9125 19.6357 13.9308 18.9938 16 18.9938C18.0692 18.9938 20.0874 19.6357 21.7765 20.8309C23.4656 22.0262 24.7422 23.716 25.4305 25.6674C25.6142 26.1883 25.3409 26.7594 24.8201 26.9431C24.2993 27.1268 23.7281 26.8535 23.5444 26.3327C22.9938 24.7716 21.9724 23.4197 20.6212 22.4635C19.27 21.5073 17.6553 20.9938 16 20.9938Z" clip-rule="evenodd"/></svg>