<svg xmlns="http://www.w3.org/2000/svg" width="32" height="32" fill="none" viewBox="0 0 32 32"><path fill="#000" fill-rule="evenodd" d="M16 11C13.7909 11 12 12.7909 12 15C12 17.2091 13.7909 19 16 19C18.2091 19 20 17.2091 20 15C20 12.7909 18.2091 11 16 11ZM10 15C10 11.6863 12.6863 9 16 9C19.3137 9 22 11.6863 22 15C22 18.3137 19.3137 21 16 21C12.6863 21 10 18.3137 10 15Z" clip-rule="evenodd"/><path fill="#000" fill-rule="evenodd" d="M16 20.9993C14.5226 20.9993 13.0741 21.4084 11.8151 22.1812C10.556 22.954 9.53546 24.0604 8.86667 25.3777C8.61666 25.8702 8.01477 26.0667 7.52231 25.8167C7.02986 25.5667 6.83332 24.9648 7.08334 24.4723C7.91933 22.8257 9.19495 21.4427 10.7688 20.4767C12.3427 19.5106 14.1533 18.9993 16 18.9993C17.8467 18.9993 19.6573 19.5106 21.2312 20.4767C22.8051 21.4427 24.0807 22.8257 24.9167 24.4723C25.1667 24.9648 24.9702 25.5667 24.4777 25.8167C23.9852 26.0667 23.3834 25.8702 23.1333 25.3777C22.4646 24.0604 21.4441 22.954 20.185 22.1812C18.9259 21.4084 17.4774 20.9993 16 20.9993Z" clip-rule="evenodd"/><path fill="#000" fill-rule="evenodd" d="M24.2929 15.2929C24.6834 14.9024 25.3166 14.9024 25.7071 15.2929L28 17.5858L30.2929 15.2929C30.6834 14.9024 31.3166 14.9024 31.7071 15.2929C32.0976 15.6834 32.0976 16.3166 31.7071 16.7071L28.7071 19.7071C28.3166 20.0976 27.6834 20.0976 27.2929 19.7071L24.2929 16.7071C23.9024 16.3166 23.9024 15.6834 24.2929 15.2929Z" clip-rule="evenodd"/><path fill="#000" fill-rule="evenodd" d="M3.29289 12.2929C3.68342 11.9024 4.31658 11.9024 4.70711 12.2929L7.70711 15.2929C8.09763 15.6834 8.09763 16.3166 7.70711 16.7071C7.31658 17.0976 6.68342 17.0976 6.29289 16.7071L4 14.4142L1.70711 16.7071C1.31658 17.0976 0.683417 17.0976 0.292893 16.7071C-0.0976311 16.3166 -0.0976311 15.6834 0.292893 15.2929L3.29289 12.2929Z" clip-rule="evenodd"/><path fill="#000" fill-rule="evenodd" d="M11.4709 3.80141C14.1036 2.82287 16.9825 2.72332 19.6765 3.51766C22.3706 4.31201 24.7349 5.95751 26.4156 8.20787C28.0964 10.4582 29.003 13.1924 29 16.0011L28 16H29V16.0011V19C29 19.5523 28.5523 20 28 20C27.4477 20 27 19.5523 27 19V15.9989C27.0026 13.6223 26.2354 11.3088 24.8132 9.40465C23.3911 7.5005 21.3905 6.10815 19.1109 5.43601C16.8313 4.76388 14.3954 4.84811 12.1677 5.6761C9.93995 6.5041 8.04031 8.03132 6.7531 10.0292C6.45397 10.4934 5.83512 10.6273 5.37086 10.3282C4.90659 10.029 4.77272 9.41019 5.07185 8.94592C6.5931 6.58484 8.83812 4.77995 11.4709 3.80141Z" clip-rule="evenodd"/><path fill="#000" fill-rule="evenodd" d="M4.00001 12C4.55229 12 5.00001 12.4477 5.00001 13L5.00001 16.0011C4.99741 18.3777 5.7646 20.6912 7.18674 22.5954C8.60888 24.4995 10.6095 25.8919 12.8891 26.564C15.1686 27.2362 17.6046 27.1519 19.8323 26.3239C22.06 25.4959 23.9597 23.9687 25.2469 21.9709C25.546 21.5066 26.1649 21.3727 26.6291 21.6719C27.0934 21.971 27.2273 22.5899 26.9281 23.0541C25.4069 25.4152 23.1619 27.2201 20.5291 28.1986C17.8964 29.1772 15.0175 29.2767 12.3234 28.4824C9.62938 27.688 7.26504 26.0425 5.58433 23.7922C3.90373 21.542 2.99706 18.808 3.00001 15.9995C3.00001 15.9997 3.00001 15.9993 3.00001 15.9995V13C3.00001 12.4477 3.44772 12 4.00001 12Z" clip-rule="evenodd"/></svg>