<svg width="32" height="32" viewBox="0 0 32 32" fill="none" xmlns="http://www.w3.org/2000/svg">
<path fill-rule="evenodd" clip-rule="evenodd" d="M16 5C12.134 5 9 8.13401 9 12C9 15.866 12.134 19 16 19C19.866 19 23 15.866 23 12C23 8.13401 19.866 5 16 5ZM7 12C7 7.02944 11.0294 3 16 3C20.9706 3 25 7.02944 25 12C25 16.9706 20.9706 21 16 21C11.0294 21 7 16.9706 7 12Z" fill="black"/>
<path fill-rule="evenodd" clip-rule="evenodd" d="M16 20.9989C13.7179 20.9989 11.4759 21.5997 9.49953 22.7409C7.52315 23.8821 5.88202 25.5234 4.74112 27.4999C4.46502 27.9783 3.85344 28.1422 3.37512 27.8661C2.89681 27.59 2.73288 26.9784 3.00897 26.5001C4.32541 24.2195 6.21902 22.3256 8.49945 21.0089C10.7799 19.6921 13.3668 18.9989 16 18.9989C18.6333 18.9989 21.2202 19.6921 23.5006 21.0089C25.7811 22.3256 27.6747 24.2195 28.9911 26.5001C29.2672 26.9784 29.1033 27.59 28.625 27.8661C28.1466 28.1422 27.5351 27.9783 27.259 27.4999C26.1181 25.5234 24.4769 23.8821 22.5006 22.7409C20.5242 21.5997 18.2822 20.9989 16 20.9989Z" fill="black"/>
</svg>
