<svg width="32" height="32" viewBox="0 0 32 32" fill="none" xmlns="http://www.w3.org/2000/svg">
<path fill-rule="evenodd" clip-rule="evenodd" d="M24 17C24 16.4477 24.4477 16 25 16H31C31.5523 16 32 16.4477 32 17C32 17.5523 31.5523 18 31 18H25C24.4477 18 24 17.5523 24 17Z" fill="black"/>
<path fill-rule="evenodd" clip-rule="evenodd" d="M13.5 6C9.91015 6 7 8.91015 7 12.5C7 16.0899 9.91015 19 13.5 19C17.0899 19 20 16.0899 20 12.5C20 8.91015 17.0899 6 13.5 6ZM5 12.5C5 7.80558 8.80558 4 13.5 4C18.1944 4 22 7.80558 22 12.5C22 17.1944 18.1944 21 13.5 21C8.80558 21 5 17.1944 5 12.5Z" fill="black"/>
<path fill-rule="evenodd" clip-rule="evenodd" d="M13.5 20.9985C11.6016 20.9985 9.72628 21.4143 8.00576 22.2166C6.28524 23.019 4.76133 24.1884 3.54112 25.6427C3.18614 26.0658 2.55538 26.121 2.13229 25.766C1.7092 25.411 1.65399 24.7803 2.00898 24.3572C3.41691 22.6792 5.17527 21.3298 7.16049 20.4041C9.1457 19.4783 11.3096 18.9985 13.5 18.9985C15.6905 18.9985 17.8544 19.4783 19.8396 20.4041C21.8248 21.3298 23.5832 22.6792 24.9911 24.3572C25.3461 24.7803 25.2909 25.411 24.8678 25.766C24.4447 26.121 23.814 26.0658 23.459 25.6427C22.2388 24.1884 20.7149 23.019 18.9943 22.2166C17.2738 21.4143 15.3984 20.9985 13.5 20.9985Z" fill="black"/>
</svg>
