<svg width="32" height="32" viewBox="0 0 32 32" fill="none" xmlns="http://www.w3.org/2000/svg">
<path fill-rule="evenodd" clip-rule="evenodd" d="M16 11C13.7909 11 12 12.7909 12 15C12 17.2091 13.7909 19 16 19C18.2091 19 20 17.2091 20 15C20 12.7909 18.2091 11 16 11ZM10 15C10 11.6863 12.6863 9 16 9C19.3137 9 22 11.6863 22 15C22 18.3137 19.3137 21 16 21C12.6863 21 10 18.3137 10 15Z" fill="black"/>
<path fill-rule="evenodd" clip-rule="evenodd" d="M16 20.9993C14.5226 20.9993 13.0741 21.4084 11.8151 22.1812C10.556 22.954 9.53546 24.0604 8.86667 25.3777C8.61666 25.8702 8.01477 26.0667 7.52231 25.8167C7.02986 25.5667 6.83332 24.9648 7.08334 24.4723C7.91933 22.8257 9.19495 21.4427 10.7688 20.4767C12.3427 19.5106 14.1533 18.9993 16 18.9993C17.8467 18.9993 19.6573 19.5106 21.2312 20.4767C22.8051 21.4427 24.0807 22.8257 24.9167 24.4723C25.1667 24.9648 24.9702 25.5667 24.4777 25.8167C23.9852 26.0667 23.3834 25.8702 23.1333 25.3777C22.4646 24.0604 21.4441 22.954 20.185 22.1812C18.9259 21.4084 17.4774 20.9993 16 20.9993Z" fill="black"/>
<path fill-rule="evenodd" clip-rule="evenodd" d="M25 6C24.4477 6 24 6.44772 24 7C24 7.55228 24.4477 8 25 8C25.5523 8 26 7.55228 26 7C26 6.44772 25.5523 6 25 6ZM22 7C22 5.34315 23.3431 4 25 4C26.6569 4 28 5.34315 28 7C28 8.65685 26.6569 10 25 10C23.3431 10 22 8.65685 22 7Z" fill="black"/>
<path fill-rule="evenodd" clip-rule="evenodd" d="M25 2.5C25.5523 2.5 26 2.94772 26 3.5V5C26 5.55228 25.5523 6 25 6C24.4477 6 24 5.55228 24 5V3.5C24 2.94772 24.4477 2.5 25 2.5Z" fill="black"/>
<path fill-rule="evenodd" clip-rule="evenodd" d="M21.1109 4.74669C21.3889 4.26947 22.0011 4.10797 22.4784 4.38596L23.7659 5.13596C24.2431 5.41395 24.4046 6.02617 24.1266 6.50339C23.8486 6.98061 23.2364 7.14212 22.7592 6.86412L21.4717 6.11412C20.9944 5.83613 20.8329 5.22391 21.1109 4.74669Z" fill="black"/>
<path fill-rule="evenodd" clip-rule="evenodd" d="M24.1266 7.49669C24.4046 7.97391 24.2431 8.58613 23.7659 8.86412L22.4784 9.61412C22.0011 9.89212 21.3889 9.73061 21.1109 9.25339C20.8329 8.77617 20.9944 8.16395 21.4717 7.88596L22.7592 7.13596C23.2364 6.85797 23.8486 7.01947 24.1266 7.49669Z" fill="black"/>
<path fill-rule="evenodd" clip-rule="evenodd" d="M25 8C25.5523 8 26 8.44772 26 9V10.5C26 11.0523 25.5523 11.5 25 11.5C24.4477 11.5 24 11.0523 24 10.5V9C24 8.44772 24.4477 8 25 8Z" fill="black"/>
<path fill-rule="evenodd" clip-rule="evenodd" d="M25.8734 7.49669C26.1514 7.01947 26.7636 6.85797 27.2408 7.13596L28.5283 7.88596C29.0055 8.16395 29.167 8.77617 28.8891 9.25339C28.6111 9.73061 27.9988 9.89212 27.5216 9.61412L26.2341 8.86412C25.7569 8.58613 25.5954 7.97391 25.8734 7.49669Z" fill="black"/>
<path fill-rule="evenodd" clip-rule="evenodd" d="M28.8891 4.74669C29.167 5.22391 29.0055 5.83613 28.5283 6.11412L27.2408 6.86412C26.7636 7.14212 26.1514 6.98061 25.8734 6.50339C25.5954 6.02617 25.7569 5.41395 26.2341 5.13596L27.5216 4.38596C27.9988 4.10797 28.6111 4.26947 28.8891 4.74669Z" fill="black"/>
<path fill-rule="evenodd" clip-rule="evenodd" d="M17.0165 5.04538C16.6808 5.01301 16.3436 4.99785 16.0063 4.99998L16 5.00002V5C13.8244 5 11.6977 5.64514 9.88873 6.85383C8.07979 8.06253 6.66989 9.78049 5.83733 11.7905C5.00477 13.8005 4.78693 16.0122 5.21137 18.146C5.63581 20.2798 6.68345 22.2398 8.22183 23.7782C9.76021 25.3166 11.7202 26.3642 13.854 26.7886C15.9878 27.2131 18.1995 26.9952 20.2095 26.1627C22.2195 25.3301 23.9375 23.9202 25.1462 22.1113C26.3549 20.3023 27 18.1756 27 16L27 15.9951C27.0022 15.5583 26.9756 15.1219 26.9205 14.6887C26.8508 14.1408 27.2384 13.6402 27.7863 13.5705C28.3342 13.5008 28.8348 13.8884 28.9045 14.4363C28.9706 14.9558 29.0025 15.479 29 16.0026C28.9995 18.5729 28.2371 21.0853 26.8091 23.2224C25.3807 25.3603 23.3503 27.0265 20.9749 28.0104C18.5995 28.9944 15.9856 29.2518 13.4638 28.7502C10.9421 28.2486 8.6257 27.0105 6.80762 25.1924C4.98953 23.3743 3.75141 21.0579 3.2498 18.5362C2.74819 16.0144 3.00563 13.4006 3.98957 11.0251C4.97351 8.64968 6.63975 6.61935 8.77759 5.19089C10.9146 3.76302 13.4268 3.00062 15.9969 3" fill="black"/>
</svg>
