<svg xmlns="http://www.w3.org/2000/svg" width="32" height="32" fill="none" viewBox="0 0 32 32"><path fill="#000" fill-rule="evenodd" d="M16 5C9.92487 5 5 9.92487 5 16C5 22.0751 9.92487 27 16 27C22.0751 27 27 22.0751 27 16C27 9.92487 22.0751 5 16 5ZM3 16C3 8.8203 8.8203 3 16 3C23.1797 3 29 8.8203 29 16C29 23.1797 23.1797 29 16 29C8.8203 29 3 23.1797 3 16Z" clip-rule="evenodd"/><path fill="#000" fill-rule="evenodd" d="M9.49983 4.74655C9.97806 4.47031 10.5897 4.63406 10.8659 5.1123L16.8659 15.4998C17.1422 15.978 16.9784 16.5897 16.5002 16.8659C16.0219 17.1421 15.4103 16.9784 15.1341 16.5001L9.13407 6.11264C8.85784 5.63441 9.02159 5.02278 9.49983 4.74655Z" clip-rule="evenodd"/><path fill="#000" fill-rule="evenodd" d="M16.5002 15.1341C16.9784 15.4103 17.1422 16.0219 16.8659 16.5002L10.8659 26.8877C10.5897 27.3659 9.97806 27.5296 9.49983 27.2534C9.02159 26.9772 8.85784 26.3655 9.13407 25.8873L15.1341 15.4998C15.4103 15.0216 16.0219 14.8578 16.5002 15.1341Z" clip-rule="evenodd"/><path fill="#000" fill-rule="evenodd" d="M15 16C15 15.4477 15.4477 15 16 15H28C28.5523 15 29 15.4477 29 16C29 16.5523 28.5523 17 28 17H16C15.4477 17 15 16.5523 15 16Z" clip-rule="evenodd"/><path fill="#000" fill-rule="evenodd" d="M13.6624 3.67859C13.8883 3.1746 14.4799 2.94912 14.9839 3.17497C17.435 4.27333 19.4861 6.10325 20.8559 8.41363C22.2256 10.724 22.8469 13.4017 22.6344 16.0791C22.5907 16.6297 22.1089 17.0406 21.5584 16.9969C21.0078 16.9532 20.5969 16.4715 20.6406 15.9209C20.8205 13.655 20.2947 11.3889 19.1355 9.43358C17.9763 7.4783 16.2404 5.92964 14.1661 5.00009C13.6621 4.77424 13.4366 4.18259 13.6624 3.67859Z" clip-rule="evenodd"/><path fill="#000" fill-rule="evenodd" d="M14.0912 10.6969C14.3277 11.1961 14.1147 11.7923 13.6156 12.0287C11.5595 13.0026 9.85596 14.59 8.73961 16.5724C7.62327 18.5547 7.14903 20.8344 7.38223 23.0975C7.43884 23.6469 7.03938 24.1381 6.49 24.1947C5.94063 24.2513 5.44938 23.8519 5.39277 23.3025C5.11717 20.628 5.67763 17.9338 6.99694 15.591C8.31626 13.2482 10.3295 11.3722 12.7594 10.2212C13.2586 9.98483 13.8548 10.1978 14.0912 10.6969Z" clip-rule="evenodd"/><path fill="#000" fill-rule="evenodd" d="M27.8479 20.1391C28.1715 20.5866 28.071 21.2118 27.6234 21.5354C25.4459 23.1098 22.8341 23.9708 20.1472 23.9999C17.4603 24.029 14.8303 23.2247 12.6193 21.6979C12.1648 21.384 12.0508 20.7612 12.3646 20.3067C12.6785 19.8523 13.3013 19.7383 13.7557 20.0521C15.6267 21.3441 17.852 22.0246 20.1255 22C22.399 21.9754 24.6091 21.2468 26.4516 19.9146C26.8991 19.591 27.5243 19.6915 27.8479 20.1391Z" clip-rule="evenodd"/></svg>