<svg width="32" height="32" viewBox="0 0 32 32" fill="none" xmlns="http://www.w3.org/2000/svg">
<path fill-rule="evenodd" clip-rule="evenodd" d="M16 12C16.5523 12 17 12.4477 17 13V18C17 18.5523 16.5523 19 16 19C15.4477 19 15 18.5523 15 18V13C15 12.4477 15.4477 12 16 12Z" fill="black"/>
<path fill-rule="evenodd" clip-rule="evenodd" d="M14.5014 3.4028C14.9567 3.13875 15.4737 2.99969 16 2.99969C16.5264 2.99969 17.0434 3.13875 17.4987 3.4028C17.9533 3.66639 18.3302 4.0452 18.5916 4.501C18.5921 4.50177 18.5925 4.50254 18.593 4.50332L29.5911 23.5C29.8539 23.9553 29.9925 24.4717 29.993 24.9974C29.9935 25.5231 29.8558 26.0397 29.5937 26.4954C29.3317 26.9512 28.9544 27.3301 28.4999 27.5941C28.0453 27.8582 27.5293 27.9982 27.0036 28L27 28H5.00004L4.99651 28C4.4708 27.9982 3.95481 27.8582 3.50022 27.5941C3.04563 27.3301 2.66842 26.9512 2.40636 26.4954C2.14431 26.0397 2.00662 25.5231 2.00708 24.9974C2.00755 24.4717 2.14615 23.9553 2.40901 23.5L13.4071 4.50332C13.4076 4.50254 13.408 4.50177 13.4084 4.501C13.6698 4.0452 14.0468 3.66639 14.5014 3.4028ZM14.275 5.00001L15.1405 5.50105L4.14106 24.5C4.14098 24.5001 4.14113 24.4999 4.14106 24.5C4.05358 24.6517 4.00724 24.824 4.00708 24.9991C4.00693 25.1744 4.05282 25.3466 4.14017 25.4985C4.22753 25.6504 4.35326 25.7767 4.50479 25.8647C4.65593 25.9525 4.82743 25.9992 5.0022 26H26.9979C27.1726 25.9992 27.3441 25.9525 27.4953 25.8647C27.6468 25.7767 27.7725 25.6504 27.8599 25.4985C27.9473 25.3466 27.9931 25.1744 27.993 24.9991C27.9928 24.8241 27.9468 24.6522 27.8594 24.5006C27.8592 24.5004 27.8595 24.5008 27.8594 24.5006L16.8571 5.49671C16.7707 5.34571 16.6459 5.22021 16.4954 5.13294C16.3449 5.04566 16.174 4.99969 16 4.99969C15.8261 4.99969 15.6552 5.04566 15.5047 5.13294C15.3542 5.22022 15.2294 5.34571 15.143 5.49671L14.275 5.00001Z" fill="black"/>
<path d="M16 24C16.8284 24 17.5 23.3284 17.5 22.5C17.5 21.6716 16.8284 21 16 21C15.1716 21 14.5 21.6716 14.5 22.5C14.5 23.3284 15.1716 24 16 24Z" fill="black"/>
</svg>
