<svg width="32" height="32" viewBox="0 0 32 32" fill="none" xmlns="http://www.w3.org/2000/svg">
<path fill-rule="evenodd" clip-rule="evenodd" d="M16 8C11.5817 8 8 11.5817 8 16C8 20.4183 11.5817 24 16 24C20.4183 24 24 20.4183 24 16C24 11.5817 20.4183 8 16 8ZM6 16C6 10.4772 10.4772 6 16 6C21.5228 6 26 10.4772 26 16C26 21.5228 21.5228 26 16 26C10.4772 26 6 21.5228 6 16Z" fill="black"/>
<path fill-rule="evenodd" clip-rule="evenodd" d="M16 10C16.5523 10 17 10.4477 17 11V15H21C21.5523 15 22 15.4477 22 16C22 16.5523 21.5523 17 21 17H16C15.4477 17 15 16.5523 15 16V11C15 10.4477 15.4477 10 16 10Z" fill="black"/>
<path fill-rule="evenodd" clip-rule="evenodd" d="M12.8388 2C12.3686 1.99903 11.9132 2.16371 11.5523 2.46515C11.1916 2.76653 10.9486 3.18532 10.8658 3.648C10.8657 3.64867 10.8656 3.64934 10.8655 3.65001L10.0161 8.33408C9.91756 8.8775 10.2782 9.39792 10.8216 9.49646C11.365 9.595 11.8855 9.23435 11.984 8.69093L12.834 4.00343L12.8346 4H19.1626L19.1655 4L19.1661 4.00343L20.0161 8.69093C20.1146 9.23435 20.6351 9.595 21.1785 9.49646C21.7219 9.39792 22.0825 8.8775 21.984 8.33408L21.1346 3.65001C21.1345 3.64942 21.1344 3.64883 21.1343 3.64824C21.0516 3.18546 20.8086 2.76658 20.4478 2.46515C20.0869 2.16371 19.6315 1.99903 19.1613 2H19.1626V3L19.1596 2.00001C19.1602 2.00001 19.1608 2.00001 19.1613 2" fill="black"/>
<path fill-rule="evenodd" clip-rule="evenodd" d="M10.8216 22.5035C11.365 22.405 11.8855 22.7656 11.984 23.3091L12.8346 28L12.8376 28L19.1626 28L19.1655 28L19.1661 27.9966L20.0161 23.3091C20.1146 22.7656 20.6351 22.405 21.1785 22.5035C21.7219 22.6021 22.0825 23.1225 21.984 23.6659L21.1346 28.35C21.1345 28.3506 21.1344 28.3512 21.1343 28.3517C21.0516 28.8145 20.8086 29.2334 20.4478 29.5348C20.0869 29.8363 19.6315 30.001 19.1613 30C19.1608 30 19.1602 30 19.1596 30L19.1626 29V30H19.1613H12.8388C12.8393 30 12.8399 30 12.8405 30L12.8376 29V30H12.8388M10.8655 28.35C10.8656 28.3506 10.8657 28.3513 10.8658 28.352L10.8655 28.35ZM10.8655 28.35L10.0161 23.6659C9.91756 23.1225 10.2782 22.6021 10.8216 22.5035" fill="black"/>
</svg>
