<svg xmlns="http://www.w3.org/2000/svg" width="32" height="32" fill="none" viewBox="0 0 32 32"><path fill="#000" fill-rule="evenodd" d="M16.4878 7.12705C16.8041 7.30377 17 7.63772 17 8V22.2104L28.4759 15.1483C28.9463 14.8589 29.5622 15.0055 29.8517 15.4759C30.1411 15.9463 29.9945 16.5622 29.5241 16.8517L16.5241 24.8517C16.2156 25.0415 15.8285 25.0497 15.5122 24.873C15.196 24.6962 15 24.3623 15 24V9.78956L3.52412 16.8517C3.05376 17.1411 2.43781 16.9945 2.14836 16.5241C1.85891 16.0537 2.00556 15.4378 2.47592 15.1483L15.4759 7.14834C15.7845 6.95847 16.1716 6.95032 16.4878 7.12705Z" clip-rule="evenodd"/></svg>