<svg xmlns="http://www.w3.org/2000/svg" width="32" height="32" fill="none" viewBox="0 0 32 32"><path fill="#000" fill-rule="evenodd" d="M9.49995 6C9.82106 6 10.1226 6.1542 10.3106 6.41451L22.5 23.292L28.1893 15.4145C28.5126 14.9668 29.1377 14.866 29.5854 15.1893C30.0332 15.5127 30.134 16.1378 29.8106 16.5855L23.3106 25.5855C23.1226 25.8458 22.8211 26 22.5 26C22.1788 26 21.8773 25.8458 21.6893 25.5855L9.49995 8.70797L3.81063 16.5855C3.48727 17.0332 2.86219 17.134 2.41446 16.8107C1.96673 16.4873 1.86591 15.8622 2.18927 15.4145L8.68927 6.41451C8.87728 6.1542 9.17885 6 9.49995 6Z" clip-rule="evenodd"/></svg>