<svg xmlns="http://www.w3.org/2000/svg" width="32" height="32" fill="none" viewBox="0 0 32 32"><path fill="#000" fill-rule="evenodd" d="M8.00427 9.83519C6.87601 10.9044 5.51834 12.9505 3.907 16.4211C3.67443 16.922 3.07981 17.1396 2.57888 16.907C2.07796 16.6744 1.86041 16.0798 2.09299 15.5789C3.73166 12.0494 5.21773 9.72053 6.62853 8.38352C7.34221 7.70718 8.08099 7.24178 8.85554 7.03559C9.65024 6.82404 10.4131 6.90448 11.1144 7.20657C12.4403 7.77775 13.492 9.11885 14.3665 10.5591C15.2587 12.0286 16.0904 13.8199 16.8916 15.5458L16.907 15.5789C17.726 17.3428 18.5144 19.038 19.3431 20.4029C20.1952 21.8063 20.9716 22.6528 21.6769 22.9566C21.9912 23.092 22.2948 23.1209 22.63 23.0317C22.9853 22.9371 23.4399 22.6916 23.9957 22.1648C25.124 21.0955 26.4817 19.0494 28.093 15.5789C28.3256 15.0779 28.9202 14.8604 29.4211 15.093C29.922 15.3255 30.1396 15.9202 29.907 16.4211C28.2683 19.9505 26.7823 22.2794 25.3715 23.6164C24.6578 24.2928 23.919 24.7582 23.1444 24.9644C22.3498 25.1759 21.5869 25.0955 20.8856 24.7934C19.5597 24.2222 18.5079 22.8811 17.6335 21.4408C16.7413 19.9714 15.9096 18.1801 15.1084 16.4542L15.093 16.4211C14.274 14.6571 13.4856 12.962 12.6569 11.5971C11.8048 10.1936 11.0284 9.34721 10.3231 9.0434C10.0088 8.90798 9.70522 8.87905 9.37004 8.96828C9.0147 9.06287 8.56013 9.30841 8.00427 9.83519Z" clip-rule="evenodd"/></svg>