<svg xmlns="http://www.w3.org/2000/svg" width="32" height="32" fill="none" viewBox="0 0 32 32"><path fill="#000" fill-rule="evenodd" d="M5.62397 9.78145C5.62329 9.78199 5.62261 9.78253 5.62193 9.78307L5.62172 9.78323C5.62164 9.7833 5.62184 9.78313 5.62235 9.78274L5.62332 9.78196L5.62397 9.78145ZM27 8.99997L27.6247 9.78084C28.056 9.43583 28.1259 8.80653 27.7809 8.37527C27.4366 7.94495 26.8094 7.8744 26.3782 8.21684C26.3775 8.21739 26.3768 8.21794 26.3761 8.21849L26.3768 8.21797L26.3743 8.21981C26.3694 8.22366 26.3598 8.23099 26.3457 8.24145C26.3176 8.26237 26.2716 8.29574 26.2088 8.33872C26.083 8.42479 25.8906 8.54874 25.6394 8.68831C25.1353 8.96836 24.4047 9.30553 23.5075 9.52982C21.7375 9.97231 19.2856 9.98849 16.5547 8.16792C13.2856 5.98849 10.2375 5.97231 8.0075 6.52982C6.90466 6.80553 6.01031 7.21836 5.38939 7.56331C5.07811 7.73624 4.83299 7.89354 4.66192 8.0106C4.5763 8.06918 4.50898 8.11784 4.46095 8.15356C4.43693 8.17142 4.4177 8.18606 4.4034 8.19711L4.38564 8.21094L4.37956 8.21574L4.37721 8.2176L4.37622 8.2184C4.37577 8.21875 4.37534 8.2191 4.99999 8.99991L4.37534 8.2191C3.94408 8.56411 3.87416 9.1934 4.21917 9.62466C4.56343 10.055 5.19074 10.1255 5.62193 9.78307L5.62573 9.78012C5.63071 9.77627 5.64029 9.76894 5.65436 9.75848C5.6825 9.73756 5.72846 9.70419 5.79128 9.66121C5.91708 9.57514 6.10946 9.45119 6.36068 9.31162C6.86477 9.03158 7.59542 8.6944 8.49257 8.47011C10.2625 8.02762 12.7145 8.01145 15.4453 9.83202C18.7145 12.0114 21.7625 12.0276 23.9926 11.4701C25.0954 11.1944 25.9898 10.7816 26.6107 10.4366C26.922 10.2637 27.1671 10.1064 27.3382 9.98934C27.4238 9.93076 27.4911 9.88209 27.5391 9.84637C27.5631 9.82851 27.5824 9.81387 27.5967 9.80282L27.6144 9.789L27.6205 9.78419L27.6229 9.78233L27.6239 9.78154C27.6243 9.78118 27.6247 9.78084 27 8.99997Z" clip-rule="evenodd"/><path fill="#000" fill-rule="evenodd" d="M5.62397 16.7814C5.62329 16.782 5.62261 16.7825 5.62193 16.7831L5.62172 16.7832C5.62164 16.7833 5.62184 16.7831 5.62235 16.7827L5.62332 16.782L5.62397 16.7814ZM27 16L27.6247 16.7808C28.056 16.4358 28.1259 15.8065 27.7809 15.3753C27.4366 14.945 26.8094 14.8744 26.3782 15.2168C26.3775 15.2174 26.3768 15.2179 26.3761 15.2185L26.3768 15.218L26.3743 15.2198C26.3694 15.2237 26.3598 15.231 26.3457 15.2414C26.3176 15.2624 26.2716 15.2957 26.2088 15.3387C26.083 15.4248 25.8906 15.5487 25.6394 15.6883C25.1353 15.9684 24.4047 16.3055 23.5075 16.5298C21.7375 16.9723 19.2856 16.9885 16.5547 15.1679C13.2856 12.9885 10.2375 12.9723 8.0075 13.5298C6.90466 13.8055 6.01031 14.2184 5.38939 14.5633C5.07811 14.7362 4.83299 14.8935 4.66192 15.0106C4.5763 15.0692 4.50898 15.1178 4.46095 15.1536C4.43693 15.1714 4.4177 15.1861 4.4034 15.1971L4.38564 15.2109L4.37956 15.2157L4.37721 15.2176L4.37622 15.2184C4.37577 15.2188 4.37534 15.2191 4.99999 15.9999L4.37534 15.2191C3.94408 15.5641 3.87416 16.1934 4.21917 16.6247C4.56343 17.055 5.19074 17.1255 5.62193 16.7831L5.62573 16.7801C5.63071 16.7763 5.64029 16.7689 5.65436 16.7585C5.6825 16.7376 5.72846 16.7042 5.79128 16.6612C5.91708 16.5751 6.10946 16.4512 6.36068 16.3116C6.86477 16.0316 7.59542 15.6944 8.49257 15.4701C10.2625 15.0276 12.7145 15.0114 15.4453 16.832C18.7145 19.0114 21.7625 19.0276 23.9926 18.4701C25.0954 18.1944 25.9898 17.7816 26.6107 17.4366C26.922 17.2637 27.1671 17.1064 27.3382 16.9893C27.4238 16.9308 27.4911 16.8821 27.5391 16.8464C27.5631 16.8285 27.5824 16.8139 27.5967 16.8028L27.6144 16.789L27.6205 16.7842L27.6229 16.7823L27.6239 16.7815C27.6243 16.7812 27.6247 16.7808 27 16Z" clip-rule="evenodd"/><path fill="#000" fill-rule="evenodd" d="M5.62397 23.7814C5.62329 23.782 5.62261 23.7825 5.62193 23.7831L5.62172 23.7832C5.62164 23.7833 5.62184 23.7831 5.62235 23.7827L5.62332 23.782L5.62397 23.7814ZM27 23L27.6247 23.7808C28.056 23.4358 28.1259 22.8065 27.7809 22.3753C27.4366 21.945 26.8094 21.8744 26.3782 22.2168C26.3775 22.2174 26.3768 22.2179 26.3761 22.2185L26.3768 22.218L26.3743 22.2198C26.3694 22.2237 26.3598 22.231 26.3457 22.2414C26.3176 22.2624 26.2716 22.2957 26.2088 22.3387C26.083 22.4248 25.8906 22.5487 25.6394 22.6883C25.1353 22.9684 24.4047 23.3055 23.5075 23.5298C21.7375 23.9723 19.2856 23.9885 16.5547 22.1679C13.2856 19.9885 10.2375 19.9723 8.0075 20.5298C6.90466 20.8055 6.01031 21.2184 5.38939 21.5633C5.07811 21.7362 4.83299 21.8935 4.66192 22.0106C4.5763 22.0692 4.50898 22.1178 4.46095 22.1536C4.43693 22.1714 4.4177 22.1861 4.4034 22.1971L4.38564 22.2109L4.37956 22.2157L4.37721 22.2176L4.37622 22.2184C4.37577 22.2188 4.37534 22.2191 4.99999 22.9999L4.37534 22.2191C3.94408 22.5641 3.87416 23.1934 4.21917 23.6247C4.56343 24.055 5.19074 24.1255 5.62193 23.7831L5.62573 23.7801C5.63071 23.7763 5.64029 23.7689 5.65436 23.7585C5.6825 23.7376 5.72846 23.7042 5.79128 23.6612C5.91708 23.5751 6.10946 23.4512 6.36068 23.3116C6.86477 23.0316 7.59542 22.6944 8.49257 22.4701C10.2625 22.0276 12.7145 22.0114 15.4453 23.832C18.7145 26.0114 21.7625 26.0276 23.9926 25.4701C25.0954 25.1944 25.9898 24.7816 26.6107 24.4366C26.922 24.2637 27.1671 24.1064 27.3382 23.9893C27.4238 23.9308 27.4911 23.8821 27.5391 23.8464C27.5631 23.8285 27.5824 23.8139 27.5967 23.8028L27.6144 23.789L27.6205 23.7842L27.6229 23.7823L27.6239 23.7815C27.6243 23.7812 27.6247 23.7808 27 23Z" clip-rule="evenodd"/></svg>