<svg xmlns="http://www.w3.org/2000/svg" width="32" height="32" fill="none" viewBox="0 0 32 32"><path fill="#000" fill-rule="evenodd" d="M16.6744 5.04683C14.0032 4.87942 11.3627 5.6928 9.24862 7.33427C7.13458 8.97574 5.69238 11.3324 5.19278 13.9619C4.69318 16.5913 5.17053 19.3127 6.53522 21.6151C6.67497 21.8509 6.71182 22.1337 6.63715 22.3974L5.46594 26.534L9.60255 25.3628L9.87497 26.325L10.3849 25.4648C12.6873 26.8294 15.4087 27.3068 18.0381 26.8072C20.6676 26.3076 23.0242 24.8654 24.6657 22.7514C26.3072 20.6373 27.1206 17.9968 26.9532 15.3256C26.7857 12.6543 25.6491 10.136 23.7565 8.24348C21.8639 6.35092 19.3456 5.21423 16.6744 5.04683ZM9.74409 27.4014C12.3826 28.8479 15.4465 29.3354 18.4115 28.772C21.5195 28.1815 24.3052 26.4768 26.2454 23.9779C28.1857 21.4791 29.1471 18.358 28.9492 15.2005C28.7514 12.043 27.4078 9.06632 25.1707 6.82927C22.9337 4.59221 19.957 3.24862 16.7995 3.05074C13.642 2.85286 10.5209 3.8143 8.02203 5.75456C5.52319 7.69482 3.81847 10.4805 3.22793 13.5885C2.66458 16.5535 3.15213 19.6174 4.59861 22.2559L3.53877 25.9992C3.44004 26.3399 3.43433 26.701 3.52227 27.0448C3.61062 27.3902 3.79028 27.7055 4.04239 27.9576C4.29451 28.2097 4.60981 28.3894 4.95523 28.4777C5.29902 28.5657 5.66007 28.5599 6.00087 28.4612L9.74409 27.4014Z" clip-rule="evenodd"/><path fill="#000" fill-rule="evenodd" d="M12.5 10.4998C12.5026 10.4999 12.5053 10.5 12.508 10.5L12.5 9.5L12.5 10.4998ZM12.4205 10.5013C11.7878 10.5214 11.1851 10.7809 10.7353 11.2291C10.2669 11.6959 10.0025 12.3293 9.99997 12.9906C9.99707 14.1744 10.2281 15.3472 10.6798 16.4415C11.1315 17.536 11.7951 18.5304 12.6323 19.3677C13.4696 20.2049 14.464 20.8685 15.5585 21.3202C16.6523 21.7717 17.8244 22.0027 19.0077 22C19.6685 21.9947 20.3007 21.7292 20.7673 21.261C21.2148 20.8118 21.4753 20.2109 21.4983 19.5792L19.0223 18.1592C19.0206 18.1584 19.0188 18.158 19.0169 18.158C19.0148 18.158 19.0128 18.1586 19.011 18.1596C19.0109 18.1596 19.0111 18.1595 19.011 18.1596L17.0512 19.333C16.7706 19.5009 16.4257 19.5211 16.1275 19.3871C14.5655 18.6849 13.315 17.4345 12.6129 15.8725C12.4788 15.5743 12.499 15.2293 12.667 14.9488L13.8402 12.9893C13.8401 12.9894 13.8403 12.9892 13.8402 12.9893C13.8412 12.9875 13.8419 12.9852 13.842 12.9831C13.842 12.9812 13.8416 12.9793 13.8408 12.9776L12.4205 10.5013ZM19.0125 23L19.015 24C17.5674 24.0036 16.1335 23.7212 14.7954 23.1689C13.4574 22.6166 12.2417 21.8054 11.2181 20.7819C10.1945 19.7583 9.38332 18.5426 8.83105 17.2045C8.27878 15.8665 7.99635 14.4325 7.99997 12.985L7.99998 12.9839C8.00423 11.7932 8.48021 10.6528 9.32366 9.81233C10.1663 8.97271 11.3071 8.50091 12.4965 8.5M19.0125 23L19.0196 24C20.208 23.9915 21.3451 23.5146 22.184 22.6727C23.0224 21.8313 23.4952 20.6934 23.5 19.5058" clip-rule="evenodd"/></svg>