<svg width="32" height="32" viewBox="0 0 32 32" fill="none" xmlns="http://www.w3.org/2000/svg">
<path fill-rule="evenodd" clip-rule="evenodd" d="M11.9875 3.5C11.1591 3.5 10.4875 4.17157 10.4875 5C10.4875 5.82843 11.1591 6.5 11.9875 6.5C12.816 6.5 13.4875 5.82843 13.4875 5C13.4875 4.17157 12.816 3.5 11.9875 3.5ZM8.48755 5C8.48755 3.067 10.0546 1.5 11.9875 1.5C13.9205 1.5 15.4875 3.067 15.4875 5C15.4875 6.933 13.9205 8.5 11.9875 8.5C10.0546 8.5 8.48755 6.933 8.48755 5Z" fill="black"/>
<path fill-rule="evenodd" clip-rule="evenodd" d="M11.9875 6.5C12.5398 6.5 12.9875 6.94772 12.9875 7.5V15.5H22.9875C23.3663 15.5 23.7126 15.714 23.882 16.0528L27.4941 23.2771L29.6713 22.5513C30.1953 22.3767 30.7616 22.6598 30.9362 23.1838C31.1109 23.7077 30.8277 24.274 30.3038 24.4487L27.3038 25.4487C26.8317 25.6061 26.3157 25.3923 26.0931 24.9472L22.3695 17.5H11.9875C11.4353 17.5 10.9875 17.0523 10.9875 16.5V7.5C10.9875 6.94772 11.4353 6.5 11.9875 6.5Z" fill="black"/>
<path fill-rule="evenodd" clip-rule="evenodd" d="M12.9875 11L19.9875 11C20.5397 11 20.9875 11.4477 20.9875 12C20.9875 12.5523 20.5397 13 19.9875 13H12.9879C12.9877 13 12.988 13 12.9879 13C11.6223 13.0006 10.2863 13.4006 9.14522 14.1508C8.00403 14.9011 7.10723 15.9687 6.5653 17.2223C6.02337 18.4759 5.85998 19.8607 6.09527 21.2059C6.33055 22.5512 6.95423 23.7983 7.88946 24.7936C8.8247 25.7888 10.0306 26.4887 11.3587 26.8071C12.6868 27.1255 14.079 27.0484 15.3639 26.5854C16.6487 26.1224 17.77 25.2936 18.5897 24.2012C19.4093 23.1089 19.8916 21.8005 19.9769 20.4375C20.0114 19.8863 20.4863 19.4674 21.0375 19.502C21.5887 19.5365 22.0075 20.0113 21.973 20.5625C21.8633 22.315 21.2433 23.9971 20.1894 25.4016C19.1355 26.8061 17.6938 27.8716 16.0419 28.467C14.39 29.0623 12.6 29.1614 10.8925 28.752C9.18494 28.3427 7.63444 27.4428 6.43199 26.1632C5.22955 24.8836 4.42768 23.2802 4.12517 21.5505C3.82266 19.8208 4.03273 18.0405 4.7295 16.4287C5.42627 14.8169 6.5793 13.4442 8.04654 12.4796C9.51379 11.515 11.2315 11.0007 12.9875 11Z" fill="black"/>
</svg>
