<svg xmlns="http://www.w3.org/2000/svg" width="32" height="32" fill="none" viewBox="0 0 32 32"><path fill="#000" fill-rule="evenodd" d="M16.0001 19.9982C14.6227 19.9982 13.2987 20.5306 12.3049 21.4841C11.9063 21.8665 11.2733 21.8533 10.8909 21.4548C10.5086 21.0563 10.5217 20.4232 10.9202 20.0409C12.2865 18.7301 14.1066 17.9982 16.0001 17.9982C17.8935 17.9982 19.7136 18.7301 21.0799 20.0409C21.4784 20.4232 21.4915 21.0563 21.1092 21.4548C20.7268 21.8533 20.0938 21.8665 19.6952 21.4841C18.7014 20.5306 17.3774 19.9982 16.0001 19.9982Z" clip-rule="evenodd"/><path fill="#000" d="M16 26.5C16.8284 26.5 17.5 25.8284 17.5 25C17.5 24.1716 16.8284 23.5 16 23.5C15.1716 23.5 14.5 24.1716 14.5 25C14.5 25.8284 15.1716 26.5 16 26.5Z"/></svg>