<svg xmlns="http://www.w3.org/2000/svg" width="32" height="32" fill="none" viewBox="0 0 32 32"><path fill="#000" fill-rule="evenodd" d="M5.32733 4.26007C5.73599 3.88856 6.36844 3.91868 6.73995 4.32733L26.7399 26.3273C27.1115 26.736 27.0813 27.3684 26.6727 27.7399C26.264 28.1115 25.6316 28.0813 25.2601 27.6727L5.26007 5.67268C4.88856 5.26402 4.91868 4.63157 5.32733 4.26007Z" clip-rule="evenodd"/><path fill="#000" fill-rule="evenodd" d="M28.1584 12.9852C24.9258 9.7804 20.5546 7.98775 16.0027 8L15.9987 8C15.1731 7.99895 14.3485 8.05813 13.5315 8.17707C12.985 8.25664 12.4775 7.87809 12.3979 7.33157C12.3183 6.78505 12.6969 6.2775 13.2434 6.19794C14.156 6.06508 15.077 5.99892 15.9992 6C21.0798 5.98685 25.9585 7.9879 29.5665 11.5648C29.9587 11.9537 29.9615 12.5868 29.5726 12.979C29.1838 13.3713 28.5506 13.374 28.1584 12.9852Z" clip-rule="evenodd"/><path fill="#000" fill-rule="evenodd" d="M9.97536 7.98353C10.1847 8.49462 9.94001 9.07861 9.42893 9.28791C7.34207 10.1425 5.44348 11.3989 3.84107 12.9856C3.44862 13.3742 2.81546 13.3711 2.42687 12.9786C2.03827 12.5862 2.04139 11.953 2.43384 11.5644C4.22244 9.79336 6.34164 8.39102 8.67098 7.4371C9.18207 7.2278 9.76606 7.47244 9.97536 7.98353Z" clip-rule="evenodd"/><path fill="#000" fill-rule="evenodd" d="M18.0418 13.1346C18.1745 12.5985 18.7168 12.2716 19.2529 12.4043C21.5446 12.9719 23.6419 14.1444 25.3259 15.7993C25.7198 16.1864 25.7253 16.8195 25.3382 17.2134C24.9511 17.6073 24.3179 17.6129 23.924 17.2257C22.4955 15.8218 20.7162 14.8272 18.772 14.3457C18.2359 14.2129 17.909 13.6707 18.0418 13.1346Z" clip-rule="evenodd"/><path fill="#000" fill-rule="evenodd" d="M14.4792 13.0471C14.5913 13.5879 14.2437 14.1171 13.7029 14.2292C11.5785 14.6694 9.62506 15.71 8.07437 17.2273C7.67962 17.6135 7.04649 17.6066 6.66024 17.2119C6.27399 16.8171 6.28088 16.184 6.67563 15.7977C8.49986 14.0128 10.7979 12.7887 13.2971 12.2708C13.8379 12.1587 14.3671 12.5063 14.4792 13.0471Z" clip-rule="evenodd"/><path fill="#000" fill-rule="evenodd" d="M19.425 21.2329C18.413 20.3955 17.1288 19.9586 15.816 20.0052C14.5032 20.0518 13.2532 20.5786 12.3031 21.4858C11.9037 21.8672 11.2707 21.8525 10.8893 21.4531C10.5079 21.0536 10.5225 20.4206 10.922 20.0392C12.2264 18.7938 13.9426 18.0704 15.745 18.0065C17.5474 17.9425 19.3106 18.5423 20.7001 19.6921C21.1256 20.0442 21.1851 20.6745 20.833 21.1C20.4809 21.5255 19.8505 21.585 19.425 21.2329Z" clip-rule="evenodd"/><path fill="#000" d="M16 26.5C16.8284 26.5 17.5 25.8284 17.5 25C17.5 24.1716 16.8284 23.5 16 23.5C15.1716 23.5 14.5 24.1716 14.5 25C14.5 25.8284 15.1716 26.5 16 26.5Z"/></svg>