<svg width="32" height="32" viewBox="0 0 32 32" fill="none" xmlns="http://www.w3.org/2000/svg">
<path fill-rule="evenodd" clip-rule="evenodd" d="M16.0001 19.9982C14.6227 19.9982 13.2987 20.5306 12.3049 21.4841C11.9063 21.8665 11.2733 21.8533 10.8909 21.4548C10.5086 21.0563 10.5217 20.4232 10.9202 20.0409C12.2865 18.7301 14.1066 17.9982 16.0001 17.9982C17.8935 17.9982 19.7136 18.7301 21.0799 20.0409C21.4784 20.4232 21.4915 21.0563 21.1092 21.4548C20.7268 21.8533 20.0938 21.8665 19.6952 21.4841C18.7014 20.5306 17.3774 19.9982 16.0001 19.9982Z" fill="black"/>
<path fill-rule="evenodd" clip-rule="evenodd" d="M16 14.0017C13.038 14.0017 10.1934 15.1596 8.07338 17.2282C7.6781 17.6139 7.04498 17.6062 6.65927 17.2109C6.27357 16.8156 6.28133 16.1825 6.67662 15.7968C9.17016 13.3637 12.5161 12.0017 16 12.0017C19.4839 12.0017 22.8298 13.3637 25.3234 15.7968C25.7187 16.1825 25.7264 16.8156 25.3407 17.2109C24.955 17.6062 24.3219 17.6139 23.9266 17.2282C21.8066 15.1596 18.962 14.0017 16 14.0017Z" fill="black"/>
<path fill-rule="evenodd" clip-rule="evenodd" d="M16 8.00227C11.449 8.00227 7.08083 9.79293 3.83936 12.9873C3.44599 13.3749 2.81284 13.3703 2.42519 12.9769C2.03753 12.5835 2.04217 11.9504 2.43554 11.5627C6.05121 7.99964 10.9237 6.00227 16 6.00227C21.0762 6.00227 25.9487 7.99964 29.5644 11.5627C29.9577 11.9504 29.9624 12.5835 29.5747 12.9769C29.1871 13.3703 28.5539 13.3749 28.1605 12.9873C24.9191 9.79293 20.5509 8.00227 16 8.00227Z" fill="black"/>
<path d="M16 26.5C16.8284 26.5 17.5 25.8284 17.5 25C17.5 24.1716 16.8284 23.5 16 23.5C15.1716 23.5 14.5 24.1716 14.5 25C14.5 25.8284 15.1716 26.5 16 26.5Z" fill="black"/>
</svg>
