<svg width="32" height="32" viewBox="0 0 32 32" fill="none" xmlns="http://www.w3.org/2000/svg">
<path fill-rule="evenodd" clip-rule="evenodd" d="M16.0001 19.9982C14.6227 19.9982 13.2987 20.5306 12.3049 21.4841C11.9063 21.8665 11.2733 21.8533 10.8909 21.4548C10.5086 21.0563 10.5217 20.4232 10.9202 20.0409C12.2865 18.7301 14.1066 17.9982 16.0001 17.9982C17.8935 17.9982 19.7136 18.7301 21.0799 20.0409C21.4784 20.4232 21.4915 21.0563 21.1092 21.4548C20.7268 21.8533 20.0938 21.8665 19.6952 21.4841C18.7014 20.5306 17.3774 19.9982 16.0001 19.9982Z" fill="black"/>
<path fill-rule="evenodd" clip-rule="evenodd" d="M28.7071 6.29289C29.0976 6.68342 29.0976 7.31658 28.7071 7.70711L22.7071 13.7071C22.3166 14.0976 21.6834 14.0976 21.2929 13.7071C20.9024 13.3166 20.9024 12.6834 21.2929 12.2929L27.2929 6.29289C27.6834 5.90237 28.3166 5.90237 28.7071 6.29289Z" fill="black"/>
<path fill-rule="evenodd" clip-rule="evenodd" d="M21.2929 6.29289C21.6834 5.90237 22.3166 5.90237 22.7071 6.29289L28.7071 12.2929C29.0976 12.6834 29.0976 13.3166 28.7071 13.7071C28.3166 14.0976 27.6834 14.0976 27.2929 13.7071L21.2929 7.70711C20.9024 7.31658 20.9024 6.68342 21.2929 6.29289Z" fill="black"/>
<path fill-rule="evenodd" clip-rule="evenodd" d="M15.9973 8C11.4453 7.98775 7.07412 9.7804 3.84149 12.9852C3.44928 13.374 2.81612 13.3713 2.42729 12.979C2.03846 12.5868 2.0412 11.9537 2.43341 11.5648C6.04156 7.9878 10.9204 5.98674 16.0011 6" fill="black"/>
<path fill-rule="evenodd" clip-rule="evenodd" d="M17.8337 14.1486C17.2295 14.0467 16.6177 13.9969 16.005 14L15.996 14V14C13.034 13.9881 10.1874 15.1474 8.0765 17.2252C7.6829 17.6126 7.04976 17.6076 6.66233 17.214C6.2749 16.8204 6.2799 16.1873 6.6735 15.7998C9.15946 13.3529 12.5115 11.9871 15.9995 12C16.7255 11.9966 17.4505 12.0557 18.1663 12.1764C18.7109 12.2683 19.0779 12.7843 18.9861 13.3288C18.8942 13.8734 18.3783 14.2404 17.8337 14.1486Z" fill="black"/>
<path d="M16 26.5C16.8284 26.5 17.5 25.8284 17.5 25C17.5 24.1716 16.8284 23.5 16 23.5C15.1716 23.5 14.5 24.1716 14.5 25C14.5 25.8284 15.1716 26.5 16 26.5Z" fill="black"/>
</svg>
