<svg xmlns="http://www.w3.org/2000/svg" width="32" height="32" fill="none" viewBox="0 0 32 32"><path fill="#000" fill-rule="evenodd" d="M16 18C16 17.4477 16.4477 17 17 17H27C27.5523 17 28 17.4477 28 18V27C28 27.2964 27.8685 27.5776 27.641 27.7676C27.4134 27.9576 27.1133 28.0368 26.8217 27.984L16.8217 26.1715C16.3459 26.0852 16 25.671 16 25.1875V18ZM18 19V24.3525L26 25.8025V19H18Z" clip-rule="evenodd"/><path fill="#000" fill-rule="evenodd" d="M4 18C4 17.4477 4.44772 17 5 17H13C13.5523 17 14 17.4477 14 18V24.45C14 24.7464 13.8685 25.0276 13.641 25.2176C13.4134 25.4076 13.1133 25.4868 12.8217 25.434L4.82166 23.984C4.34591 23.8977 4 23.4835 4 23V18ZM6 19V22.165L12 23.2525V19H6Z" clip-rule="evenodd"/><path fill="#000" fill-rule="evenodd" d="M27.641 4.23242C27.8685 4.42241 28 4.70357 28 4.99999V14C28 14.5523 27.5523 15 27 15H17C16.4477 15 16 14.5523 16 14V6.81249C16 6.329 16.3459 5.91475 16.8217 5.82852L26.8217 4.01602C27.1133 3.96316 27.4134 4.04242 27.641 4.23242ZM18 7.64754V13H26V6.19754L18 7.64754Z" clip-rule="evenodd"/><path fill="#000" fill-rule="evenodd" d="M13.641 6.78242C13.8685 6.97242 14 7.25357 14 7.55V14C14 14.5523 13.5523 15 13 15H5C4.44772 15 4 14.5523 4 14V9C4 8.5165 4.34591 8.10226 4.82166 8.01603L12.8217 6.56603C13.1133 6.51316 13.4134 6.59242 13.641 6.78242ZM6 9.83504V13H12V8.74754L6 9.83504Z" clip-rule="evenodd"/></svg>