<svg xmlns="http://www.w3.org/2000/svg" width="32" height="32" fill="none" viewBox="0 0 32 32"><path fill="#000" fill-rule="evenodd" d="M16 21C16.5523 21 17 21.4477 17 22V29C17 29.5523 16.5523 30 16 30C15.4477 30 15 29.5523 15 29V22C15 21.4477 15.4477 21 16 21Z" clip-rule="evenodd"/><path fill="#000" fill-rule="evenodd" d="M10 29C10 28.4477 10.4477 28 11 28H21C21.5523 28 22 28.4477 22 29C22 29.5523 21.5523 30 21 30H11C10.4477 30 10 29.5523 10 29Z" clip-rule="evenodd"/><path fill="#000" fill-rule="evenodd" d="M9.04105 2.71654C9.16665 2.29161 9.55692 2 10 2H22C22.4431 2 22.8334 2.29161 22.959 2.71654L26.2228 13.7582C26.4905 14.6788 26.4197 15.6648 26.0234 16.5378C25.1518 18.4656 23.7428 20.1013 21.9652 21.2486C20.1873 22.3961 18.1161 23.0065 16 23.0065C13.884 23.0065 11.8128 22.3961 10.0349 21.2486C8.25699 20.1011 6.84779 18.4651 5.97628 16.5369C5.58027 15.6642 5.50967 14.6785 5.77732 13.7582L5.77854 13.754L9.04105 2.71654ZM10.7472 4L7.69775 14.3168C7.69756 14.3174 7.69738 14.318 7.6972 14.3187C7.56351 14.78 7.59924 15.274 7.79795 15.7113L7.79878 15.7131C8.51184 17.2908 9.66481 18.6293 11.1195 19.5682C12.5741 20.5071 14.2687 21.0065 16 21.0065C17.7314 21.0065 19.4259 20.5071 20.8806 19.5682C22.3353 18.6293 23.4882 17.2908 24.2013 15.7131L24.2021 15.7113C24.4008 15.274 24.4366 14.78 24.3029 14.3186C24.3027 14.318 24.3025 14.3174 24.3023 14.3168L21.2528 4H10.7472Z" clip-rule="evenodd"/><path fill="#000" fill-rule="evenodd" d="M15.5534 13.8948C11.4733 11.8606 8.74334 12.8363 7.66105 13.4182C7.17464 13.6798 6.56828 13.4975 6.30671 13.0111C6.04515 12.5247 6.22743 11.9183 6.71385 11.6568C8.28153 10.8138 11.7015 9.73945 16.4461 12.1051L16.4472 12.1056C20.7844 14.2742 23.6091 13.0278 24.5409 12.4768C25.0163 12.1956 25.6296 12.3531 25.9107 12.8285C26.1918 13.3038 26.0344 13.9171 25.559 14.1982C24.1659 15.0221 20.6158 16.4257 15.5534 13.8948Z" clip-rule="evenodd"/></svg>