<svg xmlns="http://www.w3.org/2000/svg" width="32" height="32" fill="none" viewBox="0 0 32 32"><path fill="#000" fill-rule="evenodd" d="M21.2387 5.10669C20.3308 4.94047 19.3936 4.95485 18.482 5.155C17.0583 5.46756 15.768 6.21749 14.7918 7.29982C13.8155 8.38214 13.2021 9.74267 13.0375 11.1909C12.873 12.6392 13.1654 14.1026 13.8739 15.3764C14.1043 15.7907 14.0122 16.3098 13.6533 16.6195L5.55892 23.6056C5.19736 23.9793 4.99475 24.4792 4.99475 25C4.99475 25.5318 5.20601 26.0418 5.58206 26.4179C5.95811 26.7939 6.46814 27.0052 6.99995 27.0052C7.52076 27.0052 8.02067 26.8026 8.39432 26.441L15.3804 18.3466L16.1375 19L16.6235 18.1261C17.8973 18.8346 19.3608 19.127 20.809 18.9624C22.2573 18.7978 23.6178 18.1844 24.7001 17.2082C25.7825 16.2319 26.5324 14.9416 26.845 13.518C27.0451 12.6063 27.0595 11.6692 26.8933 10.7612L22.8329 14.8313C22.5961 15.0686 22.2562 15.1715 21.9275 15.1053L18.39 14.3928C17.9952 14.3133 17.6867 14.0047 17.6071 13.6099L16.8946 10.0724C16.8284 9.74379 16.9313 9.40383 17.1687 9.16705L21.2387 5.10669ZM16.3878 20.2404L9.88199 27.7784C9.86601 27.7969 9.84935 27.8148 9.83206 27.8321C9.08094 28.5832 8.0622 29.0052 6.99995 29.0052C5.93771 29.0052 4.91897 28.5832 4.16785 27.8321C3.41673 27.081 2.99475 26.0622 2.99475 25C2.99475 23.9377 3.41673 22.919 4.16785 22.1679C4.18514 22.1506 4.20306 22.1339 4.22158 22.118L11.7595 15.6122C11.117 14.158 10.8697 12.5544 11.0503 10.9651C11.262 9.1023 12.051 7.35236 13.3067 5.96024C14.5623 4.56813 16.2219 3.60354 18.0531 3.20152C19.8842 2.7995 21.7953 2.98018 23.5186 3.71825C23.8239 3.84899 24.0444 4.12273 24.107 4.44885C24.1696 4.77497 24.0663 5.11091 23.8312 5.34544L18.9613 10.2038L19.4365 12.5634L21.7961 13.0387L26.6545 8.16873C26.889 7.93364 27.225 7.83031 27.5511 7.89295C27.8772 7.9556 28.151 8.17604 28.2817 8.48131C29.0198 10.2047 29.2004 12.1157 28.7984 13.9469C28.3964 15.778 27.4318 17.4376 26.0397 18.6933C24.6476 19.949 22.8977 20.7379 21.0349 20.9496C19.4455 21.1302 17.842 20.8829 16.3878 20.2404Z" clip-rule="evenodd"/></svg>